<svg width="97" height="21" viewBox="0 0 97 21" fill="none" xmlns="http://www.w3.org/2000/svg">
<path d="M3.1742 19.8047H0.367218V-0.000108719H3.1742V7.58913C4.10986 5.97772 6.13712 5.14602 8.21636 5.14602C12.1669 5.14602 15.4937 8.05696 15.4937 12.6313C15.4937 17.2056 12.1149 20.1685 8.21636 20.1685C6.1891 20.1685 4.16184 19.2329 3.1742 17.6215V19.8047ZM8.00844 17.3616C10.6075 17.3616 12.6348 15.3863 12.6348 12.5793C12.6348 9.77233 10.5555 7.84903 8.00844 7.84903C5.66929 7.84903 3.22618 9.46045 3.22618 12.5793C3.22618 15.5942 5.40938 17.3616 8.00844 17.3616Z" fill="white"/>
<path d="M21.5236 19.8042H18.7686V5.40542H21.5236V19.8042ZM21.5236 2.75438H18.7686V-0.000614166H21.5236V2.75438Z" fill="white"/>
<path d="M32.8548 5.40542V7.79655H29.7879V19.8042H26.9809V7.79655H24.3818V5.40542H26.9809V-0.000614166H29.7879V5.40542H32.8548Z" fill="white"/>
<path d="M47.305 7.74467L38.5721 17.1532H47.305V19.8563H34.6736V17.5691L43.2504 8.16051H35.1934V5.4575H47.305V7.74467Z" fill="white"/>
<path d="M48.6573 12.5789C48.6573 8.00461 52.0881 5.14565 56.1946 5.14565C60.3011 5.14565 63.7319 8.05659 63.7319 12.5789C63.7319 17.1533 60.3011 20.1162 56.1946 20.1162C52.0881 20.1162 48.6573 17.1013 48.6573 12.5789ZM60.9249 12.5789C60.9249 9.66801 58.7417 7.84867 56.1946 7.84867C53.5956 7.84867 51.4643 9.66801 51.4643 12.5789C51.4643 15.5419 53.5956 17.4132 56.1946 17.4132C58.7417 17.4132 60.9249 15.5419 60.9249 12.5789Z" fill="white"/>
<path d="M69.1903 19.8038H66.3833V5.40503H69.1903V7.53626C70.022 5.82088 72.1012 5.09315 73.6606 5.09315C77.2473 5.09315 79.2226 7.38031 79.2226 11.4868V19.8038H76.4156V11.6947C76.4156 9.25163 75.2201 7.90013 73.2448 7.90013C71.2175 7.90013 69.1903 9.04371 69.1903 12.1106V19.8038Z" fill="white"/>
<path d="M96.1167 13.67H84.4209C84.7848 16.1131 86.6041 17.5686 89.0472 17.5686C90.7626 17.5686 92.322 16.7889 93.1537 15.3334C93.8815 15.6973 94.7651 15.9052 95.5449 16.2691C94.2973 18.8162 91.7502 20.0637 88.9433 20.0637C84.8368 20.0637 81.562 17.1008 81.562 12.5264C81.562 7.95211 84.8368 5.09315 88.9433 5.09315C93.0498 5.09315 96.0647 8.00409 96.0647 12.5264C96.1686 12.8903 96.1686 13.3581 96.1167 13.67ZM93.4136 11.4868C93.0498 9.04371 91.3864 7.64022 89.0472 7.64022C86.6561 7.64022 84.8368 9.04371 84.4729 11.4868H93.4136Z" fill="white"/>
</svg>
