<svg width="29" height="32" viewBox="0 0 29 32" fill="none" xmlns="http://www.w3.org/2000/svg">
<g clip-path="url(#clip0)">
<path d="M28.424 9.3836C28.4238 8.84693 28.309 8.37271 28.0769 7.96571C27.8489 7.56549 27.5075 7.23004 27.0495 6.96482C23.2689 4.78493 19.4847 2.61171 15.7054 0.429597C14.6865 -0.158625 13.6986 -0.13718 12.6872 0.459486C11.1825 1.34693 3.64858 5.66326 1.40358 6.9636C0.479021 7.49882 0.0291325 8.31793 0.0289103 9.3826C0.0274658 13.7665 0.0289103 18.1503 0.0274658 22.5343C0.0274658 23.0592 0.137577 23.5242 0.359466 23.925C0.587577 24.3374 0.933799 24.682 1.40235 24.9533C3.64747 26.2536 11.1824 30.5696 12.6868 31.4573C13.6986 32.0543 14.6865 32.0756 15.7057 31.4872C19.4851 29.3049 23.2696 27.1318 27.0507 24.9519C27.5192 24.6808 27.8655 24.3359 28.0936 23.9239C28.3151 23.523 28.4255 23.058 28.4255 22.533C28.4255 22.533 28.4255 13.7676 28.424 9.3836Z" fill="#A179DC"/>
<path d="M14.2699 15.916L0.359482 23.9254C0.587593 24.3377 0.933815 24.6824 1.40237 24.9536C3.64748 26.2539 11.1824 30.5699 12.6868 31.4576C13.6986 32.0546 14.6865 32.0759 15.7057 31.4875C19.4851 29.3052 23.2696 27.1321 27.0507 24.9522C27.5193 24.6811 27.8655 24.3362 28.0936 23.9242L14.2699 15.916Z" fill="#280068"/>
<path d="M28.424 9.38371C28.4238 8.84704 28.309 8.37282 28.0769 7.96582L14.2699 15.9158L28.0936 23.924C28.3151 23.5232 28.4252 23.0582 28.4255 22.5332C28.4255 22.5332 28.4255 13.7677 28.424 9.38371Z" fill="#390091"/>
<path d="M22.46 12.9219V14.419H23.957V12.9219H24.7056V14.419H26.2027V15.1675H24.7056V16.6646H26.2027V17.4131H24.7056V18.9102H23.957V17.4131H22.46V18.9102H21.7114V17.4131H20.2144V16.6646H21.7114V15.1675H20.2144V14.419H21.7114V12.9219H22.46ZM23.957 15.1675H22.46V16.6646H23.957V15.1675Z" fill="white"/>
<path d="M14.3004 5.40234C18.2053 5.40234 21.6146 7.52304 23.4406 10.6752L23.4228 10.6449L18.8285 13.2903C17.9234 11.7576 16.2639 10.7234 14.3604 10.7021L14.3004 10.7017C11.3976 10.7017 9.04421 13.055 9.04421 15.9578C9.04421 16.9071 9.2973 17.797 9.73743 18.5656C10.6434 20.1473 12.3466 21.2141 14.3004 21.2141C16.2663 21.2141 17.9792 20.1337 18.8806 18.5351L18.8587 18.5735L23.4461 21.231C21.6401 24.3565 18.2775 26.4707 14.418 26.5128L14.3004 26.5135C10.3833 26.5135 6.96431 24.3797 5.14283 21.2108C4.25361 19.6638 3.74483 17.8703 3.74483 15.9578C3.74483 10.1283 8.47064 5.40234 14.3004 5.40234Z" fill="white"/>
</g>
<defs>
<clipPath id="clip0">
<rect width="28.4444" height="32" fill="white" transform="translate(0.0274658)"/>
</clipPath>
</defs>
</svg>
