<svg width="117" height="125" viewBox="0 0 117 125" fill="none" xmlns="http://www.w3.org/2000/svg">
<g clip-path="url(#clip0)">
<path d="M19.6613 94.9438C19.6613 94.9438 20.0722 86.1067 28.4952 87.1339L19.6613 94.9438Z" fill="#E6E6E6"/>
<path d="M19.5621 124.889C19.5515 124.796 18.5574 115.588 22.5829 110.714C24.0685 108.916 26.0592 107.908 28.4996 107.721L28.5265 108.068C26.1842 108.248 24.2749 109.213 22.8518 110.935C18.9205 115.694 19.8977 124.758 19.9079 124.849L19.5621 124.889Z" fill="#E6E6E6"/>
<path d="M19.5724 85.9072H19.222V124.624H19.5724V85.9072Z" fill="#E6E6E6"/>
<path d="M19.6608 86.1058C21.2493 86.1058 22.537 84.8181 22.537 83.2297C22.537 81.6412 21.2493 80.3535 19.6608 80.3535C18.0724 80.3535 16.7847 81.6412 16.7847 83.2297C16.7847 84.8181 18.0724 86.1058 19.6608 86.1058Z" fill="#7F52DD"/>
<path d="M28.5133 110.752C30.0917 110.752 31.3713 109.473 31.3713 107.894C31.3713 106.316 30.0917 105.036 28.5133 105.036C26.9349 105.036 25.6554 106.316 25.6554 107.894C25.6554 109.473 26.9349 110.752 28.5133 110.752Z" fill="#E6E6E6"/>
<path d="M116.827 31.6022V31.7914C116.823 32.2665 116.809 32.7394 116.786 33.2102C116.377 41.2676 112.901 48.8631 107.071 54.4401C101.241 60.0172 93.4994 63.1535 85.4318 63.2063C77.3642 63.259 69.5819 60.2243 63.6798 54.724C57.7777 49.2237 54.2027 41.6743 53.6875 33.623C53.6445 32.9544 53.623 32.2808 53.623 31.6022C53.6117 25.0569 55.6431 18.6711 59.4339 13.3353C59.7371 12.9053 60.0524 12.4833 60.3798 12.0691C60.6056 11.781 60.8378 11.4994 61.0721 11.2199C66.4068 4.9 74.0061 0.922754 82.2395 0.141447C90.473 -0.639861 98.6847 1.83702 105.113 7.04069C105.493 7.34811 105.868 7.66628 106.233 7.9909C106.525 8.25103 106.813 8.51689 107.095 8.78848C112.656 14.1074 116.078 21.2768 116.718 28.945C116.791 29.8221 116.827 30.7079 116.827 31.6022Z" fill="#7F52DD"/>
<path d="M60.3798 12.0689C60.3953 12.0754 60.4098 12.0841 60.4228 12.0947C60.5927 12.2344 60.3798 12.5031 60.4056 12.7246C60.4357 13.0083 60.8141 13.0707 61.1 13.0986C61.3859 13.1287 61.7471 13.3588 61.6117 13.6124C60.8936 13.8597 60.167 13.6167 59.4339 13.3351C55.643 18.6709 53.6117 25.0566 53.623 31.602C53.623 32.2813 53.6445 32.9549 53.6875 33.6228C53.7476 33.6666 53.8134 33.7021 53.8831 33.7281C54.0981 33.8098 54.3475 33.7948 54.5453 33.9109C54.7022 34.0033 54.8076 34.1667 54.9645 34.2527C55.4138 34.4978 56.0372 34.0269 56.4565 34.3193C56.5648 34.418 56.6674 34.5228 56.7639 34.6332C57.1508 34.9686 57.7872 34.7428 58.2343 34.9944C58.5224 35.1556 58.6707 35.4781 58.8255 35.7704C59.2103 36.5014 59.8338 37.2194 60.6572 37.2775C60.9168 37.2655 61.1771 37.2742 61.4354 37.3032C61.6891 37.3613 61.9384 37.5827 61.8976 37.8385C61.8267 38.2793 62.0438 38.7608 61.9857 39.2015C61.8804 40.0077 60.7388 40.3603 60.6421 41.1665C60.6418 41.3439 60.6317 41.5211 60.612 41.6974C60.5604 41.9081 60.4013 42.0801 60.3454 42.2908C60.2379 42.6885 60.5239 43.0862 60.8356 43.3528C61.1495 43.6215 61.5235 43.8537 61.6955 44.2278C61.8761 44.6255 61.7879 45.0877 61.846 45.5198C61.975 46.4636 62.7898 47.1622 63.6282 47.6137C63.8969 47.726 64.1354 47.8998 64.3247 48.1211C64.5397 48.4328 64.5182 48.8434 64.5913 49.2153C64.7676 50.1247 65.5329 50.875 65.5544 51.8015C65.5694 52.4615 65.204 53.0591 64.9847 53.6804C64.7591 54.3317 64.6921 55.0274 64.7891 55.7098C66.0148 56.7495 67.3178 57.6945 68.6867 58.5368C68.7611 58.4268 68.8157 58.3046 68.8479 58.1757C68.8739 58.0331 68.856 57.8861 68.7964 57.754C68.7369 57.6219 68.6387 57.5111 68.5147 57.4361C68.7457 57.3488 68.9559 57.2141 69.1317 57.0406C69.218 56.9518 69.2751 56.8386 69.295 56.7163C69.315 56.5941 69.297 56.4686 69.2435 56.3569C69.6218 56.4042 70.0711 56.4279 70.3205 56.1377C70.5204 55.9055 70.5075 55.5572 70.428 55.2627C70.3485 54.966 70.2152 54.6801 70.213 54.3727C71.0896 54.4153 71.9683 54.3859 72.8401 54.2845C72.7139 53.8593 72.4271 53.5 72.0404 53.2827C72.4359 53.2161 72.7949 52.7431 72.9196 52.3626C73.0275 51.9744 73.0334 51.5649 72.9368 51.1738C72.9069 51.0732 72.9025 50.9669 72.9239 50.8642C72.9875 50.7279 73.0993 50.6199 73.2378 50.5611C73.8913 50.1848 74.5449 49.8094 75.1984 49.4346C75.315 49.3758 75.4211 49.298 75.5123 49.2045C75.7165 48.9616 75.6864 48.5983 75.5811 48.2995C75.4757 48.0007 75.3081 47.719 75.2672 47.4052C75.1468 46.4657 76.1529 45.7907 76.4926 44.9049C76.6081 44.5514 76.6704 44.1826 76.6775 43.8107C76.7054 43.4108 76.7076 42.9486 76.4023 42.6928C76.1078 42.4456 75.6499 42.5015 75.3424 42.2714C75.0608 42.0608 74.9641 41.6544 74.6567 41.4846C74.3772 41.3298 74.0289 41.4287 73.7172 41.3556C73.1711 41.2288 72.8272 40.5989 72.2682 40.5409C71.9544 40.5065 71.5975 40.6612 71.3395 40.4785C71.1116 40.3151 71.103 39.9905 71.06 39.7153C70.9837 39.2867 70.778 38.8917 70.4705 38.5835C70.1631 38.2753 69.7686 38.0686 69.3402 37.9912C69.0156 37.9396 68.663 37.9589 68.3857 37.7805C68.1062 37.5999 67.9794 37.2624 67.758 37.0109C67.4054 36.6089 66.8464 36.4648 66.324 36.3423C65.6146 36.1768 64.9059 36.0105 64.1979 35.8435C63.8217 35.7532 63.3358 35.7059 63.1316 36.037C63.0711 36.1629 63.0291 36.2969 63.0069 36.4347C62.9301 36.6828 62.777 36.9004 62.5693 37.0563C62.3616 37.2123 62.11 37.2987 61.8503 37.3032C61.6725 36.9997 61.3845 36.7764 61.0463 36.6798C60.8252 36.6427 60.6069 36.591 60.3927 36.525C60.2809 36.4702 60.1814 36.3932 60.1003 36.2986C60.0193 36.204 59.9584 36.0939 59.9213 35.9749C59.8843 35.856 59.8719 35.7308 59.885 35.6069C59.898 35.483 59.9362 35.3631 59.9972 35.2545C60.1191 35.0363 60.166 34.7841 60.1306 34.5367C60.0953 34.2893 59.9797 34.0604 59.8015 33.8851C59.4404 33.5604 58.918 33.4809 58.4321 33.5132C58.3053 33.2358 58.5181 32.9241 58.746 32.722C58.976 32.5221 59.2533 32.3243 59.3028 32.0233C59.3823 31.5504 58.7782 31.1914 58.3203 31.3311C57.8624 31.473 57.57 31.918 57.3766 32.3566C57.2827 32.6153 57.1548 32.8604 56.9961 33.0853C56.9147 33.1966 56.8042 33.2832 56.6767 33.3356C56.5493 33.3879 56.4098 33.404 56.2737 33.382C55.8954 33.2853 55.7513 32.836 55.6675 32.4576C55.5331 31.9519 55.4652 31.4308 55.4654 30.9076C55.4687 30.3792 55.6786 29.873 56.0501 29.4973C56.6757 28.9212 57.6388 28.9771 58.4837 29.0695C58.3932 28.9488 58.3498 28.7993 58.3617 28.6489C58.3736 28.4985 58.4399 28.3576 58.5482 28.2526C58.6613 28.1522 58.7971 28.0809 58.944 28.045C59.0908 28.009 59.2443 28.0094 59.3909 28.0462C59.6456 28.0989 59.8751 28.236 60.0423 28.4353C60.2831 28.7277 60.3519 29.1254 60.5325 29.4565C60.7152 29.7897 61.1237 30.0735 61.4569 29.895C61.7471 29.7402 61.7922 29.3404 61.7213 29.0201C61.6482 28.7019 61.4956 28.3902 61.5214 28.0634C61.5708 27.4421 62.2179 27.0659 62.7876 26.8101C63.3573 26.5542 64.0087 26.2081 64.099 25.589C64.1032 25.4686 64.1264 25.3496 64.1678 25.2364C64.2308 25.1354 64.319 25.0525 64.4236 24.9956C66.0854 23.8971 67.7773 22.7835 69.6777 22.1837C69.7766 22.1515 69.7873 22.1859 69.8884 22.1622C70.0303 22.0805 69.9357 21.8548 69.8003 21.7645C69.6648 21.6742 69.4842 21.6033 69.4498 21.4442C69.4262 21.3281 69.495 21.212 69.5122 21.0938C69.5167 21.0223 69.5036 20.9509 69.4741 20.8857C69.4445 20.8205 69.3994 20.7636 69.3428 20.7199C69.2861 20.6762 69.2196 20.647 69.1491 20.635C69.0785 20.623 69.0061 20.6284 68.9382 20.6509C68.7856 20.4488 69.0865 20.2145 69.3316 20.1457C70.0654 19.9447 70.8185 19.8222 71.5781 19.7802C71.6658 19.7657 71.7558 19.7809 71.834 19.8232C71.8898 19.8771 71.923 19.9504 71.9266 20.0279C71.9301 20.1055 71.9039 20.1814 71.8533 20.2403C71.7499 20.3552 71.6354 20.4596 71.5115 20.552C71.3882 20.6718 71.3001 20.8232 71.2569 20.9896C71.2136 21.156 71.217 21.3311 71.2664 21.4958C71.6641 21.6979 72.0941 21.9064 72.5348 21.8354C72.9734 21.7645 73.3625 21.27 73.1561 20.8766C72.9648 20.509 72.3865 20.4252 72.2876 20.0232C72.1715 19.5523 72.8379 19.1331 72.6874 18.6731C72.6229 18.471 72.4209 18.3506 72.2661 18.2066C72.0839 18.0272 71.96 17.7972 71.9106 17.5464C71.8611 17.2956 71.8883 17.0357 71.9887 16.8006C71.7371 16.8446 71.4785 16.8277 71.2347 16.7514C70.9909 16.6751 70.7688 16.5416 70.5871 16.362C70.2517 16.0245 69.9851 15.4892 69.5079 15.5064C69.0715 15.5193 68.6952 16.0288 68.2868 15.874C68.1857 15.8353 68.0804 15.7579 67.9837 15.8031C67.9518 15.8236 67.9249 15.8511 67.9052 15.8835C67.8854 15.9159 67.8733 15.9524 67.8697 15.9901C67.7665 16.4867 67.945 17.0521 67.6741 17.4821C67.3796 17.9486 66.6981 18.0131 66.3412 18.4344C66.1477 18.6623 66.0725 18.9697 65.8941 19.2105C65.7156 19.4513 65.3394 19.6061 65.1244 19.3954C65.2297 19.1796 65.2585 18.9344 65.2062 18.7C65.1539 18.4657 65.0235 18.2561 64.8364 18.1055C64.6384 17.9756 64.4245 17.8715 64.2 17.796C63.9493 17.6901 63.7107 17.5575 63.4884 17.4004C63.3777 17.3329 63.2877 17.2362 63.2283 17.1209C63.1813 16.9759 63.1874 16.819 63.2455 16.6781C63.3544 16.3676 63.5458 16.0926 63.7992 15.8828C64.0526 15.6729 64.3584 15.5361 64.6837 15.4871C64.9675 15.4484 65.2986 15.4613 65.4877 15.2442C65.5866 15.1302 65.6382 14.9561 65.7844 14.9109C65.8765 14.8917 65.9724 14.903 66.0574 14.9432C66.4122 15.0679 66.7647 15.1926 67.1195 15.3173C67.2377 15.3715 67.3684 15.393 67.4978 15.3796C67.562 15.3713 67.6205 15.3389 67.6617 15.289C67.7028 15.2391 67.7234 15.1754 67.7192 15.1109C67.6848 14.9346 67.414 14.8507 67.4398 14.6723C67.4523 14.614 67.4832 14.5613 67.5279 14.5218C67.9113 14.114 68.3802 13.7959 68.9008 13.5904C69.4215 13.3849 69.9812 13.297 70.5398 13.333C70.6731 13.5544 70.4624 13.8145 70.284 14.0016C70.1077 14.1907 69.9658 14.5261 70.1808 14.6702C70.2675 14.7156 70.3645 14.7379 70.4624 14.7346C70.7238 14.7697 70.9779 14.8467 71.2148 14.9625C71.5824 15.1216 71.9436 15.2979 72.2962 15.4871C72.2443 15.2566 72.2532 15.0166 72.322 14.7905C72.3608 14.6796 72.4396 14.5871 72.5429 14.5311C72.6462 14.475 72.7667 14.4595 72.8809 14.4874C73.0916 14.5691 73.1991 14.8486 73.4248 14.8744C73.7236 14.9088 73.8419 14.4659 73.7172 14.1907C73.5925 13.9156 73.3431 13.6877 73.3238 13.3846C73.3087 13.1825 73.3861 12.931 73.2249 12.8084C73.1676 12.7704 73.1019 12.7469 73.0336 12.7396C71.6835 12.4924 70.3327 12.2445 68.9812 11.9958C68.7404 11.9507 68.3943 11.9851 68.3835 12.228C68.3771 12.3656 68.4996 12.501 68.4459 12.6257C68.3878 12.759 68.1987 12.7482 68.0611 12.7955C67.9577 12.8424 67.8724 12.9217 67.8181 13.0214C67.7638 13.1211 67.7434 13.2357 67.7601 13.348C67.7968 13.5716 67.8836 13.7839 68.0138 13.9693C67.7493 13.8597 67.3516 13.8403 67.0872 13.7285C67.0487 13.4224 66.9707 13.1225 66.855 12.8364C66.8484 12.7908 66.8319 12.7473 66.8067 12.7088C66.7814 12.6704 66.748 12.6379 66.7089 12.6137C66.6698 12.5896 66.6258 12.5742 66.5801 12.5689C66.5344 12.5635 66.4881 12.5682 66.4444 12.5827C66.0961 12.6364 65.7479 12.688 65.3996 12.7418C65.3122 12.7459 65.2284 12.7784 65.161 12.8342C65.0256 12.9783 65.1588 13.2083 65.1545 13.4061C65.1419 13.5167 65.0952 13.6206 65.0209 13.7034C64.9465 13.7862 64.8482 13.8439 64.7396 13.8683C64.5208 13.9127 64.295 13.9098 64.0775 13.8597C63.5895 13.7844 63.1036 13.7092 62.6156 13.6339C63.0464 13.4967 63.4295 13.2403 63.7206 12.8944C63.9141 12.6665 64.0173 12.2409 63.7378 12.1334C63.6553 12.1107 63.5692 12.1042 63.4841 12.114C62.822 12.1183 62.2996 11.5658 61.6805 11.3315C61.4858 11.2589 61.2798 11.2211 61.0721 11.2197L60.3798 12.0689Z" fill="#3F3D56"/>
<path d="M116.786 33.2107C116.71 33.3125 116.611 33.3941 116.496 33.4485C116.381 33.5028 116.255 33.5282 116.128 33.5224C115.455 33.4644 115.171 32.4948 114.505 32.3852C114.446 32.3701 114.384 32.3762 114.329 32.4024C114.23 32.4561 114.213 32.5894 114.206 32.7012C114.178 33.2559 114.155 33.832 114.372 34.3437C114.688 35.0918 115.507 35.7195 115.335 36.5128C114.41 36.085 113.929 35.0467 113.712 34.0513C113.492 33.0559 113.458 32.0111 113.067 31.0695C112.768 31.45 112.145 31.1362 111.874 30.7363C111.616 30.3579 111.457 29.9194 111.207 29.5346C110.958 29.1519 110.575 28.8079 110.119 28.7864C109.64 28.7649 109.223 29.0939 108.858 29.4056C108.54 29.6404 108.273 29.9374 108.073 30.2784C107.817 30.7944 107.884 31.4006 107.871 31.9746C107.858 32.5937 107.727 33.2494 107.303 33.7052C106.88 34.1588 106.099 34.3179 105.633 33.9073C105.407 33.6721 105.247 33.3825 105.166 33.0667C104.659 31.5887 104.237 30.0828 103.902 28.5564C103.825 28.9047 103.517 29.354 103.225 29.1498C103.16 29.0942 103.107 29.0253 103.07 28.9477C102.524 28.0254 101.516 27.4708 100.495 27.1375C99.4758 26.8065 98.403 26.6517 97.3948 26.2862C96.8294 26.0809 96.2891 25.8119 95.7846 25.4843C95.6564 25.6731 95.5816 25.893 95.568 26.1208C95.5543 26.3486 95.6024 26.5758 95.7072 26.7785C95.8205 26.9769 95.9962 27.1323 96.2069 27.2205C96.4176 27.3088 96.6515 27.3249 96.8724 27.2665C97.096 27.1934 97.2851 27.0387 97.5066 26.9613C97.728 26.886 98.0268 26.9226 98.1236 27.1375C98.2181 27.3418 98.0763 27.589 98.1472 27.804C98.2526 28.1286 98.7449 28.1544 98.9168 28.4511C98.9674 28.5686 98.979 28.6991 98.95 28.8237C98.921 28.9483 98.8529 29.0603 98.7556 29.1433C98.5578 29.3046 98.3394 29.4391 98.1064 29.5432C97.384 29.9452 96.8702 30.631 96.2382 31.1641C95.6061 31.6994 94.714 32.0885 93.9616 31.7467C94.14 30.8374 93.0586 30.1709 92.8587 29.2659C92.7921 28.967 92.8265 28.651 92.734 28.3608C92.5986 27.9394 92.2245 27.6514 91.9192 27.3332C91.5484 26.9426 91.2594 26.4817 91.0692 25.9778C90.8791 25.4738 90.7917 24.9369 90.8121 24.3987C90.8293 24.0246 90.8981 23.6441 90.8121 23.2787C90.7283 22.9153 90.4251 22.5628 90.0511 22.5778C89.1976 22.6165 88.1205 22.681 87.6734 21.9522C87.5121 21.6921 87.4434 21.3116 87.6755 21.1117C87.8389 20.9719 88.0797 20.9848 88.2925 21.0063C88.9353 21.0687 89.576 21.1332 90.2187 21.1955C90.6681 21.2385 91.1539 21.275 91.5409 21.0407C91.9278 20.8064 92.0955 20.1808 91.7365 19.9035C91.4764 19.7014 91.0077 19.7121 90.9303 19.3918C90.868 19.1231 91.1647 18.82 91.0034 18.5942C90.8895 18.4352 90.6315 18.4781 90.4746 18.5985C90.3376 18.7407 90.1887 18.8709 90.0296 18.9876C89.7221 19.1467 89.3567 18.9941 89.0256 18.8909C88.6945 18.7877 88.2517 18.7791 88.0926 19.0865C87.912 19.4284 88.2495 19.8798 88.0733 20.2238C87.8368 20.6774 87.0413 20.4194 86.7103 20.8107C86.3319 21.2578 86.9682 21.9286 86.8414 22.5004C86.6781 22.5814 86.4966 22.6187 86.3146 22.6085C86.1326 22.5983 85.9563 22.5411 85.803 22.4424C85.6526 22.3401 85.5328 22.1988 85.4563 22.0338C85.3798 21.8687 85.3496 21.686 85.3688 21.5051C85.3989 21.2471 85.5343 20.9827 85.444 20.7397C85.3467 20.5521 85.186 20.4051 84.9904 20.3248C84.367 19.9787 83.7435 19.634 83.1201 19.2908C82.946 19.6132 83.1652 20.011 83.4404 20.2539C83.7134 20.4947 84.0574 20.6774 84.238 20.9956C84.3523 21.2161 84.3782 21.4719 84.3103 21.7108C84.2423 21.9498 84.0858 22.1538 83.8725 22.2811C83.8455 22.2997 83.8148 22.3122 83.7825 22.3178C83.7503 22.3233 83.7171 22.3218 83.6855 22.3134C83.6557 22.2959 83.6297 22.2726 83.609 22.2449C83.5883 22.2172 83.5734 22.1857 83.5651 22.1522C83.2362 21.3073 82.7396 20.4753 81.9484 20.0346C81.1552 19.5917 80.0179 19.6842 79.4977 20.4259C79.3751 20.6022 79.2913 20.8042 79.1838 20.9913C78.6141 21.9823 77.3887 22.451 76.245 22.4209C76.1332 22.4281 76.0217 22.4019 75.9247 22.3456C75.7398 22.2188 75.7484 21.9479 75.7764 21.7243C75.8172 21.4083 75.8559 21.0945 75.8968 20.7784C75.8978 20.5855 75.9723 20.4002 76.1053 20.2603C76.3181 20.0926 76.6234 20.198 76.8943 20.1937C77.0987 20.1846 77.2953 20.1126 77.4573 19.9875C77.6193 19.8625 77.7388 19.6905 77.7993 19.495C77.8538 19.2978 77.8534 19.0894 77.7981 18.8923C77.7427 18.6953 77.6347 18.5172 77.4855 18.3771C77.3629 18.261 77.1974 18.1148 77.2619 17.9579C77.2881 17.9147 77.3234 17.8777 77.3653 17.8495C77.4073 17.8212 77.4549 17.8025 77.5048 17.7945C77.9885 17.6548 78.5023 17.6182 78.9774 17.4505C79.4547 17.285 79.9169 16.9453 80.0308 16.453C80.0652 16.3025 80.0803 16.1198 80.2157 16.0446C80.2841 16.0171 80.357 16.0026 80.4307 16.0016C80.6892 15.9645 80.9245 15.8322 81.0903 15.6305C81.2562 15.4288 81.3407 15.1724 81.3271 14.9116C81.555 14.7525 81.8754 14.8708 82.0968 15.0406C82.3161 15.2105 82.5117 15.434 82.7804 15.5071C83.2813 15.6447 83.765 15.1997 84.2853 15.1976C84.5046 15.1976 84.7303 15.2749 84.9345 15.1997C85.143 15.1245 85.2677 14.9181 85.4268 14.7654C85.5881 14.6107 85.8675 14.5182 86.0159 14.6838C85.9729 14.372 85.932 14.0625 85.889 13.7529C86.1423 13.8167 86.4063 13.8255 86.6633 13.7788C86.9202 13.7321 87.1642 13.6309 87.3789 13.482C86.8371 13.2993 86.2975 13.1165 85.7558 12.9338C85.6988 12.9198 85.6464 12.8917 85.6031 12.8521C85.4849 12.7253 85.6031 12.5275 85.6977 12.3835C85.9277 12.0373 85.9664 11.4676 85.5881 11.2957C85.3301 11.1774 85.0356 11.3193 84.7883 11.4569C84.3928 11.6762 83.9972 11.8976 83.6017 12.1169C83.5651 12.3426 83.8403 12.4716 84.0101 12.6221C84.1136 12.7139 84.1869 12.8349 84.2203 12.9691C84.2537 13.1034 84.2457 13.2446 84.1973 13.3742C84.1489 13.5038 84.0624 13.6157 83.9491 13.6952C83.8359 13.7747 83.7013 13.818 83.563 13.8195C83.6409 13.9212 83.695 14.0391 83.7214 14.1645C83.7478 14.2898 83.7458 14.4195 83.7156 14.544C83.4512 14.5634 83.1846 14.5827 82.918 14.6021C82.8737 14.6109 82.8282 14.6109 82.7839 14.602C82.7396 14.5932 82.6975 14.5756 82.66 14.5505C82.574 14.4752 82.5869 14.3419 82.5654 14.2301C82.53 14.0965 82.4554 13.9766 82.3512 13.8858C82.2469 13.795 82.1179 13.7374 81.9807 13.7206C81.7068 13.6898 81.4295 13.7154 81.1659 13.7959C81.0513 13.8363 80.9259 13.8332 80.8134 13.7873C80.7495 13.7451 80.7012 13.6832 80.6758 13.611C80.629 13.4636 80.621 13.3066 80.6526 13.1552C80.6843 13.0038 80.7545 12.8631 80.8564 12.7468C81.0628 12.5175 81.2902 12.3081 81.5357 12.1212C82.092 11.6342 82.5008 11.0012 82.7159 10.2939C83.1545 10.109 83.6081 9.85959 84.0488 9.67471C84.4031 9.51052 84.7744 9.38579 85.156 9.3028C85.5151 9.24795 85.8789 9.23066 86.2416 9.2512C86.7361 9.2598 87.2327 9.2684 87.7271 9.27915C88.1685 9.2606 88.6095 9.32401 89.0278 9.46618C89.4341 9.63387 89.7931 9.99718 89.821 10.4357C89.8295 10.4857 89.825 10.537 89.8081 10.5848C89.7912 10.6326 89.7623 10.6753 89.7243 10.7088C89.6672 10.7403 89.6024 10.7552 89.5373 10.7518C89.1266 10.7647 88.9525 10.8679 88.5419 10.8829C88.802 11.1602 89.0944 11.4526 89.4728 11.502C90.1392 11.588 90.6186 10.898 90.926 10.2982C90.937 10.4508 91.0072 10.5932 91.1217 10.6948C91.2362 10.7964 91.3858 10.8492 91.5387 10.8421C91.7034 10.8137 91.8606 10.7523 92.0009 10.6615C93.3232 9.93882 94.8044 9.55615 96.3113 9.54787C96.2965 9.4338 96.3246 9.31829 96.3901 9.22375C96.4557 9.12921 96.554 9.06238 96.666 9.03622C96.9734 8.97603 97.2486 9.24045 97.3969 9.51563C97.5431 9.7908 97.6355 10.109 97.872 10.3154C98.1063 10.5217 98.56 10.511 98.6524 10.2143C98.7427 9.92839 98.4439 9.68331 98.1966 9.51348C97.9473 9.34579 97.6871 9.03407 97.8548 8.78468C99.1189 8.50306 100.394 8.22359 101.69 8.16769C101.91 8.17436 102.13 8.13634 102.335 8.0559C102.437 8.01286 102.521 7.9375 102.576 7.84149C102.63 7.74548 102.651 7.6342 102.636 7.5249C102.353 7.59092 102.057 7.57139 101.785 7.46881C101.513 7.36623 101.278 7.18522 101.11 6.94875C102.44 6.83911 103.833 6.74238 105.113 7.04119L106.233 7.99141C106.02 8.21284 105.736 8.42137 105.891 8.6428C105.942 8.69365 106.004 8.73226 106.072 8.75572C106.14 8.77918 106.213 8.78688 106.284 8.77823C106.555 8.78253 106.826 8.78898 107.095 8.78898C112.655 14.1079 116.078 21.2773 116.717 28.9455C116.266 28.9284 115.851 29.5002 115.909 29.999C115.978 30.5773 116.395 31.0416 116.694 31.5404C116.743 31.6214 116.788 31.7054 116.827 31.7919L116.786 33.2107Z" fill="#3F3D56"/>
<path d="M75.0036 62.7073C78.003 62.7073 80.4344 60.2759 80.4344 57.2765C80.4344 54.2772 78.003 51.8457 75.0036 51.8457C72.0042 51.8457 69.5728 54.2772 69.5728 57.2765C69.5728 60.2759 72.0042 62.7073 75.0036 62.7073Z" fill="#2F2E41"/>
<path d="M72.411 60.0205C72.411 60.0205 70.642 63.9374 70.1366 64.0637C69.6312 64.1901 74.3062 66.4644 74.3062 66.4644C74.3062 66.4644 75.1907 61.6631 75.5697 61.4104C75.9488 61.1577 72.411 60.0205 72.411 60.0205Z" fill="#FFB9B9"/>
<path d="M61.9243 92.1134L58.6391 101.337L62.1769 102.727L68.2418 90.7236L61.9243 92.1134Z" fill="#FFB9B9"/>
<path d="M73.4221 92.366C73.4221 92.366 79.9924 101.59 80.3714 101.716C80.7505 101.842 83.4038 99.568 83.4038 99.568C83.4038 99.568 80.1187 91.6079 79.1079 91.2288C78.0971 90.8498 73.4221 92.366 73.4221 92.366Z" fill="#FFB9B9"/>
<path d="M58.1336 99.6943L52.9532 113.214C52.9532 113.214 53.3323 113.972 52.9532 114.098C52.5742 114.225 51.6897 116.246 51.6897 116.373C51.6897 116.499 50.8052 116.625 50.8052 117.004C50.8052 117.384 50.0471 120.416 50.0471 120.416C50.0471 120.416 51.437 123.448 52.3215 122.564C53.2059 121.679 53.585 119.911 53.585 119.911L54.8485 116.625C54.8485 116.625 54.7221 114.856 55.6066 114.604C56.491 114.351 56.9964 111.192 56.9964 111.192C56.9964 111.192 58.3863 109.802 58.639 109.423C58.8917 109.044 63.314 102.348 62.9349 102.221C62.5559 102.095 58.1336 99.6943 58.1336 99.6943Z" fill="#2F2E41"/>
<path d="M79.6132 101.464L83.4037 98.9365C83.4037 98.9365 89.974 110.94 89.974 111.193C89.974 111.445 89.7213 112.203 89.974 112.456C90.2267 112.709 92.3747 116.752 93.7645 117.131C95.1544 117.51 95.4071 119.026 94.2699 119.279C93.1328 119.532 91.6165 120.164 91.2375 119.279C91.0159 118.759 90.7627 118.252 90.4794 117.763C90.4794 117.763 89.2159 118.142 89.0895 117.889C88.9437 117.517 88.8172 117.137 88.7105 116.752C88.7105 116.752 87.6997 114.983 87.6997 114.351C87.6997 113.72 87.0679 113.593 87.0679 113.593C87.0679 113.593 85.6781 110.308 84.7936 109.803C83.9091 109.297 83.151 106.77 83.151 106.77L79.6132 101.464Z" fill="#2F2E41"/>
<path d="M75.0647 62.926C77.0884 62.926 78.7289 61.2855 78.7289 59.2618C78.7289 57.2382 77.0884 55.5977 75.0647 55.5977C73.0411 55.5977 71.4006 57.2382 71.4006 59.2618C71.4006 61.2855 73.0411 62.926 75.0647 62.926Z" fill="#FFB9B9"/>
<path d="M64.1983 81.5C64.1983 81.5 58.7752 95.9067 59.5333 95.9067C60.2915 95.9067 81.2646 96.363 81.8963 95.3522C82.5281 94.3414 76.4544 84.2797 76.2017 84.1534C75.949 84.027 64.1983 81.5 64.1983 81.5Z" fill="#2F2E41"/>
<path d="M58.7652 51.429L54.9747 45.6168C54.9747 45.6168 55.912 39.5198 54.6485 40.657C53.385 41.7941 52.9852 46.3863 52.9852 46.3863L57.3753 53.0715L58.7652 51.429Z" fill="#FFB9B9"/>
<path d="M93.1329 62.042L96.5444 61.7893C96.5444 61.7893 100.588 57.4934 100.84 58.8833C101.093 60.2731 97.5552 63.3055 97.5552 63.3055L92.8802 63.8109L93.1329 62.042Z" fill="#FFB9B9"/>
<path d="M68.242 63.3056V62.0421C68.242 62.0421 64.9568 59.8942 65.0832 59.5151C65.2095 59.1361 64.8305 58.8834 64.8305 58.8834C64.8305 58.8834 64.4514 58.378 64.4514 58.2516C64.4514 58.1253 63.946 57.9989 63.946 57.9989L60.7873 54.3347C60.7873 54.3347 59.0184 50.7969 58.6393 50.9232C58.2603 51.0496 56.2386 51.8077 56.4913 52.3131C56.744 52.8185 63.8197 63.6847 63.8197 63.6847C63.8197 63.6847 64.1987 66.0854 64.8305 66.0854C65.4623 66.0854 68.242 63.3056 68.242 63.3056Z" fill="#3F3D56"/>
<path d="M76.7073 64.8219C76.7073 64.8219 79.487 64.6956 79.6134 64.8219C79.7397 64.9483 81.5087 64.8219 81.5087 64.8219C81.5087 64.8219 86.31 63.6848 86.6891 63.3057C87.0681 62.9267 93.3857 61.2841 93.6384 62.0422C93.8911 62.8003 94.5229 64.3165 93.8911 64.5692C93.2593 64.8219 76.2019 69.1179 76.2019 69.1179L76.7073 64.8219Z" fill="#3F3D56"/>
<path d="M73.1036 53.808C74.3447 53.808 75.3508 52.8018 75.3508 51.5607C75.3508 50.3196 74.3447 49.3135 73.1036 49.3135C71.8625 49.3135 70.8564 50.3196 70.8564 51.5607C70.8564 52.8018 71.8625 53.808 73.1036 53.808Z" fill="#2F2E41"/>
<path d="M70.1075 50.3439C70.1075 49.7884 70.3133 49.2527 70.685 48.8399C71.0568 48.4272 71.5682 48.1667 72.1207 48.1088C72.0429 48.1008 71.9648 48.0967 71.8866 48.0967C71.2906 48.0967 70.719 48.3334 70.2975 48.7549C69.8761 49.1763 69.6393 49.7479 69.6393 50.3439C69.6393 50.9399 69.8761 51.5115 70.2975 51.9329C70.719 52.3544 71.2906 52.5911 71.8866 52.5911C71.9648 52.5911 72.0429 52.5871 72.1207 52.579C71.5682 52.5211 71.0568 52.2606 70.685 51.8479C70.3133 51.4352 70.1075 50.8994 70.1075 50.3439Z" fill="#2F2E41"/>
<path d="M75.6356 58.3724C77.7041 58.3724 79.381 57.3663 79.381 56.1252C79.381 54.8841 77.7041 53.8779 75.6356 53.8779C73.5671 53.8779 71.8902 54.8841 71.8902 56.1252C71.8902 57.3663 73.5671 58.3724 75.6356 58.3724Z" fill="#2F2E41"/>
<path d="M71.3372 61.9789C71.3372 61.9789 70.2 62.8633 69.9473 62.9897C69.6946 63.116 68.1784 61.8525 67.9257 61.8525C67.673 61.8525 64.3879 65.6431 64.3879 65.6431C64.3879 65.6431 64.9984 66.3463 64.3879 69.939C64.1589 71.2864 63.7047 77.0469 63.7047 77.805C63.7047 78.5631 61.2291 80.4261 63.5034 82.0687C65.7777 83.7112 76.6439 85.4801 76.7703 84.4693C76.8966 83.4585 75.5068 80.8052 76.1385 79.5417C76.7703 78.2781 76.7703 73.6032 76.7703 73.6032L77.5284 68.6755L78.1601 64.7586C78.1601 64.7586 75.1909 63.9373 74.9382 63.9373C74.6855 63.9373 73.5483 65.7062 71.3372 61.9789Z" fill="#3F3D56"/>
<path d="M116.327 124.607H0V125H116.327V124.607Z" fill="#3F3D56"/>
</g>
<defs>
<clipPath id="clip0">
<rect width="116.827" height="125" fill="white"/>
</clipPath>
</defs>
</svg>
