<svg width="120" height="90" viewBox="0 0 120 90" fill="none" xmlns="http://www.w3.org/2000/svg">
<g clip-path="url(#clip0)">
<path d="M65.2903 9.11778C66.8551 9.11778 68.1236 7.84927 68.1236 6.28448C68.1236 4.71969 66.8551 3.45117 65.2903 3.45117C63.7255 3.45117 62.457 4.71969 62.457 6.28448C62.457 7.84927 63.7255 9.11778 65.2903 9.11778Z" fill="#EDE04B"/>
<path d="M65.0096 7.36581C64.9458 7.36592 64.8838 7.3453 64.8328 7.30706L64.8296 7.30469L64.1637 6.79532C64.1329 6.77168 64.107 6.7422 64.0876 6.70855C64.0681 6.67491 64.0555 6.63776 64.0504 6.59924C64.0453 6.56071 64.0479 6.52156 64.0579 6.48402C64.068 6.44648 64.0853 6.41129 64.1089 6.38045C64.1326 6.34961 64.1621 6.32373 64.1957 6.30429C64.2294 6.28484 64.2665 6.27222 64.305 6.26713C64.3436 6.26204 64.3827 6.26459 64.4202 6.27463C64.4578 6.28467 64.493 6.302 64.5238 6.32565L64.9551 6.65638L65.9743 5.32676C65.9979 5.29593 66.0274 5.27006 66.061 5.25063C66.0946 5.23119 66.1318 5.21857 66.1703 5.21348C66.2088 5.2084 66.2479 5.21095 66.2854 5.22098C66.323 5.23102 66.3581 5.24835 66.389 5.27198L66.389 5.27205L66.3827 5.28083L66.3892 5.27205C66.4514 5.31985 66.4921 5.39036 66.5024 5.46812C66.5126 5.54589 66.4916 5.62454 66.4439 5.68683L65.2452 7.25006C65.2174 7.28608 65.1818 7.31522 65.141 7.33524C65.1001 7.35525 65.0553 7.36559 65.0098 7.36546L65.0096 7.36581Z" fill="white"/>
<path d="M65.2903 28.2721C66.8551 28.2721 68.1236 27.0036 68.1236 25.4388C68.1236 23.874 66.8551 22.6055 65.2903 22.6055C63.7255 22.6055 62.457 23.874 62.457 25.4388C62.457 27.0036 63.7255 28.2721 65.2903 28.2721Z" fill="#EDE04B"/>
<path d="M65.0096 26.5201C64.9458 26.5202 64.8838 26.4996 64.8328 26.4614L64.8296 26.459L64.1637 25.9496C64.1329 25.926 64.107 25.8965 64.0876 25.8628C64.0681 25.8292 64.0555 25.7921 64.0504 25.7535C64.0453 25.715 64.0479 25.6759 64.0579 25.6383C64.068 25.6008 64.0853 25.5656 64.1089 25.5347C64.1326 25.5039 64.1621 25.478 64.1957 25.4586C64.2294 25.4391 64.2665 25.4265 64.305 25.4214C64.3436 25.4163 64.3827 25.4189 64.4202 25.4289C64.4578 25.439 64.493 25.4563 64.5238 25.4799L64.9551 25.8107L65.9743 24.4811C65.9979 24.4502 66.0274 24.4244 66.061 24.4049C66.0946 24.3855 66.1318 24.3729 66.1703 24.3678C66.2088 24.3627 66.2479 24.3652 66.2854 24.3753C66.323 24.3853 66.3581 24.4027 66.389 24.4263L66.389 24.4263L66.3827 24.4351L66.3892 24.4263C66.4514 24.4741 66.4921 24.5447 66.5024 24.6224C66.5126 24.7002 66.4916 24.7788 66.4439 24.8411L65.2452 26.4044C65.2174 26.4404 65.1818 26.4695 65.141 26.4895C65.1001 26.5095 65.0553 26.5199 65.0098 26.5198L65.0096 26.5201Z" fill="white"/>
<path d="M72.4057 55.2118C72.3965 54.9769 72.4389 54.7428 72.53 54.5261C72.621 54.3093 72.7585 54.1152 72.9327 53.9573C73.1068 53.7995 73.3135 53.6817 73.5382 53.6124C73.7628 53.543 73.9999 53.5238 74.2327 53.556L76.8276 48.4648L78.2939 51.047L75.6049 55.4858C75.5249 55.8734 75.3055 56.2182 74.9882 56.4548C74.671 56.6915 74.278 56.8035 73.8836 56.7697C73.4893 56.736 73.121 56.5587 72.8487 56.2716C72.5763 55.9844 72.4187 55.6074 72.4057 55.2118L72.4057 55.2118Z" fill="#FFB7B7"/>
<path d="M84.5036 87.269L82.4672 87.2688L81.4984 79.4141L84.5039 79.4142L84.5036 87.269Z" fill="#FFB7B7"/>
<path d="M85.0229 89.2435L78.4565 89.2433V89.1602C78.4566 88.4824 78.7259 87.8324 79.2052 87.3531C79.6845 86.8738 80.3345 86.6045 81.0123 86.6045H81.0125L85.023 86.6046L85.0229 89.2435Z" fill="#2F2E41"/>
<path d="M95.543 87.269L93.5066 87.2688L92.5378 79.4141L95.5433 79.4142L95.543 87.269Z" fill="#FFB7B7"/>
<path d="M96.0623 89.2435L89.496 89.2433V89.1602C89.4961 88.4824 89.7654 87.8324 90.2447 87.3531C90.724 86.8738 91.374 86.6045 92.0518 86.6045H92.052L96.0625 86.6046L96.0623 89.2435Z" fill="#2F2E41"/>
<path d="M75.5336 50.7803L74.6446 52.2619C74.6446 52.2619 76.1263 52.2619 76.4226 54.4844L77.6079 53.0028L75.5336 50.7803Z" fill="#E5E5E5"/>
<path d="M91.0911 47.6689C91.0911 47.6689 93.4618 53.8919 93.9063 57.7443C94.3508 61.5966 95.0916 71.8201 95.0916 71.8201L96.5733 85.007L92.4246 85.5996L90.6466 72.2646L86.6461 59.0778L85.7571 72.2646L85.0163 84.2661L81.164 84.4143L80.8676 71.9683L79.2378 56.1144L80.1268 48.5579L91.0911 47.6689Z" fill="#2F2E41"/>
<path d="M84.4236 28.8683C86.4694 28.8683 88.1278 27.2099 88.1278 25.1641C88.1278 23.1184 86.4694 21.46 84.4236 21.46C82.3779 21.46 80.7195 23.1184 80.7195 25.1641C80.7195 27.2099 82.3779 28.8683 84.4236 28.8683Z" fill="#FFB7B7"/>
<path d="M88.2018 28.7783L89.6835 29.8153L91.6097 49.2252L79.6082 49.5215L81.2381 36.0384L82.7197 32.1861L83.7892 30.7721L88.2018 28.7783Z" fill="#E5E5E5"/>
<path d="M88.4982 42.7056L88.9516 29.3027C88.9516 29.3027 89.8317 29.3706 90.1281 29.8151C90.4244 30.2596 95.3139 31.1486 95.3139 31.1486L94.4249 44.9281C94.4249 44.9281 98.129 55.8924 96.7955 56.4851C95.462 57.0778 93.0914 56.9296 93.0914 56.9296L88.4982 42.7056Z" fill="#2F2E41"/>
<path d="M81.3121 41.0017L82.8839 31.9688L79.3859 34.3342L80.2749 40.8536L79.5341 45.2986C79.5341 45.2986 76.7189 57.5964 77.6079 58.0409C78.4969 58.4854 79.5341 58.0409 79.5341 58.0409L81.3121 45.5949V41.0017Z" fill="#2F2E41"/>
<path d="M80.4231 34.0371L79.3859 34.3334L78.9414 40.2601L78.2006 45.4459L74.6446 51.8171C74.6446 51.8171 76.4226 50.6318 77.1634 54.0396L81.0797 47.2214L80.4231 34.0371Z" fill="#2F2E41"/>
<path d="M87.5246 21.6349L88.2231 21.3552C88.2231 21.3552 86.7626 19.7473 84.7306 19.8871L85.3021 19.2579C85.3021 19.2579 83.9051 18.6986 82.6351 20.1667C81.9675 20.9385 81.195 21.8456 80.7135 22.8676H79.9654L80.2776 23.555L79.1849 24.2425L80.3065 24.119C80.2397 24.4954 80.2294 24.8797 80.276 25.2592C80.3242 25.6388 80.5179 25.9849 80.8163 26.2244C80.8163 26.2244 81.6826 24.4313 81.6826 24.1516V24.8507C81.6826 24.8507 82.3811 24.2215 82.3811 23.8021L82.7621 24.2914L82.9526 23.5224L85.3021 24.2914L84.9211 23.6623L86.3816 23.872L85.8101 23.103L88.0713 26.2785C88.0713 26.2785 89.3661 22.6835 87.5246 21.6349Z" fill="#2F2E41"/>
<path d="M88.4824 53.9955C88.519 53.7633 88.6061 53.5419 88.7374 53.347C88.8688 53.1521 89.0413 52.9883 89.2429 52.8673C89.4444 52.7462 89.67 52.6708 89.9038 52.6464C90.1376 52.622 90.3739 52.6491 90.5961 52.7259L94.13 48.2354L95.0671 51.0531L91.5676 54.8854C91.4139 55.2501 91.1317 55.5457 90.7745 55.7163C90.4174 55.8868 90.0101 55.9205 89.6298 55.8108C89.2495 55.7011 88.9227 55.4557 88.7112 55.1212C88.4997 54.7866 88.4183 54.3861 88.4824 53.9955V53.9955Z" fill="#FFB7B7"/>
<path d="M94.499 52.4107L93.1655 54.0406L91.3875 50.9291L92.1282 49.5957L94.499 52.4107Z" fill="#E5E5E5"/>
<path d="M94.2026 31.6669L95.388 31.0742C95.388 31.0742 96.277 32.2595 96.4251 33.2967C96.5733 34.3339 97.3141 35.6674 97.3141 36.4082C97.3141 37.149 99.3885 44.1129 99.3885 44.1129L94.6471 53.7437C94.6471 53.7437 93.61 50.1877 91.3875 49.8914L95.0916 44.7055L93.0173 41.0014L94.2026 31.6669Z" fill="#2F2E41"/>
<path d="M119.85 89.3344H62.8373C62.7976 89.3344 62.7596 89.3187 62.7315 89.2906C62.7035 89.2625 62.6877 89.2245 62.6877 89.1848C62.6877 89.1451 62.7035 89.107 62.7315 89.079C62.7596 89.0509 62.7976 89.0352 62.8373 89.0352H119.85C119.89 89.0352 119.928 89.0509 119.956 89.079C119.984 89.107 120 89.1451 120 89.1848C120 89.2245 119.984 89.2625 119.956 89.2906C119.928 89.3187 119.89 89.3344 119.85 89.3344Z" fill="#CBCBCB"/>
<path d="M54.6188 31.7241H0V19.1543H54.6188V31.7241Z" fill="white"/>
<path d="M7.88273 23.3105C7.74174 23.3108 7.60661 23.367 7.507 23.4667C7.40739 23.5665 7.35144 23.7017 7.35144 23.8427C7.35144 23.9837 7.40739 24.1189 7.507 24.2187C7.60661 24.3185 7.74174 24.3747 7.88273 24.3749H46.7383C46.8793 24.3747 47.0144 24.3185 47.1141 24.2187C47.2137 24.1189 47.2696 23.9837 47.2696 23.8427C47.2696 23.7017 47.2137 23.5665 47.1141 23.4667C47.0144 23.367 46.8793 23.3108 46.7383 23.3105H7.88273Z" fill="#EDE04B"/>
<path d="M7.88273 26.5029C7.81284 26.5028 7.74361 26.5164 7.67899 26.543C7.61437 26.5696 7.55562 26.6087 7.50609 26.658C7.45657 26.7073 7.41725 26.7659 7.39037 26.8304C7.36349 26.8949 7.34957 26.9641 7.34943 27.034C7.34928 27.1039 7.3629 27.1731 7.38951 27.2377C7.41612 27.3024 7.45519 27.3611 7.50451 27.4106C7.55382 27.4602 7.6124 27.4995 7.67691 27.5264C7.74143 27.5532 7.8106 27.5671 7.88049 27.5673H32.4454C32.5154 27.5674 32.5847 27.5537 32.6493 27.527C32.714 27.5003 32.7728 27.4612 32.8223 27.4117C32.8718 27.3623 32.9111 27.3036 32.9379 27.239C32.9647 27.1743 32.9785 27.1051 32.9785 27.0351C32.9785 26.9651 32.9647 26.8959 32.9379 26.8312C32.9111 26.7666 32.8718 26.7079 32.8223 26.6585C32.7728 26.6091 32.714 26.5699 32.6493 26.5432C32.5847 26.5165 32.5154 26.5028 32.4454 26.5029H7.88273Z" fill="#EDE04B"/>
<path d="M54.6188 31.7241H0V19.1543H54.6188V31.7241ZM0.897844 30.8263H53.721V20.0521H0.897844V30.8263Z" fill="#E5E5E5"/>
<path d="M54.6188 50.8775H0V38.3076H54.6188V50.8775Z" fill="white"/>
<path d="M7.88273 42.4639C7.74174 42.4641 7.60661 42.5203 7.507 42.6201C7.40739 42.7198 7.35144 42.8551 7.35144 42.996C7.35144 43.137 7.40739 43.2723 7.507 43.372C7.60661 43.4718 7.74174 43.528 7.88273 43.5282H46.7383C46.8793 43.528 47.0144 43.4718 47.1141 43.372C47.2137 43.2723 47.2696 43.137 47.2696 42.996C47.2696 42.8551 47.2137 42.7198 47.1141 42.6201C47.0144 42.5203 46.8793 42.4641 46.7383 42.4639H7.88273Z" fill="#E6E6E6"/>
<path d="M7.88273 45.6572C7.81284 45.6571 7.74361 45.6707 7.67899 45.6973C7.61437 45.7239 7.55562 45.763 7.50609 45.8123C7.45657 45.8616 7.41725 45.9202 7.39037 45.9847C7.36349 46.0492 7.34957 46.1184 7.34943 46.1883C7.34928 46.2582 7.3629 46.3274 7.38951 46.392C7.41612 46.4567 7.45519 46.5154 7.50451 46.5649C7.55382 46.6145 7.6124 46.6538 7.67691 46.6807C7.74143 46.7075 7.8106 46.7215 7.88049 46.7216H32.4454C32.5154 46.7217 32.5847 46.708 32.6493 46.6813C32.714 46.6547 32.7728 46.6155 32.8223 46.566C32.8718 46.5166 32.9111 46.4579 32.9379 46.3933C32.9647 46.3286 32.9785 46.2594 32.9785 46.1894C32.9785 46.1195 32.9647 46.0502 32.9379 45.9855C32.9111 45.9209 32.8718 45.8622 32.8223 45.8128C32.7728 45.7634 32.714 45.7242 32.6493 45.6975C32.5847 45.6708 32.5154 45.6571 32.4454 45.6572H7.88273Z" fill="#E6E6E6"/>
<path d="M54.6188 50.8775H0V38.3076H54.6188V50.8775ZM0.897844 49.9796H53.721V39.2055H0.897844V49.9796Z" fill="#E5E5E5"/>
<path d="M55.0677 12.5698H0.448914V0H55.0677V12.5698Z" fill="white"/>
<path d="M8.33164 4.15625C8.19066 4.15649 8.05552 4.21266 7.95591 4.31244C7.8563 4.41222 7.80035 4.54744 7.80035 4.68843C7.80035 4.82942 7.8563 4.96465 7.95591 5.06443C8.05552 5.16421 8.19066 5.22038 8.33164 5.22061H47.1872C47.3282 5.22038 47.4633 5.16421 47.563 5.06443C47.6626 4.96465 47.7185 4.82942 47.7185 4.68843C47.7185 4.54744 47.6626 4.41222 47.563 4.31244C47.4633 4.21266 47.3282 4.15649 47.1872 4.15625H8.33164Z" fill="#EDE04B"/>
<path d="M8.33165 7.34863C8.1905 7.34834 8.05502 7.40412 7.95501 7.50371C7.85499 7.60331 7.79864 7.73855 7.79834 7.87969C7.79804 8.02084 7.85383 8.15632 7.95342 8.25633C8.05301 8.35635 8.18826 8.4127 8.3294 8.413H32.8943C32.9643 8.41311 33.0336 8.39944 33.0983 8.37274C33.1629 8.34605 33.2217 8.30687 33.2712 8.25744C33.3207 8.20801 33.36 8.14931 33.3868 8.08468C33.4136 8.02005 33.4274 7.95078 33.4274 7.88082C33.4274 7.81085 33.4136 7.74158 33.3868 7.67695C33.36 7.61233 33.3207 7.55362 33.2712 7.50419C33.2217 7.45476 33.1629 7.41558 33.0983 7.38889C33.0336 7.36219 32.9643 7.34852 32.8943 7.34863H8.33165Z" fill="#EDE04B"/>
<path d="M55.0677 12.5698H0.448914V0H55.0677V12.5698ZM1.34676 11.672H54.1699V0.897844H1.34676V11.672Z" fill="#E5E5E5"/>
<path d="M110.622 89.4041V78.5791C110.622 78.5791 114.84 86.2536 110.622 89.4041Z" fill="#F1F1F1"/>
<path d="M110.882 89.4017L102.908 82.0811C102.908 82.0811 111.414 84.1634 110.882 89.4017Z" fill="#F1F1F1"/>
<path d="M72.4731 54.8854C74.0379 54.8854 75.3064 53.6168 75.3064 52.0521C75.3064 50.4873 74.0379 49.2188 72.4731 49.2188C70.9083 49.2188 69.6398 50.4873 69.6398 52.0521C69.6398 53.6168 70.9083 54.8854 72.4731 54.8854Z" fill="#EDE04B"/>
<path d="M72.1923 53.1324C72.1285 53.1325 72.0665 53.1119 72.0155 53.0736L72.0123 53.0713L71.3465 52.5619C71.3156 52.5383 71.2897 52.5088 71.2702 52.4751C71.2507 52.4415 71.2381 52.4043 71.233 52.3658C71.2279 52.3273 71.2304 52.2881 71.2404 52.2505C71.2505 52.213 71.2678 52.1778 71.2915 52.1469C71.3151 52.116 71.3446 52.0902 71.3783 52.0707C71.412 52.0513 71.4491 52.0386 71.4877 52.0336C71.5262 52.0285 71.5654 52.0311 71.6029 52.0411C71.6405 52.0512 71.6757 52.0686 71.7065 52.0922L72.1378 52.423L73.157 51.0934C73.1806 51.0625 73.2101 51.0367 73.2437 51.0172C73.2774 50.9978 73.3145 50.9852 73.353 50.9801C73.3915 50.975 73.4306 50.9775 73.4682 50.9876C73.5057 50.9976 73.5409 51.015 73.5717 51.0386L73.5718 51.0387L73.5655 51.0474L73.572 51.0387C73.6342 51.0865 73.6748 51.157 73.6851 51.2347C73.6954 51.3125 73.6743 51.3911 73.6267 51.4534L72.4279 53.0167C72.4002 53.0527 72.3645 53.0818 72.3237 53.1018C72.2829 53.1218 72.238 53.1322 72.1925 53.132L72.1923 53.1324Z" fill="white"/>
</g>
<defs>
<clipPath id="clip0">
<rect width="120" height="89.4039" fill="white"/>
</clipPath>
</defs>
</svg>
