<svg width="184" height="138" viewBox="0 0 184 138" fill="none" xmlns="http://www.w3.org/2000/svg">
<g clip-path="url(#clip0)">
<path d="M64.2989 42.7119H88.0427" stroke="#3F3D56" stroke-width="0.309252" stroke-miterlimit="10"/>
<path d="M36.0126 68.9412C37.2968 65.5781 37.4828 62.5246 36.428 62.121C35.3732 61.7175 33.477 64.1167 32.1928 67.4798C30.9085 70.843 30.7225 73.8965 31.7773 74.3C32.8321 74.7036 34.7283 72.3043 36.0126 68.9412Z" fill="#2F2E41"/>
<path d="M183.245 84.6344C185.828 103.876 182.311 123.139 164.42 130.64C146.529 138.141 125.951 129.705 118.457 111.798C110.963 93.8903 128.645 83.1756 137.282 65.7918C154.822 30.4906 175.223 24.8787 183.245 84.6344Z" fill="#F2F2F2"/>
<path d="M151.037 135.512C166.518 135.512 179.068 133.803 179.068 131.695C179.068 129.587 166.518 127.878 151.037 127.878C135.556 127.878 123.006 129.587 123.006 131.695C123.006 133.803 135.556 135.512 151.037 135.512Z" fill="#3F3D56"/>
<path d="M132.699 121.98L133.754 125.798L140.588 123.907L139.533 120.089L132.699 121.98Z" fill="#2F2E41"/>
<path d="M133.17 126.474C133.829 126.292 133.969 124.719 133.484 122.962C132.998 121.205 132.071 119.928 131.413 120.111C130.755 120.293 130.615 121.865 131.1 123.622C131.585 125.379 132.512 126.656 133.17 126.474Z" fill="#2F2E41"/>
<path d="M154.27 108.849C154.753 105.282 154.237 102.266 153.118 102.114C151.999 101.963 150.7 104.732 150.217 108.3C149.734 111.867 150.25 114.883 151.369 115.035C152.488 115.186 153.786 112.417 154.27 108.849Z" fill="#2F2E41"/>
<path d="M150.968 133.818C158.162 133.818 163.994 127.98 163.994 120.78C163.994 113.579 158.162 107.741 150.968 107.741C143.774 107.741 137.942 113.579 137.942 120.78C137.942 127.98 143.774 133.818 150.968 133.818Z" fill="#2F2E41"/>
<path d="M132.699 119.67L133.754 123.488L140.588 121.597L139.533 117.78L132.699 119.67Z" fill="#2F2E41"/>
<path d="M133.17 124.162C133.829 123.98 133.969 122.408 133.484 120.651C132.998 118.894 132.071 117.617 131.413 117.799C130.755 117.981 130.615 119.553 131.1 121.31C131.585 123.068 132.512 124.344 133.17 124.162Z" fill="#2F2E41"/>
<path d="M154.389 117.766C156.847 117.766 158.841 115.771 158.841 113.31C158.841 110.849 156.847 108.854 154.389 108.854C151.93 108.854 149.937 110.849 149.937 113.31C149.937 115.771 151.93 117.766 154.389 117.766Z" fill="white"/>
<path d="M155.812 112.827C156.632 112.827 157.296 112.162 157.296 111.342C157.296 110.521 156.632 109.856 155.812 109.856C154.993 109.856 154.328 110.521 154.328 111.342C154.328 112.162 154.993 112.827 155.812 112.827Z" fill="#3F3D56"/>
<path d="M166.011 129.739C170.831 129.498 174.523 124.985 174.257 119.659C173.991 114.333 169.867 110.212 165.047 110.453C160.226 110.695 159.47 114.483 159.736 119.808C160.002 125.134 161.191 129.981 166.011 129.739Z" fill="#7F52DD"/>
<path d="M145.645 115.262C144.86 115.326 144.083 115.075 143.483 114.564C142.884 114.054 142.511 113.326 142.448 112.541C142.384 111.756 142.635 110.978 143.145 110.377C143.654 109.777 144.381 109.404 145.166 109.34C146.8 109.208 147.245 110.506 147.377 112.142C147.51 113.777 147.278 115.13 145.645 115.262Z" fill="white"/>
<path d="M8.15598 60.1635H81.1174L92.4292 65.6796L110.452 74.4684L122.237 52.3838H155.583" stroke="#3F3D56" stroke-width="0.309252" stroke-miterlimit="10"/>
<path d="M36.7388 64.7331C37.985 64.7331 38.9953 63.7219 38.9953 62.4745C38.9953 61.2271 37.985 60.2158 36.7388 60.2158C35.4925 60.2158 34.4822 61.2271 34.4822 62.4745C34.4822 63.7219 35.4925 64.7331 36.7388 64.7331Z" fill="#7F52DD"/>
<path d="M57.7998 62.4226C59.0461 62.4226 60.0564 61.4113 60.0564 60.1639C60.0564 58.9165 59.0461 57.9053 57.7998 57.9053C56.5536 57.9053 55.5433 58.9165 55.5433 60.1639C55.5433 61.4113 56.5536 62.4226 57.7998 62.4226Z" fill="#7F52DD"/>
<path d="M92.4001 67.9431C93.6464 67.9431 94.6567 66.9319 94.6567 65.6844C94.6567 64.437 93.6464 63.4258 92.4001 63.4258C91.1539 63.4258 90.1436 64.437 90.1436 65.6844C90.1436 66.9319 91.1539 67.9431 92.4001 67.9431Z" fill="#7F52DD"/>
<path d="M141.041 54.6423C142.287 54.6423 143.298 53.6311 143.298 52.3837C143.298 51.1362 142.287 50.125 141.041 50.125C139.795 50.125 138.785 51.1362 138.785 52.3837C138.785 53.6311 139.795 54.6423 141.041 54.6423Z" fill="#7F52DD"/>
<path d="M117.473 63.4265C118.719 63.4265 119.729 62.4153 119.729 61.1678C119.729 59.9204 118.719 58.9092 117.473 58.9092C116.227 58.9092 115.216 59.9204 115.216 61.1678C115.216 62.4153 116.227 63.4265 117.473 63.4265Z" fill="#7F52DD"/>
<path d="M70.5018 98.977C71.8455 98.977 72.9348 97.8867 72.9348 96.5417C72.9348 95.1968 71.8455 94.1064 70.5018 94.1064C69.158 94.1064 68.0688 95.1968 68.0688 96.5417C68.0688 97.8867 69.158 98.977 70.5018 98.977Z" stroke="#3F3D56" stroke-width="0.309252" stroke-miterlimit="10"/>
<path d="M28.0308 137.987C43.5118 137.987 56.0617 136.279 56.0617 134.17C56.0617 132.062 43.5118 130.354 28.0308 130.354C12.5498 130.354 0 132.062 0 134.17C0 136.279 12.5498 137.987 28.0308 137.987Z" fill="#3F3D56"/>
<path d="M26.5146 128.559C33.7087 128.559 39.5407 122.722 39.5407 115.521C39.5407 108.32 33.7087 102.482 26.5146 102.482C19.3205 102.482 13.4885 108.32 13.4885 115.521C13.4885 122.722 19.3205 128.559 26.5146 128.559Z" fill="#2F2E41"/>
<path d="M24.536 125.753H20.5787V132.85H24.536V125.753Z" fill="#2F2E41"/>
<path d="M32.4506 125.753H28.4933V132.85H32.4506V125.753Z" fill="#2F2E41"/>
<path d="M23.8764 134.17C25.6977 134.17 27.1742 133.616 27.1742 132.932C27.1742 132.249 25.6977 131.694 23.8764 131.694C22.0551 131.694 20.5787 132.249 20.5787 132.932C20.5787 133.616 22.0551 134.17 23.8764 134.17Z" fill="#2F2E41"/>
<path d="M31.791 134.006C33.6123 134.006 35.0888 133.452 35.0888 132.768C35.0888 132.084 33.6123 131.53 31.791 131.53C29.9697 131.53 28.4933 132.084 28.4933 132.768C28.4933 133.452 29.9697 134.006 31.791 134.006Z" fill="#2F2E41"/>
<path d="M26.8444 116.676C29.3032 116.676 31.2964 114.681 31.2964 112.22C31.2964 109.759 29.3032 107.764 26.8444 107.764C24.3857 107.764 22.3924 109.759 22.3924 112.22C22.3924 114.681 24.3857 116.676 26.8444 116.676Z" fill="white"/>
<path d="M26.8444 113.705C27.664 113.705 28.3284 113.04 28.3284 112.22C28.3284 111.399 27.664 110.734 26.8444 110.734C26.0248 110.734 25.3604 111.399 25.3604 112.22C25.3604 113.04 26.0248 113.705 26.8444 113.705Z" fill="#3F3D56"/>
<path d="M13.8789 103.396C12.8271 98.6808 16.1893 93.9166 21.3885 92.7546C26.5878 91.5926 31.6552 94.4727 32.707 99.1875C33.7588 103.902 30.3131 105.641 25.1139 106.803C19.9146 107.965 14.9307 108.11 13.8789 103.396Z" fill="#7F52DD"/>
<path d="M22.0627 91.0951C29.2568 91.0951 35.0888 85.2577 35.0888 78.0568C35.0888 70.856 29.2568 65.0186 22.0627 65.0186C14.8686 65.0186 9.03658 70.856 9.03658 78.0568C9.03658 85.2577 14.8686 91.0951 22.0627 91.0951Z" fill="#2F2E41"/>
<path d="M20.084 88.2891H16.1267V95.3859H20.084V88.2891Z" fill="#2F2E41"/>
<path d="M27.9986 88.2891H24.0413V95.3859H27.9986V88.2891Z" fill="#2F2E41"/>
<path d="M19.4245 96.7051C21.2458 96.7051 22.7222 96.1509 22.7222 95.4673C22.7222 94.7837 21.2458 94.2295 19.4245 94.2295C17.6032 94.2295 16.1267 94.7837 16.1267 95.4673C16.1267 96.1509 17.6032 96.7051 19.4245 96.7051Z" fill="#2F2E41"/>
<path d="M27.3391 96.5411C29.1604 96.5411 30.6368 95.9869 30.6368 95.3032C30.6368 94.6196 29.1604 94.0654 27.3391 94.0654C25.5178 94.0654 24.0413 94.6196 24.0413 95.3032C24.0413 95.9869 25.5178 96.5411 27.3391 96.5411Z" fill="#2F2E41"/>
<path d="M22.3924 79.2121C24.8512 79.2121 26.8444 77.217 26.8444 74.7559C26.8444 72.2949 24.8512 70.2998 22.3924 70.2998C19.9337 70.2998 17.9405 72.2949 17.9405 74.7559C17.9405 77.217 19.9337 79.2121 22.3924 79.2121Z" fill="white"/>
<path d="M22.3924 76.2413C23.212 76.2413 23.8764 75.5762 23.8764 74.7559C23.8764 73.9355 23.212 73.2705 22.3924 73.2705C21.5729 73.2705 20.9085 73.9355 20.9085 74.7559C20.9085 75.5762 21.5729 76.2413 22.3924 76.2413Z" fill="#3F3D56"/>
<path d="M9.42693 65.9308C8.37513 61.2159 11.7373 56.4518 16.9366 55.2897C22.1358 54.1277 27.2033 57.0078 28.2551 61.7227C29.3069 66.4375 25.8611 68.1764 20.6619 69.3385C15.4626 70.5005 10.4787 70.6456 9.42693 65.9308Z" fill="#7F52DD"/>
<path d="M13.2757 74.7997C13.7596 73.7784 11.5172 71.6998 8.26712 70.1569C5.01708 68.614 1.99012 68.1912 1.50621 69.2124C1.0223 70.2336 3.2647 72.3123 6.51474 73.8552C9.76478 75.3981 12.7917 75.8209 13.2757 74.7997Z" fill="#2F2E41"/>
<path d="M15.6643 82.7599C15.6643 84.036 18.947 86.5559 22.5896 86.5559C26.2321 86.5559 29.6475 82.9632 29.6475 81.6871C29.6475 80.411 26.2321 81.9347 22.5896 81.9347C18.947 81.9347 15.6643 81.4838 15.6643 82.7599Z" fill="white"/>
<path d="M158.556 93.7803H137.759V104.37H158.556V93.7803Z" fill="#7F52DD"/>
<path d="M156.929 95.5H136.132V106.089H156.929V95.5Z" stroke="#3F3D56" stroke-width="0.309252" stroke-miterlimit="10"/>
<path d="M43.3 33.4229H37.364V39.3644H43.3V33.4229Z" fill="#FF6584"/>
<path d="M41.816 31.4424H35.88V37.3839H41.816V31.4424Z" stroke="#3F3D56" stroke-width="0.309252" stroke-miterlimit="10"/>
<path d="M149.396 44.8881C156.591 44.8881 162.423 39.0507 162.423 31.8498C162.423 24.649 156.591 18.8115 149.396 18.8115C142.202 18.8115 136.37 24.649 136.37 31.8498C136.37 39.0507 142.202 44.8881 149.396 44.8881Z" fill="#2F2E41"/>
<path d="M154.427 48.5493L158.321 47.8438L157.058 40.8604L153.164 41.566L154.427 48.5493Z" fill="#2F2E41"/>
<path d="M146.64 49.9605L150.533 49.2549L149.271 42.2716L145.377 42.9772L146.64 49.9605Z" fill="#2F2E41"/>
<path d="M148.707 51.4307C150.097 50.2526 150.865 48.8746 150.424 48.3529C149.983 47.8312 148.498 48.3634 147.108 49.5416C145.718 50.7197 144.95 52.0977 145.391 52.6194C145.832 53.1411 147.317 52.6089 148.707 51.4307Z" fill="#2F2E41"/>
<path d="M156.332 50.0489C157.722 48.8708 158.491 47.4928 158.05 46.9711C157.608 46.4494 156.124 46.9816 154.734 48.1597C153.344 49.3379 152.575 50.7159 153.017 51.2376C153.458 51.7592 154.943 51.2271 156.332 50.0489Z" fill="#2F2E41"/>
<path d="M148.485 33.1173C150.943 33.1173 152.937 31.1223 152.937 28.6612C152.937 26.2002 150.943 24.2051 148.485 24.2051C146.026 24.2051 144.033 26.2002 144.033 28.6612C144.033 31.1223 146.026 33.1173 148.485 33.1173Z" fill="white"/>
<path d="M146.655 28.5489C147.474 28.5489 148.139 27.8839 148.139 27.0635C148.139 26.2432 147.474 25.5781 146.655 25.5781C145.835 25.5781 145.171 26.2432 145.171 27.0635C145.171 27.8839 145.835 28.5489 146.655 28.5489Z" fill="#3F3D56"/>
<path d="M159.672 17.6662C159.868 12.8392 155.712 8.75076 150.389 8.53433C145.066 8.31791 140.592 12.0555 140.396 16.8825C140.2 21.7094 143.9 22.8062 149.223 23.0226C154.546 23.239 159.476 22.4932 159.672 17.6662Z" fill="#7F52DD"/>
<path d="M143.717 30.9309C143.969 29.8292 141.332 28.284 137.825 27.4796C134.319 26.6751 131.273 26.9162 131.02 28.0179C130.768 29.1196 133.406 30.6648 136.912 31.4692C140.418 32.2736 143.465 32.0326 143.717 30.9309Z" fill="#2F2E41"/>
<path d="M169.287 35.1877C169.539 34.086 166.901 32.5408 163.395 31.7364C159.889 30.932 156.842 31.173 156.59 32.2747C156.338 33.3764 158.975 34.9216 162.482 35.7261C165.988 36.5305 169.034 36.2895 169.287 35.1877Z" fill="#2F2E41"/>
<path d="M152.974 36.9884C153.044 37.3723 153.037 37.7661 152.954 38.1474C152.871 38.5286 152.715 38.8899 152.493 39.2104C152.27 39.531 151.987 39.8047 151.66 40.0158C151.332 40.2269 150.966 40.3713 150.582 40.4408C150.199 40.5103 149.805 40.5035 149.424 40.4208C149.044 40.3381 148.683 40.1811 148.362 39.9588C148.042 39.7365 147.769 39.4532 147.558 39.1252C147.347 38.7971 147.203 38.4307 147.133 38.0468C146.841 36.4323 148.088 35.861 149.701 35.5688C151.314 35.2765 152.682 35.3739 152.974 36.9884Z" fill="white"/>
<path d="M117.499 16.9189L132.504 28.4719" stroke="#3F3D56" stroke-width="0.309252" stroke-miterlimit="10"/>
<path d="M110.409 23.0248C116.601 23.0248 121.621 18.0001 121.621 11.8019C121.621 5.60374 116.601 0.579102 110.409 0.579102C104.217 0.579102 99.1968 5.60374 99.1968 11.8019C99.1968 18.0001 104.217 23.0248 110.409 23.0248Z" fill="#FF6584"/>
<path d="M149.38 111.947C149.863 108.379 149.348 105.364 148.229 105.212C147.11 105.06 145.811 107.83 145.328 111.397C144.845 114.965 145.36 117.98 146.479 118.132C147.598 118.284 148.897 115.515 149.38 111.947Z" fill="#2F2E41"/>
<path d="M11.3461 132.565C12.5924 132.565 13.6027 131.554 13.6027 130.307C13.6027 129.059 12.5924 128.048 11.3461 128.048C10.0999 128.048 9.08959 129.059 9.08959 130.307C9.08959 131.554 10.0999 132.565 11.3461 132.565Z" fill="#7F52DD"/>
<path d="M48.2466 127.662H42.3106V133.604H48.2466V127.662Z" fill="#FF6584"/>
<path d="M42.3449 133.885C43.5912 133.885 44.6015 132.874 44.6015 131.627C44.6015 130.379 43.5912 129.368 42.3449 129.368C41.0987 129.368 40.0884 130.379 40.0884 131.627C40.0884 132.874 41.0987 133.885 42.3449 133.885Z" fill="#7F52DD"/>
<path d="M76.1708 44.9284C77.4171 44.9284 78.4274 43.9172 78.4274 42.6698C78.4274 41.4224 77.4171 40.4111 76.1708 40.4111C74.9246 40.4111 73.9143 41.4224 73.9143 42.6698C73.9143 43.9172 74.9246 44.9284 76.1708 44.9284Z" fill="#7F52DD"/>
<path d="M119.992 113.763C120.587 113.763 121.069 113.28 121.069 112.684C121.069 112.088 120.587 111.605 119.992 111.605C119.397 111.605 118.914 112.088 118.914 112.684C118.914 113.28 119.397 113.763 119.992 113.763Z" fill="#FF6584"/>
<path d="M125.271 130.587V118.306" stroke="#3F3D56" stroke-width="0.309252" stroke-miterlimit="10"/>
<path d="M125.271 120.043C126.23 120.043 127.006 119.265 127.006 118.306C127.006 117.347 126.23 116.569 125.271 116.569C124.313 116.569 123.536 117.347 123.536 118.306C123.536 119.265 124.313 120.043 125.271 120.043Z" fill="#3F3D56"/>
<path d="M125.271 125.874C125.271 125.874 125.023 120.538 119.942 121.159L125.271 125.874Z" fill="#3F3D56"/>
</g>
<defs>
<clipPath id="clip0">
<rect width="184" height="137.408" fill="white" transform="translate(0 0.579102)"/>
</clipPath>
</defs>
</svg>
