<svg width="205" height="150" viewBox="0 0 205 150" fill="none" xmlns="http://www.w3.org/2000/svg">
<g clip-path="url(#clip0)">
<path opacity="0.1" d="M66.7228 95.1513C73.4883 92.4905 84.1085 91.9478 93.7752 92.161C124.139 92.8257 151.548 99.2928 175.256 106.609C183.839 109.258 192.289 112.113 197.86 115.76C209.202 123.184 205.837 133.469 190.068 139.585C184.702 141.667 178.198 143.268 171.519 144.675C159.643 147.19 146.837 149.208 133.36 149.789C123.752 150.198 114.023 149.865 104.471 149.293C77.779 147.69 51.5814 144.169 29.6221 138.116C19.9903 135.467 10.9128 132.173 6.94764 127.884C2.98252 123.595 5.51741 118.165 15.3527 115.626C19.4224 114.578 24.2829 114.103 29.0445 113.659C36.0523 113.004 43.1725 112.357 49.4961 111.025C56.029 109.649 63.7635 106.989 62.4709 103.944C61.0775 100.677 59.9651 97.8083 66.7228 95.1513Z" fill="#7F52DD"/>
<path opacity="0.1" d="M97.5543 5.83936L96.8159 48.6688C96.8159 48.6688 123.545 48.6688 146.285 56.0525L146.729 12.7735C146.729 12.7735 110.254 4.06804 97.5543 5.83936Z" fill="black"/>
<path d="M97.1667 5.25782L96.4283 48.0873C96.4283 48.0873 123.157 48.0873 145.897 55.471L146.341 12.1919C146.341 12.1919 109.866 3.4865 97.1667 5.25782Z" fill="#F5F5FB"/>
<path opacity="0.1" d="M86.1705 5.80588L86.9089 48.6353C86.9089 48.6353 60.1802 48.6353 37.4399 56.0191L36.9961 12.7516C36.9961 12.7516 73.4709 4.03456 86.1705 5.80588Z" fill="black"/>
<path d="M86.5581 5.22482L87.2965 48.0543C87.2965 48.0543 60.5678 48.0543 37.8275 55.438L37.3837 12.1706C37.3837 12.1706 73.8585 3.45351 86.5581 5.22482Z" fill="#F5F5FB"/>
<path opacity="0.1" d="M153.18 18.8799V61.2617C153.18 61.2617 161.901 60.2287 180.203 82.8217L181.829 40.44C181.829 40.44 162.779 19.9148 153.18 18.8799Z" fill="black"/>
<path d="M152.793 18.4922V60.874C152.793 60.874 161.514 59.841 179.816 82.434L181.442 40.0523C181.442 40.0523 162.391 19.5271 152.793 18.4922Z" fill="#F5F5FB"/>
<path opacity="0.1" d="M31.0194 20.1377V62.5214C31.0194 62.5214 22.2984 61.4885 3.9961 84.0815L2.37207 41.6997C2.37207 41.6997 21.4205 21.1745 31.0194 20.1377Z" fill="black"/>
<path d="M31.4069 19.5562V61.9399C31.4069 61.9399 22.686 60.9069 4.38367 83.4999L2.75964 41.1182C2.75964 41.1182 21.8081 20.593 31.4069 19.5562Z" fill="#F5F5FB"/>
<path d="M129.469 91.0232C129.469 92.467 120.3 100.81 99.4302 100.81C78.56 100.81 67.2596 92.7577 67.2596 91.3139C67.2596 89.8701 78.9476 93.4457 99.8178 93.4457C120.688 93.4457 129.469 89.5775 129.469 91.0232Z" fill="#F7F7FD"/>
<path opacity="0.1" d="M61.2617 71.1373C62.4883 71.1373 63.4826 71.0011 63.4826 70.8331C63.4826 70.665 62.4883 70.5288 61.2617 70.5288C60.0351 70.5288 59.0408 70.665 59.0408 70.8331C59.0408 71.0011 60.0351 71.1373 61.2617 71.1373Z" fill="#7F52DD"/>
<path opacity="0.1" d="M52.7558 72.0001C53.9824 72.0001 54.9768 71.8639 54.9768 71.6959C54.9768 71.5278 53.9824 71.3916 52.7558 71.3916C51.5293 71.3916 50.5349 71.5278 50.5349 71.6959C50.5349 71.8639 51.5293 72.0001 52.7558 72.0001Z" fill="#7F52DD"/>
<path opacity="0.1" d="M42.7403 70.8336C43.9669 70.8336 44.9613 70.6974 44.9613 70.5294C44.9613 70.3613 43.9669 70.2251 42.7403 70.2251C41.5138 70.2251 40.5194 70.3613 40.5194 70.5294C40.5194 70.6974 41.5138 70.8336 42.7403 70.8336Z" fill="#7F52DD"/>
<path opacity="0.1" d="M56.1609 74.3682C57.0321 74.3682 57.7384 74.271 57.7384 74.1511C57.7384 74.0313 57.0321 73.9341 56.1609 73.9341C55.2897 73.9341 54.5834 74.0313 54.5834 74.1511C54.5834 74.271 55.2897 74.3682 56.1609 74.3682Z" fill="#7F52DD"/>
<path opacity="0.1" d="M47.3333 74.1514C48.2045 74.1514 48.9108 74.0542 48.9108 73.9343C48.9108 73.8145 48.2045 73.7173 47.3333 73.7173C46.462 73.7173 45.7557 73.8145 45.7557 73.9343C45.7557 74.0542 46.462 74.1514 47.3333 74.1514Z" fill="#7F52DD"/>
<path d="M52.7093 71.6276C52.7093 71.6276 55.8217 61.4203 52.2209 57.3331C49.5271 54.2749 46.4651 54.6334 45.1085 55.021C44.7541 55.1153 44.4245 55.2855 44.1425 55.5197C43.8604 55.7539 43.6326 56.0467 43.4748 56.3776C42.9961 57.4106 43.0872 59.0908 46.4631 61.0443C52.1201 64.3195 52.4709 68.8137 52.4709 68.8137L52.7093 71.6276Z" fill="#7F52DD"/>
<path d="M45.5891 56.4668C45.5891 56.4668 54.7674 59.337 52.7093 71.6277" stroke="#565987" stroke-miterlimit="10"/>
<path d="M50.9496 57.4961C50.9496 57.4961 49.6861 58.3469 50.0872 59.6279" stroke="#565987" stroke-miterlimit="10"/>
<path d="M46.5096 58.2539C46.5096 58.2539 47.2848 57.467 48.2209 57.9012" stroke="#565987" stroke-miterlimit="10"/>
<path d="M50.1473 62.2053C50.1473 62.2053 51.5039 61.5173 51.8547 62.3797" stroke="#565987" stroke-miterlimit="10"/>
<path d="M53.4942 63.6418C53.4942 63.6418 52.4748 63.5604 52.4574 64.0469" stroke="#565987" stroke-miterlimit="10"/>
<path d="M52.8353 71.7096C52.8353 71.7096 49.188 64.291 48.1841 64.4538C47.7093 64.5313 47.4903 64.9984 47.3895 65.4693C47.2649 66.0769 47.3326 66.7082 47.5833 67.2755C48.1085 68.4616 49.498 70.7193 52.8353 71.7096Z" fill="#7F52DD"/>
<path d="M48.2094 65.8604C48.2094 65.8604 52.0369 71.4107 52.7772 71.6549" stroke="#565987" stroke-miterlimit="10"/>
<path d="M47.8624 66.7266H48.7558" stroke="#565987" stroke-miterlimit="10"/>
<path d="M48.9321 68.7578L50.3314 68.8179" stroke="#565987" stroke-miterlimit="10"/>
<path d="M49.7848 67.1338L49.6317 67.8625" stroke="#565987" stroke-miterlimit="10"/>
<path d="M51.2732 69.3525L51.2461 70.0153" stroke="#565987" stroke-miterlimit="10"/>
<path d="M52.7268 71.7096C52.7268 71.7096 56.3722 64.291 57.378 64.4538C57.8547 64.5313 58.0737 64.9984 58.1725 65.4693C58.2963 66.0769 58.2286 66.708 57.9787 67.2755C57.4535 68.4616 56.064 70.7193 52.7268 71.7096Z" fill="#7F52DD"/>
<path d="M57.3469 65.8604C57.3469 65.8604 53.5194 71.4107 52.781 71.6549" stroke="#565987" stroke-miterlimit="10"/>
<path d="M57.6996 66.7266H56.8062" stroke="#565987" stroke-miterlimit="10"/>
<path d="M56.6298 68.7578L55.2286 68.8179" stroke="#565987" stroke-miterlimit="10"/>
<path d="M55.7771 67.1338L55.9302 67.8625" stroke="#565987" stroke-miterlimit="10"/>
<path d="M54.2887 69.3525L54.3158 70.0153" stroke="#565987" stroke-miterlimit="10"/>
<path d="M46.4651 73.4419C46.3657 73.3608 46.2934 73.2513 46.2577 73.128C46.2414 73.0664 46.247 73.001 46.2735 72.943C46.3 72.8851 46.3458 72.8381 46.4031 72.8101C46.5349 72.7578 46.6783 72.8508 46.7907 72.9439C46.8367 72.9981 46.8936 73.0422 46.9577 73.0732C47.0218 73.1043 47.0916 73.1216 47.1628 73.1241C47.0902 73.0582 47.0358 72.9748 47.0049 72.8817C46.974 72.7887 46.9676 72.6893 46.9864 72.5931C46.9939 72.5533 47.0113 72.516 47.0368 72.4846C47.1104 72.4051 47.2442 72.44 47.3333 72.502C47.6143 72.6958 47.6918 73.0834 47.6938 73.4264C47.7089 73.2977 47.7089 73.1676 47.6938 73.0388C47.688 72.9751 47.6981 72.911 47.7231 72.8522C47.7481 72.7934 47.7873 72.7416 47.8372 72.7016C47.9038 72.6657 47.9786 72.6477 48.0542 72.6493C48.1171 72.6403 48.1812 72.6446 48.2423 72.662C48.3034 72.6794 48.3601 72.7094 48.4089 72.7501C48.4552 72.814 48.479 72.8915 48.4766 72.9704C48.4741 73.0493 48.4455 73.1252 48.3953 73.1861C48.2907 73.3038 48.1669 73.4027 48.029 73.4787C47.9236 73.5407 47.8341 73.6263 47.7674 73.7287C47.759 73.7427 47.7525 73.7577 47.748 73.7733H46.9535C46.7771 73.6842 46.613 73.5728 46.4651 73.4419Z" fill="#7F52DD"/>
<path d="M60.3606 70.4534C60.2613 70.3729 60.189 70.2641 60.1532 70.1414C60.1368 70.0795 60.1423 70.0138 60.1688 69.9555C60.1953 69.8972 60.2411 69.8499 60.2986 69.8216C60.3694 69.8078 60.4426 69.8131 60.5107 69.837C60.5788 69.8608 60.6394 69.9023 60.6862 69.9573C60.732 70.0117 60.7889 70.0557 60.853 70.0864C60.9172 70.1172 60.9871 70.1339 61.0583 70.1356C60.9855 70.0698 60.931 69.9864 60.9001 69.8933C60.8692 69.8002 60.8629 69.7008 60.8819 69.6046C60.8885 69.5651 60.906 69.5282 60.9323 69.498C61.0059 69.4185 61.1396 69.4515 61.2288 69.5135C61.5098 69.7073 61.5873 70.0949 61.5893 70.4398C61.6043 70.3111 61.6043 70.181 61.5893 70.0522C61.5835 69.9886 61.5936 69.9245 61.6186 69.8656C61.6436 69.8068 61.6828 69.7551 61.7327 69.715C61.7991 69.6788 61.8741 69.6614 61.9497 69.6646C62.0126 69.6552 62.0768 69.6593 62.138 69.6766C62.1991 69.694 62.2559 69.7243 62.3044 69.7654C62.3509 69.8289 62.3748 69.9061 62.3723 69.9848C62.3699 70.0635 62.3412 70.1391 62.2908 70.1995C62.1862 70.3172 62.0624 70.4161 61.9245 70.4922C61.8195 70.5546 61.7301 70.6401 61.6629 70.7422C61.6545 70.7561 61.648 70.7711 61.6435 70.7867H60.849C60.6721 70.6977 60.5079 70.5856 60.3606 70.4534Z" fill="#7F52DD"/>
<path d="M55.7287 73.4419C55.6293 73.3608 55.5569 73.2513 55.5213 73.128C55.5053 73.0664 55.5111 73.0011 55.5376 72.9433C55.564 72.8854 55.6096 72.8384 55.6666 72.8101C55.8004 72.7578 55.9418 72.8508 56.0542 72.9439C56.1004 72.9981 56.1573 73.0421 56.2213 73.0731C56.2854 73.1041 56.3552 73.1215 56.4263 73.1241C56.3539 73.0581 56.2998 72.9746 56.2693 72.8815C56.2387 72.7885 56.2327 72.6891 56.2519 72.5931C56.2578 72.5532 56.2746 72.5156 56.3004 72.4846C56.374 72.4051 56.5077 72.44 56.5969 72.502C56.8779 72.6958 56.9573 73.0834 56.9593 73.4264C56.9734 73.2976 56.9734 73.1676 56.9593 73.0388C56.9535 72.9751 56.9636 72.911 56.9886 72.8522C57.0136 72.7934 57.0528 72.7416 57.1027 72.7016C57.194 72.6596 57.2947 72.6419 57.3949 72.6504C57.4951 72.6589 57.5914 72.6932 57.6744 72.7501C57.7214 72.8137 57.7456 72.8914 57.7431 72.9704C57.7407 73.0495 57.7117 73.1255 57.6608 73.1861C57.5566 73.3042 57.4327 73.4032 57.2946 73.4787C57.1899 73.5417 57.1006 73.6271 57.0329 73.7287C57.0253 73.7431 57.0188 73.758 57.0135 73.7733H56.2209C56.043 73.6849 55.8775 73.5735 55.7287 73.4419Z" fill="#7F52DD"/>
<path d="M42.5892 67.4028C42.5892 67.4028 42.2927 67.7904 42.7268 68.3718C43.1609 68.9532 43.5214 69.4552 43.376 69.8214C43.376 69.8214 42.7191 68.7303 42.1861 68.7148C41.6532 68.6993 42.0078 68.0579 42.5892 67.4028Z" fill="#7F52DD"/>
<path opacity="0.1" d="M42.5892 67.4028C42.5632 67.4403 42.5429 67.4815 42.5291 67.5249C42.0078 68.1354 41.7306 68.7071 42.2306 68.7207C42.6977 68.7342 43.2578 69.5695 43.3934 69.7788C43.3894 69.7953 43.3842 69.8115 43.3779 69.8272C43.3779 69.8272 42.7209 68.7362 42.188 68.7207C41.655 68.7052 42.0078 68.0579 42.5892 67.4028Z" fill="black"/>
<path d="M42.0427 67.8975C42.0427 68.0351 42.0582 68.1456 42.0776 68.1456C42.097 68.1456 42.1106 68.0351 42.1106 67.8975C42.1106 67.7599 42.0931 67.8258 42.0737 67.8258C42.0544 67.8258 42.0427 67.7619 42.0427 67.8975Z" fill="#FFD037"/>
<path d="M41.8528 68.0621C41.9729 68.128 42.0776 68.1667 42.0873 68.1493C42.097 68.1318 42.0059 68.0659 41.8935 68.002C41.7811 67.938 41.8198 67.9826 41.8121 68.002C41.8043 68.0214 41.7326 68.0059 41.8528 68.0621Z" fill="#FFD037"/>
<path d="M44.1666 67.4028C44.1666 67.4028 44.4651 67.7904 44.029 68.3718C43.593 68.9532 43.2364 69.4552 43.3817 69.8214C43.3817 69.8214 44.0368 68.7303 44.5717 68.7148C45.1065 68.6993 44.7538 68.0579 44.1666 67.4028Z" fill="#7F52DD"/>
<path opacity="0.1" d="M44.1667 67.4028C44.1927 67.4403 44.2129 67.4815 44.2268 67.5249C44.7481 68.1354 45.0252 68.7071 44.5252 68.7207C44.0582 68.7342 43.5 69.5695 43.3624 69.7788C43.3664 69.7953 43.3716 69.8115 43.3779 69.8272C43.3779 69.8272 44.033 68.7362 44.5679 68.7207C45.1027 68.7052 44.7539 68.0579 44.1667 67.4028Z" fill="black"/>
<path d="M44.7209 67.8975C44.7209 68.0351 44.7073 68.1456 44.688 68.1456C44.6686 68.1456 44.6531 68.0351 44.6531 67.8975C44.6531 67.7599 44.6725 67.8258 44.6918 67.8258C44.7112 67.8258 44.7209 67.7619 44.7209 67.8975Z" fill="#FFD037"/>
<path d="M44.9148 68.0621C44.7946 68.128 44.69 68.1667 44.6822 68.1493C44.6745 68.1318 44.7617 68.0659 44.876 68.002C44.9904 67.938 44.9497 67.9826 44.9594 68.002C44.9691 68.0214 45.0291 68.0059 44.9148 68.0621Z" fill="#FFD037"/>
<path d="M44.6259 69.7769C44.6259 69.7769 43.7925 69.7517 43.5425 69.5734C43.2925 69.3951 42.2634 69.1858 42.2014 69.4668C42.1394 69.7478 40.9514 70.8912 41.8894 70.899C42.8274 70.9067 44.0716 70.7517 44.3216 70.6005C44.5716 70.4494 44.6259 69.7769 44.6259 69.7769Z" fill="#A8A8A8"/>
<path opacity="0.2" d="M41.874 70.7987C42.812 70.7987 44.0562 70.6533 44.3062 70.5002C44.5 70.3839 44.5717 69.9673 44.5969 69.7754H44.626C44.626 69.7754 44.5717 70.4459 44.3217 70.599C44.0717 70.7521 42.8295 70.9052 41.8895 70.8975C41.6202 70.8975 41.5252 70.7987 41.531 70.6552C41.5678 70.7444 41.6725 70.7967 41.874 70.7987Z" fill="black"/>
<path opacity="0.1" d="M37.8237 97.1939C41.5398 97.1939 44.5523 96.7488 44.5523 96.1998C44.5523 95.6507 41.5398 95.2056 37.8237 95.2056C34.1075 95.2056 31.095 95.6507 31.095 96.1998C31.095 96.7488 34.1075 97.1939 37.8237 97.1939Z" fill="#7F52DD"/>
<path opacity="0.1" d="M56.6182 105.426C60.3344 105.426 63.3469 104.981 63.3469 104.432C63.3469 103.883 60.3344 103.438 56.6182 103.438C52.9021 103.438 49.8895 103.883 49.8895 104.432C49.8895 104.981 52.9021 105.426 56.6182 105.426Z" fill="#7F52DD"/>
<path opacity="0.1" d="M28.9709 114.793C32.687 114.793 35.6996 114.347 35.6996 113.798C35.6996 113.249 32.687 112.804 28.9709 112.804C25.2547 112.804 22.2422 113.249 22.2422 113.798C22.2422 114.347 25.2547 114.793 28.9709 114.793Z" fill="#7F52DD"/>
<path opacity="0.1" d="M171.539 135.366C175.255 135.366 178.267 134.921 178.267 134.372C178.267 133.823 175.255 133.378 171.539 133.378C167.823 133.378 164.81 133.823 164.81 134.372C164.81 134.921 167.823 135.366 171.539 135.366Z" fill="#7F52DD"/>
<path opacity="0.1" d="M95.1725 111.994C97.6331 111.994 99.6279 111.771 99.6279 111.496C99.6279 111.221 97.6331 110.998 95.1725 110.998C92.7118 110.998 90.717 111.221 90.717 111.496C90.717 111.771 92.7118 111.994 95.1725 111.994Z" fill="#7F52DD"/>
<path opacity="0.1" d="M158.932 86.4131C161.393 86.4131 163.388 86.1901 163.388 85.9151C163.388 85.64 161.393 85.417 158.932 85.417C156.472 85.417 154.477 85.64 154.477 85.9151C154.477 86.1901 156.472 86.4131 158.932 86.4131Z" fill="#7F52DD"/>
<path opacity="0.1" d="M124.24 124.204C126.701 124.204 128.696 123.981 128.696 123.706C128.696 123.431 126.701 123.208 124.24 123.208C121.78 123.208 119.785 123.431 119.785 123.706C119.785 123.981 121.78 124.204 124.24 124.204Z" fill="#7F52DD"/>
<path opacity="0.1" d="M85.7829 120.917C88.2436 120.917 90.2384 120.694 90.2384 120.418C90.2384 120.143 88.2436 119.92 85.7829 119.92C83.3223 119.92 81.3275 120.143 81.3275 120.418C81.3275 120.694 83.3223 120.917 85.7829 120.917Z" fill="#7F52DD"/>
<path opacity="0.1" d="M49.7422 119.624C52.2028 119.624 54.1976 119.401 54.1976 119.126C54.1976 118.851 52.2028 118.628 49.7422 118.628C47.2815 118.628 45.2867 118.851 45.2867 119.126C45.2867 119.401 47.2815 119.624 49.7422 119.624Z" fill="#7F52DD"/>
<path opacity="0.1" d="M40.3507 128.546C42.8114 128.546 44.8061 128.323 44.8061 128.048C44.8061 127.773 42.8114 127.55 40.3507 127.55C37.89 127.55 35.8953 127.773 35.8953 128.048C35.8953 128.323 37.89 128.546 40.3507 128.546Z" fill="#7F52DD"/>
<g opacity="0.1">
<path opacity="0.1" d="M98.6045 59.5718C114.886 59.5718 128.085 53.6812 128.085 46.4148C128.085 39.1484 114.886 33.2578 98.6045 33.2578C82.3228 33.2578 69.1239 39.1484 69.1239 46.4148C69.1239 53.6812 82.3228 59.5718 98.6045 59.5718Z" fill="black"/>
<path opacity="0.1" d="M128.597 51.1182C127.293 57.9787 114.405 63.3644 98.6957 63.3644C82.8488 63.3644 69.872 57.8837 68.7596 50.9399H68.6492V62.1202C73.8313 67.5349 85.3042 71.3004 98.622 71.3004C111.94 71.3004 123.413 67.5349 128.597 62.1202V51.1182Z" fill="black"/>
<path opacity="0.1" d="M128.597 64.7232C127.293 71.5817 114.405 76.9693 98.6957 76.9693C82.8488 76.9693 69.872 71.4887 68.7596 64.543H68.6492V75.7251C73.8313 81.1399 85.3042 84.9034 98.622 84.9034C111.94 84.9034 123.413 81.1399 128.597 75.7251V64.7232Z" fill="black"/>
<path opacity="0.1" d="M128.597 79.6861C127.293 86.5466 114.405 91.9322 98.6957 91.9322C82.8488 91.9322 69.872 86.4535 68.7596 79.5078H68.6492V91.5659C68.6487 91.8229 68.7015 92.0771 68.8042 92.3126C68.907 92.5481 69.0574 92.7598 69.2461 92.9342C74.6724 97.9167 85.7945 99.8683 98.622 99.8683C111.45 99.8683 122.566 97.9167 128 92.9342C128.189 92.7598 128.339 92.5481 128.442 92.3126C128.545 92.0771 128.597 91.8229 128.597 91.5659V79.6861Z" fill="black"/>
</g>
<path d="M98.6046 58.7969C114.886 58.7969 128.085 52.9063 128.085 45.6399C128.085 38.3735 114.886 32.4829 98.6046 32.4829C82.3229 32.4829 69.124 38.3735 69.124 45.6399C69.124 52.9063 82.3229 58.7969 98.6046 58.7969Z" fill="#7F52DD"/>
<path d="M128.597 50.3428C127.293 57.2033 114.405 62.589 98.6958 62.589C82.8489 62.589 69.8722 57.1084 68.7598 50.1646H68.6493V61.3448C73.8315 66.7595 85.3043 70.525 98.6222 70.525C111.94 70.525 123.413 66.7595 128.597 61.3448V50.3428Z" fill="#7F52DD"/>
<path d="M128.597 63.9473C127.293 70.8058 114.405 76.1934 98.6958 76.1934C82.8489 76.1934 69.8722 70.7128 68.7598 63.7671H68.6493V74.9493C73.8315 80.364 85.3043 84.1276 98.6222 84.1276C111.94 84.1276 123.413 80.364 128.597 74.9493V63.9473Z" fill="#7F52DD"/>
<path d="M128.597 78.9107C127.293 85.7712 114.405 91.1568 98.6957 91.1568C82.8488 91.1568 69.872 85.6782 68.7596 78.7324H68.6492V90.7906C68.6487 91.0475 68.7015 91.3017 68.8042 91.5372C68.907 91.7727 69.0574 91.9844 69.2461 92.1588C74.6724 97.1413 85.7945 99.0929 98.622 99.0929C111.45 99.0929 122.566 97.1413 128 92.1588C128.189 91.9844 128.339 91.7727 128.442 91.5372C128.545 91.3017 128.597 91.0475 128.597 90.7906V78.9107Z" fill="#7F52DD"/>
<path opacity="0.1" d="M142.06 112.695C148.161 112.695 153.106 111.805 153.106 110.707C153.106 109.609 148.161 108.719 142.06 108.719C135.959 108.719 131.013 109.609 131.013 110.707C131.013 111.805 135.959 112.695 142.06 112.695Z" fill="#7F52DD"/>
<path d="M135.859 85.3723C136.417 85.7018 137.293 85.9169 138.395 85.2076L138.386 86.7793C138.463 87.8568 139.797 91.7851 139.797 91.7851L140.736 95.0158C141.411 97.2989 141.759 99.6661 141.769 102.047C141.769 102.834 141.843 103.648 142.07 104.26C142.572 105.617 141.876 107.361 141.572 108.004C141.063 108.176 140.545 108.322 140.021 108.44C139.975 108.451 139.929 108.466 139.884 108.483V108.473C139.884 108.473 138.473 109.033 137.845 108.956C137.378 108.899 137.085 109.483 137.457 109.911C137.154 110.004 136.837 110.046 136.519 110.035C135.891 109.958 135.578 111.035 136.754 111.343C137.93 111.651 144.595 111.343 144.595 111.343C144.782 111.25 144.933 111.096 145.023 110.907C145.114 110.719 145.139 110.505 145.095 110.301L145.928 110.266C145.928 110.266 147.105 109.727 145.928 108.264L145.864 108.31L145.614 107.57V106.572C145.614 106.572 147.105 99.4014 146.634 98.5623C146.163 97.7231 145.913 93.3937 145.913 93.3937L146.078 88.7037C146.502 87.8278 146.719 86.4518 146.829 85.3762C146.99 84.8637 147.091 84.3343 147.13 83.7987C147.149 83.5448 147.165 83.2813 147.174 83.0061C147.181 82.4023 147.084 81.8019 146.888 81.2309C147.42 80.4418 148.014 79.6965 148.665 79.0022C148.935 78.7504 149.141 78.4367 149.264 78.0881C149.388 77.7395 149.424 77.3663 149.372 77.0003L148.984 74.382L148.043 69.9247C148.161 68.6863 147.903 67.9731 147.616 67.57C147.684 67.1689 147.748 66.7696 147.797 66.3665C148.004 64.6194 147.911 62.8497 147.521 61.134C147.386 60.5371 147.2 59.9227 146.779 59.4693C146.304 58.9537 145.533 58.6417 145.355 57.9692C145.33 57.7978 145.293 57.6282 145.246 57.4615C145.074 57.0216 144.531 56.8607 144.054 56.8026C143.205 56.6999 141.979 56.6224 141.163 56.9557C140.447 57.2723 139.857 57.8194 139.488 58.5099C139.305 58.7937 139.235 59.1365 139.295 59.4693C139.324 59.5848 139.369 59.6956 139.428 59.7987C139.157 60.535 139.186 61.3487 139.511 62.0634C139.835 62.7781 140.428 63.3361 141.161 63.6165C141.18 63.6766 141.198 63.7348 141.211 63.791C141.247 63.9291 141.273 64.0696 141.289 64.2115C141.273 64.4828 141.256 64.7561 141.244 65.0293L141.215 65.1398C140.54 65.4385 139.883 65.7736 139.244 66.1437C139.713 66.8375 139.165 69.7638 139.165 69.7638C137.988 70.4557 136.814 72.227 138.068 74.0758C139.322 75.9247 138.616 77.9247 138.616 77.9247L138.422 80.9363L138.384 81.539H138.397L138.384 81.7677H138.417V82.0138C137.866 82.2173 137.06 82.6243 136.581 83.3801C136.355 83.7507 136.079 84.089 135.762 84.3859C135.688 84.4492 135.63 84.5293 135.594 84.6196C135.558 84.7099 135.544 84.8076 135.553 84.9044C135.563 85.0012 135.595 85.0943 135.648 85.1758C135.702 85.2572 135.774 85.3247 135.859 85.3723ZM145.326 77.3723C145.278 76.8512 145.375 76.327 145.605 75.8568H146.159C146.175 75.9794 146.198 76.101 146.227 76.2212C146.386 76.9092 145.75 77.2328 145.326 77.3723Z" fill="url(#paint0_linear)"/>
<path d="M145.481 107.217L145.783 108.122L144.802 109.103L141.558 109.866L139.219 109.639L139.37 108.81C139.415 108.632 139.508 108.469 139.638 108.34C139.769 108.21 139.933 108.12 140.112 108.077C141.081 107.853 142.907 107.337 143.293 106.622L145.481 107.217Z" fill="#DB8B8B"/>
<path opacity="0.1" d="M145.481 107.217L145.783 108.122L144.802 109.103L141.558 109.866L139.219 109.639L139.37 108.81C139.415 108.632 139.508 108.469 139.638 108.34C139.769 108.21 139.933 108.12 140.112 108.077C141.081 107.853 142.907 107.337 143.293 106.622L145.481 107.217Z" fill="black"/>
<path d="M139.973 109.405L140.426 108.802L139.973 108.103C139.973 108.103 138.616 108.651 138.012 108.576C137.407 108.5 137.107 109.556 138.238 109.859C139.37 110.161 145.783 109.859 145.783 109.859C145.783 109.859 146.915 109.33 145.783 107.896L144.802 108.651C144.802 108.651 143.142 109.556 142.312 109.405H139.973Z" fill="#C17174"/>
<path d="M137.938 110.688L140.277 110.915L143.521 110.159L144.502 109.178L144.422 108.94L144.31 108.603L144.2 108.273L142.008 107.67C141.897 107.851 141.745 108.003 141.564 108.114C140.853 108.601 139.578 108.951 138.828 109.126C138.796 109.133 138.765 109.143 138.734 109.155C138.589 109.201 138.456 109.282 138.347 109.389C138.216 109.518 138.123 109.68 138.079 109.858L137.938 110.688Z" fill="#DB8B8B"/>
<path opacity="0.1" d="M137.938 110.688L140.277 110.915L143.521 110.159L144.502 109.178L144.422 108.94L143.521 109.632C143.521 109.632 141.86 110.537 141.031 110.386H138.69L139.143 109.783L138.736 109.155C138.591 109.202 138.458 109.282 138.349 109.39C138.218 109.518 138.125 109.68 138.081 109.859L137.938 110.688Z" fill="black"/>
<path d="M138.69 110.461L139.143 109.859L138.69 109.159C138.69 109.159 137.333 109.707 136.729 109.632C136.124 109.556 135.824 110.613 136.955 110.915C138.087 111.217 144.5 110.915 144.5 110.915C144.5 110.915 145.632 110.386 144.5 108.954L143.519 109.707C143.519 109.707 141.858 110.613 141.029 110.461H138.69Z" fill="#C17174"/>
<path d="M140.576 66.7017C140.576 66.7017 144.198 67.0893 143.676 65.5699C143.527 65.142 143.489 64.6834 143.564 64.2366C143.657 63.6834 143.876 63.159 144.203 62.7036L140.808 63.2307C141.012 63.571 141.167 63.9383 141.269 64.3218C141.667 65.9226 140.576 66.7017 140.576 66.7017Z" fill="#DB8B8B"/>
<path d="M146.764 83.8975C146.764 83.8975 146.688 87.1416 145.934 88.7269L145.783 93.3296C145.783 93.3296 146.008 97.5544 146.461 98.3839C146.915 99.2134 145.481 106.231 145.481 106.231V107.438C145.481 107.438 143.066 108.343 142.38 107.287L143.058 98.3083L142.756 85.8606L146.764 83.8975Z" fill="#474463"/>
<path opacity="0.1" d="M146.764 83.8975C146.764 83.8975 146.688 87.1416 145.934 88.7269L145.783 93.3296C145.783 93.3296 146.008 97.5544 146.461 98.3839C146.915 99.2134 145.481 106.231 145.481 106.231V107.438C145.481 107.438 143.066 108.343 142.38 107.287L143.058 98.3083L142.756 85.8606L146.764 83.8975Z" fill="black"/>
<path d="M148.271 73.4922L148.725 74.6996L149.112 77.2635C149.163 77.6212 149.127 77.9858 149.009 78.3272C148.891 78.6686 148.693 78.9769 148.432 79.2267C147.527 80.1317 146.32 82.0174 146.32 82.0174L144.888 77.717C144.888 77.717 146.32 77.4902 146.093 76.5096C145.866 75.529 145.944 73.7189 145.944 73.7189L148.271 73.4922Z" fill="#FF748E"/>
<path opacity="0.05" d="M148.289 73.4746L148.74 74.682L149.128 77.2479C149.179 77.6052 149.144 77.9695 149.026 78.3106C148.908 78.6518 148.711 78.9598 148.45 79.2091C147.543 80.1141 146.337 82.0017 146.337 82.0017L144.893 77.6955C144.893 77.6955 146.328 77.4688 146.101 76.4882C145.874 75.5076 145.95 73.6955 145.95 73.6955L148.289 73.4746Z" fill="black"/>
<path opacity="0.1" d="M141.566 108.122C142.535 109.645 144.041 108.781 144.308 108.61L144.198 108.281L142.008 107.67C141.898 107.854 141.747 108.008 141.566 108.122Z" fill="black"/>
<path d="M138.539 86.8472C138.614 87.9034 139.895 91.7503 139.895 91.7503L140.8 94.9169C141.448 97.156 141.782 99.4738 141.795 101.805C141.772 102.538 141.869 103.271 142.083 103.973C142.688 105.634 141.481 107.896 141.481 107.896C142.537 109.783 144.347 108.5 144.347 108.5V107.293C144.347 107.293 145.781 100.729 145.403 99.446C145.025 98.1631 144.876 94.6941 144.876 94.6941V88.4305C146.084 87.2263 146.819 85.6277 146.946 83.9266C146.963 83.6786 146.979 83.4189 146.988 83.1514C147.048 81.4499 145.884 79.4538 145.438 78.7425C145.33 78.57 145.26 78.4731 145.26 78.4731L138.599 81.1166H138.583V81.3782V81.948L138.539 86.8472Z" fill="#474463"/>
<path opacity="0.1" d="M140.802 63.2307C141.006 63.571 141.162 63.9383 141.264 64.3218C141.632 64.4617 142.025 64.5263 142.42 64.5116C142.814 64.497 143.201 64.4035 143.558 64.2366C143.651 63.6834 143.87 63.159 144.198 62.7036L140.802 63.2307Z" fill="black"/>
<path d="M142.312 64.3622C143.937 64.3622 145.254 63.0451 145.254 61.4204C145.254 59.7956 143.937 58.4785 142.312 58.4785C140.687 58.4785 139.37 59.7956 139.37 61.4204C139.37 63.0451 140.687 64.3622 142.312 64.3622Z" fill="#DB8B8B"/>
<path opacity="0.1" d="M138.539 81.9421H138.572C141.735 82.5933 145.707 79.2967 145.707 79.2967C145.601 79.117 145.509 78.9291 145.432 78.7347C145.324 78.5622 145.254 78.4653 145.254 78.4653L138.593 81.1088L138.576 81.3723L138.539 81.9421Z" fill="black"/>
<path d="M139.37 66.6261C139.37 66.6261 143.595 64.0602 144.951 65.1164L146.839 67.5311C146.839 67.5311 148.046 67.909 147.822 70.3315L148.727 74.7074L146.014 75.3857C146.014 75.3857 144.43 76.8954 145.713 79.0834C145.713 79.0834 141.713 82.4032 138.543 81.723L138.769 78.1784C138.769 78.1784 139.448 76.2152 138.242 74.4051C137.037 72.595 138.167 70.8586 139.298 70.1803C139.295 70.1726 139.822 67.3043 139.37 66.6261Z" fill="#FF748E"/>
<path d="M139.143 82.0176C139.143 82.0176 137.558 82.3199 136.804 83.5273C136.586 83.8901 136.32 84.2219 136.014 84.5137C135.945 84.5764 135.891 84.6543 135.858 84.7412C135.825 84.8281 135.812 84.9217 135.821 85.0143C135.831 85.107 135.861 85.1962 135.911 85.2748C135.961 85.3535 136.029 85.4193 136.108 85.4672C136.707 85.8277 137.682 86.0486 138.917 85.035C141.039 83.3005 139.143 82.0176 139.143 82.0176Z" fill="#DB8B8B"/>
<path opacity="0.1" d="M141.483 68.0597C141.483 68.0597 142.99 67.9086 143.368 71.831C143.746 75.7535 144.349 76.6605 144.349 76.6605C144.349 76.6605 144.727 78.6973 143.82 79.9047C142.913 81.1121 141.18 83.6779 141.18 83.6779C141.18 83.6779 139.295 84.2051 138.917 82.3214L141.256 77.9454C141.256 77.9454 141.632 76.4357 140.727 75.3795C139.822 74.3233 139.143 67.3039 141.483 68.0597Z" fill="black"/>
<path d="M141.331 67.8334C141.331 67.8334 142.839 67.6822 143.217 71.6066C143.595 75.5311 144.198 76.4342 144.198 76.4342C144.198 76.4342 144.585 78.471 143.671 79.6783C142.756 80.8857 141.039 83.4516 141.039 83.4516C141.039 83.4516 139.153 83.9787 138.775 82.095L141.114 77.719C141.114 77.719 141.492 76.2094 140.585 75.1532C139.678 74.097 138.992 67.0795 141.331 67.8334Z" fill="#FF748E"/>
<path opacity="0.1" d="M140.085 70.6626C140.085 70.6626 139.936 73.0017 140.614 74.2847C141.293 75.5676 141.293 77.2265 140.614 78.1316" fill="black"/>
<path opacity="0.1" d="M139.709 67.7947C139.709 67.7947 140.312 67.192 142.048 67.1164C143.785 67.0408 144.537 66.5137 144.537 66.5137" fill="black"/>
<path opacity="0.1" d="M143.905 57.6184C144.364 57.6746 144.888 57.8316 145.052 58.2618C145.098 58.4256 145.133 58.5919 145.159 58.7599C145.329 59.4188 146.072 59.7289 146.529 60.2289C146.932 60.6746 147.11 61.2754 147.242 61.8626C147.618 63.5442 147.708 65.2771 147.508 66.9886C147.36 68.2386 147.058 69.4711 146.975 70.7269C146.892 71.9827 147.045 73.3064 147.731 74.3626C148.027 74.8161 148.417 75.2153 148.626 75.7192C148.194 76.07 147.597 76.1203 147.039 76.1397C146.393 76.1617 145.744 76.1617 145.091 76.1397C144.75 76.1533 144.41 76.0821 144.103 75.9324C143.885 75.7939 143.707 75.6025 143.583 75.3762C143.211 74.7463 143.118 73.9886 143.134 73.2579C143.149 72.5273 143.266 71.8006 143.279 71.068C143.318 70.6684 143.229 70.2668 143.025 69.9207C142.838 69.703 142.626 69.5079 142.393 69.3393C141.585 68.6223 141.308 67.475 141.281 66.3955C141.254 65.3161 141.432 64.2366 141.341 63.161C141.306 62.7405 141.147 62.2347 140.734 62.1533C140.604 62.148 140.474 62.1311 140.347 62.1029C140.016 61.975 140.048 61.5079 139.959 61.1649C139.853 60.7773 139.523 60.4808 139.43 60.0932C139.213 59.1804 140.376 58.0893 141.138 57.7676C141.899 57.4459 143.089 57.5176 143.905 57.6184Z" fill="black"/>
<path d="M143.981 57.4672C144.44 57.5234 144.963 57.6804 145.128 58.1125C145.174 58.2756 145.209 58.4413 145.235 58.6087C145.405 59.2676 146.147 59.5776 146.605 60.0776C147.008 60.5234 147.186 61.1242 147.318 61.7114C147.694 63.395 147.783 65.1299 147.581 66.8432C147.436 68.0932 147.134 69.3257 147.05 70.5835C146.967 71.8412 147.12 73.161 147.806 74.2172C148.103 74.6726 148.492 75.0699 148.702 75.5738C148.269 75.9265 147.673 75.9749 147.114 75.9943C146.468 76.015 145.819 76.015 145.167 75.9943C144.825 76.0086 144.486 75.9381 144.178 75.7889C143.961 75.6497 143.782 75.4577 143.659 75.2308C143.287 74.6009 143.194 73.8432 143.209 73.1125C143.225 72.3819 143.341 71.6552 143.355 70.9246C143.355 70.5253 143.331 70.1028 143.101 69.7773C142.914 69.5592 142.702 69.364 142.469 69.1959C141.661 68.4788 141.384 67.3315 141.357 66.2521C141.33 65.1726 141.508 64.0932 141.417 63.0176C141.382 62.597 141.223 62.0912 140.81 62.0098C140.68 62.0045 140.55 61.9877 140.423 61.9594C140.091 61.8315 140.124 61.3645 140.035 61.0214C139.928 60.6338 139.599 60.3393 139.506 59.9497C139.289 59.0369 140.452 57.9459 141.213 57.6242C141.975 57.3024 143.171 57.3664 143.981 57.4672Z" fill="#464353"/>
<path d="M24.814 111.002C24.814 111.002 26.8915 110.938 27.5155 110.492C28.1395 110.047 30.7093 109.514 30.8644 110.229C31.0194 110.944 33.9845 113.783 31.6395 113.803C29.2946 113.822 26.1938 113.436 25.5678 113.056C24.9419 112.677 24.814 111.002 24.814 111.002Z" fill="#A8A8A8"/>
<path opacity="0.2" d="M31.6822 113.548C29.3392 113.568 26.2364 113.184 25.6124 112.804C25.1376 112.514 24.9477 111.475 24.8837 110.994H24.814C24.814 110.994 24.9457 112.669 25.5698 113.048C26.1938 113.428 29.2965 113.812 31.6415 113.795C32.3178 113.795 32.5504 113.548 32.5388 113.192C32.4438 113.415 32.1861 113.548 31.6822 113.548Z" fill="black"/>
<path d="M156.769 83.744C156.769 83.744 158.194 83.6995 158.624 83.3933C159.054 83.0871 160.816 82.7227 160.923 83.213C161.029 83.7034 163.066 85.653 161.455 85.6665C159.845 85.6801 157.717 85.4146 157.289 85.1549C156.86 84.8952 156.769 83.744 156.769 83.744Z" fill="#A8A8A8"/>
<path opacity="0.2" d="M161.485 85.496C159.876 85.5077 157.746 85.2441 157.318 84.9844C156.99 84.7906 156.86 84.0716 156.818 83.7422H156.769C156.769 83.7422 156.86 84.8914 157.289 85.153C157.717 85.4146 159.847 85.6763 161.455 85.6646C161.921 85.6646 162.081 85.496 162.072 85.2499C162.008 85.4011 161.831 85.4922 161.485 85.496Z" fill="black"/>
<path opacity="0.1" d="M6.06393 8.38372C8.37903 8.38372 10.2558 6.50696 10.2558 4.19186C10.2558 1.87676 8.37903 0 6.06393 0C3.74883 0 1.87207 1.87676 1.87207 4.19186C1.87207 6.50696 3.74883 8.38372 6.06393 8.38372Z" fill="#7F52DD"/>
<path opacity="0.1" d="M186.296 20.3989C188.612 20.3989 190.488 18.5221 190.488 16.207C190.488 13.8919 188.612 12.0151 186.296 12.0151C183.981 12.0151 182.105 13.8919 182.105 16.207C182.105 18.5221 183.981 20.3989 186.296 20.3989Z" fill="#7F52DD"/>
<path opacity="0.1" d="M3.10078 23.6781C4.81329 23.6781 6.20155 22.2898 6.20155 20.5773C6.20155 18.8648 4.81329 17.4766 3.10078 17.4766C1.38826 17.4766 0 18.8648 0 20.5773C0 22.2898 1.38826 23.6781 3.10078 23.6781Z" fill="#7F52DD"/>
<path opacity="0.1" d="M34.496 6.23622C36.2086 6.23622 37.5968 4.84795 37.5968 3.13544C37.5968 1.42293 36.2086 0.034668 34.496 0.034668C32.7835 0.034668 31.3953 1.42293 31.3953 3.13544C31.3953 4.84795 32.7835 6.23622 34.496 6.23622Z" fill="#7F52DD"/>
<path opacity="0.1" d="M161.628 6.62391C163.34 6.62391 164.729 5.23565 164.729 3.52314C164.729 1.81063 163.34 0.422363 161.628 0.422363C159.915 0.422363 158.527 1.81063 158.527 3.52314C158.527 5.23565 159.915 6.62391 161.628 6.62391Z" fill="#7F52DD"/>
<path d="M172.407 125.271C172.407 125.271 173.182 126.287 172.048 127.819C170.915 129.352 169.979 130.645 170.357 131.6C170.357 131.6 172.068 128.755 173.457 128.715C174.847 128.674 173.938 126.984 172.407 125.271Z" fill="#FC6681"/>
<path opacity="0.1" d="M172.407 125.271C172.474 125.37 172.527 125.477 172.564 125.591C173.921 127.188 174.649 128.678 173.339 128.715C172.122 128.75 170.663 130.926 170.312 131.476C170.324 131.519 170.338 131.56 170.355 131.6C170.355 131.6 172.066 128.755 173.455 128.715C174.845 128.674 173.938 126.984 172.407 125.271Z" fill="black"/>
<path d="M173.849 126.566C173.849 126.922 173.808 127.213 173.76 127.213C173.711 127.213 173.671 126.922 173.671 126.566C173.671 126.209 173.721 126.372 173.769 126.372C173.818 126.372 173.849 126.207 173.849 126.566Z" fill="#FFD037"/>
<path d="M174.345 126.992C174.031 127.163 173.764 127.266 173.733 127.223C173.702 127.18 173.946 127.006 174.258 126.835C174.57 126.665 174.452 126.789 174.473 126.835C174.494 126.882 174.659 126.822 174.345 126.992Z" fill="#FFD037"/>
<path d="M168.306 125.271C168.306 125.271 167.531 126.287 168.665 127.819C169.798 129.352 170.734 130.645 170.356 131.6C170.356 131.6 168.643 128.755 167.256 128.715C165.868 128.674 166.773 126.984 168.306 125.271Z" fill="#FC6681"/>
<path opacity="0.1" d="M168.306 125.271C168.239 125.37 168.185 125.477 168.147 125.591C166.791 127.188 166.064 128.678 167.372 128.715C168.589 128.75 170.05 130.926 170.399 131.476C170.388 131.517 170.374 131.56 170.358 131.6C170.358 131.6 168.645 128.755 167.258 128.715C165.87 128.674 166.773 126.984 168.306 125.271Z" fill="black"/>
<path d="M166.863 126.566C166.863 126.922 166.903 127.213 166.954 127.213C167.004 127.213 167.043 126.922 167.043 126.566C167.043 126.209 166.992 126.372 166.942 126.372C166.892 126.372 166.863 126.207 166.863 126.566Z" fill="#FFD037"/>
<path d="M166.368 126.992C166.682 127.163 166.95 127.266 166.979 127.223C167.008 127.18 166.767 127.006 166.453 126.835C166.14 126.665 166.26 126.789 166.24 126.835C166.221 126.882 166.054 126.822 166.368 126.992Z" fill="#FFD037"/>
<path d="M167.11 131.469C167.11 131.469 169.281 131.401 169.934 130.936C170.587 130.471 173.273 129.915 173.436 130.661C173.599 131.407 176.696 134.376 174.246 134.395C171.797 134.415 168.552 134.008 167.901 133.62C167.25 133.233 167.11 131.469 167.11 131.469Z" fill="#A8A8A8"/>
<path opacity="0.2" d="M174.291 134.135C171.839 134.155 168.597 133.748 167.944 133.36C167.448 133.058 167.248 131.971 167.182 131.469H167.11C167.11 131.469 167.248 133.213 167.901 133.616C168.554 134.019 171.797 134.414 174.246 134.391C174.953 134.391 175.198 134.133 175.184 133.761C175.087 133.99 174.816 134.132 174.291 134.135Z" fill="black"/>
<path opacity="0.7" d="M61.3275 24.4131C60.5225 24.4131 59.7357 24.6518 59.0664 25.099C58.3971 25.5462 57.8755 26.1818 57.5675 26.9254C57.2595 27.6691 57.1789 28.4874 57.3359 29.2768C57.4929 30.0663 57.8805 30.7914 58.4497 31.3606C59.0189 31.9298 59.744 32.3174 60.5335 32.4744C61.3229 32.6315 62.1412 32.5509 62.8849 32.2428C63.6285 31.9348 64.2641 31.4132 64.7113 30.7439C65.1585 30.0746 65.3972 29.2878 65.3972 28.4829C65.3972 27.4035 64.9684 26.3683 64.2052 25.6051C63.442 24.8419 62.4068 24.4131 61.3275 24.4131ZM61.3275 25.2018C61.9791 25.2018 62.616 25.3951 63.1578 25.7571C63.6996 26.1191 64.1219 26.6336 64.3712 27.2356C64.6206 27.8376 64.6858 28.5001 64.5587 29.1392C64.4316 29.7782 64.1178 30.3653 63.6571 30.826C63.1963 31.2868 62.6093 31.6006 61.9702 31.7277C61.3311 31.8548 60.6687 31.7896 60.0667 31.5402C59.4647 31.2909 58.9501 30.8686 58.5881 30.3268C58.2261 29.785 58.0329 29.148 58.0329 28.4964C58.0329 27.6226 58.38 26.7847 58.9978 26.1668C59.6157 25.549 60.4537 25.2018 61.3275 25.2018ZM63.6317 27.3433L63.2616 26.9693C63.2435 26.9505 63.2218 26.9356 63.1978 26.9254C63.1739 26.9152 63.1481 26.91 63.122 26.91C63.096 26.91 63.0702 26.9152 63.0462 26.9254C63.0222 26.9356 63.0006 26.9505 62.9825 26.9693L60.6569 29.2736L59.6763 28.2774C59.6582 28.2587 59.6365 28.2438 59.6126 28.2336C59.5886 28.2234 59.5628 28.2181 59.5368 28.2181C59.5107 28.2181 59.4849 28.2234 59.461 28.2336C59.437 28.2438 59.4153 28.2587 59.3972 28.2774L59.0251 28.6476C59.0064 28.6657 58.9915 28.6873 58.9813 28.7113C58.9711 28.7353 58.9658 28.7611 58.9658 28.7871C58.9658 28.8132 58.9711 28.839 58.9813 28.8629C58.9915 28.8869 59.0064 28.9086 59.0251 28.9267L60.5174 30.4305C60.5355 30.4493 60.5571 30.4642 60.5811 30.4744C60.6051 30.4846 60.6309 30.4898 60.6569 30.4898C60.683 30.4898 60.7087 30.4846 60.7327 30.4744C60.7567 30.4642 60.7784 30.4493 60.7965 30.4305L63.6317 27.6166C63.6505 27.5985 63.6654 27.5768 63.6756 27.5528C63.6858 27.5289 63.691 27.5031 63.691 27.477C63.691 27.451 63.6858 27.4252 63.6756 27.4012C63.6654 27.3773 63.6505 27.3556 63.6317 27.3375V27.3433Z" fill="#3ACC6C"/>
<path opacity="0.7" d="M16.2733 45.0177C15.4897 45.1997 14.7777 45.6098 14.227 46.1963C13.6764 46.7828 13.312 47.5193 13.1798 48.3128C13.0475 49.1063 13.1534 49.9212 13.484 50.6546C13.8147 51.388 14.3552 52.0069 15.0374 52.4332C15.7196 52.8595 16.5129 53.0741 17.317 53.0498C18.121 53.0255 18.8999 52.7635 19.5551 52.2968C20.2104 51.8301 20.7126 51.1797 20.9984 50.4278C21.2842 49.6758 21.3408 48.856 21.1609 48.0719C21.0412 47.5501 20.8197 47.057 20.5091 46.6209C20.1985 46.1848 19.8049 45.8143 19.3509 45.5306C18.8969 45.2468 18.3913 45.0555 17.8632 44.9675C17.3351 44.8795 16.7948 44.8965 16.2733 45.0177ZM16.4516 45.7929C17.0868 45.6446 17.7517 45.6883 18.3621 45.9183C18.9724 46.1483 19.5008 46.5543 19.8802 47.0849C20.2596 47.6155 20.473 48.2467 20.4933 48.8987C20.5136 49.5506 20.3399 50.1939 19.9942 50.7471C19.6486 51.3003 19.1465 51.7384 18.5516 52.0059C17.9568 52.2734 17.2959 52.3584 16.6527 52.25C16.0095 52.1415 15.4129 51.8446 14.9386 51.3969C14.4643 50.9491 14.1336 50.3706 13.9884 49.7347C13.7945 48.8855 13.9448 47.9941 14.4064 47.2554C14.868 46.5166 15.6033 45.9908 16.4516 45.7929ZM19.1783 47.3626L18.7326 47.0758C18.7108 47.0617 18.6864 47.052 18.6609 47.0475C18.6353 47.0429 18.6091 47.0436 18.5838 47.0494C18.5585 47.0552 18.5346 47.066 18.5136 47.0812C18.4925 47.0964 18.4747 47.1156 18.4613 47.1378L16.7171 49.9053L15.5369 49.1591C15.5151 49.145 15.4907 49.1354 15.4652 49.1308C15.4396 49.1263 15.4134 49.1269 15.3881 49.1327C15.3628 49.1385 15.3389 49.1493 15.3178 49.1645C15.2968 49.1797 15.279 49.199 15.2655 49.2212L14.9845 49.6669C14.9704 49.6887 14.9608 49.713 14.9562 49.7386C14.9517 49.7642 14.9523 49.7904 14.9581 49.8157C14.9639 49.841 14.9747 49.8649 14.9899 49.8859C15.0051 49.907 15.0244 49.9247 15.0466 49.9382L16.8373 51.0681C16.8591 51.0825 16.8836 51.0924 16.9094 51.0971C16.9351 51.1018 16.9616 51.1013 16.9871 51.0955C17.0127 51.0897 17.0368 51.0787 17.058 51.0634C17.0792 51.048 17.0971 51.0285 17.1105 51.006L19.2423 47.6281C19.2565 47.6065 19.2663 47.5822 19.271 47.5567C19.2756 47.5312 19.2752 47.5051 19.2696 47.4798C19.264 47.4545 19.2533 47.4306 19.2383 47.4094C19.2233 47.3883 19.2043 47.3704 19.1822 47.3568L19.1783 47.3626Z" fill="#3ACC6C"/>
<path opacity="0.7" d="M120.643 25.002C119.838 25.002 119.052 25.2406 118.382 25.6878C117.713 26.135 117.191 26.7706 116.883 27.5143C116.575 28.2579 116.495 29.0762 116.652 29.8657C116.809 30.6552 117.196 31.3803 117.766 31.9495C118.335 32.5186 119.06 32.9063 119.849 33.0633C120.639 33.2203 121.457 33.1397 122.201 32.8317C122.944 32.5237 123.58 32.002 124.027 31.3328C124.474 30.6635 124.713 29.8766 124.713 29.0717C124.713 27.9924 124.284 26.9572 123.521 26.194C122.758 25.4307 121.723 25.002 120.643 25.002ZM120.643 25.7907C121.295 25.7907 121.932 25.9839 122.474 26.3459C123.016 26.708 123.438 27.2225 123.687 27.8245C123.937 28.4265 124.002 29.0889 123.875 29.728C123.748 30.3671 123.434 30.9541 122.973 31.4149C122.512 31.8757 121.925 32.1894 121.286 32.3166C120.647 32.4437 119.985 32.3784 119.383 32.1291C118.781 31.8797 118.266 31.4574 117.904 30.9157C117.542 30.3739 117.349 29.7369 117.349 29.0853C117.349 28.2115 117.696 27.3735 118.314 26.7557C118.932 26.1378 119.77 25.7907 120.643 25.7907ZM122.948 27.9322L122.577 27.5582C122.559 27.5394 122.538 27.5245 122.514 27.5143C122.49 27.5041 122.464 27.4988 122.438 27.4988C122.412 27.4988 122.386 27.5041 122.362 27.5143C122.338 27.5245 122.316 27.5394 122.298 27.5582L119.973 29.8624L118.99 28.8721C118.972 28.8534 118.951 28.8384 118.927 28.8282C118.903 28.8181 118.877 28.8128 118.851 28.8128C118.825 28.8128 118.799 28.8181 118.775 28.8282C118.751 28.8384 118.729 28.8534 118.711 28.8721L118.341 29.2461C118.322 29.2642 118.307 29.2859 118.297 29.3099C118.287 29.3338 118.282 29.3596 118.282 29.3857C118.282 29.4117 118.287 29.4375 118.297 29.4615C118.307 29.4855 118.322 29.5071 118.341 29.5252L119.833 31.0291C119.851 31.0478 119.873 31.0628 119.897 31.0729C119.921 31.0831 119.947 31.0884 119.973 31.0884C119.999 31.0884 120.025 31.0831 120.049 31.0729C120.073 31.0628 120.094 31.0478 120.112 31.0291L122.948 28.2151C122.966 28.1971 122.981 28.1754 122.992 28.1514C123.002 28.1274 123.007 28.1016 123.007 28.0756C123.007 28.0495 123.002 28.0238 122.992 27.9998C122.981 27.9758 122.966 27.9541 122.948 27.9361V27.9322Z" fill="#3ACC6C"/>
<path opacity="0.7" d="M167.335 45.1011C166.533 45.0388 165.73 45.2158 165.029 45.6096C164.327 46.0035 163.758 46.5965 163.393 47.3137C163.028 48.031 162.884 48.8403 162.979 49.6394C163.074 50.4384 163.404 51.1914 163.927 51.803C164.45 52.4147 165.142 52.8577 165.917 53.0759C166.691 53.2941 167.513 53.2778 168.278 53.0291C169.044 52.7804 169.718 52.3104 170.216 51.6785C170.715 51.0466 171.014 50.2812 171.078 49.479C171.12 48.9457 171.056 48.4094 170.891 47.9007C170.726 47.392 170.462 46.9208 170.114 46.5142C169.766 46.1076 169.342 45.7735 168.865 45.5311C168.389 45.2886 167.869 45.1425 167.335 45.1011ZM167.273 45.886C167.924 45.9348 168.545 46.1757 169.058 46.578C169.572 46.9802 169.954 47.5259 170.157 48.1457C170.36 48.7656 170.375 49.4317 170.199 50.0598C170.023 50.6879 169.665 51.2496 169.169 51.6739C168.674 52.0981 168.064 52.3657 167.416 52.4428C166.768 52.5198 166.112 52.4029 165.531 52.1069C164.95 51.8108 164.47 51.3489 164.151 50.7796C163.833 50.2104 163.69 49.5594 163.742 48.9092C163.775 48.4788 163.893 48.059 164.088 47.6741C164.284 47.2891 164.553 46.9464 164.881 46.6656C165.209 46.3849 165.589 46.1715 166 46.0377C166.41 45.9039 166.843 45.8523 167.273 45.886ZM169.405 48.1999L169.064 47.7987C169.048 47.7787 169.027 47.7621 169.004 47.7501C168.981 47.738 168.956 47.7307 168.93 47.7285C168.905 47.7263 168.879 47.7294 168.854 47.7375C168.829 47.7455 168.806 47.7585 168.787 47.7755L166.293 49.8937L165.39 48.8298C165.373 48.8094 165.353 48.7926 165.33 48.7804C165.306 48.7681 165.281 48.7607 165.255 48.7585C165.229 48.7564 165.203 48.7595 165.178 48.7677C165.153 48.776 165.13 48.7892 165.111 48.8065L164.709 49.1476C164.689 49.1642 164.673 49.1846 164.661 49.2076C164.649 49.2306 164.642 49.2558 164.64 49.2816C164.638 49.3075 164.641 49.3335 164.65 49.358C164.658 49.3826 164.671 49.4053 164.688 49.4247L166.058 51.0391C166.075 51.0591 166.095 51.0757 166.118 51.0877C166.141 51.0998 166.166 51.1071 166.192 51.1093C166.218 51.1115 166.244 51.1084 166.268 51.1004C166.293 51.0923 166.316 51.0794 166.335 51.0623L169.382 48.477C169.402 48.4606 169.418 48.4403 169.431 48.4173C169.443 48.3944 169.45 48.3692 169.452 48.3434C169.454 48.3176 169.451 48.2915 169.443 48.2669C169.435 48.2422 169.422 48.2195 169.405 48.1999Z" fill="#3ACC6C"/>
</g>
<defs>
<linearGradient id="paint0_linear" x1="142.473" y1="111.481" x2="142.473" y2="56.7057" gradientUnits="userSpaceOnUse">
<stop stop-color="#808080" stop-opacity="0.25"/>
<stop offset="0.54" stop-color="#808080" stop-opacity="0.12"/>
<stop offset="1" stop-color="#808080" stop-opacity="0.1"/>
</linearGradient>
<clipPath id="clip0">
<rect width="204.651" height="150" fill="white"/>
</clipPath>
</defs>
</svg>
