<svg width="266" height="150" viewBox="0 0 266 150" fill="none" xmlns="http://www.w3.org/2000/svg">
<g clip-path="url(#clip0)">
<path d="M202.151 125.748C236.778 125.748 264.956 97.5701 264.956 62.9435C264.956 28.3169 236.786 0.139005 202.151 0.139005C202.151 0.139005 181.548 -0.562995 166.553 10.0323C153.362 18.3747 132.694 44.063 132.694 44.063C133.323 44.063 162.937 35.0268 183.989 27.215C194.38 23.3621 204.641 23.8437 204.951 23.8682C225.252 25.3049 241.325 42.2835 241.325 62.9435C241.325 84.5422 223.75 102.117 202.151 102.117V125.748Z" fill="url(#paint0_linear)"/>
<path d="M201.972 125.683C201.988 125.683 202.005 125.683 202.021 125.683C202.021 125.683 222.444 127.601 242.9 111.341C271.502 84.0036 267.437 53.1891 258.303 34.3493C249.659 16.53 235.039 9.461 235.039 9.461C234.77 9.461 268.564 30.3333 251.92 71.4655C245.382 85.4974 228.811 93.7336 220.036 97.7905C210.208 102.337 199.792 101.978 199.49 101.954C193.115 101.537 183.655 99.6925 179.198 95.6519L178.61 95.1213L177.957 94.6723C170.839 89.7747 157.558 75.4082 143.29 57.1725L139.739 52.634H139.445C130.09 40.7735 117.716 25.558 101.284 12.0731C87.8398 0.481933 65.9798 0.106445 63.2616 0.106445C63.2453 0.106445 63.229 0.106445 63.2126 0.106445L63.229 11.9262L63.2126 23.7296C69.3347 23.754 80.9422 25.509 86.0358 30.121L86.6235 30.6516L87.2765 31.1006C94.7863 36.2676 109.324 52.1769 124.311 71.6533L127.862 76.2653H128.262C137.992 88.4278 152.824 105.798 163.941 113.708C177.394 125.307 199.245 125.683 201.972 125.683Z" fill="url(#paint1_linear)"/>
<path d="M63.2372 125.748V102.116C41.6385 102.116 24.064 84.542 24.064 62.9433C24.064 41.3445 41.6385 23.7701 63.2372 23.7701C63.2372 23.7701 69.1961 23.7211 77.6446 25.925C79.4893 26.4066 87.5134 29.484 99.7575 43.3281C115.275 58.3231 135.715 80.4198 154.285 91.6844C183.712 109.528 205.213 101.7 205.213 101.7C205.213 101.7 195.581 102.704 184.977 99.1942C176.308 94.7618 164.913 84.3624 152.759 68.9021C137.47 48.0952 106.533 14.4237 96.1741 8.39953C79.8893 -1.1591 62.6903 0.138787 62.5352 0.138787C28.227 0.514275 0.432739 28.5453 0.432739 62.9433C0.432739 97.5698 28.6025 125.748 63.2372 125.748Z" fill="url(#paint2_linear)"/>
<path d="M63.2615 125.683C63.6206 125.683 64.3308 125.675 65.3022 125.634C71.661 125.381 89.6354 123.765 101.292 113.708C113.422 105.08 143.289 68.6086 143.289 68.6086C157.558 50.3729 170.839 35.9982 177.957 31.1087L178.61 30.6598L179.198 30.1292C184.536 25.2968 196.797 23.7377 201.939 23.7377C201.955 23.7377 201.964 23.7377 201.98 23.7377L202.021 0.106445C202.004 0.106445 201.988 0.106445 201.972 0.106445C199.254 0.106445 177.394 0.481933 163.941 12.0731C152.824 19.9828 137.992 37.3532 128.262 49.5158L124.311 54.1278C109.324 73.596 94.7862 89.5135 87.2764 94.6805L86.6234 95.1295L86.0357 95.66C80.6972 100.492 68.4367 102.051 63.2941 102.051C63.2778 102.051 63.2696 102.051 63.2533 102.051C63.2533 102.051 34.6182 100.656 21.2313 83.8403C-5.73859 40.5612 21.9986 15.6076 21.9986 15.6076C22.0067 15.6076 8.77485 25.8356 3.11804 44.7324C-2.70203 64.1843 -3.04487 92.7214 28.7492 116.026C44.0054 126.858 63.2533 125.683 63.2615 125.683Z" fill="url(#paint3_linear)"/>
<path d="M204.951 23.8682C205.588 23.9172 206.225 23.9743 206.853 24.0478V0.310378C205.302 0.196099 203.735 0.138959 202.151 0.138959C202.151 0.138959 181.549 -0.807924 166.554 9.78738C148.946 22.954 132.694 44.0629 132.694 44.0629C125.029 52.74 104.378 80.8771 91.4885 91.3255C75.9221 106.704 51.3602 100.28 51.3602 100.28C51.6051 100.28 75.5956 112.908 113.944 86.787C144.669 66.6902 171.288 31.933 183.981 27.2231C194.38 23.3621 204.641 23.8437 204.951 23.8682Z" fill="url(#paint4_linear)"/>
</g>
<g clip-path="url(#clip1)">
<path d="M74.5017 134.785C74.2023 134.785 73.9096 134.874 73.6607 135.04C73.4117 135.207 73.2177 135.443 73.1031 135.72C72.9886 135.997 72.9586 136.302 73.017 136.595C73.0754 136.889 73.2196 137.159 73.4313 137.371C73.643 137.583 73.9127 137.727 74.2063 137.786C74.5 137.844 74.8043 137.814 75.0809 137.699C75.3575 137.585 75.5939 137.391 75.7603 137.141C75.9266 136.892 76.0154 136.599 76.0154 136.3C76.0154 135.898 75.8559 135.513 75.572 135.229C75.2881 134.945 74.9031 134.785 74.5017 134.785ZM74.5017 137.232C74.3174 137.232 74.1373 137.177 73.9841 137.075C73.8309 136.973 73.7115 136.827 73.641 136.657C73.5705 136.486 73.552 136.299 73.588 136.118C73.6239 135.937 73.7127 135.771 73.8429 135.641C73.9732 135.51 74.1392 135.422 74.3199 135.386C74.5006 135.35 74.6879 135.368 74.8581 135.439C75.0284 135.509 75.1739 135.629 75.2762 135.782C75.3786 135.935 75.4332 136.116 75.4332 136.3V136.3C75.4332 136.547 75.3351 136.784 75.1604 136.959C74.9857 137.134 74.7487 137.232 74.5017 137.232Z" fill="#E4E4E4"/>
<path d="M68.6796 133.62H74.5017V139.386C74.5017 139.587 74.4218 139.78 74.2796 139.922C74.1374 140.065 73.9444 140.145 73.7433 140.145H69.438C69.2369 140.145 69.0439 140.065 68.9017 139.922C68.7595 139.78 68.6796 139.587 68.6796 139.386V133.62Z" fill="#E4E4E4"/>
<path d="M88.1051 140.277H0.595742C0.563289 140.273 0.533292 140.258 0.511502 140.234C0.489711 140.209 0.477661 140.178 0.477661 140.145C0.477661 140.112 0.489711 140.081 0.511502 140.057C0.533292 140.032 0.563289 140.017 0.595742 140.013H88.1051C88.1375 140.017 88.1675 140.032 88.1893 140.057C88.2111 140.081 88.2232 140.112 88.2232 140.145C88.2232 140.178 88.2111 140.209 88.1893 140.234C88.1675 140.258 88.1375 140.273 88.1051 140.277Z" fill="#CACACA"/>
<path d="M12.2569 137.787L11.7157 140.465L21.78 143.828L22.5789 139.876L12.2569 137.787Z" fill="#FFB6B6"/>
<path d="M13.2687 137.28L12.2028 142.554L12.2027 142.554C12.0225 143.445 11.4958 144.228 10.7386 144.731C9.98133 145.234 9.05553 145.415 8.1648 145.235L8.05566 145.213L9.80099 136.578L13.2687 137.28Z" fill="#2F2E41"/>
<path d="M23.662 100.9C27.4361 100.9 30.4957 97.8385 30.4957 94.0619C30.4957 90.2852 27.4361 87.2236 23.662 87.2236C19.8878 87.2236 16.8282 90.2852 16.8282 94.0619C16.8282 97.8385 19.8878 100.9 23.662 100.9Z" fill="#FEB8B8"/>
<path d="M30.0446 88.1624C29.0229 86.5023 27.4237 85.2789 25.5546 84.728L24.7157 85.3406V84.5451C24.2668 84.4764 23.8125 84.4499 23.3587 84.466L22.6349 85.1213V84.5205C21.5633 84.6537 20.5308 85.0077 19.6027 85.5601C18.6746 86.1126 17.8709 86.8514 17.2424 87.7302C15.6705 89.9977 15.4052 93.1523 16.9512 95.438C17.3756 94.1328 17.8907 92.9082 18.3152 91.6032C18.6487 91.6487 18.9868 91.6504 19.3208 91.6081L19.8371 90.4025L19.9813 91.5571C21.5818 91.4176 23.9555 91.1112 25.4727 90.8306L25.3251 89.9448L26.2078 90.6808C26.6726 90.5738 26.9486 90.4766 26.9258 90.4024C28.0542 92.2227 29.4352 93.3853 30.5634 95.2057C30.992 92.6389 31.4852 90.5047 30.0446 88.1624Z" fill="#2F2E41"/>
<path d="M25.8854 138.81C35.6033 138.81 43.4812 136.605 43.4812 133.885C43.4812 131.165 35.6033 128.96 25.8854 128.96C16.1676 128.96 8.28967 131.165 8.28967 133.885C8.28967 136.605 16.1676 138.81 25.8854 138.81Z" fill="#2F2E41"/>
<path d="M38.3592 111.647C38.1242 110.233 37.8818 108.791 37.2248 107.516C36.7929 106.681 36.1074 105.886 35.1834 105.721C35.0013 105.705 34.8225 105.663 34.6518 105.598C34.3811 105.467 30.7425 103.389 30.1642 103.027C29.6677 102.716 28.8838 102.141 28.4886 102.141C28.091 102.132 26.5663 102.487 20.6155 102.021C19.6145 102.424 18.6452 102.9 17.7158 103.448C17.6966 103.435 11.5394 106.744 11.3081 106.735C10.87 106.717 10.4628 106.998 10.2117 107.351C9.96058 107.705 9.8428 108.142 9.71948 108.565C11.0643 111.562 12.2948 114.563 13.6398 117.56C13.7027 117.673 13.7362 117.8 13.737 117.929C13.71 118.063 13.6528 118.189 13.5697 118.298C12.9102 119.358 12.9311 120.692 13.0032 121.938C13.0753 123.184 13.1645 124.5 12.6079 125.617C12.4566 125.924 12.2597 126.204 12.1158 126.511C11.7786 127.205 11.6568 129.427 11.8537 130.173L36.525 130.88C35.9945 129.421 38.3592 111.647 38.3592 111.647Z" fill="#EDE04B"/>
<path d="M7.58706 117.692C7.53783 118.049 7.53287 118.41 7.5723 118.767L7.9259 123.849C7.9591 124.328 7.99177 124.806 8.0367 125.283C8.12154 126.211 8.24828 127.13 8.40558 128.049C8.40913 128.179 8.46424 128.303 8.55882 128.393C8.65339 128.482 8.7797 128.531 8.91003 128.528C10.4666 128.857 12.0748 128.844 13.6634 128.754C16.0875 128.619 22.2892 128.363 22.6681 127.87C23.047 127.378 22.8262 126.581 22.3321 126.183C21.8381 125.785 13.654 124.814 13.654 124.814C13.734 124.18 13.9752 123.582 14.204 122.98C14.6151 121.912 14.999 120.809 15.0064 119.666C15.0137 118.522 14.5831 117.319 13.6466 116.664C12.8763 116.126 11.8846 116.026 10.9459 116.048C10.2629 116.068 9.08288 115.904 8.45907 116.171C7.96543 116.389 7.67928 117.209 7.58706 117.692Z" fill="#FBBEBE"/>
<path d="M38.4031 129.179C38.8128 129.023 39.2644 129.08 39.7036 129.139C41.1175 129.332 42.5522 129.53 43.8627 130.095C44.4779 130.359 45.0637 130.711 45.4796 131.229C45.8485 131.696 46.064 132.267 46.2683 132.83L46.7409 134.125C46.9418 134.612 47.0803 135.122 47.1531 135.643C47.3008 137.194 46.2413 138.655 44.9087 139.461C43.5761 140.266 42.0073 140.553 40.479 140.853C38.9506 141.153 37.4163 141.486 35.8943 141.838C35.1843 142.022 34.464 142.164 33.7372 142.263C32.1081 142.447 30.4051 142.175 28.8572 142.715C28.2419 142.93 27.6377 143.25 26.9996 143.399C26.5754 143.489 26.1465 143.554 25.7149 143.595L22.7852 143.93C22.1894 144.01 21.5897 144.056 20.9887 144.068C19.7091 144.068 18.4503 143.765 17.2077 143.461C17.0756 143.438 16.95 143.387 16.8388 143.313C16.642 143.157 16.5989 142.883 16.5706 142.634C16.445 141.533 16.3353 140.431 16.2412 139.328C16.2117 138.97 16.1896 138.582 16.3852 138.28C16.6313 137.911 17.1112 137.795 17.5493 137.724C19.4068 137.42 21.2885 137.289 23.1701 137.333C23.885 136.618 25.0638 136.614 26.0003 136.225C26.3448 136.067 26.6782 135.886 26.9982 135.682C28.6732 134.704 30.5451 134.113 32.4775 133.95C32.8559 133.938 33.2319 133.885 33.5985 133.79C34.3231 133.564 34.984 132.951 35.7284 133.101C35.8206 132.847 35.8846 132.505 36.0973 132.331C36.2027 132.241 36.3335 132.181 36.4307 132.084C36.6363 131.876 36.6547 131.549 36.6239 131.258C36.593 130.968 36.5241 130.67 36.5992 130.386C36.6305 130.279 36.6764 130.177 36.7358 130.082C37.1037 129.445 37.6611 129.118 38.4031 129.179Z" fill="#2F2E41"/>
<path d="M9.64844 108.656C9.52859 108.782 9.43566 108.93 9.37533 109.093C8.38071 111.336 7.79323 113.739 7.64039 116.188C7.64308 116.307 7.61557 116.426 7.56042 116.531C7.50604 116.602 7.44551 116.667 7.37954 116.727C7.32202 116.795 7.2785 116.874 7.25145 116.959C7.22441 117.044 7.21437 117.134 7.22192 117.223C7.22946 117.312 7.25444 117.399 7.29542 117.478C7.3364 117.557 7.39259 117.628 7.46078 117.685C7.47196 117.694 7.48344 117.704 7.49521 117.712C7.69823 117.33 8.18423 117.205 8.61622 117.172C10.6846 117.008 12.705 117.971 14.7796 117.898C14.6332 117.392 14.4227 116.906 14.3034 116.394C13.7755 114.119 15.0921 111.643 14.2849 109.453C14.1237 109.015 13.8542 108.584 13.4298 108.392C13.254 108.321 13.0701 108.272 12.8822 108.246C12.358 108.152 11.3145 107.747 10.8077 107.909C10.6206 107.97 10.5468 108.146 10.3917 108.252C10.1562 108.402 9.84368 108.458 9.64844 108.656Z" fill="#EDE04B"/>
<path d="M38.3741 116.171C37.7503 115.904 36.5702 116.068 35.8873 116.048C34.9486 116.026 33.9568 116.126 33.1865 116.664C32.2501 117.319 31.8194 118.522 31.8268 119.666C31.8342 120.809 32.2181 121.912 32.6291 122.98C32.858 123.582 33.0992 124.179 33.1791 124.814C33.1791 124.814 24.9951 125.785 24.501 126.183C24.007 126.581 23.7862 127.378 24.1651 127.87C24.544 128.363 36.3666 128.857 37.9231 128.528C38.0535 128.531 38.1798 128.482 38.2743 128.393C38.3689 128.303 38.424 128.179 38.4276 128.049C38.5849 127.13 38.7116 126.21 38.7965 125.283C38.8414 124.806 38.8741 124.328 38.9073 123.849L39.2609 118.767C39.3003 118.41 39.2953 118.049 39.2461 117.692C39.1539 117.209 38.8677 116.389 38.3741 116.171Z" fill="#FBBEBE"/>
<path d="M36.4413 108.252C36.2863 108.146 36.2125 107.97 36.0254 107.909C35.5186 107.747 34.4751 108.152 33.9508 108.246C33.763 108.272 33.5791 108.321 33.4033 108.392C32.9788 108.584 32.7094 109.015 32.5482 109.453C31.741 111.643 33.0576 114.119 32.5297 116.394C32.4104 116.906 32.1998 117.392 32.0535 117.898C34.128 117.971 36.1485 117.008 38.2169 117.172C38.6488 117.205 39.1349 117.33 39.3379 117.712C39.3496 117.704 39.3611 117.694 39.3723 117.685C39.4405 117.628 39.4967 117.557 39.5377 117.478C39.5786 117.399 39.6036 117.312 39.6112 117.223C39.6187 117.134 39.6087 117.044 39.5816 116.959C39.5546 116.874 39.5111 116.795 39.4535 116.727C39.3876 116.667 39.327 116.602 39.2727 116.531C39.2175 116.426 39.19 116.307 39.1927 116.188C39.0399 113.739 38.4524 111.336 37.4577 109.093C37.3974 108.93 37.3045 108.782 37.1846 108.656C36.9894 108.458 36.6769 108.402 36.4413 108.252Z" fill="#EDE04B"/>
<path d="M39.9012 141.609L39.5416 144.317L28.9312 144.218L29.4621 140.221L39.9012 141.609Z" fill="#FFB6B6"/>
<path d="M42.6164 141.267L41.4565 150L41.3462 149.985C40.4453 149.865 39.6289 149.392 39.0766 148.67C38.5243 147.948 38.2812 147.036 38.4008 146.135L38.4008 146.134L39.1093 140.801L42.6164 141.267Z" fill="#2F2E41"/>
<path d="M14.9392 130.55C14.9392 130.673 14.746 130.55 14.7284 130.418C14.5931 129.422 13.803 128.601 12.8826 128.202C11.9623 127.803 10.9138 127.782 9.9172 127.877C8.40992 128.019 6.71793 128.597 6.16671 130.007C6.03628 130.336 4.81449 133.271 4.93372 133.931C5.25491 135.692 6.45826 137.197 7.9164 138.24C9.37455 139.283 11.0783 139.906 12.7778 140.468C17.2711 141.951 21.8811 143.053 26.5591 143.762C27.3171 143.877 28.0825 143.982 28.8084 144.226C29.458 144.444 30.0659 144.77 30.7009 145.027C32.1775 145.62 33.7661 145.832 35.3398 146.04C35.608 146.075 35.9156 146.099 36.1138 145.917C36.3697 145.68 36.285 145.265 36.2122 144.924C35.9451 143.628 36.1692 142.278 36.841 141.137C37.1045 140.694 37.447 140.239 37.3972 139.726C37.3382 139.128 36.7426 138.704 36.1495 138.608C35.5563 138.512 34.9535 138.654 34.3577 138.731C34.1536 138.778 33.9397 138.757 33.7487 138.671C33.6602 138.611 33.5799 138.54 33.51 138.459C33.0997 138.063 32.5746 137.807 32.01 137.729C31.4455 137.65 30.8704 137.752 30.3673 138.02C30.1471 138.143 29.814 137.868 29.5848 137.765L26.9971 136.593C24.0242 135.247 21.0367 133.895 17.8915 133.043C17.6406 132.994 17.4021 132.894 17.1901 132.751C17.0339 132.628 16.9219 132.461 16.7779 132.324C16.4641 132.027 16.027 131.909 15.6508 131.698C15.2747 131.488 14.853 130.972 14.9392 130.55Z" fill="#2F2E41"/>
<path d="M21.638 128.77C22.6566 128.77 23.4824 127.944 23.4824 126.925C23.4824 125.905 22.6566 125.079 21.638 125.079C20.6194 125.079 19.7936 125.905 19.7936 126.925C19.7936 127.944 20.6194 128.77 21.638 128.77Z" fill="#FBBEBE"/>
<path d="M25.7221 128.77C26.7407 128.77 27.5665 127.944 27.5665 126.925C27.5665 125.905 26.7407 125.079 25.7221 125.079C24.7035 125.079 23.8777 125.905 23.8777 126.925C23.8777 127.944 24.7035 128.77 25.7221 128.77Z" fill="#FBBEBE"/>
<path d="M37.1073 131.083H11.7678C11.4719 131.083 11.1883 130.965 10.9791 130.756C10.7699 130.547 10.6522 130.263 10.6519 129.967V114.584C10.6522 114.288 10.7699 114.004 10.9791 113.795C11.1883 113.585 11.4719 113.468 11.7678 113.467H37.1073C37.4031 113.468 37.6868 113.585 37.896 113.795C38.1052 114.004 38.2228 114.288 38.2232 114.584V129.967C38.2228 130.263 38.1052 130.547 37.896 130.756C37.6868 130.965 37.4031 131.083 37.1073 131.083Z" fill="#3F3D56"/>
<path d="M24.376 123.014C24.7837 123.014 25.1143 122.683 25.1143 122.275C25.1143 121.867 24.7837 121.537 24.376 121.537C23.9682 121.537 23.6377 121.867 23.6377 122.275C23.6377 122.683 23.9682 123.014 24.376 123.014Z" fill="white"/>
<path d="M114.836 100.356H81.9136C81.739 100.355 81.5715 100.286 81.448 100.162C81.3246 100.039 81.2551 99.8713 81.2549 99.6965V93.4872H81.5184V99.6965C81.5185 99.8014 81.5602 99.9019 81.6343 99.976C81.7084 100.05 81.8088 100.092 81.9136 100.092H114.836C114.94 100.092 115.041 100.05 115.115 99.976C115.189 99.9019 115.231 99.8014 115.231 99.6965V93.4438H115.494V99.6965C115.494 99.8713 115.425 100.039 115.301 100.162C115.178 100.286 115.01 100.355 114.836 100.356Z" fill="#3F3D56"/>
<path d="M126.77 93.3555H49.4071V93.6191H126.77V93.3555Z" fill="#3F3D56"/>
<path d="M49.4126 95.7343C50.6642 95.7343 51.6789 94.719 51.6789 93.4665C51.6789 92.214 50.6642 91.1987 49.4126 91.1987C48.161 91.1987 47.1464 92.214 47.1464 93.4665C47.1464 94.719 48.161 95.7343 49.4126 95.7343Z" fill="#EDE04B"/>
<path d="M72.4422 95.7343C73.6938 95.7343 74.7084 94.719 74.7084 93.4665C74.7084 92.214 73.6938 91.1987 72.4422 91.1987C71.1905 91.1987 70.1759 92.214 70.1759 93.4665C70.1759 94.719 71.1905 95.7343 72.4422 95.7343Z" fill="#EDE04B"/>
<path d="M88.0713 102.4C89.3229 102.4 90.3376 101.384 90.3376 100.132C90.3376 98.8796 89.3229 97.8643 88.0713 97.8643C86.8197 97.8643 85.8051 98.8796 85.8051 100.132C85.8051 101.384 86.8197 102.4 88.0713 102.4Z" fill="#3F3D56"/>
<path d="M99.9529 102.4C101.205 102.4 102.219 101.384 102.219 100.132C102.219 98.8796 101.205 97.8643 99.9529 97.8643C98.7013 97.8643 97.6866 98.8796 97.6866 100.132C97.6866 101.384 98.7013 102.4 99.9529 102.4Z" fill="#CCCCCC"/>
<path d="M94.1952 95.7343C95.4468 95.7343 96.4615 94.719 96.4615 93.4665C96.4615 92.214 95.4468 91.1987 94.1952 91.1987C92.9436 91.1987 91.929 92.214 91.929 93.4665C91.929 94.719 92.9436 95.7343 94.1952 95.7343Z" fill="#EDE04B"/>
<path d="M126.459 95.7343C127.711 95.7343 128.726 94.719 128.726 93.4665C128.726 92.214 127.711 91.1987 126.459 91.1987C125.208 91.1987 124.193 92.214 124.193 93.4665C124.193 94.719 125.208 95.7343 126.459 95.7343Z" fill="#EDE04B"/>
<path d="M115.362 95.7343C116.614 95.7343 117.629 94.719 117.629 93.4665C117.629 92.214 116.614 91.1987 115.362 91.1987C114.111 91.1987 113.096 92.214 113.096 93.4665C113.096 94.719 114.111 95.7343 115.362 95.7343Z" fill="#EDE04B"/>
<path d="M90.1224 72.6113H85.9189V75.5103H90.1224V72.6113Z" fill="#3F3D56"/>
<path d="M51.531 72.6113H47.3275V75.5103H51.531V72.6113Z" fill="#EDE04B"/>
<path d="M65.7689 72.6113H61.5654V75.5103H65.7689V72.6113Z" fill="#CCCCCC"/>
<path d="M56.4403 93.6188C56.4054 93.6188 56.3719 93.6049 56.3472 93.5802C56.3225 93.5555 56.3086 93.522 56.3086 93.487V86.9795C56.3088 86.8047 56.3783 86.6372 56.5018 86.5136C56.6252 86.39 56.7927 86.3205 56.9673 86.3203H63.3799C63.4149 86.3203 63.4484 86.3342 63.4731 86.3589C63.4978 86.3837 63.5117 86.4172 63.5117 86.4521C63.5117 86.4871 63.4978 86.5206 63.4731 86.5454C63.4484 86.5701 63.4149 86.584 63.3799 86.584H56.9673C56.8625 86.5841 56.7621 86.6258 56.688 86.6999C56.6139 86.7741 56.5722 86.8746 56.5721 86.9795V93.487C56.5721 93.522 56.5582 93.5555 56.5335 93.5802C56.5088 93.6049 56.4753 93.6188 56.4403 93.6188Z" fill="#3F3D56"/>
<path d="M63.6812 88.6708C64.9328 88.6708 65.9474 87.6555 65.9474 86.403C65.9474 85.1506 64.9328 84.1353 63.6812 84.1353C62.4296 84.1353 61.4149 85.1506 61.4149 86.403C61.4149 87.6555 62.4296 88.6708 63.6812 88.6708Z" fill="#E6E6E6"/>
<path d="M107.162 93.487H106.898V86.9795C106.899 86.8047 106.968 86.6372 107.091 86.5136C107.215 86.39 107.382 86.3205 107.557 86.3203H113.97V86.584H107.557C107.452 86.5841 107.352 86.6258 107.278 86.6999C107.204 86.7741 107.162 86.8746 107.162 86.9795V93.487Z" fill="#3F3D56"/>
<path d="M114.271 88.6708C115.523 88.6708 116.537 87.6555 116.537 86.403C116.537 85.1506 115.523 84.1353 114.271 84.1353C113.019 84.1353 112.005 85.1506 112.005 86.403C112.005 87.6555 113.019 88.6708 114.271 88.6708Z" fill="#E6E6E6"/>
</g>
<defs>
<linearGradient id="paint0_linear" x1="132.694" y1="62.9375" x2="264.953" y2="62.9375" gradientUnits="userSpaceOnUse">
<stop stop-color="#7F52DD"/>
<stop offset="1" stop-color="#4A25AA"/>
</linearGradient>
<linearGradient id="paint1_linear" x1="63.2148" y1="62.9298" x2="265.085" y2="62.9298" gradientUnits="userSpaceOnUse">
<stop stop-color="#4A25AA"/>
<stop offset="1" stop-color="#7F52DD"/>
</linearGradient>
<linearGradient id="paint2_linear" x1="0.430454" y1="62.9136" x2="205.209" y2="62.9136" gradientUnits="userSpaceOnUse">
<stop stop-color="#4A25AA"/>
<stop offset="1" stop-color="#7F52DD"/>
</linearGradient>
<linearGradient id="paint3_linear" x1="0.0814789" y1="62.9139" x2="202.02" y2="62.9139" gradientUnits="userSpaceOnUse">
<stop stop-color="#7F52DD"/>
<stop offset="1" stop-color="#4A25AA"/>
</linearGradient>
<linearGradient id="paint4_linear" x1="260.034" y1="46.9227" x2="140.05" y2="51.5022" gradientUnits="userSpaceOnUse">
<stop stop-color="#F39200"/>
<stop offset="0.0001" stop-color="#4A25AA"/>
<stop offset="1" stop-color="#7F52DD"/>
</linearGradient>
<clipPath id="clip0">
<rect width="265.127" height="125.789" fill="white"/>
</clipPath>
<clipPath id="clip1">
<rect width="128.503" height="77.3885" fill="white" transform="translate(0.477661 72.6113)"/>
</clipPath>
</defs>
</svg>
