<svg width="30" height="32" viewBox="0 0 30 32" fill="none" xmlns="http://www.w3.org/2000/svg">
<g clip-path="url(#clip0)">
<path d="M2.13596 23.7023L3.30948 24.3799L16.3829 1.73664L15.2094 1.05908L2.13596 23.7023Z" fill="#E535AB"/>
<path d="M28.0142 21.8936H1.86722V23.2487H28.0142V21.8936Z" fill="#E535AB"/>
<path d="M2.38458 22.655L15.463 30.2061L16.1405 29.0325L3.06213 21.4815L2.38458 22.655Z" fill="#E535AB"/>
<path d="M13.7457 2.97535L26.8241 10.5264L27.5017 9.35285L14.4233 1.80183L13.7457 2.97535Z" fill="#E535AB"/>
<path d="M2.38821 9.34797L3.06577 10.5215L16.1441 2.97046L15.4666 1.79694L2.38821 9.34797Z" fill="#E535AB"/>
<path d="M13.5095 1.73761L26.583 24.3809L27.7565 23.7033L14.683 1.06006L13.5095 1.73761Z" fill="#E535AB"/>
<path d="M4.25906 8.44922H2.90396V23.5513H4.25906V8.44922Z" fill="#E535AB"/>
<path d="M26.9856 8.44922H25.6305V23.5513H26.9856V8.44922Z" fill="#E535AB"/>
<path d="M14.6404 28.6078L15.2323 29.6328L26.6069 23.0655L26.0151 22.0404L14.6404 28.6078Z" fill="#E535AB"/>
<path d="M28.7815 23.9921C27.9978 25.3553 26.2509 25.8206 24.8876 25.037C23.5243 24.2533 23.059 22.5063 23.8427 21.1431C24.6264 19.7798 26.3733 19.3145 27.7366 20.0982C29.108 20.89 29.5733 22.6288 28.7815 23.9921Z" fill="#E535AB"/>
<path d="M6.03864 10.8573C5.25497 12.2206 3.50803 12.6859 2.14476 11.9022C0.781498 11.1185 0.316192 9.37158 1.09987 8.00832C1.88354 6.64505 3.63048 6.17975 4.99374 6.96342C6.35701 7.75526 6.82231 9.49403 6.03864 10.8573Z" fill="#E535AB"/>
<path d="M1.10807 23.9921C0.324401 22.6288 0.789707 20.89 2.15297 20.0982C3.51624 19.3145 5.25501 19.7798 6.04685 21.1431C6.83052 22.5063 6.36522 24.2451 5.00195 25.037C3.63052 25.8206 1.89175 25.3553 1.10807 23.9921Z" fill="#E535AB"/>
<path d="M23.8509 10.8573C23.0672 9.49403 23.5325 7.75526 24.8958 6.96342C26.2591 6.17975 27.9978 6.64505 28.7897 8.00832C29.5734 9.37158 29.108 11.1104 27.7448 11.9022C26.3815 12.6859 24.6346 12.2206 23.8509 10.8573Z" fill="#E535AB"/>
<path d="M14.9448 31.9841C13.3693 31.9841 12.0958 30.7106 12.0958 29.1351C12.0958 27.5596 13.3693 26.2861 14.9448 26.2861C16.5203 26.2861 17.7938 27.5596 17.7938 29.1351C17.7938 30.7025 16.5203 31.9841 14.9448 31.9841Z" fill="#E535AB"/>
<path d="M14.9448 5.71456C13.3693 5.71456 12.0958 4.44109 12.0958 2.86558C12.0958 1.29007 13.3693 0.0166016 14.9448 0.0166016C16.5203 0.0166016 17.7938 1.29007 17.7938 2.86558C17.7938 4.44109 16.5203 5.71456 14.9448 5.71456Z" fill="#E535AB"/>
</g>
<defs>
<clipPath id="clip0">
<rect width="28.5714" height="32" fill="white" transform="translate(0.659058)"/>
</clipPath>
</defs>
</svg>
