<svg width="29" height="32" viewBox="0 0 29 32" fill="none" xmlns="http://www.w3.org/2000/svg">
<path d="M26.9411 10.7122C27.8169 8.59005 27.8169 4.27847 26.6717 0.977418C26.3685 0.371102 25.459 0.573208 25.4254 1.21321V1.449C25.2233 4.61531 24.078 6.33321 22.3601 7.17531C22.0906 7.31005 21.6527 7.31005 21.3496 7.10794C19.3285 5.82794 16.9033 5.08689 14.3096 5.08689C11.7159 5.08689 9.32431 5.86163 7.26957 7.10794C7.0001 7.27637 6.66326 7.31005 6.39378 7.17531C4.6422 6.53531 3.42957 4.61531 3.22747 1.41531V1.17952C3.22747 0.539523 2.28431 0.337418 2.01483 0.943734C0.869571 4.31215 0.903256 8.62373 1.74536 10.7122C2.18326 11.7564 2.18326 12.9353 1.81273 14.0132C1.34115 15.3606 1.10536 16.8764 1.13905 18.3922C1.30747 25.3311 7.2022 31.2595 14.1748 31.3606C21.518 31.4953 27.4801 25.6006 27.4801 18.2237C27.4801 16.7416 27.2443 15.3606 26.8064 14.0469C26.4696 12.969 26.5033 11.7564 26.9411 10.7122ZM14.1411 28.2616C8.81905 28.1269 4.40641 23.7816 4.33905 18.4258C4.20431 12.7332 8.85273 8.08479 14.5117 8.21952C19.8675 8.28689 24.2464 12.6995 24.3475 18.0553C24.4485 23.7143 19.8338 28.329 14.1411 28.2616Z" fill="#001934"/>
<path d="M15.8591 17.1457L13.5012 13.5078C13.1306 12.9015 12.3559 12.733 11.7496 13.1036C11.3791 13.3394 11.1433 13.7436 11.1433 14.1815C11.1433 14.4173 11.2106 14.653 11.3454 14.8552L12.9285 17.3478C13.0633 17.5499 12.9959 17.7857 12.8948 17.9541L10.4022 20.6825C9.93064 21.1878 9.96432 21.9962 10.4696 22.4678C10.7054 22.6699 11.0422 22.7709 11.3454 22.7709C11.7159 22.7709 12.0191 22.6025 12.2548 22.3667L14.1075 20.2109C14.2759 20.0425 14.5117 20.0425 14.6127 20.2446L15.9264 22.1309C15.9938 22.2994 16.1285 22.4004 16.297 22.5015C16.7348 22.8046 17.3075 22.8046 17.7454 22.5352C18.1159 22.2994 18.3517 21.8952 18.3517 21.4573C18.3517 21.2215 18.2843 20.9857 18.1496 20.7836L15.8591 17.1457Z" fill="#001934"/>
</svg>
