<svg width="625" height="344" viewBox="0 0 625 344" fill="none" xmlns="http://www.w3.org/2000/svg">
<g clip-path="url(#clip0)">
<path d="M622.365 0.280106H128.449V316.761H622.365V0.280106Z" fill="#E6E6E6"/>
<path d="M350.434 42.7782H172.123V226.092H350.434V42.7782Z" fill="white"/>
<path d="M595.435 46.3332H417.125V268.979H595.435V46.3332Z" fill="white"/>
<path d="M622.154 -7.62939e-05H128.237V20.9936H622.154V-7.62939e-05Z" fill="#A0A09F"/>
<path d="M143.831 14.6241C145.979 14.6241 147.72 12.882 147.72 10.733C147.72 8.58409 145.979 6.84203 143.831 6.84203C141.683 6.84203 139.942 8.58409 139.942 10.733C139.942 12.882 141.683 14.6241 143.831 14.6241Z" fill="#EDE04B"/>
<path d="M158.592 14.6241C160.74 14.6241 162.481 12.882 162.481 10.733C162.481 8.58409 160.74 6.84203 158.592 6.84203C156.444 6.84203 154.703 8.58409 154.703 10.733C154.703 12.882 156.444 14.6241 158.592 14.6241Z" fill="#E6E6E6"/>
<path d="M173.355 14.6241C175.503 14.6241 177.244 12.882 177.244 10.733C177.244 8.58409 175.503 6.84203 173.355 6.84203C171.207 6.84203 169.466 8.58409 169.466 10.733C169.466 12.882 171.207 14.6241 173.355 14.6241Z" fill="#EDE04B"/>
<path d="M556.123 106.054H555.043V76.4496C555.043 74.1995 554.6 71.9714 553.739 69.8926C552.878 67.8138 551.617 65.9249 550.027 64.3338C548.436 62.7428 546.548 61.4806 544.471 60.6196C542.393 59.7585 540.166 59.3153 537.917 59.3153H475.226C472.977 59.3153 470.75 59.7585 468.672 60.6196C466.595 61.4806 464.707 62.7428 463.116 64.3338C461.526 65.9249 460.264 67.8138 459.404 69.8926C458.543 71.9714 458.1 74.1995 458.1 76.4496V238.863C458.1 241.113 458.543 243.341 459.404 245.42C460.264 247.498 461.526 249.387 463.116 250.978C464.707 252.569 466.595 253.832 468.672 254.693C470.75 255.554 472.977 255.997 475.226 255.997H537.917C540.166 255.997 542.393 255.554 544.471 254.693C546.548 253.832 548.436 252.569 550.027 250.978C551.617 249.387 552.878 247.498 553.739 245.42C554.6 243.341 555.043 241.113 555.043 238.863V127.127H556.123V106.054Z" fill="#3F3D56"/>
<path d="M537.905 63.7732H529.722C530.098 64.6963 530.242 65.6978 530.14 66.6895C530.038 67.6812 529.695 68.6326 529.139 69.4601C528.583 70.2875 527.832 70.9654 526.953 71.4342C526.074 71.903 525.092 72.1483 524.096 72.1484H488.181C487.185 72.1483 486.204 71.903 485.325 71.4342C484.445 70.9654 483.695 70.2874 483.139 69.46C482.583 68.6326 482.239 67.6812 482.137 66.6895C482.036 65.6978 482.179 64.6963 482.556 63.7732H474.913C473.233 63.7732 471.57 64.1041 470.018 64.7472C468.467 65.3902 467.057 66.3328 465.869 67.521C464.681 68.7091 463.739 70.1197 463.097 71.6722C462.454 73.2246 462.123 74.8885 462.123 76.5689V238.743C462.123 240.424 462.454 242.088 463.097 243.64C463.739 245.193 464.681 246.603 465.869 247.791C467.057 248.98 468.467 249.922 470.018 250.565C471.57 251.208 473.233 251.539 474.913 251.539H537.905C539.585 251.539 541.248 251.208 542.799 250.565C544.351 249.922 545.761 248.98 546.949 247.791C548.136 246.603 549.078 245.193 549.721 243.64C550.364 242.088 550.695 240.424 550.695 238.743V76.5689C550.695 73.1752 549.347 69.9206 546.949 67.5209C544.55 65.1213 541.297 63.7732 537.905 63.7732Z" fill="white"/>
<path d="M323.369 158.574H199.434V164.23H323.369V158.574Z" fill="#E6E6E6"/>
<path d="M323.369 176.835H199.434V182.491H323.369V176.835Z" fill="#A0A09F"/>
<path d="M323.369 195.096H199.434V200.752H323.369V195.096Z" fill="#E6E6E6"/>
<path d="M543.287 170.914H470.935V176.57H543.287V170.914Z" fill="#E6E6E6"/>
<path d="M543.287 188.473H470.935V194.129H543.287V188.473Z" fill="#E6E6E6"/>
<path d="M543.287 206.032H470.935V211.688H543.287V206.032Z" fill="#E6E6E6"/>
<path d="M550.852 293.858V281.793H538.793V293.858H550.852Z" fill="#3F3D56"/>
<path d="M531.424 293.858V281.793H519.365V293.858H531.424Z" fill="#EDE04B"/>
<path d="M511.996 293.858V281.793H499.938V293.858H511.996Z" fill="#3F3D56"/>
<path d="M492.568 293.858V281.793H480.51V293.858H492.568Z" fill="#3F3D56"/>
<path d="M473.141 293.858V281.793H461.082V293.858H473.141Z" fill="#3F3D56"/>
<path d="M526.507 97.6201H486.311V137.835H526.507V97.6201Z" fill="#EDE04B"/>
<path d="M245.426 193.563L244.905 194.604L243.345 186.796C243.345 186.796 241.263 178.468 245.426 178.468C249.588 178.468 248.547 186.796 248.547 186.796V192.522L245.426 193.563Z" fill="#A0616A"/>
<path d="M313.691 192.497L314.211 193.538L315.772 185.73C315.772 185.73 317.853 177.402 313.691 177.402C309.528 177.402 310.569 185.73 310.569 185.73V191.456L313.691 192.497Z" fill="#A0616A"/>
<path d="M268.319 252.102L262.076 290.622L265.197 328.1L272.481 324.978L271.44 296.868L278.724 274.485L280.285 301.032L277.164 328.621L286.529 329.662L293.293 272.924L292.772 253.664L268.319 252.102Z" fill="#2F2E41"/>
<path d="M268.319 323.416L264.677 329.142V341.936C264.677 342.304 264.808 342.661 265.047 342.942C265.286 343.222 265.616 343.409 265.98 343.467C267.765 343.76 270.873 343.969 271.961 342.155C273.522 339.552 272.481 333.827 272.481 333.827C272.481 333.827 274.562 329.662 273.522 326.539C272.481 323.416 271.441 322.895 271.441 322.895L268.319 323.416Z" fill="#2F2E41"/>
<path d="M283.927 328.621L284.968 330.183C284.968 330.183 286.529 331.744 285.488 332.785C284.724 333.595 284.028 334.465 283.407 335.388C283.407 335.388 277.684 336.95 277.684 334.868V328.101L283.927 328.621Z" fill="#2F2E41"/>
<path d="M282.052 209.736C285.861 209.736 288.949 206.647 288.949 202.836C288.949 199.025 285.861 195.936 282.052 195.936C278.243 195.936 275.156 199.025 275.156 202.836C275.156 206.647 278.243 209.736 282.052 209.736Z" fill="#A0616A"/>
<path d="M277.423 204.993L276.903 214.884L286.268 215.404L285.748 205.514L277.423 204.993Z" fill="#A0616A"/>
<path d="M287.569 215.664L286.092 212.055C286.092 212.055 279.244 209.418 277.163 212.021L276.123 215.144L267.798 213.062L263.115 223.473L267.278 253.143C267.278 253.143 278.204 267.198 292.772 253.664L296.934 225.555L293.812 214.623L287.569 215.664Z" fill="#575A89"/>
<path d="M292.772 216.706L293.813 214.623L304.218 208.377L310.569 189.57L315.483 191.677L309.941 214.103L294.853 228.157L292.772 216.706Z" fill="#575A89"/>
<path d="M268.839 214.103L267.798 213.062L256.872 206.295L249.068 190.679L242.825 192.76L249.588 212.02L266.238 225.555L268.839 214.103Z" fill="#575A89"/>
<path d="M287.171 192.269L288.298 191.705L286.607 191.141V190.577C286.607 190.577 278.15 187.192 277.022 192.833C275.567 194.79 274.781 197.164 274.781 199.602C274.781 202.041 275.567 204.415 277.022 206.371V208.064L286.043 209.192L287.171 205.807C287.171 205.807 292.809 195.654 287.171 192.269Z" fill="#2F2E41"/>
<path d="M80.7938 252.713L78.7893 253.716C78.7893 253.716 70.7712 257.393 73.1098 259.398C75.4484 261.404 81.7961 257.393 81.7961 257.393L83.1324 255.722L80.7938 252.713Z" fill="#FFB8B8"/>
<path d="M139.442 252.214L133.246 293.826L123.891 322.906L118.88 320.566L123.557 280.791L110.194 269.426L111.196 252.713L139.442 252.214Z" fill="#2F2E41"/>
<path d="M118.212 321.569C118.212 321.569 123.892 318.561 124.226 322.906L123.558 327.251C123.558 327.251 125.562 334.939 118.88 333.268C112.199 331.597 116.876 326.583 116.876 326.583L118.212 321.569Z" fill="#2F2E41"/>
<path d="M114.537 265.749L110.194 269.426C110.194 269.426 110.194 292.155 113.2 295.497C116.207 298.84 135.25 315.887 135.918 316.555C136.587 317.224 139.593 309.87 139.593 309.87L121.553 288.812L122.889 275.776L114.537 265.749Z" fill="#2F2E41"/>
<path d="M137.589 308.868C137.589 308.868 142.935 307.865 142.935 311.542C143.001 314.448 143.224 317.349 143.603 320.232C143.603 320.232 144.939 331.931 140.596 330.26C136.253 328.588 134.583 316.89 134.583 316.89C134.987 315.917 135.688 315.098 136.587 314.55C137.923 313.881 137.589 308.868 137.589 308.868Z" fill="#2F2E41"/>
<path d="M120.885 202.575L121.887 214.943L119.214 219.622L111.864 212.603L111.196 203.244L120.885 202.575Z" fill="#FFB8B8"/>
<path d="M114.871 206.586C119.3 206.586 122.889 202.995 122.889 198.564C122.889 194.134 119.3 190.542 114.871 190.542C110.443 190.542 106.853 194.134 106.853 198.564C106.853 202.995 110.443 206.586 114.871 206.586Z" fill="#FFB8B8"/>
<path d="M118.212 214.609L121.553 204.915L127.566 211.6L138.592 254.05L130.239 259.064L126.565 253.716L125.896 260.735L109.526 257.392L108.19 212.603L111.528 207.898L118.212 214.609Z" fill="#D0CDE1"/>
<path d="M113.535 262.072L111.531 207.924L107.187 211.266L99.1691 216.614L104.515 235.667L106.185 255.722L113.535 262.072Z" fill="#2F2E41"/>
<path d="M101.507 216.948L99.1683 216.614L92.4866 236.335L79.1231 253.048L84.1348 258.395L99.5024 243.354L105.182 230.987L101.507 216.948Z" fill="#2F2E41"/>
<path d="M137.993 253.019L137.537 255.214C137.537 255.214 135.452 263.789 138.474 263.196C141.497 262.602 142.285 255.133 142.285 255.133L141.802 253.047L137.993 253.019Z" fill="#FFB8B8"/>
<path d="M121.03 204.373L137.589 210.932L135.585 230.987L139.594 253.048L135.585 257.393L120.761 207.214L121.03 204.373Z" fill="#2F2E41"/>
<path d="M115.291 185.091L117.644 183.914V185.091L119.213 184.306V186.269C119.213 186.269 125.097 190.586 123.921 195.688C122.744 200.789 122.744 201.182 122.744 201.182C122.744 201.182 121.256 191.479 115.372 193.049C109.488 194.619 109.015 194.903 107.446 199.22L107.02 201.071C107.02 201.071 100.385 185.876 115.291 185.091Z" fill="#2F2E41"/>
<path d="M135.25 210.932H137.923L142.266 234.329V254.719L136.921 253.716L132.578 222.965L135.25 210.932Z" fill="#2F2E41"/>
<path d="M100.988 260.412H2.4814V328.899H100.988V260.412Z" fill="#A0A09F"/>
<path d="M51.7345 273.776C47.6068 273.776 43.5718 275 40.1398 277.295C36.7077 279.589 34.0327 282.85 32.4531 286.665C30.8735 290.481 30.4602 294.679 31.2655 298.729C32.0708 302.78 34.0585 306.5 36.9772 309.42C39.8959 312.341 43.6146 314.329 47.663 315.135C51.7114 315.941 55.9076 315.527 59.7211 313.947C63.5346 312.366 66.7941 309.69 69.0873 306.256C71.3806 302.823 72.6046 298.786 72.6046 294.656C72.5884 289.123 70.3844 283.822 66.474 279.909C62.5636 275.997 57.2646 273.792 51.7345 273.776ZM51.7345 280.04C52.9728 280.04 54.1833 280.407 55.213 281.095C56.2426 281.784 57.0451 282.762 57.519 283.907C57.9928 285.051 58.1168 286.311 57.8752 287.526C57.6337 288.741 57.0374 289.857 56.1617 290.733C55.2861 291.609 54.1705 292.206 52.956 292.448C51.7415 292.689 50.4826 292.565 49.3385 292.091C48.1945 291.617 47.2167 290.814 46.5287 289.784C45.8407 288.754 45.4735 287.543 45.4735 286.304C45.4791 284.644 46.1405 283.054 47.3134 281.881C48.4864 280.707 50.0757 280.045 51.7345 280.04ZM51.7345 310.196C49.2612 310.184 46.8279 309.569 44.6459 308.404C42.4638 307.239 40.5987 305.559 39.2125 303.51C39.3128 299.334 47.5605 297.035 51.7345 297.035C55.9085 297.035 64.1562 299.334 64.2565 303.51C62.8687 305.558 61.0034 307.237 58.8216 308.402C56.6399 309.566 54.2075 310.182 51.7345 310.196Z" fill="white"/>
<path d="M323.055 63.8488H199.501V134.786H323.055V63.8488Z" fill="#E6E6E6"/>
<path d="M567.365 204.548L567.938 200.854C567.938 200.854 571.274 193.265 568.637 192.856C566 192.447 563.8 199.672 563.8 199.672L564.765 207.388L567.365 204.548Z" fill="#FFB8B8"/>
<path d="M594.37 225.491L570.796 220.753L568.057 203.575L561.117 203.039L561.456 225.249L581.939 235.993L594.37 225.491Z" fill="#575A89"/>
<path opacity="0.2" d="M594.37 225.491L570.796 220.753L568.057 203.575L561.117 203.039L561.456 225.249L581.939 235.993L594.37 225.491Z" fill="black"/>
<path d="M530.237 200.005H602.588V194.349H530.237V200.005Z" fill="#A0A09F"/>
<path d="M562.759 203.282L562.764 199.544C562.764 199.544 564.909 191.535 562.24 191.532C559.571 191.529 558.494 199.004 558.494 199.004L560.62 206.484L562.759 203.282Z" fill="#FFB8B8"/>
<path d="M593.446 213.989L596.68 213.2C597.915 213.202 599.134 212.929 600.25 212.401C601.366 211.873 602.35 211.104 603.132 210.149C603.915 209.193 604.475 208.076 604.772 206.878C605.07 205.679 605.097 204.43 604.853 203.219C604.855 201.789 604.575 200.373 604.03 199.051C603.484 197.729 602.684 196.528 601.675 195.515C600.665 194.503 599.467 193.699 598.147 193.15C596.827 192.601 595.412 192.318 593.983 192.316C592.553 192.314 591.138 192.594 589.816 193.14C588.495 193.685 587.294 194.486 586.282 195.496C585.27 196.506 584.467 197.705 583.919 199.026C583.37 200.346 583.087 201.762 583.085 203.192C582.666 204.648 582.638 206.189 583.002 207.661C583.366 209.132 584.109 210.482 585.158 211.575C586.208 212.668 587.525 213.467 588.98 213.89C590.434 214.314 591.974 214.348 593.446 213.989Z" fill="#2F2E41"/>
<path d="M574.422 267.918L577.055 296.761L581.823 325.072L589.83 325.082L588.797 297.309L584.569 263.658L574.422 267.918Z" fill="#2F2E41"/>
<path d="M582.893 323.471L577.551 326.669C577.551 326.669 569.009 327.726 570.607 330.398C572.205 333.071 590.89 331.492 590.891 330.424C590.892 329.356 590.366 323.48 589.298 323.479L582.893 323.471Z" fill="#2F2E41"/>
<path d="M598.058 265.426C598.058 265.426 597.907 269.55 594.163 275.954L594.672 295.715L613.858 320.306L606.911 326.171L583.457 299.439L577.626 267.388L585.108 259.921L598.058 265.426Z" fill="#2F2E41"/>
<path d="M612.256 320.304C612.256 320.304 618.661 321.38 617.59 324.049C616.519 326.718 613.834 338.998 606.897 337.387C606.897 337.387 603.694 337.383 604.764 335.248C605.408 333.964 606.122 332.717 606.904 331.512L606.913 324.569L612.256 320.304Z" fill="#2F2E41"/>
<path d="M589.979 214.532C594.401 214.532 597.986 210.945 597.986 206.521C597.986 202.096 594.401 198.51 589.979 198.51C585.557 198.51 581.972 202.096 581.972 206.521C581.972 210.945 585.557 214.532 589.979 214.532Z" fill="#FFB8B8"/>
<path d="M593.709 211.866L593.697 220.945L585.157 220.934L586.236 211.857L593.709 211.866Z" fill="#FFB8B8"/>
<path d="M583.026 217.727L585.614 217.091L593.702 217.741C593.702 217.741 597.967 222.018 597.432 223.086C596.897 224.153 594.195 250.319 594.195 250.319L598.975 269.017L581.893 270.064L573.353 268.985L574.997 235.341C574.997 235.341 571.272 226.257 576.079 223.593C578.794 222.168 581.165 220.166 583.026 217.727Z" fill="#575A89"/>
<path d="M592.631 219.876L568.612 218.777L563.295 202.215L556.355 202.74L560.063 224.641L581.94 232.146L592.631 219.876Z" fill="#575A89"/>
<path d="M605.435 200.619C608.289 200.619 610.601 198.305 610.601 195.45C610.601 192.596 608.289 190.282 605.435 190.282C602.582 190.282 600.269 192.596 600.269 195.45C600.269 198.305 602.582 200.619 605.435 200.619Z" fill="#2F2E41"/>
<path d="M600.669 192.672C600.669 191.907 600.84 191.152 601.167 190.462C601.495 189.771 601.971 189.161 602.563 188.677C603.154 188.193 603.846 187.846 604.587 187.662C605.329 187.478 606.102 187.46 606.851 187.611C606.19 187.299 605.471 187.13 604.74 187.117C604.009 187.104 603.283 187.246 602.611 187.534C601.939 187.822 601.336 188.25 600.842 188.788C600.347 189.327 599.973 189.965 599.743 190.659C599.514 191.353 599.434 192.089 599.509 192.816C599.585 193.544 599.814 194.247 600.182 194.879C600.549 195.511 601.047 196.058 601.641 196.484C602.236 196.91 602.914 197.204 603.631 197.348C602.744 196.93 601.995 196.268 601.471 195.44C600.946 194.612 600.668 193.652 600.669 192.672Z" fill="#2F2E41"/>
<path d="M596.237 195.603L589.273 194.32L583.917 197.678C582.6 198.504 581.548 199.69 580.884 201.096C580.221 202.502 579.975 204.069 580.174 205.611L585.539 204.251L586.74 201.238L588.17 203.584L593.974 213.735L599.85 210.538L603.594 204.668L596.237 195.603Z" fill="#2F2E41"/>
<path d="M199.852 63.2398L199.153 64.4579L322.706 135.395L323.405 134.177L199.852 63.2398Z" fill="white"/>
<path d="M322.709 63.2447L199.15 134.173L199.849 135.391L323.408 64.4628L322.709 63.2447Z" fill="white"/>
<path d="M487.119 97.0651L486.127 98.0583L526.141 138.092L527.134 137.099L487.119 97.0651Z" fill="white"/>
<path d="M526.141 97.0652L486.127 137.099L487.119 138.092L527.134 98.0584L526.141 97.0652Z" fill="white"/>
</g>
<defs>
<clipPath id="clip0">
<rect width="625" height="343.661" fill="white"/>
</clipPath>
</defs>
</svg>
