<svg width="120" height="88" viewBox="0 0 120 88" fill="none" xmlns="http://www.w3.org/2000/svg">
<g clip-path="url(#clip0)">
<path opacity="0.1" d="M116.797 19.5943C112.003 11.9181 103.923 6.52025 95.1858 5.14836C87.3017 3.91155 78.9954 5.97044 72.4642 10.6897L73.9036 9.55317C68.759 12.9143 62.0758 12.6948 56.2231 10.9451C50.3705 9.19543 44.9948 6.07491 39.2909 3.85879C34.5137 2.00338 29.5123 0.787354 24.4165 0.242283C17.1486 -0.538638 9.02918 0.406909 3.96903 5.84908C-1.66943 11.9097 -1.23676 22.8394 4.86286 28.405C7.96438 31.2353 12.0273 32.6262 15.5699 34.8328C19.1125 37.0395 22.3924 40.7119 22.0906 44.9763C21.8109 48.9242 18.5638 51.9519 15.2037 53.8514C12.6056 55.3214 9.40697 56.9255 9.09355 59.9721C8.79068 62.9164 11.4806 65.2233 14.0535 66.5361C22.4325 70.8153 32.7554 70.7742 41.1028 66.4305C44.0809 64.8803 46.8183 62.8172 49.941 61.6089C58.1406 58.4356 67.1761 61.63 75.8591 62.7982C83.2328 63.7855 90.7299 63.2758 97.9021 61.2997C102.202 60.1135 106.519 58.3005 109.539 54.9236C111.71 52.4795 113.07 49.4012 114.348 46.3588C115.707 43.1127 117.013 39.8437 118.266 36.5519C119.018 34.5753 119.758 32.5608 119.955 30.447C120.301 26.6142 118.817 22.8257 116.797 19.5943ZM32.3238 20.1357H24.637C24.4254 20.1357 24.2225 20.0516 24.0729 19.902C23.9233 19.7524 23.8392 19.5495 23.8392 19.3379C23.8392 19.1263 23.9233 18.9234 24.0729 18.7738C24.2225 18.6241 24.4254 18.5401 24.637 18.5401H27.2753C27.2171 18.4469 27.1789 18.3427 27.1631 18.234C27.1473 18.1252 27.1541 18.0144 27.1833 17.9085C27.2125 17.8026 27.2633 17.7039 27.3325 17.6186C27.4017 17.5333 27.4879 17.4633 27.5855 17.413H26.7212C26.5097 17.413 26.3067 17.329 26.1571 17.1794C26.0075 17.0297 25.9234 16.8268 25.9234 16.6152C25.9234 16.4036 26.0075 16.2007 26.1571 16.0511C26.3067 15.9015 26.5097 15.8174 26.7212 15.8174H34.407C34.586 15.8165 34.7601 15.8759 34.9013 15.9859C35.0425 16.096 35.1426 16.2503 35.1855 16.4241C35.2284 16.598 35.2116 16.7812 35.1377 16.9442C35.0639 17.1073 34.9373 17.2409 34.7784 17.3233H35.6438C35.8554 17.3233 36.0583 17.4074 36.2079 17.557C36.3575 17.7066 36.4416 17.9095 36.4416 18.1211C36.4416 18.3327 36.3575 18.5357 36.2079 18.6853C36.0583 18.8349 35.8554 18.9189 35.6438 18.9189H33.0055C33.0852 19.0453 33.1273 19.1917 33.1269 19.3411C33.1255 19.5528 33.0402 19.7554 32.8896 19.9044C32.7391 20.0534 32.5356 20.1365 32.3238 20.1357ZM44.9958 31.515H42.3576C42.433 31.6355 42.4748 31.7741 42.4785 31.9163C42.4822 32.0585 42.4478 32.1991 42.3787 32.3235C42.3096 32.4478 42.2085 32.5514 42.0858 32.6234C41.9631 32.6953 41.8234 32.7331 41.6811 32.7328H33.9954C33.7838 32.7328 33.5809 32.6487 33.4313 32.4991C33.2817 32.3495 33.1976 32.1466 33.1976 31.935C33.1976 31.7234 33.2817 31.5205 33.4313 31.3708C33.5809 31.2212 33.7838 31.1372 33.9954 31.1372H36.6336C36.5755 31.0439 36.5374 30.9396 36.5216 30.8309C36.5059 30.7221 36.5129 30.6113 36.5421 30.5054C36.5714 30.3995 36.6223 30.3008 36.6916 30.2155C36.761 30.1303 36.8472 30.0603 36.945 30.0101H36.0796C35.868 30.0101 35.6651 29.9261 35.5155 29.7764C35.3659 29.6268 35.2818 29.4239 35.2818 29.2123C35.2818 29.0007 35.3659 28.7978 35.5155 28.6482C35.6651 28.4986 35.868 28.4145 36.0796 28.4145H43.7654C43.9441 28.4141 44.1179 28.4738 44.2587 28.584C44.3994 28.6943 44.499 28.8487 44.5414 29.0224C44.5838 29.1961 44.5665 29.379 44.4924 29.5417C44.4182 29.7044 44.2915 29.8374 44.1326 29.9194H44.9969C45.2085 29.9194 45.4114 30.0034 45.561 30.153C45.7106 30.3026 45.7947 30.5056 45.7947 30.7172C45.7947 30.9288 45.7106 31.1317 45.561 31.2813C45.4114 31.4309 45.2085 31.515 44.9969 31.515H44.9958ZM56.5661 22.9734L56.6906 23.1676C56.4277 23.1982 56.1613 23.1715 55.9097 23.0895C55.5234 23.0595 55.1538 22.9192 54.8449 22.6853L55.5193 22.5724C55.5108 22.3708 55.5836 22.1038 55.7841 21.7492L56.2337 22.4531L57.4388 22.2526C57.2194 22.5682 56.9175 22.8175 56.5661 22.9734ZM74.3215 31.0823L74.446 31.2765C74.1831 31.3065 73.9168 31.2798 73.6651 31.1984C73.2788 31.1684 72.9092 31.0281 72.6003 30.7942L73.2746 30.6813C73.2662 30.4797 73.339 30.2127 73.5395 29.8582L73.9891 30.562L75.1942 30.3615C74.9748 30.6771 74.6729 30.9264 74.3215 31.0823ZM88.3179 24.4086L88.4424 24.6028C88.1795 24.6334 87.9131 24.6067 87.6615 24.5247C87.2735 24.4938 86.9027 24.3516 86.5935 24.1152L87.2679 24.0023C87.2594 23.8007 87.3323 23.5338 87.5328 23.1792L87.9823 23.8831L89.1864 23.6826C88.9691 23.9997 88.6686 24.2509 88.3179 24.4086ZM97.7797 16.039H95.1415C95.2169 16.1596 95.2587 16.2982 95.2624 16.4404C95.2661 16.5826 95.2316 16.7232 95.1626 16.8475C95.0935 16.9719 94.9923 17.0754 94.8697 17.1474C94.747 17.2194 94.6073 17.2572 94.465 17.2568H86.7814C86.5698 17.2568 86.3669 17.1728 86.2173 17.0232C86.0676 16.8736 85.9836 16.6706 85.9836 16.459C85.9836 16.2474 86.0676 16.0445 86.2173 15.8949C86.3669 15.7453 86.5698 15.6612 86.7814 15.6612H89.4196C89.3617 15.5676 89.3239 15.4631 89.3085 15.3541C89.2931 15.2451 89.3005 15.1341 89.3303 15.0281C89.3601 14.9222 89.4115 14.8236 89.4814 14.7385C89.5513 14.6535 89.638 14.5839 89.7362 14.5342H88.8709C88.6593 14.5342 88.4564 14.4501 88.3067 14.3005C88.1571 14.1509 88.0731 13.948 88.0731 13.7364C88.0731 13.5248 88.1571 13.3219 88.3067 13.1722C88.4564 13.0226 88.6593 12.9386 88.8709 12.9386H96.5566C96.7354 12.9381 96.9092 12.9978 97.0499 13.1081C97.1907 13.2183 97.2903 13.3727 97.3327 13.5464C97.375 13.7201 97.3578 13.903 97.2836 14.0657C97.2095 14.2284 97.0828 14.3615 96.9239 14.4434H97.7797C97.9913 14.4434 98.1942 14.5275 98.3438 14.6771C98.4934 14.8267 98.5775 15.0296 98.5775 15.2412C98.5775 15.4528 98.4934 15.6557 98.3438 15.8054C98.1942 15.955 97.9913 16.039 97.7797 16.039Z" fill="#EDE04B"/>
<path opacity="0.1" d="M65.7862 87.0194C69.1508 87.0194 71.8784 86.1671 71.8784 85.1157C71.8784 84.0643 69.1508 83.2119 65.7862 83.2119C62.4215 83.2119 59.694 84.0643 59.694 85.1157C59.694 86.1671 62.4215 87.0194 65.7862 87.0194Z" fill="#EDE04B"/>
<path opacity="0.1" d="M75.0791 74.358C76.8906 74.358 78.359 73.8992 78.359 73.3333C78.359 72.7674 76.8906 72.3086 75.0791 72.3086C73.2677 72.3086 71.7993 72.7674 71.7993 73.3333C71.7993 73.8992 73.2677 74.358 75.0791 74.358Z" fill="#EDE04B"/>
<path opacity="0.1" d="M92.0325 77.2271C93.8439 77.2271 95.3124 76.7683 95.3124 76.2024C95.3124 75.6365 93.8439 75.1777 92.0325 75.1777C90.221 75.1777 88.7526 75.6365 88.7526 76.2024C88.7526 76.7683 90.221 77.2271 92.0325 77.2271Z" fill="#EDE04B"/>
<path opacity="0.1" d="M98.5658 85.8944C101.93 85.8944 104.658 85.0421 104.658 83.9907C104.658 82.9393 101.93 82.0869 98.5658 82.0869C95.2012 82.0869 92.4736 82.9393 92.4736 83.9907C92.4736 85.0421 95.2012 85.8944 98.5658 85.8944Z" fill="#EDE04B"/>
<path d="M114.605 34.1724C114.145 33.2649 113.525 35.6245 113.525 35.9042C113.525 36.0245 113.388 36.1617 113.23 36.2788C113.204 36.2989 113.178 36.3179 113.15 36.3358C113.101 36.2422 113.022 36.1678 112.925 36.1248C112.385 35.9738 111.576 36.8508 111.576 36.8508C111.576 36.8508 110.106 37.4259 109.236 37.5768C108.366 37.7277 107.617 38.3335 107.617 38.3335C107.617 38.3335 106.207 38.8485 105.698 38.5762C105.375 38.4031 104.402 38.3039 103.618 38.2459C103.609 38.229 103.602 38.2121 103.594 38.1952C103.398 37.7891 103.142 37.4145 102.835 37.084C102.57 36.8001 102.26 36.5384 102.115 36.1786C102.102 36.1469 102.092 36.1153 102.081 36.0825C102.626 35.5844 103.192 34.9333 103.203 34.3698C103.214 33.7366 102.272 33.6184 101.487 33.6311C101.286 33.6311 101.089 33.6311 100.912 33.6448C100.797 33.4678 100.659 33.3076 100.5 33.1689L100.479 33.0285L100.213 31.283C99.9117 30.7785 99.4738 30.3693 98.9499 30.1027C98.426 29.8361 97.8375 29.7229 97.2521 29.7761C97.2521 29.7761 94.9304 30.0378 94.7742 31.0667C94.6829 31.632 94.5618 32.1921 94.4112 32.7446C94.3954 32.7985 94.3827 32.8417 94.3732 32.8755C94.1537 32.9356 93.9922 32.981 93.9089 33.0106C93.0963 33.096 92.1096 33.3778 92.0505 34.2379C91.9914 35.0979 92.0505 35.8208 92.5264 36.3274C92.6056 36.4793 92.6889 36.6292 92.7533 36.7875C92.8776 37.1026 92.9228 37.4435 92.8849 37.7801C92.847 38.1168 92.7272 38.439 92.5359 38.7187C92.2088 39.1851 91.7033 39.4901 91.3076 39.8985C90.9733 40.2383 90.7576 40.6769 90.6923 41.149L90.6417 41.1564C90.3636 41.5975 90.1503 42.0762 90.0085 42.5779C89.828 43.3039 88.4192 44.8172 88.4192 44.8172C88.4192 44.8172 87.0726 46.5374 86.5028 46.7801C85.9329 47.0228 85.7229 47.2339 85.7229 47.2339L85.4222 47.4449C85.4222 47.4449 85.1826 47.808 84.943 47.9589C84.7035 48.1098 81.4606 50.5918 81.4606 50.5918C81.4606 50.5918 79.9314 51.1659 79.7214 51.6197C79.6676 51.7347 79.7436 51.9363 79.8861 52.1653L79.7415 52.2423C79.351 52.4534 78.8688 52.7003 78.4667 52.8755C78.467 52.8692 78.467 52.8628 78.4667 52.8565C78.4667 52.8565 78.225 52.3383 78.0266 51.8592C77.9918 51.7738 77.957 51.6893 77.9211 51.6091C78.1089 51.6239 78.2271 51.6366 78.2271 51.6366C78.2271 51.6366 78.1469 50.8293 78.3875 50.7923C78.6281 50.7554 78.2134 50.1064 78.2134 50.1064L78.1079 49.5017C78.1079 49.5017 78.3485 48.0085 78.1079 47.6855C77.8673 47.3626 77.5887 46.4762 77.5887 46.4762C77.5887 46.4762 77.8282 45.709 77.5887 45.4673C77.3491 45.2256 77.2288 44.4985 77.2288 44.4985C77.2288 44.4985 77.0283 42.9662 76.5091 41.9975C75.9899 41.0287 75.1087 39.1735 75.1087 39.1735L74.4291 36.9574C74.4291 36.9574 72.3903 33.2047 70.3905 31.9152C68.3907 30.6256 65.5361 30.4378 65.5361 30.4378C65.5266 30.4135 65.5161 30.3903 65.5066 30.366C65.4298 30.1714 65.3649 29.9723 65.3124 29.7697C65.3039 29.736 65.2976 29.7022 65.2902 29.6642C65.9927 29.0622 66.4555 28.2278 66.5942 27.3131C66.7329 26.3984 66.5382 25.4643 66.0458 24.6811C66.0163 24.6347 65.9857 24.5903 65.954 24.546C66.1542 24.439 66.3258 24.2855 66.4543 24.0983C66.5829 23.9112 66.6646 23.696 66.6927 23.4707C66.756 22.9156 66.0595 22.4344 65.649 22.1473C65.6079 22.1178 65.5646 22.0893 65.5213 22.0629L65.4665 22.0291L65.3926 21.9869C65.3694 21.9743 65.3451 21.9605 65.3198 21.9489L65.2638 21.9204C64.9874 21.7788 64.6806 21.7064 64.37 21.7094C63.9848 21.722 63.6155 21.874 63.2313 21.8972C62.3765 21.95 61.4964 21.3696 60.7039 21.6999C60.1214 21.9405 59.7457 22.6243 59.1209 22.6908C58.9458 22.7098 58.7695 22.675 58.5933 22.6845C58.505 22.6819 58.4175 22.7019 58.339 22.7425C58.2605 22.7831 58.1937 22.843 58.1448 22.9166C58.0751 23.0486 58.0984 23.209 58.1163 23.3578C58.1926 24.0083 58.1149 24.6677 57.8894 25.2826C57.2932 25.0621 55.438 25.8715 55.3092 26.2324C55.2111 26.511 54.5167 27.312 54.0524 27.8291L53.9342 27.9599C53.9301 27.9038 53.9387 27.8475 53.9595 27.7953L52.7987 28.5213C52.7987 28.5213 51.5998 28.7609 51.1598 29.7708C50.7197 30.7807 49.447 31.0266 49.447 31.0266L48.6482 32.3573C48.6482 32.3573 46.6484 33.2016 46.5281 35.7459C46.4078 38.2902 48.0424 38.1266 48.0424 38.1266C48.721 38.3282 51.9597 38.1266 51.9597 38.1266C51.9597 38.1266 54.5199 36.4318 54.7193 37.6824C54.9188 38.9329 55.7197 43.1277 56.3202 43.572C56.9207 44.0163 57.1993 45.5486 57.1993 45.5486C57.1993 45.5486 56.0384 47.9293 56.9196 49.2199C57.4819 50.0677 57.9507 50.9738 58.3179 51.9226L58.4456 51.9553L58.3643 52.1758L57.8789 53.476C57.8789 53.476 58.9183 54.1408 58.8782 54.4648C58.8381 54.7887 58.5986 56.1184 58.5986 56.1184C58.5986 56.1184 59.5589 57.9736 59.3985 58.2966C59.2381 58.6195 59.4164 59.2242 59.4164 59.2242C59.4164 59.2242 60.0781 63.2586 60.5973 64.3075C60.9218 64.993 61.1229 65.7304 61.1914 66.4857C61.1914 66.4857 60.7588 67.4534 60.9983 67.7763C61.2379 68.0992 61.1914 68.6638 61.1914 68.6638C61.1914 68.6638 61.1535 69.3497 61.1914 69.5524C61.2294 69.755 61.3139 70.4789 61.4331 70.6003C61.5524 70.7216 61.5946 74.0701 63.2271 77.4597V78.267C63.2271 78.267 62.8673 78.7102 63.2271 79.1112C63.3326 79.2252 63.7126 79.2094 64.2054 79.1271C64.2423 79.1978 64.2792 79.2727 64.3183 79.3508C64.5603 79.821 64.7496 80.3165 64.8829 80.8282C64.8924 80.8651 64.8998 80.9021 64.9072 80.939C64.6792 81.0445 64.5093 81.2028 64.5673 81.4487C64.7172 82.0819 64.0882 83.8696 64.0882 83.8696C64.0882 83.8696 63.4276 84.8679 63.8476 85.3217C64.2676 85.7754 67.9264 86.1089 68.0762 85.7153C68.2261 85.3217 67.6541 82.866 67.6541 82.866L67.1127 81.0308L67.0811 80.8915C66.9671 80.3955 66.7708 79.5196 66.6167 78.7714C66.6009 78.6933 66.5861 78.6174 66.5703 78.5424C67.0494 78.4042 67.3839 78.2976 67.3839 78.2976C67.3839 78.2976 66.6642 77.3288 66.8236 76.9257C66.9829 76.5226 66.3846 69.8658 66.3846 69.8658C66.3846 69.8658 66.1207 69.068 66.278 68.6248C66.4352 68.1815 65.7577 67.4956 65.7577 67.4956L66.0384 60.0325C66.0384 60.0325 67.8778 65.9622 69.9969 67.3753C69.9969 67.3753 72.6763 67.6971 73.2366 66.6883C73.2662 66.6355 73.2936 66.5828 73.32 66.5194C73.3453 66.5521 73.3696 66.5849 73.3918 66.6186C73.474 66.7398 73.5474 66.8667 73.6113 66.9985C73.6408 67.0576 73.6672 67.1157 73.6904 67.1727C73.6904 67.1727 74.2951 68.9266 74.4354 69.6832C74.5758 70.4399 76.0648 69.1081 76.5154 68.839C76.966 68.5699 76.6948 66.6914 76.0648 66.1163C75.7482 65.8324 75.6701 65.3333 75.5804 64.7529L75.5572 64.4363C75.5572 64.4363 75.5467 64.4226 75.5256 64.3993C75.4433 63.896 75.3272 63.3546 75.0454 62.847C74.7288 62.2877 74.2117 62.1716 73.7316 62.2138C73.5419 62.2307 73.3617 62.3046 73.215 62.426C73.0682 62.5473 72.9617 62.7103 72.9095 62.8934L72.8662 62.9145C72.7622 62.9138 72.6584 62.9223 72.556 62.9399C72.556 62.9399 72.556 61.9321 72.3554 61.4065C72.1549 60.881 72.4357 59.3497 72.4357 59.3497C72.4357 59.3497 72.5169 58.9466 72.2763 58.1805C72.0357 57.4143 72.1571 53.0971 72.1571 53.0971C72.0802 52.7799 71.9872 52.4667 71.8785 52.1589C71.8658 52.1241 71.8521 52.0893 71.8384 52.0534C71.858 52.0282 71.871 51.9984 71.8763 51.9669C71.9164 51.6039 71.3561 50.3533 72.0758 49.9502C72.7955 49.5471 71.7592 47.7721 71.7592 47.7721L71.5186 42.447C71.5186 42.447 70.7335 41.0118 70.8443 40.6921L72.079 42.2043C72.079 42.2043 72.9232 43.8189 72.9591 44.0606C72.995 44.3023 73.1596 44.9048 73.3991 44.8267C73.6387 44.7486 73.759 45.957 73.759 45.957C73.759 45.957 74.3985 47.3288 74.2793 47.8122C74.16 48.2955 74.4386 48.7398 74.4386 48.7398C74.4386 48.7398 75.0781 49.8288 74.999 50.233C74.9198 50.6372 75.3525 51.8297 75.3578 51.8455C75.3578 51.8455 75.3736 51.912 75.3958 52.0218C75.4675 52.3689 75.6068 53.1425 75.5636 53.4802C75.4981 53.9234 75.2881 57.0397 76.908 56.3749C77.0998 56.2953 77.2763 56.1828 77.4293 56.0424C77.505 56.1078 77.5982 56.1496 77.6974 56.1627C78.4614 56.2683 80.0897 54.5629 80.8991 53.6511L81.0121 53.5234C81.1915 53.7113 81.317 53.8326 81.317 53.8326L82.1613 53.4105C82.1613 53.4105 87.3723 51.3179 87.8821 50.4103C88.3918 49.5028 91.373 47.5357 91.373 47.5357C91.373 47.5357 91.8405 49.8046 91.5112 50.1381C91.1946 50.4546 90.2037 52.58 90.3694 53.2543C90.3756 53.2859 90.3863 53.3165 90.4011 53.3451C89.922 53.6775 90.4011 57.9441 90.4011 57.9441C90.4011 57.9441 90.5509 59.9101 90.2871 61.2377C90.2301 61.5735 90.2273 61.9162 90.2786 62.2529C90.3842 63.1362 90.7282 64.107 90.8686 64.7244C90.9245 64.9671 90.9488 65.156 90.916 65.2615C90.7662 65.7459 91.1271 67.3795 91.4859 67.6212C91.8447 67.8628 91.6062 68.8875 91.6062 68.8875C91.6062 68.8875 91.336 70.4304 91.6062 70.8841C91.6582 70.9723 91.7041 71.064 91.7434 71.1585L91.6727 71.2482C91.1756 71.8814 90.4063 73.096 90.6965 74.2031C91.1187 75.7955 92.137 76.664 92.8958 75.7353C93.6545 74.8067 93.5902 73.1625 93.5902 73.1625C93.5902 73.1625 93.5902 72.8459 93.6092 72.4703C93.6092 72.3911 93.6208 72.3099 93.6282 72.2275C93.7023 72.2329 93.7767 72.2329 93.8508 72.2275C94.484 72.1674 94.5705 71.7738 95.1699 71.5321C95.7694 71.2904 96.3097 70.2657 96.3097 70.2657L96.3403 66.9943C96.3403 66.9943 96.64 70.0547 96.8194 70.8061C96.9988 71.5574 96.6083 74.7402 96.6083 74.7402L96.3086 77.5895L96.1588 78.6174C96.2369 78.8084 96.468 78.9508 96.7803 79.0564C96.7645 79.126 96.7487 79.2009 96.7307 79.2822C96.6094 79.8521 96.4532 80.6646 96.4289 81.1385C96.3888 81.9257 97.0494 84.2052 97.1877 84.2252C97.3259 84.2453 101.107 85.3143 100.67 83.9424C100.233 82.5705 99.5304 82.4502 99.6317 81.9257C99.6972 81.5785 99.5885 80.3702 99.5062 79.5956C99.4977 79.508 99.4882 79.4278 99.4808 79.354C99.846 79.354 100.091 79.3445 100.091 79.3445L100.031 78.1636C100.031 78.1636 101.201 73.5952 101.086 72.7183C100.971 71.8413 101.473 69.8911 101.473 69.8911C101.473 69.8911 101.924 66.11 101.895 65.4884C101.867 64.8668 102.436 62.6602 102.436 62.6602C102.878 61.129 103.23 59.5733 103.491 58.0011C103.88 55.5507 102.83 53.0992 102.83 53.0992C102.83 53.0992 102.821 53.0559 102.807 52.98C102.702 52.4386 102.307 50.2214 102.83 49.3476C103.431 48.3493 103.61 46.2925 103.61 46.2925C103.61 46.2925 105.14 43.9318 104.991 43.3272C104.991 43.3272 109.909 41.7231 110.209 41.2092C110.509 40.6952 112.608 39.6083 112.608 39.6083L114.048 39.1513C114.048 39.1513 113.983 38.8253 113.876 38.3873L113.975 38.305C114.32 38.018 114.728 37.6993 114.838 37.6993C115.024 37.7045 115.064 35.08 114.605 34.1724ZM56.3603 30.9443H55.401C55.401 30.9443 55.19 31.0498 54.8829 31.2271C54.7921 31.2778 54.695 31.3326 54.5927 31.397C54.7172 30.9749 54.8407 30.5728 54.8407 30.5728L55.6005 29.774C55.6005 29.774 55.5076 29.7107 55.3673 29.603C55.4221 29.5777 55.4812 29.5502 55.5435 29.5249C55.7156 29.4447 55.9008 29.3965 56.0901 29.3825C56.4806 29.3825 57.3502 27.9599 57.3502 27.9599C57.5369 27.5546 57.7028 27.1401 57.8472 26.7178C57.9033 26.7852 57.9651 26.8477 58.0319 26.9046C58.0649 27.0124 58.1257 27.1095 58.2081 27.1864C58.3675 27.3362 58.5764 27.4502 58.6577 27.6539C58.7833 27.9641 58.5521 28.3535 58.7231 28.6427C58.799 28.7513 58.901 28.8391 59.0196 28.8981C59.2993 29.0648 59.5853 29.2199 59.8744 29.3698L60.1013 29.488V29.5165C60.096 29.8267 60.0813 30.1592 60.0507 30.4958C60.0507 30.5306 60.0433 30.5654 60.0401 30.6013C60.0401 30.6013 58.0794 29.737 57.6805 30.1001C57.2816 30.4631 56.5608 30.3818 56.5608 30.3818C56.5608 30.3818 56.7201 30.9443 56.3603 30.9443Z" fill="url(#paint0_linear)"/>
<path d="M67.1971 33.6163L62.8398 36.1754C62.8398 36.1754 57.5992 34.8162 59.0407 33.6554C59.6823 33.1393 59.9515 32.0365 60.0506 30.9707C60.0813 30.6372 60.096 30.3069 60.1013 29.9998C60.1101 29.4581 60.0897 28.9163 60.0401 28.3768C60.0401 28.3768 66.1176 27.3384 65.3578 28.8981C65.1731 29.2769 65.1878 29.7497 65.3134 30.2499C65.3659 30.4507 65.4307 30.6481 65.5076 30.8409C66.0574 32.2307 67.1971 33.6163 67.1971 33.6163Z" fill="#FFCCD0"/>
<path opacity="0.1" d="M65.3577 28.8978C65.173 29.2767 65.1878 29.7494 65.3134 30.2497C64.626 30.843 63.7479 31.169 62.8398 31.1678C61.8404 31.1678 61.4574 30.3172 60.7788 29.6903C60.726 29.6407 60.401 29.7758 60.3567 29.7241C60.3715 28.8113 60.0401 28.3797 60.0401 28.3797C60.0401 28.3797 66.1207 27.3381 65.3577 28.8978Z" fill="black"/>
<path d="M66.6389 27.2495C66.6383 28.1642 66.3078 29.048 65.708 29.7386C65.1082 30.4291 64.2793 30.8801 63.3737 31.0087C62.4681 31.1372 61.5465 30.9347 60.7782 30.4384C60.0099 29.942 59.4465 29.1851 59.1914 28.3067C58.9364 27.4283 59.0068 26.4873 59.3897 25.6567C59.7727 24.826 60.4425 24.1614 61.2761 23.785C62.1098 23.4085 63.0512 23.3454 63.9276 23.6073C64.804 23.8692 65.5565 24.4386 66.0468 25.2107C66.4339 25.8202 66.6393 26.5275 66.6389 27.2495Z" fill="#FFCCD0"/>
<path opacity="0.1" d="M66.0469 25.2101C65.9795 25.2436 65.9088 25.2698 65.8358 25.2882C65.5361 25.3642 65.2227 25.3315 64.9156 25.3019C64.8671 25.2918 64.8166 25.2981 64.7721 25.3199C64.7183 25.3547 64.7046 25.4254 64.6845 25.4887C64.6011 25.7346 64.3468 25.8781 64.102 25.9625C63.602 26.1314 63.0627 26.145 62.5549 26.0016C62.4875 25.9764 62.4157 25.9653 62.3438 25.9689C62.1782 25.9889 62.08 26.1673 62.0536 26.3319C62.0273 26.4965 62.0431 26.6717 61.9808 26.8247C61.8753 27.0928 61.5735 27.2152 61.3118 27.3334C61.05 27.4516 60.7619 27.6405 60.7493 27.9286C60.7408 28.0942 60.8284 28.2452 60.8548 28.4098C60.8747 28.5547 60.8511 28.7023 60.7871 28.8338C60.723 28.9653 60.6213 29.0748 60.4949 29.1485C60.4355 29.4468 60.3562 29.7409 60.2575 30.0286C59.8597 29.6618 59.5449 29.2143 59.334 28.716C59.1232 28.2177 59.0212 27.6801 59.0349 27.1392C59.0486 26.5983 59.1777 26.0666 59.4136 25.5797C59.6494 25.0927 59.9866 24.6617 60.4024 24.3156C60.8183 23.9695 61.3033 23.7161 61.825 23.5726C62.3467 23.4291 62.8931 23.3987 63.4275 23.4834C63.9619 23.568 64.472 23.7659 64.9238 24.0637C65.3755 24.3615 65.7584 24.7524 66.0469 25.2101Z" fill="black"/>
<path d="M65.6532 22.6981C65.2837 22.422 64.8355 22.2715 64.3742 22.2686C63.989 22.2813 63.6197 22.4311 63.2355 22.4544C62.3807 22.5071 61.5006 21.9351 60.7081 22.2591C60.1256 22.4976 59.7499 23.1751 59.1252 23.2416C58.95 23.2595 58.7737 23.2258 58.5975 23.2342C58.4213 23.2427 58.2324 23.3091 58.149 23.4643C58.0954 23.604 58.0854 23.7567 58.1205 23.9022C58.1993 24.5721 58.1112 25.2512 57.8641 25.8788C57.7448 26.1795 57.5865 26.4919 57.6425 26.8106C57.6986 27.0502 57.8368 27.2626 58.0329 27.4111C58.0662 27.5181 58.127 27.6145 58.2092 27.6907C58.3685 27.8385 58.5775 27.9514 58.6587 28.153C58.7843 28.4622 58.5532 28.8473 58.7241 29.1344C58.8002 29.242 58.9022 29.3288 59.0207 29.3866C59.3774 29.5977 59.7418 29.7946 60.114 29.9776C60.2214 29.6672 60.3078 29.3498 60.3725 29.0278C60.4989 28.9541 60.6006 28.8446 60.6646 28.7131C60.7287 28.5816 60.7523 28.434 60.7324 28.2891C60.7028 28.1266 60.6152 27.9725 60.6268 27.8079C60.6406 27.5198 60.9265 27.3298 61.1893 27.2116C61.4521 27.0934 61.7518 26.971 61.8594 26.704C61.9217 26.55 61.9048 26.3758 61.9312 26.2112C61.9576 26.0466 62.0557 25.8672 62.2214 25.8471C62.2933 25.8439 62.3651 25.8554 62.4325 25.8809C62.9404 26.0235 63.4796 26.0095 63.9795 25.8408C64.2254 25.7574 64.4797 25.6129 64.562 25.367C64.5821 25.3047 64.5958 25.2329 64.6507 25.1981C64.6948 25.1763 64.745 25.1699 64.7931 25.1802C65.1002 25.2097 65.4147 25.2414 65.7134 25.1675C65.9736 25.0922 66.2059 24.942 66.3814 24.7356C66.5568 24.5291 66.6677 24.2757 66.7001 24.0067C66.7602 23.4579 66.0616 22.9831 65.6532 22.6981Z" fill="#E3787D"/>
<path opacity="0.1" d="M65.6532 22.6984C65.5058 22.5952 65.3485 22.5068 65.1836 22.4346C65.2617 22.4789 65.3398 22.5264 65.4137 22.5781C65.8221 22.863 66.5207 23.34 66.4563 23.8898C66.4243 24.1588 66.3137 24.4123 66.1384 24.6187C65.9631 24.8252 65.7309 24.9754 65.4707 25.0506C65.171 25.1256 64.8575 25.0929 64.5505 25.0633C64.5019 25.0536 64.4516 25.0599 64.4069 25.0813C64.3521 25.1161 64.3394 25.1868 64.3183 25.2501C64.237 25.497 63.9827 25.6406 63.7368 25.7239C63.2367 25.8937 62.6969 25.9077 62.1887 25.764C62.1213 25.7387 62.0495 25.7273 61.9776 25.7303C61.812 25.7503 61.7138 25.9297 61.6874 26.0943C61.661 26.259 61.6779 26.4331 61.6157 26.5872C61.5101 26.8541 61.2073 26.9776 60.9445 27.0958C60.6817 27.214 60.3968 27.4029 60.3831 27.691C60.3746 27.8556 60.4612 28.0076 60.4886 28.1722C60.5085 28.3171 60.4849 28.4647 60.4209 28.5962C60.3568 28.7277 60.2551 28.8373 60.1287 28.9109C60.0636 29.2303 59.9776 29.5451 59.8713 29.8533C59.9515 29.8945 60.0296 29.9377 60.1098 29.9768C60.2172 29.6664 60.3036 29.3491 60.3683 29.027C60.4947 28.9533 60.5964 28.8438 60.6604 28.7123C60.7245 28.5808 60.7481 28.4332 60.7282 28.2883C60.6986 28.1258 60.611 27.9717 60.6226 27.8071C60.6364 27.519 60.9223 27.329 61.1851 27.2108C61.4479 27.0926 61.7476 26.9702 61.8552 26.7032C61.9175 26.5492 61.9006 26.375 61.927 26.2104C61.9534 26.0458 62.0515 25.8664 62.2172 25.8463C62.2891 25.8431 62.3609 25.8546 62.4283 25.8801C62.9362 26.0227 63.4754 26.0087 63.9753 25.84C64.2212 25.7566 64.4755 25.6121 64.5578 25.3662C64.5779 25.3039 64.5916 25.2322 64.6465 25.1973C64.6906 25.1755 64.7408 25.1692 64.789 25.1794C65.096 25.2089 65.4105 25.2406 65.7092 25.1667C65.9694 25.0914 66.2017 24.9412 66.3772 24.7348C66.5526 24.5284 66.6635 24.2749 66.6959 24.0059C66.7603 23.4582 66.0616 22.9833 65.6532 22.6984Z" fill="black"/>
<path d="M57.3502 28.4571C57.3502 28.4571 56.4806 29.867 56.0901 29.867C55.9009 29.8811 55.7158 29.929 55.5435 30.0084C55.3708 30.0801 55.203 30.1629 55.0412 30.2564L53.6313 28.7874C53.6313 28.7874 53.8107 28.5975 54.0534 28.3305C54.5177 27.8187 55.2142 27.024 55.3103 26.7475C55.4601 26.3254 57.9485 25.3071 58.0699 25.9972C58.1912 26.6874 57.3502 28.4571 57.3502 28.4571Z" fill="#FFCCD0"/>
<path d="M81.374 53.3719C81.374 53.3719 81.1882 53.5946 80.8959 53.9206C80.0865 54.824 78.4582 56.5135 77.6942 56.4101C76.6558 56.2697 77.214 53.5112 77.8345 53.3909C78.2113 53.3181 79.1009 52.8706 79.7446 52.5287C80.1667 52.3071 80.4738 52.1309 80.4738 52.1309L81.374 53.3719Z" fill="#CE828D"/>
<path d="M76.9048 56.6195C75.2849 57.2801 75.4949 54.1923 75.5604 53.7501C75.6089 53.4156 75.4643 52.6484 75.3926 52.3043C75.3704 52.1988 75.3546 52.1302 75.3546 52.1302L75.7651 51.0918C75.7651 51.0918 77.7701 51.1308 77.7701 51.401C77.7701 51.5118 77.8873 51.8231 78.0245 52.1524C78.2229 52.6273 78.4645 53.1412 78.4645 53.1412C78.4645 53.1412 78.5247 55.961 76.9048 56.6195Z" fill="#FFCCD0"/>
<path d="M67.1876 81.3334C67.1876 81.3334 64.6982 82.7127 64.9377 81.6933C64.9851 81.4184 64.9699 81.1363 64.8934 80.868C64.76 80.3597 64.5707 79.8678 64.3288 79.4012C64.083 78.9052 63.8582 78.5443 63.8582 78.5443C63.8582 78.5443 66.3772 76.9539 66.4078 77.5544C66.46 77.9846 66.5343 78.4119 66.6304 78.8345C66.7845 79.5795 66.9808 80.4438 67.0948 80.9356L67.1876 81.3334Z" fill="#FF748E"/>
<path opacity="0.1" d="M67.1876 81.3336C67.1876 81.3336 64.6982 82.7129 64.9377 81.6935C64.9851 81.4185 64.9699 81.1365 64.8934 80.8682C65.1779 80.7547 65.4792 80.6887 65.7851 80.673C66.1133 80.4324 66.927 80.845 67.0948 80.9357L67.1876 81.3336Z" fill="black"/>
<path d="M65.7851 80.794C65.7851 80.794 64.428 80.8541 64.5779 81.4841C64.7277 82.1141 64.0988 83.8828 64.0988 83.8828C64.0988 83.8828 63.4382 84.8727 63.8582 85.3233C64.2782 85.7739 67.9369 86.1032 68.0867 85.7127C68.2366 85.3222 67.6646 82.894 67.6646 82.894L67.1264 81.0778C67.1264 81.0778 66.1524 80.5238 65.7851 80.794Z" fill="#4D507F"/>
<path d="M75.7651 67.3969L73.8951 67.9246C73.8272 67.658 73.7321 67.3992 73.6112 67.1521C73.5474 67.0213 73.474 66.8954 73.3917 66.7753C73.0952 66.3469 72.653 66.005 72.0262 66.197C70.6543 66.6192 72.0262 63.4828 72.0262 63.4828C72.0262 63.4828 72.3976 63.3245 72.7723 63.1472L72.8599 63.104C73.1627 62.9552 73.4508 62.799 73.5215 62.7082C73.6566 62.5373 74.904 63.8859 75.3778 64.4094C75.4897 64.5328 75.5572 64.6109 75.5572 64.6109L75.6448 65.7876L75.7651 67.3969Z" fill="#FF748E"/>
<path opacity="0.1" d="M75.7651 67.3969L73.8951 67.9246C73.8272 67.658 73.7321 67.3992 73.6112 67.1521C73.6872 66.902 73.8909 66.4809 74.3858 66.5442C74.9557 66.6181 74.8755 64.6257 74.0756 64.1455C73.2757 63.6654 72.7955 63.6358 72.7955 63.6358C72.7444 63.4779 72.7364 63.3093 72.7723 63.1472L72.8599 63.104C73.1627 62.9552 73.4508 62.799 73.5215 62.7082C73.6566 62.5373 74.904 63.8859 75.3778 64.4094C75.4717 64.9265 75.5129 65.413 75.6448 65.7876L75.7651 67.3969Z" fill="black"/>
<path d="M72.9158 63.6393C72.8721 63.5044 72.8594 63.3613 72.8786 63.2208C72.8979 63.0803 72.9486 62.946 73.027 62.8278C73.1054 62.7096 73.2095 62.6106 73.3315 62.5383C73.4535 62.4659 73.5902 62.422 73.7315 62.4099C74.2117 62.3687 74.7341 62.4848 75.0454 63.0431C75.7356 64.2735 75.4348 65.714 76.0648 66.2839C76.6948 66.8537 76.965 68.7111 76.5154 68.9823C76.0659 69.2535 74.5758 70.5716 74.4354 69.8213C74.2951 69.0709 73.6904 67.3329 73.6904 67.3329C73.6904 67.3329 73.8107 66.4622 74.5051 66.5519C75.076 66.6258 74.9958 64.6334 74.1959 64.1532C73.396 63.6731 72.9158 63.6435 72.9158 63.6435V63.6393Z" fill="#4D507F"/>
<path opacity="0.1" d="M66.6304 78.8345C65.9867 79.0202 65.0559 79.2725 64.3288 79.4012C64.0829 78.9052 63.8582 78.5443 63.8582 78.5443C63.8582 78.5443 66.3772 76.9539 66.4078 77.5544C66.46 77.9846 66.5343 78.4119 66.6304 78.8345Z" fill="black"/>
<path opacity="0.1" d="M73.3917 66.7788C73.0952 66.3503 72.653 66.0084 72.0262 66.2005C70.6543 66.6226 72.0262 63.4862 72.0262 63.4862C72.0262 63.4862 72.4578 63.3026 72.8599 63.1074C73.1078 63.0905 73.5374 63.1158 73.6756 63.4493C73.8708 63.9189 73.913 65.7625 73.3917 66.7788Z" fill="black"/>
<path d="M73.2366 66.8472C72.6763 67.8465 69.9969 67.5268 69.9969 67.5268C67.8778 66.1275 66.0384 60.2452 66.0384 60.2452L65.7577 67.6439C65.7577 67.6439 66.4373 68.3225 66.278 68.7636C66.1186 69.2047 66.3983 70.0025 66.3983 70.0025C66.3983 70.0025 66.9977 76.6002 66.8373 77.0012C66.6769 77.4023 67.3977 78.3605 67.3977 78.3605C67.3977 78.3605 63.5986 79.5603 63.2377 79.1604C62.8768 78.7604 63.2377 78.3162 63.2377 78.3162V77.5152C61.5998 74.1562 61.5587 70.8373 61.4437 70.717C61.3286 70.5967 61.2442 69.8727 61.202 69.6785C61.1598 69.4844 61.202 68.7974 61.202 68.7974C61.202 68.7974 61.2484 68.2381 61.0089 67.9183C60.7693 67.5986 61.202 66.6382 61.202 66.6382C61.1334 65.889 60.9322 65.1579 60.6079 64.4791C60.0887 63.4396 59.427 59.4401 59.427 59.4401C59.427 59.4401 59.2486 58.8396 59.409 58.5209C59.5694 58.2022 58.6091 56.3618 58.6091 56.3618C58.6091 56.3618 58.8497 55.0416 58.8888 54.7218C58.9278 54.4021 57.8894 53.7415 57.8894 53.7415L58.3748 52.4529L58.8888 51.0811C58.8888 51.0811 70.8052 51.3206 71.2854 51.48C71.5175 51.557 71.7297 51.996 71.888 52.4297C71.9968 52.7346 72.0898 53.0449 72.1666 53.3594C72.1666 53.3594 72.0463 57.6376 72.2858 58.3974C72.5254 59.1572 72.4452 59.5583 72.4452 59.5583C72.4452 59.5583 72.1666 61.0779 72.365 61.5971C72.5633 62.1163 72.5655 63.1178 72.5655 63.1178C72.5655 63.1178 73.3654 62.9574 73.5648 63.4344C73.7643 63.9114 73.7949 65.8478 73.2366 66.8472Z" fill="#AACAF5"/>
<path d="M97.1886 84.2215C97.0504 84.2025 96.3898 81.942 96.4299 81.1611C96.4541 80.6915 96.6103 79.8863 96.7317 79.3207C96.8119 78.9503 96.8763 78.6875 96.8763 78.6875L99.4291 78.9661C99.4291 78.9661 99.4629 79.2447 99.504 79.6352C99.5863 80.4024 99.695 81.6001 99.6296 81.9441C99.5241 82.4655 100.229 82.5847 100.668 83.9439C101.107 85.3032 97.329 84.2426 97.1886 84.2215Z" fill="#4D507F"/>
<path d="M93.8297 71.4455C93.6935 71.6671 93.6344 72.162 93.6091 72.5789C93.5848 72.9535 93.5901 73.2659 93.5901 73.2659C93.5901 73.2659 93.6503 74.9058 92.8904 75.8239C92.1306 76.7421 91.1112 75.8841 90.6912 74.3054C90.4 73.2079 91.1703 72.0069 91.6674 71.3758C91.8858 71.0994 92.0504 70.9326 92.0504 70.9326C92.0504 70.9326 94.0861 71.0255 93.8297 71.4455Z" fill="#4D507F"/>
<path d="M94.9789 33.4365C94.9789 33.4365 92.1507 33.217 92.0504 34.6765C91.9502 36.136 92.1992 37.2599 94.3647 37.4382C96.5301 37.6166 95.7492 33.465 95.7492 33.465L94.9789 33.4365Z" fill="#575A89"/>
<path d="M100.213 34.1686C100.213 34.1686 102.988 33.7359 102.967 34.8165C102.947 35.8971 100.85 37.3017 100.85 37.3017L100.213 34.1686Z" fill="#575A89"/>
<path opacity="0.15" d="M95.0834 33.4365C95.0834 33.4365 92.2562 33.217 92.156 34.6765C92.0557 36.136 92.3037 37.2599 94.4692 37.4382C96.6347 37.6166 95.8548 33.465 95.8548 33.465L95.0834 33.4365Z" fill="black"/>
<path opacity="0.15" d="M100.449 34.1686C100.449 34.1686 103.223 33.7359 103.203 34.8165C103.183 35.8971 101.084 37.3017 101.084 37.3017L100.449 34.1686Z" fill="black"/>
<path d="M95.7746 33.0216C94.9981 33.3335 94.2677 33.75 93.6038 34.2594C93.51 34.3167 93.4393 34.4053 93.4044 34.5095C93.3988 34.5936 93.4006 34.678 93.4097 34.7618C93.3928 35.1839 92.7543 35.2198 92.4673 35.5332C92.2636 35.7548 92.2668 36.103 92.3618 36.388C92.4567 36.6729 92.6372 36.9241 92.7512 37.2027C92.8754 37.515 92.9206 37.8531 92.8827 38.1871C92.8448 38.5211 92.7249 38.8405 92.5338 39.117C92.2066 39.5802 91.7011 39.8821 91.3054 40.2873C90.7778 40.8329 90.4538 41.7204 90.8738 42.3578C91.1302 42.7483 91.5998 42.9519 91.8742 43.3287C92.1697 43.7371 92.1908 44.2848 92.1201 44.7839C92.0494 45.2831 91.8985 45.7738 91.8943 46.2782C91.8848 47.2639 92.4567 48.1989 93.2535 48.7803C94.0502 49.3618 95.0475 49.6246 96.03 49.6773C96.3793 49.6974 96.7423 49.6911 97.0599 49.5454C97.3776 49.3998 97.6266 49.1233 97.844 48.8426C98.4994 47.9991 99.0026 47.0477 99.331 46.0313C99.4734 45.5912 99.5916 45.1237 99.8976 44.7776C100.122 44.552 100.382 44.3657 100.668 44.2267L102.074 43.4395C102.535 43.1809 103.04 42.8664 103.162 42.3525C103.299 41.77 102.894 41.0925 103.223 40.5923C103.328 40.4298 103.501 40.319 103.623 40.1702C103.964 39.7396 103.834 39.1043 103.592 38.6115C103.395 38.2081 103.139 37.8364 102.832 37.5087C102.568 37.228 102.258 36.9694 102.113 36.6117C102.001 36.3373 101.997 36.0281 101.896 35.7495C101.685 35.1691 101.113 34.8156 100.729 34.3333C100.413 33.9333 100.22 33.4363 99.8491 33.087C99.2486 32.5193 98.5827 32.7008 97.844 32.7229C97.4789 32.7345 97.1391 32.5995 96.7792 32.5931C96.3571 32.5815 96.1724 32.8622 95.7746 33.0216Z" fill="#663D5C"/>
<path d="M100.562 34.0322L94.351 33.399C94.351 33.399 94.3732 33.3252 94.4111 33.188C94.5604 32.6418 94.6805 32.088 94.771 31.529C94.9303 30.516 97.252 30.2564 97.252 30.2564C97.8371 30.2024 98.4256 30.3145 98.9499 30.5797C99.4742 30.845 99.9131 31.2526 100.216 31.7559L100.479 33.4824L100.562 34.0322Z" fill="#FF748E"/>
<path d="M101.738 40.7551L100.779 43.2139L96.7296 43.9041C96.7296 43.9041 91.9913 42.8847 94.18 40.7551C94.4347 40.5106 94.6704 40.2471 94.885 39.9668C95.099 39.6909 95.2708 39.3847 95.3947 39.0582C95.7451 38.081 95.2005 37.6061 95.2005 37.6061C95.2005 37.6061 99.1885 35.7762 99.2486 37.8456C99.2618 38.3113 99.4012 38.7647 99.6518 39.1574C99.7909 39.3745 99.9548 39.5746 100.14 39.7536C100.602 40.1887 101.145 40.5289 101.738 40.7551Z" fill="#CE828D"/>
<path d="M114.825 38.1145C114.719 38.1145 114.308 38.4311 113.963 38.7139C113.682 38.945 113.444 39.154 113.444 39.154L112.785 36.9748C112.94 36.8955 113.089 36.8048 113.23 36.7036C113.388 36.5875 113.525 36.4503 113.525 36.3321C113.525 36.0546 114.145 33.715 114.605 34.6151C115.065 35.5153 115.024 38.1145 114.825 38.1145Z" fill="#CE828D"/>
<path opacity="0.1" d="M67.1971 33.6163L62.8398 36.1754C62.8398 36.1754 57.5992 34.8161 59.0407 33.6553C59.6823 33.1393 59.9515 32.0365 60.0506 30.9706C60.9244 32.4618 62.3575 32.5536 63.0129 32.5019C63.2102 32.4881 63.4086 32.4892 63.606 32.4839C64.5135 32.4586 65.3472 31.1173 65.5055 30.8408C66.0574 32.2306 67.1971 33.6163 67.1971 33.6163Z" fill="black"/>
<path opacity="0.1" d="M71.8784 52.4419C71.8784 52.4599 71.8784 52.4768 71.8784 52.4905C71.8383 52.8503 70.1583 53.4508 70.1583 53.4508C70.1583 53.4508 62.4409 54.4101 61.7613 53.7674C61.1281 53.1764 58.7284 52.5517 58.3675 52.4588L58.8814 51.0869C58.8814 51.0869 70.7978 51.3265 71.278 51.4858C71.508 51.5681 71.7201 52.0071 71.8784 52.4419Z" fill="black"/>
<path d="M71.756 48.0925C71.756 48.0925 72.7955 49.8506 72.0726 50.2516C71.3497 50.6527 71.9133 51.8905 71.8731 52.2504C71.833 52.6102 70.153 53.2096 70.153 53.2096C70.153 53.2096 62.4356 54.17 61.756 53.5262C61.0764 52.8825 58.3157 52.206 58.3157 52.206C57.9482 51.2652 57.4794 50.3671 56.9175 49.5277C56.0373 48.2476 57.1971 45.888 57.1971 45.888C57.1971 45.888 56.9175 44.3694 56.318 43.9283C55.7186 43.4872 54.9208 39.3346 54.7235 38.0946C54.5261 36.8547 51.9639 38.5347 51.9639 38.5347C51.9639 38.5347 48.7252 38.7352 48.0466 38.5347C48.033 38.5309 48.0202 38.5248 48.0086 38.5167C47.5042 38.1759 50.6849 34.495 50.6849 34.495C50.6849 34.495 53.0846 34.056 53.0435 33.3342C53.016 32.8297 54.1821 32.091 54.885 31.6932C55.1878 31.5212 55.4042 31.4135 55.4042 31.4135H56.3634C56.7233 31.4135 56.5639 30.8542 56.5639 30.8542C56.5639 30.8542 57.2836 30.9344 57.6836 30.5746C58.0836 30.2147 60.0432 31.0716 60.0432 31.0716C60.916 32.5786 62.3586 32.6672 63.016 32.6187C63.2134 32.606 63.4118 32.6071 63.6091 32.6008C64.6211 32.5733 65.5403 30.9123 65.5403 30.9123C65.5403 30.9123 68.4002 31.097 70.3947 32.377C72.3892 33.6571 74.4333 37.3749 74.4333 37.3749C74.4333 37.3749 71.4341 41.0948 70.9508 41.0157C70.4675 40.9365 71.5091 42.815 71.5091 42.815L71.756 48.0925Z" fill="#DCE6F2"/>
<path opacity="0.1" d="M54.8818 31.6963C54.7699 32.073 54.6423 32.5099 54.6 32.6967C54.5209 33.0566 53.6819 33.4175 53.6819 33.4175C53.6819 33.4175 52.881 34.496 52.9612 34.6965C53.0414 34.897 52.2815 35.6558 51.9607 36.3755C51.6399 37.0952 48.2862 38.5357 48.2862 38.5357C48.1933 38.5408 48.1001 38.5348 48.0086 38.5177C47.5042 38.1769 50.6849 34.496 50.6849 34.496C50.6849 34.496 53.0846 34.057 53.0435 33.3352C53.0129 32.8328 54.179 32.0941 54.8818 31.6963Z" fill="black"/>
<path opacity="0.1" d="M55.5435 30.008C55.3708 30.0796 55.203 30.1625 55.0412 30.256L53.6313 28.787C53.6313 28.787 53.8107 28.5971 54.0534 28.3301C54.0703 28.8672 55.1171 29.6946 55.5435 30.008Z" fill="black"/>
<path d="M53.9605 28.2979L52.7997 29.0176C52.7997 29.0176 51.5998 29.255 51.1598 30.2554C50.7197 31.2559 49.447 31.4965 49.447 31.4965L48.6482 32.8166C48.6482 32.8166 46.6484 33.6609 46.5281 36.1757C46.4078 38.6904 48.0477 38.5353 48.0477 38.5353C48.0477 38.5353 51.4067 37.0959 51.7265 36.3751C52.0462 35.6543 52.8071 34.8977 52.7269 34.6961C52.6467 34.4946 53.4466 33.4171 53.4466 33.4171C53.4466 33.4171 54.2908 33.0562 54.3658 32.6963C54.4407 32.3365 54.8459 31.048 54.8459 31.048L55.6057 30.2554C55.6057 30.2554 53.6809 28.9374 53.9605 28.2979Z" fill="#DCE6F2"/>
<path opacity="0.1" d="M78.0287 52.1524C77.4251 52.1017 75.6817 51.9856 75.3904 52.3043C75.3682 52.1988 75.3524 52.1302 75.3524 52.1302L75.7629 51.0918C75.7629 51.0918 77.768 51.1308 77.768 51.401C77.7744 51.5118 77.8915 51.8231 78.0287 52.1524Z" fill="black"/>
<path d="M72.9559 36.1748L74.4333 37.3747L75.1129 39.5739C75.1129 39.5739 75.993 41.4133 76.5133 42.3736C77.0335 43.3339 77.233 44.8525 77.233 44.8525C77.233 44.8525 77.3522 45.5722 77.5928 45.8118C77.8334 46.0513 77.5928 46.8122 77.5928 46.8122C77.5928 46.8122 77.8725 47.6913 78.112 48.0121C78.3516 48.3329 78.112 49.8114 78.112 49.8114L78.2176 50.4108C78.2176 50.4108 78.6312 51.0513 78.3917 51.0904C78.1521 51.1294 78.2313 51.9346 78.2313 51.9346C78.2313 51.9346 75.4717 51.655 75.3524 52.1351C75.3524 52.1351 74.9124 50.9353 74.9926 50.5353C75.0728 50.1353 74.4322 49.0579 74.4322 49.0579C74.4322 49.0579 74.1526 48.6178 74.2729 48.1377C74.3932 47.6575 73.7526 46.2983 73.7526 46.2983C73.7526 46.2983 73.6323 45.0984 73.3928 45.1786C73.1532 45.2588 72.9928 44.6594 72.9527 44.4188C72.9126 44.1782 72.0726 42.5794 72.0726 42.5794L70.3936 40.5395L72.9559 36.1748Z" fill="#DCE6F2"/>
<path opacity="0.1" d="M99.6518 39.1573C99.0371 39.6284 98.28 39.8753 97.5058 39.8573C96.7316 39.8392 95.9868 39.5573 95.3947 39.0581C95.7451 38.0809 95.2006 37.6061 95.2006 37.6061C95.2006 37.6061 99.1885 35.7762 99.2486 37.8456C99.2618 38.3113 99.4012 38.7646 99.6518 39.1573Z" fill="black"/>
<path d="M97.5844 39.7375C99.4646 39.7375 100.989 38.2133 100.989 36.3331C100.989 34.4529 99.4646 32.9287 97.5844 32.9287C95.7042 32.9287 94.18 34.4529 94.18 36.3331C94.18 38.2133 95.7042 39.7375 97.5844 39.7375Z" fill="#CE828D"/>
<path opacity="0.1" d="M101.738 40.7554L100.779 43.2143L96.7296 43.9044C96.7296 43.9044 91.9913 42.885 94.18 40.7554C94.4347 40.5109 94.6704 40.2474 94.885 39.9671C95.9213 42.56 97.6741 42.3151 97.6741 42.3151C100.101 41.8561 100.178 40.2341 100.145 39.7539C100.605 40.1885 101.147 40.5287 101.738 40.7554Z" fill="black"/>
<path opacity="0.1" d="M113.963 38.7144C113.682 38.9456 113.444 39.1545 113.444 39.1545L112.785 36.9753C112.94 36.896 113.089 36.8053 113.23 36.7041C113.515 37.0713 113.79 38.0137 113.963 38.7144Z" fill="black"/>
<path opacity="0.1" d="M81.374 53.3719C81.374 53.3719 81.1883 53.5946 80.8959 53.9207C80.554 53.5692 80.0095 52.9772 79.7446 52.5287C80.1667 52.3071 80.4738 52.1309 80.4738 52.1309L81.374 53.3719Z" fill="black"/>
<path d="M114.031 39.555L112.591 40.0078C112.591 40.0078 110.492 41.0852 110.192 41.5907C109.892 42.0962 104.974 43.6897 104.974 43.6897C105.124 44.2891 103.593 46.6287 103.593 46.6287C103.593 46.6287 103.414 48.6686 102.813 49.6585C102.286 50.5249 102.683 52.7188 102.79 53.2581C102.804 53.3341 102.813 53.3773 102.813 53.3773C102.813 53.3773 90.6965 54.1572 90.3968 53.6169C90.3818 53.5888 90.3711 53.5585 90.3652 53.5272C90.1995 52.8592 91.1925 50.7528 91.507 50.4383C91.8362 50.108 91.3687 47.8592 91.3687 47.8592C91.3687 47.8592 88.3875 49.8083 87.8778 50.7085C87.3681 51.6086 82.1497 53.6781 82.1497 53.6781L81.3054 54.1002C81.3054 54.1002 79.5061 52.3611 79.7161 51.9105C79.9261 51.4599 81.4637 50.8963 81.4637 50.8963C81.4637 50.8963 84.7024 48.4375 84.9462 48.2866C85.1334 48.1448 85.2954 47.9725 85.4253 47.7769L85.7261 47.5658C85.7261 47.5658 85.9371 47.3547 86.5059 47.1162C87.0747 46.8777 88.4255 45.1671 88.4255 45.1671C88.4255 45.1671 89.8343 43.6675 90.0148 42.951C90.1567 42.4529 90.37 41.978 90.648 41.5411C91.3071 41.4342 91.9261 41.1545 92.442 40.7306C93.3358 40.0162 94.8343 40.0141 94.8544 40.0141C95.8865 42.685 97.671 42.4413 97.671 42.4413C100.531 41.902 100.127 39.745 100.127 39.745C100.127 39.745 102.159 38.5725 102.609 38.6032C103.058 38.6338 105.189 38.7224 105.699 38.9926C106.208 39.2627 107.618 38.753 107.618 38.753C107.618 38.753 108.367 38.1525 109.237 38.0027C110.107 37.8528 111.577 37.283 111.577 37.283C111.577 37.283 112.386 36.4134 112.926 36.5633C113.467 36.7131 114.031 39.555 114.031 39.555Z" fill="#FF748E"/>
<path opacity="0.1" d="M102.818 53.3817C102.818 53.3817 90.7007 54.1616 90.401 53.6213C90.386 53.5932 90.3753 53.5629 90.3694 53.5316C90.3789 53.5207 90.3895 53.5108 90.401 53.502L92.3512 53.6909C92.3512 53.6909 93.2345 52.242 93.6017 51.402C93.6017 51.402 94.8998 49.1226 94.8998 48.3733C94.8998 48.3733 100.688 48.253 101.559 47.833C101.559 47.833 101.72 53.004 102.192 53.3005L102.792 53.2625C102.808 53.3385 102.818 53.3817 102.818 53.3817Z" fill="black"/>
<path opacity="0.1" d="M93.8297 71.4468C93.6935 71.6684 93.6344 72.1633 93.6091 72.5802C92.9411 72.5453 91.9311 72.2172 91.9311 72.2172C91.8884 71.9236 91.7994 71.6386 91.6673 71.3729C91.8858 71.0964 92.0504 70.9297 92.0504 70.9297C92.0504 70.9297 94.0861 71.0268 93.8297 71.4468Z" fill="black"/>
<path opacity="0.1" d="M99.504 79.6343C98.7653 79.6343 97.4842 79.5921 96.7317 79.3177C96.8119 78.9473 96.8763 78.6846 96.8763 78.6846L99.4291 78.9674C99.4291 78.9674 99.4681 79.2439 99.504 79.6343Z" fill="black"/>
<path d="M103.478 58.2394C103.217 59.7984 102.865 61.3407 102.423 62.8584C102.423 62.8584 101.853 65.046 101.883 65.6613C101.912 66.2765 101.461 70.026 101.461 70.026C101.461 70.026 100.951 71.9456 101.071 72.8151C101.191 73.6847 100.016 78.214 100.016 78.214L100.076 79.3833C100.076 79.3833 96.507 79.5342 96.1471 78.6636L96.297 77.6442L96.5967 74.8255C96.5967 74.8255 96.9871 71.6754 96.8077 70.9209C96.6283 70.1663 96.3402 67.1471 96.3402 67.1471L96.3096 70.3858C96.3096 70.3858 95.7704 71.4063 95.1699 71.6459C94.5694 71.8854 94.4797 72.279 93.8508 72.336C93.2218 72.393 91.9312 71.9762 91.9312 71.9762C91.8823 71.6382 91.7702 71.3124 91.6009 71.0158C91.3307 70.5663 91.6009 69.0361 91.6009 69.0361C91.6009 69.0361 91.8404 68.0167 91.4806 67.7771C91.1207 67.5376 90.7609 65.9177 90.9107 65.4375C90.9434 65.332 90.9192 65.1463 90.8632 64.9099C90.7229 64.2978 90.3831 63.3364 90.2733 62.4605C90.2231 62.1247 90.2278 61.7829 90.287 61.4485C90.5561 60.1283 90.4063 58.1771 90.4063 58.1771C90.4063 58.1771 89.9272 53.9485 90.4063 53.6182L92.3565 53.8082C92.3565 53.8082 93.2398 52.3592 93.607 51.5192C93.607 51.5192 94.905 49.2398 94.905 48.4895C94.905 48.4895 100.693 48.3702 101.564 47.9502C101.564 47.9502 101.725 53.1212 102.197 53.4166L102.821 53.3787C102.821 53.3787 103.868 55.8101 103.478 58.2394Z" fill="#575A89"/>
<path d="M100.641 69.4689C100.633 69.5805 100.6 69.6888 100.543 69.7855C100.365 70.177 99.9779 70.7743 99.7583 70.901C99.3985 71.112 97.7797 70.3311 97.7533 70.0462C97.7495 69.8515 97.7744 69.6574 97.8271 69.47C97.8651 69.3117 97.9031 69.1914 97.9031 69.1914C97.9031 69.1914 100.153 69.7022 100.541 69.4616H100.548C100.607 69.4172 100.635 69.4257 100.641 69.4689Z" fill="#CE828D"/>
<path opacity="0.1" d="M96.3466 45.8197C96.3371 46.2186 96.3466 47.1378 96.3466 47.7868C96.3466 48.192 96.3539 48.4917 96.3539 48.4917H94.7805C94.7805 48.4917 94.7657 48.2173 94.7499 47.7868C94.732 47.2897 94.713 46.5869 94.7161 45.8587C94.7161 45.6741 94.7161 45.4883 94.7225 45.3026C94.733 44.7644 94.7594 44.2389 94.81 43.7988C95.0042 42.0882 93.3601 40.2108 93.3601 40.2108C93.7389 39.7612 94.732 39.9997 94.732 39.9997C94.732 39.9997 95.2892 41.6006 95.7229 42.7857C96.005 43.5747 96.2072 44.3899 96.3265 45.2192C96.3484 45.3567 96.3576 45.4959 96.3539 45.635C96.3518 45.6741 96.3497 45.7353 96.3466 45.8197Z" fill="black"/>
<path d="M96.4669 45.8197C96.4574 46.2186 96.4669 47.1378 96.4669 47.7868C96.4669 48.192 96.4743 48.4917 96.4743 48.4917H94.8997C94.8997 48.4917 94.886 48.2173 94.8702 47.7868C94.8523 47.2897 94.8333 46.5869 94.8364 45.8587C94.8364 45.6741 94.8364 45.4883 94.8428 45.3026C94.8533 44.7644 94.8797 44.2389 94.9304 43.7988C95.1245 42.0882 93.4793 40.2108 93.4793 40.2108C93.8592 39.7612 94.8512 39.9997 94.8512 39.9997C94.8512 39.9997 95.4073 41.6006 95.8421 42.7857C96.1237 43.5748 96.3259 44.39 96.4458 45.2192C96.4676 45.3567 96.4768 45.4959 96.4732 45.635C96.4721 45.6741 96.469 45.7353 96.4669 45.8197Z" fill="#575A89"/>
<path opacity="0.1" d="M102.982 44.7588C102.954 44.9034 102.927 45.1408 102.9 45.4184C102.843 45.9787 102.783 46.7037 102.689 47.1723C102.636 47.4277 102.572 47.6049 102.493 47.6377L102.106 47.7865L101.674 47.9521L101.106 48.0418L101.211 47.7865C101.279 47.6271 101.371 47.4065 101.467 47.1723C101.686 46.6383 101.925 46.0273 101.941 45.8669C101.948 45.7962 101.972 45.6336 102.001 45.4184C102.026 45.2305 102.054 45.0026 102.075 44.7588C102.135 44.095 102.15 43.3152 101.941 42.9131C101.566 42.1934 100.674 39.4918 100.674 39.4918C100.745 39.2972 100.886 39.1361 101.07 39.0405C101.253 38.945 101.466 38.9219 101.666 38.9758C101.666 38.9758 102.48 41.6531 102.494 42.014C102.507 42.3749 103.103 44.1583 102.982 44.7588Z" fill="black"/>
<path d="M102.862 44.7588C102.833 44.9034 102.807 45.1408 102.78 45.4184C102.724 45.9787 102.664 46.7037 102.569 47.1723C102.516 47.4277 102.451 47.605 102.372 47.6377L101.994 47.7865C101.84 47.851 101.696 47.937 101.566 48.0419L100.94 48.1389C100.94 48.1389 101.037 47.9427 101.103 47.7865C101.168 47.6303 101.262 47.4066 101.358 47.1723C101.578 46.6383 101.817 46.0273 101.832 45.8669C101.839 45.7962 101.864 45.6337 101.892 45.4184C101.917 45.2305 101.945 45.0026 101.967 44.7588C102.027 44.095 102.041 43.3152 101.832 42.9131C101.458 42.1934 100.566 39.4918 100.566 39.4918C100.636 39.2972 100.777 39.1361 100.961 39.0405C101.145 38.945 101.358 38.9219 101.558 38.9758C101.558 38.9758 102.371 41.6531 102.386 42.014C102.401 42.3749 102.982 44.1584 102.862 44.7588Z" fill="#575A89"/>
<path d="M96.4753 45.6423C96.4753 45.674 96.469 45.7352 96.4669 45.8196L94.8364 45.8587C94.8364 45.674 94.8364 45.4883 94.8428 45.3025L96.4479 45.2266C96.4698 45.364 96.4789 45.5032 96.4753 45.6423Z" fill="white"/>
<path d="M96.4753 48.492H94.8998C94.8998 48.492 94.886 48.2177 94.8702 47.7871H96.4679C96.4721 48.1923 96.4753 48.492 96.4753 48.492Z" fill="white"/>
<path d="M102.862 44.7588C102.833 44.9034 102.807 45.1408 102.78 45.4183H101.888C101.913 45.2305 101.941 45.0025 101.963 44.7588H102.862Z" fill="white"/>
<path d="M102.564 47.1729C102.512 47.4282 102.447 47.6055 102.368 47.6383L101.99 47.7871H101.099C101.166 47.6277 101.258 47.4071 101.354 47.1729H102.564Z" fill="white"/>
<path opacity="0.05" d="M67.9949 36.1748C67.9949 36.1748 68.3632 39.4167 69.5199 39.7364C70.6765 40.0562 70.0982 38.5366 70.0982 38.5366L69.1188 37.3008L67.9949 36.1748Z" fill="black"/>
<path opacity="0.05" d="M60.3166 42.0029C60.3166 42.0029 64.7119 46.394 66.6156 45.5424C68.5194 44.6908 62.3691 45.1519 60.3166 42.0029Z" fill="black"/>
<path opacity="0.05" d="M65.3134 47.9529C65.3134 47.9529 68.245 48.1292 69.1188 47.1731C69.9926 46.217 65.3134 47.9529 65.3134 47.9529Z" fill="black"/>
<path opacity="0.05" d="M63.2102 51.6853C63.0815 51.5935 68.5216 51.4226 69.9937 50.3134C71.4659 49.2043 66.7328 54.2086 63.2102 51.6853Z" fill="black"/>
<path opacity="0.05" d="M53.9553 34.4111C53.9553 34.4111 55.1161 35.5888 55.2216 36.5386C55.3271 37.4884 53.9553 34.4111 53.9553 34.4111Z" fill="black"/>
<path opacity="0.05" d="M56.9006 35.4346C56.9006 35.4346 56.7951 38.5614 58.0815 39.1556C59.3679 39.7497 56.4795 37.7974 56.9006 35.4346Z" fill="black"/>
<path opacity="0.05" d="M73.6904 43.8251C73.6904 43.8251 75.9878 42.8754 76.3561 43.4927C76.7244 44.1101 76.0395 44.2145 76.0395 44.2145L73.6904 43.8251Z" fill="black"/>
<path opacity="0.05" d="M76.6738 46.8867C75.724 47.4808 75.0116 47.4291 75.0802 47.9547C75.1488 48.4802 75.2332 48.2765 75.8749 48.1415C76.5165 48.0064 76.6738 46.8867 76.6738 46.8867Z" fill="black"/>
<path opacity="0.05" d="M77.3734 49.3311C77.3734 49.3311 76.2305 50.3167 75.8727 50.3695C75.515 50.4222 77.3734 49.3311 77.3734 49.3311Z" fill="black"/>
<path opacity="0.1" d="M93.6028 57.3635C93.4529 57.2147 98.5458 57.3635 99.7552 57.0469C99.7552 57.0469 100.368 57.9407 99.1938 58.1518C98.0192 58.3628 92.8145 58.6794 92.8145 58.6794C92.8145 58.6794 94.39 58.1528 93.6028 57.3635Z" fill="black"/>
<path opacity="0.1" d="M92.2404 63.6734C92.0547 63.99 91.4352 64.486 90.8685 64.9049C90.7282 64.2928 90.3884 63.3315 90.2786 62.4556L91.3782 61.9385C91.3424 61.9385 92.6087 63.0423 92.2404 63.6734Z" fill="black"/>
<path opacity="0.1" d="M86.832 47.5891C86.832 47.5891 90.2406 47.0255 91.2906 45.8584C91.2906 45.8584 90.8938 47.8582 86.832 47.5891Z" fill="black"/>
<path opacity="0.1" d="M85.9783 49.5821C85.9783 49.5821 86.5059 49.7932 87.3987 49.5821C88.2915 49.371 85.9783 49.5821 85.9783 49.5821Z" fill="black"/>
<path opacity="0.1" d="M93.4793 49.3311C93.4793 49.3311 91.5661 50.9288 92.0325 51.2802C92.4989 51.6316 93.4793 49.3311 93.4793 49.3311Z" fill="black"/>
<path opacity="0.1" d="M93.4793 46.3752C93.4793 46.3752 91.8236 46.3425 92.2404 47.174C92.6572 48.0056 93.4793 46.3752 93.4793 46.3752Z" fill="black"/>
<path opacity="0.1" d="M96.5967 35.4799C96.7003 35.4688 96.8003 35.4357 96.89 35.3828C97.3086 35.1915 97.7786 35.1437 98.2271 35.2467C98.8698 35.3965 99.4048 35.844 100.032 36.0519C100.393 36.1722 100.876 36.1627 101.054 35.826C101.211 35.5274 101.026 35.1696 100.843 34.8847C100.527 34.3792 100.179 33.8526 99.6528 33.5656C99.3497 33.4179 99.0259 33.3172 98.6925 33.267C98.0234 33.1372 97.3375 33.038 96.661 33.1266C96.1334 33.1962 94.6064 33.5487 94.847 34.3602C94.9673 34.7665 95.3915 34.7095 95.7092 34.8478C96.011 34.9807 96.26 35.4883 96.5967 35.4799Z" fill="black"/>
<path d="M96.5967 35.2401C96.7 35.228 96.7999 35.195 96.89 35.143C97.3084 34.9512 97.7786 34.9033 98.2271 35.0069C98.8698 35.1567 99.4048 35.6031 100.032 35.8121C100.393 35.9324 100.876 35.9229 101.054 35.5862C101.211 35.2865 101.026 34.9298 100.843 34.6449C100.527 34.1394 100.179 33.6128 99.6528 33.3258C99.3499 33.1776 99.026 33.0769 98.6925 33.0271C98.0234 32.8973 97.3375 32.7981 96.661 32.8857C96.1334 32.9554 94.6064 33.3079 94.847 34.1204C94.9673 34.5267 95.3915 34.4687 95.7092 34.608C96.011 34.7399 96.26 35.2454 96.5967 35.2401Z" fill="#663D5C"/>
<path opacity="0.1" d="M100.562 34.0334L94.351 33.4002C94.351 33.4002 94.3732 33.3263 94.4111 33.1891C95.7144 32.844 98.9363 32.1728 100.479 33.4793L100.562 34.0334Z" fill="black"/>
<path d="M93.8445 33.483C93.8445 33.483 99.5304 31.6162 100.99 34.2291C100.99 34.2217 97.9675 34.666 93.8445 33.483Z" fill="#575A89"/>
<path opacity="0.1" d="M96.5312 65.2694C96.4811 65.2943 96.4232 65.2983 96.3702 65.2805C96.3171 65.2627 96.2733 65.2245 96.2484 65.1744C96.2033 65.0709 96.1883 64.9568 96.2052 64.8452L96.2336 64.345C96.2769 63.5831 96.3212 62.8106 96.5576 62.0845C96.8241 61.3167 97.2565 60.617 97.824 60.0352" fill="black"/>
<path opacity="0.1" d="M95.6691 50.1578C95.6691 50.1578 98.5184 49.419 99.1906 49.6766C99.8628 49.9341 99.6359 50.3341 99.1906 50.3742C98.7453 50.4143 95.6691 50.1578 95.6691 50.1578Z" fill="black"/>
<path opacity="0.1" d="M94.8364 52.1318C95.4696 52.5719 100.562 52.5719 100.562 52.5719L94.8364 52.1318Z" fill="black"/>
<path opacity="0.1" d="M71.4162 53.4512C71.4162 53.4512 71.6273 53.9714 70.2691 54.4906C68.9109 55.0098 71.4162 53.4512 71.4162 53.4512Z" fill="black"/>
<path opacity="0.1" d="M70.3968 57.4095C70.3968 57.4095 68.6198 57.3694 69.2286 58.2094C69.8375 59.0494 70.3968 57.4095 70.3968 57.4095Z" fill="black"/>
<path opacity="0.1" d="M59.4797 53.9023C59.4797 53.9023 62.2784 55.4114 63.4382 55.5718C64.5979 55.7322 61.3191 56.2335 59.4797 53.9023Z" fill="black"/>
<path opacity="0.1" d="M61.8784 66.2471C61.8784 66.2471 62.0177 66.9668 63.2081 67.3266C64.3985 67.6865 65.3092 67.4068 65.3187 67.3266C65.3282 67.2464 61.8784 66.2471 61.8784 66.2471Z" fill="black"/>
<path opacity="0.1" d="M65.058 82.0703C65.058 82.0703 66.5281 82.8089 66.8573 82.0703H65.058Z" fill="black"/>
<path opacity="0.1" d="M75.1657 67.5068C75.1657 67.5068 74.923 68.2899 74.4755 68.3173L75.1657 67.5068Z" fill="black"/>
<path opacity="0.1" d="M101.051 35.3465C100.874 35.6842 100.389 35.6926 100.029 35.5723C99.4017 35.3612 98.8677 34.918 98.224 34.7671C97.7754 34.6641 97.3054 34.7119 96.8869 34.9032C96.7972 34.9563 96.6971 34.9894 96.5935 35.0003C96.2569 35.0056 96.0078 34.5012 95.7071 34.3671C95.3905 34.2278 94.9683 34.2848 94.8449 33.8785C94.84 33.863 94.8361 33.8471 94.8333 33.8311C94.8115 33.9264 94.8155 34.0259 94.8449 34.1191C94.9652 34.5254 95.3894 34.4674 95.7071 34.6067C96.0078 34.7386 96.2569 35.2399 96.5935 35.2399C96.6969 35.228 96.7968 35.1949 96.8869 35.1428C97.3053 34.9509 97.7755 34.9031 98.224 35.0067C98.8666 35.1565 99.4017 35.6029 100.029 35.8118C100.389 35.9311 100.873 35.9227 101.051 35.586C101.109 35.4709 101.126 35.3394 101.099 35.2135C101.089 35.2599 101.073 35.3047 101.051 35.3465Z" fill="black"/>
<path opacity="0.1" d="M100.641 69.469C100.633 69.5806 100.6 69.6889 100.543 69.7856L97.8229 69.469C97.8609 69.3107 97.8989 69.1904 97.8989 69.1904C97.8989 69.1904 100.149 69.7012 100.537 69.4606H100.543L100.641 69.469Z" fill="black"/>
<path d="M97.7997 68.9268C97.7891 68.9574 97.7459 69.3373 97.7459 69.3373L100.768 69.6866V69.37L97.7997 68.9268Z" fill="#575A89"/>
<path opacity="0.1" d="M13.0467 72.2675C14.833 72.2675 16.2812 72.0686 16.2812 71.8232C16.2812 71.5778 14.833 71.3789 13.0467 71.3789C11.2603 71.3789 9.81218 71.5778 9.81218 71.8232C9.81218 72.0686 11.2603 72.2675 13.0467 72.2675Z" fill="#EDE04B"/>
<path opacity="0.1" d="M25.4369 73.5243C27.2232 73.5243 28.6714 73.3254 28.6714 73.08C28.6714 72.8347 27.2232 72.6357 25.4369 72.6357C23.6505 72.6357 22.2024 72.8347 22.2024 73.08C22.2024 73.3254 23.6505 73.5243 25.4369 73.5243Z" fill="#EDE04B"/>
<path opacity="0.1" d="M40.0306 71.8241C41.817 71.8241 43.2651 71.6252 43.2651 71.3798C43.2651 71.1345 41.817 70.9355 40.0306 70.9355C38.2442 70.9355 36.7961 71.1345 36.7961 71.3798C36.7961 71.6252 38.2442 71.8241 40.0306 71.8241Z" fill="#EDE04B"/>
<path opacity="0.1" d="M20.478 76.9719C21.748 76.9719 22.7775 76.8306 22.7775 76.6564C22.7775 76.4821 21.748 76.3408 20.478 76.3408C19.2081 76.3408 18.1785 76.4821 18.1785 76.6564C18.1785 76.8306 19.2081 76.9719 20.478 76.9719Z" fill="#EDE04B"/>
<path opacity="0.1" d="M33.3368 76.6565C34.6068 76.6565 35.6363 76.5152 35.6363 76.3409C35.6363 76.1667 34.6068 76.0254 33.3368 76.0254C32.0669 76.0254 31.0374 76.1667 31.0374 76.3409C31.0374 76.5152 32.0669 76.6565 33.3368 76.6565Z" fill="#EDE04B"/>
<path d="M25.5055 72.9808C25.5055 72.9808 20.9677 58.1095 26.2157 52.1534C30.1403 47.698 34.5947 48.2309 36.5903 48.7818C37.1066 48.9191 37.5869 49.1672 37.9978 49.5086C38.4088 49.8501 38.7405 50.2769 38.97 50.7594C39.6676 52.2643 39.5409 54.7073 34.618 57.5576C26.374 62.3307 25.859 68.8778 25.859 68.8778L25.5055 72.9808Z" fill="#EDE04B"/>
<path d="M35.8801 50.8965C35.8801 50.8965 22.5084 55.0776 25.5055 72.986" stroke="#565987" stroke-miterlimit="10"/>
<path d="M28.0699 52.3896C28.0699 52.3896 29.9114 53.6307 29.3257 55.4954" stroke="#565987" stroke-miterlimit="10"/>
<path d="M34.5388 53.4938C34.5388 53.4938 33.4128 52.3487 32.043 52.9798" stroke="#565987" stroke-miterlimit="10"/>
<path d="M29.2529 59.2535C29.2529 59.2535 27.2763 58.25 26.7655 59.5068" stroke="#565987" stroke-miterlimit="10"/>
<path d="M24.3616 61.3433C24.3616 61.3433 25.8464 61.2251 25.8728 61.9353" stroke="#565987" stroke-miterlimit="10"/>
<path d="M25.323 73.0982C25.323 73.0982 30.6353 62.293 32.0948 62.5262C32.7881 62.6391 33.1079 63.3208 33.2556 64.0036C33.4351 64.8893 33.3341 65.8089 32.9665 66.6345C32.2088 68.3662 30.1837 71.6513 25.323 73.0982Z" fill="#EDE04B"/>
<path d="M32.0557 64.5781C32.0557 64.5781 26.4785 72.6649 25.401 73.0205" stroke="#565987" stroke-miterlimit="10"/>
<path d="M32.5686 65.8408H31.2663" stroke="#565987" stroke-miterlimit="10"/>
<path d="M31.0089 68.7998L28.969 68.8874" stroke="#565987" stroke-miterlimit="10"/>
<path d="M29.7679 66.4326L29.9895 67.4953" stroke="#565987" stroke-miterlimit="10"/>
<path d="M27.5981 69.666L27.6372 70.6327" stroke="#565987" stroke-miterlimit="10"/>
<path d="M25.4801 73.0982C25.4801 73.0982 20.1678 62.293 18.7083 62.5262C18.015 62.6391 17.6952 63.3208 17.5475 64.0036C17.3685 64.8893 17.4695 65.8088 17.8366 66.6345C18.5943 68.3662 20.6194 71.6513 25.4801 73.0982Z" fill="#EDE04B"/>
<path d="M18.7473 64.5781C18.7473 64.5781 24.3235 72.6649 25.3957 73.0205" stroke="#565987" stroke-miterlimit="10"/>
<path d="M18.2345 65.8408H19.5367" stroke="#565987" stroke-miterlimit="10"/>
<path d="M19.7942 68.7998L21.8341 68.8874" stroke="#565987" stroke-miterlimit="10"/>
<path d="M21.0353 66.4326L20.8136 67.4953" stroke="#565987" stroke-miterlimit="10"/>
<path d="M23.2049 69.666L23.1659 70.6327" stroke="#565987" stroke-miterlimit="10"/>
<path d="M34.6021 75.623C34.7468 75.5055 34.8524 75.3469 34.905 75.1682C34.9281 75.0783 34.9198 74.9832 34.8814 74.8987C34.843 74.8143 34.7769 74.7455 34.6939 74.7038C34.4998 74.6299 34.2919 74.764 34.1346 74.9001C33.9774 75.0362 33.798 75.1903 33.5922 75.1618C33.6981 75.066 33.7772 74.9443 33.822 74.8088C33.8668 74.6732 33.8756 74.5283 33.8476 74.3883C33.8386 74.3305 33.8142 74.2761 33.7769 74.231C33.6714 74.116 33.473 74.1656 33.3442 74.2564C32.9337 74.5445 32.8166 75.1006 32.8166 75.6029C32.7754 75.4225 32.8102 75.2336 32.8092 75.0478C32.8081 74.8621 32.7575 74.6574 32.5981 74.5571C32.5009 74.505 32.3918 74.4792 32.2815 74.4822C32.0969 74.4759 31.8921 74.4938 31.7655 74.6289C31.6093 74.7967 31.6494 75.0774 31.7855 75.2621C31.9217 75.4468 32.1296 75.5628 32.3195 75.6842C32.4725 75.7754 32.6031 75.8998 32.7015 76.0483C32.7125 76.0694 32.722 76.0913 32.73 76.1137H33.8856C34.1456 75.9834 34.3866 75.8183 34.6021 75.623Z" fill="#EDE04B"/>
<path d="M14.3584 71.2687C14.5025 71.1505 14.6077 70.9916 14.6602 70.8128C14.6836 70.7227 14.6754 70.6274 14.637 70.5427C14.5986 70.458 14.5323 70.3891 14.4491 70.3474C14.255 70.2735 14.0481 70.4075 13.8909 70.5437C13.7337 70.6798 13.5532 70.8349 13.3474 70.8054C13.4533 70.7096 13.5326 70.588 13.5773 70.4524C13.6221 70.3168 13.6309 70.1719 13.6028 70.0318C13.5938 69.974 13.5694 69.9197 13.5321 69.8746C13.4266 69.7596 13.2292 69.8092 13.0994 69.8999C12.69 70.188 12.5718 70.7442 12.5718 71.2465C12.5306 71.066 12.5654 70.8771 12.5644 70.6925C12.5633 70.5078 12.5127 70.3009 12.3533 70.2007C12.2561 70.1486 12.147 70.1227 12.0367 70.1258C11.8521 70.1194 11.6473 70.1384 11.5207 70.2724C11.3645 70.4402 11.4057 70.722 11.5418 70.9056C11.6779 71.0893 11.8848 71.2064 12.0694 71.3341C12.2224 71.4249 12.353 71.549 12.4515 71.6971C12.4629 71.718 12.4724 71.7399 12.48 71.7625H13.6355C13.8979 71.6317 14.1411 71.4655 14.3584 71.2687Z" fill="#EDE04B"/>
<path d="M21.1049 75.623C21.2495 75.5055 21.3551 75.3469 21.4078 75.1682C21.4309 75.0783 21.4226 74.9832 21.3842 74.8987C21.3458 74.8143 21.2796 74.7455 21.1967 74.7038C21.0025 74.6299 20.7946 74.764 20.6374 74.9001C20.4801 75.0362 20.2997 75.1903 20.0939 75.1618C20.1997 75.0659 20.2789 74.9443 20.3238 74.8088C20.3687 74.6732 20.3779 74.5284 20.3503 74.3883C20.341 74.3304 20.3162 74.276 20.2786 74.231C20.1731 74.116 19.9757 74.1656 19.847 74.2564C19.4365 74.5445 19.3193 75.1006 19.3193 75.6029C19.2771 75.4225 19.3119 75.2336 19.3119 75.0478C19.3119 74.8621 19.2592 74.6574 19.1009 74.5571C19.0037 74.505 18.8945 74.4792 18.7843 74.4822C18.5996 74.4759 18.3938 74.4938 18.2682 74.6289C18.1121 74.7967 18.1522 75.0774 18.2883 75.2621C18.4244 75.4468 18.6313 75.5628 18.8223 75.6842C18.9753 75.7754 19.1058 75.8998 19.2043 76.0483C19.2153 76.0693 19.2245 76.0911 19.2317 76.1137H20.3926C20.6511 75.9831 20.8907 75.818 21.1049 75.623Z" fill="#EDE04B"/>
<path d="M40.2406 66.8232C40.2406 66.8232 40.6733 67.3899 40.0401 68.2458C39.4069 69.1016 38.8845 69.8287 39.0956 70.3564C39.0956 70.3564 40.0517 68.7734 40.8295 68.746C41.6072 68.7186 41.0954 67.7804 40.2406 66.8232Z" fill="#EDE04B"/>
<path opacity="0.1" d="M40.2406 66.8232C40.2781 66.8778 40.3076 66.9375 40.3282 67.0005C41.088 67.8923 41.489 68.7249 40.7629 68.746C40.0833 68.765 39.2676 69.9796 39.0745 70.2867C39.0805 70.3105 39.0882 70.3338 39.0977 70.3564C39.0977 70.3564 40.0538 68.7734 40.8315 68.746C41.6093 68.7186 41.0954 67.7804 40.2406 66.8232Z" fill="black"/>
<path d="M41.0458 67.5446C41.0458 67.7441 41.0236 67.9066 40.9962 67.9066C40.9688 67.9066 40.9456 67.7441 40.9456 67.5446C40.9456 67.3452 40.974 67.4391 41.0015 67.4391C41.0289 67.4391 41.0458 67.3452 41.0458 67.5446Z" fill="#FFD037"/>
<path d="M41.3212 67.7811C41.1461 67.8761 40.993 67.9341 40.9804 67.9098C40.9677 67.8855 41.0986 67.7885 41.2737 67.6987C41.4489 67.609 41.3793 67.6724 41.393 67.6987C41.4067 67.7251 41.4975 67.6893 41.3212 67.7811Z" fill="#FFD037"/>
<path d="M37.9506 66.8232C37.9506 66.8232 37.5179 67.3899 38.1511 68.2458C38.7843 69.1016 39.312 69.8287 39.1009 70.3564C39.1009 70.3564 38.1448 68.7734 37.367 68.746C36.5893 68.7186 37.1 67.7804 37.9506 66.8232Z" fill="#EDE04B"/>
<path opacity="0.1" d="M37.9506 66.8232C37.9129 66.8779 37.8831 66.9376 37.862 67.0005C37.1032 67.8923 36.7011 68.7249 37.4282 68.746C38.1078 68.765 38.9236 69.9796 39.1167 70.2867C39.1107 70.3105 39.103 70.3338 39.0935 70.3564C39.0935 70.3564 38.1374 68.7734 37.3596 68.746C36.5819 68.7186 37.1 67.7804 37.9506 66.8232Z" fill="black"/>
<path d="M37.1454 67.5446C37.1454 67.7441 37.1676 67.9066 37.195 67.9066C37.2225 67.9066 37.2457 67.7441 37.2457 67.5446C37.2457 67.3452 37.2172 67.4391 37.1897 67.4391C37.1623 67.4391 37.1454 67.3452 37.1454 67.5446Z" fill="#FFD037"/>
<path d="M36.8689 67.7811C37.0441 67.8761 37.1971 67.9341 37.2098 67.9098C37.2224 67.8855 37.0916 67.7885 36.9164 67.6987C36.7412 67.609 36.8109 67.6724 36.7971 67.6987C36.7834 67.7251 36.6937 67.6893 36.8689 67.7811Z" fill="#FFD037"/>
<path d="M37.2837 70.2817C37.2837 70.2817 38.4951 70.2447 38.8603 69.9841C39.2254 69.7234 40.7239 69.4142 40.8147 69.831C40.9054 70.2479 42.6361 71.9047 41.2674 71.9163C39.8987 71.9279 38.0889 71.7053 37.7248 71.4815C37.3607 71.2578 37.2837 70.2817 37.2837 70.2817Z" fill="#A8A8A8"/>
<path opacity="0.2" d="M41.2917 71.7713C39.9198 71.7829 38.1132 71.5603 37.7491 71.3365C37.4715 71.1677 37.3607 70.5609 37.327 70.2812H37.2869C37.2869 70.2812 37.3628 71.2585 37.728 71.4811C38.0931 71.7038 39.9029 71.9265 41.2706 71.9159C41.6653 71.9159 41.7983 71.7724 41.7983 71.5645C41.7371 71.6911 41.5861 71.7692 41.2917 71.7713Z" fill="black"/>
</g>
<defs>
<linearGradient id="paint0_linear" x1="80.7419" y1="85.8926" x2="80.7419" y2="21.607" gradientUnits="userSpaceOnUse">
<stop stop-color="#808080" stop-opacity="0.25"/>
<stop offset="0.54" stop-color="#808080" stop-opacity="0.12"/>
<stop offset="1" stop-color="#808080" stop-opacity="0.1"/>
</linearGradient>
<clipPath id="clip0">
<rect width="120" height="87.0188" fill="white"/>
</clipPath>
</defs>
</svg>
