<svg xmlns="http://www.w3.org/2000/svg" viewBox="0 0 756.41 158.78"><g id="Capa_2" data-name="Capa 2"><g id="Imagotipo"><g id="Logotipo"><path d="M22.13,156.35H0V0H22.13V59.82C29.67,46.93,45.47,40.36,62,40.36c31.36,0,57.38,22.86,57.38,59.09,0,36-26.5,59.33-57.63,59.33-15.8,0-32.09-7.29-39.63-19.94Zm37.93-19.21c20.43,0,36.72-15.56,36.72-37.93S80.49,62,60.06,62c-18.48,0-37.69,12.88-37.69,37.2C22.37,123.28,39.88,137.14,60.06,137.14Z"/><path d="M167,156.35H145.15V42.8H167Zm0-134.47H145.15V0H167Z"/><path d="M256.27,42.8V61.52H232.2v94.83H210.07V61.52H189.65V42.8h20.42V0H232.2V42.8Z"/><path d="M370.55,61,301.73,135.2h68.82v21.15H270.61V138.12L338.21,64H274.5V42.8h96.05Z"/><path d="M381.24,99.21c0-36,27-58.85,59.33-58.85s59.57,22.86,59.57,58.85-27.23,59.57-59.57,59.57S381.24,135.2,381.24,99.21Zm96.78,0C478,76.35,460.75,62,440.57,62c-20.67,0-37.45,14.34-37.45,37.2,0,23.34,16.78,38.18,37.45,38.18C460.75,137.39,478,122.55,478,99.21Z"/><path d="M543.17,156.35H521V42.8h22.13v17c6.57-13.62,23.1-19.46,35.5-19.46,28.45,0,43.77,18.24,43.77,50.34v65.65H600.31V92.16c0-19.21-9.48-30.15-25-30.15-16,0-32.1,9-32.1,33.07Z"/><path d="M756.17,108H664c2.67,19.21,17.26,30.88,36.72,30.88,13.61,0,26-6.07,32.58-17.5,5.84,2.67,12.89,4.62,19,7.29-9.72,20.18-30.15,30.15-52.28,30.15-32.33,0-58.11-23.58-58.11-59.57S667.66,40.36,700,40.36s56.42,22.86,56.42,58.85C756.41,101.88,756.41,105.29,756.17,108ZM734.53,90.7c-2.68-19.21-16-30.4-34.54-30.4-18.72,0-33.31,11.19-36,30.4Z"/></g></g></g></svg>