<svg width="54" height="32" viewBox="0 0 54 32" fill="none" xmlns="http://www.w3.org/2000/svg">
<path d="M13.476 8.34292H23.4765V9.13778H14.3927V15.1201H22.9348V15.915H14.3927V22.483H23.5807V23.2779H13.476V8.34292ZM24.3724 8.34292H25.435L30.1436 14.911L34.9563 8.34292L41.5025 0L30.7478 15.6012L36.2897 23.2779H35.1855L30.1436 16.2915L25.0808 23.2779H23.9974L29.581 15.6012L24.3724 8.34292ZM36.6856 9.13778V8.34292H48.0821V9.13778H42.8318V23.2779H41.915V9.13778H36.6856ZM0.964844 8.34292H2.11074L17.912 31.988L11.3821 23.2779L1.92323 9.47245L1.88156 23.2779H0.964844V8.34292ZM47.9897 22.2432C47.8024 22.2432 47.6619 22.098 47.6619 21.9105C47.6619 21.723 47.8024 21.5778 47.9897 21.5778C48.1792 21.5778 48.3175 21.723 48.3175 21.9105C48.3175 22.098 48.1792 22.2432 47.9897 22.2432ZM48.8905 21.368H49.381C49.3877 21.6337 49.5817 21.8123 49.8671 21.8123C50.1859 21.8123 50.3665 21.6203 50.3665 21.2608V18.9836H50.866V21.2631C50.866 21.9105 50.4914 22.2833 49.8715 22.2833C49.2896 22.2833 48.8905 21.9217 48.8905 21.368ZM51.5193 21.339H52.0142C52.0566 21.6448 52.3554 21.8391 52.7857 21.8391C53.187 21.8391 53.4814 21.6314 53.4814 21.3457C53.4814 21.1001 53.2941 20.9527 52.8682 20.8523L52.4535 20.7518C51.8715 20.6156 51.6062 20.3343 51.6062 19.861C51.6062 19.2872 52.0744 18.9055 52.7768 18.9055C53.4301 18.9055 53.9072 19.2872 53.9362 19.8297H53.4501C53.4033 19.5328 53.1447 19.3475 52.7701 19.3475C52.3755 19.3475 52.1124 19.5373 52.1124 19.8275C52.1124 20.0575 52.2818 20.1892 52.701 20.2874L53.0555 20.3745C53.7155 20.5285 53.9875 20.7964 53.9875 21.2809C53.9875 21.8971 53.5104 22.2833 52.7478 22.2833C52.0343 22.2833 51.5549 21.915 51.5193 21.339Z" fill="black"/>
</svg>
