<svg width="32" height="32" viewBox="0 0 32 32" fill="none" xmlns="http://www.w3.org/2000/svg">
<g clip-path="url(#clip0)">
<path d="M31.5374 19.1598C31.3513 18.5963 30.864 18.2039 30.2337 18.1097C29.9365 18.0654 29.5962 18.0843 29.1935 18.1673C28.4915 18.3121 27.9707 18.3673 27.5906 18.3779C29.0252 15.9558 30.1918 13.1936 30.8634 10.5935C31.9493 6.38919 31.369 4.47387 30.6909 3.60753C28.8963 1.31443 26.278 0.0825511 23.1193 0.0448579C21.4343 0.0242539 19.955 0.356948 19.1834 0.596197C18.4649 0.469422 17.6924 0.398641 16.8818 0.385551C15.3623 0.361311 14.0198 0.692551 12.8726 1.37333C12.2375 1.15856 11.2182 0.855807 10.0411 0.662614C7.2727 0.208114 5.04142 0.562261 3.40934 1.71524C1.43306 3.11122 0.516913 5.53667 0.68635 8.92421C0.740163 9.99974 1.3418 13.2721 2.28909 16.3756C2.83352 18.1594 3.41407 19.6407 4.01461 20.7788C4.86628 22.3926 5.77758 23.3429 6.80063 23.6842C7.37402 23.8752 8.41586 24.009 9.51162 23.0964C9.65052 23.2646 9.83583 23.4317 10.0817 23.587C10.3941 23.7839 10.776 23.9449 11.1574 24.0403C12.5319 24.3839 13.8194 24.2979 14.9179 23.8163C14.9246 24.0117 14.9299 24.1983 14.9342 24.3595C14.9415 24.6209 14.9488 24.8773 14.9583 25.117C15.0234 26.7379 15.1337 27.9983 15.4605 28.8802C15.4784 28.9286 15.5025 29.0026 15.528 29.081C15.691 29.5801 15.9636 30.4156 16.6571 31.07C17.3752 31.7479 18.2438 31.9557 19.0394 31.9557C19.4384 31.9557 19.819 31.9034 20.153 31.8319C21.3431 31.5767 22.6949 31.1882 23.6727 29.7958C24.5972 28.4796 25.0466 26.4971 25.128 23.3734C25.1385 23.2851 25.1482 23.2007 25.1575 23.1204L25.1769 22.9553L25.3947 22.9744L25.4508 22.9782C26.6631 23.0335 28.1453 22.7764 29.0557 22.3535C29.775 22.0198 32.0801 20.8028 31.5374 19.1598Z" fill="black"/>
<path d="M29.4647 19.4794C25.8602 20.2229 25.6124 19.0026 25.6124 19.0026C29.418 13.3555 31.009 6.18735 29.6362 4.43298C25.8906 -0.352598 19.4071 1.91069 19.2988 1.96935L19.264 1.97565C18.5519 1.82779 17.755 1.7398 16.8592 1.72513C15.2283 1.69847 13.9911 2.15273 13.0523 2.86466C13.0523 2.86466 1.48618 -1.9002 2.02419 8.85727C2.1386 11.1458 5.30434 26.1735 9.08021 21.6344C10.4603 19.9746 11.7939 18.5712 11.7939 18.5712C12.4561 19.0112 13.249 19.2356 14.0802 19.155L14.1448 19.1002C14.1247 19.3063 14.1339 19.5078 14.1706 19.7465C13.1979 20.8333 13.4838 21.0241 11.5392 21.4244C9.57155 21.8299 10.7274 22.5518 11.4821 22.7406C12.3971 22.9693 14.5137 23.2934 15.9439 21.2913L15.8869 21.5198C16.268 21.8251 16.5356 23.5054 16.4907 25.0287C16.4459 26.552 16.416 27.5978 16.7162 28.4147C17.0166 29.2316 17.3159 31.0696 19.8722 30.5219C22.0081 30.0641 23.115 28.8779 23.2691 26.8992C23.3783 25.4926 23.6257 25.7006 23.6412 24.4429L23.8396 23.8475C24.0683 21.9407 23.8759 21.3255 25.1918 21.6116L25.5118 21.6397C26.4802 21.6837 27.7479 21.4839 28.492 21.1381C30.094 20.3947 31.0442 19.1532 29.4645 19.4794H29.4647Z" fill="#336791"/>
<path d="M13.7293 9.88094C13.4045 9.83573 13.1103 9.87754 12.9615 9.99026C12.8779 10.0537 12.8519 10.1271 12.8449 10.1776C12.8262 10.3116 12.92 10.4597 12.9777 10.536C13.1409 10.7523 13.3791 10.9009 13.615 10.9336C13.6492 10.9384 13.6832 10.9406 13.717 10.9406C14.1103 10.9406 14.468 10.6343 14.4995 10.4083C14.5389 10.1252 14.1279 9.93645 13.7293 9.88106V9.88094ZM24.4899 9.88991C24.4589 9.66798 24.064 9.60472 23.6893 9.65683C23.315 9.70895 22.9521 9.87791 22.9824 10.1003C23.0067 10.2733 23.319 10.5685 23.6886 10.5685C23.7199 10.5685 23.7514 10.5665 23.7832 10.562C24.0299 10.5278 24.211 10.3711 24.2971 10.2808C24.428 10.1431 24.5038 9.98966 24.4899 9.88991Z" fill="white"/>
<path d="M30.6642 19.3947C30.5267 18.9791 30.0844 18.8454 29.3494 18.9972C27.1672 19.4476 26.3857 19.1356 26.1291 18.9466C27.8253 16.3627 29.2207 13.2391 29.9735 10.3248C30.33 8.94436 30.527 7.66231 30.5431 6.61732C30.5609 5.47041 30.3655 4.62758 29.9627 4.11273C28.3383 2.03718 25.9543 0.923833 23.0686 0.89329C21.0846 0.87099 19.4084 1.3787 19.0835 1.52147C18.3992 1.35131 17.6532 1.24683 16.841 1.2335C15.3517 1.20938 14.0643 1.56595 12.9985 2.29279C12.5355 2.12044 11.339 1.70969 9.87577 1.47396C7.34608 1.06673 5.33585 1.3753 3.90132 2.39156C2.18961 3.60429 1.39938 5.77207 1.55246 8.83456C1.60397 9.86488 2.19106 13.0345 3.11752 16.07C4.33703 20.0652 5.66272 22.3269 7.0575 22.7922C7.22076 22.8466 7.40898 22.8847 7.6166 22.8847C8.1254 22.8847 8.74921 22.6554 9.39824 21.8751C10.1899 20.9254 11.0088 19.9988 11.8539 19.0964C12.4022 19.3907 13.0046 19.5551 13.6206 19.5715C13.6218 19.5877 13.6234 19.6038 13.6249 19.6198C13.5188 19.7462 13.415 19.8745 13.3134 20.0046C12.8865 20.5465 12.7977 20.6593 11.4236 20.9422C11.0328 21.0229 9.99467 21.2368 9.9794 21.9645C9.96291 22.7596 11.2066 23.0935 11.3482 23.1289C11.842 23.2525 12.3177 23.3135 12.7714 23.3135C13.8747 23.3135 14.8456 22.9508 15.6215 22.2492C15.5976 25.0836 15.7158 27.8765 16.0561 28.7275C16.3349 29.4241 17.0158 31.1266 19.1666 31.1265C19.4822 31.1265 19.8296 31.0898 20.2117 31.0079C22.4565 30.5267 23.4313 29.5345 23.8084 27.3472C24.0102 26.1783 24.3564 23.3869 24.5193 21.8896C24.863 21.9969 25.3055 22.046 25.7839 22.0458C26.7817 22.0458 27.9329 21.8339 28.6549 21.4987C29.466 21.1221 30.9296 20.1978 30.6642 19.3947ZM25.3185 9.27694C25.3111 9.71895 25.2503 10.1202 25.1858 10.5391C25.1164 10.9896 25.0446 11.4554 25.0265 12.0208C25.0087 12.571 25.0775 13.1431 25.1439 13.6964C25.2782 14.8138 25.416 15.9643 24.8826 17.0994C24.794 16.9424 24.715 16.7802 24.6462 16.6135C24.5799 16.4528 24.4359 16.1947 24.2366 15.8374C23.461 14.4465 21.6448 11.1894 22.5745 9.86027C22.8515 9.46467 23.5543 9.05793 25.3185 9.27694ZM23.1801 1.78835C25.7657 1.84544 27.8111 2.81273 29.2592 4.66322C30.3699 6.08259 29.1469 12.541 25.6062 18.1127C25.5706 18.0674 25.5348 18.0223 25.4989 17.9773L25.454 17.9213C26.369 16.4103 26.1901 14.9153 26.0308 13.5898C25.9654 13.0459 25.9036 12.5321 25.9193 12.0495C25.9356 11.538 26.0032 11.0993 26.0686 10.6751C26.149 10.1524 26.2308 9.61145 26.2083 8.97381C26.2251 8.90691 26.2319 8.82789 26.223 8.73408C26.1655 8.12263 25.4674 6.29263 24.0445 4.63631C23.2661 3.73034 22.1311 2.7165 20.5813 2.03269C21.2479 1.89452 22.1594 1.76569 23.1801 1.78835ZM8.7114 21.304C7.99632 22.1638 7.50255 21.9989 7.34014 21.9449C6.28206 21.5919 5.0543 19.3556 3.97186 15.8093C3.03522 12.7407 2.48788 9.65508 2.44449 8.78983C2.30778 6.05338 2.97111 4.1463 4.41618 3.12143C6.76795 1.45372 10.6345 2.45192 12.1882 2.95817C12.1659 2.98023 12.1426 3.00084 12.1205 3.02326C9.57095 5.59803 9.63143 9.99711 9.63773 10.266C9.63749 10.3698 9.64622 10.5167 9.6581 10.7187C9.70197 11.4587 9.78366 12.8357 9.5655 14.3952C9.36285 15.8444 9.8096 17.2628 10.791 18.2868C10.8917 18.3917 10.9975 18.4915 11.1081 18.5859C10.6713 19.0538 9.72197 20.0883 8.7114 21.304ZM11.4359 17.6688C10.6449 16.8435 10.2857 15.6954 10.4501 14.5188C10.6804 12.8715 10.5955 11.4367 10.5498 10.6659C10.5433 10.558 10.5376 10.4635 10.5344 10.3889C10.9068 10.0587 12.6328 9.13392 13.8637 9.41595C14.4254 9.54455 14.7677 9.92705 14.91 10.5849C15.6464 13.991 15.0074 15.4106 14.494 16.5515C14.3882 16.7865 14.2882 17.0086 14.2029 17.2384L14.1367 17.4161C13.9692 17.8653 13.8133 18.2829 13.7167 18.6795C12.8758 18.6771 12.0579 18.3179 11.4359 17.6687V17.6688ZM11.5649 22.2623C11.3194 22.201 11.0986 22.0944 10.969 22.0061C11.0772 21.9552 11.2698 21.8859 11.6038 21.817C13.2203 21.4843 13.47 21.2494 14.0151 20.5573C14.1401 20.3985 14.2818 20.2186 14.478 19.9995L14.4782 19.9993C14.7704 19.672 14.9041 19.7275 15.1465 19.8281C15.343 19.9093 15.5344 20.1556 15.6119 20.4266C15.6487 20.5546 15.6899 20.7975 15.555 20.9866C14.4162 22.5811 12.7567 22.5606 11.5649 22.2623ZM20.0246 30.1345C18.0471 30.5582 17.3469 29.5492 16.8855 28.3958C16.5877 27.6511 16.4413 24.2931 16.5452 20.5848C16.5465 20.5354 16.5395 20.4878 16.5259 20.443C16.5138 20.3544 16.4953 20.2668 16.4706 20.1809C16.3162 19.6414 15.9399 19.19 15.4884 19.0029C15.3091 18.9286 14.9799 18.7922 14.5843 18.8934C14.6686 18.5458 14.8149 18.1533 14.9736 17.7282L15.0401 17.5494C15.115 17.3479 15.2091 17.1391 15.3085 16.918C15.8457 15.7244 16.5815 14.0895 15.783 10.3962C15.4838 9.01284 14.4849 8.33727 12.9706 8.49423C12.0628 8.58816 11.2322 8.95442 10.818 9.16446C10.7289 9.20955 10.6475 9.25318 10.5713 9.2956C10.687 7.9018 11.1238 5.29697 12.7578 3.64889C13.7867 2.61142 15.1568 2.09899 16.8263 2.12662C20.1156 2.18043 22.225 3.86851 23.4154 5.27528C24.4413 6.4874 24.9967 7.70849 25.2184 8.36709C23.5513 8.19753 22.4175 8.52659 21.8427 9.34832C20.5923 11.1358 22.5268 14.605 23.4565 16.2724C23.627 16.5779 23.7742 16.842 23.8205 16.9542C24.1232 17.688 24.5152 18.1779 24.8014 18.5354C24.8891 18.645 24.9742 18.7513 25.0389 18.8441C24.534 18.9897 23.627 19.326 23.7097 21.0072C23.643 21.8507 23.169 25.8001 22.9282 27.1955C22.6103 29.039 21.9319 29.7256 20.0246 30.1346V30.1345ZM28.2788 20.6886C27.7625 20.9283 26.8985 21.108 26.0777 21.1467C25.1711 21.1891 24.7096 21.0451 24.601 20.9565C24.5501 19.9088 24.94 19.7994 25.3527 19.6835C25.4175 19.6654 25.4808 19.6475 25.5419 19.6262C25.5798 19.6571 25.6214 19.6878 25.667 19.7178C26.3956 20.1988 27.6953 20.2506 29.5301 19.8719L29.5502 19.8679C29.3027 20.0992 28.8793 20.4098 28.2788 20.6886Z" fill="white"/>
</g>
<defs>
<clipPath id="clip0">
<rect width="31.0272" height="32" fill="white" transform="translate(0.630493)"/>
</clipPath>
</defs>
</svg>
