<svg width="150" height="103" viewBox="0 0 150 103" fill="none" xmlns="http://www.w3.org/2000/svg">
<g clip-path="url(#clip0)">
<path d="M87.8469 75.358C108.535 75.358 125.307 58.5867 125.307 37.8982C125.307 17.2098 108.535 0.438477 87.8469 0.438477C67.1584 0.438477 50.3871 17.2098 50.3871 37.8982C50.3871 58.5867 67.1584 75.358 87.8469 75.358Z" fill="#F2F2F2"/>
<path d="M21.1272 91.0083C22.1447 91.366 23.2372 91.4556 24.2994 91.2684C25.3616 91.0813 26.3577 90.6238 27.1917 89.94C29.3158 88.1572 29.9818 85.22 30.5237 82.5003L32.1264 74.4561L28.7709 76.7666C26.3577 78.4281 23.8903 80.143 22.2194 82.5497C20.5486 84.9564 19.8193 88.2418 21.1617 90.846" fill="#E6E6E6"/>
<path d="M21.414 100.747C21.0743 98.2735 20.7251 95.7678 20.9633 93.2675C21.1749 91.0469 21.8524 88.8779 23.2317 87.0996C23.9638 86.1574 24.8546 85.3502 25.8641 84.7142C26.1274 84.548 26.3696 84.9652 26.1075 85.1306C24.3608 86.2346 23.0097 87.8647 22.2492 89.786C21.4092 91.9225 21.2743 94.2516 21.419 96.5212C21.5066 97.8938 21.6921 99.2573 21.8791 100.619C21.8938 100.681 21.8846 100.746 21.8533 100.801C21.8221 100.856 21.7711 100.897 21.7106 100.916C21.649 100.932 21.5832 100.924 21.5277 100.892C21.4722 100.861 21.4313 100.809 21.414 100.747Z" fill="#F2F2F2"/>
<path d="M43.8902 97.3389C44.2874 97.8081 44.7987 98.167 45.3749 98.3812C45.9511 98.5954 46.5727 98.6576 47.1799 98.5618C48.7382 98.2975 49.9123 97.0453 50.9627 95.8643L54.0695 92.3711L51.7537 92.5399C50.0882 92.6612 48.3807 92.7931 46.8655 93.4948C45.3502 94.1965 44.0446 95.6016 43.954 97.269" fill="#E6E6E6"/>
<path d="M41.2233 102.211C41.7694 100.897 42.32 99.5639 43.1578 98.4032C43.902 97.3724 44.8603 96.5013 46.051 96.0245C46.6826 95.7723 47.3533 95.6322 48.0329 95.6104C48.2103 95.6046 48.2091 95.8796 48.0326 95.8854C46.8555 95.9247 45.7214 96.3367 44.7936 97.0621C43.7647 97.8705 43.0271 98.9767 42.444 100.134C42.0914 100.834 41.7896 101.558 41.4889 102.282C41.4784 102.316 41.4552 102.346 41.424 102.364C41.3927 102.382 41.3558 102.387 41.3206 102.379C41.2855 102.37 41.2556 102.346 41.2374 102.315C41.2192 102.283 41.2141 102.246 41.2233 102.211H41.2233Z" fill="#F2F2F2"/>
<path d="M24.6853 96.3695C25.1217 97.0327 25.7216 97.5724 26.4271 97.9366C27.1326 98.3007 27.92 98.477 28.7134 98.4485C30.7525 98.3517 32.4524 96.9285 33.9827 95.5774L38.509 91.5811L35.5134 91.4377C33.3591 91.3347 31.1492 91.2385 29.0973 91.9028C27.0455 92.5672 25.1531 94.166 24.7779 96.2898" fill="#E6E6E6"/>
<path d="M20.4544 102.169C22.0891 99.2764 23.9852 96.0617 27.3732 95.0343C28.3152 94.7496 29.303 94.6476 30.2833 94.7338C30.5923 94.7604 30.5151 95.2367 30.2067 95.2101C28.5635 95.0737 26.9234 95.5076 25.5626 96.4388C24.2531 97.3301 23.2335 98.5693 22.3706 99.8834C21.842 100.688 21.3685 101.527 20.895 102.365C20.7436 102.633 20.3013 102.44 20.4544 102.169Z" fill="#F2F2F2"/>
<path d="M91.0502 52.7983C94.3005 51.0119 98.3458 51.3704 101.848 52.5918C105.35 53.8132 108.523 55.8142 111.924 57.2942C122.316 61.8168 134.842 61.0875 144.639 55.3894C145.566 57.5447 144.572 60.01 143.48 62.0865C142.388 64.1629 141.143 66.4135 141.593 68.7161C142.168 71.6625 145.257 73.4291 146.509 76.1578C147.697 78.7481 147.06 81.7901 146.148 84.4902C145.236 87.1903 144.053 89.9106 144.208 92.7562C144.363 95.6019 146.431 98.6109 149.28 98.6131C145.057 99.2694 140.751 99.926 136.53 99.2535C132.309 98.581 128.11 96.3487 126.151 92.5505C125.171 90.652 124.794 88.4691 123.669 86.653C121.753 83.5597 118.075 82.105 114.606 81.0087C111.136 79.9123 107.423 78.8562 104.98 76.1595C102.652 73.59 101.915 70.0106 100.682 66.7703C98.605 61.3461 94.9976 56.6417 90.298 53.2285" fill="#7F52DD"/>
<path d="M94.8161 39.3351C93.6751 38.8043 92.2742 38.6303 91.1132 39.1236C89.9523 39.6168 89.1608 40.881 89.5362 41.9999C89.7064 42.5072 90.094 43.0061 89.943 43.5184C89.8268 43.9127 89.4212 44.1731 89.023 44.3582C88.6247 44.5433 88.1891 44.699 87.9011 45.0112C87.613 45.3234 87.553 45.8609 87.9128 46.103C88.0313 46.1828 88.1795 46.2206 88.2944 46.3047C88.3924 46.3843 88.4631 46.4925 88.4966 46.6142C88.5302 46.7358 88.5249 46.865 88.4816 46.9835C88.3858 47.2221 88.2275 47.4304 88.0233 47.5865C87.6148 47.9388 87.075 48.3419 87.2018 48.8419C87.2489 48.9756 87.3275 49.0959 87.431 49.1927C87.5344 49.2894 87.6597 49.3598 87.7962 49.3979C88.0796 49.4796 88.3737 49.5184 88.6687 49.513L100.721 49.8927C101.119 49.9226 101.519 49.9002 101.911 49.8262C102.102 49.7915 102.283 49.7178 102.444 49.6097C102.605 49.5017 102.741 49.3617 102.846 49.1984C103.076 48.7712 102.925 48.2449 102.64 47.846C102.355 47.4471 101.951 47.1324 101.618 46.7661C101.285 46.3998 101.012 45.9425 101.071 45.4691C101.118 45.0901 101.368 44.7625 101.547 44.4182C101.727 44.0738 101.831 43.6435 101.599 43.3267C101.271 42.8803 100.485 42.9207 100.113 42.5047C99.8315 42.1908 99.8858 41.7389 99.8579 41.3341C99.7907 40.3604 99.1165 39.4408 98.1569 39.0138C97.6689 38.8043 97.1381 38.7138 96.6083 38.7499C96.0784 38.786 95.5648 38.9476 95.1097 39.2213L94.8161 39.3351Z" fill="#2F2E41"/>
<path d="M87.1999 100.453L85.3123 99.8859L86.6015 92.335L89.3875 93.1721L87.1999 100.453Z" fill="#A0616A"/>
<path d="M87.1318 102.428L81.0453 100.6L81.0684 100.523C81.1618 100.212 81.3157 99.9219 81.5211 99.6703C81.7265 99.4186 81.9794 99.2099 82.2655 99.056C82.5516 98.9021 82.8652 98.806 83.1884 98.7733C83.5116 98.7406 83.8381 98.7719 84.1492 98.8654L84.1493 98.8654L87.8668 99.9823L87.1318 102.428Z" fill="#2F2E41"/>
<path d="M105.013 100.517L103.042 100.517L102.105 92.9141L105.014 92.9142L105.013 100.517Z" fill="#A0616A"/>
<path d="M105.516 102.428L99.1602 102.428V102.348C99.1602 102.023 99.2241 101.701 99.3485 101.401C99.4728 101.101 99.655 100.828 99.8847 100.599C100.114 100.369 100.387 100.187 100.687 100.062C100.987 99.938 101.309 99.874 101.634 99.874H101.634L105.516 99.8742L105.516 102.428Z" fill="#2F2E41"/>
<path d="M102.277 94.7675C102.105 94.7674 101.939 94.7061 101.808 94.5945C101.677 94.4829 101.59 94.3283 101.563 94.1585L98.6363 75.9021C98.6169 75.7812 98.5586 75.6699 98.4702 75.5851C98.3819 75.5003 98.2682 75.4467 98.1466 75.4323C98.025 75.418 97.902 75.4437 97.7963 75.5056C97.6906 75.5675 97.608 75.6622 97.561 75.7752L89.9788 94.0286C89.9082 94.1972 89.7767 94.3329 89.6104 94.4087C89.4442 94.4845 89.2555 94.4948 89.0819 94.4376L86.3433 93.5247C86.1728 93.4684 86.0294 93.3505 85.9412 93.1941C85.853 93.0376 85.8263 92.8539 85.8664 92.6789L92.0801 65.1835C92.1105 65.051 92.1774 64.9297 92.2732 64.8334C92.369 64.737 92.4899 64.6694 92.6222 64.6382L100.955 62.7038C101.058 62.6805 101.164 62.6795 101.267 62.7009C101.37 62.7222 101.467 62.7654 101.551 62.8275C107.039 66.8144 106.575 79.8405 105.552 93.9847C105.54 94.1617 105.462 94.3279 105.335 94.4516C105.208 94.5754 105.039 94.648 104.862 94.6557L102.309 94.7669C102.298 94.7672 102.287 94.7675 102.277 94.7675Z" fill="#2F2E41"/>
<path d="M95.262 49.8007C97.4428 49.8007 99.2107 48.0328 99.2107 45.852C99.2107 43.6712 97.4428 41.9033 95.262 41.9033C93.0812 41.9033 91.3133 43.6712 91.3133 45.852C91.3133 48.0328 93.0812 49.8007 95.262 49.8007Z" fill="#A0616A"/>
<path d="M95.4326 66.3174C94.4848 66.3114 93.55 66.0953 92.6957 65.6849L92.6663 65.6712L92.6547 65.6409L89.1129 56.4647L89.0456 54.8703C89.023 54.3371 89.1124 53.8051 89.3079 53.3086C89.5034 52.812 89.8007 52.3619 90.1806 51.9872C90.5606 51.6125 91.0149 51.3216 91.5141 51.1331C92.0134 50.9446 92.5466 50.8627 93.0794 50.8928L96.8395 51.1046C97.8107 51.1598 98.7245 51.5831 99.3946 52.2883C100.065 52.9935 100.441 53.9276 100.447 54.9005C100.544 55.0881 101.238 56.5551 99.8786 57.9334C99.8278 58.2473 99.3524 61.5101 101.147 63.3044L101.197 63.3548L101.153 63.4108C101.124 63.4472 98.8201 66.317 95.4326 66.3174Z" fill="#3F3D56"/>
<path d="M100.713 67.0097C100.935 66.9291 101.137 66.8008 101.304 66.6338C101.471 66.4668 101.6 66.2652 101.681 66.0431C101.761 65.821 101.793 65.5839 101.772 65.3485C101.751 65.113 101.679 64.885 101.561 64.6804L105.316 60.3326L102.356 59.9473L99.2436 64.1351C98.913 64.3566 98.6753 64.6918 98.5753 65.0769C98.4754 65.4621 98.5202 65.8705 98.7013 66.2249C98.8823 66.5792 99.1871 66.8548 99.5578 66.9994C99.9285 67.1441 100.339 67.1477 100.713 67.0097Z" fill="#A0616A"/>
<path d="M103.061 63.654C102.92 63.654 102.782 63.6126 102.664 63.535L100.807 62.3168C100.651 62.2148 100.54 62.0563 100.498 61.8746C100.456 61.6928 100.486 61.5019 100.582 61.3418L101.926 59.0827C101.999 58.9605 102.045 58.8243 102.062 58.683C102.078 58.5417 102.064 58.3985 102.021 58.2629C101.979 58.1273 101.907 58.0023 101.813 57.8961C101.718 57.7899 101.602 57.7049 101.472 57.6468L97.6094 55.9149C97.1343 55.6992 96.7465 55.3286 96.5096 54.8637C96.2726 54.3989 96.2006 53.8673 96.3052 53.3562C96.3774 53.0115 96.5282 52.6881 96.7458 52.4112C96.9634 52.1342 97.2419 51.9112 97.5597 51.7595C97.8776 51.6078 98.2261 51.5314 98.5783 51.5364C98.9304 51.5413 99.2767 51.6274 99.5901 51.788L105.451 54.791C105.846 54.9936 106.193 55.2793 106.468 55.6284C106.742 55.9775 106.938 56.3819 107.042 56.8138C107.146 57.2457 107.155 57.695 107.07 58.1309C106.984 58.5667 106.805 58.9789 106.545 59.3391L103.648 63.3535C103.581 63.4466 103.493 63.5224 103.391 63.5746C103.289 63.6269 103.176 63.6541 103.061 63.654Z" fill="#3F3D56"/>
<path d="M91.2223 45.2907C92.4694 45.1906 93.5047 43.9449 93.375 42.7006C93.3604 43.2134 93.5348 43.7138 93.8651 44.1065C94.1954 44.4991 94.6584 44.7567 95.1662 44.8301C95.7382 44.8931 96.3653 44.7201 96.8632 45.0086C97.4147 45.3283 97.5911 46.1044 98.1656 46.3805C98.7207 46.6472 99.4257 46.2834 99.6999 45.732C99.9742 45.1806 99.9069 44.5182 99.7251 43.9298C99.466 43.0907 98.994 42.3329 98.3552 41.7302C97.7164 41.1275 96.9325 40.7004 96.0798 40.4904C95.227 40.2804 94.3344 40.2947 93.4888 40.5318C92.6432 40.769 91.8733 41.2209 91.2541 41.8438C90.7298 42.3712 90.3134 43.0433 90.2459 43.784C90.1784 44.5246 90.522 45.3282 91.1871 45.661L91.2223 45.2907Z" fill="#2F2E41"/>
<path d="M82.0361 34.352C82.2442 34.4642 82.4251 34.6206 82.5662 34.8102C82.7073 34.9998 82.805 35.2181 82.8526 35.4496C82.9002 35.6811 82.8964 35.9202 82.8416 36.1501C82.7868 36.38 82.6822 36.5951 82.5353 36.7802L85.6155 41.6299L82.6304 41.5787L80.1631 36.9813C79.8685 36.7138 79.6822 36.3475 79.6395 35.9519C79.5969 35.5563 79.7009 35.1588 79.9318 34.8347C80.1627 34.5106 80.5044 34.2824 80.8923 34.1935C81.2801 34.1045 81.6871 34.1609 82.0361 34.352V34.352Z" fill="#A0616A"/>
<path d="M84.5187 37.8054L88.4855 47.1787L92.6444 54.2308C92.82 54.5285 92.9256 54.8622 92.9533 55.2067C92.981 55.5512 92.93 55.8975 92.8043 56.2194C92.6786 56.5413 92.4813 56.8305 92.2275 57.065C91.9736 57.2995 91.6698 57.4733 91.3389 57.5732C90.8142 57.7289 90.2511 57.6919 89.7513 57.4687C89.2515 57.2455 88.848 56.851 88.6137 56.3563L80.5981 39.229C80.5546 39.1359 80.5313 39.0346 80.53 38.9319C80.5286 38.8292 80.5491 38.7274 80.5902 38.6332C80.6312 38.539 80.6919 38.4547 80.7681 38.3858C80.8443 38.3169 80.9343 38.265 81.0321 38.2335L83.6311 37.3986C83.6804 37.3828 83.7312 37.3722 83.7826 37.3669C83.9361 37.3514 84.0905 37.3857 84.2231 37.4646C84.3556 37.5436 84.4592 37.663 84.5187 37.8054Z" fill="#3F3D56"/>
<path d="M121.704 102.562H0.160772C0.118132 102.562 0.0772393 102.545 0.0470888 102.515C0.0169383 102.485 0 102.444 0 102.401C0 102.358 0.0169383 102.317 0.0470888 102.287C0.0772393 102.257 0.118132 102.24 0.160772 102.24H121.704C121.747 102.24 121.788 102.257 121.818 102.287C121.848 102.317 121.865 102.358 121.865 102.401C121.865 102.444 121.848 102.485 121.818 102.515C121.788 102.545 121.747 102.562 121.704 102.562Z" fill="#CCCCCC"/>
<path d="M96.1185 17.8356V31.0188C96.1185 31.0615 96.1016 31.1024 96.0714 31.1325C96.0413 31.1627 96.0004 31.1796 95.9577 31.1796C95.9151 31.1796 95.8742 31.1627 95.8441 31.1325C95.8139 31.1024 95.797 31.0615 95.797 31.0188V17.8356C95.797 17.7929 95.8139 17.752 95.8441 17.7219C95.8742 17.6917 95.9151 17.6748 95.9577 17.6748C96.0004 17.6748 96.0413 17.6917 96.0714 17.7219C96.1016 17.752 96.1185 17.7929 96.1185 17.8356Z" fill="#CCCCCC"/>
<path d="M110.077 29.0198L105.53 33.5671C105.5 33.5972 105.459 33.614 105.416 33.614C105.374 33.6139 105.333 33.597 105.303 33.5669C105.273 33.5368 105.256 33.4959 105.256 33.4534C105.256 33.4108 105.273 33.3699 105.303 33.3398L109.85 28.7925C109.865 28.7775 109.883 28.7656 109.902 28.7575C109.922 28.7493 109.942 28.7451 109.964 28.7451C109.985 28.7451 110.006 28.7492 110.025 28.7573C110.045 28.7654 110.063 28.7773 110.077 28.7922C110.092 28.8072 110.104 28.8249 110.112 28.8444C110.12 28.864 110.125 28.8849 110.125 28.9061C110.125 28.9272 110.12 28.9481 110.112 28.9677C110.104 28.9872 110.092 29.0049 110.077 29.0198Z" fill="#CCCCCC"/>
<path d="M81.8377 29.0198L86.3851 33.5671C86.4152 33.5973 86.4561 33.6142 86.4988 33.6142C86.5414 33.6142 86.5823 33.5973 86.6124 33.5671C86.6426 33.537 86.6595 33.4961 86.6595 33.4535C86.6595 33.4108 86.6426 33.3699 86.6124 33.3398L82.0651 28.7925C82.0502 28.7775 82.0324 28.7656 82.0129 28.7575C81.9934 28.7493 81.9725 28.7451 81.9513 28.7451C81.9302 28.7451 81.9092 28.7492 81.8897 28.7573C81.8702 28.7654 81.8524 28.7773 81.8375 28.7922C81.8225 28.8072 81.8107 28.8249 81.8026 28.8444C81.7945 28.864 81.7904 28.8849 81.7904 28.9061C81.7904 28.9272 81.7946 28.9481 81.8027 28.9677C81.8108 28.9872 81.8227 29.0049 81.8377 29.0198Z" fill="#CCCCCC"/>
</g>
<defs>
<clipPath id="clip0">
<rect width="149.28" height="102.124" fill="white" transform="translate(0 0.438477)"/>
</clipPath>
</defs>
</svg>
