<svg width="33" height="32" viewBox="0 0 33 32" fill="none" xmlns="http://www.w3.org/2000/svg">
<path fill-rule="evenodd" clip-rule="evenodd" d="M28.8346 1.06844C30.1206 1.75117 31.1718 2.80477 31.8515 4.09244C32.5475 5.39644 32.9181 6.68978 32.9181 10.2551V16.5173C32.9181 16.5982 32.8693 16.671 32.7946 16.7019C32.72 16.7329 32.634 16.7158 32.5768 16.6587V16.6578L30.2168 14.2933C30.0294 14.1056 29.9242 13.8511 29.9244 13.5858V10.6916C29.9244 8.01689 29.6461 7.04711 29.1244 6.06933C28.6144 5.10368 27.8259 4.31364 26.8612 3.80178C25.8964 3.28373 24.9385 3.00588 22.3334 3.00009L18.4319 3C18.3512 2.99957 18.2787 2.95071 18.248 2.8761C18.2173 2.8015 18.2345 2.71575 18.2915 2.65867L20.6515 0.293333C20.8381 0.105778 21.0924 0 21.3572 0H22.6844C26.2426 0 27.5332 0.371556 28.8346 1.06844ZM23.9377 5C26.1421 5 27.9288 6.79111 27.9288 9V11.5324C27.9284 11.6122 27.8806 11.6842 27.8072 11.7155C27.7338 11.7467 27.6489 11.7315 27.591 11.6764L24.3732 8.59378C24.1599 8.38044 23.911 8.22578 23.6452 8.12889C23.4197 8.04347 23.1806 7.99979 22.9395 8H13.4408C13.36 7.99993 13.2871 7.9512 13.2562 7.87651C13.2253 7.80182 13.2423 7.71586 13.2995 7.65867L15.663 5.29244C15.8497 5.10578 16.103 5 16.3679 5H23.9377Z" fill="#E55638"/>
<path fill-rule="evenodd" clip-rule="evenodd" d="M30.2649 17.3426L32.6258 19.7079C32.8124 19.8955 32.9182 20.1506 32.9182 20.4155V21.7461C32.9182 25.3115 32.5475 26.6048 31.8515 27.9088C31.1718 29.1965 30.1207 30.2501 28.8347 30.9328C27.5333 31.6288 26.2427 32.0004 22.6844 32.0004H16.4364C16.3558 31.9999 16.2832 31.9511 16.2525 31.8765C16.2218 31.8019 16.239 31.7161 16.296 31.659V31.6599L18.656 29.2946C18.8427 29.107 19.0969 29.0013 19.3618 29.0013H22.2498C24.9182 29.0013 25.8853 28.723 26.8613 28.1995C27.826 27.6876 28.6145 26.8976 29.1244 25.9319C29.6462 24.9541 29.9244 23.9844 29.9244 21.3097V17.4839C29.9249 17.4035 29.9734 17.3311 30.0477 17.3003C30.122 17.2694 30.2076 17.2861 30.2649 17.3426ZM25.2764 12.3417L27.6373 14.7097C27.824 14.8973 27.9289 15.1515 27.9289 15.4173V23.003C27.9289 25.2119 26.1422 27.003 23.9378 27.003H21.4107C21.3309 27.0026 21.2589 26.9549 21.2276 26.8815C21.1964 26.8081 21.2116 26.7231 21.2667 26.6653V26.6644L24.3422 23.4386C24.5555 23.2253 24.7102 22.9764 24.8071 22.7097C24.8921 22.4838 24.9354 22.2444 24.9351 22.003V12.483C24.9352 12.4022 24.9839 12.3293 25.0586 12.2984C25.1333 12.2675 25.2192 12.2846 25.2764 12.3417Z" fill="#F4C942"/>
<path fill-rule="evenodd" clip-rule="evenodd" d="M1.32793 15.3418L3.68971 17.7071C3.87638 17.8947 3.98215 18.1498 3.98215 18.4147V21.3089C3.98215 23.9836 4.25949 24.9534 4.78215 25.9311C5.29189 26.8967 6.08006 27.6867 7.04438 28.1987C8.02038 28.7222 8.98838 29.0005 11.6568 29.0005H15.4737C15.5547 29.0002 15.6279 29.0488 15.659 29.1235C15.6902 29.1983 15.6732 29.2845 15.6159 29.3418L13.2542 31.7071C13.0675 31.8947 12.8133 32.0005 12.5493 32.0005H11.2213C7.66304 32.0005 6.37327 31.6289 5.07193 30.932C3.78553 30.2494 2.73409 29.1958 2.05415 27.908C1.36511 26.6171 0.994934 25.3366 0.987599 21.8516L0.987488 15.4831C0.987912 15.4027 1.0365 15.3303 1.1108 15.2995C1.1851 15.2686 1.27066 15.2853 1.32793 15.3418ZM6.3146 20.324H6.31371L9.53327 23.4067C9.74571 23.62 9.99549 23.7747 10.2604 23.8716C10.479 23.9551 10.7173 24.0005 10.9662 24.0005H20.4648C20.5455 24.0009 20.618 24.0498 20.6487 24.1244C20.6794 24.199 20.6623 24.2847 20.6053 24.3418L18.2426 26.708C18.0559 26.8947 17.8017 27.0005 17.5377 27.0005H9.96793C8.90825 26.9993 7.89243 26.5772 7.14395 25.8271C6.39547 25.0769 5.97564 24.0602 5.97682 23.0005V20.468C5.97721 20.3882 6.02499 20.3163 6.09839 20.285C6.17179 20.2537 6.25676 20.269 6.3146 20.324Z" fill="#7B8FEA"/>
<path fill-rule="evenodd" clip-rule="evenodd" d="M12.495 5C12.5748 5.00039 12.6468 5.04816 12.6781 5.12156C12.7093 5.19496 12.6941 5.27994 12.639 5.33778L9.5626 8.56444C9.34927 8.77778 9.19549 9.02667 9.0986 9.29333C9.01334 9.51918 8.96967 9.7586 8.96971 10V19.52C8.96893 19.6003 8.92021 19.6723 8.84599 19.7029C8.77177 19.7336 8.68643 19.7168 8.62927 19.6604L6.26838 17.2924C6.08152 17.1047 5.97668 16.8506 5.97682 16.5858V9C5.97682 6.79111 7.76349 5 9.96793 5H12.495ZM17.4693 0C17.5499 0.000428422 17.6225 0.0492871 17.6532 0.123896C17.6839 0.198504 17.6667 0.284252 17.6097 0.341333L15.2497 2.70667C15.0622 2.89422 14.8088 3 14.5439 3H11.6559C8.98749 3 8.01949 3.27822 7.04349 3.80178C6.07884 4.31364 5.29035 5.10368 4.78038 6.06933C4.26409 7.03682 3.98626 7.99647 3.98047 10.6077L3.98038 14.5173C3.97995 14.5978 3.93137 14.6701 3.85706 14.701C3.78276 14.7318 3.69721 14.7152 3.63993 14.6587L1.28082 12.2933C1.0931 12.1057 0.987488 11.8512 0.987488 11.5858V10.2551C0.987488 6.68978 1.35815 5.39644 2.05415 4.09244C2.73385 2.80477 3.78497 1.75117 5.07104 1.06844C6.35936 0.378524 7.63723 0.00746364 11.1143 0.00011142L17.4693 0Z" fill="#D97EE8"/>
</svg>
