<svg width="37" height="32" viewBox="0 0 37 32" fill="none" xmlns="http://www.w3.org/2000/svg">
<path d="M35.9762 16C35.9762 13.6201 32.9959 11.3648 28.4265 9.96613C29.481 5.30893 29.0123 1.60366 26.9473 0.417391C26.4714 0.13913 25.9149 0.00732254 25.3071 0.00732254V1.64027C25.6439 1.64027 25.9149 1.70618 26.1419 1.83066C27.1377 2.40183 27.5698 4.57666 27.2329 7.37391C27.1524 8.06224 27.0206 8.78719 26.8595 9.52677C25.4242 9.17529 23.8572 8.90435 22.2096 8.7286C21.221 7.37391 20.1959 6.14371 19.1634 5.06728C21.5506 2.84851 23.7913 1.63295 25.3144 1.63295V0C23.3007 0 20.6645 1.43524 17.9991 3.92494C15.3336 1.44989 12.6975 0.0292907 10.6837 0.0292907V1.66224C12.1995 1.66224 14.4476 2.87048 16.8348 5.0746C15.8096 6.15103 14.7844 7.37391 13.8105 8.7286C12.1556 8.90435 10.5885 9.17529 9.1533 9.5341C8.98488 8.80183 8.86039 8.09153 8.77252 7.41053C8.42836 4.61327 8.85307 2.43844 9.84163 1.85995C10.0613 1.72815 10.3469 1.66957 10.6837 1.66957V0.0366133C10.0686 0.0366133 9.51211 0.168421 9.02881 0.446682C6.97115 1.63295 6.50982 5.33089 7.57161 9.97346C3.01691 11.3794 0.051239 13.6275 0.051239 16C0.051239 18.3799 3.03156 20.6352 7.6009 22.0339C6.54643 26.6911 7.01508 30.3963 9.08007 31.5826C9.55605 31.8609 10.1126 31.9927 10.7277 31.9927C12.7414 31.9927 15.3776 30.5574 18.043 28.0677C20.7084 30.5428 23.3446 31.9634 25.3583 31.9634C25.9734 31.9634 26.53 31.8316 27.0133 31.5533C29.0709 30.3671 29.5322 26.6691 28.4705 22.0265C33.0105 20.6279 35.9762 18.3725 35.9762 16ZM26.4421 11.1158C26.1711 12.0604 25.8343 13.0343 25.4535 14.0082C25.1533 13.4224 24.8384 12.8366 24.4943 12.2508C24.1574 11.665 23.7986 11.0938 23.4398 10.5373C24.4796 10.6911 25.4828 10.8815 26.4421 11.1158ZM23.0883 18.9144C22.5171 19.903 21.9313 20.8403 21.3236 21.7117C20.2325 21.8069 19.1268 21.8581 18.0137 21.8581C16.908 21.8581 15.8023 21.8069 14.7185 21.719C14.1107 20.8476 13.5176 19.9176 12.9464 18.9364C12.3899 17.9771 11.8846 17.0032 11.4233 16.022C11.8773 15.0407 12.3899 14.0595 12.9391 13.1002C13.5103 12.1117 14.0961 11.1744 14.7039 10.303C15.7949 10.2078 16.9007 10.1565 18.0137 10.1565C19.1194 10.1565 20.2252 10.2078 21.3089 10.2957C21.9167 11.167 22.5098 12.097 23.081 13.0783C23.6375 14.0375 24.1428 15.0114 24.6041 15.9927C24.1428 16.9739 23.6375 17.9551 23.0883 18.9144ZM25.4535 17.9625C25.8489 18.9437 26.1858 19.9249 26.4641 20.8769C25.5048 21.1112 24.4943 21.3089 23.4471 21.4627C23.8059 20.8989 24.1647 20.3204 24.5016 19.7272C24.8384 19.1414 25.1533 18.5483 25.4535 17.9625ZM18.0284 25.7757C17.3474 25.0728 16.6663 24.2892 15.9927 23.4325C16.6517 23.4618 17.3254 23.4838 18.0064 23.4838C18.6947 23.4838 19.3757 23.4691 20.0421 23.4325C19.383 24.2892 18.702 25.0728 18.0284 25.7757ZM12.5803 21.4627C11.5405 21.3089 10.5373 21.1185 9.57801 20.8842C9.84895 19.9396 10.1858 18.9657 10.5666 17.9918C10.8668 18.5776 11.1817 19.1634 11.5258 19.7492C11.87 20.335 12.2215 20.9062 12.5803 21.4627ZM17.9917 6.22426C18.6728 6.92723 19.3538 7.71076 20.0274 8.56751C19.3684 8.53822 18.6947 8.51625 18.0137 8.51625C17.3254 8.51625 16.6444 8.53089 15.978 8.56751C16.6371 7.71076 17.3181 6.92723 17.9917 6.22426ZM12.573 10.5373C12.2142 11.1011 11.8554 11.6796 11.5185 12.2728C11.1817 12.8586 10.8668 13.4444 10.5666 14.0302C10.1711 13.049 9.83431 12.0677 9.55605 11.1158C10.5153 10.8888 11.5258 10.6911 12.573 10.5373ZM5.94598 19.7053C3.35376 18.5995 1.67687 17.1497 1.67687 16C1.67687 14.8503 3.35376 13.3931 5.94598 12.2947C6.57573 12.0238 7.26405 11.7822 7.97435 11.5552C8.39174 12.9904 8.94094 14.4842 9.62195 16.0146C8.94826 17.5378 8.40639 19.0243 7.99632 20.4522C7.27138 20.2252 6.58305 19.9762 5.94598 19.7053ZM9.88556 30.1693C8.88968 29.5982 8.45765 27.4233 8.79449 24.6261C8.87504 23.9378 9.00685 23.2128 9.16795 22.4732C10.6032 22.8247 12.1702 23.0957 13.8178 23.2714C14.8064 24.6261 15.8316 25.8563 16.8641 26.9327C14.4769 29.1515 12.2361 30.3671 10.713 30.3671C10.3835 30.3597 10.1052 30.2938 9.88556 30.1693ZM27.2549 24.5895C27.5991 27.3867 27.1744 29.5616 26.1858 30.14C25.9661 30.2719 25.6805 30.3304 25.3437 30.3304C23.8279 30.3304 21.5798 29.1222 19.1927 26.9181C20.2178 25.8417 21.243 24.6188 22.2169 23.2641C23.8718 23.0883 25.4389 22.8174 26.8741 22.4586C27.0425 23.1982 27.1744 23.9085 27.2549 24.5895ZM30.0741 19.7053C29.4444 19.9762 28.756 20.2179 28.0457 20.4449C27.6284 19.0096 27.0792 17.5158 26.3981 15.9854C27.0718 14.4622 27.6137 12.9757 28.0238 11.5478C28.7487 11.7748 29.4371 12.0238 30.0814 12.2947C32.6737 13.4005 34.3506 14.8503 34.3506 16C34.3432 17.1497 32.6663 18.6069 30.0741 19.7053Z" fill="#61DAFB"/>
<path d="M18.0064 19.3462C19.8546 19.3462 21.3528 17.848 21.3528 15.9998C21.3528 14.1516 19.8546 12.6533 18.0064 12.6533C16.1582 12.6533 14.6599 14.1516 14.6599 15.9998C14.6599 17.848 16.1582 19.3462 18.0064 19.3462Z" fill="#61DAFB"/>
</svg>
