<svg width="120" height="92" viewBox="0 0 120 92" fill="none" xmlns="http://www.w3.org/2000/svg">
<g clip-path="url(#clip0)">
<path opacity="0.1" d="M118.472 26.2692C118.452 26.367 118.432 26.4648 118.409 26.5616C117.688 29.8864 116.509 33.0903 114.757 36.0327C114.699 36.1305 114.641 36.2283 114.582 36.3262C113.426 38.2193 112.044 39.964 110.465 41.5217C109.593 42.3834 108.641 43.2023 107.509 43.7925C105.923 44.6212 104.069 44.9576 102.246 45.2324C100.354 45.5192 98.4345 45.7588 96.521 46.0171C95.841 46.1073 95.165 46.2029 94.4931 46.304C92.6444 46.5777 90.8089 46.8942 89.0173 47.3141C86.8026 47.8318 84.656 48.5099 82.6281 49.464C82.4662 49.5373 82.3061 49.6149 82.1478 49.697C81.9896 49.7761 81.8302 49.8564 81.6741 49.9377C81.518 50.019 81.3642 50.1004 81.2114 50.1839C81.1322 50.2268 81.0531 50.2696 80.9751 50.3147C80.897 50.3598 80.8201 50.3993 80.7443 50.4433C80.5156 50.5708 80.2914 50.7016 80.0672 50.8335L80.0584 50.839C79.91 50.9258 79.7638 51.0148 79.6188 51.1039C78.79 51.6073 77.9789 52.1326 77.1677 52.6613L76.6577 52.9911L75.8675 53.5021C75.7136 53.6022 75.5564 53.7022 75.4015 53.8011C75.2915 53.8737 75.1816 53.9462 75.0618 54.0209C74.4859 54.3836 73.9023 54.7398 73.3032 55.0794C73.1615 55.1607 73.0186 55.2421 72.8746 55.3212C71.6644 55.9964 70.3987 56.5671 69.0914 57.027L69.0739 57.0336C68.4162 57.2631 67.7452 57.4525 67.0647 57.6008C66.6723 57.6865 66.2788 57.7569 65.8809 57.8107C64.8173 57.9615 63.7389 57.9766 62.6715 57.8558C60.5755 57.6129 58.6114 56.8083 56.5165 56.5368C52.2035 55.9873 48.0148 57.7579 43.9591 59.145C42.9618 59.4858 41.9572 59.8049 40.9453 60.1024C40.2726 60.3013 39.5978 60.4893 38.9174 60.6706C34.7491 61.7719 30.495 62.518 26.2007 62.9007C24.4055 63.0767 22.5997 63.1167 20.7985 63.0205C20.1138 62.9788 19.4367 62.9106 18.7717 62.8007C16.4966 62.449 14.3753 61.7115 12.6629 60.3607C11.2604 59.2517 10.2569 57.8063 9.493 56.2939C8.71104 54.7507 8.15894 53.1014 7.85422 51.3984C7.81246 51.1665 7.77509 50.9335 7.74431 50.7005C7.68936 50.3019 7.64832 49.9011 7.62121 49.498C7.47332 47.3499 7.72983 45.1931 8.3774 43.1396C9.10282 40.8403 10.3118 38.6332 10.8438 36.3163C10.8658 36.2181 10.8867 36.1203 10.9065 36.0228C10.9791 35.6709 11.0331 35.3154 11.068 34.9578C11.3395 32.111 10.2987 29.3357 9.48201 26.5517C9.45344 26.4549 9.42486 26.3571 9.39738 26.2593C9.30945 25.9501 9.22519 25.6412 9.14458 25.3327C8.38839 22.3893 8.17846 19.2381 8.85222 16.3002C8.8731 16.2023 8.89838 16.1045 8.92256 16.0078C9.37362 14.1507 10.2218 12.4134 11.4088 10.9156C12.6705 9.33282 14.3269 8.01497 16.0965 6.85759C16.9589 6.29338 17.8507 5.76616 18.7717 5.27596C19.4312 4.92424 20.1068 4.5912 20.7985 4.27685C26.3435 1.74887 32.669 0.514557 38.924 0.78714C39.2538 0.801428 39.5835 0.819014 39.9132 0.843195C40.243 0.867376 40.6035 0.895953 40.9486 0.927827C44.9779 1.31911 48.8985 2.26326 52.7916 3.29534C54.0962 3.64156 55.3987 3.99658 56.7 4.345C57.2792 4.49888 57.8574 4.65275 58.4366 4.80223C61.2734 5.53535 64.152 6.19922 67.0669 6.69492C67.7417 6.81143 68.4173 6.91768 69.0936 7.01367C71.4419 7.35878 73.809 7.55956 76.1818 7.61489C77.1044 7.63321 78.0272 7.62515 78.9505 7.59071C79.4165 7.57385 79.8829 7.54857 80.3497 7.51487C85.1693 7.17524 89.8273 6.03875 94.4931 4.97699C95.168 4.82312 95.8439 4.67144 96.521 4.52196C97.409 4.32631 98.2971 4.13726 99.1896 3.9625C104.743 2.87108 109.694 3.49867 114.857 5.75078C116.031 6.26187 117.204 6.87958 117.923 7.83911C118.642 8.79864 118.822 9.9769 118.956 11.1145C119.146 12.7346 119.27 14.3756 119.318 16.0254C119.318 16.1221 119.318 16.2199 119.324 16.3177C119.399 19.6503 119.151 23.0147 118.472 26.2692Z" fill="#EDE04B"/>
<path opacity="0.1" d="M81.6335 36.0325H81.2708V36.1622V36.326H81.6819L81.6335 36.0325ZM77.5195 36.0325C77.5189 36.0351 77.5189 36.0377 77.5195 36.0402C77.5096 36.1205 77.4986 36.2007 77.4876 36.282V36.304V36.326H80.6311V36.3084L80.8509 36.0325H77.5195ZM69.0946 36.0325V26.5614H72.7108C72.6723 26.5361 72.6327 26.5097 72.5921 26.4856L72.5393 26.4515L72.4712 26.4097C72.4316 26.3866 72.392 26.3636 72.3502 26.3416C72.3085 26.3196 72.2832 26.3042 72.248 26.2855L72.2239 26.2723H72.2184H69.0946V25.7503L69.01 25.7832L68.921 25.825H68.9144L68.8957 25.8349L68.8396 25.8646L68.7836 25.8942C68.7286 25.9239 68.6737 25.9569 68.6187 25.991L68.5659 26.0261L68.456 26.0965C68.3142 26.191 68.1747 26.2899 68.0307 26.3822C67.9944 26.4053 67.9581 26.4284 67.9208 26.4493C67.8427 26.4955 67.7625 26.5394 67.68 26.579C67.6449 26.5966 67.6108 26.612 67.5701 26.6263L67.5108 26.6493L67.4558 26.668C67.3269 26.7129 67.1946 26.7474 67.0601 26.7713V36.0303H61.6381C61.6381 36.0413 61.6458 36.0501 61.6491 36.0611C61.6788 36.1491 61.7085 36.2359 61.737 36.3238H67.0678V46.4753C67.0957 46.4753 67.1232 46.4753 67.1503 46.4753L67.2459 46.4808L67.4184 46.4907L67.6943 46.5237L67.8207 46.5358L67.9581 46.55H67.979L68.2219 46.5797L68.2736 46.5863L68.3912 46.6028L68.5593 46.627L68.9627 46.6094L69.0177 46.6193C69.0397 46.6193 69.0628 46.6259 69.0858 46.6303V36.326H77.4766V36.304V36.282C77.4876 36.2007 77.4986 36.1205 77.5085 36.0402C77.5079 36.0377 77.5079 36.0351 77.5085 36.0325H69.0946ZM81.6335 36.0325H81.2708V36.1622V36.326H81.6819L81.6335 36.0325ZM77.293 36.0325C77.2799 36.1304 77.2677 36.2282 77.2546 36.326H80.7597L80.9982 36.0325H77.293ZM69.0946 36.0325V26.5614H72.7108C72.6723 26.5361 72.6327 26.5097 72.5921 26.4856L72.5393 26.4515L72.4712 26.4097C72.4316 26.3866 72.392 26.3636 72.3502 26.3416C72.3085 26.3196 72.2832 26.3042 72.248 26.2855L72.2239 26.2723H72.2162H69.0946V25.7503L69.01 25.7832L68.921 25.825H68.9144L68.8957 25.8349L68.8396 25.8646L68.7836 25.8942C68.7286 25.9239 68.6737 25.9569 68.6187 25.991L68.5659 26.0261L68.456 26.0965C68.3142 26.191 68.1747 26.2899 68.0307 26.3822C67.9944 26.4053 67.9581 26.4284 67.9208 26.4493C67.8427 26.4955 67.7625 26.5394 67.68 26.579C67.6449 26.5966 67.6108 26.612 67.5701 26.6263L67.5108 26.6493L67.4558 26.668C67.3269 26.7129 67.1946 26.7474 67.0601 26.7713V36.0303H61.6381C61.6381 36.0413 61.6458 36.0501 61.6491 36.0611C61.6788 36.148 61.7096 36.2359 61.7381 36.3238H67.0678V46.4742H67.1503L67.2459 46.4797L67.4184 46.4896L67.6943 46.5237L67.8207 46.5358L67.9581 46.55H67.979L68.2219 46.5797L68.2736 46.5863L68.3912 46.6028L68.5593 46.627L68.9627 46.6094L69.0177 46.6193C69.0397 46.6193 69.0628 46.6259 69.0858 46.6303V36.326H77.2568C77.27 36.2282 77.282 36.1304 77.2952 36.0325H69.0946ZM96.5223 16.3099H119.326C119.326 16.2121 119.326 16.1142 119.319 16.0175H96.5223V4.5185C95.8452 4.66505 95.1693 4.81673 94.4944 4.97354V16.0175H69.6937L69.631 15.9615L69.7255 15.8779L78.9505 7.58835C78.0273 7.62353 77.1043 7.63159 76.1818 7.61253L69.0935 13.9808V7.01351C68.4165 6.91752 67.7409 6.81127 67.0667 6.69477V13.6599L56.703 4.34484C55.4017 3.99642 54.0992 3.6414 52.7945 3.29518L66.8887 15.9615L66.826 16.0175H40.9525V0.937563C40.6074 0.905322 40.2623 0.877111 39.9171 0.85293C39.5874 0.828749 39.2576 0.811164 38.9279 0.796875V16.0175H20.7989V4.28659C20.1145 4.60021 19.4389 4.93324 18.7721 5.28569V16.0175H8.92276C8.89858 16.1142 8.8733 16.2121 8.85242 16.3099H18.7721V26.269H9.39759C9.42506 26.3669 9.45364 26.4647 9.48222 26.5614H18.7721V36.0325H10.9067C10.8869 36.13 10.866 36.2278 10.844 36.326H18.7721V62.8072C19.4315 62.9094 20.1141 62.9808 20.7989 63.027V36.326H38.9246V60.6749C39.605 60.4935 40.2798 60.3056 40.9525 60.1066V36.326H67.0678V57.5995C67.7484 57.4512 68.4194 57.2618 69.077 57.0324L69.0946 57.0258V36.326H94.4944V46.3038C95.1686 46.2049 95.8445 46.11 96.5223 46.0192V36.326H114.583C114.643 36.2282 114.701 36.1304 114.759 36.0325H96.5223V26.5614H118.41C118.433 26.4647 118.453 26.3669 118.474 26.269H96.5223V16.3099ZM20.7989 16.3099H38.9246V26.269H20.7989V16.3099ZM20.7989 36.0325V26.5614H38.9246V36.0325H20.7989ZM40.9525 16.3099H67.0678V26.269H40.9525V16.3099ZM40.9525 36.0325V26.5614H67.0678V36.0325H40.9525ZM94.4944 36.0325H69.0946V26.5614H94.4944V36.0325ZM94.4944 26.269H69.0946V16.577L69.4507 16.3099H94.4944V26.269ZM77.5195 36.0325C77.5189 36.0351 77.5189 36.0377 77.5195 36.0402C77.5096 36.1205 77.4986 36.2007 77.4876 36.282V36.304V36.326H80.6311V36.3084L80.8509 36.0325H77.5195ZM81.6335 36.0325H81.2708V36.1622V36.326H81.6819L81.6335 36.0325ZM69.0946 36.0325V26.5614H72.7108C72.6723 26.5361 72.6327 26.5097 72.5921 26.4856L72.5393 26.4515L72.4712 26.4097C72.4316 26.3866 72.392 26.3636 72.3502 26.3416C72.3085 26.3196 72.2832 26.3042 72.248 26.2855L72.2239 26.2723H72.2184H69.0946V25.7503L69.01 25.7832L68.921 25.825H68.9144L68.8957 25.8349L68.8396 25.8646L68.7836 25.8942C68.7286 25.9239 68.6737 25.9569 68.6187 25.991L68.5659 26.0261L68.456 26.0965C68.3142 26.191 68.1747 26.2899 68.0307 26.3822C67.9944 26.4053 67.9581 26.4284 67.9208 26.4493C67.8427 26.4955 67.7625 26.5394 67.68 26.579C67.6449 26.5966 67.6108 26.612 67.5701 26.6263L67.5108 26.6493L67.4558 26.668C67.3269 26.7129 67.1946 26.7474 67.0601 26.7713V36.0303H61.6381C61.6381 36.0413 61.6458 36.0501 61.6491 36.0611C61.6788 36.1491 61.7085 36.2359 61.737 36.3238H67.0678V46.4753C67.0957 46.4753 67.1232 46.4753 67.1503 46.4753L67.2459 46.4808L67.4184 46.4907L67.6943 46.5237L67.8207 46.5358L67.9581 46.55H67.979L68.2219 46.5797L68.2736 46.5863L68.3912 46.6028L68.5593 46.627L68.9627 46.6094L69.0177 46.6193C69.0397 46.6193 69.0628 46.6259 69.0858 46.6303V36.326H77.4766V36.304V36.282C77.4876 36.2007 77.4986 36.1205 77.5085 36.0402C77.5079 36.0377 77.5079 36.0351 77.5085 36.0325H69.0946Z" fill="#EDE04B"/>
<path opacity="0.1" d="M29.5132 9.45914H29.6704C29.6186 9.43722 29.5735 9.40199 29.5397 9.35701C29.506 9.31203 29.4847 9.25891 29.4781 9.20304C29.4781 9.00081 29.7803 8.83594 30.1496 8.83594H34.8495C35.2188 8.83594 35.5199 9.00081 35.5199 9.20304C35.5199 9.40418 35.2188 9.57015 34.8495 9.57015H34.6923C34.7442 9.59169 34.7893 9.62668 34.8231 9.67151C34.857 9.71633 34.8782 9.76937 34.8847 9.82515C34.8847 9.99771 34.6648 10.1428 34.3714 10.1813H35.7244C36.0926 10.1813 36.3948 10.3461 36.3948 10.5484C36.3948 10.7506 36.0926 10.9155 35.7244 10.9155H31.0234C30.6552 10.9155 30.353 10.7495 30.353 10.5484C30.353 10.3758 30.5728 10.2318 30.8663 10.1923H29.5132C29.1439 10.1923 28.8428 10.0274 28.8428 9.82515C28.8428 9.62291 29.1439 9.45914 29.5132 9.45914Z" fill="#EDE04B"/>
<path opacity="0.1" d="M80.4514 12.9396H80.6085C80.5569 12.9175 80.5121 12.8822 80.4785 12.8373C80.4449 12.7923 80.4238 12.7393 80.4173 12.6835C80.4173 12.4813 80.7184 12.3164 81.0877 12.3164H85.7876C86.1569 12.3164 86.4592 12.4813 86.4592 12.6835C86.4592 12.8847 86.1569 13.0495 85.7876 13.0495H85.6315C85.6831 13.0716 85.728 13.1069 85.7616 13.1519C85.7951 13.1968 85.8163 13.2499 85.8228 13.3056C85.8228 13.4782 85.6029 13.6233 85.3095 13.6617H86.6625C87.0318 13.6617 87.333 13.8266 87.333 14.0288C87.333 14.2311 87.0318 14.3959 86.6625 14.3959H81.9626C81.5933 14.3959 81.2911 14.23 81.2911 14.0288C81.2911 13.8563 81.5109 13.7112 81.8044 13.6727H80.4514C80.0831 13.6727 79.7809 13.5079 79.7809 13.3056C79.7809 13.1034 80.0831 12.9396 80.4514 12.9396Z" fill="#EDE04B"/>
<path opacity="0.1" d="M22.2996 27.8927H22.4557C22.404 27.8707 22.3591 27.8354 22.3255 27.7904C22.2919 27.7455 22.2708 27.6924 22.2644 27.6366C22.2644 27.4355 22.5667 27.2695 22.9349 27.2695H27.6357C28.0039 27.2695 28.3062 27.4355 28.3062 27.6366C28.3062 27.8388 28.0039 28.0037 27.6357 28.0037H27.4786C27.5303 28.0253 27.5753 28.0603 27.6089 28.1051C27.6425 28.15 27.6635 28.203 27.6698 28.2587C27.6698 28.4312 27.45 28.5763 27.1565 28.6147H28.5095C28.8788 28.6147 29.1811 28.7807 29.1811 28.9818C29.1811 29.1829 28.8788 29.3489 28.5095 29.3489H23.8142C23.4449 29.3489 23.1437 29.184 23.1437 28.9818C23.1437 28.8104 23.3635 28.6653 23.657 28.6257H22.2996C21.9303 28.6257 21.6281 28.4609 21.6281 28.2587C21.6281 28.0564 21.9347 27.8927 22.2996 27.8927Z" fill="#EDE04B"/>
<path opacity="0.1" d="M110.796 67.0659C111.585 63.2025 101.919 57.9643 89.2053 55.3661C76.4918 52.768 65.5454 53.7936 64.7559 57.657C63.9663 61.5204 73.6327 66.7586 86.3462 69.3568C99.0598 71.9549 110.006 70.9293 110.796 67.0659Z" fill="#EDE04B"/>
<path d="M85.1224 42.3063C85.1224 42.3063 86.3721 36.1721 91.1434 36.7403C91.1434 36.7403 94.4408 36.9667 95.119 39.1254V43.8967L85.1224 42.3063Z" fill="#3A3768"/>
<path d="M111.251 44.5735L68.7615 41.0508L63.3087 42.1873L63.6494 49.7987L64.021 49.8438L64.4441 61.2735L106.138 68.7706L110.57 65.0215V52.6311L111.137 52.2981L111.251 44.5735Z" fill="#D48A9B"/>
<path opacity="0.05" d="M111.308 44.5781L111.193 52.3028L106.593 54.4614L106.536 46.395L111.308 44.5781Z" fill="black"/>
<path opacity="0.05" d="M110.57 52.6523L110.626 64.8086L106.196 68.5577L106.48 54.4703L110.57 52.6523Z" fill="black"/>
<path opacity="0.05" d="M64.0789 50.2853L106.514 55.4633L106.536 54.4807L64.047 49.8984L64.0789 50.2853Z" fill="black"/>
<path opacity="0.05" d="M110.569 53.0986V52.6523L106.365 54.5077V55.4925L110.569 53.0986Z" fill="black"/>
<path d="M63.2523 42.1874L68.7051 41.0508L111.194 44.5737L106.423 46.3907L63.2523 42.1874Z" fill="#EFC6CD"/>
<path opacity="0.1" d="M106.668 44.8008L108.753 44.937L105.297 45.971L103.537 45.8446L106.668 44.8008Z" fill="black"/>
<path d="M106.668 44.707L108.753 44.8433L105.297 45.8787L103.537 45.7512L106.668 44.707Z" fill="white"/>
<path d="M106.419 44.9398C106.501 44.9046 106.588 44.9716 106.676 44.9881C106.726 44.998 106.778 44.9881 106.829 44.998C106.931 45.0112 107.032 45.0794 107.13 45.0453" fill="#D3DAE1"/>
<path d="M106.311 44.9985C106.392 44.9633 106.48 45.0292 106.568 45.0468C106.618 45.0556 106.67 45.0468 106.721 45.0556C106.823 45.0699 106.924 45.1381 107.021 45.104" fill="#D3DAE1"/>
<path d="M106.063 45.1156C106.145 45.0805 106.233 45.1464 106.321 45.1629C106.37 45.1728 106.423 45.1629 106.473 45.1728C106.576 45.1871 106.677 45.2552 106.774 45.22" fill="#D3DAE1"/>
<path opacity="0.1" d="M97.6548 43.7695L99.7399 43.9069L96.2842 44.9412L94.5245 44.8137L97.6548 43.7695Z" fill="black"/>
<path d="M97.6548 43.6875L99.7399 43.8238L96.2842 44.8581L94.5245 44.7317L97.6548 43.6875Z" fill="white"/>
<path d="M97.4062 43.9086C97.4887 43.8734 97.5755 43.9394 97.6634 43.957C97.714 43.9658 97.7657 43.957 97.8162 43.9658C97.9184 43.9801 98.0195 44.0483 98.1174 44.0142" fill="#D3DAE1"/>
<path d="M97.2982 43.9789C97.3796 43.9438 97.4675 44.0097 97.5554 44.0262C97.606 44.0361 97.6576 44.0262 97.7082 44.0361C97.8104 44.0503 97.9115 44.1185 98.0093 44.0833" fill="#D3DAE1"/>
<path d="M97.0499 44.096C97.1324 44.0608 97.2203 44.1279 97.3082 44.1444C97.3577 44.1543 97.4104 44.1444 97.4599 44.1543C97.5632 44.1675 97.6643 44.2367 97.7611 44.2015" fill="#D3DAE1"/>
<path opacity="0.1" d="M101.977 44.2852L104.063 44.4214L100.607 45.4568L98.8466 45.3293L101.977 44.2852Z" fill="black"/>
<path d="M101.977 44.1914L104.063 44.3277L100.607 45.362L98.8466 45.2345L101.977 44.1914Z" fill="white"/>
<path d="M101.728 44.4242C101.811 44.3891 101.899 44.455 101.987 44.4714C102.036 44.4813 102.088 44.4714 102.138 44.4813C102.24 44.4945 102.343 44.5636 102.439 44.5285" fill="#D3DAE1"/>
<path d="M101.62 44.4944C101.702 44.4593 101.79 44.5263 101.878 44.5428C101.928 44.5527 101.979 44.5428 102.03 44.5527C102.132 44.5659 102.234 44.6352 102.331 44.6" fill="#D3DAE1"/>
<path d="M101.372 44.6117C101.454 44.5766 101.542 44.6425 101.63 44.6601C101.68 44.6689 101.732 44.6601 101.782 44.6689C101.885 44.6832 101.986 44.7514 102.083 44.7173" fill="#D3DAE1"/>
<path opacity="0.1" d="M54.7722 86.9865C67.0634 86.9865 77.0274 84.9355 77.0274 82.4054C77.0274 79.8753 67.0634 77.8242 54.7722 77.8242C42.481 77.8242 32.517 79.8753 32.517 82.4054C32.517 84.9355 42.481 86.9865 54.7722 86.9865Z" fill="#EDE04B"/>
<path d="M79.1421 44.88C78.9047 42.7939 77.9649 40.8034 77.9649 40.8034L78.0364 40.0999C78.0364 40.0999 78.0518 39.7482 78.0287 39.2206C78.0312 38.8913 78.0744 38.5634 78.1573 38.2446C78.3496 37.6346 77.9166 36.885 77.8682 36.8158C77.8199 36.7465 77.8924 35.4089 77.4593 34.7527C77.0263 34.0965 74.1422 32.8765 74.1422 32.8765C74.1422 32.8765 73.9872 32.5523 73.7685 32.1731L73.7883 32.1346C73.6093 31.81 73.3875 31.5109 73.1288 31.2454C72.9518 31.0564 72.7815 30.9487 72.6441 31.0014C72.5882 30.819 72.5456 30.6327 72.5166 30.4442C72.5452 30.4518 72.5748 30.4595 72.6034 30.465C72.7225 30.4927 72.8459 30.4956 72.9661 30.4738C73.2343 30.4134 73.4124 30.1727 73.5619 29.9463C74.3071 28.8142 74.9489 27.5721 75.0797 26.2323C75.1149 25.9589 75.1019 25.6813 75.0413 25.4124C74.9794 25.2033 74.8931 25.0022 74.7841 24.8134C74.5914 24.4259 74.3474 24.0662 74.0587 23.7439C73.5454 23.2031 72.8375 22.8723 72.1099 22.6767C71.2902 22.4562 70.4363 22.3925 69.5929 22.4887C69.3731 22.514 69.1533 22.5503 68.9334 22.5645C68.6546 22.5768 68.3753 22.5721 68.097 22.5503L66.6583 22.4667L66.6517 22.4447L66.4121 22.4305C66.3175 22.6184 66.4121 22.8415 66.5297 23.0174C66.6473 23.1932 66.7825 23.3768 66.7726 23.5845C66.7627 23.7923 66.6121 23.9593 66.4945 24.1341C66.3769 24.3089 66.2879 24.5375 66.4055 24.7089C66.422 24.7326 66.4416 24.7541 66.4637 24.7727C66.5879 24.9013 66.8044 24.9156 66.9924 24.9134H67.0254C66.552 25.5368 66.2961 26.2981 66.2966 27.0808C66.2998 27.7497 66.487 28.4048 66.8377 28.9744C67.1884 29.544 67.6891 30.0061 68.285 30.3101C68.3058 30.3815 68.3267 30.4551 68.3465 30.5299C68.5644 31.3019 68.6426 32.1067 68.5773 32.9062L68.552 32.9611L68.5367 32.9029C68.5367 32.9029 66.8418 34.0526 66.3384 34.357C65.835 34.6615 65.3294 35.6936 65.3052 35.9749C65.2811 36.2563 64.4875 40.5 64.4875 40.5C64.3262 40.9275 64.1933 41.3652 64.0896 41.8102L63.0773 42.6994C63.0773 42.6994 60.989 42.8873 60.3845 42.7466L60.4021 42.8631C59.869 42.7414 59.326 42.6679 58.7798 42.6433C58.4814 42.605 58.1782 42.6455 57.9005 42.7609L57.8796 42.7708L57.8631 42.7785C57.5448 42.822 57.2341 42.9093 56.9398 43.0379C56.9046 43.0522 56.8728 43.0665 56.842 43.0808L56.8486 42.9368L54.5888 42.8203L53.4347 42.5862C53.4347 42.5862 53.0258 42.2564 52.7851 42.3048C52.5444 42.3531 52.0399 42.0234 52.0399 42.0234C51.9248 41.9332 51.8003 41.8558 51.6684 41.7926C51.63 41.5266 51.6058 41.365 51.6058 41.365C51.6058 41.365 50.7078 37.8017 50.0351 35.7068C49.5845 34.3076 48.936 33.6184 48.5535 33.3184C48.3831 33.0216 48.271 32.8303 48.271 32.8303C48.1974 32.5732 47.7929 31.9939 47.6896 31.9796C47.6731 31.9533 47.661 31.9401 47.6544 31.9401C47.6323 31.9377 47.61 31.9411 47.5896 31.95C47.4005 31.0091 47.2906 29.8297 47.5797 28.8021C47.9754 28.4769 48.2943 28.0682 48.5136 27.6053C48.7329 27.1424 48.8471 26.6368 48.8481 26.1246C48.8481 26.1092 48.8481 26.0938 48.8481 26.0784C48.8481 26.0631 48.8481 26.0466 48.8481 26.0312C48.8479 25.2143 48.5586 24.4239 48.0314 23.8L47.9941 23.7582C48.0041 23.7511 48.0136 23.7434 48.0226 23.7351C48.1052 23.6681 48.1681 23.58 48.2047 23.4802C48.2413 23.3803 48.2502 23.2724 48.2304 23.168C48.1809 22.9569 48.016 22.791 47.9314 22.5909C47.8806 22.4369 47.8398 22.2798 47.8094 22.1205C47.7446 21.8943 47.6258 21.6872 47.4632 21.5171L47.4797 21.561C47.0488 21.0763 46.308 20.8356 45.6408 20.9433C45.1451 21.0225 44.6835 21.2533 44.1856 21.3247C43.8284 21.3753 43.4646 21.3423 43.1052 21.3786C42.7717 21.4129 42.4471 21.5067 42.1467 21.6556C42.0683 21.689 41.9987 21.7401 41.9434 21.8051C41.8923 21.892 41.858 21.9879 41.8423 22.0875C41.7203 22.5327 41.3334 22.8503 41.0531 23.2218C40.7329 23.6463 40.5476 24.1571 40.5211 24.6881C40.5102 24.823 40.5232 24.9588 40.5596 25.0892C40.5838 25.1673 40.6211 25.2409 40.6387 25.32C40.6937 25.5619 40.5673 25.8026 40.5057 26.0422C40.4282 26.3478 40.4557 26.6707 40.5838 26.9588C41.0179 27.9305 42.4435 28.2547 42.7403 29.2747C42.9673 29.3791 43.2072 29.453 43.4536 29.4945C43.4734 29.5956 43.491 29.6979 43.5052 29.8012C43.4986 29.804 43.4923 29.8077 43.4866 29.8122C43.1019 30.187 43.0062 30.9113 43.0062 30.9113L42.9601 30.9487C42.8029 31.0783 42.2654 31.5136 41.7796 31.8488C41.2026 32.2478 40.2408 33.5844 39.5682 33.9833C38.8955 34.3823 38.3416 36.841 38.4867 37.7346C38.6317 38.6282 39.2319 41.1342 38.9911 42.0487C38.7504 42.9632 39.3517 47.1365 39.3517 47.1365C39.7551 47.2134 40.1498 47.3305 40.5299 47.486L40.5178 47.6685L40.4816 48.2181C40.4816 48.2181 39.3923 52.1573 39.8089 55.1898C40.2255 58.2223 39.6165 58.5344 39.6165 58.5344C39.6165 58.5344 39.744 59.8787 39.4242 60.348C39.1044 60.8173 39.0395 61.8483 39.0395 61.8483C39.0395 61.8483 39.0076 64.1619 39.0714 64.8159C39.1351 65.4699 39.167 66.6613 38.9428 66.9427C38.7186 67.2241 38.302 69.0673 38.3339 69.6301C38.3657 70.1928 37.5326 71.4755 37.9811 73.1319C38.4295 74.7882 36.6621 74.8201 36.6621 74.8201C36.6621 74.8201 36.8874 77.3481 37.3677 78.0713L37.4381 78.1746C37.426 78.2164 37.4139 78.2604 37.4007 78.3076C37.2194 78.9671 36.971 80.008 37.1435 80.2597C37.3996 80.6356 37.5282 80.5718 37.5282 80.5718L37.6238 82.2601C37.6238 82.2601 39.5473 83.8857 41.0223 83.8241C42.4973 83.7626 42.2083 82.2601 42.2083 82.2601L40.952 79.0023L40.9091 78.8924L42.305 76.2545C42.305 76.2545 42.6897 75.0982 42.7853 74.6915C42.8809 74.2849 43.403 72.8439 43.403 72.8439C43.403 72.8439 44.722 69.718 44.7495 69.3421C44.7769 68.9662 44.878 66.9361 45.1341 66.5283C45.3902 66.1206 46.0959 63.7805 46.0959 63.7805L46.1135 63.7959C46.2332 63.9135 46.3187 64.0614 46.3609 64.2238C46.4031 64.3863 46.4004 64.5571 46.3531 64.7181C46.1915 65.3116 46.2882 66.5305 46.2882 66.5305C46.2882 66.5305 46.2245 67.5626 46.0959 68.0946C45.9673 68.6266 45.9365 72.9714 46.1607 74.0024C46.3399 74.8278 46.3344 76.3732 46.3256 76.9579C46.175 77.5789 46.0431 78.3505 46.2882 78.4417C46.7059 78.5989 48.8217 78.567 48.8217 78.567C48.8217 78.567 49.7186 78.2538 50.9375 79.3485C52.1564 80.4432 55.9055 79.0364 55.9055 79.0364C55.9055 79.0364 57.0596 78.7231 54.7833 77.8174C53.1951 77.1854 52.1696 76.7645 51.4992 76.3138C51.5145 76.2842 51.531 76.2545 51.5453 76.2226C51.5453 76.2226 50.6155 75.3433 51.3849 73.7847C52.1542 72.2262 52.1224 70.9083 52.1224 70.9083L52.251 65.6556L51.8663 58.6828L51.5684 51.3649L51.6212 51.3473C51.6717 52.6926 51.9344 55.8954 53.3094 55.2744C55.0405 54.493 53.5655 52.4607 53.5655 52.4607L52.7884 50.9461L53.0203 50.8669L52.1509 48.0576C52.0675 47.5093 52.0564 46.9524 52.118 46.4012C52.1352 46.0788 52.1286 45.7555 52.0982 45.434C53.2369 45.235 54.3272 45.024 54.5228 45.0724C54.7537 45.1284 56.0451 45.1394 56.5529 45.1416C56.387 45.2713 56.254 45.3999 56.254 45.3999L58.3214 46.7914C58.3214 46.7914 59.0227 46.4078 59.1688 46.0011C59.3127 45.9647 59.4455 45.8938 59.5557 45.7945C59.5777 46.2748 59.7052 46.7947 60.1493 46.8068C60.2603 46.8091 60.3705 46.7874 60.4724 46.743L63.8533 46.0737L63.5631 47.8861L63.7654 48.2455C63.6632 49.7744 63.5455 51.3978 63.4422 52.8256L63.395 53.1377L63.4191 53.1432C63.2587 55.3415 63.1301 57.0066 63.1301 57.0066C63.3194 56.6458 63.6133 56.3505 63.9731 56.1592L63.9951 59.4214C63.9951 59.4214 64.1644 64.5796 64.1644 65.283C64.1644 65.9865 64.1874 67.5571 64.1874 67.5571C64.1874 67.5571 64.549 69.4795 64.7645 70.1126C64.9799 70.7457 65.1492 73.6298 65.1492 73.6298C65.1492 73.6298 65.6548 74.4266 65.4382 74.7289C65.2217 75.0312 66.2802 75.6895 66.2802 75.6895C66.2802 75.6895 65.6064 76.604 65.558 77.214C65.5525 77.2844 65.6218 77.3591 65.7471 77.4338C65.7075 77.4657 65.6669 77.4976 65.6218 77.5284C65.3096 77.7372 64.8524 77.8823 64.1644 77.8229C62.2882 77.6581 60.9659 79.3936 62.12 79.7453C63.2741 80.097 66.7363 80.1674 66.7363 80.1674C66.7363 80.1674 67.7849 79.5134 68.6048 79.8079C68.5927 80.496 68.6268 81.1269 68.6323 81.2104L68.6224 81.2181C68.1322 81.6578 67.1935 82.414 66.2769 82.7228C64.9579 83.168 64.6656 84.9738 66.3725 85.2079C68.0794 85.442 70.5799 84.9266 70.5799 84.9266C70.5799 84.9266 71.878 83.9659 72.8639 83.7549C73.8498 83.5439 74.6917 83.0745 74.5236 82.5118C74.4137 82.1524 74.1312 81.2104 73.9399 80.5773C73.929 80.5392 73.918 80.5026 73.907 80.4674C73.9367 80.4015 73.9663 80.3333 73.9938 80.263C73.9938 80.263 73.4893 77.6372 73.8982 76.981C74.3071 76.3248 74.0905 69.7587 74.0905 69.7587C74.0905 69.7587 73.3926 68.0946 73.7542 67.0867C74.1158 66.0788 73.1772 64.6477 73.1772 64.6477C73.1772 64.6477 73.2794 61.7801 73.5542 60.182C73.5666 60.1139 73.5787 60.0479 73.5904 59.9842C74.0505 59.8476 74.4989 59.6745 74.9314 59.4665C74.9314 59.4665 75.1721 55.8548 75.316 55.0348C75.3303 54.9579 75.3501 54.8337 75.3743 54.6721L75.4842 54.0929L75.6139 53.4334L76.0536 51.1857L76.8471 50.1591L78.8915 48.0708C78.8915 48.0708 79.3828 46.9673 79.1421 44.88ZM47.6149 31.984L47.5995 31.995C47.5971 31.9871 47.5953 31.979 47.594 31.9708C47.6004 31.9761 47.6074 31.9805 47.6149 31.984ZM67.8134 34.5439L67.7343 34.7164L68.0234 34.4285L67.631 34.8681L67.7629 34.5911L67.8134 34.5439ZM65.8614 38.5777C65.7856 38.7788 65.7042 38.9964 65.6196 39.2228L65.7746 38.7601L65.8614 38.5777Z" fill="url(#paint0_linear)"/>
<path d="M59.5538 45.164C59.5538 45.164 59.2846 46.9566 60.0923 46.9797C60.8999 47.0028 61.4395 45.597 61.4395 45.597L61.1098 44.4727L59.5538 45.164Z" fill="#585B8A"/>
<path opacity="0.2" d="M59.5538 45.164C59.5538 45.164 59.2846 46.9566 60.0923 46.9797C60.8999 47.0028 61.4395 45.597 61.4395 45.597L61.1098 44.4727L59.5538 45.164Z" fill="black"/>
<path d="M41.459 83.9674C40.0213 84.03 38.1462 82.4057 38.1462 82.4057L38.0528 80.7187C38.0528 80.7187 37.9286 80.7813 37.678 80.4065C37.5099 80.1549 37.7517 79.1119 37.9286 78.4558C38.0143 78.1348 38.0847 77.9062 38.0847 77.9062L41.2391 78.7503L41.3897 79.1493L42.6141 82.4046C42.6141 82.4046 42.8955 83.9048 41.459 83.9674Z" fill="#636992"/>
<path d="M55.9528 79.185C55.9528 79.185 52.2982 80.5909 51.1167 79.4972C49.9351 78.4035 49.0547 78.7157 49.0547 78.7157C49.0547 78.7157 46.9928 78.7476 46.5861 78.5904C46.3465 78.4992 46.4762 77.7177 46.6257 77.0955C46.7268 76.6657 46.8367 76.3107 46.8367 76.3107C46.8367 76.3107 50.4286 75.0917 50.9914 75.8414C51.1604 76.0616 51.3625 76.2544 51.5904 76.4129C52.2411 76.8834 53.2577 77.3099 54.8657 77.9661C57.0771 78.8718 55.9528 79.185 55.9528 79.185Z" fill="#636992"/>
<path d="M52.6733 50.625L53.6724 52.6242C53.6724 52.6242 55.11 54.6552 53.4229 55.4355C51.7357 56.2158 51.7676 50.9382 51.7676 50.9382L52.6733 50.625Z" fill="#FFD6D6"/>
<path d="M48.4867 33.293C48.4867 33.293 49.5803 33.7931 50.2365 35.8859C50.8927 37.9786 51.7676 41.5409 51.7676 41.5409C51.7676 41.5409 52.3611 45.5704 52.2666 46.5706C52.2064 47.1215 52.2171 47.6778 52.2985 48.2259L53.1415 51.0376L51.4543 51.6311L48.8615 41.697L48.4867 33.293Z" fill="#DCE6F2"/>
<path opacity="0.05" d="M48.4867 33.293C48.4867 33.293 49.5803 33.7931 50.2365 35.8859C50.8927 37.9786 51.7676 41.5409 51.7676 41.5409C51.7676 41.5409 52.3611 45.5704 52.2666 46.5706C52.2064 47.1215 52.2171 47.6778 52.2985 48.2259L53.1415 51.0376L51.4543 51.6311L48.8615 41.697L48.4867 33.293Z" fill="black"/>
<path opacity="0.1" d="M41.2387 78.7496L41.3892 79.1487L41.2046 79.5016C40.4858 79.8139 38.7052 79.5643 38.7052 79.5643C38.7052 79.5643 38.3754 79.1454 37.9248 78.456C38.0105 78.1349 38.0809 77.9062 38.0809 77.9062L41.2387 78.7496Z" fill="black"/>
<path opacity="0.1" d="M51.7054 76.5602C50.7942 78.6242 47.6969 77.8582 46.8363 77.5999C46.6945 77.557 46.6165 77.5285 46.6165 77.5285C46.6165 77.5285 46.6219 77.3603 46.6241 77.0954C46.7253 76.6657 46.8352 76.3107 46.8352 76.3107C46.8352 76.3107 50.4271 75.0918 50.9899 75.8413C51.1589 76.0616 51.3609 76.2544 51.5889 76.4129C51.6233 76.4653 51.6623 76.5146 51.7054 76.5602Z" fill="black"/>
<path d="M51.5476 73.9344C50.798 75.4952 51.7048 76.3712 51.7048 76.3712C50.7937 78.4343 47.6963 77.6693 46.8357 77.4099C46.6939 77.3681 46.6159 77.3395 46.6159 77.3395C46.6159 77.3395 46.6785 75.183 46.4598 74.152C46.2411 73.121 46.2719 68.7795 46.3972 68.2486C46.5225 67.7177 46.584 66.6856 46.584 66.6856C46.584 66.6856 46.4906 65.4678 46.6467 64.8742C46.6936 64.7139 46.6968 64.5439 46.6558 64.3819C46.6148 64.2199 46.5312 64.0719 46.4136 63.9532L46.3972 63.9367C46.3972 63.9367 45.7102 66.28 45.4596 66.6845C45.209 67.089 45.1167 69.1213 45.0848 69.4961C45.0529 69.8709 43.7725 72.9957 43.7725 72.9957C43.7725 72.9957 43.2735 74.4323 43.18 74.8379C43.0866 75.2435 42.7107 76.4009 42.7107 76.4009L41.2049 79.307C40.4861 79.6191 38.7055 79.3696 38.7055 79.3696C38.7055 79.3696 38.3626 78.93 37.8933 78.2133C37.4239 77.4967 37.2063 74.9654 37.2063 74.9654C37.2063 74.9654 38.9242 74.9335 38.4868 73.2782C38.0493 71.6229 38.8616 70.3413 38.8308 69.7786C38.8 69.2158 39.2056 67.3737 39.4243 67.0923C39.6431 66.8109 39.6112 65.6239 39.5485 64.9677C39.4859 64.3115 39.5178 62 39.5178 62C39.5178 62 39.5804 60.969 39.8926 60.5008C40.2047 60.0326 40.0805 58.6883 40.0805 58.6883C40.0805 58.6883 40.6729 58.3762 40.2674 55.3458C39.8618 52.3155 40.9268 48.3795 40.9268 48.3795L40.9631 47.83L41.0203 46.9397C41.0203 46.9397 49.955 46.3769 50.6738 47.0639C50.8617 47.2545 51.016 47.4757 51.13 47.7179C51.3759 48.2465 51.5497 48.8059 51.6466 49.3808L52.0214 58.8466L52.3962 65.8129L52.2709 71.0613C52.2709 71.0613 52.2983 72.3714 51.5476 73.9344Z" fill="#565988"/>
<path opacity="0.1" d="M48.8987 55.2422L47.9612 75.5477L46.8358 77.3987C46.694 77.3569 46.616 77.3283 46.616 77.3283C46.616 77.3283 46.6786 75.1718 46.4599 74.1408C46.2412 73.1098 46.272 68.7682 46.3973 68.2373C46.5226 67.7064 46.5841 66.6743 46.5841 66.6743C46.5841 66.6743 46.4907 65.4565 46.6468 64.863C46.6937 64.7026 46.6969 64.5326 46.6559 64.3706C46.6149 64.2087 46.5313 64.0606 46.4138 63.9419L46.4291 63.832L48.8987 55.2422Z" fill="black"/>
<path opacity="0.1" d="M38.8026 77.0562C38.8026 77.0562 41.2394 76.0879 41.6142 76.3967C41.989 76.7056 38.7411 77.1771 38.7411 77.1771L38.8026 77.0562Z" fill="black"/>
<path opacity="0.1" d="M50.8298 74.5078C50.7364 74.5397 48.3624 75.3871 48.5811 76.2883C48.7998 77.1895 50.8298 74.5078 50.8298 74.5078Z" fill="black"/>
<path d="M43.411 28.2799C43.411 28.2799 44.2068 30.2011 43.7858 31.1859C43.3648 32.1707 48.3308 33.8568 48.3308 33.8568C48.3308 33.8568 46.8788 30.1077 48.2847 27.9985C49.6905 25.8894 43.411 28.2799 43.411 28.2799Z" fill="#FFD6D6"/>
<path d="M72.4874 83.8987C71.5267 84.1098 70.2616 85.0705 70.2616 85.0705C70.2616 85.0705 67.8248 85.586 66.1607 85.3519C64.4966 85.1177 64.7791 83.3128 66.0673 82.8677C66.9609 82.5599 67.8765 81.8003 68.3546 81.365C68.5656 81.1705 68.6909 81.0353 68.6909 81.0353L73.3546 80.0977C73.3546 80.0977 73.4304 80.3582 73.5359 80.7176C73.7228 81.3519 73.9987 82.2928 74.1042 82.6511C74.268 83.2194 73.448 83.6877 72.4874 83.8987Z" fill="#505484"/>
<path d="M71.2928 80.2993C71.2928 80.2993 69.3242 80.5104 68.5042 80.0421C67.6842 79.5739 66.5126 80.3235 66.5126 80.3235C66.5126 80.3235 63.1382 80.2532 62.0137 79.9014C60.8893 79.5497 62.1775 77.813 64.0054 77.9801C64.6715 78.0405 65.1221 77.8943 65.4266 77.6855C65.7446 77.4675 65.9663 77.1352 66.0454 76.7578L70.0024 76.9919L70.5519 78.3945L71.2928 80.2993Z" fill="#505484"/>
<path opacity="0.1" d="M70.6122 79.0341C70.6122 79.0341 66.0134 78.2823 65.4265 77.6855C65.7446 77.4675 65.9662 77.1352 66.0453 76.7578L70.0022 76.9919L70.5517 78.3944L70.6122 79.0341Z" fill="black"/>
<path d="M63.7943 52.7224L63.8416 59.5864C63.8416 59.5864 64.0053 64.7412 64.0053 65.4446C64.0053 66.148 64.0284 67.7165 64.0284 67.7165C64.0284 67.7165 64.3801 69.6377 64.5912 70.2708C64.8022 70.9039 64.966 73.7879 64.966 73.7879C64.966 73.7879 65.4584 74.5848 65.2473 74.887C65.0363 75.1893 66.0673 75.8476 66.0673 75.8476C66.0673 75.8476 65.4078 76.7621 65.365 77.371C65.3221 77.9799 70.6122 78.8449 70.6122 78.8449L68.5513 57.7124L66.9103 52.418L63.7943 52.7224Z" fill="#575988"/>
<path opacity="0.1" d="M63.7943 52.7224L63.8416 59.5864C63.8416 59.5864 64.0053 64.7412 64.0053 65.4446C64.0053 66.148 64.0284 67.7165 64.0284 67.7165C64.0284 67.7165 64.3801 69.6377 64.5912 70.2708C64.8022 70.9039 64.966 73.7879 64.966 73.7879C64.966 73.7879 65.4584 74.5848 65.2473 74.887C65.0363 75.1893 66.0673 75.8476 66.0673 75.8476C66.0673 75.8476 65.4078 76.7621 65.365 77.371C65.3221 77.9799 70.6122 78.8449 70.6122 78.8449L68.5513 57.7124L66.9103 52.418L63.7943 52.7224Z" fill="black"/>
<path opacity="0.1" d="M73.5349 80.723C72.004 84.3725 68.3632 81.5559 68.3632 81.5559C68.3632 81.5559 68.3632 81.4856 68.3544 81.3647C68.5654 81.1702 68.6907 81.0351 68.6907 81.0351L73.3536 80.0977C73.3536 80.0977 73.4294 80.3636 73.5349 80.723Z" fill="black"/>
<path d="M73.5885 80.4112C72.0882 84.258 68.3633 81.3718 68.3633 81.3718C68.3633 81.3718 68.2457 79.3802 68.4809 78.4669C68.7161 77.5535 68.2226 74.8113 68.2226 74.8113C68.2226 74.8113 67.9412 72.3746 67.684 71.8129C67.4269 71.2513 67.4499 70.1258 67.4499 70.0324C67.4499 69.939 67.5434 69.1883 67.3323 68.6728C67.1213 68.1574 67.0026 66.8923 67.0026 66.8923C67.0026 66.8923 67.0026 65.1118 66.7916 64.0577L66.065 60.4307L64.7527 53.003L65.1627 52.9327L72.5081 51.6445C72.5081 51.6445 73.8908 58.6787 73.4215 59.3998C73.3204 59.558 73.2313 59.9042 73.1577 60.3505C72.8895 61.9464 72.7895 64.8117 72.7895 64.8117C72.7895 64.8117 73.7028 66.2405 73.3522 67.2484C73.0016 68.2563 73.682 69.9192 73.682 69.9192C73.682 69.9192 73.893 76.4797 73.494 77.1359C73.095 77.792 73.5885 80.4112 73.5885 80.4112Z" fill="#575988"/>
<path d="M72.885 32.4506C72.885 32.4506 66.2309 37.1362 67.7301 34.7928C68.538 33.531 68.3896 31.9241 68.073 30.7107C67.913 30.0935 67.6921 29.4937 67.4136 28.9202C67.4136 28.9202 73.0675 26.5153 72.3179 28.6707C72.1422 29.1729 72.0675 29.7048 72.098 30.2359C72.1429 31.0342 72.4161 31.8029 72.885 32.4506Z" fill="#D28690"/>
<path d="M60.9043 43.186C60.9043 43.186 58.0929 42.3736 57.6247 43.1706C57.1565 43.9675 57.7654 45.7164 58.6139 45.9978C59.4623 46.2792 61.4098 45.0447 61.4098 45.0447L60.9043 43.186Z" fill="#D28690"/>
<path d="M64.1228 41.8008L62.9511 42.8789C62.9511 42.8789 60.9122 43.0658 60.3264 42.9251C60.3264 42.9251 60.8661 46.5333 60.0923 46.9784L64.8251 46.0178L64.1228 41.8008Z" fill="#585B8A"/>
<path opacity="0.1" d="M64.1228 41.8008L62.9511 42.8789C62.9511 42.8789 60.9122 43.0658 60.3264 42.9251C60.3264 42.9251 60.8661 46.5333 60.0923 46.9784L64.8251 46.0178L64.1228 41.8008Z" fill="black"/>
<path opacity="0.1" d="M49.0801 26.3086C49.0801 27.2415 48.7095 28.1361 48.0499 28.7957C47.3904 29.4553 46.4958 29.8259 45.563 29.8259C43.7583 28.9587 42.046 28.253 42.046 26.3086C42.0272 25.8354 42.1043 25.3633 42.2725 24.9205C42.4406 24.4778 42.6965 24.0736 43.0247 23.7322C43.3528 23.3907 43.7466 23.1191 44.1823 22.9335C44.618 22.748 45.0867 22.6523 45.5603 22.6523C46.0338 22.6523 46.5025 22.748 46.9382 22.9335C47.3739 23.1191 47.7677 23.3907 48.0959 23.7322C48.424 24.0736 48.6799 24.4778 48.8481 24.9205C49.0162 25.3633 49.0933 25.8354 49.0746 26.3086H49.0801Z" fill="black"/>
<path d="M49.08 26.2075C49.0805 27.0347 48.789 27.8355 48.2568 28.4687C47.7245 29.1018 46.9858 29.5267 46.1709 29.6684C45.356 29.8101 44.5172 29.6595 43.8024 29.2432C43.0877 28.8268 42.543 28.1715 42.2643 27.3927C41.9855 26.6139 41.9908 25.7617 42.279 24.9864C42.5673 24.2111 43.12 23.5625 43.8398 23.1549C44.5596 22.7474 45.4002 22.6071 46.2133 22.7588C47.0264 22.9105 47.7598 23.3444 48.2843 23.9841C48.7979 24.6114 49.079 25.3968 49.08 26.2075Z" fill="#FFD6D6"/>
<path opacity="0.1" d="M51.1301 47.7177C50.7822 47.9337 50.418 48.1226 50.0409 48.2825C50.0409 48.2825 48.2603 48.0243 48.0031 48.3287C47.7459 48.6331 45.4752 48.7507 45.4752 48.7507C45.4752 48.7507 42.0074 48.5869 41.4919 48.1419C41.3325 48.0128 41.1552 47.9077 40.9655 47.8298L41.0226 46.9396C41.0226 46.9396 49.9574 46.377 50.6762 47.0638C50.8633 47.2546 51.0168 47.4757 51.1301 47.7177Z" fill="black"/>
<path d="M51.5644 47.0938C51.494 47.4917 50.041 48.1006 50.041 48.1006C50.041 48.1006 48.2604 47.8434 48.0032 48.1478C47.746 48.4523 45.4752 48.5699 45.4752 48.5699C45.4752 48.5699 42.0074 48.405 41.4919 47.9599C40.9764 47.5147 39.8278 47.3004 39.8278 47.3004C39.8278 47.3004 39.242 43.1303 39.4772 42.2169C39.7124 41.3035 39.1255 38.7953 38.9848 37.905C38.8441 37.0147 39.3827 34.5549 40.0389 34.157C40.6951 33.7591 41.6326 32.4225 42.1943 32.0247C42.668 31.6894 43.1912 31.2553 43.344 31.1245L43.389 31.0871C43.389 31.0871 43.4835 30.3606 43.8584 29.988C44.2332 29.6154 47.6767 32.3544 47.6767 32.3544C47.6767 32.3544 47.7009 32.5654 47.935 32.1675C47.9878 32.0785 48.4417 32.7336 48.5209 33.0106C48.5209 33.0106 50.3949 36.2915 50.5125 36.9675C50.6301 37.6434 51.1214 39.8494 51.2148 40.388C51.239 40.5265 51.2786 41.0123 51.3247 41.663C51.3335 41.7905 51.3412 41.9256 51.3511 42.0663C51.4204 43.1457 51.4951 44.524 51.5402 45.566C51.5402 45.6847 51.5501 45.799 51.5534 45.9089C51.5771 46.3034 51.5808 46.6989 51.5644 47.0938Z" fill="#DCE6F2"/>
<path opacity="0.1" d="M39.6661 38.6367C39.6661 38.6367 40.9541 40.2063 41.3761 40.2063C41.7981 40.2063 39.6661 38.6367 39.6661 38.6367Z" fill="black"/>
<path opacity="0.1" d="M42.3801 42.0117C42.3801 42.0117 40.2708 44.3078 40.5522 44.7298C40.8336 45.1519 42.3801 42.0117 42.3801 42.0117Z" fill="black"/>
<path opacity="0.1" d="M40.8333 46.5807C40.8333 46.5807 43.2517 43.9329 43.3616 43.0195L40.8333 46.5807Z" fill="black"/>
<path opacity="0.1" d="M43.8794 46.7698C43.8794 46.7698 46.668 45.2936 46.9021 44.1218C47.1363 42.9501 43.8794 46.7698 43.8794 46.7698Z" fill="black"/>
<path opacity="0.1" d="M47.4172 32.5204L47.0303 33.4569L47.6744 33.7613L48.3075 35.5309C48.3075 35.5309 50.0529 39.0217 49.9825 40.8375C49.9122 42.6532 50.2991 45.3823 50.2991 45.3823L51.3059 45.1955L50.831 39.8548C50.7571 39.028 50.55 38.2185 50.2177 37.4577C49.4132 35.6155 47.9162 32.2148 47.8216 32.2148C47.693 32.2148 47.7832 32.2621 47.7832 32.2621L47.4172 32.5204Z" fill="black"/>
<path d="M47.5109 32.4255L47.124 33.3631L47.7692 33.6676L48.4012 35.4371C48.4012 35.4371 50.1466 38.928 50.0763 40.7437C50.0059 42.5595 50.3928 45.2886 50.3928 45.2886L51.4007 45.1017L50.9248 39.7611C50.8517 38.9342 50.645 38.1246 50.3126 37.3639C49.508 35.5207 48.011 32.1211 47.9176 32.1211C47.7879 32.1211 47.878 32.1684 47.878 32.1684L47.5109 32.4255Z" fill="#575989"/>
<path d="M58.9208 46.1877C58.4306 46.1504 57.2545 45.5557 56.7873 45.3084L56.5895 45.1985L56.6137 43.3839C56.7292 43.316 56.8489 43.2554 56.972 43.2025C57.5963 42.9299 58.8768 42.5595 59.5188 43.7521C60.3849 45.3513 59.5418 46.2295 58.9208 46.1877Z" fill="#FFD6D6"/>
<path opacity="0.1" d="M48.2842 23.9959C48.2339 24.0275 48.1785 24.0501 48.1205 24.063C47.7127 24.152 47.2488 23.8014 46.8993 24.0267C46.6861 24.1652 46.6366 24.4521 46.608 24.7049C46.5582 25.1445 46.5084 25.5812 46.4585 26.015C46.4481 26.1695 46.4155 26.3216 46.3618 26.4668C46.1892 26.8614 45.7155 27.0471 45.2835 27.0405C45.1143 27.0526 44.9472 26.9972 44.8186 26.8866C44.7427 26.8097 44.7021 26.702 44.6185 26.6316C44.069 26.1711 43.9019 27.2999 44.047 27.6209C44.28 28.1451 45.1077 28.6507 44.7603 29.3168C44.7019 29.4251 44.6133 29.514 44.5053 29.5729C43.9819 29.409 43.5041 29.1249 43.11 28.7434C42.7159 28.3619 42.4165 27.8936 42.2357 27.3758C42.055 26.8579 41.9978 26.305 42.0688 25.7611C42.1398 25.2173 42.337 24.6976 42.6447 24.2435C42.9523 23.7894 43.3619 23.4136 43.8407 23.1461C44.3195 22.8785 44.8543 22.7267 45.4022 22.7026C45.9502 22.6785 46.4962 22.783 46.9966 23.0075C47.497 23.2321 47.938 23.5706 48.2842 23.9959Z" fill="black"/>
<path d="M44.5257 26.6226C44.6082 26.6919 44.6499 26.7996 44.7258 26.8765C44.8544 26.987 45.0215 27.0423 45.1907 27.0304C45.6226 27.037 46.0964 26.8523 46.2678 26.4556C46.3225 26.311 46.3555 26.1591 46.3656 26.0049L46.5151 24.6948C46.5437 24.442 46.5921 24.1552 46.8064 24.0167C47.1559 23.7969 47.6197 24.142 48.0275 24.0529C48.1745 24.0156 48.3017 23.9237 48.3834 23.7959C48.4651 23.6681 48.495 23.514 48.4671 23.3649C48.4199 23.155 48.2594 22.989 48.177 22.789C48.127 22.6353 48.087 22.4785 48.0572 22.3197C47.8297 21.4668 46.8284 20.9876 45.9579 21.1305C45.4743 21.2107 45.0247 21.4415 44.54 21.5119C44.1927 21.5624 43.8377 21.5294 43.4871 21.5668C43.1613 21.6004 42.8446 21.6939 42.5528 21.8427C42.4762 21.8766 42.4085 21.9277 42.355 21.9922C42.3052 22.0792 42.2717 22.1745 42.2561 22.2735C42.1385 22.7132 41.7604 23.0374 41.4867 23.4078C41.1737 23.8339 40.9925 24.3426 40.9657 24.8707C40.9549 25.0055 40.9676 25.1413 41.0031 25.2718C41.0262 25.3488 41.0624 25.4235 41.08 25.5026C41.1339 25.7433 41.0108 25.984 40.9503 26.2236C40.8752 26.5294 40.9022 26.8513 41.0273 27.1403C41.4493 28.1108 42.8397 28.435 43.1288 29.4539C43.3855 29.5769 43.6627 29.6515 43.9465 29.6737C44.2301 29.6792 44.5356 29.5572 44.6675 29.3055C45.0137 28.646 44.1872 28.1339 43.9542 27.6107C43.808 27.2887 43.9718 26.161 44.5257 26.6226Z" fill="#353045"/>
<path opacity="0.1" d="M72.3229 28.6707C72.1473 29.1729 72.0726 29.7048 72.1031 30.2359C71.9339 30.3799 71.7492 29.949 71.5536 30.0601C71.0173 30.37 70.3974 31.1075 69.7336 31.1075C69.158 31.1079 68.5904 30.9719 68.0774 30.7108C67.9174 30.0936 67.6965 29.4938 67.418 28.9202C67.418 28.9202 73.0724 26.5153 72.3229 28.6707Z" fill="black"/>
<path d="M73.3851 27.2573C73.3851 27.9803 73.1707 28.6871 72.769 29.2883C72.3673 29.8895 71.7963 30.358 71.1283 30.6347C70.4603 30.9114 69.7253 30.9838 69.0161 30.8428C68.307 30.7017 67.6556 30.3535 67.1443 29.8423C66.6331 29.331 66.2849 28.6796 66.1439 27.9705C66.0028 27.2613 66.0752 26.5263 66.3519 25.8583C66.6286 25.1903 67.0971 24.6194 67.6983 24.2177C68.2995 23.816 69.0063 23.6016 69.7293 23.6016C70.2095 23.6014 70.6849 23.6959 71.1285 23.8795C71.5721 24.0632 71.9752 24.3325 72.3147 24.672C72.6541 25.0115 72.9234 25.4145 73.1071 25.8581C73.2908 26.3017 73.3852 26.7772 73.3851 27.2573Z" fill="#D28690"/>
<path d="M73.229 33.2572C73.229 33.2572 72.5409 34.0068 72.4475 34.0684C72.3541 34.1299 70.3592 42.5315 70.324 42.6293C70.2888 42.7271 67.9488 50.3131 67.9488 50.3131L64.1997 52.1563L64.513 42.8777L67.2608 35.2257C67.2608 35.2257 68.1675 34.1948 68.4478 33.82C68.7281 33.4452 72.2277 31.1953 72.2277 31.1953L72.8256 32.4274L73.229 33.2572Z" fill="#F0F3F7"/>
<path opacity="0.1" d="M72.7333 32.6149L68.4225 35.7013L68.3533 34.0064C68.6346 33.6316 72.1332 31.3828 72.1332 31.3828L72.7333 32.6149Z" fill="black"/>
<path d="M72.8267 32.4274L68.5159 35.5138L68.4489 33.82C68.7302 33.4441 72.2287 31.1953 72.2287 31.1953L72.8267 32.4274Z" fill="#F0F3F7"/>
<path d="M68.3051 33.0703L68.4491 33.8243L67.4851 34.8037L68.2545 33.0813C68.2545 33.0813 66.6058 34.2299 66.1112 34.5344C65.6166 34.8388 65.122 35.8698 65.1034 36.1512C65.0847 36.4326 64.3065 40.6731 64.3065 40.6731C64.3065 40.6731 63.7207 42.2426 63.8855 42.6878C64.0504 43.1329 62.9952 57.1678 62.9952 57.1678C63.1363 56.8953 63.3357 56.6571 63.5792 56.4704C63.8228 56.2836 64.1045 56.1529 64.4043 56.0874L64.0284 47.7933C64.0284 47.7933 64.4856 42.2756 64.5087 42.2053C64.5318 42.1349 65.5749 38.9364 65.5749 38.9364L68.3051 33.0703Z" fill="#585B8A"/>
<path opacity="0.1" d="M68.5434 33.9141L68.4686 35.4528C68.4686 35.4528 67.4256 38.7446 67.0749 39.2831C66.7243 39.8217 65.6571 43.0322 65.6571 43.0322L65.0559 48.609L64.0249 49.0783L63.5171 48.143L64.3612 42.7574C64.3612 42.7574 65.9538 38.2126 66.1891 37.7433L67.364 35.2681L68.5434 33.9141Z" fill="black"/>
<path d="M68.4489 33.8203L68.3753 35.3591C68.3753 35.3591 67.3322 38.651 66.9805 39.1895C66.6288 39.7281 65.5637 42.9386 65.5637 42.9386L64.9658 48.5145L63.9348 48.9827L63.4193 48.0463L64.2634 42.6606C64.2634 42.6606 65.8561 38.1146 66.0902 37.6464L67.2739 35.1744L68.4489 33.8203Z" fill="#663D5C"/>
<path d="M56.2969 45.5697L58.3118 46.9645C58.3118 46.9645 59.7331 46.1676 58.9053 45.6521C58.0776 45.1366 57.3433 45.0586 57.0773 45.0586C56.8113 45.0586 56.2969 45.5697 56.2969 45.5697Z" fill="#D28690"/>
<path d="M57.8017 42.994C57.7567 43.0219 57.7197 43.061 57.6941 43.1074C57.6685 43.1537 57.6552 43.2059 57.6555 43.2588C57.6555 43.6864 57.7039 44.8185 58.0622 44.3074C58.5018 43.682 58.4215 43.1204 59.0931 43.5259C59.5104 43.7859 59.8757 44.1214 60.1701 44.5152L59.9833 43.172C59.9833 43.172 58.6029 42.4906 57.8017 42.994Z" fill="#D28690"/>
<path opacity="0.1" d="M73.4239 59.3878C73.3227 59.5461 73.2337 59.8923 73.1601 60.3385C69.0515 61.5706 66.0453 58.9658 66.0453 58.9658C65.6816 57.7334 65.3844 56.4823 65.155 55.218C65.0813 54.7849 65.0978 53.9452 65.166 52.9209L72.5116 51.6328C72.5116 51.6328 73.8932 58.6613 73.4239 59.3878Z" fill="black"/>
<path d="M77.6414 38.426C77.4545 39.036 77.5248 40.2769 77.5248 40.2769L75.8376 48.2432C75.8376 48.2432 75.0177 54.3817 74.877 55.2017C74.7363 56.0216 74.5022 59.63 74.5022 59.63C69.722 61.9733 66.0387 58.787 66.0387 58.787C65.675 57.5541 65.3779 56.3026 65.1484 55.0379C64.9132 53.6464 65.6056 48.0717 65.9332 45.5955C66.031 44.8623 66.0969 44.4007 66.0969 44.4007L67.3269 39.8317C67.3269 39.8317 68.8382 35.9772 69.401 34.8528C69.9638 33.7284 72.2236 31.2026 72.2236 31.2026C72.5039 31.0246 72.9524 31.6533 73.2854 32.2259C73.5371 32.6589 73.7251 33.0612 73.7251 33.0612C73.7251 33.0612 76.5367 34.279 76.9577 34.9297C77.3787 35.5804 77.3094 36.9213 77.3567 36.9916C77.4039 37.062 77.8293 37.8171 77.6414 38.426Z" fill="#585B8A"/>
<path opacity="0.1" d="M71.0109 35.58C71.0109 35.58 71.2219 36.822 70.6811 37.1968C70.1591 37.5595 66.2726 45.2016 66.0308 45.6786C66.1286 44.9444 66.1945 44.4828 66.1945 44.4828L67.4244 39.9149C67.4244 39.9149 68.9368 36.0603 69.4985 34.9348C70.0601 33.8093 72.3221 31.2847 72.3221 31.2847C72.6024 31.1066 73.0498 31.7353 73.3828 32.3079C72.8805 33.351 71.833 35.3228 71.0109 35.58Z" fill="black"/>
<path d="M70.9175 35.498C70.9175 35.498 71.1274 36.7401 70.5878 37.1149C70.0481 37.4897 66.1803 45.1188 65.9352 45.5958C66.033 44.8627 66.0989 44.4011 66.0989 44.4011L67.3289 39.8319C67.3289 39.8319 68.8402 35.9773 69.4029 34.8529C69.9657 33.7284 72.2255 31.2026 72.2255 31.2026C72.5057 31.0246 72.9542 31.6533 73.2872 32.2259C72.7871 33.2679 71.7385 35.2409 70.9175 35.498Z" fill="#585B8A"/>
<path d="M76.4934 46.7104L75.1712 53.5898V53.5909L75.0448 54.2493V54.2504L74.7601 55.7309L73.5456 55.4737L72.9795 55.3539L65.1461 53.6942L64.5702 53.5722L63.2556 53.2942L63.5128 51.5861L63.6194 50.8761L64.568 44.5781L76.4934 46.7104Z" fill="#EDE04B"/>
<path d="M69.1833 52.3242C69.1833 52.3242 66.0673 53.4487 66.7465 54.7842C67.4258 56.1198 71.7838 53.7532 71.7838 53.7532L69.1833 52.3242Z" fill="#D28690"/>
<path opacity="0.1" d="M71.4089 61.9102C71.4089 62.0036 71.5266 63.1994 71.995 63.6204C72.4634 64.0414 71.4089 61.9102 71.4089 61.9102Z" fill="black"/>
<path opacity="0.1" d="M68.2698 66.1523C68.2698 66.1523 68.8315 67.6988 71.0576 68.3319C73.2837 68.965 68.2698 66.1523 68.2698 66.1523Z" fill="black"/>
<path opacity="0.1" d="M73.385 27.2592C73.3852 27.9018 73.2159 28.5331 72.8942 29.0894C72.5725 29.6458 72.1098 30.1074 71.5528 30.4279C71.3428 30.3104 71.1565 30.155 71.0032 29.9696C70.8438 29.7761 70.7197 29.5123 70.8153 29.2815C70.8922 29.0958 71.0956 28.9782 71.145 28.7858C71.1683 28.6682 71.1623 28.5466 71.1274 28.4319C71.0868 28.2506 71.0483 28.0692 71.0087 27.889C70.9746 27.7351 70.9142 27.5537 70.7614 27.5164C70.6086 27.479 70.4811 27.6065 70.3613 27.701C70.0679 27.9329 69.5051 28.0901 69.1523 27.8999C68.7995 27.7098 68.8984 27.0734 68.8413 26.7294C68.8405 26.6995 68.8333 26.6701 68.82 26.6434C68.8067 26.6166 68.7877 26.5931 68.7643 26.5744C68.713 26.5574 68.6581 26.5536 68.6049 26.5634C68.4148 26.5634 68.262 26.3931 68.2071 26.2106C68.1681 26.0244 68.1468 25.8348 68.1433 25.6446C68.1224 25.4544 68.0532 25.2533 67.8905 25.1555C67.7605 25.095 67.6164 25.0714 67.4739 25.0873L66.7848 25.095C67.242 24.4769 67.8824 24.0187 68.6149 23.7855C69.3475 23.5523 70.1349 23.556 70.8653 23.796C71.5956 24.0361 72.2317 24.5003 72.6831 25.1226C73.1345 25.7449 73.3782 26.4937 73.3795 27.2625L73.385 27.2592Z" fill="black"/>
<path d="M70.4591 27.7026C70.5789 27.6081 70.7108 27.4827 70.8592 27.519C71.0076 27.5553 71.0713 27.7388 71.1054 27.8905L71.2241 28.4324C71.2592 28.5474 71.2657 28.6693 71.2428 28.7874C71.1867 28.9809 70.9845 29.0974 70.9065 29.2831C70.8109 29.514 70.9362 29.7777 71.0944 29.9701C71.3831 30.318 71.7822 30.5566 72.2254 30.6461C72.3411 30.6739 72.4614 30.6765 72.5782 30.6538C72.8398 30.5933 73.0178 30.3526 73.1585 30.1273C73.885 28.9952 74.5104 27.7542 74.6379 26.4155C74.6729 26.1424 74.6602 25.8654 74.6005 25.5966C74.541 25.3878 74.4568 25.1867 74.3499 24.9976C74.1628 24.6113 73.9252 24.2517 73.6432 23.9281C73.1431 23.3896 72.4529 23.0587 71.744 22.8631C70.9466 22.6418 70.114 22.5765 69.2919 22.6707C69.0721 22.696 68.8611 22.7323 68.6446 22.7466C68.3727 22.7592 68.1003 22.7548 67.829 22.7334L66.2112 22.6367C66.1188 22.8246 66.2112 23.0477 66.3211 23.2236C66.431 23.3995 66.5673 23.5819 66.5585 23.7908C66.5497 23.9996 66.4013 24.1645 66.287 24.3403C66.1727 24.5162 66.0859 24.7437 66.2002 24.9152C66.3145 25.0866 66.5475 25.0976 66.7497 25.0954L67.5652 25.0866C67.7073 25.072 67.8506 25.0967 67.9796 25.1581C68.1423 25.2559 68.2115 25.4581 68.2324 25.6472C68.237 25.8374 68.2583 26.0268 68.2961 26.2133C68.3522 26.3957 68.5039 26.5683 68.694 26.5661C68.7472 26.5555 68.8024 26.5596 68.8534 26.5782C68.8767 26.5966 68.8957 26.6199 68.909 26.6465C68.9223 26.6731 68.9296 26.7023 68.9303 26.732C68.9875 27.0761 68.882 27.7114 69.2414 27.9026C69.6008 28.0939 70.1657 27.9345 70.4591 27.7026Z" fill="#663D5C"/>
<path opacity="0.1" d="M75.1054 34.9202C74.7013 34.8773 74.2946 34.973 73.9521 35.1917C73.6095 35.4104 73.3515 35.7391 73.2204 36.1237C72.7807 37.3756 72.0476 39.6343 72.2312 40.5268C72.4895 41.7918 72.7939 43.901 72.7939 43.901C72.7939 43.901 74.1294 44.6704 73.4534 45.4464C72.7774 46.2224 72.5862 47.3215 72.5862 47.3215C72.5862 47.3215 71.719 47.6963 71.5321 48.4931C71.3452 49.29 70.079 50.3902 70.079 50.3902L68.1819 52.2884C68.1819 52.2884 71.3211 55.4758 71.9542 55.6385L73.8986 53.3655L76.1947 50.3198L78.1864 48.2315C78.1864 48.2315 78.6546 47.1324 78.4205 45.0441C78.1864 42.9558 77.2719 40.9675 77.2719 40.9675L77.3422 40.2641C77.3422 40.2641 77.5576 35.2246 75.1054 34.9202Z" fill="black"/>
<path d="M75.2917 34.92C74.888 34.8776 74.4818 34.9736 74.1397 35.1922C73.7977 35.4109 73.54 35.7392 73.409 36.1235C72.9694 37.3754 72.2363 39.6341 72.4198 40.5266C72.677 41.7917 72.9815 43.901 72.9815 43.901C72.9815 43.901 74.3168 44.6704 73.6409 45.4463C72.965 46.2223 72.7748 47.3215 72.7748 47.3215C72.7748 47.3215 71.9077 47.6963 71.7197 48.4931C71.5318 49.29 70.2678 50.3902 70.2678 50.3902L68.3698 52.2884C68.3698 52.2884 71.5087 55.4759 72.1418 55.6386L74.086 53.3656L76.3765 50.3199L78.368 48.2315C78.368 48.2315 78.8373 47.1324 78.6021 45.0441C78.3669 42.9557 77.4547 40.9674 77.4547 40.9674L77.525 40.2639C77.525 40.2639 77.7438 35.2244 75.2917 34.92Z" fill="#585B8A"/>
<path opacity="0.1" d="M73.3301 42.0586C73.3301 42.0586 75.3219 44.4943 76.1662 43.9557C77.0104 43.4172 73.3301 42.0586 73.3301 42.0586Z" fill="black"/>
<path opacity="0.1" d="M74.0797 40.1719C74.2908 40.2422 76.0254 42.6562 76.9157 42.3704C77.8061 42.0846 74.0797 40.1719 74.0797 40.1719Z" fill="black"/>
<path opacity="0.1" d="M74.573 44.3203C74.573 44.3203 74.6906 45.7032 76.1196 45.5152C77.5487 45.3272 74.573 44.3203 74.573 44.3203Z" fill="black"/>
<path opacity="0.1" d="M68.2577 33.1758L67.485 34.8981L68.45 33.9188L68.2577 33.1758Z" fill="black"/>
<path d="M68.2577 33.0703L67.485 34.7926L68.45 33.8133L68.2577 33.0703Z" fill="#F0F3F7"/>
<path opacity="0.3" d="M65.146 53.7123L64.5701 53.5903L63.5127 51.6045L63.6193 50.8945L65.146 53.7123Z" fill="black"/>
<path opacity="0.3" d="M75.1713 53.5898L75.0449 54.2482V54.2493L73.5457 55.4726L72.9796 55.3528L75.1713 53.5898Z" fill="black"/>
<path opacity="0.1" d="M51.55 45.9052C51.2598 45.9536 50.9785 45.9976 50.7213 46.0306C49.2924 46.2185 45.8939 44.5313 45.8939 44.5313C45.8939 44.5313 41.7469 41.0636 40.5522 37.7838C39.3574 34.504 41.981 34.0116 41.981 34.0116C42.9703 33.4488 45.1212 35.0184 45.4257 35.2767C45.7301 35.535 45.9884 36.19 45.9643 36.6121C45.9401 37.0342 46.6677 37.5727 46.6677 37.5727C46.6677 37.5727 47.9097 39.7281 48.2142 39.9622C48.5186 40.1964 48.589 40.4074 48.6824 40.8064C48.7758 41.2054 49.5958 41.5329 49.9475 41.5087C50.2992 41.4845 50.7169 41.6263 50.7169 41.8132C50.7169 41.9638 51.0609 42.0385 51.3434 42.0627C51.4269 43.264 51.5093 44.838 51.55 45.9052Z" fill="black"/>
<path opacity="0.1" d="M51.5364 45.5618C51.3165 45.5969 51.1055 45.6288 50.9077 45.6552C49.4788 45.8431 46.0814 44.156 46.0814 44.156C46.0814 44.156 41.9344 40.6884 40.7397 37.4087C39.5449 34.1289 42.1685 33.6366 42.1685 33.6366C43.1578 33.0738 45.3076 34.6433 45.6121 34.9016C45.9166 35.1599 46.1748 35.815 46.1518 36.237C46.1287 36.6591 46.8541 37.1976 46.8541 37.1976C46.8541 37.1976 48.0961 39.353 48.4006 39.5871C48.705 39.8212 48.7754 40.0322 48.8699 40.4312C48.9644 40.8301 49.7833 41.1566 50.135 41.1335C50.4867 41.1104 50.9044 41.2511 50.9044 41.4379C50.9044 41.5479 51.1 41.6215 51.3176 41.6578C51.3264 41.7853 51.3341 41.9204 51.344 42.0611C51.4166 43.1415 51.4913 44.5198 51.5364 45.5618Z" fill="black"/>
<path opacity="0.1" d="M56.972 43.207L56.8829 45.313H56.7873L56.5895 45.203L56.6137 43.3884C56.7292 43.3205 56.8488 43.2599 56.972 43.207Z" fill="black"/>
<path d="M41.981 33.8354C41.981 33.8354 39.3574 34.3278 40.5522 37.6076C41.7469 40.8874 45.8939 44.3563 45.8939 44.3563C45.8939 44.3563 49.2913 46.0424 50.7213 45.8555C52.1512 45.6687 54.3286 45.1762 54.61 45.2466C54.8913 45.3169 56.7895 45.3169 56.7895 45.3169L56.8829 43.1187L54.6847 43.0011L53.5603 42.767C53.5603 42.767 53.1613 42.4372 52.9272 42.4856C52.6931 42.5339 52.2018 42.2042 52.2018 42.2042C52.2018 42.2042 51.8259 41.8997 51.5423 41.8997C51.2587 41.8997 50.7224 41.8294 50.7224 41.6425C50.7224 41.4557 50.3003 41.3128 49.953 41.3381C49.6057 41.3634 48.7758 41.0336 48.6791 40.6302C48.5824 40.2269 48.5153 40.0213 48.2109 39.7872C47.9064 39.5531 46.6644 37.3966 46.6644 37.3966C46.6644 37.3966 45.9379 36.858 45.961 36.4371C45.984 36.0161 45.7268 35.3588 45.4224 35.1005C45.1179 34.8422 42.9637 33.2738 41.981 33.8354Z" fill="#DCE6F2"/>
<path opacity="0.1" d="M48.7303 41.3672C48.7303 41.3672 47.7221 42.3751 47.9794 42.5619L48.7303 41.3672Z" fill="black"/>
<path opacity="0.1" d="M49.8072 42.1641C49.8072 42.1641 48.4948 43.1721 48.8465 43.2425C49.1982 43.3128 49.8072 42.1641 49.8072 42.1641Z" fill="black"/>
<path opacity="0.1" d="M47.58 43.6641C47.7679 43.7586 50.5553 45.4226 51.6104 45.3984L47.58 43.6641Z" fill="black"/>
<path opacity="0.1" d="M47.769 32.5397C47.769 32.5397 47.2766 34.1565 47.0887 34.1565C46.9414 34.1565 44.4684 32.1539 43.4363 31.312L43.4813 31.2746C43.4813 31.2746 43.5748 30.5481 43.9496 30.1755C44.3244 29.8029 47.769 32.5397 47.769 32.5397Z" fill="black"/>
<path d="M47.6745 32.3522C47.6745 32.3522 47.1832 33.969 46.9953 33.969C46.8469 33.969 44.3739 31.9664 43.3418 31.1245L43.3869 31.0871C43.3869 31.0871 43.4814 30.3606 43.8562 29.988C44.231 29.6154 47.6745 32.3522 47.6745 32.3522Z" fill="#DCE6F2"/>
<g opacity="0.15">
<path opacity="0.15" d="M41.0391 27.1289C41.3688 27.8818 42.2767 28.2467 42.8032 28.8468C42.4899 28.1093 41.5743 27.7477 41.0391 27.1289Z" fill="black"/>
<path opacity="0.15" d="M44.3988 28.8659C44.2679 29.1176 43.9591 29.2396 43.6776 29.2341C43.4275 29.2162 43.1825 29.1536 42.9543 29.0494C43.0371 29.1715 43.1002 29.3058 43.1412 29.4474C43.3978 29.5707 43.6752 29.6453 43.9591 29.6672C44.2438 29.6738 44.5493 29.5518 44.6802 29.299C44.8901 28.8977 44.6714 28.5548 44.4152 28.2305C44.463 28.3301 44.4864 28.4397 44.4835 28.5501C44.4806 28.6606 44.4516 28.7688 44.3988 28.8659Z" fill="black"/>
<path opacity="0.15" d="M48.4781 23.3529C48.4308 23.1419 48.2704 22.9759 48.1879 22.777C48.1374 22.623 48.0974 22.4659 48.0681 22.3065C48.0057 22.0813 47.8899 21.8743 47.7307 21.7031C47.7528 21.7572 47.7715 21.8127 47.7867 21.8691C47.8175 22.0291 47.8587 22.187 47.9098 22.3417C47.9923 22.5407 48.1527 22.7066 48.2 22.9177C48.2279 23.0667 48.1979 23.2208 48.1163 23.3486C48.0346 23.4764 47.9074 23.5683 47.7604 23.6057C47.3537 23.6947 46.8899 23.343 46.5404 23.5694C46.326 23.7068 46.2766 23.9937 46.248 24.2465C46.1989 24.6861 46.1491 25.1232 46.0985 25.5577C46.0886 25.7119 46.056 25.8637 46.0018 26.0084C45.8292 26.4041 45.3555 26.5898 44.9236 26.5832C44.7548 26.5945 44.5883 26.5393 44.4597 26.4294C44.3972 26.3409 44.3301 26.2557 44.2586 26.1744C43.709 25.7127 43.542 26.8415 43.6871 27.1636C43.7597 27.3084 43.8498 27.4439 43.9552 27.5669C43.8343 27.2042 44.0036 26.1601 44.54 26.6074C44.6114 26.6885 44.6782 26.7737 44.74 26.8624C44.8691 26.9722 45.0358 27.0274 45.2049 27.0163C45.6369 27.0229 46.1106 26.8371 46.2832 26.4414C46.3375 26.2964 46.3701 26.1442 46.3799 25.9897C46.4297 25.5501 46.4795 25.1133 46.5294 24.6795C46.5579 24.4267 46.6074 24.1399 46.8206 24.0025C47.1712 23.7761 47.6351 24.1278 48.0417 24.0377C48.1876 23.9999 48.3137 23.9082 48.3946 23.7811C48.4756 23.6541 48.5054 23.5011 48.4781 23.3529Z" fill="black"/>
</g>
<path opacity="0.1" d="M72.8128 30.3783C72.6959 30.4001 72.5757 30.3971 72.46 30.3695C72.0173 30.2801 71.6186 30.0419 71.33 29.6946C71.1706 29.5011 71.0453 29.2374 71.142 29.0065C71.219 28.8208 71.4212 28.7043 71.4718 28.5108C71.4947 28.3927 71.4882 28.2708 71.4531 28.1558L71.3344 27.6139C71.3003 27.46 71.241 27.2787 71.0882 27.2424C70.9354 27.2061 70.8079 27.3314 70.6881 27.426C70.3946 27.6579 69.8307 27.8162 69.4789 27.6249C69.1272 27.4337 69.225 26.7983 69.1679 26.4543C69.1669 26.4246 69.1595 26.3955 69.1463 26.3689C69.133 26.3424 69.1141 26.319 69.0909 26.3004C69.0394 26.2825 68.9841 26.2783 68.9304 26.2883C68.7403 26.2883 68.5886 26.118 68.5325 25.9355C68.4944 25.7491 68.4734 25.5597 68.4699 25.3695C68.4479 25.1804 68.3797 24.9782 68.2159 24.8803C68.0868 24.8195 67.9436 24.7948 67.8015 24.8089L66.9859 24.8177C66.7848 24.8177 66.5462 24.8045 66.4363 24.6374C66.3264 24.4704 66.4077 24.2329 66.5232 24.0626C66.6386 23.8922 66.7848 23.7229 66.7947 23.513C66.8046 23.3031 66.6683 23.1217 66.5572 22.9458C66.4936 22.8497 66.4467 22.7434 66.4187 22.6315L66.1846 22.6172C66.0934 22.804 66.1846 23.0272 66.2945 23.2041C66.4044 23.3811 66.5418 23.5625 66.532 23.7702C66.5221 23.9779 66.3759 24.145 66.2605 24.3198C66.145 24.4945 66.0604 24.7232 66.1747 24.8946C66.289 25.0661 66.521 25.0782 66.7243 25.076L67.5399 25.0661C67.6821 25.0523 67.8253 25.0774 67.9543 25.1386C68.1181 25.2365 68.1874 25.4387 68.2082 25.6278C68.2117 25.818 68.2331 26.0075 68.272 26.1938C68.327 26.3752 68.4798 26.5488 68.6699 26.5455C68.7232 26.5361 68.778 26.5403 68.8293 26.5576C68.8526 26.5764 68.8715 26.5999 68.8848 26.6267C68.8981 26.6534 68.9054 26.6828 68.9063 26.7126C68.9634 27.0555 68.8579 27.692 69.2173 27.8832C69.5768 28.0745 70.1374 27.9162 70.4265 27.6843C70.5463 27.5897 70.6793 27.4644 70.8277 27.4996C70.9761 27.5348 71.0398 27.7194 71.0728 27.8711L71.1926 28.4141C71.2274 28.5292 71.2335 28.6511 71.2102 28.7691C71.1552 28.9615 70.9519 29.0791 70.8749 29.2637C70.7793 29.4946 70.9035 29.7594 71.0629 29.9518C71.3535 30.3006 71.7552 30.5389 72.2006 30.6267C72.3163 30.6543 72.4365 30.6573 72.5534 30.6355C72.7424 30.5779 72.9045 30.4547 73.0107 30.2881C72.9507 30.3298 72.8836 30.3603 72.8128 30.3783Z" fill="black"/>
<path opacity="0.1" d="M22.388 78.921C23.8552 78.921 25.0446 78.7384 25.0446 78.5132C25.0446 78.288 23.8552 78.1055 22.388 78.1055C20.9208 78.1055 19.7314 78.288 19.7314 78.5132C19.7314 78.7384 20.9208 78.921 22.388 78.921Z" fill="#EDE04B"/>
<path opacity="0.1" d="M115.146 68.3038C116.614 68.3038 117.803 68.1213 117.803 67.8961C117.803 67.6708 116.614 67.4883 115.146 67.4883C113.679 67.4883 112.489 67.6708 112.489 67.8961C112.489 68.1213 113.679 68.3038 115.146 68.3038Z" fill="#EDE04B"/>
<path opacity="0.1" d="M88.0625 85.5289C92.3117 85.5289 95.7564 85.0004 95.7564 84.3484C95.7564 83.6965 92.3117 83.168 88.0625 83.168C83.8133 83.168 80.3687 83.6965 80.3687 84.3484C80.3687 85.0004 83.8133 85.5289 88.0625 85.5289Z" fill="#EDE04B"/>
<path opacity="0.1" d="M109.933 80.2523C113.247 80.2523 115.934 79.8399 115.934 79.3312C115.934 78.8225 113.247 78.4102 109.933 78.4102C106.618 78.4102 103.931 78.8225 103.931 79.3312C103.931 79.8399 106.618 80.2523 109.933 80.2523Z" fill="#EDE04B"/>
<path opacity="0.1" d="M108.945 90.0651C114.565 90.0651 119.122 89.3658 119.122 88.5033C119.122 87.6407 114.565 86.9414 108.945 86.9414C103.324 86.9414 98.7682 87.6407 98.7682 88.5033C98.7682 89.3658 103.324 90.0651 108.945 90.0651Z" fill="#EDE04B"/>
<path opacity="0.1" d="M11.0176 91.0719C15.2668 91.0719 18.7115 90.5434 18.7115 89.8914C18.7115 89.2395 15.2668 88.7109 11.0176 88.7109C6.7684 88.7109 3.32375 89.2395 3.32375 89.8914C3.32375 90.5434 6.7684 91.0719 11.0176 91.0719Z" fill="#EDE04B"/>
<path d="M22.5092 65.5195C22.5092 65.5195 22.8104 65.913 22.3707 66.5087C21.9311 67.1045 21.5684 67.6079 21.7113 67.975C21.7113 67.975 22.3707 66.8759 22.9203 66.8561C23.4698 66.8363 23.1038 66.1834 22.5092 65.5195Z" fill="#EDE04B"/>
<path opacity="0.1" d="M22.5092 65.5195C22.536 65.5571 22.5568 65.5986 22.5707 65.6426C23.0983 66.2625 23.3786 66.8396 22.8719 66.8517C22.4004 66.8649 21.8343 67.709 21.6991 67.9222C21.7032 67.9386 21.7084 67.9548 21.7145 67.9706C21.7145 67.9706 22.374 66.8715 22.9236 66.8517C23.4732 66.8319 23.1038 66.1834 22.5092 65.5195Z" fill="black"/>
<path d="M23.0691 66.0189C23.0691 66.1576 23.0527 66.2699 23.034 66.2699C23.0153 66.2699 22.9988 66.1598 22.9988 66.0189C22.9988 65.878 23.0186 65.9462 23.0373 65.9462C23.056 65.9462 23.0691 65.8802 23.0691 66.0189Z" fill="#FFD037"/>
<path d="M23.2606 66.1893C23.1397 66.2551 23.0331 66.299 23.0243 66.2782C23.0155 66.2573 23.1056 66.1948 23.2276 66.1278C23.3496 66.0609 23.3013 66.1102 23.3101 66.1278C23.3188 66.1454 23.3826 66.1223 23.2606 66.1893Z" fill="#FFD037"/>
<path d="M20.92 65.5195C20.92 65.5195 20.6189 65.913 21.0585 66.5087C21.4982 67.1045 21.862 67.6079 21.718 67.975C21.718 67.975 21.0585 66.8759 20.5144 66.8561C19.9704 66.8363 20.3221 66.1834 20.92 65.5195Z" fill="#EDE04B"/>
<path opacity="0.1" d="M20.9191 65.5195C20.8929 65.5574 20.8721 65.5989 20.8576 65.6426C20.33 66.2625 20.0497 66.8396 20.5564 66.8517C21.0279 66.8649 21.594 67.709 21.7303 67.9222C21.7258 67.9387 21.7203 67.9548 21.7138 67.9706C21.7138 67.9706 21.0543 66.8715 20.5102 66.8517C19.9662 66.8319 20.3212 66.1834 20.9191 65.5195Z" fill="black"/>
<path d="M20.3602 66.0189C20.3602 66.1576 20.3756 66.2699 20.3943 66.2699C20.413 66.2699 20.4295 66.1598 20.4295 66.0189C20.4295 65.878 20.4097 65.9462 20.391 65.9462C20.3723 65.9462 20.3602 65.8802 20.3602 66.0189Z" fill="#FFD037"/>
<path d="M20.1679 66.1893C20.2899 66.2551 20.3954 66.299 20.4053 66.2782C20.4152 66.2573 20.3229 66.1948 20.2009 66.1278C20.0789 66.0609 20.1272 66.1102 20.1185 66.1278C20.1097 66.1454 20.0459 66.1223 20.1679 66.1893Z" fill="#FFD037"/>
<path opacity="0.1" d="M21.7144 70.9846C23.4523 70.9846 24.8612 70.7685 24.8612 70.502C24.8612 70.2356 23.4523 70.0195 21.7144 70.0195C19.9765 70.0195 18.5676 70.2356 18.5676 70.502C18.5676 70.7685 19.9765 70.9846 21.7144 70.9846Z" fill="#EDE04B"/>
<path d="M23.3342 67.4375L23.3189 67.5606L23.298 67.7342L23.2892 67.8068L23.2683 67.9804L23.2584 68.053L23.2375 68.2266L22.9968 70.2051C22.9759 70.3809 22.6879 70.5183 22.3373 70.5183H21.0909C20.7435 70.5183 20.4555 70.3809 20.4314 70.2051L20.1906 68.2266L20.1698 68.053L20.161 67.9804L20.139 67.8068L20.1302 67.7342L20.1093 67.5606L20.0939 67.4375C20.0818 67.3374 20.2379 67.2539 20.4347 67.2539H22.9946C23.1903 67.2539 23.3463 67.3374 23.3342 67.4375Z" fill="#65617D"/>
<path d="M23.3188 67.5703L23.2979 67.744H20.1303L20.1094 67.5703H23.3188Z" fill="#9D9CB5"/>
<path d="M23.2895 67.8164L23.2686 67.9901H20.1614L20.1394 67.8164H23.2895Z" fill="#9D9CB5"/>
<path d="M23.2596 68.0625L23.2376 68.2362H20.1907L20.1698 68.0625H23.2596Z" fill="#9D9CB5"/>
<path d="M113.051 64.0078C113.051 64.0078 112.675 65.7576 114.347 65.9642L114.451 65.7697C114.451 65.7697 113.155 64.5508 113.051 64.0078Z" fill="#EDE04B"/>
<path d="M114.983 65.7474L114.594 65.8298L114.555 65.8386C114.555 65.8386 113.517 64.9967 113.531 63.1172C113.669 63.3943 113.835 63.6568 114.026 63.9009C114.438 64.4449 114.905 65.1704 114.983 65.7474Z" fill="#EDE04B"/>
<path d="M115.113 65.9421C115.083 65.962 115.048 65.9748 115.012 65.9795C114.976 65.9843 114.939 65.9809 114.904 65.9696C113.906 65.7365 114.245 62.4844 114.245 62.4844C114.3 62.5097 114.355 62.924 114.59 63.4582C114.991 64.3957 115.434 65.7069 115.113 65.9421Z" fill="#EDE04B"/>
<path d="M117.327 64.0078C117.327 64.0078 117.392 65.7576 115.72 65.9642L115.616 65.7664C115.616 65.7664 117.224 64.5508 117.327 64.0078Z" fill="#EDE04B"/>
<path d="M116.848 63.1289C116.861 65.0084 115.513 65.8503 115.513 65.8503L115.474 65.8415L115.086 65.7591C115.163 65.1821 115.635 64.4566 116.041 63.9126C116.274 63.6166 116.545 63.353 116.848 63.1289Z" fill="#EDE04B"/>
<path d="M115.468 65.7485C115.409 65.8215 115.334 65.8798 115.248 65.9188C115.222 65.9308 115.194 65.94 115.166 65.9463C114.921 66.0035 114.836 65.8265 114.849 65.5253C114.873 64.9901 115.209 64.0613 115.509 63.3655C115.653 63.0242 115.867 62.7163 116.135 62.4609C116.135 62.4609 116.12 64.9923 115.468 65.7485Z" fill="#EDE04B"/>
<path d="M115.189 61.3242C115.189 61.3242 114.075 65.2808 115.034 65.8721C115.993 66.4634 115.435 61.6737 115.189 61.3242Z" fill="#EDE04B"/>
<path opacity="0.1" d="M113.051 64.0078C113.051 64.0078 112.675 65.7576 114.347 65.9642L114.451 65.7697C114.451 65.7697 113.155 64.5508 113.051 64.0078Z" fill="black"/>
<path opacity="0.1" d="M114.983 65.7474L114.594 65.8298L114.555 65.8386C114.555 65.8386 113.517 64.9967 113.531 63.1172C113.669 63.3943 113.835 63.6568 114.026 63.9009C114.438 64.4449 114.905 65.1704 114.983 65.7474Z" fill="black"/>
<path opacity="0.1" d="M115.113 65.9421C115.083 65.962 115.048 65.9748 115.012 65.9795C114.976 65.9843 114.939 65.9809 114.904 65.9696C113.906 65.7365 114.245 62.4844 114.245 62.4844C114.3 62.5097 114.355 62.924 114.59 63.4582C114.991 64.3957 115.434 65.7069 115.113 65.9421Z" fill="black"/>
<path opacity="0.1" d="M117.327 64.0078C117.327 64.0078 117.392 65.7576 115.72 65.9642L115.616 65.7664C115.616 65.7664 117.224 64.5508 117.327 64.0078Z" fill="black"/>
<path opacity="0.1" d="M116.848 63.1289C116.861 65.0084 115.513 65.8503 115.513 65.8503L115.474 65.8415L115.086 65.7591C115.163 65.1821 115.635 64.4566 116.041 63.9126C116.274 63.6166 116.545 63.353 116.848 63.1289Z" fill="black"/>
<path opacity="0.1" d="M115.468 65.7485C115.409 65.8215 115.334 65.8798 115.248 65.9188C115.222 65.9308 115.194 65.94 115.166 65.9463C114.921 66.0035 114.836 65.8265 114.849 65.5253C114.873 64.9901 115.209 64.0613 115.509 63.3655C115.653 63.0242 115.867 62.7163 116.135 62.4609C116.135 62.4609 116.12 64.9923 115.468 65.7485Z" fill="black"/>
<path opacity="0.1" d="M115.189 61.3242C115.189 61.3242 114.075 65.2808 115.034 65.8721C115.993 66.4634 115.435 61.6737 115.189 61.3242Z" fill="black"/>
<path d="M113.052 64.0078C113.052 64.0078 112.832 65.7576 114.503 65.9642L114.606 65.7697C114.606 65.7697 113.155 64.5508 113.052 64.0078Z" fill="#EDE04B"/>
<path d="M115.137 65.7558L114.748 65.8382L114.709 65.847C114.709 65.847 113.517 65.0051 113.527 63.1289C113.527 63.1289 113.833 63.4586 114.178 63.9126C114.592 64.4533 115.059 65.1788 115.137 65.7558Z" fill="#EDE04B"/>
<path opacity="0.1" d="M115.138 65.7372L114.748 65.8196C114.38 65.4964 114.234 64.6523 114.181 63.8906C114.592 64.4347 115.059 65.1601 115.138 65.7372Z" fill="black"/>
<path d="M115.27 65.9417C115.239 65.9616 115.204 65.9744 115.168 65.9792C115.131 65.9839 115.094 65.9805 115.06 65.9692C114.061 65.7362 114.244 62.4844 114.244 62.4844C114.299 62.5097 114.514 62.924 114.744 63.4581C115.148 64.3955 115.59 65.7065 115.27 65.9417Z" fill="#EDE04B"/>
<path d="M117.327 64.0078C117.327 64.0078 117.547 65.7576 115.876 65.9642L115.773 65.7697C115.773 65.7697 117.224 64.5508 117.327 64.0078Z" fill="#EDE04B"/>
<path d="M116.848 63.1289C116.861 65.0084 115.668 65.8503 115.668 65.8503L115.63 65.8415L115.241 65.7591C115.318 65.1821 115.79 64.4566 116.197 63.9126C116.542 63.4586 116.848 63.1289 116.848 63.1289Z" fill="#EDE04B"/>
<path opacity="0.1" d="M116.197 63.8906C116.146 64.6007 116.017 65.3821 115.701 65.747C115.68 65.7734 115.656 65.7976 115.63 65.8196L115.241 65.7372C115.318 65.1601 115.786 64.4347 116.197 63.8906Z" fill="black"/>
<path d="M115.623 65.7485C115.564 65.8219 115.489 65.8803 115.403 65.9189C115.377 65.9307 115.35 65.9399 115.322 65.9464C115.076 66.0035 114.992 65.8266 115.005 65.5254C115.029 64.9901 115.365 64.0613 115.664 63.3655C115.884 62.8654 116.082 62.4862 116.135 62.4609C116.135 62.4598 116.275 64.9923 115.623 65.7485Z" fill="#EDE04B"/>
<path opacity="0.1" d="M115.268 65.9179C115.212 65.9186 115.156 65.9008 115.11 65.8674C114.642 65.575 114.632 64.4779 114.744 63.4336C115.147 64.3713 115.588 65.6827 115.268 65.9179Z" fill="black"/>
<path opacity="0.1" d="M115.624 65.7699C115.57 65.8875 115.497 65.9491 115.404 65.9403C115.356 65.9345 115.31 65.9171 115.271 65.8897C115.148 65.806 115.055 65.686 115.005 65.5467C115.029 65.0114 115.365 64.0825 115.665 63.3867C115.772 64.3508 115.809 65.3731 115.624 65.7699Z" fill="black"/>
<path d="M115.189 61.3242C115.189 61.3242 114.231 65.2808 115.189 65.8721C116.148 66.4634 115.436 61.6737 115.189 61.3242Z" fill="#EDE04B"/>
<path d="M117.029 65.6953H113.038V66.3559H113.647L113.663 66.4339L113.907 67.7166H116.227L116.471 66.4339L116.485 66.3559H117.029V65.6953Z" fill="#4B4770"/>
<path opacity="0.1" d="M117.029 65.6953H113.038V66.3559H113.647L113.663 66.4339L113.907 67.7166H116.227L116.471 66.4339L116.485 66.3559H117.029V65.6953Z" fill="black"/>
<path d="M116.693 66.0703L116.626 66.4209L116.382 67.7036H114.061L113.817 66.4209L113.75 66.0703H116.693Z" fill="#4B4770"/>
<path opacity="0.1" d="M116.693 66.0703L116.626 66.4209H113.817L113.75 66.0703H116.693Z" fill="black"/>
<path d="M117.184 65.6953H113.193V66.3559H117.184V65.6953Z" fill="#4B4770"/>
<path d="M15.3207 76.978C15.2155 77.1231 15.1311 77.2822 15.0701 77.4507C15.0547 77.4914 15.0393 77.5386 15.0239 77.5837C14.996 77.5707 14.967 77.5604 14.9371 77.5529C14.809 77.5206 14.6764 77.5094 14.5447 77.5199C14.5447 77.4683 14.5513 77.41 14.5524 77.3584C14.5689 76.7791 14.5008 75.9723 13.9479 76.3141C13.4181 76.6439 13.7962 77.1935 14.138 77.5452C14.1677 77.576 14.1974 77.6046 14.226 77.6321C13.9138 77.8519 13.8545 78.3718 13.8028 78.9115C13.7512 79.4512 13.2928 80.0415 12.9884 80.3767C12.9576 80.4108 12.9301 80.4416 12.9026 80.4702C12.7796 80.3719 12.6371 80.3009 12.4846 80.2617C12.3321 80.2224 12.173 80.216 12.0179 80.2426C12.0058 80.1954 11.9915 80.1459 11.9772 80.0942C11.731 79.205 11.2199 77.665 10.5681 77.3276L10.6539 77.2177C10.9308 76.856 11.243 76.3174 10.7825 76.18C10.3219 76.0426 10.2802 76.6461 10.3054 77.099C10.3098 77.1561 10.3142 77.21 10.3186 77.2605C10.2266 77.2647 10.1364 77.2878 10.0535 77.3282C9.97074 77.3687 9.89712 77.4257 9.83723 77.4958L9.76579 77.4111C9.39209 76.9715 8.70734 76.2713 8.49961 76.8C8.30617 77.2924 8.90958 77.9321 9.33384 78.3026L9.36022 78.3256C9.07555 79.4809 10.3186 80.4229 10.988 80.8351L11.0748 80.8878C10.1516 81.976 9.58114 84.0161 9.58114 84.0161L12.1662 84.4778C12.1662 84.4778 13.8809 82.9983 13.661 81.6089H13.6786C15.3921 81.266 15.7812 79.4391 15.5141 78.3542L15.5449 78.3421C15.8571 78.2145 16.1306 78.0076 16.3385 77.742C16.8177 77.077 15.8153 76.3251 15.3207 76.978Z" fill="#EDE04B"/>
<path opacity="0.1" d="M15.3207 76.978C15.2155 77.1231 15.1311 77.2822 15.0701 77.4507C15.0547 77.4914 15.0393 77.5386 15.0239 77.5837C14.996 77.5707 14.967 77.5604 14.9371 77.5529C14.809 77.5206 14.6764 77.5094 14.5447 77.5199C14.5447 77.4683 14.5513 77.41 14.5524 77.3584C14.5689 76.7791 14.5008 75.9723 13.9479 76.3141C13.4181 76.6439 13.7962 77.1935 14.138 77.5452C14.1677 77.576 14.1974 77.6046 14.226 77.6321C13.9138 77.8519 13.8545 78.3718 13.8028 78.9115C13.7512 79.4512 13.2928 80.0415 12.9884 80.3767C12.9576 80.4108 12.9301 80.4416 12.9026 80.4702C12.7796 80.3719 12.6371 80.3009 12.4846 80.2617C12.3321 80.2224 12.173 80.216 12.0179 80.2426C12.0058 80.1954 11.9915 80.1459 11.9772 80.0942C11.731 79.205 11.2199 77.665 10.5681 77.3276L10.6539 77.2177C10.9308 76.856 11.243 76.3174 10.7825 76.18C10.3219 76.0426 10.2802 76.6461 10.3054 77.099C10.3098 77.1561 10.3142 77.21 10.3186 77.2605C10.2266 77.2647 10.1364 77.2878 10.0535 77.3282C9.97074 77.3687 9.89712 77.4257 9.83723 77.4958L9.76579 77.4111C9.39209 76.9715 8.70734 76.2713 8.49961 76.8C8.30617 77.2924 8.90958 77.9321 9.33384 78.3026L9.36022 78.3256C9.07555 79.4809 10.3186 80.4229 10.988 80.8351L11.0748 80.8878C10.1516 81.976 9.58114 84.0161 9.58114 84.0161L12.1662 84.4778C12.1662 84.4778 13.8809 82.9983 13.661 81.6089H13.6786C15.3921 81.266 15.7812 79.4391 15.5141 78.3542L15.5449 78.3421C15.8571 78.2145 16.1306 78.0076 16.3385 77.742C16.8177 77.077 15.8153 76.3251 15.3207 76.978Z" fill="black"/>
<path d="M10.1746 77.7473L9.87237 78.6264C9.87237 78.6264 9.7042 78.5078 9.49207 78.3209C9.0678 77.9506 8.46437 77.311 8.65782 76.8186C8.86556 76.29 9.55032 76.9879 9.92403 77.4297C10.0746 77.6055 10.1746 77.7473 10.1746 77.7473Z" fill="#EDE04B"/>
<path d="M10.8121 77.2289C10.7203 77.35 10.6219 77.4659 10.5175 77.5763C10.4917 77.4219 10.4737 77.2664 10.4637 77.1102C10.4384 76.6573 10.4867 76.056 10.9407 76.1912C11.3947 76.3264 11.0891 76.8673 10.8121 77.2289Z" fill="#EDE04B"/>
<path d="M14.7156 77.3686C14.7068 77.66 14.6783 77.893 14.6783 77.893C14.5453 77.7889 14.4194 77.6762 14.3013 77.5555C13.9595 77.2004 13.5814 76.6529 14.1111 76.3242C14.6585 75.9811 14.7266 76.7892 14.7156 77.3686Z" fill="#EDE04B"/>
<path d="M16.4966 77.7469C16.2888 78.0125 16.0152 78.2193 15.703 78.3469C15.6164 78.3844 15.5276 78.4167 15.4371 78.4436L15.0809 77.9436C15.1183 77.7784 15.1675 77.6161 15.2282 77.4579C15.2892 77.2894 15.3736 77.1304 15.4788 76.9854C15.9712 76.3326 16.9758 77.0843 16.4966 77.7469Z" fill="#EDE04B"/>
<path opacity="0.1" d="M9.92414 77.4141C10.0747 77.5899 10.1747 77.7262 10.1747 77.7262L9.87248 78.6055C9.87248 78.6055 9.70432 78.4868 9.49219 78.2999C9.53932 78.0166 9.65644 77.7495 9.83292 77.5229C9.86259 77.4866 9.89447 77.4492 9.92414 77.4141Z" fill="black"/>
<path opacity="0.1" d="M10.8118 77.2164C10.72 77.3374 10.6217 77.4533 10.5172 77.5637C10.4914 77.4093 10.4735 77.2538 10.4634 77.0977C10.589 77.1003 10.7107 77.1417 10.8118 77.2164Z" fill="black"/>
<path d="M12.2982 80.7466L11.5463 81.0763C11.5463 81.0763 11.3826 80.9972 11.1463 80.8499C10.356 80.3641 8.76774 79.1407 9.82731 77.6986C10.8869 76.2565 11.7805 78.8428 12.1355 80.1079C12.2421 80.4927 12.2982 80.7466 12.2982 80.7466Z" fill="#EDE04B"/>
<path opacity="0.1" d="M14.2961 77.554C14.4055 77.4414 14.5537 77.3745 14.7105 77.3672C14.7017 77.6585 14.6731 77.8915 14.6731 77.8915C14.5402 77.7874 14.4143 77.6747 14.2961 77.554Z" fill="black"/>
<path opacity="0.1" d="M15.7056 78.3501C15.6189 78.3876 15.5301 78.4199 15.4396 78.4468L15.0835 77.9467C15.1209 77.7815 15.1701 77.6191 15.2308 77.4609C15.4583 77.595 15.6276 77.9292 15.7056 78.3501Z" fill="black"/>
<path d="M13.8367 81.613C13.7961 81.6218 13.7532 81.6295 13.7103 81.6361C11.1901 82.0186 12.8794 80.6589 12.8794 80.6589C12.8794 80.6589 12.9893 80.5489 13.1465 80.383C13.4509 80.0477 13.9082 79.4607 13.9609 78.9177C14.0401 78.101 14.1313 77.3349 15.0952 77.5591C16.0416 77.7811 16.2229 81.1348 13.8367 81.613Z" fill="#EDE04B"/>
<path d="M13.7896 87.8906H8.97437V89.1568H13.7896V87.8906Z" fill="#D4DFEC"/>
<path d="M14.5007 83.7656H8.20935V88.1841H14.5007V83.7656Z" fill="#D4DFEC"/>
<path opacity="0.1" d="M13.7896 87.8906H8.97437V89.1568H13.7896V87.8906Z" fill="black"/>
<path opacity="0.1" d="M14.5007 83.7656H8.20935V88.1841H14.5007V83.7656Z" fill="black"/>
<path d="M14.106 87.8906H9.29079V89.1568H14.106V87.8906Z" fill="#D4DFEC"/>
<path opacity="0.1" d="M12.1356 80.0977C12.2455 80.4758 12.2982 80.7351 12.2982 80.7351L11.5464 81.0649C11.5464 81.0649 11.3827 80.9857 11.1463 80.8385C11.4409 80.4659 11.7728 80.1845 12.1356 80.0977Z" fill="black"/>
<path opacity="0.1" d="M13.8367 81.6323C13.7961 81.6411 13.7532 81.6488 13.7103 81.6554C11.1901 82.0379 12.8794 80.6782 12.8794 80.6782C12.8794 80.6782 12.9893 80.5683 13.1465 80.4023C13.6169 80.7794 13.8114 81.2037 13.8367 81.6323Z" fill="black"/>
<path d="M9.7394 84.0215C9.7394 84.0215 11.1507 78.9656 13.1302 80.5253C15.1097 82.0849 12.3245 84.482 12.3245 84.482L9.7394 84.0215Z" fill="#EDE04B"/>
<path opacity="0.1" d="M10.4517 78.633C10.5391 78.633 10.61 78.5621 10.61 78.4747C10.61 78.3873 10.5391 78.3164 10.4517 78.3164C10.3643 78.3164 10.2935 78.3873 10.2935 78.4747C10.2935 78.5621 10.3643 78.633 10.4517 78.633Z" fill="black"/>
<path opacity="0.1" d="M10.4385 79.3947C10.5259 79.3947 10.5968 79.3238 10.5968 79.2364C10.5968 79.149 10.5259 79.0781 10.4385 79.0781C10.3511 79.0781 10.2803 79.149 10.2803 79.2364C10.2803 79.3238 10.3511 79.3947 10.4385 79.3947Z" fill="black"/>
<path opacity="0.1" d="M15.0297 78.7736C15.1171 78.7736 15.188 78.7027 15.188 78.6153C15.188 78.5279 15.1171 78.457 15.0297 78.457C14.9423 78.457 14.8714 78.5279 14.8714 78.6153C14.8714 78.7027 14.9423 78.7736 15.0297 78.7736Z" fill="black"/>
<path opacity="0.1" d="M11.3361 82.5704C11.4235 82.5704 11.4944 82.4996 11.4944 82.4122C11.4944 82.3248 11.4235 82.2539 11.3361 82.2539C11.2487 82.2539 11.1779 82.3248 11.1779 82.4122C11.1779 82.4996 11.2487 82.5704 11.3361 82.5704Z" fill="black"/>
<path opacity="0.1" d="M14.6998 80.0275C14.7872 80.0275 14.8581 79.9566 14.8581 79.8692C14.8581 79.7818 14.7872 79.7109 14.6998 79.7109C14.6124 79.7109 14.5415 79.7818 14.5415 79.8692C14.5415 79.9566 14.6124 80.0275 14.6998 80.0275Z" fill="black"/>
<path opacity="0.1" d="M13.0643 81.6564C13.1517 81.6564 13.2226 81.5855 13.2226 81.4981C13.2226 81.4107 13.1517 81.3398 13.0643 81.3398C12.9769 81.3398 12.906 81.4107 12.906 81.4981C12.906 81.5855 12.9769 81.6564 13.0643 81.6564Z" fill="black"/>
<path opacity="0.1" d="M10.9923 78.9611C11.0797 78.9611 11.1505 78.8902 11.1505 78.8028C11.1505 78.7154 11.0797 78.6445 10.9923 78.6445C10.9048 78.6445 10.834 78.7154 10.834 78.8028C10.834 78.8902 10.9048 78.9611 10.9923 78.9611Z" fill="black"/>
<path opacity="0.1" d="M14.5947 79.2775C14.6821 79.2775 14.7529 79.2066 14.7529 79.1192C14.7529 79.0318 14.6821 78.9609 14.5947 78.9609C14.5072 78.9609 14.4364 79.0318 14.4364 79.1192C14.4364 79.2066 14.5072 79.2775 14.5947 79.2775Z" fill="black"/>
<path opacity="0.1" d="M14.0534 80.4962C14.1408 80.4962 14.2117 80.4254 14.2117 80.338C14.2117 80.2505 14.1408 80.1797 14.0534 80.1797C13.966 80.1797 13.8952 80.2505 13.8952 80.338C13.8952 80.4254 13.966 80.4962 14.0534 80.4962Z" fill="black"/>
<path opacity="0.1" d="M12.3916 82.4533C12.479 82.4533 12.5499 82.3824 12.5499 82.295C12.5499 82.2076 12.479 82.1367 12.3916 82.1367C12.3042 82.1367 12.2333 82.2076 12.2333 82.295C12.2333 82.3824 12.3042 82.4533 12.3916 82.4533Z" fill="black"/>
<path opacity="0.1" d="M12.0488 81.6798C12.1362 81.6798 12.207 81.609 12.207 81.5216C12.207 81.4341 12.1362 81.3633 12.0488 81.3633C11.9613 81.3633 11.8905 81.4341 11.8905 81.5216C11.8905 81.609 11.9613 81.6798 12.0488 81.6798Z" fill="black"/>
<path opacity="0.1" d="M11.2296 79.9337C11.317 79.9337 11.3878 79.8629 11.3878 79.7755C11.3878 79.688 11.317 79.6172 11.2296 79.6172C11.1422 79.6172 11.0713 79.688 11.0713 79.7755C11.0713 79.8629 11.1422 79.9337 11.2296 79.9337Z" fill="black"/>
<path opacity="0.1" d="M14.106 87.8906H9.29079V88.3533H14.106V87.8906Z" fill="black"/>
<path d="M14.8172 83.7656H8.52576V88.1841H14.8172V83.7656Z" fill="#D4DFEC"/>
<path opacity="0.1" d="M12.6025 83.1681C12.6899 83.1681 12.7608 83.0972 12.7608 83.0098C12.7608 82.9224 12.6899 82.8516 12.6025 82.8516C12.5151 82.8516 12.4442 82.9224 12.4442 83.0098C12.4442 83.0972 12.5151 83.1681 12.6025 83.1681Z" fill="black"/>
<path opacity="0.1" d="M11.6526 83.379C11.74 83.379 11.8108 83.3082 11.8108 83.2208C11.8108 83.1334 11.74 83.0625 11.6526 83.0625C11.5651 83.0625 11.4943 83.1334 11.4943 83.2208C11.4943 83.3082 11.5651 83.379 11.6526 83.379Z" fill="black"/>
<path opacity="0.1" d="M5.49551 6.86968C6.13046 6.86968 6.64519 6.35495 6.64519 5.71999C6.64519 5.08504 6.13046 4.57031 5.49551 4.57031C4.86056 4.57031 4.34583 5.08504 4.34583 5.71999C4.34583 6.35495 4.86056 6.86968 5.49551 6.86968Z" fill="#EDE04B"/>
<path opacity="0.1" d="M115.91 43.4252C116.76 43.4252 117.449 42.7363 117.449 41.8864C117.449 41.0366 116.76 40.3477 115.91 40.3477C115.06 40.3477 114.371 41.0366 114.371 41.8864C114.371 42.7363 115.06 43.4252 115.91 43.4252Z" fill="#EDE04B"/>
<path opacity="0.1" d="M118.877 39.7114C119.497 39.7114 120 39.2085 120 38.5881C120 37.9678 119.497 37.4648 118.877 37.4648C118.256 37.4648 117.753 37.9678 117.753 38.5881C117.753 39.2085 118.256 39.7114 118.877 39.7114Z" fill="#EDE04B"/>
<path opacity="0.1" d="M7.47395 3.07754C8.32379 3.07754 9.01272 2.38861 9.01272 1.53877C9.01272 0.688931 8.32379 0 7.47395 0C6.62411 0 5.93518 0.688931 5.93518 1.53877C5.93518 2.38861 6.62411 3.07754 7.47395 3.07754Z" fill="#EDE04B"/>
<path opacity="0.1" d="M1.53877 10.1088C2.38861 10.1088 3.07754 9.41986 3.07754 8.57002C3.07754 7.72018 2.38861 7.03125 1.53877 7.03125C0.688931 7.03125 0 7.72018 0 8.57002C0 9.41986 0.688931 10.1088 1.53877 10.1088Z" fill="#EDE04B"/>
</g>
<defs>
<linearGradient id="paint0_linear" x1="57.9378" y1="85.2695" x2="57.9378" y2="20.9159" gradientUnits="userSpaceOnUse">
<stop stop-color="#808080" stop-opacity="0.25"/>
<stop offset="0.54" stop-color="#808080" stop-opacity="0.12"/>
<stop offset="1" stop-color="#808080" stop-opacity="0.1"/>
</linearGradient>
<clipPath id="clip0">
<rect width="120" height="91.0711" fill="white"/>
</clipPath>
</defs>
</svg>
