<svg width="75" height="44" viewBox="0 0 75 44" fill="none" xmlns="http://www.w3.org/2000/svg">
<g opacity="0.8" clip-path="url(#clip0)">
<path d="M72.4836 2.66045C72.8176 2.66045 73.0884 2.38969 73.0884 2.05569C73.0884 1.72169 72.8176 1.45093 72.4836 1.45093C72.1496 1.45093 71.8788 1.72169 71.8788 2.05569C71.8788 2.38969 72.1496 2.66045 72.4836 2.66045Z" fill="#F2F2F2"/>
<path d="M70.0733 2.66045C70.4073 2.66045 70.678 2.38969 70.678 2.05569C70.678 1.72169 70.4073 1.45093 70.0733 1.45093C69.7393 1.45093 69.4685 1.72169 69.4685 2.05569C69.4685 2.38969 69.7393 2.66045 70.0733 2.66045Z" fill="#F2F2F2"/>
<path d="M67.6632 2.66045C67.9972 2.66045 68.2679 2.38969 68.2679 2.05569C68.2679 1.72169 67.9972 1.45093 67.6632 1.45093C67.3292 1.45093 67.0584 1.72169 67.0584 2.05569C67.0584 2.38969 67.3292 2.66045 67.6632 2.66045Z" fill="#F2F2F2"/>
<path d="M65.2528 2.66045C65.5868 2.66045 65.8576 2.38969 65.8576 2.05569C65.8576 1.72169 65.5868 1.45093 65.2528 1.45093C64.9188 1.45093 64.6481 1.72169 64.6481 2.05569C64.6481 2.38969 64.9188 2.66045 65.2528 2.66045Z" fill="#F2F2F2"/>
<path d="M72.4836 5.18535C72.8176 5.18535 73.0884 4.91459 73.0884 4.58059C73.0884 4.24659 72.8176 3.97583 72.4836 3.97583C72.1496 3.97583 71.8788 4.24659 71.8788 4.58059C71.8788 4.91459 72.1496 5.18535 72.4836 5.18535Z" fill="#F2F2F2"/>
<path d="M70.0733 5.18535C70.4073 5.18535 70.678 4.91459 70.678 4.58059C70.678 4.24659 70.4073 3.97583 70.0733 3.97583C69.7393 3.97583 69.4685 4.24659 69.4685 4.58059C69.4685 4.91459 69.7393 5.18535 70.0733 5.18535Z" fill="#F2F2F2"/>
<path d="M67.6632 5.18535C67.9972 5.18535 68.2679 4.91459 68.2679 4.58059C68.2679 4.24659 67.9972 3.97583 67.6632 3.97583C67.3292 3.97583 67.0584 4.24659 67.0584 4.58059C67.0584 4.91459 67.3292 5.18535 67.6632 5.18535Z" fill="#F2F2F2"/>
<path d="M65.2528 5.18535C65.5868 5.18535 65.8576 4.91459 65.8576 4.58059C65.8576 4.24659 65.5868 3.97583 65.2528 3.97583C64.9188 3.97583 64.6481 4.24659 64.6481 4.58059C64.6481 4.91459 64.9188 5.18535 65.2528 5.18535Z" fill="#F2F2F2"/>
<path d="M72.4836 7.71025C72.8176 7.71025 73.0884 7.43949 73.0884 7.10549C73.0884 6.77149 72.8176 6.50073 72.4836 6.50073C72.1496 6.50073 71.8788 6.77149 71.8788 7.10549C71.8788 7.43949 72.1496 7.71025 72.4836 7.71025Z" fill="#F2F2F2"/>
<path d="M70.0733 7.71025C70.4073 7.71025 70.678 7.43949 70.678 7.10549C70.678 6.77149 70.4073 6.50073 70.0733 6.50073C69.7393 6.50073 69.4685 6.77149 69.4685 7.10549C69.4685 7.43949 69.7393 7.71025 70.0733 7.71025Z" fill="#F2F2F2"/>
<path d="M67.6632 7.71025C67.9972 7.71025 68.2679 7.43949 68.2679 7.10549C68.2679 6.77149 67.9972 6.50073 67.6632 6.50073C67.3292 6.50073 67.0584 6.77149 67.0584 7.10549C67.0584 7.43949 67.3292 7.71025 67.6632 7.71025Z" fill="#F2F2F2"/>
<path d="M65.2528 7.71025C65.5868 7.71025 65.8576 7.43949 65.8576 7.10549C65.8576 6.77149 65.5868 6.50073 65.2528 6.50073C64.9188 6.50073 64.6481 6.77149 64.6481 7.10549C64.6481 7.43949 64.9188 7.71025 65.2528 7.71025Z" fill="#F2F2F2"/>
<path d="M72.4836 10.2353C72.8176 10.2353 73.0884 9.96451 73.0884 9.63052C73.0884 9.29652 72.8176 9.02576 72.4836 9.02576C72.1496 9.02576 71.8788 9.29652 71.8788 9.63052C71.8788 9.96451 72.1496 10.2353 72.4836 10.2353Z" fill="#F2F2F2"/>
<path d="M70.0733 10.2353C70.4073 10.2353 70.678 9.96451 70.678 9.63052C70.678 9.29652 70.4073 9.02576 70.0733 9.02576C69.7393 9.02576 69.4685 9.29652 69.4685 9.63052C69.4685 9.96451 69.7393 10.2353 70.0733 10.2353Z" fill="#F2F2F2"/>
<path d="M67.6632 10.2353C67.9972 10.2353 68.2679 9.96451 68.2679 9.63052C68.2679 9.29652 67.9972 9.02576 67.6632 9.02576C67.3292 9.02576 67.0584 9.29652 67.0584 9.63052C67.0584 9.96451 67.3292 10.2353 67.6632 10.2353Z" fill="#F2F2F2"/>
<path d="M65.2528 10.2353C65.5868 10.2353 65.8576 9.96451 65.8576 9.63052C65.8576 9.29652 65.5868 9.02576 65.2528 9.02576C64.9188 9.02576 64.6481 9.29652 64.6481 9.63052C64.6481 9.96451 64.9188 10.2353 65.2528 10.2353Z" fill="#F2F2F2"/>
<path d="M72.4836 12.7602C72.8176 12.7602 73.0884 12.4894 73.0884 12.1554C73.0884 11.8214 72.8176 11.5507 72.4836 11.5507C72.1496 11.5507 71.8788 11.8214 71.8788 12.1554C71.8788 12.4894 72.1496 12.7602 72.4836 12.7602Z" fill="#F2F2F2"/>
<path d="M70.0733 12.7602C70.4073 12.7602 70.678 12.4894 70.678 12.1554C70.678 11.8214 70.4073 11.5507 70.0733 11.5507C69.7393 11.5507 69.4685 11.8214 69.4685 12.1554C69.4685 12.4894 69.7393 12.7602 70.0733 12.7602Z" fill="#F2F2F2"/>
<path d="M67.6632 12.7602C67.9972 12.7602 68.2679 12.4894 68.2679 12.1554C68.2679 11.8214 67.9972 11.5507 67.6632 11.5507C67.3292 11.5507 67.0584 11.8214 67.0584 12.1554C67.0584 12.4894 67.3292 12.7602 67.6632 12.7602Z" fill="#F2F2F2"/>
<path d="M65.2528 12.7602C65.5868 12.7602 65.8576 12.4894 65.8576 12.1554C65.8576 11.8214 65.5868 11.5507 65.2528 11.5507C64.9188 11.5507 64.6481 11.8214 64.6481 12.1554C64.6481 12.4894 64.9188 12.7602 65.2528 12.7602Z" fill="#F2F2F2"/>
<path d="M72.4836 15.2851C72.8176 15.2851 73.0884 15.0143 73.0884 14.6803C73.0884 14.3463 72.8176 14.0756 72.4836 14.0756C72.1496 14.0756 71.8788 14.3463 71.8788 14.6803C71.8788 15.0143 72.1496 15.2851 72.4836 15.2851Z" fill="#F2F2F2"/>
<path d="M70.0733 15.2851C70.4073 15.2851 70.678 15.0143 70.678 14.6803C70.678 14.3463 70.4073 14.0756 70.0733 14.0756C69.7393 14.0756 69.4685 14.3463 69.4685 14.6803C69.4685 15.0143 69.7393 15.2851 70.0733 15.2851Z" fill="#F2F2F2"/>
<path d="M67.6632 15.2851C67.9972 15.2851 68.2679 15.0143 68.2679 14.6803C68.2679 14.3463 67.9972 14.0756 67.6632 14.0756C67.3292 14.0756 67.0584 14.3463 67.0584 14.6803C67.0584 15.0143 67.3292 15.2851 67.6632 15.2851Z" fill="#F2F2F2"/>
<path d="M65.2528 15.2851C65.5868 15.2851 65.8576 15.0143 65.8576 14.6803C65.8576 14.3463 65.5868 14.0756 65.2528 14.0756C64.9188 14.0756 64.6481 14.3463 64.6481 14.6803C64.6481 15.0143 64.9188 15.2851 65.2528 15.2851Z" fill="#F2F2F2"/>
<path d="M71.4541 41.7044C71.8907 40.7614 72.327 39.8044 72.5164 38.7827C72.7059 37.761 72.6264 36.6521 72.0837 35.7659C71.5411 34.8797 70.4726 34.2788 69.453 34.4791C68.6155 34.6437 67.9431 35.3033 67.5493 36.0605C67.1556 36.8177 66.9976 37.6718 66.8445 38.5114C66.795 37.5575 66.7426 36.5883 66.4257 35.6872C66.1088 34.7862 65.4849 33.9465 64.5956 33.5978C63.7064 33.2491 62.5496 33.5233 62.0809 34.3556C61.4206 35.5281 62.2962 37.1728 61.5369 38.2838C61.4067 37.1694 60.2413 36.2889 59.1337 36.4681C58.0261 36.6473 57.1978 37.8504 57.4256 38.949C57.5612 39.6028 58.0072 40.1588 58.5405 40.5605C59.0737 40.9622 59.6939 41.4278 60.3075 41.6911L71.4541 41.7044Z" fill="#F2F2F2"/>
<path d="M58.0072 37.2556C58.8871 37.5631 59.775 37.8741 60.5782 38.3549C61.2981 38.7858 61.9392 39.366 62.344 40.109C62.5658 40.5076 62.6975 40.95 62.7299 41.405C62.7357 41.5002 62.8846 41.5008 62.8787 41.405C62.8266 40.5577 62.4137 39.7822 61.8419 39.169C61.2149 38.4966 60.4025 38.0374 59.5637 37.6811C59.0664 37.4698 58.5567 37.2903 58.0468 37.1121C57.9562 37.0804 57.9173 37.2241 58.0073 37.2556H58.0072Z" fill="white"/>
<path d="M63.082 33.7458C63.6226 34.6464 64.0554 35.6073 64.3717 36.6089C64.6886 37.6101 64.8882 38.6447 64.9666 39.692C65.0099 40.2782 65.0147 40.8667 64.9807 41.4535C64.9752 41.5492 65.1241 41.5489 65.1296 41.4535C65.1896 40.3954 65.1256 39.334 64.9388 38.2908C64.7523 37.2477 64.4457 36.2297 64.0252 35.2571C63.7892 34.7108 63.517 34.1808 63.2105 33.6707C63.2002 33.6544 63.184 33.6427 63.1652 33.6381C63.1465 33.6335 63.1267 33.6364 63.11 33.6462C63.0933 33.6559 63.0811 33.6717 63.0759 33.6903C63.0706 33.7089 63.0728 33.7288 63.082 33.7458Z" fill="white"/>
<path d="M70.367 34.6005C69.6024 36.3184 69.0643 38.1284 68.7663 39.985C68.6826 40.5065 68.6178 41.0305 68.572 41.5572C68.5636 41.6526 68.7125 41.652 68.7208 41.5572C68.8829 39.7047 69.2833 37.8809 69.912 36.1309C70.0887 35.6388 70.2832 35.1537 70.4955 34.6756C70.534 34.5888 70.4058 34.513 70.367 34.6005Z" fill="white"/>
<path d="M74.9065 41.6793H0.0935162C0.0687142 41.6793 0.0449279 41.6695 0.0273902 41.6519C0.0098525 41.6344 0 41.6106 0 41.5858C0 41.561 0.0098525 41.5372 0.0273902 41.5197C0.0449279 41.5022 0.0687142 41.4923 0.0935162 41.4923H74.9065C74.9313 41.4923 74.9551 41.5022 74.9726 41.5197C74.9901 41.5372 75 41.561 75 41.5858C75 41.6106 74.9901 41.6344 74.9726 41.6519C74.9551 41.6695 74.9313 41.6793 74.9065 41.6793Z" fill="#3F3D56"/>
<path d="M38.7401 17.8188H25.7668C25.5803 17.8186 25.4015 17.7445 25.2697 17.6126C25.1378 17.4807 25.0636 17.302 25.0634 17.1155V0.703375C25.0636 0.516893 25.1378 0.33811 25.2697 0.206248C25.4015 0.0743851 25.5803 0.000212117 25.7668 0H38.7401C38.9266 0.000212367 39.1054 0.0743855 39.2373 0.206249C39.3691 0.338113 39.4433 0.516897 39.4435 0.703379V17.1155C39.4433 17.302 39.3691 17.4807 39.2373 17.6126C39.1054 17.7445 38.9266 17.8186 38.7401 17.8188ZM25.7668 0.15631C25.6217 0.156473 25.4827 0.214161 25.3801 0.316722C25.2776 0.419282 25.2199 0.558337 25.2197 0.703379V17.1155C25.2199 17.2605 25.2776 17.3996 25.3801 17.5021C25.4827 17.6047 25.6217 17.6624 25.7668 17.6625H38.7401C38.8852 17.6624 39.0242 17.6047 39.1268 17.5021C39.2293 17.3996 39.287 17.2605 39.2872 17.1155V0.703379C39.287 0.558337 39.2293 0.419283 39.1268 0.316723C39.0242 0.214163 38.8852 0.156473 38.7401 0.15631H25.7668Z" fill="#3F3D56"/>
<path d="M31.1743 7.88885H28.3186C28.2253 7.88875 28.1359 7.85166 28.07 7.78573C28.0041 7.7198 27.967 7.6304 27.9669 7.53716V4.16724C27.967 4.074 28.0041 3.98461 28.07 3.91867C28.1359 3.85274 28.2253 3.81566 28.3186 3.81555H31.1743C31.2675 3.81566 31.3569 3.85274 31.4229 3.91867C31.4888 3.98461 31.5259 4.074 31.526 4.16724V7.53716C31.5259 7.6304 31.4888 7.7198 31.4229 7.78573C31.3569 7.85166 31.2675 7.88875 31.1743 7.88885Z" fill="#EDE04B"/>
<path d="M36.7234 9.45196H33.8677C33.7744 9.45186 33.685 9.41477 33.6191 9.34884C33.5532 9.28291 33.5161 9.19351 33.516 9.10027V5.73035C33.5161 5.63711 33.5532 5.54772 33.6191 5.48178C33.685 5.41585 33.7744 5.37877 33.8677 5.37866H36.7234C36.8166 5.37877 36.906 5.41585 36.9719 5.48178C37.0379 5.54772 37.0749 5.63711 37.075 5.73035V9.10027C37.0749 9.19351 37.0379 9.28291 36.9719 9.34884C36.906 9.41477 36.8166 9.45186 36.7234 9.45196Z" fill="#CCCCCC"/>
<path d="M32.2685 14.2193H29.4128C29.3195 14.2192 29.2302 14.1821 29.1642 14.1162C29.0983 14.0502 29.0612 13.9608 29.0611 13.8676V10.4977C29.0612 10.4044 29.0983 10.315 29.1642 10.2491C29.2302 10.1832 29.3195 10.1461 29.4128 10.146H32.2685C32.3617 10.1461 32.4511 10.1832 32.5171 10.2491C32.583 10.315 32.6201 10.4044 32.6202 10.4977V13.8676C32.6201 13.9608 32.583 14.0502 32.5171 14.1162C32.4511 14.1821 32.3617 14.2192 32.2685 14.2193Z" fill="#FF6584"/>
<path d="M10.8414 1.71001C11.1754 1.71001 11.4462 1.43925 11.4462 1.10525C11.4462 0.771248 11.1754 0.500488 10.8414 0.500488C10.5074 0.500488 10.2366 0.771248 10.2366 1.10525C10.2366 1.43925 10.5074 1.71001 10.8414 1.71001Z" fill="#F2F2F2"/>
<path d="M10.8414 4.12053C11.1754 4.12053 11.4462 3.84977 11.4462 3.51577C11.4462 3.18177 11.1754 2.91101 10.8414 2.91101C10.5074 2.91101 10.2366 3.18177 10.2366 3.51577C10.2366 3.84977 10.5074 4.12053 10.8414 4.12053Z" fill="#F2F2F2"/>
<path d="M10.8414 6.53068C11.1754 6.53068 11.4462 6.25992 11.4462 5.92592C11.4462 5.59193 11.1754 5.32117 10.8414 5.32117C10.5074 5.32117 10.2366 5.59193 10.2366 5.92592C10.2366 6.25992 10.5074 6.53068 10.8414 6.53068Z" fill="#F2F2F2"/>
<path d="M10.8414 8.94072C11.1754 8.94072 11.4462 8.66996 11.4462 8.33596C11.4462 8.00196 11.1754 7.7312 10.8414 7.7312C10.5074 7.7312 10.2366 8.00196 10.2366 8.33596C10.2366 8.66996 10.5074 8.94072 10.8414 8.94072Z" fill="#F2F2F2"/>
<path d="M13.3663 1.71001C13.7003 1.71001 13.9711 1.43925 13.9711 1.10525C13.9711 0.771248 13.7003 0.500488 13.3663 0.500488C13.0323 0.500488 12.7616 0.771248 12.7616 1.10525C12.7616 1.43925 13.0323 1.71001 13.3663 1.71001Z" fill="#F2F2F2"/>
<path d="M13.3663 4.12053C13.7003 4.12053 13.9711 3.84977 13.9711 3.51577C13.9711 3.18177 13.7003 2.91101 13.3663 2.91101C13.0323 2.91101 12.7616 3.18177 12.7616 3.51577C12.7616 3.84977 13.0323 4.12053 13.3663 4.12053Z" fill="#F2F2F2"/>
<path d="M13.3663 6.53068C13.7003 6.53068 13.9711 6.25992 13.9711 5.92592C13.9711 5.59193 13.7003 5.32117 13.3663 5.32117C13.0323 5.32117 12.7616 5.59193 12.7616 5.92592C12.7616 6.25992 13.0323 6.53068 13.3663 6.53068Z" fill="#F2F2F2"/>
<path d="M13.3663 8.94072C13.7003 8.94072 13.9711 8.66996 13.9711 8.33596C13.9711 8.00196 13.7003 7.7312 13.3663 7.7312C13.0323 7.7312 12.7616 8.00196 12.7616 8.33596C12.7616 8.66996 13.0323 8.94072 13.3663 8.94072Z" fill="#F2F2F2"/>
<path d="M15.8913 1.71001C16.2253 1.71001 16.496 1.43925 16.496 1.10525C16.496 0.771248 16.2253 0.500488 15.8913 0.500488C15.5573 0.500488 15.2865 0.771248 15.2865 1.10525C15.2865 1.43925 15.5573 1.71001 15.8913 1.71001Z" fill="#F2F2F2"/>
<path d="M15.8913 4.12053C16.2253 4.12053 16.496 3.84977 16.496 3.51577C16.496 3.18177 16.2253 2.91101 15.8913 2.91101C15.5573 2.91101 15.2865 3.18177 15.2865 3.51577C15.2865 3.84977 15.5573 4.12053 15.8913 4.12053Z" fill="#F2F2F2"/>
<path d="M15.8913 6.53068C16.2253 6.53068 16.496 6.25992 16.496 5.92592C16.496 5.59193 16.2253 5.32117 15.8913 5.32117C15.5573 5.32117 15.2865 5.59193 15.2865 5.92592C15.2865 6.25992 15.5573 6.53068 15.8913 6.53068Z" fill="#F2F2F2"/>
<path d="M15.8913 8.94072C16.2253 8.94072 16.496 8.66996 16.496 8.33596C16.496 8.00196 16.2253 7.7312 15.8913 7.7312C15.5573 7.7312 15.2865 8.00196 15.2865 8.33596C15.2865 8.66996 15.5573 8.94072 15.8913 8.94072Z" fill="#F2F2F2"/>
<path d="M18.4162 1.71001C18.7502 1.71001 19.021 1.43925 19.021 1.10525C19.021 0.771248 18.7502 0.500488 18.4162 0.500488C18.0822 0.500488 17.8114 0.771248 17.8114 1.10525C17.8114 1.43925 18.0822 1.71001 18.4162 1.71001Z" fill="#F2F2F2"/>
<path d="M18.4162 4.12053C18.7502 4.12053 19.021 3.84977 19.021 3.51577C19.021 3.18177 18.7502 2.91101 18.4162 2.91101C18.0822 2.91101 17.8114 3.18177 17.8114 3.51577C17.8114 3.84977 18.0822 4.12053 18.4162 4.12053Z" fill="#F2F2F2"/>
<path d="M18.4162 6.53068C18.7502 6.53068 19.021 6.25992 19.021 5.92592C19.021 5.59193 18.7502 5.32117 18.4162 5.32117C18.0822 5.32117 17.8114 5.59193 17.8114 5.92592C17.8114 6.25992 18.0822 6.53068 18.4162 6.53068Z" fill="#F2F2F2"/>
<path d="M18.4162 8.94072C18.7502 8.94072 19.021 8.66996 19.021 8.33596C19.021 8.00196 18.7502 7.7312 18.4162 7.7312C18.0822 7.7312 17.8114 8.00196 17.8114 8.33596C17.8114 8.66996 18.0822 8.94072 18.4162 8.94072Z" fill="#F2F2F2"/>
<path d="M20.9412 1.71001C21.2752 1.71001 21.5459 1.43925 21.5459 1.10525C21.5459 0.771248 21.2752 0.500488 20.9412 0.500488C20.6072 0.500488 20.3364 0.771248 20.3364 1.10525C20.3364 1.43925 20.6072 1.71001 20.9412 1.71001Z" fill="#F2F2F2"/>
<path d="M20.9412 4.12053C21.2752 4.12053 21.5459 3.84977 21.5459 3.51577C21.5459 3.18177 21.2752 2.91101 20.9412 2.91101C20.6072 2.91101 20.3364 3.18177 20.3364 3.51577C20.3364 3.84977 20.6072 4.12053 20.9412 4.12053Z" fill="#F2F2F2"/>
<path d="M20.9412 6.53068C21.2752 6.53068 21.5459 6.25992 21.5459 5.92592C21.5459 5.59193 21.2752 5.32117 20.9412 5.32117C20.6072 5.32117 20.3364 5.59193 20.3364 5.92592C20.3364 6.25992 20.6072 6.53068 20.9412 6.53068Z" fill="#F2F2F2"/>
<path d="M20.9412 8.94072C21.2752 8.94072 21.5459 8.66996 21.5459 8.33596C21.5459 8.00196 21.2752 7.7312 20.9412 7.7312C20.6072 7.7312 20.3364 8.00196 20.3364 8.33596C20.3364 8.66996 20.6072 8.94072 20.9412 8.94072Z" fill="#F2F2F2"/>
<path d="M23.4661 1.71001C23.8001 1.71001 24.0708 1.43925 24.0708 1.10525C24.0708 0.771248 23.8001 0.500488 23.4661 0.500488C23.1321 0.500488 22.8613 0.771248 22.8613 1.10525C22.8613 1.43925 23.1321 1.71001 23.4661 1.71001Z" fill="#F2F2F2"/>
<path d="M23.4661 4.12053C23.8001 4.12053 24.0708 3.84977 24.0708 3.51577C24.0708 3.18177 23.8001 2.91101 23.4661 2.91101C23.1321 2.91101 22.8613 3.18177 22.8613 3.51577C22.8613 3.84977 23.1321 4.12053 23.4661 4.12053Z" fill="#F2F2F2"/>
<path d="M23.4661 6.53068C23.8001 6.53068 24.0708 6.25992 24.0708 5.92592C24.0708 5.59193 23.8001 5.32117 23.4661 5.32117C23.1321 5.32117 22.8613 5.59193 22.8613 5.92592C22.8613 6.25992 23.1321 6.53068 23.4661 6.53068Z" fill="#F2F2F2"/>
<path d="M23.4661 8.94072C23.8001 8.94072 24.0708 8.66996 24.0708 8.33596C24.0708 8.00196 23.8001 7.7312 23.4661 7.7312C23.1321 7.7312 22.8613 8.00196 22.8613 8.33596C22.8613 8.66996 23.1321 8.94072 23.4661 8.94072Z" fill="#F2F2F2"/>
<path d="M16.9306 42.4971C19.1004 42.4971 20.8594 40.7381 20.8594 38.5682C20.8594 36.3984 19.1004 34.6394 16.9306 34.6394C14.7608 34.6394 13.0018 36.3984 13.0018 38.5682C13.0018 40.7381 14.7608 42.4971 16.9306 42.4971Z" fill="#2F2E41"/>
<path d="M15.4366 41.1493L13.5244 42.1068L14.0589 43.174L15.971 42.2165L15.4366 41.1493Z" fill="#2F2E41"/>
<path d="M14.3111 43.0657C14.4245 42.8937 14.1446 42.5092 13.686 42.2068C13.2274 41.9045 12.7637 41.7987 12.6503 41.9707C12.5369 42.1427 12.8168 42.5272 13.2754 42.8296C13.734 43.132 14.1977 43.2377 14.3111 43.0657Z" fill="#2F2E41"/>
<path d="M18.4245 41.1492L17.8901 42.2164L19.8022 43.174L20.3367 42.1068L18.4245 41.1492Z" fill="#2F2E41"/>
<path d="M20.5859 42.8294C21.0445 42.527 21.3244 42.1425 21.211 41.9705C21.0976 41.7985 20.6339 41.9043 20.1753 42.2066C19.7167 42.509 19.4368 42.8936 19.5502 43.0655C19.6636 43.2375 20.1273 43.1318 20.5859 42.8294Z" fill="#2F2E41"/>
<path d="M16.6556 38.9498C17.3972 38.9498 17.9984 38.3486 17.9984 37.607C17.9984 36.8655 17.3972 36.2643 16.6556 36.2643C15.914 36.2643 15.3128 36.8655 15.3128 37.607C15.3128 38.3486 15.914 38.9498 16.6556 38.9498Z" fill="white"/>
<path d="M15.8693 37.6394C16.3484 37.2745 16.89 37.816 16.5251 38.2951C16.046 38.66 15.5044 38.1185 15.8693 37.6394Z" fill="#3F3D56"/>
<path d="M20.0299 34.2938C20.089 32.8393 18.8354 31.6073 17.23 31.5421C15.6245 31.4769 14.2752 32.6032 14.2161 34.0577C14.157 35.5122 15.273 35.8427 16.8784 35.9079C18.4839 35.9731 19.9708 35.7484 20.0299 34.2938Z" fill="#CCCCCC"/>
<path d="M22.2945 40.6256C22.5529 40.4037 22.1895 39.5566 21.4829 38.7334C20.7762 37.9102 19.9938 37.4227 19.7354 37.6446C19.477 37.8664 19.8403 38.7136 20.547 39.5368C21.2537 40.36 22.0361 40.8474 22.2945 40.6256Z" fill="#2F2E41"/>
<path d="M13.3252 39.5364C14.0319 38.7132 14.3952 37.866 14.1368 37.6442C13.8784 37.4223 13.096 37.9098 12.3893 38.733C11.6827 39.5562 11.3193 40.4034 11.5777 40.6252C11.8361 40.8471 12.6185 40.3596 13.3252 39.5364Z" fill="#2F2E41"/>
<path d="M18.0096 40.1163C18.0308 40.232 18.029 40.3507 18.0042 40.4657C17.9795 40.5807 17.9323 40.6897 17.8654 40.7864C17.7985 40.8832 17.7132 40.9658 17.6144 41.0296C17.5156 41.0933 17.4051 41.137 17.2894 41.1581C17.1737 41.1791 17.055 41.1772 16.94 41.1524C16.825 41.1275 16.7161 41.0802 16.6194 41.0133C16.5227 40.9463 16.4401 40.8609 16.3765 40.762C16.3128 40.6631 16.2692 40.5527 16.2482 40.4369L16.2479 40.4352C16.1599 39.9487 16.536 39.7766 17.0225 39.6885C17.509 39.6004 17.9216 39.6298 18.0096 40.1163Z" fill="white"/>
<path d="M58.4753 30.6102H53.2375C53.2375 30.6722 53.2128 30.7317 53.169 30.7755C53.1251 30.8194 53.0657 30.844 53.0037 30.844H47.8622C47.7895 30.8987 47.7233 30.9615 47.6649 31.0311C47.4891 31.2407 47.393 31.5056 47.3936 31.7792V31.9662C47.3937 32.2762 47.5169 32.5735 47.7361 32.7927C47.9553 33.0119 48.2526 33.1351 48.5626 33.1352H58.4753C58.7853 33.1349 59.0824 33.0117 59.3016 32.7925C59.5208 32.5733 59.644 32.2762 59.6443 31.9662V31.7792C59.6438 31.4693 59.5205 31.1722 59.3014 30.9531C59.0823 30.734 58.7852 30.6107 58.4753 30.6102Z" fill="#3F3D56"/>
<path d="M54.1732 33.0886H52.9575V41.6921H54.1732V33.0886Z" fill="#3F3D56"/>
<path d="M57.6333 41.6495C57.6333 41.7808 55.7911 41.7003 53.5186 41.7003C51.2461 41.7003 49.4039 41.7808 49.4039 41.6495C49.4039 41.5181 51.2461 40.4764 53.5186 40.4764C55.7911 40.4764 57.6333 41.5181 57.6333 41.6495Z" fill="#3F3D56"/>
<path d="M58.2462 30.8795L58.0424 29.6039C58.0165 29.4432 57.928 29.2992 57.7961 29.2037C57.6643 29.1081 57.4999 29.0688 57.3391 29.0942L55.236 29.43L51.6337 30.0051L50.4619 30.1921H53.0037C53.0657 30.1922 53.1251 30.2168 53.169 30.2606C53.2128 30.3045 53.2375 30.3639 53.2375 30.4259V30.6102C53.2375 30.6721 53.2128 30.7316 53.169 30.7754C53.1251 30.8193 53.0657 30.8439 53.0037 30.8439H46.5352C46.4449 30.8862 46.3667 30.9505 46.3079 31.031C46.2582 31.0964 46.2222 31.1713 46.2023 31.251C46.1824 31.3307 46.1789 31.4137 46.192 31.4948L46.2499 31.8577L46.32 32.2981L46.3958 32.7713C46.4216 32.9317 46.5099 33.0753 46.6413 33.1706C46.7728 33.266 46.9367 33.3054 47.0972 33.28L48.7683 33.0135L53.5882 32.2439L57.7366 31.5818C57.897 31.5556 58.0406 31.4672 58.136 31.3356C58.2315 31.2041 58.2711 31.0401 58.2462 30.8795Z" fill="#EDE04B"/>
<path d="M48.6403 31.031C48.5788 30.9494 48.4974 30.885 48.4037 30.844H46.6157C46.5216 30.8847 46.4398 30.9491 46.3781 31.031C46.2949 31.1376 46.2498 31.269 46.25 31.4042V38.531C46.2502 38.6934 46.3149 38.8491 46.4297 38.9639C46.5445 39.0787 46.7002 39.1433 46.8626 39.1436H48.1559C48.3183 39.1433 48.474 39.0787 48.5888 38.9639C48.7036 38.8491 48.7682 38.6934 48.7684 38.531V31.4042C48.7685 31.269 48.7234 31.1376 48.6403 31.031Z" fill="#EDE04B"/>
<path d="M52.5323 18.8926L52.5202 18.8767L51.7178 17.8882C51.6751 17.8352 51.6235 17.79 51.5654 17.7545C51.5346 17.7336 51.5013 17.7167 51.4663 17.704C51.4151 17.6835 51.3612 17.6703 51.3063 17.6647C51.2697 17.6608 51.2327 17.6602 51.196 17.6629C51.1953 17.6629 51.1946 17.6633 51.1941 17.6638C51.0701 17.6729 50.9519 17.7199 50.8556 17.7985L49.2088 19.1339L47.0925 20.8508L43.9345 23.4132L43.7044 23.6002H47.7004L47.9313 23.4132L48.6954 22.7932L48.7496 22.7501L52.4397 19.7567L52.4426 19.7548C52.5185 19.6937 52.5785 19.6151 52.6174 19.5257C52.6431 19.4672 52.6595 19.405 52.6661 19.3415C52.6746 19.2615 52.6671 19.1807 52.6442 19.1036C52.6212 19.0266 52.5832 18.9549 52.5323 18.8926Z" fill="#EDE04B"/>
<path d="M52.5203 18.8766C52.4686 18.6246 52.3541 18.3897 52.1873 18.1939C52.0211 17.9966 51.807 17.8452 51.5655 17.7544C51.528 17.7403 51.4916 17.7273 51.4542 17.717C51.3698 17.6918 51.2834 17.6737 51.1961 17.6627C51.1953 17.6628 51.1947 17.6631 51.1942 17.6637C50.8007 17.6182 50.405 17.7275 50.0907 17.9685L47.2422 20.1456C47.1817 20.1997 47.1328 20.2654 47.0982 20.3388C47.0637 20.4122 47.0443 20.4919 47.0412 20.5729C47.0367 20.6682 47.0543 20.7633 47.0926 20.8507C47.1019 20.8703 47.1122 20.89 47.1235 20.9087C47.1453 20.9466 47.1716 20.9818 47.202 21.0134L47.6583 21.5259L48.7198 22.7163L48.7497 22.75L48.818 22.8276C48.8723 22.8872 48.9378 22.9354 49.0109 22.9696C49.0839 23.0038 49.1629 23.0232 49.2434 23.0268C49.324 23.0303 49.4044 23.018 49.4802 22.9904C49.5559 22.9628 49.6254 22.9205 49.6848 22.866L52.1415 20.2269C52.2691 20.0899 52.3703 19.9304 52.4398 19.7565C52.552 19.4774 52.58 19.1715 52.5203 18.8766Z" fill="#2F2E41"/>
<path d="M53.6065 15.4903C56.1952 15.4903 58.2937 13.3918 58.2937 10.8031C58.2937 8.21439 56.1952 6.11584 53.6065 6.11584C51.0178 6.11584 48.9193 8.21439 48.9193 10.8031C48.9193 13.3918 51.0178 15.4903 53.6065 15.4903Z" fill="#EDE04B"/>
<path d="M55.3641 30.2344L55.236 29.4301L55.1602 28.9579C55.1344 28.7973 55.046 28.6536 54.9143 28.5582C54.7826 28.4629 54.6185 28.4236 54.4579 28.4491L51.0511 28.9925L50.1272 29.1402L49.9402 29.1702V30.1923H53.0037C53.0657 30.1923 53.1252 30.2169 53.169 30.2608C53.2129 30.3046 53.2375 30.3641 53.2375 30.4261V30.6103C53.2375 30.6723 53.2129 30.7318 53.169 30.7756C53.1252 30.8194 53.0657 30.8441 53.0037 30.8441H43.3089C43.3089 30.846 43.3098 30.8478 43.3098 30.8497L43.3678 31.2125L43.5137 32.1253C43.5395 32.2856 43.6277 32.4292 43.7592 32.5246C43.8907 32.62 44.0546 32.6593 44.2151 32.634L45.8862 32.3675L46.25 32.3095L46.3201 32.2983L48.7684 31.9074L50.4339 31.6409L53.0767 31.2191L53.116 31.2125L54.8544 30.9357C55.0149 30.91 55.1586 30.8218 55.2542 30.6903C55.3497 30.5589 55.3892 30.3949 55.3641 30.2344Z" fill="#EDE04B"/>
<path d="M59.9856 26.7947C59.9856 30.6158 59.5975 32.9013 53.6124 32.2467C53.604 32.2457 53.5965 32.2448 53.5881 32.2439C52.5207 32.1384 51.4649 31.9365 50.4338 31.6407C49.898 31.4842 49.3772 31.2802 48.8777 31.031C48.7599 30.9711 48.6468 30.9085 48.5354 30.8439H53.0037C53.0657 30.8439 53.1251 30.8193 53.169 30.7754C53.2128 30.7316 53.2374 30.6721 53.2375 30.6101V30.4259C53.2374 30.3639 53.2128 30.3045 53.169 30.2606C53.1251 30.2168 53.0657 30.1921 53.0037 30.1921H49.9401V24.2856C49.9398 24.1039 49.8675 23.9297 49.739 23.8012C49.6105 23.6727 49.4363 23.6004 49.2546 23.6002H49.3808C49.4024 23.5384 49.4238 23.4758 49.4472 23.4131C49.6745 22.7819 49.6521 22.2854 49.9747 21.6672C50.418 20.8143 50.4208 19.9568 51.0034 19.2358C51.4373 18.6999 50.1084 18.1154 50.5965 17.7133C51.5345 16.939 52.5557 16.4602 53.5919 16.4602C57.4129 16.4602 59.9856 22.9736 59.9856 26.7947Z" fill="#2F2E41"/>
<path d="M53.7048 12.5402L53.7097 12.365C53.3838 12.356 53.0965 12.3355 52.8806 12.1778C52.8194 12.1306 52.7691 12.0707 52.7331 12.0022C52.6972 11.9338 52.6763 11.8584 52.6721 11.7812C52.6683 11.734 52.6754 11.6866 52.6929 11.6427C52.7104 11.5987 52.7379 11.5594 52.773 11.5277C52.9163 11.4067 53.1469 11.4459 53.315 11.5229L53.4599 11.5894L53.182 9.55835L53.0085 9.58213L53.2449 11.3098C53.1481 11.2739 53.0439 11.2628 52.9417 11.2775C52.8395 11.2922 52.7427 11.3322 52.66 11.3939C52.6043 11.4425 52.5607 11.5033 52.5324 11.5716C52.5041 11.6398 52.492 11.7137 52.497 11.7874C52.5022 11.8911 52.5299 11.9925 52.5783 12.0843C52.6267 12.1762 52.6946 12.2564 52.7773 12.3193C53.0547 12.522 53.4151 12.5321 53.7048 12.5402Z" fill="#2F2E41"/>
<path d="M52.1503 9.7312H51.2069V9.90636H52.1503V9.7312Z" fill="#2F2E41"/>
<path d="M55.1281 9.7312H54.1847V9.90636H55.1281V9.7312Z" fill="#2F2E41"/>
<path d="M56.3927 20.2324L56.0214 19.9743L55.3303 19.4945C55.1967 19.4021 55.0319 19.3665 54.872 19.3954C54.7121 19.4244 54.5702 19.5155 54.4775 19.6488L52.2247 22.891L50.1271 25.9098L49.9401 26.1791V30.1919H49.9569C50.1027 30.1774 50.2384 30.111 50.3394 30.0048C50.361 29.9826 50.3808 29.9585 50.3983 29.9328L51.0511 28.9921L52.6642 26.67L54.3363 24.2648L54.4953 24.0357L56.5451 21.0852C56.5563 21.0696 56.5666 21.0534 56.576 21.0366C56.5853 21.0206 56.5937 21.004 56.6012 20.9871C56.66 20.8567 56.6714 20.7099 56.6333 20.5721C56.5952 20.4342 56.5101 20.3141 56.3927 20.2324Z" fill="#EDE04B"/>
<path d="M56.3993 18.9496C56.3332 18.9062 56.2638 18.868 56.1917 18.8355C55.8722 18.6891 55.512 18.6571 55.1718 18.745C54.8315 18.8329 54.5319 19.0352 54.3232 19.3181L52.1948 22.204C52.1521 22.2727 52.1234 22.3492 52.1105 22.4291C52.0976 22.509 52.1008 22.5907 52.1197 22.6693C52.1387 22.748 52.1731 22.8221 52.221 22.8874C52.2689 22.9526 52.3293 23.0077 52.3987 23.0494L54.3363 24.2651L54.3606 24.28L54.4579 24.3408C54.597 24.4249 54.7637 24.4505 54.9217 24.4119C55.0796 24.3733 55.2158 24.2738 55.3005 24.1351L56.8033 21.1519L56.8285 21.1023L56.8295 21.1014L56.922 20.9153C57.0909 20.5805 57.1309 20.1954 57.0346 19.833C56.9382 19.4707 56.7121 19.1563 56.3993 18.9496Z" fill="#2F2E41"/>
<path d="M43.3678 30.844V37.8848C43.368 38.0472 43.4326 38.2029 43.5475 38.3177C43.6623 38.4325 43.8179 38.4971 43.9803 38.4974H45.2736C45.436 38.4971 45.5917 38.4325 45.7065 38.3177C45.8213 38.2029 45.886 38.0472 45.8862 37.8848V30.844H43.3678Z" fill="#EDE04B"/>
<path d="M53.0037 30.005H50.1272V24.2856C50.1269 24.0543 50.0349 23.8325 49.8714 23.6689C49.7078 23.5053 49.486 23.4133 49.2547 23.4131H38.5872C38.3558 23.4131 38.1338 23.5051 37.97 23.6686C37.8063 23.8322 37.7141 24.0541 37.7138 24.2856V30.1584C37.7141 30.3899 37.8063 30.6118 37.97 30.7753C38.1338 30.9389 38.3558 31.0308 38.5872 31.0309H53.0037C53.0187 31.0309 53.0327 31.03 53.0468 31.029C53.0599 31.0281 53.073 31.0253 53.086 31.0234C53.1814 31.0041 53.2673 30.9524 53.329 30.8771C53.3907 30.8018 53.4244 30.7074 53.4246 30.6101V30.4259C53.4246 30.3142 53.3802 30.2072 53.3013 30.1283C53.2224 30.0494 53.1153 30.005 53.0037 30.005ZM53.0037 30.8439H38.5872C38.4054 30.8438 38.231 30.7716 38.1023 30.6431C37.9736 30.5146 37.9012 30.3403 37.9008 30.1584V24.2856C37.9012 24.1037 37.9736 23.9294 38.1023 23.8009C38.231 23.6724 38.4054 23.6002 38.5872 23.6001H49.2547C49.4364 23.6004 49.6106 23.6727 49.7391 23.8012C49.8676 23.9297 49.9399 24.1039 49.9402 24.2856V30.1921H53.0037C53.0657 30.1921 53.1252 30.2167 53.169 30.2606C53.2129 30.3044 53.2375 30.3639 53.2375 30.4259V30.6101C53.2375 30.6721 53.2129 30.7315 53.169 30.7754C53.1252 30.8192 53.0657 30.8438 53.0037 30.8439Z" fill="#3F3D56"/>
<path d="M43.9207 27.9411C44.3179 27.9411 44.6398 27.6191 44.6398 27.222C44.6398 26.8248 44.3179 26.5028 43.9207 26.5028C43.5235 26.5028 43.2016 26.8248 43.2016 27.222C43.2016 27.6191 43.5235 27.9411 43.9207 27.9411Z" fill="#EDE04B"/>
<path d="M50.1244 30.104H49.9373V30.9456H50.1244V30.104Z" fill="#3F3D56"/>
<path d="M21.1865 24.3477C21.5836 23.3089 21.6411 22.3656 21.315 22.241C20.9889 22.1163 20.4026 22.8574 20.0055 23.8963C19.6085 24.9352 19.5509 25.8784 19.8771 26.003C20.2032 26.1277 20.7895 25.3866 21.1865 24.3477Z" fill="#2F2E41"/>
<path d="M20.8489 27.8087C21.2052 25.6131 19.7141 23.5443 17.5185 23.188C15.3229 22.8317 13.2542 24.3228 12.8979 26.5184C12.5416 28.714 14.0326 30.7827 16.2282 31.139C18.4238 31.4953 20.4926 30.0043 20.8489 27.8087Z" fill="#2F2E41"/>
<path d="M16.2615 30.3243H15.0379V32.5165H16.2615V30.3243Z" fill="#2F2E41"/>
<path d="M18.7086 30.3243H17.485V32.5165H18.7086V30.3243Z" fill="#2F2E41"/>
<path d="M16.0576 32.9245C16.6207 32.9245 17.0772 32.7533 17.0772 32.5421C17.0772 32.331 16.6207 32.1598 16.0576 32.1598C15.4944 32.1598 15.0379 32.331 15.0379 32.5421C15.0379 32.7533 15.4944 32.9245 16.0576 32.9245Z" fill="#2F2E41"/>
<path d="M18.5046 32.8732C19.0677 32.8732 19.5242 32.702 19.5242 32.4909C19.5242 32.2797 19.0677 32.1085 18.5046 32.1085C17.9415 32.1085 17.485 32.2797 17.485 32.4909C17.485 32.702 17.9415 32.8732 18.5046 32.8732Z" fill="#2F2E41"/>
<path d="M17.0157 27.5198C17.7756 27.4975 18.3735 26.8634 18.3512 26.1035C18.3289 25.3436 17.6948 24.7457 16.9349 24.768C16.175 24.7904 15.5771 25.4245 15.5994 26.1844C15.6218 26.9442 16.2559 27.5421 17.0157 27.5198Z" fill="white"/>
<path d="M16.9754 26.6028C17.2288 26.6028 17.4342 26.3974 17.4342 26.144C17.4342 25.8906 17.2288 25.6852 16.9754 25.6852C16.722 25.6852 16.5165 25.8906 16.5165 26.144C16.5165 26.3974 16.722 26.6028 16.9754 26.6028Z" fill="#3F3D56"/>
<path d="M12.9665 23.4182C12.6413 21.9618 13.6808 20.4901 15.2884 20.1312C16.8959 19.7722 18.4627 20.6619 18.7879 22.1183C19.1131 23.5747 18.0477 24.1118 16.4402 24.4708C14.8327 24.8297 13.2917 24.8746 12.9665 23.4182Z" fill="#EDE04B"/>
<path d="M14.1565 26.1575C14.3062 25.8421 13.6128 25.2 12.608 24.7234C11.6031 24.2468 10.6672 24.1162 10.5176 24.4316C10.368 24.7471 11.0613 25.3892 12.0662 25.8658C13.071 26.3424 14.0069 26.473 14.1565 26.1575Z" fill="#2F2E41"/>
<path d="M14.8951 28.6165C14.8951 29.0107 15.91 29.7891 17.0363 29.7891C18.1625 29.7891 19.2185 28.6793 19.2185 28.2852C19.2185 27.891 18.1625 28.3616 17.0363 28.3616C15.91 28.3616 14.8951 28.2223 14.8951 28.6165Z" fill="white"/>
<path d="M24.6457 26.3002L21.6811 26.8789C21.6331 26.8884 21.5835 26.8869 21.5362 26.8744C21.4889 26.8619 21.445 26.8387 21.408 26.8067C21.3702 26.7743 21.3403 26.7337 21.3206 26.688C21.3009 26.6423 21.2919 26.5927 21.2942 26.543C21.3448 25.3273 21.1085 24.1168 20.6045 23.0094C20.5836 22.9642 20.5733 22.9148 20.5744 22.8651C20.5755 22.8153 20.5879 22.7665 20.6107 22.7222C20.633 22.6786 20.6649 22.6407 20.704 22.6113C20.7432 22.5819 20.7885 22.5618 20.8366 22.5526L23.8012 21.9739C23.877 21.9593 23.9555 21.972 24.0228 22.0099C24.09 22.0477 24.1417 22.1082 24.1686 22.1805C24.6071 23.3988 24.8566 24.6769 24.9084 25.9706C24.9107 26.0478 24.8856 26.1232 24.8375 26.1836C24.7894 26.244 24.7214 26.2853 24.6457 26.3002Z" fill="#FF6584"/>
<path d="M11.6469 29.0123L8.68233 29.591C8.63431 29.6005 8.58476 29.5989 8.53744 29.5864C8.49012 29.5739 8.44628 29.5508 8.40925 29.5187C8.37147 29.4863 8.34159 29.4457 8.32187 29.4C8.30215 29.3543 8.29313 29.3047 8.29548 29.255C8.34605 28.0393 8.10975 26.8288 7.6057 25.7214C7.58484 25.6762 7.57455 25.6269 7.57564 25.5771C7.57673 25.5274 7.58915 25.4785 7.61197 25.4343C7.63423 25.3907 7.66615 25.3527 7.70529 25.3233C7.74443 25.294 7.78976 25.2739 7.83783 25.2647L10.8024 24.686C10.8782 24.6713 10.9567 24.6841 11.024 24.7219C11.0913 24.7597 11.1429 24.8202 11.1698 24.8926C11.6083 26.1108 11.8578 27.389 11.9096 28.6827C11.912 28.7598 11.8868 28.8353 11.8387 28.8957C11.7906 28.956 11.7227 28.9973 11.6469 29.0123Z" fill="#CCCCCC"/>
<path d="M54.955 7.51253C54.1111 7.88924 53.1537 7.92253 52.2856 7.60532C51.6491 7.36129 51.0976 6.93702 50.6984 6.38442C50.2993 5.83182 50.0699 5.17485 50.0383 4.49391L49.8272 4.61503L50.7171 5.24117C50.7357 5.25185 50.7565 5.25816 50.7779 5.25961C50.7993 5.26105 50.8207 5.2576 50.8406 5.24952C50.8604 5.24144 50.8782 5.22894 50.8925 5.21297C50.9068 5.19699 50.9173 5.17797 50.9231 5.15734C50.9857 4.90692 51.0992 4.67207 51.2565 4.46748C51.4139 4.26288 51.6117 4.09293 51.8377 3.96823C52.3332 3.69187 52.9093 3.59604 53.4676 3.6971C54.6238 3.88467 55.6647 4.6555 56.342 5.5902C56.7117 6.0987 56.9855 6.67035 57.1501 7.2771C57.161 7.31183 57.185 7.34097 57.2169 7.35839C57.2489 7.37581 57.2863 7.38014 57.3214 7.37047C57.3565 7.36079 57.3865 7.33788 57.405 7.30654C57.4235 7.27521 57.4291 7.23792 57.4207 7.20252C57.098 6.02298 56.3892 4.98569 55.4075 4.25654C54.4027 3.51039 52.9959 3.05941 51.8139 3.66173C51.2514 3.9484 50.7935 4.45875 50.6526 5.08276L50.8587 4.99893L49.9688 4.37278C49.9474 4.3606 49.9233 4.35421 49.8987 4.35424C49.8741 4.35427 49.8499 4.36072 49.8286 4.37296C49.8073 4.3852 49.7895 4.4028 49.7771 4.42401C49.7647 4.44523 49.758 4.46932 49.7577 4.49391C49.8018 5.43891 50.193 6.33441 50.8565 7.00876C51.55 7.70187 52.4884 8.09436 53.4688 8.10145C54.0304 8.10762 54.5863 7.98923 55.0966 7.75478C55.2606 7.67969 55.1182 7.43781 54.955 7.51253Z" fill="#2F2E41"/>
<path d="M15.5867 42.6583L12.6221 43.237C12.574 43.2465 12.5245 43.245 12.4772 43.2324C12.4298 43.2199 12.386 43.1968 12.349 43.1648C12.3112 43.1324 12.2813 43.0918 12.2616 43.0461C12.2419 43.0004 12.2329 42.9508 12.2352 42.901C12.2858 41.6854 12.0495 40.4748 11.5454 39.3674C11.5246 39.3222 11.5143 39.2729 11.5154 39.2231C11.5165 39.1734 11.5289 39.1245 11.5517 39.0803C11.574 39.0367 11.6059 38.9987 11.645 38.9693C11.6842 38.94 11.7295 38.9199 11.7776 38.9107L14.7422 38.332C14.818 38.3173 14.8965 38.3301 14.9637 38.3679C15.031 38.4057 15.0827 38.4662 15.1095 38.5386C15.5481 39.7568 15.7976 41.035 15.8494 42.3287C15.8517 42.4058 15.8266 42.4813 15.7785 42.5417C15.7304 42.602 15.6624 42.6433 15.5867 42.6583Z" fill="#EDE04B"/>
</g>
<defs>
<clipPath id="clip0">
<rect width="75" height="43.2433" fill="white"/>
</clipPath>
</defs>
</svg>
