<svg width="75" height="44" viewBox="0 0 75 44" fill="none" xmlns="http://www.w3.org/2000/svg">
<g clip-path="url(#clip0)">
<path d="M72.4837 2.66045C72.8177 2.66045 73.0884 2.38969 73.0884 2.05569C73.0884 1.72169 72.8177 1.45093 72.4837 1.45093C72.1497 1.45093 71.8789 1.72169 71.8789 2.05569C71.8789 2.38969 72.1497 2.66045 72.4837 2.66045Z" fill="#F2F2F2"/>
<path d="M70.0735 2.66045C70.4075 2.66045 70.6783 2.38969 70.6783 2.05569C70.6783 1.72169 70.4075 1.45093 70.0735 1.45093C69.7395 1.45093 69.4688 1.72169 69.4688 2.05569C69.4688 2.38969 69.7395 2.66045 70.0735 2.66045Z" fill="#F2F2F2"/>
<path d="M67.6634 2.66045C67.9973 2.66045 68.2681 2.38969 68.2681 2.05569C68.2681 1.72169 67.9973 1.45093 67.6634 1.45093C67.3294 1.45093 67.0586 1.72169 67.0586 2.05569C67.0586 2.38969 67.3294 2.66045 67.6634 2.66045Z" fill="#F2F2F2"/>
<path d="M65.2527 2.66045C65.5867 2.66045 65.8575 2.38969 65.8575 2.05569C65.8575 1.72169 65.5867 1.45093 65.2527 1.45093C64.9187 1.45093 64.6479 1.72169 64.6479 2.05569C64.6479 2.38969 64.9187 2.66045 65.2527 2.66045Z" fill="#F2F2F2"/>
<path d="M72.4837 5.18535C72.8177 5.18535 73.0884 4.91459 73.0884 4.58059C73.0884 4.24659 72.8177 3.97583 72.4837 3.97583C72.1497 3.97583 71.8789 4.24659 71.8789 4.58059C71.8789 4.91459 72.1497 5.18535 72.4837 5.18535Z" fill="#F2F2F2"/>
<path d="M70.0735 5.18535C70.4075 5.18535 70.6783 4.91459 70.6783 4.58059C70.6783 4.24659 70.4075 3.97583 70.0735 3.97583C69.7395 3.97583 69.4688 4.24659 69.4688 4.58059C69.4688 4.91459 69.7395 5.18535 70.0735 5.18535Z" fill="#F2F2F2"/>
<path d="M67.6634 5.18535C67.9973 5.18535 68.2681 4.91459 68.2681 4.58059C68.2681 4.24659 67.9973 3.97583 67.6634 3.97583C67.3294 3.97583 67.0586 4.24659 67.0586 4.58059C67.0586 4.91459 67.3294 5.18535 67.6634 5.18535Z" fill="#F2F2F2"/>
<path d="M65.2527 5.18535C65.5867 5.18535 65.8575 4.91459 65.8575 4.58059C65.8575 4.24659 65.5867 3.97583 65.2527 3.97583C64.9187 3.97583 64.6479 4.24659 64.6479 4.58059C64.6479 4.91459 64.9187 5.18535 65.2527 5.18535Z" fill="#F2F2F2"/>
<path d="M72.4837 7.71025C72.8177 7.71025 73.0884 7.43949 73.0884 7.10549C73.0884 6.77149 72.8177 6.50073 72.4837 6.50073C72.1497 6.50073 71.8789 6.77149 71.8789 7.10549C71.8789 7.43949 72.1497 7.71025 72.4837 7.71025Z" fill="#F2F2F2"/>
<path d="M70.0735 7.71025C70.4075 7.71025 70.6783 7.43949 70.6783 7.10549C70.6783 6.77149 70.4075 6.50073 70.0735 6.50073C69.7395 6.50073 69.4688 6.77149 69.4688 7.10549C69.4688 7.43949 69.7395 7.71025 70.0735 7.71025Z" fill="#F2F2F2"/>
<path d="M67.6634 7.71025C67.9973 7.71025 68.2681 7.43949 68.2681 7.10549C68.2681 6.77149 67.9973 6.50073 67.6634 6.50073C67.3294 6.50073 67.0586 6.77149 67.0586 7.10549C67.0586 7.43949 67.3294 7.71025 67.6634 7.71025Z" fill="#F2F2F2"/>
<path d="M65.2527 7.71025C65.5867 7.71025 65.8575 7.43949 65.8575 7.10549C65.8575 6.77149 65.5867 6.50073 65.2527 6.50073C64.9187 6.50073 64.6479 6.77149 64.6479 7.10549C64.6479 7.43949 64.9187 7.71025 65.2527 7.71025Z" fill="#F2F2F2"/>
<path d="M72.4837 10.2353C72.8177 10.2353 73.0884 9.96451 73.0884 9.63052C73.0884 9.29652 72.8177 9.02576 72.4837 9.02576C72.1497 9.02576 71.8789 9.29652 71.8789 9.63052C71.8789 9.96451 72.1497 10.2353 72.4837 10.2353Z" fill="#F2F2F2"/>
<path d="M70.0735 10.2353C70.4075 10.2353 70.6783 9.96451 70.6783 9.63052C70.6783 9.29652 70.4075 9.02576 70.0735 9.02576C69.7395 9.02576 69.4688 9.29652 69.4688 9.63052C69.4688 9.96451 69.7395 10.2353 70.0735 10.2353Z" fill="#F2F2F2"/>
<path d="M67.6634 10.2353C67.9973 10.2353 68.2681 9.96451 68.2681 9.63052C68.2681 9.29652 67.9973 9.02576 67.6634 9.02576C67.3294 9.02576 67.0586 9.29652 67.0586 9.63052C67.0586 9.96451 67.3294 10.2353 67.6634 10.2353Z" fill="#F2F2F2"/>
<path d="M65.2527 10.2353C65.5867 10.2353 65.8575 9.96451 65.8575 9.63052C65.8575 9.29652 65.5867 9.02576 65.2527 9.02576C64.9187 9.02576 64.6479 9.29652 64.6479 9.63052C64.6479 9.96451 64.9187 10.2353 65.2527 10.2353Z" fill="#F2F2F2"/>
<path d="M72.4837 12.7602C72.8177 12.7602 73.0884 12.4894 73.0884 12.1554C73.0884 11.8214 72.8177 11.5507 72.4837 11.5507C72.1497 11.5507 71.8789 11.8214 71.8789 12.1554C71.8789 12.4894 72.1497 12.7602 72.4837 12.7602Z" fill="#F2F2F2"/>
<path d="M70.0735 12.7602C70.4075 12.7602 70.6783 12.4894 70.6783 12.1554C70.6783 11.8214 70.4075 11.5507 70.0735 11.5507C69.7395 11.5507 69.4688 11.8214 69.4688 12.1554C69.4688 12.4894 69.7395 12.7602 70.0735 12.7602Z" fill="#F2F2F2"/>
<path d="M67.6634 12.7602C67.9973 12.7602 68.2681 12.4894 68.2681 12.1554C68.2681 11.8214 67.9973 11.5507 67.6634 11.5507C67.3294 11.5507 67.0586 11.8214 67.0586 12.1554C67.0586 12.4894 67.3294 12.7602 67.6634 12.7602Z" fill="#F2F2F2"/>
<path d="M65.2527 12.7602C65.5867 12.7602 65.8575 12.4894 65.8575 12.1554C65.8575 11.8214 65.5867 11.5507 65.2527 11.5507C64.9187 11.5507 64.6479 11.8214 64.6479 12.1554C64.6479 12.4894 64.9187 12.7602 65.2527 12.7602Z" fill="#F2F2F2"/>
<path d="M72.4837 15.2851C72.8177 15.2851 73.0884 15.0143 73.0884 14.6803C73.0884 14.3463 72.8177 14.0756 72.4837 14.0756C72.1497 14.0756 71.8789 14.3463 71.8789 14.6803C71.8789 15.0143 72.1497 15.2851 72.4837 15.2851Z" fill="#F2F2F2"/>
<path d="M70.0735 15.2851C70.4075 15.2851 70.6783 15.0143 70.6783 14.6803C70.6783 14.3463 70.4075 14.0756 70.0735 14.0756C69.7395 14.0756 69.4688 14.3463 69.4688 14.6803C69.4688 15.0143 69.7395 15.2851 70.0735 15.2851Z" fill="#F2F2F2"/>
<path d="M67.6634 15.2851C67.9973 15.2851 68.2681 15.0143 68.2681 14.6803C68.2681 14.3463 67.9973 14.0756 67.6634 14.0756C67.3294 14.0756 67.0586 14.3463 67.0586 14.6803C67.0586 15.0143 67.3294 15.2851 67.6634 15.2851Z" fill="#F2F2F2"/>
<path d="M65.2527 15.2851C65.5867 15.2851 65.8575 15.0143 65.8575 14.6803C65.8575 14.3463 65.5867 14.0756 65.2527 14.0756C64.9187 14.0756 64.6479 14.3463 64.6479 14.6803C64.6479 15.0143 64.9187 15.2851 65.2527 15.2851Z" fill="#F2F2F2"/>
<path d="M71.4541 41.7044C71.8907 40.7614 72.3269 39.8044 72.5164 38.7827C72.7059 37.761 72.6263 36.6521 72.0837 35.7659C71.5411 34.8797 70.4726 34.2788 69.453 34.4791C68.6155 34.6437 67.943 35.3033 67.5493 36.0605C67.1555 36.8177 66.9976 37.6718 66.8444 38.5114C66.7949 37.5575 66.7425 36.5883 66.4257 35.6872C66.1088 34.7862 65.4848 33.9465 64.5956 33.5978C63.7064 33.2491 62.5496 33.5233 62.0809 34.3556C61.4206 35.5281 62.2961 37.1728 61.5369 38.2838C61.4067 37.1694 60.2412 36.2889 59.1336 36.4681C58.026 36.6473 57.1978 37.8504 57.4256 38.949C57.5612 39.6028 58.0072 40.1588 58.5405 40.5605C59.0737 40.9622 59.6939 41.4278 60.3074 41.6911L71.4541 41.7044Z" fill="#F2F2F2"/>
<path d="M58.0071 37.2556C58.8869 37.5631 59.7748 37.8741 60.5781 38.3549C61.2979 38.7858 61.939 39.366 62.3439 40.109C62.5657 40.5076 62.6974 40.95 62.7297 41.405C62.7355 41.5002 62.8844 41.5008 62.8785 41.405C62.8265 40.5577 62.4135 39.7822 61.8417 39.169C61.2148 38.4966 60.4024 38.0374 59.5636 37.6811C59.0662 37.4698 58.5565 37.2903 58.0467 37.1121C57.9561 37.0804 57.9171 37.2241 58.0071 37.2556H58.0071Z" fill="white"/>
<path d="M63.0822 33.7458C63.6227 34.6464 64.0556 35.6073 64.3719 36.6089C64.6888 37.6101 64.8884 38.6447 64.9667 39.692C65.0101 40.2782 65.0148 40.8667 64.9809 41.4535C64.9754 41.5492 65.1242 41.5489 65.1297 41.4535C65.1898 40.3954 65.1257 39.334 64.9389 38.2908C64.7524 37.2477 64.4458 36.2297 64.0254 35.2571C63.7893 34.7108 63.5172 34.1808 63.2107 33.6707C63.2004 33.6544 63.1841 33.6427 63.1654 33.6381C63.1466 33.6335 63.1268 33.6364 63.1101 33.6462C63.0935 33.6559 63.0812 33.6717 63.076 33.6903C63.0708 33.7089 63.073 33.7288 63.0822 33.7458Z" fill="white"/>
<path d="M70.3671 34.6005C69.6025 36.3184 69.0644 38.1284 68.7664 39.985C68.6828 40.5065 68.618 41.0305 68.5721 41.5572C68.5638 41.6526 68.7127 41.652 68.721 41.5572C68.883 39.7047 69.2834 37.8809 69.9122 36.1309C70.0888 35.6388 70.2833 35.1537 70.4956 34.6756C70.5342 34.5888 70.406 34.513 70.3671 34.6005Z" fill="white"/>
<path d="M74.9065 41.6793H0.0935162C0.0687142 41.6793 0.0449279 41.6695 0.0273902 41.6519C0.0098525 41.6344 0 41.6106 0 41.5858C0 41.561 0.0098525 41.5372 0.0273902 41.5197C0.0449279 41.5022 0.0687142 41.4923 0.0935162 41.4923H74.9065C74.9313 41.4923 74.9551 41.5022 74.9726 41.5197C74.9901 41.5372 75 41.561 75 41.5858C75 41.6106 74.9901 41.6344 74.9726 41.6519C74.9551 41.6695 74.9313 41.6793 74.9065 41.6793Z" fill="#3F3D56"/>
<path d="M38.7402 17.8188H25.7669C25.5804 17.8186 25.4016 17.7445 25.2697 17.6126C25.1379 17.4807 25.0637 17.302 25.0635 17.1155V0.703375C25.0637 0.516893 25.1379 0.33811 25.2697 0.206248C25.4016 0.0743851 25.5804 0.000212117 25.7669 0H38.7402C38.9267 0.000212367 39.1055 0.0743855 39.2373 0.206249C39.3692 0.338113 39.4434 0.516897 39.4436 0.703379V17.1155C39.4434 17.302 39.3692 17.4807 39.2373 17.6126C39.1055 17.7445 38.9267 17.8186 38.7402 17.8188ZM25.7669 0.15631C25.6218 0.156473 25.4828 0.214161 25.3802 0.316722C25.2776 0.419282 25.2199 0.558337 25.2198 0.703379V17.1155C25.2199 17.2605 25.2776 17.3996 25.3802 17.5021C25.4828 17.6047 25.6218 17.6624 25.7669 17.6625H38.7402C38.8852 17.6624 39.0243 17.6047 39.1268 17.5021C39.2294 17.3996 39.2871 17.2605 39.2873 17.1155V0.703379C39.2871 0.558337 39.2294 0.419283 39.1268 0.316723C39.0243 0.214163 38.8852 0.156473 38.7402 0.15631H25.7669Z" fill="#3F3D56"/>
<path d="M31.1742 7.88885H28.3185C28.2252 7.88875 28.1359 7.85166 28.0699 7.78573C28.004 7.7198 27.9669 7.6304 27.9668 7.53716V4.16724C27.9669 4.074 28.004 3.98461 28.0699 3.91867C28.1359 3.85274 28.2252 3.81566 28.3185 3.81555H31.1742C31.2674 3.81566 31.3568 3.85274 31.4228 3.91867C31.4887 3.98461 31.5258 4.074 31.5259 4.16724V7.53716C31.5258 7.6304 31.4887 7.7198 31.4228 7.78573C31.3568 7.85166 31.2674 7.88875 31.1742 7.88885Z" fill="#7F52DD"/>
<path d="M36.7235 9.45196H33.8678C33.7746 9.45186 33.6852 9.41477 33.6192 9.34884C33.5533 9.28291 33.5162 9.19351 33.5161 9.10027V5.73035C33.5162 5.63711 33.5533 5.54772 33.6192 5.48178C33.6852 5.41585 33.7746 5.37877 33.8678 5.37866H36.7235C36.8168 5.37877 36.9061 5.41585 36.9721 5.48178C37.038 5.54772 37.0751 5.63711 37.0752 5.73035V9.10027C37.0751 9.19351 37.038 9.28291 36.9721 9.34884C36.9061 9.41477 36.8168 9.45186 36.7235 9.45196Z" fill="#CCCCCC"/>
<path d="M32.2684 14.2193H29.4127C29.3195 14.2192 29.2301 14.1821 29.1642 14.1162C29.0982 14.0502 29.0611 13.9608 29.061 13.8676V10.4977C29.0611 10.4044 29.0982 10.315 29.1642 10.2491C29.2301 10.1832 29.3195 10.1461 29.4127 10.146H32.2684C32.3617 10.1461 32.4511 10.1832 32.517 10.2491C32.5829 10.315 32.62 10.4044 32.6201 10.4977V13.8676C32.62 13.9608 32.5829 14.0502 32.517 14.1162C32.4511 14.1821 32.3617 14.2192 32.2684 14.2193Z" fill="#FF6584"/>
<path d="M10.8416 1.71001C11.1756 1.71001 11.4463 1.43925 11.4463 1.10525C11.4463 0.771248 11.1756 0.500488 10.8416 0.500488C10.5076 0.500488 10.2368 0.771248 10.2368 1.10525C10.2368 1.43925 10.5076 1.71001 10.8416 1.71001Z" fill="#F2F2F2"/>
<path d="M10.8416 4.12053C11.1756 4.12053 11.4463 3.84977 11.4463 3.51577C11.4463 3.18177 11.1756 2.91101 10.8416 2.91101C10.5076 2.91101 10.2368 3.18177 10.2368 3.51577C10.2368 3.84977 10.5076 4.12053 10.8416 4.12053Z" fill="#F2F2F2"/>
<path d="M10.8416 6.53068C11.1756 6.53068 11.4463 6.25992 11.4463 5.92592C11.4463 5.59193 11.1756 5.32117 10.8416 5.32117C10.5076 5.32117 10.2368 5.59193 10.2368 5.92592C10.2368 6.25992 10.5076 6.53068 10.8416 6.53068Z" fill="#F2F2F2"/>
<path d="M10.8416 8.94072C11.1756 8.94072 11.4463 8.66996 11.4463 8.33596C11.4463 8.00196 11.1756 7.7312 10.8416 7.7312C10.5076 7.7312 10.2368 8.00196 10.2368 8.33596C10.2368 8.66996 10.5076 8.94072 10.8416 8.94072Z" fill="#F2F2F2"/>
<path d="M13.3665 1.71001C13.7005 1.71001 13.9712 1.43925 13.9712 1.10525C13.9712 0.771248 13.7005 0.500488 13.3665 0.500488C13.0325 0.500488 12.7617 0.771248 12.7617 1.10525C12.7617 1.43925 13.0325 1.71001 13.3665 1.71001Z" fill="#F2F2F2"/>
<path d="M13.3665 4.12053C13.7005 4.12053 13.9712 3.84977 13.9712 3.51577C13.9712 3.18177 13.7005 2.91101 13.3665 2.91101C13.0325 2.91101 12.7617 3.18177 12.7617 3.51577C12.7617 3.84977 13.0325 4.12053 13.3665 4.12053Z" fill="#F2F2F2"/>
<path d="M13.3665 6.53068C13.7005 6.53068 13.9712 6.25992 13.9712 5.92592C13.9712 5.59193 13.7005 5.32117 13.3665 5.32117C13.0325 5.32117 12.7617 5.59193 12.7617 5.92592C12.7617 6.25992 13.0325 6.53068 13.3665 6.53068Z" fill="#F2F2F2"/>
<path d="M13.3665 8.94072C13.7005 8.94072 13.9712 8.66996 13.9712 8.33596C13.9712 8.00196 13.7005 7.7312 13.3665 7.7312C13.0325 7.7312 12.7617 8.00196 12.7617 8.33596C12.7617 8.66996 13.0325 8.94072 13.3665 8.94072Z" fill="#F2F2F2"/>
<path d="M15.8914 1.71001C16.2254 1.71001 16.4961 1.43925 16.4961 1.10525C16.4961 0.771248 16.2254 0.500488 15.8914 0.500488C15.5574 0.500488 15.2866 0.771248 15.2866 1.10525C15.2866 1.43925 15.5574 1.71001 15.8914 1.71001Z" fill="#F2F2F2"/>
<path d="M15.8914 4.12053C16.2254 4.12053 16.4961 3.84977 16.4961 3.51577C16.4961 3.18177 16.2254 2.91101 15.8914 2.91101C15.5574 2.91101 15.2866 3.18177 15.2866 3.51577C15.2866 3.84977 15.5574 4.12053 15.8914 4.12053Z" fill="#F2F2F2"/>
<path d="M15.8914 6.53068C16.2254 6.53068 16.4961 6.25992 16.4961 5.92592C16.4961 5.59193 16.2254 5.32117 15.8914 5.32117C15.5574 5.32117 15.2866 5.59193 15.2866 5.92592C15.2866 6.25992 15.5574 6.53068 15.8914 6.53068Z" fill="#F2F2F2"/>
<path d="M15.8914 8.94072C16.2254 8.94072 16.4961 8.66996 16.4961 8.33596C16.4961 8.00196 16.2254 7.7312 15.8914 7.7312C15.5574 7.7312 15.2866 8.00196 15.2866 8.33596C15.2866 8.66996 15.5574 8.94072 15.8914 8.94072Z" fill="#F2F2F2"/>
<path d="M18.4163 1.71001C18.7503 1.71001 19.021 1.43925 19.021 1.10525C19.021 0.771248 18.7503 0.500488 18.4163 0.500488C18.0823 0.500488 17.8115 0.771248 17.8115 1.10525C17.8115 1.43925 18.0823 1.71001 18.4163 1.71001Z" fill="#F2F2F2"/>
<path d="M18.4163 4.12053C18.7503 4.12053 19.021 3.84977 19.021 3.51577C19.021 3.18177 18.7503 2.91101 18.4163 2.91101C18.0823 2.91101 17.8115 3.18177 17.8115 3.51577C17.8115 3.84977 18.0823 4.12053 18.4163 4.12053Z" fill="#F2F2F2"/>
<path d="M18.4163 6.53068C18.7503 6.53068 19.021 6.25992 19.021 5.92592C19.021 5.59193 18.7503 5.32117 18.4163 5.32117C18.0823 5.32117 17.8115 5.59193 17.8115 5.92592C17.8115 6.25992 18.0823 6.53068 18.4163 6.53068Z" fill="#F2F2F2"/>
<path d="M18.4163 8.94072C18.7503 8.94072 19.021 8.66996 19.021 8.33596C19.021 8.00196 18.7503 7.7312 18.4163 7.7312C18.0823 7.7312 17.8115 8.00196 17.8115 8.33596C17.8115 8.66996 18.0823 8.94072 18.4163 8.94072Z" fill="#F2F2F2"/>
<path d="M20.9412 1.71001C21.2752 1.71001 21.5459 1.43925 21.5459 1.10525C21.5459 0.771248 21.2752 0.500488 20.9412 0.500488C20.6072 0.500488 20.3364 0.771248 20.3364 1.10525C20.3364 1.43925 20.6072 1.71001 20.9412 1.71001Z" fill="#F2F2F2"/>
<path d="M20.9412 4.12053C21.2752 4.12053 21.5459 3.84977 21.5459 3.51577C21.5459 3.18177 21.2752 2.91101 20.9412 2.91101C20.6072 2.91101 20.3364 3.18177 20.3364 3.51577C20.3364 3.84977 20.6072 4.12053 20.9412 4.12053Z" fill="#F2F2F2"/>
<path d="M20.9412 6.53068C21.2752 6.53068 21.5459 6.25992 21.5459 5.92592C21.5459 5.59193 21.2752 5.32117 20.9412 5.32117C20.6072 5.32117 20.3364 5.59193 20.3364 5.92592C20.3364 6.25992 20.6072 6.53068 20.9412 6.53068Z" fill="#F2F2F2"/>
<path d="M20.9412 8.94072C21.2752 8.94072 21.5459 8.66996 21.5459 8.33596C21.5459 8.00196 21.2752 7.7312 20.9412 7.7312C20.6072 7.7312 20.3364 8.00196 20.3364 8.33596C20.3364 8.66996 20.6072 8.94072 20.9412 8.94072Z" fill="#F2F2F2"/>
<path d="M23.4661 1.71001C23.8001 1.71001 24.0708 1.43925 24.0708 1.10525C24.0708 0.771248 23.8001 0.500488 23.4661 0.500488C23.1321 0.500488 22.8613 0.771248 22.8613 1.10525C22.8613 1.43925 23.1321 1.71001 23.4661 1.71001Z" fill="#F2F2F2"/>
<path d="M23.4661 4.12053C23.8001 4.12053 24.0708 3.84977 24.0708 3.51577C24.0708 3.18177 23.8001 2.91101 23.4661 2.91101C23.1321 2.91101 22.8613 3.18177 22.8613 3.51577C22.8613 3.84977 23.1321 4.12053 23.4661 4.12053Z" fill="#F2F2F2"/>
<path d="M23.4661 6.53068C23.8001 6.53068 24.0708 6.25992 24.0708 5.92592C24.0708 5.59193 23.8001 5.32117 23.4661 5.32117C23.1321 5.32117 22.8613 5.59193 22.8613 5.92592C22.8613 6.25992 23.1321 6.53068 23.4661 6.53068Z" fill="#F2F2F2"/>
<path d="M23.4661 8.94072C23.8001 8.94072 24.0708 8.66996 24.0708 8.33596C24.0708 8.00196 23.8001 7.7312 23.4661 7.7312C23.1321 7.7312 22.8613 8.00196 22.8613 8.33596C22.8613 8.66996 23.1321 8.94072 23.4661 8.94072Z" fill="#F2F2F2"/>
<path d="M16.9308 42.4971C19.1006 42.4971 20.8596 40.7381 20.8596 38.5682C20.8596 36.3984 19.1006 34.6394 16.9308 34.6394C14.761 34.6394 13.002 36.3984 13.002 38.5682C13.002 40.7381 14.761 42.4971 16.9308 42.4971Z" fill="#2F2E41"/>
<path d="M15.4365 41.1493L13.5244 42.1068L14.0589 43.174L15.971 42.2165L15.4365 41.1493Z" fill="#2F2E41"/>
<path d="M14.3109 43.0657C14.4243 42.8937 14.1445 42.5092 13.6858 42.2068C13.2272 41.9045 12.7635 41.7987 12.6501 41.9707C12.5367 42.1427 12.8166 42.5272 13.2752 42.8296C13.7338 43.132 14.1975 43.2377 14.3109 43.0657Z" fill="#2F2E41"/>
<path d="M18.4246 41.1492L17.8901 42.2164L19.8023 43.174L20.3367 42.1068L18.4246 41.1492Z" fill="#2F2E41"/>
<path d="M20.5858 42.8294C21.0444 42.527 21.3242 42.1425 21.2108 41.9705C21.0974 41.7985 20.6337 41.9043 20.1751 42.2066C19.7165 42.509 19.4367 42.8936 19.55 43.0655C19.6634 43.2375 20.1271 43.1318 20.5858 42.8294Z" fill="#2F2E41"/>
<path d="M16.6558 38.9498C17.3973 38.9498 17.9985 38.3486 17.9985 37.607C17.9985 36.8655 17.3973 36.2643 16.6558 36.2643C15.9142 36.2643 15.313 36.8655 15.313 37.607C15.313 38.3486 15.9142 38.9498 16.6558 38.9498Z" fill="white"/>
<path d="M15.8692 37.6394C16.3483 37.2745 16.8899 37.816 16.525 38.2951C16.0459 38.66 15.5043 38.1185 15.8692 37.6394Z" fill="#3F3D56"/>
<path d="M20.03 34.2938C20.089 32.8393 18.8355 31.6073 17.23 31.5421C15.6246 31.4769 14.2752 32.6032 14.2161 34.0577C14.157 35.5122 15.273 35.8427 16.8785 35.9079C18.4839 35.9731 19.9709 35.7484 20.03 34.2938Z" fill="#CCCCCC"/>
<path d="M22.2946 40.6256C22.5531 40.4037 22.1897 39.5566 21.483 38.7334C20.7763 37.9102 19.9939 37.4227 19.7355 37.6446C19.4771 37.8664 19.8405 38.7136 20.5471 39.5368C21.2538 40.36 22.0362 40.8474 22.2946 40.6256Z" fill="#2F2E41"/>
<path d="M13.3253 39.5364C14.032 38.7132 14.3953 37.866 14.1369 37.6442C13.8785 37.4223 13.0961 37.9098 12.3894 38.733C11.6827 39.5562 11.3194 40.4034 11.5778 40.6252C11.8362 40.8471 12.6186 40.3596 13.3253 39.5364Z" fill="#2F2E41"/>
<path d="M18.0094 40.1163C18.0306 40.232 18.0288 40.3507 18.004 40.4657C17.9793 40.5807 17.9321 40.6897 17.8652 40.7864C17.7983 40.8832 17.713 40.9658 17.6142 41.0296C17.5153 41.0933 17.4049 41.137 17.2892 41.1581C17.1735 41.1791 17.0547 41.1772 16.9398 41.1524C16.8248 41.1275 16.7159 41.0802 16.6192 41.0133C16.5225 40.9463 16.4399 40.8609 16.3762 40.762C16.3126 40.6631 16.269 40.5527 16.248 40.4369L16.2477 40.4352C16.1596 39.9487 16.5358 39.7766 17.0223 39.6885C17.5087 39.6004 17.9214 39.6298 18.0094 40.1163Z" fill="white"/>
<path d="M58.4753 30.6102H53.2374C53.2374 30.6722 53.2128 30.7317 53.1689 30.7755C53.1251 30.8194 53.0656 30.844 53.0036 30.844H47.8621C47.7895 30.8987 47.7233 30.9615 47.6648 31.0311C47.489 31.2407 47.393 31.5056 47.3936 31.7792V31.9662C47.3937 32.2762 47.5169 32.5735 47.7361 32.7927C47.9553 33.0119 48.2525 33.1351 48.5625 33.1352H58.4753C58.7852 33.1349 59.0824 33.0117 59.3015 32.7925C59.5207 32.5733 59.6439 32.2762 59.6442 31.9662V31.7792C59.6438 31.4693 59.5205 31.1722 59.3014 30.9531C59.0822 30.734 58.7851 30.6107 58.4753 30.6102Z" fill="#3F3D56"/>
<path d="M54.1732 33.0886H52.9575V41.6921H54.1732V33.0886Z" fill="#3F3D56"/>
<path d="M57.6332 41.6495C57.6332 41.7808 55.791 41.7003 53.5185 41.7003C51.246 41.7003 49.4038 41.7808 49.4038 41.6495C49.4038 41.5181 51.246 40.4764 53.5185 40.4764C55.791 40.4764 57.6332 41.5181 57.6332 41.6495Z" fill="#3F3D56"/>
<path d="M58.2461 30.8795L58.0422 29.6039C58.0164 29.4432 57.9278 29.2992 57.796 29.2037C57.6642 29.1081 57.4998 29.0688 57.339 29.0942L55.2358 29.43L51.6336 30.0051L50.4618 30.1921H53.0036C53.0656 30.1922 53.125 30.2168 53.1689 30.2606C53.2127 30.3045 53.2373 30.3639 53.2374 30.4259V30.6102C53.2373 30.6721 53.2127 30.7316 53.1689 30.7754C53.125 30.8193 53.0656 30.8439 53.0036 30.8439H46.535C46.4448 30.8862 46.3666 30.9505 46.3078 31.031C46.258 31.0964 46.2221 31.1713 46.2022 31.251C46.1823 31.3307 46.1787 31.4137 46.1918 31.4948L46.2498 31.8577L46.3199 32.2981L46.3957 32.7713C46.4214 32.9317 46.5097 33.0753 46.6412 33.1706C46.7727 33.266 46.9366 33.3054 47.0971 33.28L48.7682 33.0135L53.5881 32.2439L57.7364 31.5818C57.8969 31.5556 58.0405 31.4672 58.1359 31.3356C58.2314 31.2041 58.271 31.0401 58.2461 30.8795Z" fill="#7F52DD"/>
<path d="M48.6403 31.031C48.5788 30.9494 48.4974 30.885 48.4037 30.844H46.6157C46.5216 30.8847 46.4398 30.9491 46.3781 31.031C46.2949 31.1376 46.2498 31.269 46.25 31.4042V38.531C46.2502 38.6934 46.3149 38.8491 46.4297 38.9639C46.5445 39.0787 46.7002 39.1433 46.8626 39.1436H48.1559C48.3183 39.1433 48.474 39.0787 48.5888 38.9639C48.7036 38.8491 48.7682 38.6934 48.7684 38.531V31.4042C48.7685 31.269 48.7234 31.1376 48.6403 31.031Z" fill="#7F52DD"/>
<path d="M52.5325 18.8926L52.5204 18.8767L51.718 17.8882C51.6753 17.8352 51.6237 17.79 51.5656 17.7545C51.5347 17.7336 51.5014 17.7167 51.4664 17.704C51.4152 17.6835 51.3614 17.6703 51.3065 17.6647C51.2699 17.6608 51.2329 17.6602 51.1962 17.6629C51.1954 17.6629 51.1948 17.6633 51.1943 17.6638C51.0703 17.6729 50.9521 17.7199 50.8557 17.7985L49.2089 19.1339L47.0927 20.8508L43.9346 23.4132L43.7046 23.6002H47.7005L47.9315 23.4132L48.6956 22.7932L48.7498 22.7501L52.4399 19.7567L52.4427 19.7548C52.5187 19.6937 52.5787 19.6151 52.6176 19.5257C52.6433 19.4672 52.6597 19.405 52.6663 19.3415C52.6748 19.2615 52.6673 19.1807 52.6443 19.1036C52.6214 19.0266 52.5834 18.9549 52.5325 18.8926Z" fill="#7F52DD"/>
<path d="M52.5203 18.8766C52.4687 18.6246 52.3542 18.3897 52.1874 18.1939C52.0211 17.9966 51.807 17.8452 51.5655 17.7544C51.5281 17.7403 51.4916 17.7273 51.4542 17.717C51.3698 17.6918 51.2835 17.6737 51.1961 17.6627C51.1954 17.6628 51.1947 17.6631 51.1942 17.6637C50.8008 17.6182 50.405 17.7275 50.0907 17.9685L47.2423 20.1456C47.1818 20.1997 47.1328 20.2654 47.0982 20.3388C47.0637 20.4122 47.0443 20.4919 47.0412 20.5729C47.0368 20.6682 47.0543 20.7633 47.0926 20.8507C47.102 20.8703 47.1123 20.89 47.1235 20.9087C47.1453 20.9466 47.1717 20.9818 47.202 21.0134L47.6584 21.5259L48.7198 22.7163L48.7497 22.75L48.818 22.8276C48.8723 22.8872 48.9379 22.9354 49.0109 22.9696C49.0839 23.0038 49.1629 23.0232 49.2435 23.0268C49.324 23.0303 49.4044 23.018 49.4802 22.9904C49.5559 22.9628 49.6255 22.9205 49.6848 22.866L52.1415 20.2269C52.2691 20.0899 52.3703 19.9304 52.4398 19.7565C52.552 19.4774 52.58 19.1715 52.5203 18.8766Z" fill="#2F2E41"/>
<path d="M53.6067 15.4903C56.1953 15.4903 58.2939 13.3918 58.2939 10.8031C58.2939 8.21439 56.1953 6.11584 53.6067 6.11584C51.018 6.11584 48.9194 8.21439 48.9194 10.8031C48.9194 13.3918 51.018 15.4903 53.6067 15.4903Z" fill="#7F52DD"/>
<path d="M55.3643 30.2344L55.2362 29.4301L55.1604 28.9579C55.1346 28.7973 55.0462 28.6536 54.9145 28.5582C54.7828 28.4629 54.6187 28.4236 54.4581 28.4491L51.0513 28.9925L50.1274 29.1402L49.9403 29.1702V30.1923H53.0039C53.0659 30.1923 53.1254 30.2169 53.1692 30.2608C53.2131 30.3046 53.2377 30.3641 53.2377 30.4261V30.6103C53.2377 30.6723 53.2131 30.7318 53.1692 30.7756C53.1254 30.8194 53.0659 30.8441 53.0039 30.8441H43.3091C43.3091 30.846 43.31 30.8478 43.31 30.8497L43.368 31.2125L43.5139 32.1253C43.5396 32.2856 43.6279 32.4292 43.7594 32.5246C43.8909 32.62 44.0548 32.6593 44.2153 32.634L45.8864 32.3675L46.2501 32.3095L46.3203 32.2983L48.7686 31.9074L50.4341 31.6409L53.0769 31.2191L53.1162 31.2125L54.8546 30.9357C55.0151 30.91 55.1588 30.8218 55.2543 30.6903C55.3499 30.5589 55.3894 30.3949 55.3643 30.2344Z" fill="#7F52DD"/>
<path d="M59.9858 26.7947C59.9858 30.6158 59.5977 32.9013 53.6126 32.2467C53.6042 32.2457 53.5968 32.2448 53.5884 32.2439C52.5209 32.1384 51.4651 31.9365 50.4341 31.6407C49.8982 31.4842 49.3774 31.2802 48.8779 31.031C48.7601 30.9711 48.647 30.9085 48.5356 30.8439H53.0039C53.0659 30.8439 53.1253 30.8193 53.1692 30.7754C53.213 30.7316 53.2376 30.6721 53.2377 30.6101V30.4259C53.2376 30.3639 53.213 30.3045 53.1692 30.2606C53.1253 30.2168 53.0659 30.1921 53.0039 30.1921H49.9403V24.2856C49.94 24.1039 49.8677 23.9297 49.7392 23.8012C49.6107 23.6727 49.4365 23.6004 49.2548 23.6002H49.381C49.4026 23.5384 49.4241 23.4758 49.4474 23.4131C49.6747 22.7819 49.6523 22.2854 49.975 21.6672C50.4182 20.8143 50.421 19.9568 51.0036 19.2358C51.4376 18.6999 50.1086 18.1154 50.5968 17.7133C51.5347 16.939 52.5559 16.4602 53.5921 16.4602C57.4132 16.4602 59.9858 22.9736 59.9858 26.7947Z" fill="#2F2E41"/>
<path d="M53.7049 12.5402L53.7098 12.365C53.3839 12.356 53.0967 12.3355 52.8808 12.1778C52.8196 12.1306 52.7693 12.0707 52.7333 12.0022C52.6973 11.9338 52.6765 11.8584 52.6722 11.7812C52.6684 11.734 52.6756 11.6866 52.6931 11.6427C52.7106 11.5987 52.738 11.5594 52.7732 11.5277C52.9165 11.4067 53.1471 11.4459 53.3151 11.5229L53.4601 11.5894L53.1821 9.55835L53.0086 9.58213L53.245 11.3098C53.1482 11.2739 53.044 11.2628 52.9419 11.2775C52.8397 11.2922 52.7428 11.3322 52.6601 11.3939C52.6045 11.4425 52.5608 11.5033 52.5325 11.5716C52.5043 11.6398 52.4922 11.7137 52.4972 11.7874C52.5023 11.8911 52.53 11.9925 52.5785 12.0843C52.6269 12.1762 52.6948 12.2564 52.7775 12.3193C53.0548 12.522 53.4153 12.5321 53.7049 12.5402Z" fill="#2F2E41"/>
<path d="M52.1504 9.7312H51.207V9.90636H52.1504V9.7312Z" fill="#2F2E41"/>
<path d="M55.1279 9.7312H54.1846V9.90636H55.1279V9.7312Z" fill="#2F2E41"/>
<path d="M56.3926 20.2324L56.0213 19.9743L55.3302 19.4945C55.1965 19.4021 55.0317 19.3665 54.8719 19.3954C54.712 19.4244 54.5701 19.5155 54.4773 19.6488L52.2245 22.891L50.127 25.9098L49.9399 26.1791V30.1919H49.9568C50.1025 30.1774 50.2383 30.111 50.3392 30.0048C50.3609 29.9826 50.3806 29.9585 50.3982 29.9328L51.0509 28.9921L52.6641 26.67L54.3361 24.2648L54.4951 24.0357L56.545 21.0852C56.5561 21.0696 56.5664 21.0534 56.5758 21.0366C56.5852 21.0206 56.5936 21.004 56.6011 20.9871C56.6599 20.8567 56.6712 20.7099 56.6331 20.5721C56.595 20.4342 56.5099 20.3141 56.3926 20.2324Z" fill="#7F52DD"/>
<path d="M56.3991 18.9496C56.333 18.9062 56.2636 18.868 56.1915 18.8355C55.872 18.6891 55.5119 18.6571 55.1716 18.745C54.8313 18.8329 54.5317 19.0352 54.323 19.3181L52.1946 22.204C52.1519 22.2727 52.1232 22.3492 52.1103 22.4291C52.0974 22.509 52.1006 22.5907 52.1195 22.6693C52.1385 22.748 52.1729 22.8221 52.2208 22.8874C52.2687 22.9526 52.3291 23.0077 52.3985 23.0494L54.3361 24.2651L54.3604 24.28L54.4577 24.3408C54.5968 24.4249 54.7636 24.4505 54.9215 24.4119C55.0794 24.3733 55.2156 24.2738 55.3003 24.1351L56.8031 21.1519L56.8283 21.1023L56.8293 21.1014L56.9219 20.9153C57.0907 20.5805 57.1307 20.1954 57.0344 19.833C56.938 19.4707 56.712 19.1563 56.3991 18.9496Z" fill="#2F2E41"/>
<path d="M43.3677 30.844V37.8848C43.3679 38.0472 43.4325 38.2029 43.5473 38.3177C43.6622 38.4325 43.8178 38.4971 43.9802 38.4974H45.2735C45.4359 38.4971 45.5916 38.4325 45.7064 38.3177C45.8212 38.2029 45.8858 38.0472 45.8861 37.8848V30.844H43.3677Z" fill="#7F52DD"/>
<path d="M53.0038 30.005H50.1272V24.2856C50.127 24.0543 50.035 23.8325 49.8714 23.6689C49.7078 23.5053 49.4861 23.4133 49.2547 23.4131H38.5873C38.3558 23.4131 38.1338 23.5051 37.9701 23.6686C37.8063 23.8322 37.7142 24.0541 37.7139 24.2856V30.1584C37.7142 30.3899 37.8063 30.6118 37.9701 30.7753C38.1338 30.9389 38.3558 31.0308 38.5873 31.0309H53.0038C53.0188 31.0309 53.0328 31.03 53.0468 31.029C53.0599 31.0281 53.073 31.0253 53.0861 31.0234C53.1815 31.0041 53.2673 30.9524 53.329 30.8771C53.3907 30.8018 53.4245 30.7074 53.4246 30.6101V30.4259C53.4246 30.3142 53.3803 30.2072 53.3014 30.1283C53.2224 30.0494 53.1154 30.005 53.0038 30.005ZM53.0038 30.8439H38.5873C38.4054 30.8438 38.231 30.7716 38.1023 30.6431C37.9737 30.5146 37.9012 30.3403 37.9009 30.1584V24.2856C37.9012 24.1037 37.9737 23.9294 38.1023 23.8009C38.231 23.6724 38.4054 23.6002 38.5873 23.6001H49.2547C49.4365 23.6004 49.6107 23.6727 49.7392 23.8012C49.8677 23.9297 49.94 24.1039 49.9402 24.2856V30.1921H53.0038C53.0658 30.1921 53.1252 30.2167 53.1691 30.2606C53.2129 30.3044 53.2376 30.3639 53.2376 30.4259V30.6101C53.2376 30.6721 53.2129 30.7315 53.1691 30.7754C53.1252 30.8192 53.0658 30.8438 53.0038 30.8439Z" fill="#3F3D56"/>
<path d="M43.9208 27.9411C44.318 27.9411 44.6399 27.6191 44.6399 27.222C44.6399 26.8248 44.318 26.5028 43.9208 26.5028C43.5236 26.5028 43.2017 26.8248 43.2017 27.222C43.2017 27.6191 43.5236 27.9411 43.9208 27.9411Z" fill="#7F52DD"/>
<path d="M50.1245 30.104H49.9375V30.9456H50.1245V30.104Z" fill="#3F3D56"/>
<path d="M21.1866 24.3477C21.5837 23.3089 21.6412 22.3656 21.3151 22.241C20.9889 22.1163 20.4027 22.8574 20.0056 23.8963C19.6085 24.9352 19.551 25.8784 19.8771 26.003C20.2033 26.1277 20.7895 25.3866 21.1866 24.3477Z" fill="#2F2E41"/>
<path d="M20.849 27.8087C21.2053 25.6131 19.7143 23.5443 17.5187 23.188C15.3231 22.8317 13.2544 24.3228 12.8981 26.5184C12.5418 28.714 14.0328 30.7827 16.2284 31.139C18.424 31.4953 20.4927 30.0043 20.849 27.8087Z" fill="#2F2E41"/>
<path d="M16.2616 30.3243H15.0381V32.5165H16.2616V30.3243Z" fill="#2F2E41"/>
<path d="M18.7084 30.3243H17.4849V32.5165H18.7084V30.3243Z" fill="#2F2E41"/>
<path d="M16.0577 32.9245C16.6208 32.9245 17.0773 32.7533 17.0773 32.5421C17.0773 32.331 16.6208 32.1598 16.0577 32.1598C15.4946 32.1598 15.0381 32.331 15.0381 32.5421C15.0381 32.7533 15.4946 32.9245 16.0577 32.9245Z" fill="#2F2E41"/>
<path d="M18.5045 32.8732C19.0676 32.8732 19.5241 32.702 19.5241 32.4909C19.5241 32.2797 19.0676 32.1085 18.5045 32.1085C17.9414 32.1085 17.4849 32.2797 17.4849 32.4909C17.4849 32.702 17.9414 32.8732 18.5045 32.8732Z" fill="#2F2E41"/>
<path d="M17.0158 27.5198C17.7757 27.4975 18.3736 26.8634 18.3513 26.1035C18.329 25.3436 17.6948 24.7457 16.935 24.768C16.1751 24.7904 15.5772 25.4245 15.5995 26.1844C15.6218 26.9442 16.256 27.5421 17.0158 27.5198Z" fill="white"/>
<path d="M16.9754 26.6028C17.2288 26.6028 17.4343 26.3974 17.4343 26.144C17.4343 25.8906 17.2288 25.6852 16.9754 25.6852C16.722 25.6852 16.5166 25.8906 16.5166 26.144C16.5166 26.3974 16.722 26.6028 16.9754 26.6028Z" fill="#3F3D56"/>
<path d="M12.9663 23.4182C12.6411 21.9618 13.6806 20.4901 15.2882 20.1312C16.8957 19.7722 18.4625 20.6619 18.7877 22.1183C19.1129 23.5747 18.0475 24.1118 16.44 24.4708C14.8324 24.8297 13.2915 24.8746 12.9663 23.4182Z" fill="#7F52DD"/>
<path d="M14.1564 26.1575C14.3061 25.8421 13.6127 25.2 12.6079 24.7234C11.603 24.2468 10.6671 24.1162 10.5175 24.4316C10.3679 24.7471 11.0612 25.3892 12.0661 25.8658C13.0709 26.3424 14.0068 26.473 14.1564 26.1575Z" fill="#2F2E41"/>
<path d="M14.895 28.6165C14.895 29.0107 15.91 29.7891 17.0362 29.7891C18.1625 29.7891 19.2184 28.6793 19.2184 28.2852C19.2184 27.891 18.1625 28.3616 17.0362 28.3616C15.91 28.3616 14.895 28.2223 14.895 28.6165Z" fill="white"/>
<path d="M24.6456 26.3002L21.681 26.8789C21.633 26.8884 21.5834 26.8869 21.5361 26.8744C21.4888 26.8619 21.4449 26.8387 21.4079 26.8067C21.3701 26.7743 21.3402 26.7337 21.3205 26.688C21.3008 26.6423 21.2918 26.5927 21.2941 26.543C21.3447 25.3273 21.1084 24.1168 20.6044 23.0094C20.5835 22.9642 20.5732 22.9148 20.5743 22.8651C20.5754 22.8153 20.5878 22.7665 20.6106 22.7222C20.6329 22.6786 20.6648 22.6407 20.7039 22.6113C20.7431 22.5819 20.7884 22.5618 20.8365 22.5526L23.8011 21.9739C23.8769 21.9593 23.9554 21.972 24.0227 22.0099C24.0899 22.0477 24.1416 22.1082 24.1685 22.1805C24.607 23.3988 24.8565 24.6769 24.9083 25.9706C24.9106 26.0478 24.8855 26.1232 24.8374 26.1836C24.7893 26.244 24.7213 26.2853 24.6456 26.3002Z" fill="#FF6584"/>
<path d="M11.647 29.0123L8.68245 29.591C8.63444 29.6005 8.58488 29.5989 8.53756 29.5864C8.49024 29.5739 8.4464 29.5508 8.40937 29.5187C8.37159 29.4863 8.34171 29.4457 8.32199 29.4C8.30228 29.3543 8.29325 29.3047 8.2956 29.255C8.34617 28.0393 8.10988 26.8288 7.60582 25.7214C7.58496 25.6762 7.57468 25.6269 7.57576 25.5771C7.57685 25.5274 7.58927 25.4785 7.61209 25.4343C7.63435 25.3907 7.66627 25.3527 7.70541 25.3233C7.74455 25.294 7.78989 25.2739 7.83796 25.2647L10.8026 24.686C10.8783 24.6713 10.9569 24.6841 11.0241 24.7219C11.0914 24.7597 11.1431 24.8202 11.1699 24.8926C11.6085 26.1108 11.858 27.389 11.9098 28.6827C11.9121 28.7598 11.887 28.8353 11.8388 28.8957C11.7907 28.956 11.7228 28.9973 11.647 29.0123Z" fill="#CCCCCC"/>
<path d="M54.9551 7.51253C54.1112 7.88924 53.1538 7.92253 52.2857 7.60532C51.6492 7.36129 51.0977 6.93702 50.6985 6.38442C50.2994 5.83182 50.07 5.17485 50.0384 4.49391L49.8273 4.61503L50.7172 5.24117C50.7358 5.25185 50.7566 5.25816 50.7779 5.25961C50.7993 5.26105 50.8208 5.2576 50.8407 5.24952C50.8605 5.24144 50.8783 5.22894 50.8926 5.21297C50.9069 5.19699 50.9174 5.17797 50.9232 5.15734C50.9858 4.90692 51.0992 4.67207 51.2566 4.46748C51.414 4.26288 51.6118 4.09293 51.8378 3.96823C52.3333 3.69187 52.9094 3.59604 53.4677 3.6971C54.6239 3.88467 55.6648 4.6555 56.3421 5.5902C56.7117 6.0987 56.9856 6.67035 57.1502 7.2771C57.1611 7.31183 57.185 7.34097 57.217 7.35839C57.249 7.37581 57.2864 7.38014 57.3215 7.37047C57.3566 7.36079 57.3866 7.33788 57.4051 7.30654C57.4236 7.27521 57.4292 7.23792 57.4208 7.20252C57.0981 6.02298 56.3893 4.98569 55.4076 4.25654C54.4027 3.51039 52.996 3.05941 51.814 3.66173C51.2515 3.9484 50.7936 4.45875 50.6527 5.08276L50.8588 4.99893L49.9689 4.37278C49.9475 4.3606 49.9234 4.35421 49.8988 4.35424C49.8742 4.35427 49.85 4.36072 49.8287 4.37296C49.8074 4.3852 49.7896 4.4028 49.7772 4.42401C49.7647 4.44523 49.7581 4.46932 49.7578 4.49391C49.8019 5.43891 50.1931 6.33441 50.8566 7.00876C51.5501 7.70187 52.4885 8.09436 53.4689 8.10145C54.0305 8.10762 54.5864 7.98923 55.0967 7.75478C55.2607 7.67969 55.1183 7.43781 54.9551 7.51253Z" fill="#2F2E41"/>
<path d="M15.5865 42.6583L12.6219 43.237C12.5739 43.2465 12.5243 43.245 12.477 43.2324C12.4297 43.2199 12.3859 43.1968 12.3488 43.1648C12.311 43.1324 12.2812 43.0918 12.2614 43.0461C12.2417 43.0004 12.2327 42.9508 12.2351 42.901C12.2856 41.6854 12.0493 40.4748 11.5453 39.3674C11.5244 39.3222 11.5141 39.2729 11.5152 39.2231C11.5163 39.1734 11.5287 39.1245 11.5515 39.0803C11.5738 39.0367 11.6057 38.9987 11.6449 38.9693C11.684 38.94 11.7293 38.9199 11.7774 38.9107L14.742 38.332C14.8178 38.3173 14.8963 38.3301 14.9636 38.3679C15.0309 38.4057 15.0825 38.4662 15.1094 38.5386C15.5479 39.7568 15.7974 41.035 15.8492 42.3287C15.8515 42.4058 15.8264 42.4813 15.7783 42.5417C15.7302 42.602 15.6622 42.6433 15.5865 42.6583Z" fill="#7F52DD"/>
</g>
<defs>
<clipPath id="clip0">
<rect width="75" height="43.2433" fill="white"/>
</clipPath>
</defs>
</svg>
