<svg width="75" height="43" viewBox="0 0 75 43" fill="none" xmlns="http://www.w3.org/2000/svg">
<g opacity="0.8" clip-path="url(#clip0)">
<path d="M1.94383 39.127C2.23947 39.231 2.55688 39.257 2.8655 39.2026C3.17412 39.1483 3.46354 39.0153 3.70587 38.8167C4.32302 38.2986 4.51656 37.4455 4.67395 36.6553L5.13963 34.318L4.16469 34.9893C3.46353 35.4721 2.74661 35.9703 2.26118 36.6696C1.77574 37.3688 1.56396 38.3234 1.95388 39.0801" fill="#E6E6E6"/>
<path d="M2.09437 42.1196C1.97166 41.2256 1.84541 40.3201 1.93169 39.4165C2.00815 38.614 2.25299 37.8303 2.75144 37.1875C3.01602 36.847 3.33796 36.5552 3.70279 36.3254C3.7979 36.2654 3.88546 36.4161 3.79076 36.4759C3.15948 36.8748 2.67121 37.4639 2.39633 38.1582C2.09275 38.9304 2.044 39.7721 2.09629 40.5923C2.1279 41.0883 2.19506 41.5811 2.26252 42.0732C2.26784 42.0955 2.26452 42.1189 2.25322 42.1388C2.24191 42.1587 2.22347 42.1736 2.20163 42.1804C2.17934 42.1864 2.15559 42.1834 2.13552 42.172C2.11545 42.1606 2.10069 42.1418 2.09443 42.1195L2.09437 42.1196Z" fill="#F2F2F2"/>
<path d="M2.97764 40.6848C3.10442 40.8775 3.2787 41.0344 3.48369 41.1402C3.68868 41.246 3.91748 41.2973 4.14804 41.289C4.74067 41.2609 5.23453 40.8475 5.67907 40.4548L6.99419 39.2937L6.12383 39.252C5.49791 39.222 4.85583 39.1939 4.25965 39.3871C3.66347 39.5804 3.11366 40.0447 3.00466 40.6618" fill="#E6E6E6"/>
<path d="M1.74751 42.6332C2.33828 41.5879 3.02347 40.4262 4.2479 40.0549C4.58832 39.952 4.94527 39.9151 5.29953 39.9463C5.4112 39.9559 5.38331 40.128 5.27188 40.1184C4.67803 40.0691 4.08533 40.2259 3.59356 40.5624C3.12033 40.8845 2.75185 41.3324 2.44002 41.8073C2.24898 42.0982 2.07787 42.4014 1.90676 42.7042C1.85209 42.801 1.69219 42.7311 1.74751 42.6332Z" fill="#F2F2F2"/>
<path d="M29.7416 13.3727C30.0086 13.3727 30.225 13.1563 30.225 12.8894C30.225 12.6224 30.0086 12.406 29.7416 12.406C29.4747 12.406 29.2583 12.6224 29.2583 12.8894C29.2583 13.1563 29.4747 13.3727 29.7416 13.3727Z" fill="#E5E5E5"/>
<path d="M41.3013 16.6573C39.4209 15.8769 37.6144 14.9292 35.9036 13.8255C31.7954 11.1829 28.9943 8.12648 28.9334 6.21982C28.9156 5.66256 29.1226 5.22063 29.5486 4.90638C30.2379 4.39797 31.4666 4.27599 33.1022 4.55334L33.0618 4.79164C31.4925 4.52542 30.3272 4.63237 29.6921 5.10085C29.3338 5.36514 29.1598 5.73899 29.1749 6.21211C29.2334 8.04285 31.99 11.0208 36.0344 13.6222C37.7327 14.718 39.5261 15.6589 41.3929 16.4336L41.3013 16.6573Z" fill="#3F3D56"/>
<path d="M47.1178 18.0889C46.4011 18.0889 45.5523 17.9736 44.5872 17.7422L44.6435 17.5072C46.67 17.9929 48.2035 17.9525 48.9616 17.3933C49.3199 17.129 49.4939 16.7552 49.4788 16.2821C49.4203 14.4513 46.6637 11.4734 42.6193 8.87198C40.5696 7.55347 38.3925 6.45539 36.3235 5.69649L36.4067 5.4696C38.4921 6.23452 40.6856 7.34074 42.7501 8.6687C46.8583 11.3112 49.6594 14.3677 49.7204 16.2744C49.7382 16.8316 49.5312 17.2736 49.1051 17.5878C48.6526 17.9216 47.981 18.0889 47.1178 18.0889Z" fill="#3F3D56"/>
<path d="M31.5429 18.0862C30.6774 18.0862 29.9995 17.9202 29.5486 17.5876C29.1226 17.2734 28.9156 16.8314 28.9334 16.2742C28.9943 14.3675 31.7954 11.3111 35.9036 8.66852C40.4951 5.71515 45.6488 3.96485 48.158 4.50697L48.107 4.74322C45.6544 4.21309 40.5771 5.94971 36.0344 8.8718C31.99 11.4732 29.2334 14.4511 29.1749 16.2819C29.1598 16.755 29.3338 17.1289 29.6921 17.3931C31.5067 18.7314 37.3058 17.0398 42.6193 13.6219C46.2694 11.2741 48.863 8.64724 49.3879 6.76642L49.6207 6.8314C49.0805 8.76682 46.4478 11.4467 42.7501 13.8252C40.1478 15.4991 37.3497 16.8145 34.8712 17.5291C33.5838 17.9003 32.4584 18.0862 31.5429 18.0862Z" fill="#3F3D56"/>
<path d="M34.7534 5.75999C35.1538 5.75999 35.4784 5.43538 35.4784 5.03496C35.4784 4.63454 35.1538 4.30994 34.7534 4.30994C34.353 4.30994 34.0283 4.63454 34.0283 5.03496C34.0283 5.43538 34.353 5.75999 34.7534 5.75999Z" fill="#EDE04B"/>
<path d="M42.8495 17.884C43.2499 17.884 43.5745 17.5594 43.5745 17.159C43.5745 16.7586 43.2499 16.434 42.8495 16.434C42.4491 16.434 42.1245 16.7586 42.1245 17.159C42.1245 17.5594 42.4491 17.884 42.8495 17.884Z" fill="#EDE04B"/>
<path d="M45.1051 24.2481C45.3721 24.2481 45.5885 24.0317 45.5885 23.7647C45.5885 23.4978 45.3721 23.2814 45.1051 23.2814C44.8382 23.2814 44.6218 23.4978 44.6218 23.7647C44.6218 24.0317 44.8382 24.2481 45.1051 24.2481Z" fill="#E5E5E5"/>
<path d="M33.1825 0.966702C33.4494 0.966702 33.6658 0.750299 33.6658 0.483351C33.6658 0.216404 33.4494 0 33.1825 0C32.9155 0 32.6991 0.216404 32.6991 0.483351C32.6991 0.750299 32.9155 0.966702 33.1825 0.966702Z" fill="#E5E5E5"/>
<path d="M49.2136 6.12242C49.614 6.12242 49.9387 5.79781 49.9387 5.39739C49.9387 4.99697 49.614 4.67236 49.2136 4.67236C48.8132 4.67236 48.4886 4.99697 48.4886 5.39739C48.4886 5.79781 48.8132 6.12242 49.2136 6.12242Z" fill="#EDE04B"/>
<path d="M25.6176 42.9377H0.0805585C0.0591931 42.9377 0.0387026 42.9292 0.023595 42.9141C0.00848733 42.899 0 42.8785 0 42.8572C0 42.8358 0.00848733 42.8153 0.023595 42.8002C0.0387026 42.7851 0.0591931 42.7766 0.0805585 42.7766H25.6176C25.639 42.7766 25.6595 42.7851 25.6746 42.8002C25.6897 42.8153 25.6982 42.8358 25.6982 42.8572C25.6982 42.8785 25.6897 42.899 25.6746 42.9141C25.6595 42.9292 25.639 42.9377 25.6176 42.9377Z" fill="#CBCBCB"/>
<path d="M15.2011 41.8589L16.1887 41.8589L16.6585 38.0494L15.2009 38.0495L15.2011 41.8589Z" fill="#FFB7B7"/>
<path d="M14.9492 41.5365L16.8942 41.5364H16.8942C17.223 41.5364 17.5382 41.667 17.7707 41.8994C18.0031 42.1319 18.1337 42.4471 18.1338 42.7759V42.8162L14.9492 42.8163L14.9492 41.5365Z" fill="#2F2E41"/>
<path d="M11.2537 41.9395L12.2414 41.9394L12.7112 38.13L11.2535 38.1301L11.2537 41.9395Z" fill="#FFB7B7"/>
<path d="M11.0018 41.617L12.9468 41.6169H12.9469C13.2756 41.617 13.5909 41.7476 13.8233 41.98C14.0558 42.2124 14.1864 42.5277 14.1864 42.8564V42.8967L11.0018 42.8968L11.0018 41.617Z" fill="#2F2E41"/>
<path d="M17.2739 25.8427L16.7717 40.5208H15.1605L13.6335 27.3672L12.9855 40.6819H10.9715L10.4151 24.911L16.5979 24.8263L17.2739 25.8427Z" fill="#2F2E41"/>
<path d="M12.3207 13.946L15.1605 13.8561L15.7933 25.5463L11.3044 25.4564L12.3207 13.946Z" fill="#CBCBCB"/>
<path d="M14.5652 26.1816L17.5296 26.0969L16.6826 21.862L16.7673 19.4058L17.4449 15.425L15.5816 14.324L15.1581 13.8158C15.1581 13.8158 14.4805 14.4934 14.4805 17.6272C14.4805 20.761 14.5652 26.1816 14.5652 26.1816Z" fill="#2F2E41"/>
<path d="M12.0243 26.0969C12.0243 26.0969 14.5652 19.9787 13.4641 17.236C13.4641 17.236 13.0893 14.2393 12.4721 13.8158L11.5161 14.2393L9.48337 15.2557L10.2456 17.3731L9.99155 19.1517L9.82216 25.3346L12.0243 26.0969Z" fill="#2F2E41"/>
<path d="M10.2729 26.2232C10.1678 26.1738 10.0748 26.102 10.0004 26.0128C9.9261 25.9237 9.87222 25.8192 9.8426 25.707C9.81297 25.5947 9.80832 25.4773 9.82898 25.3631C9.84963 25.2488 9.89509 25.1405 9.96214 25.0457L8.99521 23.5098L9.78523 22.6946L11.1203 24.8827C11.272 25.0059 11.3733 25.1805 11.405 25.3734C11.4366 25.5663 11.3964 25.7641 11.2919 25.9293C11.1875 26.0946 11.0261 26.2157 10.8382 26.2699C10.6504 26.3241 10.4492 26.3074 10.2729 26.2232V26.2232Z" fill="#FFB7B7"/>
<path d="M17.9955 27.6903C17.9089 27.613 17.8403 27.5176 17.7946 27.4108C17.7489 27.3041 17.7272 27.1886 17.731 27.0726C17.7347 26.9565 17.7638 26.8427 17.8163 26.7392C17.8688 26.6356 17.9434 26.5448 18.0348 26.4732L17.5479 24.7248L18.5382 24.1698L19.1911 26.6485C19.3012 26.81 19.3483 27.0062 19.3234 27.2001C19.2986 27.394 19.2034 27.5721 19.056 27.7005C18.9087 27.8289 18.7193 27.8988 18.5238 27.8969C18.3283 27.8951 18.1404 27.8216 17.9955 27.6903H17.9955Z" fill="#FFB7B7"/>
<path d="M10.415 15.0863L9.48338 15.2557L7.45064 20.1681L9.31398 24.9959L10.5844 23.8101L9.39868 20.9304C9.39868 20.9304 9.48337 20.5916 9.39868 20.5493C9.31398 20.5069 9.52312 20.2343 9.48337 20.2131C9.39868 20.1681 9.65277 19.7446 9.65277 19.7446L10.6691 17.6272L10.415 15.0863Z" fill="#2F2E41"/>
<path d="M16.5132 15.4249H17.4449L18.4613 20.6761L18.3766 21.5231L18.7154 23.6405L19.1812 25.8003L17.699 25.8427L16.9367 21.8619L16.2591 19.1516L16.5132 15.4249Z" fill="#2F2E41"/>
<path d="M13.7882 13.1645C14.881 13.1645 15.7668 12.2786 15.7668 11.1859C15.7668 10.0931 14.881 9.20728 13.7882 9.20728C12.6955 9.20728 11.8096 10.0931 11.8096 11.1859C11.8096 12.2786 12.6955 13.1645 13.7882 13.1645Z" fill="#FFB7B7"/>
<path d="M15.3599 9.58741L15.7112 9.45966C15.7112 9.45966 14.9766 8.72508 13.9546 8.78896L14.242 8.50151C14.242 8.50151 13.5394 8.24601 12.9006 8.91671C12.5648 9.26928 12.1763 9.68371 11.9341 10.1506H11.5579L11.7149 10.4646L11.1653 10.7787L11.7294 10.7223C11.676 10.9934 11.6944 11.2738 11.7828 11.5356L11.9105 11.887C11.9105 11.887 12.4216 10.8649 12.4216 10.7372V11.0566C12.4216 11.0566 12.7729 10.7691 12.7729 10.5775L12.9645 10.8011L13.0603 10.4497L14.242 10.8011L14.0504 10.5136L14.785 10.6094L14.4975 10.2581C14.4975 10.2581 15.3279 10.6733 15.3599 11.0246C15.3918 11.3759 15.807 11.8231 15.807 11.8231L15.9986 11.5037C15.9986 11.5037 16.2861 10.0665 15.3599 9.58741Z" fill="#2F2E41"/>
<path d="M60.5049 38.142L59.0902 37.731L58.4724 41.5609L59.4309 41.8395L60.5049 38.142Z" fill="#9F616A"/>
<path d="M56.365 41.9143L56.4058 41.7741C56.4846 41.5026 56.6681 41.2735 56.9159 41.1373C57.1637 41.001 57.4554 40.9688 57.7269 41.0477L59.7159 41.6254L59.3778 42.7895L56.365 41.9143H56.365Z" fill="#2F2E41"/>
<path d="M69.3376 38.0123L67.8643 38.0122L68.3392 41.8625L69.3374 41.8626L69.3376 38.0123Z" fill="#9F616A"/>
<path d="M66.414 42.7892L66.414 42.6432C66.414 42.5032 66.4416 42.3646 66.4952 42.2352C66.5488 42.1059 66.6273 41.9884 66.7263 41.8894C66.8253 41.7904 66.9428 41.7119 67.0722 41.6583C67.2015 41.6047 67.3402 41.5771 67.4802 41.5771L69.5513 41.5772L69.5513 42.7894L66.414 42.7892Z" fill="#2F2E41"/>
<path d="M67.9829 28.6818C68.1798 28.5874 68.3311 28.4187 68.4036 28.2128C68.4761 28.0068 68.4638 27.7805 68.3695 27.5836L68.0904 24.9559L66.7001 24.3617L67.2184 27.2248C67.0334 27.3306 66.8966 27.5041 66.8369 27.7087C66.7772 27.9133 66.7991 28.1331 66.8982 28.3218C66.9972 28.5106 67.1656 28.6536 67.3679 28.7207C67.5702 28.7878 67.7907 28.7739 67.9829 28.6818Z" fill="#9F616A"/>
<path d="M67.734 21.6042L66.1029 16.6523C66.0688 16.5955 65.6628 15.9564 64.7787 16.2283C64.6811 16.2557 64.5902 16.303 64.5116 16.367C64.4331 16.4311 64.3685 16.5106 64.322 16.6007C64.0632 17.0969 64.3046 17.8633 64.3057 17.8674L66.3139 22.3677L66.316 22.3723L66.9499 26.994L68.3188 26.716L67.734 21.6042Z" fill="#EDE04B"/>
<path d="M56.8921 39.9237L59.3473 32.395L62.1939 25.8882L62.153 22.7324L65.5311 21.9447L65.9245 23.2673C68.1996 24.7685 67.4501 27.6563 67.3966 27.8499L70.8247 40.5012L67.0868 40.9165L64.5778 28.938L62.2639 33.8053L60.6278 41.0859L56.8921 39.9237Z" fill="#2F2E41"/>
<path d="M61.9094 20.0833C61.2378 18.7959 61.7234 18.3056 62.4577 17.5641C62.7578 17.2712 63.0394 16.9599 63.3008 16.6321C64.4464 15.1592 65.776 15.8826 65.7893 15.8901L65.7968 15.8943L66.1253 16.387C67.2078 17.4765 65.5662 20.4703 65.4415 20.6932L65.5238 22.834L62.0327 23.1664L61.9094 20.0833Z" fill="#EDE04B"/>
<path d="M64.0657 15.2548C65.1702 15.2548 66.0655 14.3594 66.0655 13.255C66.0655 12.1505 65.1702 11.2551 64.0657 11.2551C62.9612 11.2551 62.0659 12.1505 62.0659 13.255C62.0659 14.3594 62.9612 15.2548 64.0657 15.2548Z" fill="#9F616A"/>
<path d="M63.2395 28.348C63.323 28.5314 63.4709 28.6778 63.6552 28.7594C63.8395 28.8411 64.0473 28.8523 64.2392 28.7909C64.4312 28.7296 64.594 28.6 64.6968 28.4267C64.7996 28.2533 64.8352 28.0483 64.7969 27.8504L65.1918 25.2376L63.997 24.3109L63.7741 27.212C63.6583 27.2425 63.5507 27.2979 63.4587 27.3745C63.3667 27.4511 63.2926 27.5469 63.2416 27.6552C63.1906 27.7635 63.164 27.8817 63.1637 28.0014C63.1633 28.1211 63.1892 28.2394 63.2395 28.348V28.348Z" fill="#9F616A"/>
<path d="M63.4925 26.9878L64.0565 22.2905L63.2526 17.4297C63.2507 17.3956 63.2107 16.5895 63.6068 16.1526C63.6809 16.07 63.7711 16.0036 63.872 15.9575C63.9728 15.9113 64.0821 15.8864 64.193 15.8842C65.1974 15.8403 65.4376 16.6771 65.4399 16.6855L65.767 21.9074L65.029 27.0732L63.4925 26.9878Z" fill="#EDE04B"/>
<path d="M62.0263 12.9087L62.1351 12.7335C62.4059 12.6795 62.6867 12.7114 62.9384 12.8246C63.1901 12.9379 63.4003 13.1269 63.5394 13.3653C63.6081 13.1122 64.0163 13.1253 64.1674 13.3396C64.3184 13.5539 64.285 13.8435 64.236 14.1011C64.187 14.3587 64.1315 14.6387 64.2504 14.8723C64.3139 14.9815 64.4052 15.0718 64.5149 15.1343C64.6247 15.1967 64.749 15.2289 64.8752 15.2276C65.1284 15.2215 65.3746 15.1432 65.5847 15.0019C65.9712 14.7558 66.2803 14.4055 66.4761 13.9913C66.672 13.5771 66.7467 13.1159 66.6917 12.6611C66.6408 12.3068 66.5092 11.969 66.307 11.6737C66.4229 11.6649 66.531 11.6124 66.6095 11.5266C66.6638 11.4559 66.6974 11.3715 66.7068 11.2828C66.7161 11.1941 66.7008 11.1045 66.6625 11.024C66.5954 10.8832 66.4932 10.7619 66.3658 10.6719C66.4574 10.745 66.565 10.7953 66.6798 10.8185C66.8209 10.8389 66.9856 10.7656 67.0112 10.6296C67.0356 10.5 66.9318 10.3821 66.8359 10.2872C66.7738 10.2256 66.7116 10.164 66.6494 10.1024C66.6816 10.0659 66.7116 10.0274 66.7391 9.98719C66.8428 9.84195 66.9023 9.66986 66.9105 9.4916C66.9188 9.31333 66.8754 9.13649 66.7855 8.9823C66.9635 9.28622 66.8073 9.64787 66.4938 9.89426C66.4838 9.90218 66.4724 9.90913 66.4621 9.91685L66.3431 9.79901C66.25 9.69338 66.1361 9.60816 66.0084 9.54875C65.8768 9.49827 65.7087 9.51304 65.6228 9.62015C65.5308 9.73479 65.5566 9.91715 65.449 10.018C65.3549 10.1062 65.2016 10.0915 65.0749 10.0542C64.9482 10.017 64.8172 9.96251 64.6891 9.99042C64.603 10.0159 64.5294 10.0724 64.4826 10.1491C64.4358 10.2258 64.4192 10.3171 64.4359 10.4053C64.4503 10.4814 64.4824 10.553 64.5296 10.6144C64.1755 10.5843 63.8196 10.5832 63.4653 10.6111C63.0484 10.6343 62.6223 10.6632 62.2377 10.826C61.8531 10.9887 61.5113 11.3125 61.4403 11.724C61.3694 12.1355 61.6102 12.8725 62.0263 12.9087Z" fill="#2F2E41"/>
<path d="M74.9194 42.9377H49.3824C49.361 42.9377 49.3405 42.9292 49.3254 42.9141C49.3103 42.899 49.3018 42.8785 49.3018 42.8572C49.3018 42.8358 49.3103 42.8153 49.3254 42.8002C49.3405 42.7851 49.361 42.7766 49.3824 42.7766H74.9194C74.9408 42.7766 74.9613 42.7851 74.9764 42.8002C74.9915 42.8153 75 42.8358 75 42.8572C75 42.8785 74.9915 42.899 74.9764 42.9141C74.9613 42.9292 74.9408 42.9377 74.9194 42.9377Z" fill="#CBCBCB"/>
</g>
<defs>
<clipPath id="clip0">
<rect width="75" height="42.9377" fill="white"/>
</clipPath>
</defs>
</svg>
