<svg width="83" height="60" viewBox="0 0 83 60" fill="none" xmlns="http://www.w3.org/2000/svg">
<g clip-path="url(#clip0)">
<path d="M12.3026 42.5322C12.2345 42.4291 12.1447 42.3422 12.0394 42.2776C11.9341 42.213 11.8159 42.1723 11.6932 42.1583C11.5704 42.1443 11.4461 42.1575 11.329 42.1967C11.2119 42.236 11.1048 42.3005 11.0153 42.3856L8.34692 41.0083L8.5128 42.5599L11.0213 43.6299C11.1742 43.7709 11.3736 43.8507 11.5815 43.8545C11.7895 43.8582 11.9916 43.7855 12.1495 43.6502C12.3075 43.5149 12.4103 43.3263 12.4385 43.1203C12.4667 42.9142 12.4184 42.705 12.3026 42.5322H12.3026Z" fill="#A0616A"/>
<path d="M9.93118 43.157C9.8829 43.1791 9.83049 43.1909 9.77738 43.1914C9.72426 43.192 9.67162 43.1814 9.62287 43.1603L7.08834 42.0608C6.22172 41.685 5.5211 41.0072 5.11682 40.1535L3.78435 37.3409C3.68601 37.2146 3.61354 37.0701 3.57109 36.9157C3.52863 36.7614 3.51701 36.6001 3.53691 36.4413C3.5568 36.2824 3.60781 36.1291 3.68703 35.9899C3.76624 35.8508 3.8721 35.7287 3.99856 35.6305C4.12501 35.5323 4.26958 35.46 4.424 35.4177C4.57841 35.3755 4.73964 35.3641 4.89847 35.3841C5.0573 35.4042 5.21061 35.4554 5.34964 35.5348C5.48867 35.6142 5.61068 35.7202 5.70871 35.8468L8.05086 40.1923L10.2135 41.826C10.2754 41.873 10.3214 41.9378 10.3453 42.0118C10.3691 42.0858 10.3697 42.1653 10.3469 42.2396L10.1346 42.9252C10.1118 42.9987 10.0671 43.0635 10.0065 43.111C9.98333 43.1293 9.95803 43.1447 9.93118 43.157Z" fill="#CCCCCC"/>
<path d="M3.72598 34.0331C4.86583 34.0331 5.78985 33.1091 5.78985 31.9693C5.78985 30.8294 4.86583 29.9054 3.72598 29.9054C2.58614 29.9054 1.66211 30.8294 1.66211 31.9693C1.66211 33.1091 2.58614 34.0331 3.72598 34.0331Z" fill="#A0616A"/>
<path d="M4.56178 59.0434L5.5919 59.0433L6.08205 55.0697L4.56152 55.0698L4.56178 59.0434Z" fill="#A0616A"/>
<path d="M7.57873 59.9998L4.34099 59.9999L4.34093 58.7489L6.32773 58.7488C6.6595 58.7488 6.97769 58.8806 7.2123 59.1152C7.44691 59.3498 7.57872 59.668 7.57874 59.9998L7.57873 59.9998Z" fill="#2F2E41"/>
<path d="M1.20057 59.0434L2.2307 59.0433L2.72085 55.0697L1.20032 55.0698L1.20057 59.0434Z" fill="#A0616A"/>
<path d="M4.21753 59.9998L0.979779 59.9999L0.979722 58.7489L2.96652 58.7488C3.29829 58.7488 3.61648 58.8806 3.85109 59.1152C4.0857 59.3498 4.21751 59.668 4.21753 59.9998L4.21753 59.9998Z" fill="#2F2E41"/>
<path d="M0.841209 57.9062C0.805712 57.8656 0.779289 57.818 0.763709 57.7664C0.74813 57.7148 0.743754 57.6605 0.750876 57.6071L2.55455 44.0795L7.03577 44.8405L7.51403 44.5535L6.27731 57.3887C6.26702 57.4753 6.22717 57.5558 6.16446 57.6165C6.10176 57.6771 6.02004 57.7143 5.93311 57.7218L4.57621 57.8348C4.52226 57.8393 4.46798 57.8322 4.41702 57.8139C4.36607 57.7957 4.31964 57.7666 4.28087 57.7289C4.2421 57.6911 4.21189 57.6454 4.1923 57.5949C4.1727 57.5445 4.16417 57.4904 4.16728 57.4364L4.51858 51.3238C4.5192 51.3134 4.51595 51.3032 4.50945 51.295C4.50295 51.2869 4.49367 51.2815 4.4834 51.2798C4.47313 51.2782 4.46261 51.2803 4.45387 51.286C4.44512 51.2916 4.43878 51.3003 4.43607 51.3103L2.69806 57.7555C2.67633 57.8357 2.62881 57.9066 2.56284 57.9571C2.49686 58.0077 2.41609 58.0351 2.33297 58.0352H1.12572C1.07183 58.0352 1.01857 58.0237 0.969502 58.0015C0.920433 57.9792 0.876692 57.9467 0.841209 57.9062Z" fill="#2F2E41"/>
<path d="M3.9442 45.0261C3.89276 44.9795 3.82664 44.9525 3.75731 44.9496C3.68799 44.9467 3.61984 44.9682 3.56471 45.0103L2.66878 45.7071C2.62003 45.7452 2.56269 45.7707 2.50179 45.7814C2.44089 45.792 2.37829 45.7876 2.3195 45.7685C2.2607 45.7494 2.2075 45.7161 2.16456 45.6716C2.12162 45.6271 2.09026 45.5728 2.07323 45.5133C1.63377 43.9743 0.638128 40.1002 0.883407 37.3736C1.02244 35.8281 2.35706 34.6534 3.8585 34.752C4.88498 34.8204 5.56028 35.4126 5.86565 36.512C6.61542 39.2112 7.43939 44.1624 7.59695 45.1276C7.60939 45.2025 7.5989 45.2794 7.56686 45.3482C7.53482 45.417 7.48273 45.4745 7.41742 45.5132C6.99352 45.7677 6.5092 45.904 6.0148 45.908C5.41657 45.9079 4.69928 45.6997 3.9442 45.0261Z" fill="#CCCCCC"/>
<path d="M4.28231 45.9861C4.29234 45.863 4.27525 45.7392 4.23225 45.6234C4.18925 45.5076 4.12139 45.4026 4.03343 45.3159C3.94547 45.2291 3.83957 45.1627 3.72317 45.1213C3.60678 45.08 3.48273 45.0646 3.35975 45.0764L2.11007 42.3459L1.28308 43.6692L2.59659 46.0592C2.63002 46.2644 2.73758 46.4503 2.89891 46.5816C3.06023 46.7129 3.2641 46.7804 3.47188 46.7714C3.67967 46.7624 3.87694 46.6775 4.0263 46.5328C4.17567 46.388 4.26676 46.1935 4.28231 45.9861Z" fill="#A0616A"/>
<path d="M2.03097 45.0144C1.97931 45.002 1.93083 44.9789 1.88869 44.9466C1.84654 44.9142 1.81167 44.8734 1.78635 44.8267L0.470501 42.3974C0.0205001 41.5669 -0.112514 40.6012 0.0962005 39.68L0.78344 36.6446C0.784063 36.4845 0.816228 36.3261 0.878096 36.1785C0.939965 36.0309 1.03032 35.8969 1.14401 35.7842C1.25769 35.6715 1.39247 35.5823 1.54064 35.5217C1.6888 35.4612 1.84746 35.4304 2.00753 35.4312C2.1676 35.4319 2.32594 35.4643 2.47351 35.5263C2.62108 35.5883 2.75498 35.6788 2.86756 35.7926C2.98014 35.9064 3.06918 36.0412 3.1296 36.1895C3.19003 36.3377 3.22064 36.4964 3.2197 36.6565L2.38096 41.5212L3.07452 44.1413C3.09424 44.2165 3.0904 44.2959 3.06352 44.3688C3.03664 44.4417 2.98801 44.5046 2.92422 44.549L2.33408 44.9575C2.27077 45.0013 2.19562 45.0247 2.11865 45.0247C2.08912 45.0247 2.05969 45.0213 2.03097 45.0144Z" fill="#CCCCCC"/>
<path opacity="0.2" d="M3.05217 38.708L2.2959 41.9012L3.38829 44.5902L2.63202 41.9852L3.05217 38.708Z" fill="black"/>
<path d="M2.54829 33.6664C2.36471 33.6698 2.18226 33.6368 2.01151 33.5692C1.93638 33.5403 1.85838 33.5165 1.78339 33.4875C1.12109 33.2316 0.684806 32.5263 0.669181 31.8165C0.653555 31.1066 1.02116 30.4177 1.56701 29.9636C2.11287 29.5096 2.8199 29.2765 3.52786 29.2225C4.29046 29.1645 5.14916 29.3579 5.57529 29.993C5.68872 30.162 5.76805 30.3671 5.70083 30.5712C5.6807 30.6328 5.64475 30.688 5.59657 30.7314C5.40627 30.9007 5.21654 30.7734 5.02254 30.7621C4.75589 30.7467 4.5164 30.9625 4.43032 31.2153C4.34424 31.4682 4.38213 31.7466 4.45163 32.0044C4.50458 32.1596 4.53796 32.3208 4.551 32.4843C4.55661 32.5662 4.54119 32.6483 4.50622 32.7226C4.47124 32.7969 4.41785 32.8611 4.35113 32.909C4.18451 33.0097 3.96569 32.9514 3.79896 32.8509C3.63224 32.7503 3.48819 32.6105 3.3081 32.5365C3.12801 32.4625 2.88606 32.4789 2.78124 32.643C2.74793 32.7027 2.72538 32.7678 2.71463 32.8353C2.62066 33.2634 2.64226 33.2382 2.54829 33.6664L2.54829 33.6664Z" fill="#2F2E41"/>
<path d="M63.6391 19.3673H12.6327C12.4384 19.3675 12.2521 19.4447 12.1147 19.5821C11.9773 19.7195 11.9001 19.9058 11.8999 20.1001V54.6634C11.9001 54.8577 11.9773 55.044 12.1147 55.1814C12.2521 55.3188 12.4384 55.396 12.6327 55.3962H63.6391C63.745 55.3962 63.8497 55.3732 63.9459 55.3288C64.0421 55.2844 64.1275 55.2197 64.1962 55.1391C64.202 55.1327 64.2073 55.126 64.2121 55.1189C64.2559 55.0654 64.2913 55.0056 64.3172 54.9416C64.3541 54.8535 64.3729 54.7589 64.3726 54.6634V33.1475H64.1634V54.6634C64.1635 54.7657 64.1334 54.8656 64.0769 54.9508C64.0266 55.0258 63.9584 55.087 63.8785 55.129C63.8045 55.1672 63.7224 55.1871 63.6391 55.187H12.6327C12.4939 55.1868 12.3608 55.1316 12.2627 55.0334C12.1645 54.9353 12.1093 54.8022 12.1091 54.6634V20.1001C12.1093 19.9613 12.1645 19.8282 12.2626 19.73C12.3608 19.6319 12.4939 19.5767 12.6327 19.5765H63.6391C63.778 19.5765 63.9112 19.6317 64.0096 19.7298C64.1079 19.828 64.1632 19.9611 64.1634 20.1001V24.7444H64.3726V20.1001C64.3724 19.9056 64.295 19.7193 64.1575 19.5819C64.0199 19.4445 63.8335 19.3673 63.6391 19.3673Z" fill="#3F3D56"/>
<path d="M64.2674 22.3042H12.0042V22.5137H64.2674V22.3042Z" fill="#3F3D56"/>
<path d="M13.7847 21.5673C14.1317 21.5673 14.4131 21.2859 14.4131 20.9388C14.4131 20.5918 14.1317 20.3104 13.7847 20.3104C13.4376 20.3104 13.1562 20.5918 13.1562 20.9388C13.1562 21.2859 13.4376 21.5673 13.7847 21.5673Z" fill="#CCCCCC"/>
<path d="M15.5914 21.5673C15.9385 21.5673 16.2198 21.2859 16.2198 20.9388C16.2198 20.5918 15.9385 20.3104 15.5914 20.3104C15.2444 20.3104 14.963 20.5918 14.963 20.9388C14.963 21.2859 15.2444 21.5673 15.5914 21.5673Z" fill="#CCCCCC"/>
<path d="M17.3981 21.5673C17.7451 21.5673 18.0265 21.2859 18.0265 20.9388C18.0265 20.5918 17.7451 20.3104 17.3981 20.3104C17.051 20.3104 16.7697 20.5918 16.7697 20.9388C16.7697 21.2859 17.051 21.5673 17.3981 21.5673Z" fill="#CCCCCC"/>
<path d="M30.0205 51.1596C29.8042 51.1586 29.5915 51.1037 29.4018 50.9998C29.212 50.8959 29.0512 50.7463 28.9339 50.5645C28.8165 50.3828 28.7463 50.1747 28.7297 49.959C28.713 49.7433 28.7504 49.5269 28.8385 49.3293L30.3356 45.9891C29.1565 44.9462 28.213 43.6643 27.5677 42.2285C26.9223 40.7928 26.59 39.2361 26.5928 37.662C26.5928 31.5123 31.596 26.5089 37.7459 26.5089C43.8958 26.5089 48.899 31.5122 48.899 37.662C48.899 43.8118 43.8958 48.8151 37.7459 48.8151C36.6701 48.814 35.6001 48.6564 34.5697 48.3473L30.7489 50.9339C30.5342 51.0804 30.2804 51.1591 30.0205 51.1596ZM37.7459 28.0652C35.7555 28.064 33.8141 28.6821 32.1908 29.8337C30.5674 30.9853 29.3426 32.6134 28.686 34.4924C28.0294 36.3713 27.9736 38.408 28.5263 40.32C29.079 42.2321 30.2129 43.9248 31.7708 45.1636L32.2424 45.5397L30.6316 49.134L34.3282 46.6314L34.6932 46.754C36.0117 47.197 37.4109 47.348 38.7936 47.1965C40.1763 47.0449 41.5096 46.5946 42.7009 45.8766C43.8923 45.1586 44.9132 44.1901 45.6931 43.0383C46.4729 41.8864 46.993 40.5788 47.2173 39.206C47.4415 37.8332 47.3645 36.4281 46.9917 35.088C46.6189 33.7479 45.9592 32.5048 45.0582 31.4451C44.1572 30.3853 43.0366 29.5341 41.774 28.9505C40.5113 28.3669 39.1369 28.0648 37.7459 28.0652Z" fill="#3F3D56"/>
<path d="M37.7458 38.6997C38.6053 38.6997 39.3021 38.0029 39.3021 37.1434C39.3021 36.2839 38.6053 35.5872 37.7458 35.5872C36.8863 35.5872 36.1896 36.2839 36.1896 37.1434C36.1896 38.0029 36.8863 38.6997 37.7458 38.6997Z" fill="#3F3D56"/>
<path d="M33.3363 38.6997C34.1958 38.6997 34.8925 38.0029 34.8925 37.1434C34.8925 36.2839 34.1958 35.5872 33.3363 35.5872C32.4768 35.5872 31.78 36.2839 31.78 37.1434C31.78 38.0029 32.4768 38.6997 33.3363 38.6997Z" fill="#3F3D56"/>
<path d="M42.155 38.6997C43.0145 38.6997 43.7112 38.0029 43.7112 37.1434C43.7112 36.2839 43.0145 35.5872 42.155 35.5872C41.2955 35.5872 40.5988 36.2839 40.5988 37.1434C40.5988 38.0029 41.2955 38.6997 42.155 38.6997Z" fill="#3F3D56"/>
<path d="M76.8803 30.984H62.0909C61.9127 30.984 61.7417 30.9132 61.6156 30.7871C61.4895 30.6611 61.4187 30.4901 61.4187 30.3118C61.4187 30.1335 61.4895 29.9625 61.6156 29.8364C61.7417 29.7104 61.9127 29.6395 62.0909 29.6395H76.8803C77.0586 29.6395 77.2296 29.7104 77.3556 29.8364C77.4817 29.9625 77.5525 30.1335 77.5525 30.3118C77.5525 30.4901 77.4817 30.6611 77.3556 30.7871C77.2296 30.9132 77.0586 30.984 76.8803 30.984Z" fill="#CCCCCC"/>
<path d="M67.2168 28.1271H62.0909C61.9127 28.1271 61.7417 28.0563 61.6156 27.9302C61.4895 27.8041 61.4187 27.6331 61.4187 27.4548C61.4187 27.2765 61.4895 27.1056 61.6156 26.9795C61.7417 26.8534 61.9127 26.7826 62.0909 26.7826H67.2168C67.3951 26.7826 67.5661 26.8534 67.6921 26.9795C67.8182 27.1056 67.889 27.2765 67.889 27.4548C67.889 27.6331 67.8182 27.8041 67.6921 27.9302C67.5661 28.0563 67.3951 28.1271 67.2168 28.1271Z" fill="#CCCCCC"/>
<path d="M55.3926 31.8028C56.9704 31.8028 58.2496 30.5237 58.2496 28.9458C58.2496 27.3679 56.9704 26.0887 55.3926 26.0887C53.8147 26.0887 52.5355 27.3679 52.5355 28.9458C52.5355 30.5237 53.8147 31.8028 55.3926 31.8028Z" fill="#7F52DD"/>
<path d="M78.3628 24.5762H51.7251C51.3464 24.5767 50.9834 24.7274 50.7156 24.9952C50.4478 25.2629 50.2972 25.626 50.2966 26.0047V31.8868C50.2972 32.2655 50.4478 32.6285 50.7156 32.8963C50.9834 33.1641 51.3464 33.3148 51.7251 33.3153H78.3628C78.7415 33.3148 79.1045 33.1641 79.3723 32.8963C79.6401 32.6285 79.7907 32.2655 79.7913 31.8868V26.0047C79.7907 25.626 79.6401 25.2629 79.3723 24.9952C79.1045 24.7274 78.7415 24.5767 78.3628 24.5762ZM79.6232 31.8868C79.6228 32.221 79.4899 32.5413 79.2536 32.7776C79.0173 33.0139 78.6969 33.1469 78.3628 33.1473H51.7251C51.391 33.1469 51.0706 33.0139 50.8343 32.7776C50.598 32.5413 50.4651 32.221 50.4647 31.8868V26.0047C50.4651 25.6705 50.598 25.3502 50.8343 25.1139C51.0706 24.8776 51.391 24.7446 51.7251 24.7442H78.3628C78.6969 24.7446 79.0173 24.8776 79.2536 25.1139C79.4899 25.3502 79.6228 25.6705 79.6232 26.0047V31.8868Z" fill="#3F3D56"/>
<path d="M79.6232 26.929C80.6906 26.929 81.5559 26.0637 81.5559 24.9963C81.5559 23.9289 80.6906 23.0636 79.6232 23.0636C78.5558 23.0636 77.6906 23.9289 77.6906 24.9963C77.6906 26.0637 78.5558 26.929 79.6232 26.929Z" fill="#7F52DD"/>
<path d="M79.5639 26.0834C79.5561 26.0756 79.5499 26.0663 79.5457 26.0561C79.5415 26.046 79.5393 26.035 79.5393 26.024V23.8849C79.5393 23.8626 79.5482 23.8413 79.5639 23.8255C79.5797 23.8098 79.601 23.8009 79.6233 23.8009C79.6456 23.8009 79.667 23.8098 79.6827 23.8255C79.6985 23.8413 79.7074 23.8626 79.7074 23.8849V26.024C79.7074 26.0406 79.7024 26.0568 79.6932 26.0707C79.684 26.0845 79.6708 26.0952 79.6555 26.1016C79.6401 26.108 79.6232 26.1096 79.6069 26.1064C79.5906 26.1032 79.5757 26.0952 79.5639 26.0834Z" fill="white"/>
<path d="M78.4945 25.0138C78.4827 25.002 78.4747 24.9871 78.4715 24.9708C78.4682 24.9545 78.4699 24.9376 78.4763 24.9222C78.4826 24.9069 78.4934 24.8938 78.5072 24.8845C78.521 24.8753 78.5373 24.8704 78.5539 24.8704H80.693C80.7152 24.8704 80.7366 24.8792 80.7524 24.895C80.7681 24.9107 80.777 24.9321 80.777 24.9544C80.777 24.9767 80.7681 24.998 80.7524 25.0138C80.7366 25.0296 80.7152 25.0384 80.693 25.0384H78.5539C78.5428 25.0384 78.5319 25.0363 78.5217 25.032C78.5115 25.0278 78.5023 25.0216 78.4945 25.0138Z" fill="white"/>
<path d="M81.937 50.6853H77.9027C77.9027 50.8013 73.7449 50.8954 73.7449 50.8954C73.6796 50.9445 73.6201 51.0009 73.5676 51.0634C73.4096 51.2518 73.3233 51.4899 73.3239 51.7357V51.9037C73.324 52.1823 73.4347 52.4494 73.6316 52.6464C73.8286 52.8433 74.0957 52.954 74.3742 52.9541H81.937C82.2155 52.9539 82.4825 52.8431 82.6795 52.6462C82.8764 52.4493 82.9871 52.1822 82.9874 51.9037V51.7357C82.987 51.4572 82.8762 51.1903 82.6793 50.9934C82.4824 50.7965 82.2155 50.6857 81.937 50.6853Z" fill="#3F3D56"/>
<path d="M78.7435 52.9124H77.6511V59.9709H78.7435V52.9124Z" fill="#3F3D56"/>
<path d="M81.8527 59.9326C81.8527 60.0506 80.1973 59.9782 78.1553 59.9782C76.1134 59.9782 74.458 60.0506 74.458 59.9326C74.458 59.8145 76.1134 58.8785 78.1553 58.8785C80.1973 58.8785 81.8527 59.8145 81.8527 59.9326Z" fill="#3F3D56"/>
<path d="M78.5477 41.2261C79.8471 41.2261 80.9005 40.1727 80.9005 38.8732C80.9005 37.5738 79.8471 36.5204 78.5477 36.5204C77.2482 36.5204 76.1948 37.5738 76.1948 38.8732C76.1948 40.1727 77.2482 41.2261 78.5477 41.2261Z" fill="#2F2E41"/>
<path d="M72.6924 59.0042L71.6621 59.0041L71.172 55.0305L72.6925 55.0306L72.6924 59.0042Z" fill="#FFB8B8"/>
<path d="M70.9261 58.7095H72.9129V59.9604H69.6752C69.6752 59.6287 69.807 59.3105 70.0416 59.0759C70.2762 58.8413 70.5943 58.7095 70.9261 58.7095Z" fill="#2F2E41"/>
<path d="M71.0843 58.429L70.1014 58.1206L70.8234 54.1825L72.2741 54.6378L71.0843 58.429Z" fill="#FFB8B8"/>
<path d="M69.4871 57.6192L71.3828 58.2141L71.0082 59.4076L67.919 58.4382C68.0184 58.1216 68.2394 57.8575 68.5335 57.7039C68.8275 57.5503 69.1706 57.5198 69.4871 57.6192Z" fill="#2F2E41"/>
<path d="M79.1777 49.9965C79.1539 49.7962 79.1111 49.5987 79.05 49.4066L78.8575 49.1646L78.3567 48.536L78.3349 48.5369C78.2979 48.5385 78.1441 48.5469 77.9063 48.5654H77.9038C77.7567 48.5772 77.5769 48.5923 77.3727 48.6116C77.3189 48.6175 77.2627 48.6226 77.2047 48.6284V49.5057H78.2551C78.3061 49.5058 78.3554 49.5244 78.3937 49.5581C78.4321 49.5918 78.4568 49.6383 78.4635 49.6889C78.4643 49.6981 78.4651 49.7066 78.4651 49.7158C78.4651 49.7715 78.443 49.8249 78.4036 49.8643C78.3642 49.9037 78.3108 49.9258 78.2551 49.9259H72.1544C72.0767 49.9775 72.0021 50.0336 71.9309 50.0939C71.716 50.2603 71.5611 50.4922 71.4898 50.7544C71.1335 52.3207 70.4839 55.2416 70.2923 56.0996C70.2784 56.1642 70.2816 56.2314 70.3015 56.2944C70.3214 56.3575 70.3573 56.4143 70.4058 56.4592C70.4415 56.4926 70.4835 56.5186 70.5293 56.5357L71.2873 56.8197C71.3184 56.8312 71.3509 56.8388 71.3839 56.8424C71.3881 56.8424 71.3914 56.8432 71.3957 56.8432C71.4035 56.8439 71.4113 56.8442 71.4192 56.8441C71.4958 56.8438 71.5706 56.8203 71.6337 56.7769C71.6968 56.7334 71.7454 56.6719 71.773 56.6004L72.3713 55.0307L73.2931 52.6106L73.6578 51.6535C74.0804 51.7527 77.6265 52.5375 78.8139 51.2729C78.931 51.1483 79.0234 51.0026 79.0861 50.8435C79.186 50.573 79.2175 50.282 79.1777 49.9965Z" fill="#2F2E41"/>
<path d="M80.2063 50.2249C80.1878 50.1502 80.1668 50.0729 80.1425 49.9947L79.4492 49.1241L79.4274 49.125C79.3837 49.1275 79.1761 49.1384 78.8576 49.1645C78.4963 49.1947 77.9913 49.2435 77.4241 49.3199C77.4073 49.3216 77.3897 49.3241 77.3728 49.3267C77.3174 49.3342 77.2611 49.3418 77.2048 49.3502V49.5056H78.2552C78.3062 49.5057 78.3555 49.5243 78.3938 49.558C78.4322 49.5917 78.4569 49.6382 78.4636 49.6888C78.4644 49.6981 78.4652 49.7065 78.4652 49.7157C78.4652 49.7714 78.4431 49.8249 78.4037 49.8642C78.3643 49.9036 78.3109 49.9258 78.2552 49.9258H74.5427C74.3805 49.9787 74.2242 50.0342 74.0747 50.0939C73.2898 50.4048 72.7024 50.8123 72.5823 51.3426C72.5419 51.5207 72.4974 51.7165 72.4504 51.9249C72.2756 52.6996 72.063 53.6483 71.8706 54.5105V54.5113C71.831 54.6895 71.7916 54.8626 71.7537 55.0307C71.5932 55.7533 71.4571 56.3659 71.3848 56.6877C71.3832 56.697 71.3815 56.7054 71.3798 56.7146V56.7163C71.3714 56.7814 71.3795 56.8476 71.4033 56.9087L71.4042 56.9096V56.9104C71.4273 56.969 71.4649 57.0207 71.5134 57.0608C71.5459 57.0876 71.5825 57.1089 71.6218 57.1238L72.3798 57.4079C72.422 57.4236 72.4666 57.4319 72.5117 57.4322C72.5749 57.4324 72.637 57.4165 72.6923 57.386C72.7718 57.343 72.8332 57.2729 72.8655 57.1885L74.4973 52.9063L74.7503 52.2417C75.1729 52.3408 78.719 53.1248 79.9063 51.861C80.1409 51.6071 80.2748 51.2764 80.2828 50.9308C80.2911 50.6931 80.2653 50.4554 80.2063 50.2249Z" fill="#2F2E41"/>
<path d="M80.1131 42.8116C80.0997 42.7957 80.0854 42.7797 80.0703 42.7646C79.8464 42.5293 79.5701 42.3503 79.2638 42.2424C78.9575 42.1345 78.63 42.1006 78.3081 42.1436C78.0273 42.1805 77.7492 42.2352 77.4754 42.3074C77.1217 42.3984 76.7979 42.58 76.5359 42.8343C76.3319 43.0322 76.1711 43.2703 76.0639 43.5336C75.9567 43.7968 75.9054 44.0795 75.9133 44.3637C75.9166 44.4788 75.9174 44.5964 75.9158 44.7157C75.9158 44.7712 75.9149 44.8275 75.9141 44.8838H76.7426C76.7786 44.8837 76.8144 44.8879 76.8494 44.8964C76.9505 44.9206 77.0405 44.9781 77.105 45.0596C77.1695 45.1412 77.2046 45.242 77.2048 45.346V49.2551C77.2611 49.271 77.3174 49.287 77.3729 49.3038C77.3905 49.3097 77.4073 49.3147 77.4241 49.3198C77.4434 49.3257 77.4628 49.3315 77.4813 49.3374C77.6518 49.3904 77.8185 49.4464 77.9812 49.5055H78.2552C78.3062 49.5055 78.3555 49.5242 78.3939 49.5579C78.4322 49.5916 78.457 49.638 78.4636 49.6887C78.5207 49.7113 78.5762 49.734 78.6308 49.7567C78.8249 49.8374 79.0089 49.9181 79.1778 49.9962C79.4056 50.1004 79.6081 50.1996 79.7778 50.2861C79.8312 50.3133 79.8902 50.3277 79.9501 50.3281C80.0287 50.3279 80.1053 50.3026 80.1686 50.2559C80.1817 50.2462 80.1943 50.2358 80.2063 50.2248C80.2513 50.1826 80.2853 50.1301 80.3054 50.0718C80.3254 50.0135 80.331 49.9512 80.3215 49.8903C80.2347 49.2303 80.2094 48.5636 80.2459 47.8988C80.2694 47.34 80.3198 46.7669 80.3854 46.2132C80.4207 45.9132 80.4601 45.6191 80.5013 45.3359C80.5408 45.0653 80.5828 44.8057 80.624 44.5603C80.678 44.2491 80.6601 43.9298 80.5715 43.6267C80.4829 43.3235 80.3261 43.0447 80.1131 42.8116Z" fill="#7F52DD"/>
<path d="M76.6687 42.8808C76.6256 42.8623 76.5813 42.8469 76.536 42.8346C76.312 42.7743 76.0739 42.7966 75.865 42.8973C75.6561 42.9981 75.4904 43.1706 75.3982 43.3833L74.8209 44.716L74.7487 44.8841H76.7427C76.7786 44.884 76.8145 44.8882 76.8494 44.8967L76.9166 44.7412L77.1721 44.1513C77.2735 43.9161 77.2775 43.6502 77.1831 43.412C77.0888 43.1738 76.9038 42.9828 76.6687 42.8808Z" fill="#7F52DD"/>
<path d="M78.4616 41.4875C79.6014 41.4875 80.5254 40.5635 80.5254 39.4236C80.5254 38.2838 79.6014 37.3597 78.4616 37.3597C77.3217 37.3597 76.3977 38.2838 76.3977 39.4236C76.3977 40.5635 77.3217 41.4875 78.4616 41.4875Z" fill="#FFB8B8"/>
<path d="M76.3607 38.4099C77.3383 39.0066 78.4404 39.3698 79.5813 39.471L79.2418 39.0643C79.489 39.1557 79.7491 39.2073 80.0124 39.2173C80.2755 39.2132 80.5511 39.1119 80.7004 38.8953C80.7669 38.7876 80.8065 38.6655 80.8156 38.5392C80.8248 38.4129 80.8033 38.2863 80.7529 38.1702C80.6494 37.9385 80.4884 37.7372 80.2852 37.5853C79.9249 37.3003 79.4996 37.1089 79.0474 37.0281C78.5952 36.9472 78.13 36.9795 77.6933 37.1221C77.3937 37.2116 77.1254 37.3837 76.9192 37.6187C76.7235 37.86 76.3468 38.0751 76.447 38.3692L76.3607 38.4099Z" fill="#2F2E41"/>
<path d="M78.8088 36.7441C78.1578 36.084 77.3701 35.5746 76.5011 35.2518C75.9432 35.0451 75.336 34.9174 74.7528 35.0348C74.1696 35.1521 73.618 35.5556 73.4553 36.1278C73.3223 36.5957 73.4597 37.0995 73.6661 37.54C73.8726 37.9805 74.1483 38.3889 74.3152 38.8458C74.4856 39.312 74.5368 39.8134 74.4643 40.3044C74.3918 40.7954 74.1977 41.2606 73.8998 41.6576C73.6019 42.0546 73.2096 42.3709 72.7584 42.5779C72.3072 42.7848 71.8115 42.8758 71.3163 42.8425C71.8893 42.9193 72.4175 43.1886 72.9776 43.332C73.5377 43.4753 74.1988 43.4656 74.6151 43.0643C75.0555 42.6398 75.0643 41.9495 75.043 41.3381C75.0113 40.4293 74.9797 39.5205 74.948 38.6117C74.9319 38.1483 74.9181 37.67 75.0852 37.2374C75.2524 36.8048 75.6496 36.426 76.1133 36.4299C76.4648 36.4329 76.7759 36.6458 77.0577 36.8558C77.3396 37.0658 77.6379 37.2898 77.988 37.321C78.3381 37.3523 78.7378 37.0932 78.7116 36.7427L78.8088 36.7441Z" fill="#2F2E41"/>
<path d="M80.5013 45.3359L79.3232 45.3678L79.2375 46.1955L79.2182 46.3871L77.3729 47.2156L77.2048 47.2912V48.7643L77.3729 48.7164L77.904 48.5651H77.9065L80.2459 47.8988L80.2728 47.8912C80.4618 47.8366 80.6282 47.7225 80.7472 47.5658C80.8662 47.4092 80.9314 47.2183 80.9333 47.0215L80.9391 46.0442L80.9442 45.3241L80.5013 45.3359Z" fill="#FFB8B8"/>
<path d="M80.8845 43.699C80.8688 43.4432 80.7521 43.204 80.5601 43.0342C80.3681 42.8644 80.1164 42.7779 79.8606 42.7936C79.6048 42.8093 79.3656 42.926 79.1958 43.118C79.026 43.31 78.9395 43.5616 78.9552 43.8175L79.0837 45.9149C79.0872 45.9701 79.1028 46.0238 79.1294 46.0723C79.1559 46.1208 79.1929 46.1629 79.2375 46.1955C79.3085 46.2485 79.3961 46.2744 79.4846 46.2687L80.3854 46.2132L80.6585 46.1964C80.7082 46.1939 80.7569 46.1814 80.8017 46.1596C80.8465 46.1378 80.8864 46.1072 80.919 46.0695C80.9262 46.0615 80.9329 46.0531 80.9391 46.0443C80.9925 45.9728 81.0187 45.8846 81.0131 45.7956L80.8845 43.699Z" fill="#7F52DD"/>
<path d="M77.4813 49.3375H77.3729V49.3265C77.3175 49.3341 77.2612 49.3417 77.2049 49.3501V49.5055H77.9813C77.8183 49.4467 77.6516 49.3907 77.4813 49.3375ZM77.4813 49.3375H77.3729V49.3265C77.3175 49.3341 77.2612 49.3417 77.2049 49.3501V49.5055H77.9813C77.8183 49.4467 77.6516 49.3907 77.4813 49.3375ZM78.2553 49.3375H77.3729V45.3461C77.3726 45.2094 77.328 45.0765 77.2457 44.9674C77.1634 44.8583 77.0479 44.7789 76.9166 44.741C76.8602 44.724 76.8016 44.7155 76.7427 44.7158H69.264C69.0969 44.716 68.9367 44.7825 68.8186 44.9006C68.7005 45.0188 68.634 45.179 68.6338 45.3461V49.4635C68.6338 49.6306 68.7003 49.7909 68.8184 49.9091C68.9366 50.0273 69.0969 50.0937 69.264 50.0937H78.2553C78.3483 50.0936 78.4381 50.0591 78.5074 49.997C78.5767 49.9348 78.6206 49.8493 78.6308 49.7568C78.6326 49.7431 78.6334 49.7294 78.6334 49.7156C78.6332 49.6154 78.5933 49.5193 78.5225 49.4484C78.4516 49.3775 78.3555 49.3376 78.2553 49.3375ZM78.4653 49.7156C78.4653 49.7713 78.4432 49.8247 78.4038 49.8641C78.3644 49.9035 78.311 49.9257 78.2553 49.9257H69.264C69.1415 49.9256 69.024 49.8769 68.9373 49.7902C68.8506 49.7036 68.8019 49.5861 68.8018 49.4635V45.3461C68.8019 45.2235 68.8506 45.106 68.9373 45.0193C69.024 44.9327 69.1415 44.884 69.264 44.8839H76.7427C76.7787 44.8838 76.8145 44.888 76.8494 44.8965C76.9505 44.9207 77.0406 44.9781 77.1051 45.0597C77.1695 45.1412 77.2047 45.2421 77.2049 45.3461V49.5055H78.2553C78.3063 49.5056 78.3556 49.5242 78.3939 49.5579C78.4323 49.5916 78.457 49.6381 78.4636 49.6887C78.4645 49.698 78.4653 49.7064 78.4653 49.7156ZM77.4813 49.3375H77.3729V49.3265C77.3175 49.3341 77.2612 49.3417 77.2049 49.3501V49.5055H77.9813C77.8183 49.4467 77.6516 49.3907 77.4813 49.3375Z" fill="#3F3D56"/>
<path d="M73.003 47.9091C73.2814 47.9091 73.5071 47.6834 73.5071 47.4049C73.5071 47.1265 73.2814 46.9008 73.003 46.9008C72.7245 46.9008 72.4988 47.1265 72.4988 47.4049C72.4988 47.6834 72.7245 47.9091 73.003 47.9091Z" fill="#7F52DD"/>
<path d="M27.9697 5.99707C27.9679 6.03546 27.969 6.07394 27.9732 6.11215L25.3345 8.32669L24.5476 8.04178L23.9624 9.17314L25.6828 9.99205L28.5675 6.75489C28.7132 6.78131 28.8635 6.76277 28.9983 6.70171C29.1332 6.64066 29.2463 6.53999 29.3226 6.4131C29.3988 6.28621 29.4346 6.13911 29.4253 5.99137C29.4159 5.84362 29.3618 5.70223 29.2701 5.586C29.1784 5.46976 29.0535 5.3842 28.912 5.34068C28.7705 5.29716 28.6191 5.29776 28.4779 5.34238C28.3368 5.387 28.2125 5.47354 28.1218 5.59049C28.031 5.70744 27.978 5.84925 27.9697 5.99707L27.9697 5.99707Z" fill="#FFB8B8"/>
<path d="M24.431 9.71607L21.8829 8.79633C21.649 8.7119 21.4582 8.53799 21.3525 8.31287C21.2468 8.08775 21.2348 7.82986 21.3192 7.59593C21.4037 7.362 21.5776 7.17119 21.8027 7.06548C22.0278 6.95977 22.2857 6.94783 22.5197 7.03226L25.0678 7.952C25.1064 7.96593 25.1419 7.98733 25.1722 8.01498C25.2025 8.04263 25.2271 8.07598 25.2446 8.11313C25.262 8.15028 25.272 8.19051 25.2739 8.23151C25.2758 8.27251 25.2696 8.31349 25.2556 8.35209L24.8312 9.52818C24.8029 9.60609 24.7449 9.66961 24.6699 9.70484C24.5949 9.74006 24.509 9.7441 24.431 9.71607V9.71607Z" fill="#CCCCCC"/>
<path d="M22.5649 18.6758L23.4164 18.6757L23.8215 15.391L22.5647 15.3911L22.5649 18.6758Z" fill="#FFB8B8"/>
<path d="M25.0587 19.4667L22.3823 19.4668L22.3823 18.4327L24.0246 18.4327C24.2989 18.4326 24.5619 18.5416 24.7558 18.7355C24.9497 18.9294 25.0587 19.1924 25.0587 19.4667L25.0587 19.4667Z" fill="#2F2E41"/>
<path d="M20.4601 17.5757L21.1567 18.0656L23.3775 15.6116L22.3493 14.8888L20.4601 17.5757Z" fill="#FFB8B8"/>
<path d="M21.9613 19.4891L19.7719 17.9498L20.3666 17.1038L21.7101 18.0485C21.9345 18.2062 22.087 18.4466 22.1341 18.7168C22.1812 18.987 22.119 19.2648 21.9613 19.4891L21.9613 19.4891Z" fill="#2F2E41"/>
<path d="M24.4279 12.7588C24.4279 12.7588 26.5531 12.5081 26.1716 13.8871C25.7902 15.2662 21.5398 16.4572 21.5398 16.4572L24.4279 12.7588Z" fill="#FFB8B8"/>
<path d="M22.9652 5.7223C23.9074 5.7223 24.6713 4.95847 24.6713 4.01624C24.6713 3.07401 23.9074 2.31018 22.9652 2.31018C22.023 2.31018 21.2592 3.07401 21.2592 4.01624C21.2592 4.95847 22.023 5.7223 22.9652 5.7223Z" fill="#FFB8B8"/>
<path d="M17.5246 16.1749C16.5539 15.0445 16.2142 13.3096 17.7623 11.8667C18.1446 11.5191 18.5776 11.2316 19.0463 11.0141L20.294 7.52468C20.4236 7.1603 20.6612 6.8441 20.9752 6.61827C21.2891 6.39244 21.6645 6.26771 22.0512 6.26073C22.4266 6.24452 22.7978 6.34494 23.1139 6.54821C23.43 6.75147 23.6753 7.0476 23.8163 7.39593C23.9687 7.7503 23.9862 8.14818 23.8654 8.51452C23.4939 9.67121 23.0062 10.7873 22.4095 11.8455L22.474 12.3617L25.6278 12.642L25.5984 12.6898C25.5831 12.7147 24.0395 15.0665 22.065 16.6275C21.3898 17.1612 20.6916 17.3824 20.0327 17.3823C19.0335 17.3823 18.1247 16.8736 17.5246 16.1749Z" fill="#CCCCCC"/>
<path d="M17.2269 4.55137C17.5287 4.1917 17.6582 3.72126 17.7623 3.26343C17.9271 2.53902 18.0546 1.78996 18.4207 1.1435C18.7868 0.497057 19.4596 -0.0385883 20.2014 0.00218405C20.9389 0.0427236 21.5352 0.63612 21.8517 1.31129C21.9284 1.28152 22.0104 1.26818 22.0926 1.27214C22.1747 1.2761 22.2551 1.29727 22.3285 1.33427C22.5566 1.4592 22.6419 1.81428 22.452 1.99203C22.6517 1.89693 22.8692 1.84494 23.0904 1.83942C23.3115 1.83391 23.5313 1.875 23.7355 1.96003C23.9981 2.07182 24.2248 2.25388 24.3906 2.48617C24.5564 2.71845 24.6549 2.99198 24.6753 3.27664C24.6832 3.39218 24.6674 3.50812 24.6287 3.61728C24.59 3.72643 24.5293 3.82649 24.4504 3.91123C24.1231 4.24821 23.6601 4.13197 23.2484 4.04613C22.8596 3.96505 22.386 3.94316 22.167 4.31362C22.0807 4.46799 22.0565 4.64948 22.0994 4.82106C22.1833 5.19088 22.4572 5.44848 22.7228 5.69502L22.7662 5.77573C21.8283 5.95862 20.8041 5.31808 20.5581 4.39473C20.3121 3.47138 20.8817 2.40615 21.7863 2.09812C21.7261 2.1 21.6665 2.08576 21.6136 2.05689C21.5608 2.02802 21.5166 1.98556 21.4856 1.93389C21.4547 1.88223 21.4381 1.82323 21.4375 1.763C21.437 1.70277 21.4526 1.64349 21.4826 1.59129C21.2322 1.45102 20.9489 1.38032 20.6619 1.38653C20.1947 1.41719 19.7903 1.74979 19.5472 2.14994C19.304 2.55011 19.1939 3.01457 19.0823 3.46934C18.9708 3.92411 18.8501 4.38758 18.5901 4.77702C18.41 5.04675 18.1694 5.27065 17.8874 5.43086C17.6054 5.59108 17.2899 5.68316 16.966 5.69978C16.6421 5.71639 16.3188 5.65707 16.0219 5.52655C15.725 5.39603 15.4627 5.19792 15.256 4.94804C15.5827 5.10646 15.9523 5.15345 16.3083 5.0818C16.6642 5.01016 16.9869 4.82384 17.2269 4.55137Z" fill="#2F2E41"/>
<path d="M29.7576 9.20062C31.1272 9.20062 32.2375 8.09033 32.2375 6.72073C32.2375 5.35113 31.1272 4.24084 29.7576 4.24084C28.388 4.24084 27.2777 5.35113 27.2777 6.72073C27.2777 8.09033 28.388 9.20062 29.7576 9.20062Z" fill="#7F52DD"/>
<path d="M29.6811 8.11575C29.6711 8.10575 29.6631 8.09387 29.6577 8.08078C29.6523 8.0677 29.6495 8.05367 29.6495 8.03951V5.29482C29.6495 5.26623 29.6609 5.23881 29.6811 5.21859C29.7013 5.19837 29.7288 5.18701 29.7574 5.18701C29.7859 5.18701 29.8134 5.19837 29.8336 5.21859C29.8538 5.23881 29.8652 5.26623 29.8652 5.29482V8.03951C29.8652 8.06083 29.8588 8.08167 29.847 8.0994C29.8351 8.11713 29.8183 8.13095 29.7986 8.13911C29.7789 8.14727 29.7572 8.14941 29.7363 8.14525C29.7154 8.14109 29.6962 8.13083 29.6811 8.11575H29.6811Z" fill="white"/>
<path d="M28.3089 6.74338C28.2938 6.7283 28.2836 6.70909 28.2794 6.68817C28.2753 6.66726 28.2774 6.64558 28.2856 6.62588C28.2937 6.60618 28.3075 6.58935 28.3253 6.5775C28.343 6.56565 28.3638 6.55933 28.3852 6.55933H31.1298C31.1584 6.55933 31.1859 6.57069 31.2061 6.5909C31.2263 6.61112 31.2377 6.63855 31.2377 6.66714C31.2377 6.69573 31.2263 6.72315 31.2061 6.74337C31.1859 6.76359 31.1584 6.77495 31.1298 6.77495H28.3852C28.371 6.77497 28.357 6.77219 28.3439 6.76678C28.3308 6.76136 28.3189 6.75341 28.3089 6.74338Z" fill="white"/>
<path d="M28.0554 8.3795C28.0374 8.41345 28.0221 8.44877 28.0096 8.48514L24.6799 9.36812L24.0887 8.77578L23.0781 9.55112L24.2873 11.0236L28.2744 9.31954C28.395 9.40537 28.5389 9.45245 28.687 9.45451C28.835 9.45657 28.9802 9.41351 29.1031 9.33107C29.2261 9.24863 29.321 9.13071 29.3753 8.99299C29.4297 8.85527 29.4408 8.70427 29.4072 8.56009C29.3736 8.41591 29.2969 8.28537 29.1873 8.18583C29.0777 8.0863 28.9404 8.02249 28.7937 8.00288C28.6469 7.98328 28.4977 8.00881 28.3658 8.07608C28.2339 8.14336 28.1257 8.24918 28.0554 8.37949L28.0554 8.3795Z" fill="#FFB8B8"/>
<path d="M23.2714 10.2414L21.3559 8.32582C21.2685 8.23879 21.1992 8.13541 21.1519 8.02157C21.1046 7.90774 21.0802 7.78569 21.0801 7.66241C21.08 7.53913 21.1042 7.41704 21.1513 7.30312C21.1984 7.18921 21.2676 7.0857 21.3547 6.99853C21.4419 6.91136 21.5454 6.84223 21.6593 6.7951C21.7732 6.74798 21.8953 6.72377 22.0186 6.72388C22.1419 6.72398 22.2639 6.74839 22.3778 6.79572C22.4916 6.84304 22.595 6.91235 22.682 6.99967L24.5976 8.91523C24.6266 8.94425 24.6496 8.97871 24.6653 9.01663C24.681 9.05455 24.6891 9.09519 24.6891 9.13624C24.6891 9.17728 24.681 9.21793 24.6653 9.25585C24.6496 9.29377 24.6266 9.32822 24.5976 9.35724L23.7135 10.2414C23.6548 10.2999 23.5753 10.3328 23.4924 10.3328C23.4096 10.3328 23.3301 10.2999 23.2714 10.2414V10.2414Z" fill="#CCCCCC"/>
</g>
<defs>
<clipPath id="clip0">
<rect width="82.9873" height="60" rx="5" fill="white"/>
</clipPath>
</defs>
</svg>
