<svg width="75" height="51" viewBox="0 0 75 51" fill="none" xmlns="http://www.w3.org/2000/svg">
<g clip-path="url(#clip0)">
<path d="M10.4612 50.0282C16.2388 50.0282 20.9224 45.3446 20.9224 39.567C20.9224 33.7895 16.2388 29.1058 10.4612 29.1058C4.68364 29.1058 0 33.7895 0 39.567C0 45.3446 4.68364 50.0282 10.4612 50.0282Z" fill="#F2F2F2"/>
<path d="M23.1159 44.207C18.0021 44.207 13.0465 42.4339 9.0935 39.1898C5.14049 35.9456 2.43463 31.4312 1.43697 26.4157C0.439305 21.4002 1.21157 16.1939 3.62218 11.6839C6.03279 7.17398 9.93259 3.6394 14.6571 1.68243C19.3816 -0.274535 24.6385 -0.532798 29.5321 0.951648C34.4257 2.43609 38.6532 5.5714 41.4942 9.82335C44.3353 14.0753 45.6142 19.1808 45.1129 24.27C44.6117 29.3591 42.3614 34.117 38.7454 37.733C36.6977 39.792 34.2619 41.4243 31.5791 42.5356C28.8963 43.6468 26.0197 44.2149 23.1159 44.207ZM23.1159 0.168719C11.021 0.168719 1.18112 10.0086 1.18112 22.1035C1.18112 34.1984 11.021 44.0383 23.1159 44.0383C35.2107 44.0383 45.0506 34.1984 45.0506 22.1035C45.0506 10.0086 35.2107 0.168719 23.1159 0.168719Z" fill="#2F2E41"/>
<path d="M34.6316 29.0998L34.6292 29.1011L23.735 35.1673L11.8057 29.2026L11.6001 29.0998L12.2192 16.7173L22.992 9.04016L23.1109 9.11448L34.2602 16.0982L34.6316 29.0998Z" fill="#7F52DD"/>
<path opacity="0.3" d="M34.6292 29.1011L23.735 35.1673L11.8057 29.2026L22.3729 21.7942L34.6292 29.1011Z" fill="black"/>
<path opacity="0.1" d="M34.6315 29.0995L22.3728 21.7939L23.1108 9.11414L34.2601 16.0979L34.6315 29.0995Z" fill="black"/>
<path d="M12.0605 20.538L12 20.4523L22.8931 12.7635L34.4001 19.9781L34.3444 20.067L22.8965 12.8895L12.0605 20.538Z" fill="#F2F2F2"/>
<path d="M11.8494 24.7446L11.7905 24.6578L22.6283 17.2998L22.6567 17.3159L34.4098 23.977L34.358 24.0683L22.6333 17.4232L11.8494 24.7446Z" fill="#F2F2F2"/>
<path d="M15.9847 31.3229L15.9294 31.2337L26.8521 24.4656V11.4907H26.957V24.524L15.9847 31.3229Z" fill="#F2F2F2"/>
<path d="M20.2718 33.4661L20.2161 33.3773L30.7333 26.7806V13.9218H30.8382V26.8387L20.2718 33.4661Z" fill="#F2F2F2"/>
<path d="M30.6935 31.3238L18.4619 24.5277L18.4636 24.495L19.1075 11.7679L19.2123 11.7733L18.57 24.4677L30.7445 31.2321L30.6935 31.3238Z" fill="#F2F2F2"/>
<path d="M26.8455 33.4678L14.7512 27.1299L14.7531 27.0963L15.4661 14.3629L15.5708 14.3688L14.8598 27.0684L26.8942 33.3749L26.8455 33.4678Z" fill="#F2F2F2"/>
<path d="M36.6984 9.02702C39.0281 9.02702 40.9166 7.13846 40.9166 4.8088C40.9166 2.47914 39.0281 0.590576 36.6984 0.590576C34.3688 0.590576 32.4802 2.47914 32.4802 4.8088C32.4802 7.13846 34.3688 9.02702 36.6984 9.02702Z" fill="#3F3D56"/>
<path d="M74.9999 49.8594H2.44653V50.0281H74.9999V49.8594Z" fill="#2F2E41"/>
<path d="M66.5767 27.1696L67.5409 29.8107C67.5409 29.8107 66.5347 32.829 67.5409 32.9129C68.547 32.9967 68.6727 30.0203 68.6727 30.0203L68.1278 26.8342L66.5767 27.1696Z" fill="#FFB9B9"/>
<path d="M67.0377 18.5341L67.7503 19.2467V22.6424C67.7503 22.6424 68.1695 23.2712 68.0857 23.4389C68.0019 23.6066 67.918 23.6066 68.0019 23.7323C68.0857 23.8581 68.1695 23.942 68.0857 24.0258C68.0449 24.0802 68.0228 24.1464 68.0228 24.2144C68.0228 24.2825 68.0449 24.3487 68.0857 24.4031C68.1695 24.4869 68.3372 24.6127 68.2115 24.7385C68.0857 24.8642 67.918 24.7804 68.0857 25.2415C68.2534 25.7027 68.5468 25.8284 68.463 25.9961C68.3792 26.1638 68.3792 26.583 68.3792 26.583L66.5765 26.8346L66.1992 22.0974L67.0377 18.5341Z" fill="#D0CDE1"/>
<path d="M68.463 26.541L66.3669 26.6248L66.4508 27.5052L68.2954 27.1698L68.463 26.541Z" fill="#3F3D56"/>
<path d="M62.6988 14.153L62.4473 16.6683L65.0045 17.0456L65.1931 15.5993L65.3818 14.153H62.6988Z" fill="#FFB9B9"/>
<path opacity="0.1" d="M62.6988 14.153L62.4473 16.6683L65.0045 17.0456L65.1931 15.5993L65.3818 14.153H62.6988Z" fill="black"/>
<path d="M57.1443 26.1217L58.5696 29.182C58.5696 29.182 58.8211 30.6073 59.1984 30.6492C59.5757 30.6911 59.953 29.182 59.953 29.182L59.45 28.3855L58.8631 26.1217L57.1443 26.1217Z" fill="#FFB9B9"/>
<path d="M60.1208 28.8887L58.947 30.7333C58.947 30.7333 57.8151 48.2984 57.9828 48.1727C58.1505 48.0469 58.6954 48.005 58.905 47.6696C59.1146 47.3342 60.4142 47.6696 60.4142 47.6696L61.1688 46.8731V46.2443C61.1688 46.1185 62.678 36.5185 62.678 36.5185V38.9499C62.678 38.9499 62.2168 47.8792 62.9714 47.7954C63.726 47.7115 65.2771 47.2085 65.2771 47.2085C65.2771 47.2085 67.499 30.5237 66.8282 29.8949C66.1575 29.266 65.864 27.8407 65.864 27.8407L60.1208 28.8887Z" fill="#2F2E41"/>
<path d="M64.1033 14.9708C65.2146 14.9708 66.1155 14.0698 66.1155 12.9585C66.1155 11.8472 65.2146 10.9463 64.1033 10.9463C62.992 10.9463 62.0911 11.8472 62.0911 12.9585C62.0911 14.0698 62.992 14.9708 64.1033 14.9708Z" fill="#FFB9B9"/>
<path d="M59.6175 17.0667L59.324 16.899C59.324 16.899 58.0245 17.7794 57.6053 19.7497C57.1861 21.72 56.8926 22.2231 56.8926 22.2231C56.8926 22.2231 56.4734 22.3069 56.7669 22.6004C57.0603 22.8938 57.0603 22.8519 56.8088 23.0196C56.5573 23.1873 56.3896 22.8519 56.5572 23.1873C56.7249 23.5227 56.9345 23.4388 56.7669 23.6484C56.5992 23.858 56.3057 23.858 56.4734 24.0257C56.6411 24.1934 56.3057 24.5707 56.5153 24.7384C56.7249 24.9061 56.8088 24.948 56.8088 25.2414C56.8075 25.4127 56.8359 25.5829 56.8926 25.7445H59.0725C59.0725 25.7445 58.6533 24.948 58.7791 24.7803C58.9048 24.6126 58.9468 24.4449 58.8629 24.3611C58.7791 24.2772 58.5275 24.4449 58.7791 24.2353C59.0306 24.0257 59.1144 24.1515 59.0306 23.8999C58.9468 23.6484 58.7791 23.7742 58.9467 23.6484C59.1144 23.5227 59.2402 23.5646 59.1564 23.4388C59.0725 23.313 58.9048 23.313 59.0725 23.2292C59.2402 23.1454 59.366 23.2292 59.324 23.0196C59.2821 22.81 59.2402 22.8938 59.324 22.81C59.4079 22.7261 60.2882 19.8755 60.2882 19.7916C60.2882 19.7078 59.6175 17.0667 59.6175 17.0667Z" fill="#D0CDE1"/>
<path d="M59.1985 25.5765L56.5574 25.7442L57.2282 26.3731L59.0727 26.415L59.1985 25.5765Z" fill="#3F3D56"/>
<path d="M59.9529 28.7208L59.408 29.727C59.408 29.727 61.0429 29.9366 61.6298 30.1462C62.2167 30.3558 63.7259 30.6492 63.7259 30.6492L64.1032 29.182L59.9529 28.7208Z" fill="#3F3D56"/>
<path d="M64.7319 29.1819L65.1931 30.5653L67.0377 30.188L66.828 28.8884L64.7319 29.1819Z" fill="#3F3D56"/>
<path d="M65.4867 15.6416C65.4867 15.6416 65.3609 15.5578 65.0675 15.7255C64.774 15.8931 63.8098 15.977 63.3487 15.4739C62.8875 14.9709 62.5522 14.5517 62.4264 14.6355C62.3006 14.7193 62.2168 15.6835 62.2168 15.6835L61.7976 16.0189L59.3242 16.8993L59.5338 22.5587L59.9111 23.8582C59.9111 23.8582 59.6177 24.8644 59.995 25.4513C60.3723 26.0382 59.7854 26.2478 59.7854 26.2478C59.7854 26.2478 59.6596 26.4155 59.7434 26.8347C59.8273 27.2539 59.6596 28.805 59.6596 28.805C59.6596 28.805 63.2229 30.398 66.9539 29.0146L66.5347 27.4216L66.3251 23.8582C66.3251 23.8582 66.5347 23.2713 66.4928 23.0198C66.4509 22.7683 67.7504 19.2469 67.7504 19.2469C67.7504 19.2469 67.5408 17.4862 66.4509 17.1089C65.3609 16.7316 65.1932 16.3543 65.1932 16.3543C65.1932 16.3543 65.6963 15.8093 65.4867 15.6416Z" fill="#D0CDE1"/>
<path d="M62.0769 13.216C62.0769 13.216 61.868 12.9026 61.9483 12.565C61.9964 12.3734 62.0153 12.1756 62.0046 11.9783C62.0945 11.6859 62.2074 11.4011 62.3421 11.1264C62.5109 10.821 62.4305 10.6924 62.961 10.596C63.4914 10.4996 63.2744 9.80838 64.6729 10.5558C64.72 10.6217 64.7857 10.6721 64.8615 10.7007C64.9373 10.7293 65.0199 10.7348 65.0988 10.7165C65.3881 10.6603 65.4926 11.0621 65.4926 11.0621C65.4926 11.0621 65.6855 10.9496 65.7578 11.1104C65.8302 11.2711 66.3459 11.0139 66.3459 12.0989C66.3459 13.1839 65.759 14.153 65.759 14.153C65.759 14.153 65.802 12.328 64.8456 12.1431C63.8892 11.9583 62.8605 11.4198 62.6114 12.111C62.4769 12.4989 62.2975 12.8698 62.0769 13.216Z" fill="#2F2E41"/>
<path d="M65.78 13.65C65.8841 13.65 65.9686 13.5374 65.9686 13.3985C65.9686 13.2596 65.8841 13.147 65.78 13.147C65.6758 13.147 65.5913 13.2596 65.5913 13.3985C65.5913 13.5374 65.6758 13.65 65.78 13.65Z" fill="#FFB9B9"/>
<path d="M64.711 47.0598L65.0058 47.9443C65.0058 47.9443 65.0058 48.8288 65.3007 49.271C65.5955 49.7133 65.8903 50.6714 64.711 50.7452C63.5317 50.8189 63.0158 50.3766 63.0158 50.3766C63.0158 50.3766 63.2369 49.787 63.0158 49.5658C62.7946 49.3447 63.0158 48.9025 63.0158 48.9025L63.2369 47.1335L64.711 47.0598Z" fill="#2F2E41"/>
<path d="M58.9679 47.0598L58.673 47.9443C58.673 47.9443 58.673 48.8288 58.3782 49.271C58.0834 49.7133 57.7886 50.6714 58.9679 50.7452C60.1472 50.8189 60.6631 50.3766 60.6631 50.3766C60.6631 50.3766 60.442 49.787 60.6631 49.5658C60.8842 49.3447 60.6631 48.9025 60.6631 48.9025L60.442 47.1335L58.9679 47.0598Z" fill="#2F2E41"/>
</g>
<defs>
<clipPath id="clip0">
<rect width="75" height="50.7534" fill="white"/>
</clipPath>
</defs>
</svg>
