<svg width="177" height="120" viewBox="0 0 177 120" fill="none" xmlns="http://www.w3.org/2000/svg">
<g clip-path="url(#clip0)">
<path d="M25.1729 117.325C38.7032 117.325 49.6716 106.356 49.6716 92.826C49.6716 79.2958 38.7032 68.3274 25.1729 68.3274C11.6427 68.3274 0.674316 79.2958 0.674316 92.826C0.674316 106.356 11.6427 117.325 25.1729 117.325Z" fill="#F2F2F2"/>
<path d="M54.8084 103.692C42.8326 103.692 31.2274 99.5399 21.97 91.9426C12.7126 84.3453 6.37585 73.7731 4.03946 62.0275C1.70308 50.2819 3.51162 38.0895 9.15693 27.5278C14.8022 16.9661 23.935 8.68864 34.9991 4.10571C46.0633 -0.477231 58.3742 -1.08205 69.8343 2.39431C81.2943 5.87068 91.1945 13.2131 97.8479 23.1706C104.501 33.128 107.496 45.0844 106.322 57.0025C105.149 68.9206 99.8786 80.063 91.4105 88.5311C86.615 93.3528 80.9108 97.1755 74.6281 99.7779C68.3453 102.38 61.6088 103.711 54.8084 103.692ZM54.8084 0.560808C26.484 0.560808 3.44031 23.6044 3.44031 51.9289C3.44031 80.2534 26.484 103.297 54.8084 103.297C83.1328 103.297 106.176 80.2534 106.176 51.9289C106.176 23.6044 83.1328 0.560808 54.8084 0.560808Z" fill="white"/>
<path d="M81.7767 68.3134L81.7709 68.3164L56.2584 82.5225L28.3215 68.5541L27.8401 68.3134L29.29 39.3153L54.5184 21.3364L54.7969 21.5105L80.9068 37.8654L81.7767 68.3134Z" fill="#EDE04B"/>
<path opacity="0.3" d="M81.7708 68.3162L56.2583 82.5224L28.3214 68.554L53.0684 51.2045L81.7708 68.3162Z" fill="black"/>
<path opacity="0.1" d="M81.7764 68.3126L53.0682 51.2038L54.7966 21.5096L80.9065 37.8646L81.7764 68.3126Z" fill="black"/>
<path d="M28.9186 48.2629L28.7768 48.0622L54.2868 30.0562L81.2346 46.9516L81.1041 47.1598L54.2948 30.3512L28.9186 48.2629Z" fill="#F2F2F2"/>
<path d="M28.4242 58.1141L28.2863 57.9109L53.6668 40.6794L53.7333 40.7172L81.2574 56.3166L81.136 56.5303L53.6785 40.9685L28.4242 58.1141Z" fill="#F2F2F2"/>
<path d="M38.1081 73.5195L37.9787 73.3107L63.5581 57.4607V27.0754H63.8037V57.5975L38.1081 73.5195Z" fill="#F2F2F2"/>
<path d="M48.148 78.5385L48.0175 78.3304L72.6473 62.8821V32.7684H72.893V63.0181L48.148 78.5385Z" fill="#F2F2F2"/>
<path d="M72.5545 73.5215L43.9098 57.606L43.9138 57.5294L45.4218 27.7245L45.6671 27.737L44.163 57.4654L72.6739 73.3067L72.5545 73.5215Z" fill="#F2F2F2"/>
<path d="M63.5424 78.5426L35.2194 63.7002L35.2238 63.6213L36.8934 33.8016L37.1387 33.8154L35.4736 63.5561L63.6565 78.325L63.5424 78.5426Z" fill="#F2F2F2"/>
<path d="M86.6168 21.3057C92.0726 21.3057 96.4953 16.8829 96.4953 11.4272C96.4953 5.97145 92.0726 1.54871 86.6168 1.54871C81.1611 1.54871 76.7384 5.97145 76.7384 11.4272C76.7384 16.8829 81.1611 21.3057 86.6168 21.3057Z" fill="white"/>
<path d="M176.313 116.929H6.40375V117.325H176.313V116.929Z" fill="#2F2E41"/>
<path d="M156.587 63.7931L158.845 69.9781C158.845 69.9781 156.489 77.0467 158.845 77.243C161.201 77.4394 161.496 70.469 161.496 70.469L160.219 63.0077L156.587 63.7931Z" fill="#FFB9B9"/>
<path d="M157.667 43.5698L159.336 45.2388V53.1909C159.336 53.1909 160.318 54.6636 160.121 55.0563C159.925 55.449 159.729 55.449 159.925 55.7435C160.121 56.038 160.318 56.2344 160.121 56.4307C160.026 56.5582 159.974 56.7132 159.974 56.8725C159.974 57.0318 160.026 57.1868 160.121 57.3143C160.318 57.5106 160.711 57.8051 160.416 58.0997C160.121 58.3942 159.729 58.1978 160.121 59.2778C160.514 60.3577 161.201 60.6522 161.005 61.0449C160.809 61.4376 160.809 62.4194 160.809 62.4194L156.587 63.0084L155.704 51.9147L157.667 43.5698Z" fill="#D0CDE1"/>
<path d="M161.005 62.321L156.096 62.5173L156.293 64.579L160.613 63.7935L161.005 62.321Z" fill="#3F3D56"/>
<path d="M147.506 33.3099L146.917 39.2006L152.906 40.084L153.347 36.697L153.789 33.3099H147.506Z" fill="#FFB9B9"/>
<path opacity="0.1" d="M147.506 33.3099L146.917 39.2006L152.906 40.084L153.347 36.697L153.789 33.3099H147.506Z" fill="black"/>
<path d="M134.498 61.339L137.836 68.5057C137.836 68.5057 138.425 71.8436 139.308 71.9418C140.192 72.0399 141.076 68.5057 141.076 68.5057L139.898 66.6404L138.523 61.339L134.498 61.339Z" fill="#FFB9B9"/>
<path d="M141.468 67.8191L138.719 72.1388C138.719 72.1388 136.069 113.274 136.461 112.979C136.854 112.685 138.13 112.587 138.621 111.801C139.112 111.016 142.156 111.801 142.156 111.801L143.923 109.936V108.463C143.923 108.169 147.457 85.6868 147.457 85.6868V91.3809C147.457 91.3809 146.377 112.292 148.144 112.096C149.911 111.899 153.544 110.721 153.544 110.721C153.544 110.721 158.747 71.6479 157.176 70.1753C155.605 68.7027 154.918 65.3647 154.918 65.3647L141.468 67.8191Z" fill="#2F2E41"/>
<path d="M150.795 35.2251C153.397 35.2251 155.507 33.1153 155.507 30.5128C155.507 27.9102 153.397 25.8004 150.795 25.8004C148.192 25.8004 146.083 27.9102 146.083 30.5128C146.083 33.1153 148.192 35.2251 150.795 35.2251Z" fill="#FFB9B9"/>
<path d="M140.29 40.1335L139.603 39.7408C139.603 39.7408 136.56 41.8025 135.578 46.4167C134.596 51.0309 133.909 52.209 133.909 52.209C133.909 52.209 132.927 52.4053 133.615 53.0926C134.302 53.7798 134.302 53.6816 133.713 54.0743C133.124 54.467 132.731 53.6816 133.124 54.467C133.516 55.2524 134.007 55.056 133.615 55.5469C133.222 56.0378 132.535 56.0378 132.927 56.4305C133.32 56.8232 132.535 57.7067 133.025 58.0994C133.516 58.4921 133.713 58.5903 133.713 59.2775C133.71 59.6786 133.776 60.0772 133.909 60.4556H139.014C139.014 60.4556 138.032 58.5903 138.327 58.1976C138.621 57.8049 138.72 57.4122 138.523 57.2159C138.327 57.0195 137.738 57.4122 138.327 56.9213C138.916 56.4305 139.112 56.725 138.916 56.136C138.72 55.5469 138.327 55.8414 138.72 55.5469C139.112 55.2524 139.407 55.3506 139.21 55.056C139.014 54.7615 138.621 54.7615 139.014 54.5652C139.407 54.3688 139.701 54.5652 139.603 54.0743C139.505 53.5834 139.407 53.7798 139.603 53.5834C139.799 53.3871 141.861 46.7112 141.861 46.5149C141.861 46.3185 140.29 40.1335 140.29 40.1335Z" fill="#D0CDE1"/>
<path d="M139.309 60.0624L133.123 60.4551L134.694 61.9278L139.014 62.026L139.309 60.0624Z" fill="#3F3D56"/>
<path d="M141.076 67.4258L139.799 69.782C139.799 69.782 143.628 70.2729 145.003 70.7638C146.377 71.2546 149.911 71.9419 149.911 71.9419L150.795 68.5057L141.076 67.4258Z" fill="#3F3D56"/>
<path d="M152.267 68.5056L153.347 71.7454L157.667 70.8617L157.176 67.8184L152.267 68.5056Z" fill="#3F3D56"/>
<path d="M154.035 36.796C154.035 36.796 153.74 36.5997 153.053 36.9923C152.366 37.385 150.108 37.5814 149.028 36.4033C147.948 35.2252 147.163 34.2435 146.868 34.4398C146.574 34.6362 146.377 36.8942 146.377 36.8942L145.395 37.6796L139.603 39.7412L140.094 52.9948L140.978 56.0382C140.978 56.0382 140.29 58.3944 141.174 59.7688C142.057 61.1432 140.683 61.6341 140.683 61.6341C140.683 61.6341 140.389 62.0268 140.585 63.0085C140.781 63.9903 140.389 67.6227 140.389 67.6227C140.389 67.6227 148.733 71.3534 157.471 68.1136L156.489 64.383L155.998 56.0382C155.998 56.0382 156.489 54.6637 156.391 54.0747C156.293 53.4856 159.336 45.239 159.336 45.239C159.336 45.239 158.845 41.1157 156.293 40.2321C153.74 39.3485 153.348 38.465 153.348 38.465C153.348 38.465 154.526 37.1887 154.035 36.796Z" fill="#D0CDE1"/>
<path d="M146.05 31.1157C146.05 31.1157 145.561 30.3817 145.749 29.5912C145.861 29.1424 145.906 28.6792 145.881 28.2172C146.091 27.5324 146.355 26.8653 146.671 26.2222C147.066 25.507 146.878 25.2058 148.12 24.98C149.362 24.7541 148.854 23.1355 152.129 24.8859C152.24 25.0401 152.393 25.1582 152.571 25.2252C152.748 25.2922 152.942 25.3051 153.127 25.2623C153.804 25.1306 154.049 26.0716 154.049 26.0716C154.049 26.0716 154.501 25.8081 154.67 26.1845C154.839 26.561 156.047 25.9586 156.047 28.4995C156.047 31.0404 154.673 33.31 154.673 33.31C154.673 33.31 154.774 29.036 152.534 28.6031C150.294 28.1702 147.885 26.9092 147.302 28.5278C146.987 29.4363 146.567 30.3048 146.05 31.1157Z" fill="#2F2E41"/>
<path d="M154.722 32.132C154.966 32.132 155.164 31.8683 155.164 31.543C155.164 31.2177 154.966 30.954 154.722 30.954C154.478 30.954 154.28 31.2177 154.28 31.543C154.28 31.8683 154.478 32.132 154.722 32.132Z" fill="#FFB9B9"/>
<path d="M152.219 110.373L152.909 112.444C152.909 112.444 152.909 114.516 153.599 115.551C154.29 116.587 154.98 118.831 152.219 119.004C149.457 119.176 148.248 118.141 148.248 118.141C148.248 118.141 148.766 116.76 148.248 116.242C147.731 115.724 148.248 114.688 148.248 114.688L148.766 110.546L152.219 110.373Z" fill="#2F2E41"/>
<path d="M138.769 110.373L138.078 112.444C138.078 112.444 138.078 114.516 137.388 115.551C136.697 116.587 136.007 118.831 138.769 119.004C141.53 119.176 142.739 118.141 142.739 118.141C142.739 118.141 142.221 116.76 142.739 116.242C143.257 115.724 142.739 114.688 142.739 114.688L142.221 110.546L138.769 110.373Z" fill="#2F2E41"/>
</g>
<defs>
<clipPath id="clip0">
<rect width="175.639" height="118.857" fill="white" transform="translate(0.674316 0.165771)"/>
</clipPath>
</defs>
</svg>
