<svg width="149" height="87" viewBox="0 0 149 87" fill="none" xmlns="http://www.w3.org/2000/svg">
<g clip-path="url(#clip0)">
<path d="M143.929 5.88733C144.591 5.88733 145.127 5.35097 145.127 4.68933C145.127 4.0277 144.591 3.49133 143.929 3.49133C143.268 3.49133 142.731 4.0277 142.731 4.68933C142.731 5.35097 143.268 5.88733 143.929 5.88733Z" fill="#F2F2F2"/>
<path d="M139.155 5.88733C139.816 5.88733 140.353 5.35097 140.353 4.68933C140.353 4.0277 139.816 3.49133 139.155 3.49133C138.493 3.49133 137.957 4.0277 137.957 4.68933C137.957 5.35097 138.493 5.88733 139.155 5.88733Z" fill="#F2F2F2"/>
<path d="M134.38 5.88733C135.042 5.88733 135.578 5.35097 135.578 4.68933C135.578 4.0277 135.042 3.49133 134.38 3.49133C133.719 3.49133 133.182 4.0277 133.182 4.68933C133.182 5.35097 133.719 5.88733 134.38 5.88733Z" fill="#F2F2F2"/>
<path d="M129.606 5.88733C130.267 5.88733 130.804 5.35097 130.804 4.68933C130.804 4.0277 130.267 3.49133 129.606 3.49133C128.944 3.49133 128.408 4.0277 128.408 4.68933C128.408 5.35097 128.944 5.88733 129.606 5.88733Z" fill="#F2F2F2"/>
<path d="M143.929 10.889C144.591 10.889 145.127 10.3527 145.127 9.69104C145.127 9.0294 144.591 8.49304 143.929 8.49304C143.268 8.49304 142.731 9.0294 142.731 9.69104C142.731 10.3527 143.268 10.889 143.929 10.889Z" fill="#F2F2F2"/>
<path d="M139.155 10.889C139.816 10.889 140.353 10.3527 140.353 9.69104C140.353 9.0294 139.816 8.49304 139.155 8.49304C138.493 8.49304 137.957 9.0294 137.957 9.69104C137.957 10.3527 138.493 10.889 139.155 10.889Z" fill="#F2F2F2"/>
<path d="M134.38 10.889C135.042 10.889 135.578 10.3527 135.578 9.69104C135.578 9.0294 135.042 8.49304 134.38 8.49304C133.719 8.49304 133.182 9.0294 133.182 9.69104C133.182 10.3527 133.719 10.889 134.38 10.889Z" fill="#F2F2F2"/>
<path d="M129.606 10.889C130.267 10.889 130.804 10.3527 130.804 9.69104C130.804 9.0294 130.267 8.49304 129.606 8.49304C128.944 8.49304 128.408 9.0294 128.408 9.69104C128.408 10.3527 128.944 10.889 129.606 10.889Z" fill="#F2F2F2"/>
<path d="M143.929 15.8909C144.591 15.8909 145.127 15.3545 145.127 14.6929C145.127 14.0312 144.591 13.4949 143.929 13.4949C143.268 13.4949 142.731 14.0312 142.731 14.6929C142.731 15.3545 143.268 15.8909 143.929 15.8909Z" fill="#F2F2F2"/>
<path d="M139.155 15.8909C139.816 15.8909 140.353 15.3545 140.353 14.6929C140.353 14.0312 139.816 13.4949 139.155 13.4949C138.493 13.4949 137.957 14.0312 137.957 14.6929C137.957 15.3545 138.493 15.8909 139.155 15.8909Z" fill="#F2F2F2"/>
<path d="M134.38 15.8909C135.042 15.8909 135.578 15.3545 135.578 14.6929C135.578 14.0312 135.042 13.4949 134.38 13.4949C133.719 13.4949 133.182 14.0312 133.182 14.6929C133.182 15.3545 133.719 15.8909 134.38 15.8909Z" fill="#F2F2F2"/>
<path d="M129.606 15.8909C130.267 15.8909 130.804 15.3545 130.804 14.6929C130.804 14.0312 130.267 13.4949 129.606 13.4949C128.944 13.4949 128.408 14.0312 128.408 14.6929C128.408 15.3545 128.944 15.8909 129.606 15.8909Z" fill="#F2F2F2"/>
<path d="M143.929 20.8926C144.591 20.8926 145.127 20.3562 145.127 19.6946C145.127 19.0329 144.591 18.4966 143.929 18.4966C143.268 18.4966 142.731 19.0329 142.731 19.6946C142.731 20.3562 143.268 20.8926 143.929 20.8926Z" fill="#F2F2F2"/>
<path d="M139.155 20.8926C139.816 20.8926 140.353 20.3562 140.353 19.6946C140.353 19.0329 139.816 18.4966 139.155 18.4966C138.493 18.4966 137.957 19.0329 137.957 19.6946C137.957 20.3562 138.493 20.8926 139.155 20.8926Z" fill="#F2F2F2"/>
<path d="M134.38 20.8926C135.042 20.8926 135.578 20.3562 135.578 19.6946C135.578 19.0329 135.042 18.4966 134.38 18.4966C133.719 18.4966 133.182 19.0329 133.182 19.6946C133.182 20.3562 133.719 20.8926 134.38 20.8926Z" fill="#F2F2F2"/>
<path d="M129.606 20.8926C130.267 20.8926 130.804 20.3562 130.804 19.6946C130.804 19.0329 130.267 18.4966 129.606 18.4966C128.944 18.4966 128.408 19.0329 128.408 19.6946C128.408 20.3562 128.944 20.8926 129.606 20.8926Z" fill="#F2F2F2"/>
<path d="M143.929 25.8944C144.591 25.8944 145.127 25.358 145.127 24.6964C145.127 24.0348 144.591 23.4984 143.929 23.4984C143.268 23.4984 142.731 24.0348 142.731 24.6964C142.731 25.358 143.268 25.8944 143.929 25.8944Z" fill="#F2F2F2"/>
<path d="M139.155 25.8944C139.816 25.8944 140.353 25.358 140.353 24.6964C140.353 24.0348 139.816 23.4984 139.155 23.4984C138.493 23.4984 137.957 24.0348 137.957 24.6964C137.957 25.358 138.493 25.8944 139.155 25.8944Z" fill="#F2F2F2"/>
<path d="M134.38 25.8944C135.042 25.8944 135.578 25.358 135.578 24.6964C135.578 24.0348 135.042 23.4984 134.38 23.4984C133.719 23.4984 133.182 24.0348 133.182 24.6964C133.182 25.358 133.719 25.8944 134.38 25.8944Z" fill="#F2F2F2"/>
<path d="M129.606 25.8944C130.267 25.8944 130.804 25.358 130.804 24.6964C130.804 24.0348 130.267 23.4984 129.606 23.4984C128.944 23.4984 128.408 24.0348 128.408 24.6964C128.408 25.358 128.944 25.8944 129.606 25.8944Z" fill="#F2F2F2"/>
<path d="M143.929 30.8961C144.591 30.8961 145.127 30.3598 145.127 29.6981C145.127 29.0365 144.591 28.5001 143.929 28.5001C143.268 28.5001 142.731 29.0365 142.731 29.6981C142.731 30.3598 143.268 30.8961 143.929 30.8961Z" fill="#F2F2F2"/>
<path d="M139.155 30.8961C139.816 30.8961 140.353 30.3598 140.353 29.6981C140.353 29.0365 139.816 28.5001 139.155 28.5001C138.493 28.5001 137.957 29.0365 137.957 29.6981C137.957 30.3598 138.493 30.8961 139.155 30.8961Z" fill="#F2F2F2"/>
<path d="M134.38 30.8961C135.042 30.8961 135.578 30.3598 135.578 29.6981C135.578 29.0365 135.042 28.5001 134.38 28.5001C133.719 28.5001 133.182 29.0365 133.182 29.6981C133.182 30.3598 133.719 30.8961 134.38 30.8961Z" fill="#F2F2F2"/>
<path d="M129.606 30.8961C130.267 30.8961 130.804 30.3598 130.804 29.6981C130.804 29.0365 130.267 28.5001 129.606 28.5001C128.944 28.5001 128.408 29.0365 128.408 29.6981C128.408 30.3598 128.944 30.8961 129.606 30.8961Z" fill="#F2F2F2"/>
<path d="M141.89 83.2315C142.755 81.3635 143.619 79.4678 143.995 77.4438C144.37 75.4198 144.212 73.2233 143.137 71.4677C142.062 69.7122 139.946 68.5218 137.926 68.9186C136.267 69.2446 134.935 70.5512 134.155 72.0512C133.375 73.5513 133.062 75.2431 132.759 76.9064C132.661 75.0168 132.557 73.0968 131.929 71.3119C131.301 69.5269 130.065 67.8635 128.304 67.1728C126.542 66.482 124.251 67.0252 123.322 68.6739C122.014 70.9966 123.749 74.2547 122.245 76.4555C121.987 74.2479 119.678 72.5037 117.484 72.8587C115.29 73.2137 113.649 75.5969 114.1 77.7733C114.369 79.0683 115.252 80.1698 116.309 80.9656C117.365 81.7613 118.594 82.6836 119.809 83.2052L141.89 83.2315Z" fill="#F2F2F2"/>
<path d="M115.252 74.4188C116.995 75.028 118.754 75.6441 120.345 76.5965C121.771 77.4501 123.041 78.5994 123.843 80.0713C124.283 80.8608 124.544 81.7372 124.608 82.6386C124.619 82.8271 124.914 82.8284 124.902 82.6386C124.799 80.96 123.981 79.4239 122.849 78.2091C121.607 76.8772 119.997 75.9675 118.336 75.2616C117.35 74.8432 116.341 74.4875 115.331 74.1345C115.151 74.0717 115.074 74.3565 115.252 74.4188H115.252Z" fill="white"/>
<path d="M125.305 67.466C126.376 69.2499 127.234 71.1535 127.86 73.1376C128.488 75.1209 128.883 77.1705 129.038 79.245C129.124 80.4063 129.134 81.572 129.067 82.7346C129.056 82.9242 129.351 82.9235 129.361 82.7346C129.48 80.6386 129.354 78.5358 128.983 76.4693C128.614 74.403 128.007 72.3864 127.174 70.4597C126.706 69.3775 126.167 68.3277 125.56 67.3172C125.539 67.2848 125.507 67.2617 125.47 67.2526C125.433 67.2436 125.394 67.2493 125.361 67.2686C125.328 67.2879 125.303 67.3193 125.293 67.3561C125.283 67.3929 125.287 67.4323 125.305 67.466Z" fill="white"/>
<path d="M139.736 69.159C138.222 72.5621 137.156 76.1477 136.566 79.8255C136.4 80.8586 136.271 81.8967 136.181 82.9399C136.164 83.1289 136.459 83.1278 136.475 82.9399C136.797 79.2703 137.59 75.6574 138.835 72.1907C139.185 71.216 139.57 70.2551 139.991 69.3079C140.067 69.136 139.813 68.9858 139.736 69.159Z" fill="white"/>
<path d="M148.729 83.182H0.528147C0.479015 83.182 0.431896 83.1625 0.397154 83.1278C0.362413 83.093 0.342896 83.0459 0.342896 82.9968C0.342896 82.9476 0.362413 82.9005 0.397154 82.8658C0.431896 82.831 0.479015 82.8115 0.528147 82.8115H148.729C148.778 82.8115 148.825 82.831 148.86 82.8658C148.895 82.9005 148.914 82.9476 148.914 82.9968C148.914 83.0459 148.895 83.093 148.86 83.1278C148.825 83.1625 148.778 83.182 148.729 83.182Z" fill="#3F3D56"/>
<path d="M77.0852 35.9155H51.3857C51.0162 35.915 50.6621 35.7681 50.4009 35.5069C50.1397 35.2457 49.9927 34.8915 49.9923 34.5221V2.01054C49.9927 1.64113 50.1397 1.28697 50.4009 1.02575C50.6621 0.764541 51.0162 0.617608 51.3857 0.617188H77.0852C77.4546 0.617608 77.8088 0.764542 78.07 1.02576C78.3312 1.28697 78.4782 1.64114 78.4786 2.01055V34.5221C78.4782 34.8915 78.3312 35.2457 78.07 35.5069C77.8088 35.7681 77.4546 35.915 77.0852 35.9155ZM51.3857 0.926831C51.0983 0.927152 50.8229 1.04143 50.6197 1.2446C50.4165 1.44777 50.3023 1.72323 50.3019 2.01055V34.5221C50.3023 34.8094 50.4165 35.0849 50.6197 35.2881C50.8229 35.4912 51.0983 35.6055 51.3857 35.6058H77.0852C77.3725 35.6055 77.648 35.4912 77.8512 35.2881C78.0543 35.0849 78.1686 34.8094 78.169 34.5221V2.01055C78.1686 1.72323 78.0543 1.44777 77.8512 1.2446C77.648 1.04143 77.3725 0.927153 77.0852 0.926831H51.3857Z" fill="#3F3D56"/>
<path d="M62.0976 16.2445H56.4406C56.2559 16.2443 56.0788 16.1709 55.9482 16.0403C55.8176 15.9097 55.7441 15.7326 55.7439 15.5479V8.87222C55.7441 8.68751 55.8176 8.51043 55.9482 8.37982C56.0788 8.24921 56.2559 8.17574 56.4406 8.17554H62.0976C62.2823 8.17574 62.4594 8.24921 62.59 8.37982C62.7206 8.51043 62.7941 8.68751 62.7943 8.87222V15.5479C62.7941 15.7326 62.7206 15.9097 62.59 16.0403C62.4594 16.1709 62.2823 16.2443 62.0976 16.2445Z" fill="#EDE04B"/>
<path d="M73.0901 19.341H67.4331C67.2484 19.3408 67.0713 19.2673 66.9407 19.1367C66.8101 19.0061 66.7367 18.829 66.7365 18.6443V11.9686C66.7367 11.7839 66.8101 11.6069 66.9407 11.4763C67.0713 11.3456 67.2484 11.2722 67.4331 11.272H73.0901C73.2749 11.2722 73.4519 11.3456 73.5825 11.4763C73.7132 11.6069 73.7866 11.7839 73.7868 11.9686V18.6443C73.7866 18.829 73.7132 19.0061 73.5825 19.1367C73.4519 19.2673 73.2749 19.3408 73.0901 19.341Z" fill="#CCCCCC"/>
<path d="M64.2652 28.785H58.6082C58.4235 28.7847 58.2464 28.7113 58.1158 28.5807C57.9852 28.4501 57.9117 28.273 57.9115 28.0883V21.4126C57.9117 21.2279 57.9852 21.0508 58.1158 20.9202C58.2464 20.7896 58.4235 20.7161 58.6082 20.7159H64.2652C64.4499 20.7161 64.627 20.7896 64.7576 20.9202C64.8882 21.0508 64.9617 21.2279 64.9619 21.4126V28.0883C64.9617 28.273 64.8882 28.4501 64.7576 28.5807C64.627 28.7113 64.4499 28.7847 64.2652 28.785Z" fill="#FF6584"/>
<path d="M21.8191 4.00464C22.4807 4.00464 23.0171 3.46828 23.0171 2.80664C23.0171 2.145 22.4807 1.60864 21.8191 1.60864C21.1575 1.60864 20.6211 2.145 20.6211 2.80664C20.6211 3.46828 21.1575 4.00464 21.8191 4.00464Z" fill="#F2F2F2"/>
<path d="M21.8191 8.77966C22.4807 8.77966 23.0171 8.2433 23.0171 7.58166C23.0171 6.92003 22.4807 6.38367 21.8191 6.38367C21.1575 6.38367 20.6211 6.92003 20.6211 7.58166C20.6211 8.2433 21.1575 8.77966 21.8191 8.77966Z" fill="#F2F2F2"/>
<path d="M21.8191 13.5542C22.4807 13.5542 23.0171 13.0178 23.0171 12.3562C23.0171 11.6946 22.4807 11.1582 21.8191 11.1582C21.1575 11.1582 20.6211 11.6946 20.6211 12.3562C20.6211 13.0178 21.1575 13.5542 21.8191 13.5542Z" fill="#F2F2F2"/>
<path d="M21.8191 18.3284C22.4807 18.3284 23.0171 17.792 23.0171 17.1304C23.0171 16.4687 22.4807 15.9324 21.8191 15.9324C21.1575 15.9324 20.6211 16.4687 20.6211 17.1304C20.6211 17.792 21.1575 18.3284 21.8191 18.3284Z" fill="#F2F2F2"/>
<path d="M26.8209 4.00464C27.4826 4.00464 28.0189 3.46828 28.0189 2.80664C28.0189 2.145 27.4826 1.60864 26.8209 1.60864C26.1593 1.60864 25.6229 2.145 25.6229 2.80664C25.6229 3.46828 26.1593 4.00464 26.8209 4.00464Z" fill="#F2F2F2"/>
<path d="M26.8209 8.77966C27.4826 8.77966 28.0189 8.2433 28.0189 7.58166C28.0189 6.92003 27.4826 6.38367 26.8209 6.38367C26.1593 6.38367 25.6229 6.92003 25.6229 7.58166C25.6229 8.2433 26.1593 8.77966 26.8209 8.77966Z" fill="#F2F2F2"/>
<path d="M26.8209 13.5542C27.4826 13.5542 28.0189 13.0178 28.0189 12.3562C28.0189 11.6946 27.4826 11.1582 26.8209 11.1582C26.1593 11.1582 25.6229 11.6946 25.6229 12.3562C25.6229 13.0178 26.1593 13.5542 26.8209 13.5542Z" fill="#F2F2F2"/>
<path d="M26.8209 18.3284C27.4826 18.3284 28.0189 17.792 28.0189 17.1304C28.0189 16.4687 27.4826 15.9324 26.8209 15.9324C26.1593 15.9324 25.6229 16.4687 25.6229 17.1304C25.6229 17.792 26.1593 18.3284 26.8209 18.3284Z" fill="#F2F2F2"/>
<path d="M31.8228 4.00464C32.4844 4.00464 33.0207 3.46828 33.0207 2.80664C33.0207 2.145 32.4844 1.60864 31.8228 1.60864C31.1611 1.60864 30.6248 2.145 30.6248 2.80664C30.6248 3.46828 31.1611 4.00464 31.8228 4.00464Z" fill="#F2F2F2"/>
<path d="M31.8228 8.77966C32.4844 8.77966 33.0207 8.2433 33.0207 7.58166C33.0207 6.92003 32.4844 6.38367 31.8228 6.38367C31.1611 6.38367 30.6248 6.92003 30.6248 7.58166C30.6248 8.2433 31.1611 8.77966 31.8228 8.77966Z" fill="#F2F2F2"/>
<path d="M31.8228 13.5542C32.4844 13.5542 33.0207 13.0178 33.0207 12.3562C33.0207 11.6946 32.4844 11.1582 31.8228 11.1582C31.1611 11.1582 30.6248 11.6946 30.6248 12.3562C30.6248 13.0178 31.1611 13.5542 31.8228 13.5542Z" fill="#F2F2F2"/>
<path d="M31.8228 18.3284C32.4844 18.3284 33.0207 17.792 33.0207 17.1304C33.0207 16.4687 32.4844 15.9324 31.8228 15.9324C31.1611 15.9324 30.6248 16.4687 30.6248 17.1304C30.6248 17.792 31.1611 18.3284 31.8228 18.3284Z" fill="#F2F2F2"/>
<path d="M36.8246 4.00464C37.4862 4.00464 38.0226 3.46828 38.0226 2.80664C38.0226 2.145 37.4862 1.60864 36.8246 1.60864C36.1629 1.60864 35.6266 2.145 35.6266 2.80664C35.6266 3.46828 36.1629 4.00464 36.8246 4.00464Z" fill="#F2F2F2"/>
<path d="M36.8246 8.77966C37.4862 8.77966 38.0226 8.2433 38.0226 7.58166C38.0226 6.92003 37.4862 6.38367 36.8246 6.38367C36.1629 6.38367 35.6266 6.92003 35.6266 7.58166C35.6266 8.2433 36.1629 8.77966 36.8246 8.77966Z" fill="#F2F2F2"/>
<path d="M36.8246 13.5542C37.4862 13.5542 38.0226 13.0178 38.0226 12.3562C38.0226 11.6946 37.4862 11.1582 36.8246 11.1582C36.1629 11.1582 35.6266 11.6946 35.6266 12.3562C35.6266 13.0178 36.1629 13.5542 36.8246 13.5542Z" fill="#F2F2F2"/>
<path d="M36.8246 18.3284C37.4862 18.3284 38.0226 17.792 38.0226 17.1304C38.0226 16.4687 37.4862 15.9324 36.8246 15.9324C36.1629 15.9324 35.6266 16.4687 35.6266 17.1304C35.6266 17.792 36.1629 18.3284 36.8246 18.3284Z" fill="#F2F2F2"/>
<path d="M41.8262 4.00464C42.4878 4.00464 43.0242 3.46828 43.0242 2.80664C43.0242 2.145 42.4878 1.60864 41.8262 1.60864C41.1645 1.60864 40.6282 2.145 40.6282 2.80664C40.6282 3.46828 41.1645 4.00464 41.8262 4.00464Z" fill="#F2F2F2"/>
<path d="M41.8262 8.77966C42.4878 8.77966 43.0242 8.2433 43.0242 7.58166C43.0242 6.92003 42.4878 6.38367 41.8262 6.38367C41.1645 6.38367 40.6282 6.92003 40.6282 7.58166C40.6282 8.2433 41.1645 8.77966 41.8262 8.77966Z" fill="#F2F2F2"/>
<path d="M41.8262 13.5542C42.4878 13.5542 43.0242 13.0178 43.0242 12.3562C43.0242 11.6946 42.4878 11.1582 41.8262 11.1582C41.1645 11.1582 40.6282 11.6946 40.6282 12.3562C40.6282 13.0178 41.1645 13.5542 41.8262 13.5542Z" fill="#F2F2F2"/>
<path d="M41.8262 18.3284C42.4878 18.3284 43.0242 17.792 43.0242 17.1304C43.0242 16.4687 42.4878 15.9324 41.8262 15.9324C41.1645 15.9324 40.6282 16.4687 40.6282 17.1304C40.6282 17.792 41.1645 18.3284 41.8262 18.3284Z" fill="#F2F2F2"/>
<path d="M46.828 4.00464C47.4896 4.00464 48.026 3.46828 48.026 2.80664C48.026 2.145 47.4896 1.60864 46.828 1.60864C46.1664 1.60864 45.63 2.145 45.63 2.80664C45.63 3.46828 46.1664 4.00464 46.828 4.00464Z" fill="#F2F2F2"/>
<path d="M46.828 8.77966C47.4896 8.77966 48.026 8.2433 48.026 7.58166C48.026 6.92003 47.4896 6.38367 46.828 6.38367C46.1664 6.38367 45.63 6.92003 45.63 7.58166C45.63 8.2433 46.1664 8.77966 46.828 8.77966Z" fill="#F2F2F2"/>
<path d="M46.828 13.5542C47.4896 13.5542 48.026 13.0178 48.026 12.3562C48.026 11.6946 47.4896 11.1582 46.828 11.1582C46.1664 11.1582 45.63 11.6946 45.63 12.3562C45.63 13.0178 46.1664 13.5542 46.828 13.5542Z" fill="#F2F2F2"/>
<path d="M46.828 18.3284C47.4896 18.3284 48.026 17.792 48.026 17.1304C48.026 16.4687 47.4896 15.9324 46.828 15.9324C46.1664 15.9324 45.63 16.4687 45.63 17.1304C45.63 17.792 46.1664 18.3284 46.828 18.3284Z" fill="#F2F2F2"/>
<path d="M33.8817 84.8019C38.18 84.8019 41.6645 81.3174 41.6645 77.019C41.6645 72.7207 38.18 69.2362 33.8817 69.2362C29.5834 69.2362 26.0989 72.7207 26.0989 77.019C26.0989 81.3174 29.5834 84.8019 33.8817 84.8019Z" fill="#2F2E41"/>
<path d="M30.922 82.1318L27.1342 84.0287L28.1929 86.1428L31.9807 84.2459L30.922 82.1318Z" fill="#2F2E41"/>
<path d="M28.6924 85.9282C28.917 85.5875 28.3626 84.8257 27.4541 84.2267C26.5457 83.6277 25.6271 83.4183 25.4025 83.759C25.1778 84.0997 25.7322 84.8614 26.6407 85.4604C27.5492 86.0594 28.4677 86.2688 28.6924 85.9282Z" fill="#2F2E41"/>
<path d="M36.841 82.1317L35.7822 84.2458L39.5701 86.1428L40.6288 84.0286L36.841 82.1317Z" fill="#2F2E41"/>
<path d="M41.1226 85.4603C42.0311 84.8613 42.5855 84.0995 42.3609 83.7588C42.1362 83.4182 41.2176 83.6276 40.3092 84.2266C39.4007 84.8256 38.8463 85.5873 39.0709 85.928C39.2955 86.2687 40.2141 86.0593 41.1226 85.4603Z" fill="#2F2E41"/>
<path d="M33.3367 77.7749C34.8058 77.7749 35.9967 76.584 35.9967 75.1149C35.9967 73.6459 34.8058 72.455 33.3367 72.455C31.8677 72.455 30.6768 73.6459 30.6768 75.1149C30.6768 76.584 31.8677 77.7749 33.3367 77.7749Z" fill="white"/>
<path d="M31.7793 75.1789C32.7283 74.4561 33.8011 75.5289 33.0783 76.478C32.1292 77.2008 31.0564 76.128 31.7793 75.1789Z" fill="#3F3D56"/>
<path d="M40.0212 68.5516C40.1382 65.6702 37.6549 63.2297 34.4746 63.1006C31.2943 62.9714 28.6212 65.2024 28.5042 68.0838C28.3871 70.9651 30.5979 71.6198 33.7782 71.7489C36.9585 71.8781 39.9041 71.4329 40.0212 68.5516Z" fill="#CCCCCC"/>
<path d="M44.5072 81.0945C45.0191 80.655 44.2993 78.9768 42.8994 77.3461C41.4994 75.7155 39.9496 74.7498 39.4377 75.1892C38.9257 75.6287 39.6456 77.3069 41.0455 78.9376C42.4454 80.5683 43.9953 81.534 44.5072 81.0945Z" fill="#2F2E41"/>
<path d="M26.7393 78.9368C28.1392 77.3061 28.8591 75.6279 28.3472 75.1884C27.8352 74.7489 26.2854 75.7146 24.8855 77.3453C23.4856 78.976 22.7657 80.6542 23.2776 81.0937C23.7896 81.5332 25.3394 80.5675 26.7393 78.9368Z" fill="#2F2E41"/>
<path d="M36.0191 80.0855C36.0611 80.3147 36.0574 80.5499 36.0084 80.7777C35.9594 81.0055 35.8659 81.2214 35.7334 81.413C35.6009 81.6047 35.4319 81.7684 35.2362 81.8947C35.0404 82.021 34.8216 82.1075 34.5924 82.1492C34.3631 82.191 34.1279 82.1871 33.9002 82.1379C33.6724 82.0887 33.4566 81.9951 33.2651 81.8624C33.0735 81.7297 32.91 81.5606 32.7839 81.3647C32.6577 81.1688 32.5714 80.95 32.5299 80.7207L32.5292 80.7173C32.3548 79.7536 33.0999 79.4125 34.0636 79.2381C35.0273 79.0636 35.8447 79.1218 36.0191 80.0855Z" fill="white"/>
<path d="M116.18 61.2544H105.804C105.804 61.3772 105.755 61.495 105.668 61.5818C105.581 61.6687 105.464 61.7175 105.341 61.7175H95.1556C95.0117 61.8259 94.8806 61.9501 94.7647 62.088C94.4166 62.5033 94.2263 63.0281 94.2274 63.57V63.9405C94.2276 64.5546 94.4717 65.1435 94.9059 65.5777C95.3401 66.0119 95.929 66.256 96.5431 66.2562H116.18C116.794 66.2556 117.382 66.0115 117.817 65.5774C118.251 65.1432 118.495 64.5545 118.495 63.9405V63.57C118.495 62.9562 118.25 62.3676 117.816 61.9336C117.382 61.4995 116.794 61.2552 116.18 61.2544Z" fill="#3F3D56"/>
<path d="M107.657 66.1642H105.249V83.2073H107.657V66.1642Z" fill="#3F3D56"/>
<path d="M114.512 83.1226C114.512 83.3829 110.862 83.2233 106.361 83.2233C101.859 83.2233 98.2095 83.3829 98.2095 83.1226C98.2095 82.8624 101.859 80.799 106.361 80.799C110.862 80.799 114.512 82.8624 114.512 83.1226Z" fill="#3F3D56"/>
<path d="M115.726 61.7879L115.322 59.2611C115.271 58.9426 115.095 58.6575 114.834 58.4682C114.573 58.2789 114.247 58.201 113.929 58.2515L109.763 58.9165L102.627 60.0558L100.305 60.4263H105.341C105.463 60.4264 105.581 60.4752 105.668 60.562C105.755 60.6489 105.804 60.7666 105.804 60.8894V61.2544C105.804 61.3772 105.755 61.495 105.668 61.5818C105.581 61.6687 105.463 61.7175 105.341 61.7175H92.5268C92.3479 61.8012 92.1931 61.9286 92.0766 62.088C91.9781 62.2176 91.9069 62.3659 91.8674 62.5239C91.8279 62.6818 91.821 62.8461 91.8469 63.0069L91.9617 63.7256L92.1006 64.5982L92.2507 65.5356C92.3017 65.8532 92.4767 66.1377 92.7371 66.3266C92.9976 66.5155 93.3223 66.5935 93.6401 66.5433L96.9506 66.0154L106.498 64.4907L114.716 63.1792C115.034 63.1274 115.318 62.9521 115.508 62.6915C115.697 62.4309 115.775 62.1061 115.726 61.7879Z" fill="#EDE04B"/>
<path d="M96.697 62.088C96.5752 61.9263 96.4138 61.7987 96.2284 61.7175H92.6863C92.5 61.7982 92.3378 61.9258 92.2157 62.088C92.0509 62.2991 91.9615 62.5593 91.9619 62.8272V76.9452C91.9624 77.2668 92.0904 77.5752 92.3178 77.8027C92.5453 78.0301 92.8537 78.1581 93.1754 78.1586H95.7375C96.0591 78.1581 96.3675 78.0301 96.5949 77.8026C96.8224 77.5752 96.9504 77.2668 96.9508 76.9452V62.8272C96.951 62.5594 96.8616 62.2992 96.697 62.088Z" fill="#EDE04B"/>
<path d="M104.407 38.0425L104.383 38.011L102.793 36.0529C102.709 35.9479 102.607 35.8583 102.491 35.788C102.43 35.7467 102.364 35.7131 102.295 35.688C102.194 35.6473 102.087 35.6211 101.978 35.6102C101.906 35.6025 101.832 35.6012 101.76 35.6065C101.758 35.6066 101.757 35.6073 101.756 35.6083C101.51 35.6264 101.276 35.7195 101.085 35.8751L97.8231 38.5204L93.6308 41.9217L87.3749 46.9975L86.9192 47.368H94.835L95.2925 46.9975L96.8061 45.7693L96.9134 45.6841L104.223 39.7542L104.229 39.7505C104.379 39.6294 104.498 39.4737 104.575 39.2967C104.626 39.1807 104.659 39.0576 104.672 38.9317C104.689 38.7733 104.674 38.6132 104.628 38.4606C104.583 38.3079 104.508 38.1659 104.407 38.0425Z" fill="#EDE04B"/>
<path d="M104.383 38.0107C104.281 37.5115 104.054 37.0463 103.724 36.6584C103.394 36.2675 102.97 35.9677 102.492 35.7877C102.418 35.7599 102.345 35.734 102.271 35.7136C102.104 35.6638 101.933 35.6279 101.76 35.6062C101.758 35.6063 101.757 35.607 101.756 35.608C100.977 35.5179 100.193 35.7345 99.5703 36.2119L93.9276 40.5246C93.8077 40.6317 93.7107 40.7619 93.6423 40.9073C93.5739 41.0528 93.5354 41.2105 93.5293 41.3712C93.5205 41.56 93.5553 41.7482 93.6311 41.9214C93.6497 41.9603 93.67 41.9992 93.6923 42.0362C93.7355 42.1115 93.7878 42.1811 93.8479 42.2437L94.7519 43.2589L96.8545 45.6171L96.9137 45.6838L97.049 45.8376C97.1567 45.9556 97.2865 46.0512 97.4311 46.1189C97.5758 46.1866 97.7323 46.225 97.8919 46.2321C98.0514 46.2391 98.2108 46.2146 98.3608 46.16C98.5108 46.1053 98.6486 46.0216 98.7662 45.9135L103.633 40.6857C103.886 40.4143 104.086 40.0984 104.224 39.7539C104.446 39.2009 104.501 38.5949 104.383 38.0107Z" fill="#2F2E41"/>
<path d="M106.535 31.3028C111.663 31.3028 115.82 27.1456 115.82 22.0176C115.82 16.8895 111.663 12.7324 106.535 12.7324C101.407 12.7324 97.2496 16.8895 97.2496 22.0176C97.2496 27.1456 101.407 31.3028 106.535 31.3028Z" fill="#EDE04B"/>
<path d="M110.017 60.5099L109.763 58.9167L109.613 57.9812C109.562 57.6632 109.386 57.3785 109.125 57.1896C108.865 57.0006 108.539 56.9229 108.221 56.9735L101.473 58.0498L99.6425 58.3425L99.272 58.4017V60.4265H105.341C105.464 60.4266 105.581 60.4754 105.668 60.5622C105.755 60.6491 105.804 60.7669 105.804 60.8897V61.2546C105.804 61.3774 105.755 61.4952 105.668 61.5821C105.581 61.6689 105.464 61.7177 105.341 61.7177H86.1357C86.1357 61.7214 86.1375 61.7252 86.1375 61.7289L86.2524 62.4476L86.5414 64.2557C86.5925 64.5734 86.7674 64.8579 87.0278 65.0468C87.2883 65.2357 87.613 65.3136 87.9308 65.2635L91.2413 64.7355L91.9618 64.6206L92.1008 64.5984L96.9507 63.8241L100.25 63.2961L105.485 62.4606L105.563 62.4476L109.007 61.8993C109.325 61.8484 109.609 61.6735 109.799 61.4131C109.988 61.1527 110.066 60.828 110.017 60.5099Z" fill="#EDE04B"/>
<path d="M119.171 53.6962C119.171 61.2656 118.403 65.7931 106.546 64.4964C106.53 64.4945 106.515 64.4927 106.498 64.4908C104.384 64.2819 102.292 63.882 100.25 63.2959C99.1883 62.986 98.1567 62.5818 97.1672 62.0881C96.9338 61.9695 96.7097 61.8454 96.4891 61.7176H105.34C105.463 61.7176 105.581 61.6687 105.668 61.5819C105.755 61.4951 105.804 61.3773 105.804 61.2545V60.8895C105.804 60.7667 105.755 60.6489 105.668 60.5621C105.581 60.4753 105.463 60.4264 105.34 60.4264H99.2717V48.7259C99.2712 48.366 99.128 48.0209 98.8734 47.7663C98.6189 47.5118 98.2738 47.3686 97.9138 47.368H98.1638C98.2065 47.2458 98.249 47.1217 98.2953 46.9975C98.7455 45.7471 98.7013 44.7635 99.3403 43.5389C100.218 41.8495 100.224 40.1507 101.378 38.7224C102.238 37.6609 99.6051 36.5031 100.572 35.7065C102.43 34.1726 104.453 33.2241 106.506 33.2241C114.075 33.2241 119.171 46.1269 119.171 53.6962Z" fill="#2F2E41"/>
<path d="M106.729 25.4586L106.739 25.1116C106.094 25.0937 105.524 25.0532 105.097 24.7408C104.976 24.6472 104.876 24.5285 104.805 24.393C104.733 24.2574 104.692 24.1081 104.684 23.9551C104.676 23.8617 104.69 23.7678 104.725 23.6807C104.76 23.5936 104.814 23.5157 104.884 23.453C105.168 23.2132 105.624 23.2908 105.957 23.4435L106.244 23.5751L105.694 19.5518L105.35 19.5989L105.818 23.0213C105.627 22.9501 105.42 22.9281 105.218 22.9573C105.015 22.9864 104.824 23.0657 104.66 23.188C104.549 23.2842 104.463 23.4046 104.407 23.5398C104.351 23.675 104.327 23.8213 104.337 23.9673C104.347 24.1728 104.402 24.3736 104.498 24.5556C104.594 24.7376 104.728 24.8965 104.892 25.021C105.442 25.4225 106.156 25.4425 106.729 25.4586Z" fill="#2F2E41"/>
<path d="M103.65 19.8943H101.781V20.2413H103.65V19.8943Z" fill="#2F2E41"/>
<path d="M109.549 19.8943H107.68V20.2413H109.549V19.8943Z" fill="#2F2E41"/>
<path d="M112.054 40.6967L111.319 40.1854L109.95 39.235C109.685 39.052 109.358 38.9814 109.042 39.0387C108.725 39.096 108.444 39.2765 108.26 39.5407L103.797 45.9634L99.6424 51.9433L99.2719 52.4768V60.426H99.3051C99.594 60.3973 99.8628 60.2658 100.063 60.0555C100.106 60.0113 100.145 59.9636 100.18 59.9128L101.473 58.0492L104.668 53.4494L107.98 48.6847L108.295 48.2309L112.356 42.3862C112.378 42.3552 112.399 42.323 112.417 42.2898C112.436 42.2581 112.452 42.2253 112.467 42.1917C112.584 41.9334 112.606 41.6426 112.531 41.3696C112.455 41.0965 112.287 40.8585 112.054 40.6967Z" fill="#EDE04B"/>
<path d="M112.067 38.1554C111.936 38.0693 111.799 37.9938 111.656 37.9294C111.023 37.6393 110.31 37.576 109.636 37.7501C108.961 37.9242 108.368 38.325 107.955 38.8853L103.738 44.6021C103.654 44.7382 103.597 44.8898 103.571 45.0481C103.546 45.2064 103.552 45.3681 103.59 45.524C103.627 45.6798 103.695 45.8267 103.79 45.9559C103.885 46.0851 104.005 46.1942 104.142 46.2768L107.981 48.6851L108.029 48.7147L108.221 48.8351C108.497 49.0017 108.827 49.0523 109.14 48.9759C109.453 48.8995 109.723 48.7024 109.891 48.4276L112.867 42.518L112.917 42.4198L112.919 42.418L113.103 42.0493C113.437 41.3861 113.517 40.6232 113.326 39.9054C113.135 39.1876 112.687 38.5648 112.067 38.1554Z" fill="#2F2E41"/>
<path d="M86.2524 61.7175V75.6651C86.2529 75.9868 86.3809 76.2951 86.6083 76.5226C86.8358 76.75 87.1441 76.878 87.4658 76.8785H90.0278C90.3495 76.878 90.6579 76.7501 90.8853 76.5226C91.1128 76.2951 91.2408 75.9868 91.2413 75.6651V61.7175H86.2524Z" fill="#EDE04B"/>
<path d="M105.341 60.0558H99.6424V48.7258C99.6419 48.2676 99.4597 47.8283 99.1356 47.5042C98.8116 47.1802 98.3723 46.9979 97.914 46.9974H76.7823C76.3238 46.9975 75.8841 47.1796 75.5597 47.5037C75.2353 47.8277 75.0527 48.2673 75.0521 48.7258V60.3596C75.0527 60.8181 75.2353 61.2577 75.5597 61.5817C75.8841 61.9058 76.3238 62.0879 76.7823 62.088H105.341C105.37 62.088 105.398 62.0861 105.426 62.0843C105.452 62.0824 105.478 62.0769 105.504 62.0732C105.693 62.0349 105.863 61.9325 105.985 61.7833C106.107 61.6341 106.174 61.4472 106.174 61.2543V60.8894C106.174 60.6683 106.087 60.4563 105.93 60.2999C105.774 60.1436 105.562 60.0558 105.341 60.0558ZM105.341 61.7175H76.7823C76.4221 61.7173 76.0766 61.5743 75.8217 61.3197C75.5668 61.0651 75.4232 60.7198 75.4226 60.3596V48.7258C75.4233 48.3656 75.5668 48.0203 75.8217 47.7657C76.0766 47.5111 76.4221 47.3681 76.7823 47.3679H97.914C98.274 47.3685 98.6191 47.5117 98.8736 47.7662C99.1282 48.0208 99.2714 48.3658 99.2719 48.7258V60.4263H105.341C105.464 60.4263 105.581 60.4751 105.668 60.562C105.755 60.6488 105.804 60.7666 105.804 60.8894V61.2543C105.804 61.3772 105.755 61.4949 105.668 61.5818C105.581 61.6686 105.464 61.7174 105.341 61.7175Z" fill="#3F3D56"/>
<path d="M87.3477 55.9673C88.1345 55.9673 88.7723 55.3294 88.7723 54.5427C88.7723 53.7559 88.1345 53.118 87.3477 53.118C86.5609 53.118 85.9231 53.7559 85.9231 54.5427C85.9231 55.3294 86.5609 55.9673 87.3477 55.9673Z" fill="#EDE04B"/>
<path d="M99.6369 60.2517H99.2664V61.919H99.6369V60.2517Z" fill="#3F3D56"/>
<path d="M42.3124 48.8489C43.0989 46.791 43.2129 44.9225 42.5668 44.6755C41.9208 44.4286 40.7594 45.8967 39.9728 47.9547C39.1862 50.0126 39.0723 51.8811 39.7184 52.128C40.3644 52.375 41.5258 50.9068 42.3124 48.8489Z" fill="#2F2E41"/>
<path d="M41.6435 55.7049C42.3493 51.3555 39.3956 47.2574 35.0462 46.5516C30.6968 45.8458 26.5988 48.7995 25.893 53.1489C25.1872 57.4983 28.1409 61.5963 32.4902 62.3022C36.8396 63.008 40.9377 60.0543 41.6435 55.7049Z" fill="#2F2E41"/>
<path d="M32.5561 60.6884H30.1323V65.031H32.5561V60.6884Z" fill="#2F2E41"/>
<path d="M37.4036 60.6884H34.9799V65.031H37.4036V60.6884Z" fill="#2F2E41"/>
<path d="M32.1521 65.839C33.2677 65.839 34.172 65.4998 34.172 65.0815C34.172 64.6632 33.2677 64.3241 32.1521 64.3241C31.0366 64.3241 30.1323 64.6632 30.1323 65.0815C30.1323 65.4998 31.0366 65.839 32.1521 65.839Z" fill="#2F2E41"/>
<path d="M36.9997 65.7375C38.1152 65.7375 39.0195 65.3984 39.0195 64.9801C39.0195 64.5618 38.1152 64.2227 36.9997 64.2227C35.8842 64.2227 34.9799 64.5618 34.9799 64.9801C34.9799 65.3984 35.8842 65.7375 36.9997 65.7375Z" fill="#2F2E41"/>
<path d="M34.0502 55.1326C35.5555 55.0884 36.7399 53.8323 36.6957 52.327C36.6514 50.8217 35.3953 49.6373 33.89 49.6815C32.3847 49.7257 31.2003 50.9819 31.2445 52.4872C31.2888 53.9925 32.5449 55.1769 34.0502 55.1326Z" fill="white"/>
<path d="M33.9703 53.3162C34.4723 53.3162 34.8792 52.9093 34.8792 52.4073C34.8792 51.9054 34.4723 51.4984 33.9703 51.4984C33.4683 51.4984 33.0614 51.9054 33.0614 52.4073C33.0614 52.9093 33.4683 53.3162 33.9703 53.3162Z" fill="#3F3D56"/>
<path d="M26.0288 47.0074C25.3846 44.1224 27.4439 41.2071 30.6284 40.4961C33.8128 39.785 36.9166 41.5474 37.5608 44.4324C38.205 47.3175 36.0945 48.3815 32.9101 49.0926C29.7256 49.8037 26.673 49.8925 26.0288 47.0074Z" fill="#EDE04B"/>
<path d="M28.3862 52.434C28.6826 51.8091 27.3092 50.5372 25.3186 49.5931C23.328 48.649 21.474 48.3902 21.1776 49.0151C20.8813 49.64 22.2547 50.912 24.2453 51.8561C26.2359 52.8002 28.0899 53.0589 28.3862 52.434Z" fill="#2F2E41"/>
<path d="M29.8492 57.3051C29.8492 58.0859 31.8598 59.6279 34.0909 59.6279C36.3219 59.6279 38.4137 57.4295 38.4137 56.6486C38.4137 55.8678 36.3219 56.8001 34.0909 56.8001C31.8598 56.8001 29.8492 56.5242 29.8492 57.3051Z" fill="white"/>
<path d="M49.1648 52.7166L43.2921 53.863C43.197 53.8819 43.0988 53.8788 43.0051 53.854C42.9113 53.8292 42.8245 53.7834 42.7511 53.7199C42.6763 53.6557 42.6171 53.5753 42.578 53.4848C42.539 53.3943 42.5211 53.296 42.5257 53.1975C42.6259 50.7893 42.1578 48.3914 41.1593 46.1977C41.118 46.1082 41.0976 46.0104 41.0998 45.9118C41.1019 45.8132 41.1265 45.7165 41.1717 45.6288C41.2158 45.5425 41.2791 45.4673 41.3566 45.4091C41.4341 45.3509 41.5239 45.3111 41.6192 45.2928L47.4919 44.1465C47.642 44.1175 47.7976 44.1427 47.9308 44.2177C48.0641 44.2926 48.1665 44.4124 48.2197 44.5557C49.0884 46.969 49.5826 49.501 49.6852 52.0638C49.6898 52.2166 49.6401 52.3661 49.5448 52.4856C49.4495 52.6052 49.3148 52.6871 49.1648 52.7166Z" fill="#FF6584"/>
<path d="M23.4149 58.0891L17.5422 59.2355C17.4471 59.2544 17.3489 59.2513 17.2552 59.2265C17.1614 59.2017 17.0746 59.1558 17.0012 59.0924C16.9264 59.0282 16.8672 58.9478 16.8281 58.8572C16.7891 58.7667 16.7712 58.6685 16.7758 58.57C16.876 56.1618 16.4079 53.7638 15.4094 51.5701C15.3681 51.4806 15.3477 51.3828 15.3499 51.2843C15.352 51.1857 15.3766 51.0889 15.4218 51.0013C15.466 50.9149 15.5292 50.8398 15.6067 50.7815C15.6843 50.7233 15.7741 50.6835 15.8693 50.6653L21.742 49.5189C21.8921 49.4899 22.0477 49.5151 22.1809 49.5901C22.3142 49.665 22.4166 49.7848 22.4698 49.9282C23.3385 52.3414 23.8327 54.8734 23.9353 57.4362C23.9399 57.589 23.8902 57.7385 23.7949 57.8581C23.6996 57.9777 23.5649 58.0595 23.4149 58.0891Z" fill="#CCCCCC"/>
<path d="M109.206 15.499C107.534 16.2453 105.638 16.3112 103.918 15.6828C102.657 15.1994 101.565 14.3589 100.774 13.2643C99.9833 12.1696 99.5289 10.8682 99.4663 9.51925L99.0481 9.75919L100.811 10.9995C100.848 11.0207 100.889 11.0332 100.931 11.0361C100.974 11.0389 101.016 11.0321 101.056 11.0161C101.095 11.0001 101.13 10.9753 101.158 10.9437C101.187 10.912 101.208 10.8743 101.219 10.8335C101.343 10.3374 101.568 9.87219 101.88 9.46689C102.191 9.0616 102.583 8.72493 103.031 8.47791C104.012 7.93046 105.154 7.74063 106.26 7.94082C108.55 8.31239 110.612 9.83935 111.954 11.6909C112.686 12.6983 113.228 13.8307 113.555 15.0326C113.576 15.1014 113.624 15.1592 113.687 15.1937C113.75 15.2282 113.824 15.2367 113.894 15.2176C113.963 15.1984 114.023 15.153 114.059 15.091C114.096 15.0289 114.107 14.955 114.09 14.8849C113.451 12.5483 112.047 10.4935 110.102 9.04903C108.112 7.57095 105.325 6.67758 102.984 7.87075C101.869 8.43863 100.962 9.44961 100.683 10.6857L101.091 10.5197L99.3286 9.27931C99.2863 9.25518 99.2385 9.24251 99.1897 9.24257C99.141 9.24263 99.0932 9.25542 99.0509 9.27966C99.0087 9.30391 98.9735 9.33877 98.9489 9.38079C98.9243 9.42282 98.911 9.47054 98.9105 9.51925C98.9978 11.3913 99.7728 13.1652 101.087 14.501C102.461 15.8741 104.32 16.6516 106.262 16.6656C107.374 16.6779 108.476 16.4433 109.487 15.9789C109.811 15.8301 109.529 15.351 109.206 15.499Z" fill="#2F2E41"/>
<path d="M31.2192 85.1213L25.3465 86.2676C25.2514 86.2865 25.1532 86.2834 25.0595 86.2586C24.9657 86.2339 24.8789 86.188 24.8056 86.1246C24.7307 86.0604 24.6715 85.9799 24.6325 85.8894C24.5934 85.7989 24.5755 85.7006 24.5802 85.6021C24.6804 83.1939 24.2123 80.796 23.2138 78.6022C23.1724 78.5127 23.1521 78.415 23.1542 78.3164C23.1564 78.2178 23.181 78.121 23.2262 78.0334C23.2703 77.947 23.3335 77.8719 23.411 77.8136C23.4886 77.7554 23.5784 77.7157 23.6736 77.6974L29.5463 76.551C29.6965 76.522 29.852 76.5473 29.9853 76.6222C30.1185 76.6971 30.2209 76.8169 30.2741 76.9603C31.1428 79.3736 31.637 81.9056 31.7397 84.4684C31.7443 84.6212 31.6945 84.7707 31.5992 84.8903C31.5039 85.0098 31.3693 85.0917 31.2192 85.1213Z" fill="#EDE04B"/>
</g>
<defs>
<clipPath id="clip0">
<rect width="148.571" height="85.6629" fill="white" transform="translate(0.342896 0.617188)"/>
</clipPath>
</defs>
</svg>
