<svg width="76" height="60" viewBox="0 0 76 60" fill="none" xmlns="http://www.w3.org/2000/svg">
<g clip-path="url(#clip0)">
<path d="M56.6932 59.2793C55.6412 58.3962 55.0022 57.001 55.1698 55.6428C55.3374 54.2847 56.3752 53.0361 57.7215 52.7477C59.0678 52.4592 60.6025 53.2576 61.0114 54.5643C61.2365 52.0451 61.4958 49.4204 62.8438 47.2751C64.0645 45.3326 66.1786 43.9426 68.4698 43.694C70.7611 43.4453 73.1735 44.3845 74.6024 46.1813C76.0314 47.978 76.3813 50.5902 75.3805 52.6531C74.6432 54.1727 73.2849 55.3036 71.8617 56.2237C67.263 59.1717 61.7475 60.3706 56.3299 59.5997" fill="#F2F2F2"/>
<path d="M72.3367 44.4365C70.4461 45.9665 68.7117 47.6776 67.1586 49.5452C64.7279 52.4579 62.761 55.7236 61.3264 59.2285C61.2214 59.4842 61.6393 59.5955 61.7431 59.3426C64.0904 53.6465 67.8377 48.6259 72.6423 44.7401C72.858 44.5656 72.5506 44.2634 72.3367 44.4365Z" fill="white"/>
<path d="M18.5811 59.8837H12.615C12.4134 59.8835 12.2202 59.8038 12.0776 59.6622C11.9351 59.5206 11.8549 59.3286 11.8546 59.1283V46.8082C11.8549 46.6079 11.9351 46.4159 12.0776 46.2743C12.2202 46.1326 12.4134 46.053 12.615 46.0527H18.5811C18.7827 46.053 18.9759 46.1326 19.1185 46.2743C19.261 46.4159 19.3412 46.6079 19.3415 46.8082V59.1283C19.3412 59.3286 19.261 59.5206 19.1185 59.6622C18.9759 59.8038 18.7827 59.8835 18.5811 59.8837Z" fill="#7F52DD"/>
<path d="M32.7358 60H26.7698C26.5372 59.9997 26.3142 59.9078 26.1497 59.7444C25.9852 59.581 25.8927 59.3594 25.8924 59.1283V35.1855C25.8927 34.9544 25.9852 34.7329 26.1497 34.5694C26.3142 34.406 26.5372 34.3141 26.7698 34.3138H32.7358C32.9685 34.3141 33.1915 34.406 33.3559 34.5694C33.5204 34.7329 33.6129 34.9544 33.6132 35.1855V59.1283C33.6129 59.3594 33.5204 59.581 33.3559 59.7444C33.1915 59.9078 32.9685 59.9997 32.7358 60ZM26.7698 34.5463C26.5992 34.5465 26.4357 34.6139 26.315 34.7337C26.1944 34.8536 26.1266 35.0161 26.1264 35.1855V59.1283C26.1266 59.2978 26.1944 59.4603 26.315 59.5801C26.4357 59.6999 26.5992 59.7674 26.7698 59.7675H32.7358C32.9064 59.7674 33.07 59.6999 33.1906 59.5801C33.3112 59.4603 33.379 59.2978 33.3792 59.1283V35.1855C33.379 35.0161 33.3112 34.8536 33.1906 34.7337C33.07 34.6139 32.9064 34.5465 32.7358 34.5463H26.7698Z" fill="#3F3D56"/>
<path d="M46.8906 60H40.9245C40.6919 59.9997 40.4689 59.9078 40.3044 59.7444C40.14 59.581 40.0474 59.3594 40.0472 59.1283V19.9598C40.0474 19.7287 40.14 19.5072 40.3044 19.3437C40.4689 19.1803 40.6919 19.0884 40.9245 19.0881H46.8906C47.1232 19.0884 47.3462 19.1803 47.5107 19.3437C47.6752 19.5072 47.7677 19.7287 47.768 19.9598V59.1283C47.7677 59.3594 47.6752 59.581 47.5107 59.7444C47.3462 59.9078 47.1232 59.9997 46.8906 60ZM40.9245 19.3206C40.754 19.3208 40.5904 19.3882 40.4698 19.508C40.3492 19.6279 40.2813 19.7904 40.2811 19.9598V59.1283C40.2813 59.2978 40.3492 59.4603 40.4698 59.5801C40.5904 59.7 40.754 59.7674 40.9245 59.7676H46.8906C47.0612 59.7674 47.2247 59.7 47.3453 59.5801C47.466 59.4603 47.5338 59.2978 47.534 59.1283V19.9598C47.5338 19.7904 47.466 19.6279 47.3453 19.508C47.2247 19.3882 47.0612 19.3208 46.8906 19.3206H40.9245Z" fill="#3F3D56"/>
<path d="M61.1775 59.9419H55.2114C55.0098 59.9416 54.8166 59.862 54.674 59.7203C54.5315 59.5787 54.4513 59.3867 54.451 59.1864V3.97862C54.4513 3.77833 54.5315 3.5863 54.674 3.44467C54.8166 3.30304 55.0098 3.22338 55.2114 3.22314H61.1775C61.3791 3.22338 61.5723 3.30304 61.7149 3.44467C61.8574 3.5863 61.9376 3.77833 61.9379 3.97862V59.1864C61.9376 59.3867 61.8574 59.5787 61.7149 59.7203C61.5723 59.862 61.3791 59.9416 61.1775 59.9419Z" fill="#7F52DD"/>
<path d="M24.0724 25.8439C24.094 25.6744 24.078 25.5023 24.0254 25.3396C23.9729 25.1769 23.885 25.0276 23.7681 24.9023C23.6512 24.777 23.5081 24.6787 23.3488 24.6143C23.1895 24.5499 23.018 24.521 22.8462 24.5296L20.7667 20.7395L20.2987 22.3667L21.7234 25.8402C21.7571 26.1259 21.8951 26.3895 22.1112 26.5808C22.3274 26.7722 22.6067 26.8782 22.8963 26.8787C23.1858 26.8791 23.4654 26.774 23.6822 26.5833C23.899 26.3926 24.0378 26.1295 24.0724 25.8439V25.8439Z" fill="#A0616A"/>
<path d="M8.0502 40.8088L9.20844 41.649L13.0214 37.6098L11.3119 36.3698L8.0502 40.8088Z" fill="#A0616A"/>
<path d="M10.6571 44.3379L7.01667 41.6973L8.04353 40.2998L10.2774 41.9202C10.6505 42.1908 10.9001 42.5975 10.9713 43.0509C11.0425 43.5043 10.9295 43.9673 10.6571 44.3379L10.6571 44.3379Z" fill="#2F2E41"/>
<path d="M14.1783 45.2561L15.6125 45.256L16.2947 39.7599L14.178 39.76L14.1783 45.2561Z" fill="#A0616A"/>
<path d="M18.3784 46.5791L13.8711 46.5793L13.871 44.8491L16.6369 44.8489C17.0988 44.8489 17.5417 45.0312 17.8683 45.3557C18.1949 45.6801 18.3784 46.1202 18.3784 46.5791Z" fill="#2F2E41"/>
<path d="M18.4855 23.8196C18.4855 23.8196 19.1874 30.5607 17.4327 35.2098L16.1459 44.0431H13.9232L14.1572 33.5826L13.3383 24.2845C13.3383 24.2845 14.9761 20.1003 18.4855 23.8196Z" fill="#2F2E41"/>
<path d="M10.8817 24.2844L13.2214 32.3041L8.65909 39.5101L10.9402 41.4279L16.1459 33.3501L14.6251 23.4708L10.8817 24.2844Z" fill="#2F2E41"/>
<path d="M16.8483 6.3011C18.4351 6.3011 19.7214 5.02303 19.7214 3.44645C19.7214 1.86987 18.4351 0.591797 16.8483 0.591797C15.2614 0.591797 13.9751 1.86987 13.9751 3.44645C13.9751 5.02303 15.2614 6.3011 16.8483 6.3011Z" fill="#A0616A"/>
<path d="M14.4496 7.37342C14.4496 7.37342 16.2044 6.21115 18.193 8.76814L18.7195 24.8656C18.7195 24.8656 17.1987 22.7735 14.0402 24.7493C10.8817 26.7252 10.1798 24.5169 10.1798 24.5169C10.1798 24.5169 7.95716 7.89644 14.4496 7.37342Z" fill="#CCCCCC"/>
<path d="M18.0515 8.72758C18.5562 8.75468 19.033 8.96624 19.3901 9.32157C19.7472 9.67689 19.9595 10.1509 19.986 10.6523L20.3572 17.6595L22.8138 24.2845L21.4101 25.4467L16.8478 17.5433L15.9137 11.047C15.8709 10.7493 15.8951 10.4458 15.9845 10.1584C16.0739 9.87105 16.2263 9.60696 16.4307 9.38514C16.6352 9.16333 16.8866 8.9893 17.1668 8.8756C17.4471 8.76189 17.7492 8.71134 18.0515 8.72758Z" fill="#CCCCCC"/>
<path d="M14.7371 5.58777C15.2068 6.08489 16.0791 5.81802 16.1403 5.13889C16.1451 5.08617 16.1448 5.0331 16.1393 4.98044C16.1077 4.67962 15.9327 4.4065 15.9746 4.08888C15.9841 4.00982 16.0138 3.93449 16.0608 3.87C16.4351 3.37202 17.3137 4.09274 17.667 3.64193C17.8836 3.3655 17.6289 2.93028 17.7952 2.62132C18.0146 2.21355 18.6644 2.41471 19.0719 2.19139C19.5252 1.94293 19.4981 1.25178 19.1997 0.831397C18.8357 0.31872 18.1975 0.0451508 17.5673 0.0057208C16.9371 -0.0337092 16.3112 0.135557 15.7229 0.363368C15.0544 0.622205 14.3915 0.97993 13.9801 1.56395C13.4798 2.27418 13.4317 3.22901 13.6819 4.05949C13.8341 4.56468 14.3535 5.18182 14.7371 5.58777Z" fill="#2F2E41"/>
<path d="M75.8607 59.9507H0.13928C0.102409 59.9506 0.0670827 59.936 0.0410482 59.91C0.0150138 59.8841 0.000396729 59.849 0.000396729 59.8123C0.000396729 59.7757 0.0150138 59.7406 0.0410482 59.7146C0.0670827 59.6887 0.102409 59.6741 0.13928 59.674H75.8607C75.8976 59.6741 75.9329 59.6887 75.9589 59.7146C75.985 59.7406 75.9996 59.7757 75.9996 59.8123C75.9996 59.849 75.985 59.8841 75.9589 59.91C75.9329 59.936 75.8976 59.9506 75.8607 59.9507Z" fill="#3F3D56"/>
</g>
<defs>
<clipPath id="clip0">
<rect width="76" height="60" fill="white"/>
</clipPath>
</defs>
</svg>
