<svg width="152" height="120" viewBox="0 0 152 120" fill="none" xmlns="http://www.w3.org/2000/svg">
<g clip-path="url(#clip0)">
<path d="M112.906 117.595C110.823 115.846 109.557 113.082 109.889 110.392C110.221 107.701 112.277 105.228 114.944 104.656C117.611 104.085 120.651 105.667 121.461 108.255C121.907 103.265 122.42 98.0652 125.091 93.8155C127.509 89.9674 131.697 87.214 136.235 86.7214C140.774 86.2288 145.553 88.0893 148.384 91.6486C151.215 95.208 151.908 100.383 149.925 104.469C148.465 107.479 145.774 109.72 142.955 111.542C133.845 117.382 122.919 119.757 112.187 118.23" fill="#F2F2F2"/>
<path d="M143.896 88.1923C140.15 91.223 136.715 94.6127 133.638 98.3123C128.823 104.082 124.927 110.551 122.085 117.494C121.877 118.001 122.704 118.221 122.91 117.721C127.56 106.437 134.983 96.4912 144.501 88.7937C144.928 88.4479 144.319 87.8493 143.896 88.1923Z" fill="white"/>
<path d="M37.4082 118.793H25.5897C25.1904 118.792 24.8075 118.634 24.5251 118.354C24.2428 118.073 24.0839 117.693 24.0835 117.296V92.8906C24.0839 92.4938 24.2428 92.1134 24.5251 91.8329C24.8075 91.5523 25.1904 91.3945 25.5897 91.394H37.4082C37.8076 91.3945 38.1904 91.5523 38.4728 91.8329C38.7552 92.1134 38.914 92.4938 38.9145 92.8906V117.296C38.914 117.693 38.7552 118.073 38.4728 118.354C38.1904 118.634 37.8076 118.792 37.4082 118.793Z" fill="#EDE04B"/>
<path d="M65.4482 119.023H53.6297C53.1689 119.022 52.7271 118.84 52.4013 118.516C52.0755 118.193 51.8922 117.754 51.8917 117.296V69.8664C51.8922 69.4086 52.0755 68.9697 52.4013 68.646C52.7271 68.3222 53.1689 68.1402 53.6297 68.1396H65.4482C65.909 68.1402 66.3507 68.3222 66.6766 68.646C67.0024 68.9697 67.1857 69.4086 67.1862 69.8664V117.296C67.1857 117.754 67.0024 118.193 66.6766 118.516C66.3507 118.84 65.909 119.022 65.4482 119.023ZM53.6297 68.6001C53.2918 68.6005 52.9678 68.734 52.7289 68.9714C52.4899 69.2088 52.3555 69.5307 52.3551 69.8664V117.296C52.3555 117.632 52.4899 117.954 52.7289 118.191C52.9678 118.428 53.2918 118.562 53.6297 118.562H65.4482C65.7861 118.562 66.11 118.428 66.349 118.191C66.5879 117.954 66.7223 117.632 66.7227 117.296V69.8664C66.7223 69.5307 66.5879 69.2088 66.349 68.9714C66.11 68.734 65.7861 68.6005 65.4482 68.6001H53.6297Z" fill="white"/>
<path d="M93.488 119.023H81.6696C81.2088 119.022 80.767 118.84 80.4412 118.517C80.1153 118.193 79.9321 117.754 79.9315 117.296V39.7052C79.9321 39.2474 80.1153 38.8084 80.4412 38.4847C80.767 38.161 81.2088 37.9789 81.6696 37.9784H93.488C93.9488 37.9789 94.3906 38.161 94.7164 38.4847C95.0423 38.8084 95.2255 39.2474 95.226 39.7052V117.296C95.2255 117.754 95.0423 118.193 94.7164 118.517C94.3906 118.84 93.9488 119.022 93.488 119.023ZM81.6696 38.4389C81.3316 38.4393 81.0077 38.5728 80.7687 38.8102C80.5298 39.0476 80.3954 39.3695 80.395 39.7052V117.296C80.3954 117.632 80.5298 117.954 80.7687 118.191C81.0077 118.428 81.3316 118.562 81.6696 118.562H93.488C93.8259 118.562 94.1499 118.428 94.3889 118.191C94.6278 117.954 94.7622 117.632 94.7626 117.296V39.7052C94.7622 39.3695 94.6278 39.0476 94.3889 38.8102C94.1499 38.5728 93.8259 38.4393 93.488 38.4389H81.6696Z" fill="white"/>
<path d="M121.79 118.908H109.971C109.572 118.907 109.189 118.749 108.907 118.469C108.624 118.188 108.465 117.808 108.465 117.411V8.04722C108.465 7.65045 108.624 7.27006 108.907 6.9895C109.189 6.70894 109.572 6.55112 109.971 6.55066H121.79C122.189 6.55112 122.572 6.70894 122.854 6.9895C123.137 7.27006 123.295 7.65045 123.296 8.04722V117.411C123.295 117.808 123.137 118.188 122.854 118.469C122.572 118.749 122.189 118.907 121.79 118.908Z" fill="#EDE04B"/>
<path d="M48.2863 51.3614C48.3291 51.0256 48.2974 50.6846 48.1933 50.3623C48.0891 50.04 47.9151 49.7444 47.6836 49.4961C47.452 49.2479 47.1684 49.0531 46.8529 48.9255C46.5373 48.7979 46.1975 48.7407 45.8573 48.7577L41.7378 41.2498L40.8109 44.4731L43.6331 51.354C43.6998 51.92 43.9732 52.442 44.4013 52.8212C44.8295 53.2003 45.3828 53.4102 45.9564 53.4111C46.53 53.4121 47.0839 53.2039 47.5133 52.8261C47.9427 52.4483 48.2178 51.9272 48.2863 51.3614V51.3614Z" fill="#A0616A"/>
<path d="M16.5471 81.006L18.8415 82.6704L26.3949 74.6688L23.0083 72.2124L16.5471 81.006Z" fill="#A0616A"/>
<path d="M21.7113 87.9971L14.4997 82.7662L16.5338 79.9979L20.9591 83.2077C21.6981 83.7437 22.1925 84.5495 22.3335 85.4476C22.4746 86.3458 22.2508 87.2629 21.7113 87.9971L21.7113 87.9971Z" fill="#2F2E41"/>
<path d="M28.6865 89.816L31.5276 89.8158L32.879 78.9282L28.686 78.9284L28.6865 89.816Z" fill="#A0616A"/>
<path d="M37.0068 92.4366L28.0779 92.4371L28.0777 89.0095L33.5568 89.0093C34.4718 89.0092 35.3493 89.3703 35.9963 90.013C36.6433 90.6558 37.0068 91.5276 37.0068 92.4366Z" fill="#2F2E41"/>
<path d="M37.2189 47.3511C37.2189 47.3511 38.6093 60.7051 35.1333 69.9147L32.5842 87.4129H28.1813L28.6447 66.6913L27.0226 48.2721C27.0226 48.2721 30.2669 39.9835 37.2189 47.3511Z" fill="#2F2E41"/>
<path d="M22.1562 48.272L26.7909 64.1585L17.7533 78.4334L22.2721 82.2324L32.5843 66.2307L29.5717 46.6603L22.1562 48.272Z" fill="#2F2E41"/>
<path d="M33.9756 12.6479C37.119 12.6479 39.6672 10.1161 39.6672 6.99294C39.6672 3.86981 37.119 1.33801 33.9756 1.33801C30.8322 1.33801 28.2839 3.86981 28.2839 6.99294C28.2839 10.1161 30.8322 12.6479 33.9756 12.6479Z" fill="#A0616A"/>
<path d="M29.2241 14.7722C29.2241 14.7722 32.7001 12.4698 36.6396 17.5351L37.6824 49.4233C37.6824 49.4233 34.6698 45.279 28.413 49.1931C22.1562 53.1072 20.7657 48.7326 20.7657 48.7326C20.7657 48.7326 16.3628 15.8083 29.2241 14.7722Z" fill="#CCCCCC"/>
<path d="M36.3592 17.4546C37.3589 17.5083 38.3034 17.9274 39.0108 18.6313C39.7183 19.3352 40.1388 20.2741 40.1914 21.2674L40.9267 35.1484L45.7931 48.272L43.0123 50.5744L33.9746 34.9181L32.1243 22.0493C32.0395 21.4595 32.0874 20.8583 32.2645 20.289C32.4416 19.7198 32.7435 19.1966 33.1485 18.7572C33.5535 18.3178 34.0515 17.9731 34.6067 17.7478C35.1619 17.5226 35.7604 17.4224 36.3592 17.4546Z" fill="#CCCCCC"/>
<path d="M29.7934 11.2349C30.7239 12.2196 32.4519 11.691 32.5732 10.3457C32.5827 10.2412 32.582 10.1361 32.5711 10.0318C32.5085 9.43587 32.162 8.89485 32.245 8.26564C32.2638 8.10904 32.3225 7.9598 32.4156 7.83207C33.1571 6.84558 34.8976 8.2733 35.5974 7.38026C36.0265 6.83267 35.5221 5.97051 35.8514 5.35849C36.286 4.55071 37.5732 4.94919 38.3804 4.50681C39.2786 4.01461 39.2249 2.6455 38.6337 1.81273C37.9126 0.797141 36.6485 0.255213 35.4 0.177104C34.1516 0.0989952 32.9118 0.434303 31.7463 0.885587C30.422 1.39833 29.1088 2.10697 28.2939 3.26388C27.3028 4.67081 27.2075 6.56229 27.7031 8.20743C28.0046 9.20819 29.0336 10.4307 29.7934 11.2349Z" fill="#2F2E41"/>
<path d="M150.876 118.925H0.875921C0.80288 118.925 0.732901 118.896 0.681328 118.845C0.629755 118.793 0.6008 118.724 0.6008 118.651C0.6008 118.579 0.629755 118.509 0.681328 118.458C0.732901 118.406 0.80288 118.377 0.875921 118.377H150.876C150.949 118.377 151.019 118.406 151.071 118.458C151.123 118.509 151.152 118.579 151.152 118.651C151.152 118.724 151.123 118.793 151.071 118.845C151.019 118.896 150.949 118.925 150.876 118.925Z" fill="white"/>
</g>
<defs>
<clipPath id="clip0">
<rect width="150.552" height="118.857" fill="white" transform="translate(0.600006 0.165771)"/>
</clipPath>
</defs>
</svg>
