<svg width="149" height="86" viewBox="0 0 149 86" fill="none" xmlns="http://www.w3.org/2000/svg">
<g clip-path="url(#clip0)">
<path d="M4.19345 78.3146C4.77909 78.5204 5.40788 78.572 6.01924 78.4643C6.6306 78.3566 7.20392 78.0933 7.68397 77.6997C8.90652 76.6735 9.2899 74.9835 9.6017 73.4182L10.5242 68.7881L8.59288 70.1179C7.2039 71.0742 5.78372 72.0613 4.8221 73.4465C3.86047 74.8316 3.44094 76.7227 4.21335 78.2216" fill="#E6E6E6"/>
<path d="M4.49163 84.2427C4.24855 82.4717 3.99844 80.6778 4.16936 78.8878C4.32083 77.2981 4.80585 75.7457 5.79325 74.4723C6.31737 73.7978 6.95512 73.2199 7.67784 72.7645C7.86625 72.6456 8.0397 72.9442 7.85209 73.0626C6.60156 73.8529 5.63431 75.0199 5.08979 76.3953C4.48841 77.9248 4.39185 79.5922 4.49543 81.217C4.55805 82.1996 4.6911 83.1757 4.82472 84.1507C4.83527 84.1948 4.82868 84.2413 4.80629 84.2807C4.7839 84.3201 4.74737 84.3495 4.7041 84.3631C4.65995 84.375 4.6129 84.369 4.57314 84.3464C4.53339 84.3238 4.50414 84.2865 4.49175 84.2425L4.49163 84.2427Z" fill="#F2F2F2"/>
<path d="M6.24121 81.4003C6.49234 81.7822 6.83758 82.0929 7.24367 82.3025C7.64975 82.5122 8.10299 82.6137 8.55971 82.5973C9.73369 82.5416 10.712 81.7226 11.5926 80.9448L14.1978 78.6446L12.4737 78.5621C11.2337 78.5027 9.96181 78.447 8.78081 78.8298C7.59981 79.2126 6.51065 80.1324 6.29473 81.3549" fill="#E6E6E6"/>
<path d="M3.80445 85.2601C4.97474 83.1894 6.33208 80.8881 8.7576 80.1525C9.43196 79.9487 10.1391 79.8757 10.8408 79.9374C11.0621 79.9565 11.0068 80.2974 10.7861 80.2784C9.60968 80.1807 8.43557 80.4914 7.46139 81.158C6.52394 81.7961 5.794 82.6832 5.17628 83.6239C4.79784 84.2002 4.45888 84.8009 4.11992 85.4008C4.01162 85.5925 3.69488 85.4541 3.80445 85.2601Z" fill="#F2F2F2"/>
<path d="M59.2597 27.2963C59.7886 27.2963 60.2172 26.8677 60.2172 26.3388C60.2172 25.81 59.7886 25.3813 59.2597 25.3813C58.7309 25.3813 58.3022 25.81 58.3022 26.3388C58.3022 26.8677 58.7309 27.2963 59.2597 27.2963Z" fill="#E5E5E5"/>
<path d="M82.1586 33.8029C78.4336 32.2571 74.855 30.3797 71.4661 28.1933C63.3279 22.9585 57.779 16.9038 57.6583 13.1268C57.6231 12.0229 58.0331 11.1475 58.8772 10.5249C60.2425 9.51782 62.6766 9.27618 65.9166 9.82561L65.8366 10.2977C62.7278 9.77028 60.4195 9.98215 59.1613 10.9102C58.4516 11.4337 58.1069 12.1743 58.1368 13.1115C58.2527 16.7382 63.7134 22.6373 71.7251 27.7906C75.0894 29.9613 78.6421 31.8252 82.3401 33.3598L82.1586 33.8029Z" fill="white"/>
<path d="M93.6809 36.6392C92.2611 36.6392 90.5797 36.4106 88.6678 35.9523L88.7794 35.4868C92.7938 36.449 95.8317 36.3689 97.3334 35.2612C98.0432 34.7377 98.3878 33.997 98.3579 33.0599C98.242 29.4332 92.7813 23.5341 84.7696 18.3808C80.7091 15.7689 76.3964 13.5937 72.2979 12.0903L72.4627 11.6409C76.5938 13.1561 80.939 15.3475 85.0286 17.9781C93.1668 23.2129 98.7157 29.2676 98.8364 33.0446C98.8717 34.1485 98.4616 35.0239 97.6176 35.6464C96.7212 36.3076 95.3907 36.6392 93.6809 36.6392Z" fill="white"/>
<path d="M62.8277 36.6337C61.1131 36.6338 59.7704 36.3048 58.8772 35.646C58.0331 35.0235 57.6231 34.1481 57.6583 33.0442C57.779 29.2672 63.328 23.2124 71.4661 17.9777C80.5615 12.1272 90.7707 8.65996 95.7415 9.73387L95.6404 10.2019C90.7819 9.15172 80.724 12.5919 71.7251 18.3804C63.7134 23.5337 58.2528 29.4327 58.1368 33.0594C58.1069 33.9966 58.4516 34.7372 59.1613 35.2608C62.756 37.9118 74.2438 34.5607 84.7696 27.7902C92.0002 23.1393 97.1379 17.9355 98.1779 14.2097L98.639 14.3385C97.5689 18.1724 92.3537 23.4811 85.0286 28.1929C79.8736 31.5087 74.3306 34.1145 69.4209 35.5301C66.8706 36.2654 64.6412 36.6336 62.8277 36.6337Z" fill="white"/>
<path d="M69.1877 12.216C69.9809 12.216 70.6239 11.573 70.6239 10.7797C70.6239 9.98653 69.9809 9.34351 69.1877 9.34351C68.3945 9.34351 67.7515 9.98653 67.7515 10.7797C67.7515 11.573 68.3945 12.216 69.1877 12.216Z" fill="#EDE04B"/>
<path d="M85.2258 36.2331C86.019 36.2331 86.662 35.5901 86.662 34.7968C86.662 34.0036 86.019 33.3606 85.2258 33.3606C84.4326 33.3606 83.7896 34.0036 83.7896 34.7968C83.7896 35.5901 84.4326 36.2331 85.2258 36.2331Z" fill="#EDE04B"/>
<path d="M89.6941 48.84C90.2229 48.84 90.6516 48.4114 90.6516 47.8825C90.6516 47.3537 90.2229 46.925 89.6941 46.925C89.1653 46.925 88.7366 47.3537 88.7366 47.8825C88.7366 48.4114 89.1653 48.84 89.6941 48.84Z" fill="#E5E5E5"/>
<path d="M66.0757 2.72066C66.6045 2.72066 67.0332 2.29197 67.0332 1.76316C67.0332 1.23435 66.6045 0.805664 66.0757 0.805664C65.5469 0.805664 65.1182 1.23435 65.1182 1.76316C65.1182 2.29197 65.5469 2.72066 66.0757 2.72066Z" fill="#E5E5E5"/>
<path d="M97.8325 12.934C98.6257 12.934 99.2688 12.291 99.2688 11.4978C99.2688 10.7046 98.6257 10.0615 97.8325 10.0615C97.0393 10.0615 96.3962 10.7046 96.3962 11.4978C96.3962 12.291 97.0393 12.934 97.8325 12.934Z" fill="#EDE04B"/>
<path d="M51.09 85.8632H0.502356C0.460032 85.8632 0.419442 85.8464 0.389514 85.8165C0.359586 85.7866 0.342773 85.746 0.342773 85.7036C0.342773 85.6613 0.359586 85.6207 0.389514 85.5908C0.419442 85.5609 0.460032 85.5441 0.502356 85.5441H51.09C51.1324 85.5441 51.173 85.5609 51.2029 85.5908C51.2328 85.6207 51.2496 85.6613 51.2496 85.7036C51.2496 85.746 51.2328 85.7866 51.2029 85.8165C51.173 85.8464 51.1324 85.8632 51.09 85.8632Z" fill="#CBCBCB"/>
<path d="M30.4556 83.7264L32.4121 83.7262L33.3428 76.1799L30.4553 76.1801L30.4556 83.7264Z" fill="#FFB7B7"/>
<path d="M29.9565 83.0874L33.8095 83.0873H33.8097C34.4609 83.0873 35.0854 83.346 35.5459 83.8065C36.0063 84.2669 36.265 84.8915 36.2651 85.5427V85.6225L29.9567 85.6227L29.9565 83.0874Z" fill="#2F2E41"/>
<path d="M22.6358 83.8859L24.5923 83.8858L25.523 76.3395L22.6355 76.3396L22.6358 83.8859Z" fill="#FFB7B7"/>
<path d="M22.137 83.2471L25.9899 83.2469H25.9901C26.6413 83.247 27.2658 83.5057 27.7263 83.9661C28.1867 84.4266 28.4455 85.0511 28.4455 85.7023V85.7821L22.1371 85.7823L22.137 83.2471Z" fill="#2F2E41"/>
<path d="M34.5616 51.9987L33.5668 81.0755H30.3752L27.3503 55.0188L26.0665 81.3946H22.0769L20.9746 50.1531L33.2226 49.9854L34.5616 51.9987Z" fill="#2F2E41"/>
<path d="M24.7496 28.4321L30.3752 28.254L31.6288 51.4119L22.7363 51.2338L24.7496 28.4321Z" fill="#CBCBCB"/>
<path d="M29.1959 52.6702L35.0682 52.5024L33.3904 44.1134L33.5582 39.2477L34.9004 31.362L31.2092 29.1809L30.3703 28.1742C30.3703 28.1742 29.0281 29.5164 29.0281 35.7243C29.0281 41.9322 29.1959 52.6702 29.1959 52.6702Z" fill="#2F2E41"/>
<path d="M24.1623 52.5025C24.1623 52.5025 29.1957 40.3826 27.0146 34.9495C27.0146 34.9495 26.2721 29.0131 25.0495 28.1742L23.1556 29.0131L19.1289 31.0265L20.6389 35.221L20.1356 38.7444L19.8 50.9925L24.1623 52.5025Z" fill="#2F2E41"/>
<path d="M20.6928 52.7527C20.4846 52.6549 20.3004 52.5127 20.1532 52.336C20.0059 52.1593 19.8992 51.9525 19.8405 51.7301C19.7818 51.5077 19.7726 51.2752 19.8135 51.0488C19.8544 50.8225 19.9445 50.6079 20.0773 50.4201L18.1619 47.3777L19.7269 45.7627L22.3715 50.0973C22.6721 50.3413 22.8728 50.6872 22.9355 51.0693C22.9982 51.4514 22.9185 51.8433 22.7116 52.1706C22.5047 52.4979 22.1849 52.7379 21.8128 52.8452C21.4408 52.9525 21.0423 52.9196 20.6928 52.7527V52.7527Z" fill="#FFB7B7"/>
<path d="M35.9911 55.6591C35.8196 55.5058 35.6838 55.3168 35.5933 55.1054C35.5028 54.8939 35.4597 54.6652 35.4671 54.4353C35.4745 54.2054 35.5323 53.98 35.6363 53.7748C35.7403 53.5697 35.888 53.3898 36.069 53.2479L35.1045 49.7845L37.0662 48.6851L38.3596 53.5952C38.5778 53.9151 38.6711 54.3039 38.6218 54.688C38.5725 55.0721 38.384 55.4248 38.092 55.6792C37.8001 55.9336 37.425 56.072 37.0378 56.0683C36.6505 56.0646 36.2781 55.919 35.9911 55.6591H35.9911Z" fill="#FFB7B7"/>
<path d="M20.9746 30.691L19.129 31.0266L15.1023 40.7579L18.7935 50.3214L21.3102 47.9725L18.9613 42.2679C18.9613 42.2679 19.129 41.5968 18.9613 41.5129C18.7935 41.429 19.2078 40.8889 19.129 40.8471C18.9613 40.7579 19.4646 39.919 19.4646 39.919L21.478 35.7245L20.9746 30.691Z" fill="#2F2E41"/>
<path d="M33.0548 31.3618H34.9006L36.9139 41.7642L36.7462 43.442L37.4172 47.6365L38.3401 51.9149L35.4039 51.9989L33.8938 44.1131L32.5515 38.7443L33.0548 31.3618Z" fill="#2F2E41"/>
<path d="M27.6566 26.8839C29.8213 26.8839 31.5761 25.1291 31.5761 22.9644C31.5761 20.7997 29.8213 19.0449 27.6566 19.0449C25.4919 19.0449 23.7371 20.7997 23.7371 22.9644C23.7371 25.1291 25.4919 26.8839 27.6566 26.8839Z" fill="#FFB7B7"/>
<path d="M30.7701 19.798L31.4661 19.5449C31.4661 19.5449 30.0109 18.0898 27.9863 18.2163L28.5557 17.6469C28.5557 17.6469 27.1638 17.1408 25.8985 18.4694C25.2333 19.1678 24.4637 19.9888 23.9839 20.9136H23.2386L23.5497 21.5357L22.4609 22.1578L23.5784 22.0461C23.4726 22.5832 23.509 23.1387 23.6841 23.6574L23.9372 24.3533C23.9372 24.3533 24.9495 22.3287 24.9495 22.0756V22.7083C24.9495 22.7083 25.6454 22.1389 25.6454 21.7593L26.025 22.2022L26.2148 21.5062L28.5557 22.2022L28.1761 21.6328L29.6313 21.8226L29.0619 21.1266C29.0619 21.1266 30.7068 21.9491 30.7701 22.6451C30.8334 23.341 31.6559 24.2268 31.6559 24.2268L32.0355 23.5941C32.0355 23.5941 32.6049 20.747 30.7701 19.798Z" fill="#2F2E41"/>
<path d="M120.2 76.3633L117.398 75.5491L116.174 83.1361L118.073 83.6879L120.2 76.3633Z" fill="#9F616A"/>
<path d="M111.999 83.836L112.08 83.5582C112.236 83.0203 112.6 82.5666 113.091 82.2967C113.581 82.0268 114.159 81.963 114.697 82.1192L118.637 83.2637L117.967 85.5696L111.999 83.836H111.999Z" fill="#2F2E41"/>
<path d="M137.697 76.1062L134.779 76.1061L135.72 83.7333L137.697 83.7335L137.697 76.1062Z" fill="#9F616A"/>
<path d="M131.906 85.569L131.906 85.2798C131.906 85.0024 131.96 84.7278 132.067 84.4716C132.173 84.2154 132.328 83.9826 132.524 83.7865C132.721 83.5904 132.953 83.4348 133.21 83.3287C133.466 83.2226 133.74 83.168 134.018 83.168L138.121 83.1682L138.121 85.5693L131.906 85.569Z" fill="#2F2E41"/>
<path d="M135.014 57.6229C135.404 57.436 135.704 57.1018 135.847 56.6939C135.991 56.2859 135.966 55.8376 135.78 55.4476L135.227 50.2422L132.473 49.0651L133.499 54.7367C133.133 54.9463 132.862 55.29 132.744 55.6953C132.625 56.1006 132.669 56.536 132.865 56.9099C133.061 57.2838 133.395 57.5671 133.795 57.7C134.196 57.833 134.633 57.8054 135.014 57.6229Z" fill="#9F616A"/>
<path d="M134.521 43.6027L131.29 33.7931C131.222 33.6806 130.418 32.4147 128.666 32.9532C128.473 33.0076 128.293 33.1011 128.137 33.2281C127.982 33.355 127.854 33.5125 127.762 33.6909C127.249 34.6738 127.727 36.1922 127.729 36.2002L131.708 45.1151L131.712 45.1243L132.967 54.2795L135.679 53.729L134.521 43.6027Z" fill="#EDE04B"/>
<path d="M113.043 79.8925L117.907 64.9787L123.546 52.089L123.465 45.8375L130.157 44.2771L130.936 46.897C135.443 49.8709 133.958 55.5916 133.852 55.975L140.643 81.0366L133.239 81.8593L128.268 58.1306L123.685 67.7723L120.444 82.1949L113.043 79.8925Z" fill="#2F2E41"/>
<path d="M122.982 40.5897C121.652 38.0394 122.614 37.0682 124.068 35.5993C124.663 35.0191 125.221 34.4025 125.739 33.753C128.008 30.8354 130.642 32.2683 130.668 32.2832L130.683 32.2915L131.334 33.2676C133.478 35.4258 130.226 41.3563 129.979 41.7979L130.142 46.0386L123.227 46.6972L122.982 40.5897Z" fill="#EDE04B"/>
<path d="M127.254 31.0247C129.442 31.0247 131.216 29.251 131.216 27.0631C131.216 24.8752 129.442 23.1016 127.254 23.1016C125.066 23.1016 123.292 24.8752 123.292 27.0631C123.292 29.251 125.066 31.0247 127.254 31.0247Z" fill="#9F616A"/>
<path d="M125.617 56.9617C125.783 57.325 126.076 57.615 126.441 57.7767C126.806 57.9385 127.217 57.9607 127.598 57.8392C127.978 57.7177 128.3 57.461 128.504 57.1176C128.708 56.7742 128.778 56.368 128.702 55.9761L129.485 50.8002L127.118 48.9645L126.676 54.7114C126.447 54.7717 126.234 54.8816 126.051 55.0333C125.869 55.185 125.722 55.3748 125.621 55.5893C125.52 55.8039 125.468 56.038 125.467 56.2751C125.466 56.5122 125.518 56.7466 125.617 56.9617V56.9617Z" fill="#9F616A"/>
<path d="M126.119 54.2673L127.236 44.9621L125.643 35.3331C125.64 35.2656 125.56 33.6687 126.345 32.8032C126.492 32.6397 126.67 32.5081 126.87 32.4167C127.07 32.3252 127.286 32.2759 127.506 32.2716C129.496 32.1845 129.972 33.8422 129.976 33.8589L130.624 44.2032L129.162 54.4364L126.119 54.2673Z" fill="#EDE04B"/>
<path d="M123.214 26.3772L123.429 26.0301C123.966 25.9231 124.522 25.9862 125.021 26.2106C125.519 26.435 125.936 26.8094 126.211 27.2816C126.347 26.7803 127.156 26.8062 127.455 27.2307C127.754 27.6553 127.688 28.229 127.591 28.7393C127.494 29.2495 127.384 29.8041 127.62 30.267C127.745 30.4832 127.926 30.6622 128.144 30.7858C128.361 30.9095 128.607 30.9733 128.857 30.9708C129.359 30.9587 129.847 30.8035 130.263 30.5236C131.029 30.0362 131.641 29.3421 132.029 28.5217C132.417 27.7012 132.565 26.7877 132.456 25.8866C132.355 25.1849 132.094 24.5156 131.694 23.9306C131.923 23.9133 132.137 23.8091 132.293 23.6394C132.4 23.4992 132.467 23.332 132.486 23.1563C132.504 22.9806 132.474 22.8032 132.398 22.6436C132.265 22.3647 132.063 22.1245 131.81 21.9462C131.992 22.0909 132.205 22.1905 132.432 22.2366C132.712 22.2769 133.038 22.1317 133.089 21.8623C133.137 21.6057 132.931 21.3721 132.741 21.184C132.618 21.062 132.495 20.9399 132.372 20.8179C132.436 20.7456 132.495 20.6694 132.55 20.5898C132.755 20.302 132.873 19.9611 132.889 19.608C132.906 19.2549 132.82 18.9046 132.642 18.5991C132.994 19.2012 132.685 19.9176 132.064 20.4057C132.044 20.4214 132.021 20.4351 132.001 20.4504L131.765 20.217C131.581 20.0077 131.355 19.8389 131.102 19.7212C130.841 19.6212 130.508 19.6505 130.338 19.8627C130.156 20.0898 130.207 20.451 129.994 20.6508C129.808 20.8256 129.504 20.7963 129.253 20.7226C129.002 20.6488 128.742 20.5409 128.489 20.5962C128.318 20.6466 128.172 20.7586 128.08 20.9105C127.987 21.0623 127.954 21.2432 127.987 21.418C128.016 21.5687 128.079 21.7106 128.173 21.8322C127.471 21.7726 126.766 21.7705 126.064 21.8257C125.238 21.8717 124.394 21.9289 123.633 22.2513C122.871 22.5737 122.194 23.215 122.053 24.0303C121.912 24.8455 122.39 26.3055 123.214 26.3772Z" fill="#2F2E41"/>
<path d="M148.755 85.8632H98.1669C98.1246 85.8632 98.084 85.8464 98.0541 85.8165C98.0241 85.7866 98.0073 85.746 98.0073 85.7036C98.0073 85.6613 98.0241 85.6207 98.0541 85.5908C98.084 85.5609 98.1246 85.5441 98.1669 85.5441H148.755C148.797 85.5441 148.838 85.5609 148.867 85.5908C148.897 85.6207 148.914 85.6613 148.914 85.7036C148.914 85.746 148.897 85.7866 148.867 85.8165C148.838 85.8464 148.797 85.8632 148.755 85.8632Z" fill="#CBCBCB"/>
</g>
<defs>
<clipPath id="clip0">
<rect width="148.571" height="85.0575" fill="white" transform="translate(0.342773 0.805664)"/>
</clipPath>
</defs>
</svg>
