<svg width="30" height="32" viewBox="0 0 30 32" fill="none" xmlns="http://www.w3.org/2000/svg">
<g clip-path="url(#clip0)">
<path d="M18.9272 14.9453L12.5258 17.0356L6.95674 19.4935L5.39871 19.9048C5.00191 20.2822 4.58585 20.6645 4.13586 21.0516C3.64234 21.4773 3.18269 21.8645 2.82942 22.1451C2.43753 22.4547 1.8569 23.0354 1.56178 23.403C1.12145 23.9546 0.773089 24.54 0.623084 24.9901C0.356945 25.803 0.487649 26.6255 1.00052 27.3852C1.65855 28.3528 2.96981 29.3399 4.49872 30.0124C5.27778 30.356 6.58899 30.7963 7.57601 31.043C9.21623 31.4591 12.3903 31.9091 14.137 31.9769C14.4901 31.9914 14.9644 31.9914 14.9837 31.9769C15.0224 31.9526 15.2934 31.435 15.6079 30.7915C16.6821 28.5996 17.4562 26.5432 17.8772 24.7869C18.1287 23.7225 18.3271 22.3048 18.4577 20.6259C18.4916 20.1565 18.5061 18.584 18.4771 18.0517C18.4335 17.1808 18.3561 16.4744 18.2352 15.7825C18.2158 15.6809 18.2109 15.5889 18.2206 15.5841C18.2399 15.5696 18.298 15.5503 19.0867 15.3228L18.9271 14.9455V14.9454H18.9272V14.9453ZM17.466 15.8018C17.524 15.8018 17.6788 17.2872 17.7175 18.2259C17.7272 18.4243 17.7223 18.5549 17.7127 18.5549C17.674 18.5549 16.8949 18.0953 16.3386 17.7469C15.8547 17.4421 14.9355 16.8324 14.7903 16.7163C14.7418 16.6824 14.7466 16.6776 15.1435 16.5421C15.816 16.3146 17.4127 15.8018 17.466 15.8018ZM14.2048 16.876C14.2484 16.876 14.3596 16.9388 14.6257 17.1033C15.6224 17.7275 16.9773 18.4823 17.5579 18.734C17.7369 18.8114 17.7562 18.7823 17.345 19.063C16.4643 19.6629 15.3659 20.2532 14.0208 20.8483C13.7838 20.9548 13.5854 21.037 13.5806 21.037C13.571 21.037 13.5999 20.9161 13.6386 20.7709C13.9628 19.5661 14.1467 18.3468 14.1564 17.3694C14.1612 16.8855 14.1612 16.8855 14.2048 16.8711C14.1951 16.876 14.1999 16.876 14.2048 16.876ZM13.5323 17.1324C13.5612 17.1613 13.5419 18.2452 13.5032 18.5403C13.4161 19.2468 13.2806 19.9048 13.0581 20.6452C13.0049 20.8241 12.9564 20.9741 12.9468 20.9838C12.9274 21.0079 12.2645 20.3596 12.0468 20.108C11.6694 19.6725 11.3743 19.2371 11.1565 18.8113C11.0452 18.5936 10.8711 18.1678 10.8856 18.1533C10.963 18.1001 13.5129 17.113 13.5323 17.1324ZM10.3678 18.3758C10.3726 18.3758 10.3775 18.3758 10.3824 18.3807C10.392 18.3903 10.4259 18.4678 10.455 18.5548C10.6098 18.9758 10.9581 19.5951 11.2581 19.9919C11.5872 20.4274 12.0178 20.8918 12.3758 21.1967C12.492 21.2934 12.5983 21.3853 12.6128 21.3999C12.6419 21.4289 12.6516 21.424 11.8629 21.7241C10.9485 22.0724 9.9517 22.4208 8.80979 22.7885C8.53701 22.8764 8.26448 22.9651 7.9922 23.0546C7.94858 23.0692 7.96313 23.0449 8.08893 22.8466C8.65501 21.9611 9.51623 20.2241 10.0001 18.9952C10.0824 18.7823 10.1646 18.5694 10.1792 18.521C10.1985 18.4532 10.2227 18.4291 10.2856 18.3952C10.3194 18.3856 10.3533 18.3758 10.3678 18.3758ZM9.40021 18.7774C9.41469 18.7872 9.16792 19.3048 8.92599 19.779C8.45663 20.6935 7.94376 21.5935 7.25671 22.687C7.14059 22.8756 7.02935 23.0499 7.0148 23.0692C6.99063 23.1031 6.98091 23.0934 6.90351 22.9434C6.739 22.6192 6.60347 22.2031 6.53092 21.8208C6.45831 21.4434 6.47286 20.7854 6.55515 20.379C6.61798 20.079 6.6132 20.0839 6.75834 20.0113C7.37766 19.6968 9.38084 18.7581 9.40021 18.7774ZM17.7466 19.1162V19.3194C17.7466 20.3984 17.6305 21.8789 17.4611 22.958C17.432 23.1466 17.4077 23.3014 17.403 23.3063C17.403 23.3063 17.2627 23.2676 17.0982 23.2192C16.3724 22.9918 15.5838 22.6579 14.8725 22.2661C14.4031 22.0096 13.7209 21.5886 13.7403 21.5692C13.745 21.5644 13.9483 21.458 14.1853 21.3322C15.1338 20.8387 16.0434 20.3064 16.832 19.779C17.1272 19.5806 17.5723 19.2614 17.6692 19.1742L17.7466 19.1162ZM5.74707 20.5483C5.76641 20.5483 5.76157 20.587 5.73254 20.7612C5.71317 20.887 5.68901 21.1193 5.67939 21.2789C5.64059 21.9853 5.75679 22.5079 6.10515 23.224C6.20192 23.4224 6.27939 23.5869 6.27448 23.5917C6.24059 23.6207 3.03757 24.5594 2.03109 24.8352C1.73113 24.9174 1.4699 24.99 1.45044 24.9948C1.41664 25.0045 1.41177 24.9997 1.42628 24.9174C1.53755 24.2062 2.07949 23.2772 2.83426 22.4933C3.33749 21.9708 3.73911 21.666 4.42617 21.274C4.91969 20.9934 5.67933 20.5725 5.73738 20.5531C5.73743 20.5483 5.74225 20.5483 5.74707 20.5483ZM13.2952 21.8982C13.3 21.8934 13.4161 21.9563 13.5564 22.0386C14.5918 22.6386 16.0337 23.195 17.2626 23.4804L17.374 23.5047L17.2191 23.5917C16.5756 23.9497 14.4612 24.8303 12.2984 25.6384C11.9839 25.7545 11.6742 25.8706 11.6161 25.8948C11.558 25.919 11.5048 25.9335 11.5048 25.9287C11.5048 25.9238 11.592 25.7545 11.7032 25.5464C12.308 24.4142 12.9177 23.0353 13.2273 22.0773C13.2661 21.9853 13.2902 21.9031 13.2952 21.8982ZM12.5258 22.1499C12.5307 22.1548 12.492 22.2563 12.4436 22.3724C12.0226 23.3933 11.471 24.5063 10.7646 25.7545C10.5856 26.0739 10.4356 26.3304 10.4307 26.3304C10.4259 26.3304 10.2807 26.2432 10.1065 26.1368C9.08072 25.5078 8.17113 24.7336 7.57604 23.9837L7.48891 23.8772L7.92917 23.7562C9.50655 23.3257 10.8468 22.8612 12.1774 22.2902C12.3661 22.2128 12.521 22.1499 12.5258 22.1499ZM17.3063 23.8191C17.3063 23.8191 17.3111 23.824 17.3063 23.8191C17.3111 23.9304 17.0643 24.9272 16.8611 25.648C16.6918 26.2528 16.5465 26.7271 16.2805 27.5641C16.1644 27.9319 16.0628 28.2366 16.0579 28.2366C16.0531 28.2366 16.0241 28.2318 15.995 28.2222C14.558 27.9608 13.271 27.5979 12.0613 27.1141C11.7226 26.9786 11.2388 26.7609 11.2097 26.7367C11.2001 26.7269 11.4904 26.5915 11.8581 26.4319C14.0597 25.469 16.3434 24.3755 17.1272 23.9062C17.2191 23.8481 17.2917 23.8191 17.3063 23.8191ZM6.26966 24.1966C6.27935 24.2062 5.66485 25.0917 4.80355 26.2964C4.50359 26.7174 4.15523 27.2109 4.02461 27.3947C3.89395 27.5786 3.6956 27.8689 3.58431 28.0431L3.381 28.3576L3.16325 28.1738C2.9068 27.9609 2.46172 27.5061 2.26334 27.2545C1.84719 26.7368 1.56662 26.19 1.45533 25.6917C1.40209 25.4594 1.40209 25.3432 1.45042 25.3288C1.52298 25.3095 2.81487 25.0046 4.02457 24.7239C4.69712 24.5692 5.47606 24.3853 5.75671 24.3176C6.03737 24.2497 6.26484 24.1966 6.26966 24.1966ZM6.88896 24.4337L7.04374 24.6078C7.74057 25.3868 8.45181 25.9627 9.31306 26.4658C9.46793 26.5529 9.58402 26.6303 9.57429 26.6352C9.54051 26.6594 6.58411 27.7092 5.21483 28.1834C4.44555 28.4544 3.81167 28.6721 3.80689 28.6721C3.80207 28.6721 3.7585 28.6431 3.71004 28.6092L3.623 28.5463L3.76329 28.3431C4.21808 27.6851 4.78912 26.9642 6.0326 25.4642L6.88896 24.4337ZM10.7501 27.1964C10.7549 27.1916 10.9678 27.2689 11.229 27.3658C11.8581 27.6029 12.3564 27.7528 13.0242 27.9222C13.8468 28.1303 15.037 28.3335 15.7386 28.3915C15.8451 28.4012 15.9031 28.4109 15.8838 28.4254C15.8498 28.4448 15.1386 28.6819 14.6161 28.8464C13.7838 29.1076 11.2436 29.8576 9.17276 30.4527C8.79051 30.564 8.46147 30.6559 8.44213 30.6607C8.3938 30.6705 8.23407 30.6269 8.23407 30.6075C8.23407 30.5979 8.35018 30.4479 8.49052 30.2834C9.18722 29.4511 9.87919 28.5222 10.455 27.6416C10.6146 27.3996 10.7501 27.2012 10.7501 27.1964ZM9.89849 27.2206C9.90331 27.2254 9.55981 27.777 8.9599 28.7253C8.7034 29.1269 8.41792 29.5817 8.31629 29.7414C8.21952 29.8962 8.07438 30.1382 7.99216 30.2737L7.85182 30.5204L7.77926 30.5011C7.60502 30.4527 6.38091 30.022 6.05671 29.8914C5.6551 29.7317 5.239 29.5382 4.9293 29.3737C4.54228 29.1656 4.05846 28.8559 4.09713 28.8463C4.10679 28.8415 4.76968 28.6624 5.56799 28.4447C7.68729 27.8689 8.863 27.5351 9.63239 27.2932C9.77273 27.2496 9.89367 27.2157 9.89849 27.2206ZM15.9224 28.6334H15.9272C15.9466 28.6818 15.1628 30.8591 14.8772 31.5462C14.8144 31.701 14.7903 31.7398 14.7564 31.7348C14.6741 31.7301 13.5371 31.5704 12.8451 31.4688C11.6404 31.2849 9.61787 30.9316 9.10986 30.8156L8.99375 30.7914L9.71459 30.6268C11.263 30.2784 12.0081 30.0898 12.7629 29.8575C13.7161 29.5672 14.6596 29.2043 15.6128 28.7592C15.7627 28.6914 15.8886 28.6382 15.9224 28.6334Z" fill="url(#paint0_linear)"/>
<path d="M12.3276 0.0236853C12.2211 0.00924937 10.5034 0.628567 9.39544 1.07849C7.9003 1.68822 6.73914 2.26887 6.02301 2.77196C5.75693 2.96074 5.42301 3.29456 5.36986 3.42517C5.35052 3.47357 5.34079 3.53162 5.34079 3.58968L5.98918 4.20418L7.53262 4.6977L11.2051 5.35575L15.4048 6.0767L15.4484 5.71382C15.4339 5.71382 15.4242 5.709 15.4098 5.709L14.8581 5.62187L14.7469 5.42351C14.1759 4.41708 13.5469 3.16874 13.1792 2.32683C12.8938 1.67362 12.6228 0.918893 12.4728 0.376953C12.3905 0.0479385 12.3809 0.0285939 12.3277 0.0237745V0.0236629H12.3276V0.0236853ZM12.2501 0.270525H12.2551C12.2598 0.275299 12.2792 0.410868 12.2986 0.570444C12.3807 1.24793 12.5309 1.90103 12.7679 2.60748C12.9469 3.13973 12.9469 3.11073 12.7389 3.04778C12.2453 2.91235 10.0342 2.5301 8.43263 2.30753C8.17617 2.27364 7.95843 2.23979 7.95843 2.23497C7.93908 2.21563 9.1148 1.60109 9.63253 1.35922C10.2954 1.05433 12.1147 0.294689 12.2501 0.270525ZM7.58579 2.43815L7.77457 2.50098C8.80026 2.84941 11.3791 3.34295 12.8017 3.45906C12.9613 3.47359 13.0969 3.48814 13.1016 3.48814C13.1065 3.49296 12.9711 3.56554 12.7968 3.64776C12.1098 3.9913 11.355 4.41226 10.8324 4.73646C10.6777 4.83318 10.5373 4.91065 10.518 4.91065C10.4986 4.91065 10.397 4.89128 10.2906 4.87675L10.097 4.84768L9.61325 4.37348C8.76167 3.54615 8.09393 2.90748 7.83747 2.66551L7.58579 2.43815ZM7.39232 2.58811L8.07454 3.43972C8.44706 3.90905 8.82447 4.36868 8.90681 4.47025C8.98898 4.57193 9.05676 4.65421 9.05194 4.65903C9.03258 4.67354 8.06495 4.4848 7.55199 4.36873C7.0246 4.24773 6.80688 4.18967 6.4827 4.08811L6.21656 4.00098V3.9332C6.22138 3.609 6.63271 3.12518 7.32943 2.63171L7.39232 2.58811ZM13.1888 3.74937C13.2082 3.74937 13.2323 3.7929 13.2904 3.92354C13.4549 4.2864 13.9679 5.26383 14.0936 5.4525C14.1324 5.51546 14.2 5.52028 13.5179 5.40899C11.8776 5.1428 11.3502 5.05581 11.3502 5.04613C11.3502 5.04131 11.3986 5.00741 11.4615 4.97352C11.9695 4.69295 12.4824 4.33486 12.9372 3.95261C13.0485 3.86066 13.1501 3.77358 13.1694 3.75903C13.1743 3.74937 13.184 3.74455 13.1888 3.74937Z" fill="url(#paint1_linear)"/>
<path d="M5.40344 3.35742C5.40344 3.35742 5.29706 3.52684 5.39865 3.77845C5.46161 3.93323 5.64544 4.1219 5.85346 4.31548C5.85346 4.31548 8.00658 6.41537 8.26788 6.7154C9.4581 8.08949 9.97585 9.44429 10.0242 11.312C10.0533 12.5119 9.8258 13.5667 9.25974 14.7909C8.25333 16.9876 6.12919 19.4117 2.85355 22.1019L3.33263 21.9422C3.64228 21.7099 4.06324 21.4632 5.05027 20.9213C7.32916 19.6729 9.89358 18.5262 13.0386 17.3456C17.5674 15.6424 25.0139 13.6489 29.2523 13.0006L29.6927 12.9328L29.6249 12.8264C29.2379 12.2264 28.9717 11.8538 28.6523 11.4571C27.7234 10.3055 26.5961 9.37173 25.2171 8.59754C23.3204 7.53796 20.8672 6.71058 17.761 6.09608C17.1755 5.9799 15.8885 5.75736 14.8434 5.5977C12.6273 5.25424 11.1951 5.01711 9.61778 4.74615C9.05173 4.64934 8.20491 4.50422 7.64365 4.38329C7.35335 4.32032 6.79697 4.18971 6.36151 4.03973C6.01315 3.90418 5.5099 3.7687 5.40344 3.35742ZM6.65185 4.5671C6.65663 4.56232 6.73403 4.59126 6.83571 4.62515C7.01956 4.68798 7.25662 4.76059 7.53733 4.83806C7.74969 4.89647 7.96259 4.95291 8.176 5.00738C8.4663 5.07992 8.70818 5.14768 8.713 5.14768C8.74694 5.18157 9.23564 6.74429 9.40015 7.34429C9.46296 7.57176 9.51144 7.76525 9.5066 7.76525C9.50163 7.77016 9.44848 7.68785 9.3856 7.57658C8.81948 6.57983 7.92436 5.5686 6.8889 4.7557C6.75349 4.65902 6.65185 4.57192 6.65185 4.5671ZM9.03238 5.22513C9.05659 5.22513 9.16304 5.23965 9.29361 5.26866C10.1162 5.45251 11.5919 5.73315 12.5354 5.89284C12.6951 5.917 12.8209 5.9461 12.8209 5.95572C12.8209 5.96544 12.7628 5.99925 12.6902 6.038C12.5306 6.12022 11.887 6.50243 11.6742 6.64762C11.1371 7.00566 10.6533 7.39273 10.3049 7.74109C10.1646 7.88143 10.0436 7.99754 10.0436 7.99754C10.0436 7.99754 10.0146 7.91532 9.99033 7.81365C9.81625 7.14109 9.4533 6.14434 9.12428 5.4428C9.07105 5.33156 9.02747 5.22992 9.02747 5.22029C9.02747 5.22995 9.02747 5.22513 9.03238 5.22513ZM13.2225 6.02348C13.2515 6.03312 13.2999 6.19765 13.3967 6.56051C13.5757 7.26214 13.658 8.04596 13.629 8.77657C13.6192 8.97979 13.6096 9.16846 13.5999 9.19272L13.5854 9.24104L13.3338 9.15882C12.8161 8.99432 11.9742 8.7475 11.2533 8.54433C10.8419 8.43303 10.5082 8.33142 10.5082 8.32176C10.5082 8.29269 11.1082 7.69274 11.3646 7.46536C11.8532 7.03466 13.1789 6.00893 13.2225 6.02348ZM13.5563 6.07181C13.5709 6.05737 15.5595 6.40082 16.4643 6.57503C17.1369 6.70565 18.1142 6.90889 18.1723 6.93312C18.2013 6.94276 18.0997 7.00082 17.7755 7.14596C16.4982 7.72179 15.5498 8.23943 14.6064 8.8685C14.3596 9.03301 14.1515 9.16846 14.1467 9.16846C14.1419 9.16846 14.137 9.02819 14.137 8.85882C14.137 7.93953 13.9531 7.01052 13.6144 6.2267C13.5805 6.14927 13.5515 6.07671 13.5563 6.07181ZM18.6997 7.08795C18.7142 7.10245 18.6513 7.49441 18.5932 7.72661C18.419 8.44756 17.9497 9.51693 17.374 10.5233C17.2723 10.7023 17.1804 10.8475 17.1706 10.8523C17.1611 10.8571 17.0304 10.7845 16.8804 10.6974C16.3191 10.3684 15.6805 10.0588 14.9837 9.76841C14.7902 9.68619 14.6208 9.61841 14.616 9.60882C14.5821 9.57974 16.1401 8.54915 16.9627 8.05562C17.6159 7.65889 18.6803 7.06856 18.6997 7.08795ZM19.0674 7.14598C19.1109 7.14598 19.9915 7.38793 20.4511 7.52341C21.5882 7.86213 22.8946 8.34111 23.7462 8.72818L24.0993 8.88791L23.8526 8.94592C21.7721 9.4249 19.9915 9.97657 18.2738 10.6733C18.1335 10.7313 18.0077 10.7797 17.9981 10.7797C17.9884 10.7797 18.0368 10.6685 18.0997 10.5329C18.6174 9.43462 18.9513 8.28789 19.0335 7.31046C19.0384 7.21852 19.0528 7.14598 19.0674 7.14598ZM10.3001 9.15882C10.3145 9.14428 10.9871 9.30399 11.35 9.40551C11.9016 9.5604 13.0725 9.95227 13.0725 9.98134C13.0725 9.98616 12.9419 10.0975 12.7871 10.233C12.1532 10.7604 11.5435 11.3167 10.8129 12.0232C10.5951 12.2313 10.4113 12.4006 10.4017 12.4006C10.392 12.4006 10.3872 12.3715 10.392 12.3328C10.5032 11.5199 10.4791 10.4749 10.3243 9.41524C10.3097 9.27971 10.2952 9.16364 10.3001 9.15882ZM24.4333 9.17337C24.4429 9.18299 24.1236 9.68619 23.9204 9.97163C23.6301 10.3877 23.2042 10.9394 22.2414 12.149C21.7334 12.7877 21.1624 13.5086 20.9738 13.7506C20.7801 13.9925 20.6205 14.1956 20.6156 14.1956C20.6108 14.1956 20.548 14.1086 20.4802 14.0022C19.9383 13.1893 19.2899 12.478 18.5206 11.8393C18.3754 11.7183 18.2158 11.5877 18.1626 11.549C18.1094 11.5103 18.0658 11.4716 18.0658 11.4668C18.0658 11.4523 18.8883 11.099 19.5125 10.8475C20.606 10.4023 22.0961 9.87007 23.2139 9.52651C23.7994 9.34268 24.4236 9.16364 24.4333 9.17337ZM24.8058 9.27007C24.8251 9.26528 24.9413 9.32333 25.0816 9.40551C26.2574 10.0781 27.4089 10.9442 28.3186 11.8345C28.575 12.0861 29.2089 12.7442 29.1991 12.749C29.1991 12.749 28.9766 12.7683 28.7154 12.7877C26.6783 12.9425 24.0705 13.3731 21.5641 13.9779C21.3947 14.0166 21.2448 14.0505 21.235 14.0505C21.2255 14.0505 21.4141 13.8618 21.6512 13.6344C23.1221 12.2167 23.7947 11.3216 24.5881 9.72486C24.6994 9.48784 24.7962 9.28462 24.8058 9.27007C24.801 9.27007 24.801 9.27007 24.8058 9.27007ZM14.0305 10.3733C14.0983 10.3878 14.7273 10.683 15.2014 10.92C15.6369 11.1377 16.2901 11.4861 16.324 11.5151C16.3288 11.5199 16.0965 11.6409 15.8112 11.7813C14.9015 12.2361 14.1225 12.6667 13.3096 13.1602C13.0773 13.3005 12.8838 13.4167 12.879 13.4167C12.8596 13.4167 12.8644 13.3973 12.9951 13.1602C13.4306 12.3668 13.7789 11.4184 13.9774 10.4942C13.9966 10.4216 14.016 10.3733 14.0305 10.3733ZM13.4015 10.4894C13.416 10.5039 13.2515 11.099 13.15 11.4232C12.9515 12.0377 12.6177 12.807 12.2935 13.3876C12.216 13.5231 12.0999 13.7215 12.037 13.8327L11.9161 14.0263L11.6452 13.7651C11.3307 13.4602 11.0742 13.2715 10.7452 13.1021C10.6145 13.0344 10.5129 12.9763 10.5129 12.9667C10.5129 12.928 11.3403 12.178 11.9742 11.6361C12.429 11.2442 13.387 10.4749 13.4015 10.4894ZM17.2482 12.0716L17.4853 12.2264C18.0271 12.5797 18.6657 13.0489 19.1545 13.4602C19.4302 13.6876 19.9625 14.1667 20.069 14.2828L20.127 14.3457L19.7351 14.457C17.5191 15.0714 15.8063 15.6182 13.8079 16.3537C13.5854 16.4359 13.3967 16.5036 13.3821 16.5036C13.3532 16.5036 13.3289 16.5278 13.8273 16.0681C15.1047 14.8925 16.2369 13.5957 17.0788 12.3328L17.2482 12.0716ZM16.2369 12.3232C16.2465 12.3328 15.5837 13.2666 15.1869 13.7941C14.7127 14.4231 13.8708 15.4778 13.2902 16.1649C13.0483 16.4504 12.8403 16.6875 12.8306 16.6923C12.8161 16.6971 12.8112 16.6246 12.8112 16.5133C12.8112 15.9278 12.6613 15.3036 12.4 14.7714C12.2887 14.5489 12.2693 14.4956 12.2936 14.4715C12.3855 14.3892 13.7935 13.586 14.6837 13.107C15.2837 12.7877 16.2223 12.3135 16.2369 12.3232ZM10.121 13.8231C10.1355 13.8231 10.2468 13.8811 10.3726 13.9489C10.6823 14.1183 10.9581 14.307 11.2048 14.5102C11.2145 14.5199 11.0887 14.6215 10.9242 14.7424C10.4646 15.0714 9.76783 15.5988 9.36146 15.923C8.93557 16.2617 8.92115 16.2714 8.96948 16.1988C9.28886 15.7101 9.44846 15.4343 9.61787 15.0812C9.76783 14.7667 9.91779 14.3941 10.0242 14.0699C10.0629 13.9296 10.1114 13.8231 10.121 13.8231ZM11.7516 15.1005C11.7757 15.0957 11.8049 15.1392 11.9354 15.3328C12.2112 15.7439 12.4241 16.2956 12.4774 16.7407L12.487 16.8375L11.8242 17.094C10.6387 17.5536 9.54529 18.0085 8.80491 18.3471C8.59691 18.4439 8.23401 18.6181 7.99696 18.7343C7.75985 18.8551 7.56632 18.9471 7.56632 18.9423C7.56632 18.9375 7.71628 18.8262 7.90013 18.6906C9.34694 17.6407 10.6001 16.4891 11.5387 15.3376C11.6403 15.2166 11.7323 15.1053 11.7419 15.1005L11.7516 15.1005ZM11.0017 15.2844C11.021 15.3037 10.4695 15.9278 10.0921 16.3101C9.15822 17.2633 8.23405 18.0085 7.0873 18.7343C6.94216 18.8262 6.81154 18.9084 6.79699 18.9181C6.7631 18.9375 6.80663 18.889 7.30986 18.3423C7.62924 17.9987 7.87112 17.7084 8.14692 17.3504C8.33078 17.1134 8.36467 17.0795 8.63083 16.8907C9.3421 16.3778 10.9823 15.265 11.0017 15.2844Z" fill="url(#paint2_radial)"/>
</g>
<defs>
<linearGradient id="paint0_linear" x1="5.30464" y1="28.8258" x2="7.61936" y2="27.4581" gradientUnits="userSpaceOnUse">
<stop stop-color="#909CA9"/>
<stop offset="1" stop-color="#EDEDEE"/>
</linearGradient>
<linearGradient id="paint1_linear" x1="5.35777" y1="3.04073" x2="7.22025" y2="3.04073" gradientUnits="userSpaceOnUse">
<stop stop-color="#939FAB"/>
<stop offset="1" stop-color="#DCDEE1"/>
</linearGradient>
<radialGradient id="paint2_radial" cx="0" cy="0" r="1" gradientUnits="userSpaceOnUse" gradientTransform="translate(14.7557 11.5827) rotate(-171.457) scale(2.40126 4.80371)">
<stop stop-color="#EE352C"/>
<stop offset="1" stop-color="#A91D22"/>
</radialGradient>
<clipPath id="clip0">
<rect width="29.2406" height="32" fill="white" transform="translate(0.471909)"/>
</clipPath>
</defs>
</svg>
