<svg width="260" height="188" viewBox="0 0 260 188" fill="none" xmlns="http://www.w3.org/2000/svg">
<g clip-path="url(#clip0)">
<path d="M38.5445 133.253C38.3312 132.93 38.0497 132.658 37.7198 132.455C37.3899 132.253 37.0196 132.125 36.635 132.081C36.2505 132.038 35.861 132.079 35.4941 132.202C35.1271 132.325 34.7916 132.527 34.5112 132.794L26.1512 128.479L26.6709 133.34L34.53 136.692C35.0093 137.133 35.6339 137.384 36.2854 137.395C36.9369 137.407 37.57 137.179 38.0649 136.755C38.5597 136.332 38.8819 135.741 38.9703 135.095C39.0587 134.45 38.9072 133.794 38.5445 133.253H38.5445Z" fill="#A0616A"/>
<path d="M31.1153 135.211C30.964 135.28 30.7998 135.317 30.6334 135.319C30.467 135.32 30.3021 135.287 30.1493 135.221L22.2086 131.776C19.4935 130.599 17.2985 128.475 16.0318 125.801L11.8572 116.989C11.5491 116.593 11.322 116.14 11.189 115.657C11.056 115.173 11.0196 114.668 11.082 114.17C11.1443 113.673 11.3041 113.192 11.5523 112.756C11.8005 112.32 12.1321 111.938 12.5283 111.63C12.9245 111.322 13.3774 111.096 13.8612 110.964C14.345 110.831 14.8501 110.795 15.3477 110.858C15.8454 110.921 16.3257 111.082 16.7613 111.33C17.1968 111.579 17.5791 111.911 17.8862 112.308L25.2242 125.922L31.9999 131.041C32.1938 131.188 32.3379 131.391 32.4126 131.623C32.4873 131.854 32.4891 132.104 32.4176 132.336L31.7526 134.484C31.6811 134.715 31.5412 134.918 31.3514 135.067C31.2787 135.124 31.1994 135.172 31.1153 135.211Z" fill="#CCCCCC"/>
<path d="M11.6734 106.625C15.2446 106.625 18.1396 103.73 18.1396 100.159C18.1396 96.5874 15.2446 93.6924 11.6734 93.6924C8.10229 93.6924 5.20731 96.5874 5.20731 100.159C5.20731 103.73 8.10229 106.625 11.6734 106.625Z" fill="#A0616A"/>
<path d="M14.2925 184.984L17.5199 184.984L19.0556 172.534L14.2917 172.534L14.2925 184.984Z" fill="#A0616A"/>
<path d="M23.7448 187.979L13.6009 187.98L13.6008 184.061L19.8254 184.06C20.8649 184.06 21.8618 184.473 22.5968 185.208C23.3318 185.943 23.7448 186.94 23.7448 187.979L23.7448 187.979Z" fill="#2F2E41"/>
<path d="M3.76178 184.984L6.98918 184.984L8.52482 172.534L3.76099 172.534L3.76178 184.984Z" fill="#A0616A"/>
<path d="M13.2141 187.979L3.07018 187.98L3.07 184.061L9.29466 184.06C10.3341 184.06 11.331 184.473 12.066 185.208C12.8011 185.943 13.214 186.94 13.2141 187.979L13.2141 187.979Z" fill="#2F2E41"/>
<path d="M2.63475 181.42C2.52354 181.293 2.44075 181.143 2.39194 180.982C2.34313 180.82 2.32942 180.65 2.35173 180.483L8.00267 138.101L22.0424 140.485L23.5408 139.586L19.6661 179.798C19.6339 180.07 19.509 180.322 19.3126 180.512C19.1161 180.702 18.8601 180.819 18.5877 180.842L14.3365 181.196C14.1675 181.21 13.9974 181.188 13.8378 181.131C13.6782 181.074 13.5327 180.983 13.4112 180.864C13.2898 180.746 13.1951 180.603 13.1337 180.445C13.0723 180.287 13.0456 180.117 13.0554 179.948L14.156 160.797C14.1579 160.765 14.1477 160.733 14.1274 160.707C14.107 160.682 14.0779 160.665 14.0458 160.659C14.0136 160.654 13.9806 160.661 13.9532 160.679C13.9258 160.696 13.906 160.724 13.8975 160.755L8.45228 180.948C8.3842 181.199 8.23533 181.421 8.02862 181.579C7.82192 181.738 7.56886 181.824 7.30846 181.824H3.52611C3.35729 181.824 3.19042 181.788 3.03669 181.718C2.88296 181.649 2.74591 181.547 2.63475 181.42Z" fill="#2F2E41"/>
<path d="M12.3579 141.067C12.1968 140.921 11.9896 140.837 11.7724 140.827C11.5552 140.818 11.3417 140.886 11.169 141.018L8.36205 143.201C8.2093 143.32 8.02965 143.4 7.83885 143.433C7.64805 143.467 7.45194 143.453 7.26773 143.393C7.08352 143.333 6.91684 143.229 6.78231 143.09C6.64779 142.95 6.54953 142.78 6.49617 142.594C5.11934 137.772 1.99998 125.635 2.76845 117.092C3.20404 112.25 7.3854 108.57 12.0894 108.878C15.3054 109.093 17.4211 110.948 18.3779 114.392C20.7269 122.849 23.3084 138.361 23.802 141.385C23.841 141.62 23.8081 141.861 23.7078 142.076C23.6074 142.292 23.4442 142.472 23.2396 142.593C21.9115 143.391 20.3941 143.818 18.8451 143.83C16.9709 143.83 14.7236 143.178 12.3579 141.067Z" fill="#CCCCCC"/>
<path d="M13.4169 144.076C13.4483 143.69 13.3948 143.302 13.2601 142.939C13.1254 142.576 12.9127 142.247 12.6372 141.976C12.3616 141.704 12.0298 141.496 11.6651 141.366C11.3005 141.237 10.9118 141.189 10.5265 141.225L6.61126 132.671L4.02029 136.817L8.13553 144.304C8.24026 144.948 8.57727 145.53 9.08269 145.941C9.58812 146.353 10.2268 146.564 10.8778 146.536C11.5288 146.508 12.1469 146.242 12.6148 145.788C13.0828 145.335 13.3682 144.725 13.4169 144.076Z" fill="#A0616A"/>
<path d="M6.36328 141.03C6.20143 140.991 6.04955 140.919 5.91751 140.818C5.78547 140.716 5.67622 140.588 5.59688 140.442L1.47431 132.831C0.0644569 130.229 -0.352277 127.204 0.301627 124.318L2.45476 114.807C2.45671 114.306 2.55748 113.81 2.75132 113.347C2.94515 112.885 3.22824 112.465 3.58441 112.112C3.94058 111.759 4.36284 111.479 4.82706 111.29C5.29127 111.1 5.78834 111.003 6.28983 111.006C6.79133 111.008 7.28743 111.11 7.74977 111.304C8.21211 111.498 8.63162 111.782 8.98432 112.138C9.33703 112.495 9.61601 112.917 9.80531 113.382C9.99462 113.846 10.0905 114.343 10.0876 114.845L7.4598 130.086L9.63272 138.295C9.6945 138.53 9.68247 138.779 9.59826 139.008C9.51404 139.236 9.36171 139.433 9.16185 139.572L7.31292 140.852C7.11457 140.989 6.87913 141.063 6.63798 141.063C6.54545 141.063 6.45325 141.052 6.36328 141.03Z" fill="#CCCCCC"/>
<path opacity="0.2" d="M9.5632 121.273L7.19379 131.278L10.6163 139.702L8.24686 131.541L9.5632 121.273Z" fill="black"/>
<path d="M7.98351 105.476C7.40833 105.486 6.83674 105.383 6.30176 105.171C6.06637 105.081 5.82202 105.006 5.58706 104.915C3.51206 104.114 2.14518 101.904 2.09623 99.6799C2.04727 97.4559 3.19897 95.2974 4.90915 93.8749C6.61933 92.4523 8.83444 91.722 11.0525 91.5531C13.4417 91.3712 16.1321 91.9771 17.4671 93.9668C17.8225 94.4964 18.071 95.139 17.8604 95.7785C17.7974 95.9715 17.6847 96.1445 17.5338 96.2803C16.9376 96.8107 16.3432 96.4119 15.7354 96.3766C14.8999 96.3282 14.1496 97.0044 13.8799 97.7966C13.6102 98.5888 13.7289 99.4609 13.9467 100.269C14.1126 100.755 14.2172 101.26 14.258 101.772C14.2756 102.029 14.2273 102.286 14.1177 102.519C14.0081 102.752 13.8409 102.953 13.6318 103.103C13.1098 103.418 12.4242 103.236 11.9019 102.921C11.3795 102.606 10.9282 102.168 10.364 101.936C9.79976 101.704 9.04174 101.755 8.71334 102.27C8.60897 102.457 8.53833 102.66 8.50465 102.872C8.21025 104.213 8.27791 104.134 7.9835 105.476L7.98351 105.476Z" fill="#2F2E41"/>
<path d="M199.382 60.6768H39.5782C38.9695 60.6773 38.3859 60.9193 37.9555 61.3497C37.5251 61.7801 37.283 62.3637 37.2825 62.9724V171.26C37.283 171.869 37.5251 172.452 37.9555 172.883C38.3859 173.313 38.9695 173.555 39.5782 173.555H199.382C199.714 173.556 200.042 173.483 200.343 173.344C200.644 173.205 200.912 173.002 201.127 172.75C201.146 172.73 201.162 172.709 201.177 172.687C201.314 172.519 201.425 172.332 201.506 172.131C201.622 171.855 201.681 171.559 201.68 171.26V103.85H201.025V171.26C201.025 171.58 200.93 171.893 200.753 172.16C200.596 172.395 200.382 172.587 200.132 172.718C199.9 172.838 199.643 172.9 199.382 172.9H39.5782C39.1434 172.899 38.7265 172.727 38.419 172.419C38.1115 172.112 37.9385 171.695 37.9379 171.26V62.9725C37.9385 62.5376 38.1115 62.1207 38.419 61.8132C38.7265 61.5057 39.1434 61.3328 39.5782 61.3323H199.382C199.817 61.3323 200.235 61.505 200.543 61.8125C200.851 62.12 201.024 62.5372 201.025 62.9725V77.5233H201.68V62.9725C201.679 62.3634 201.437 61.7794 201.006 61.349C200.575 60.9185 199.991 60.6767 199.382 60.6768Z" fill="#3F3D56"/>
<path d="M201.35 69.8799H37.6092V70.5362H201.35V69.8799Z" fill="#3F3D56"/>
<path d="M43.1875 67.5705C44.2748 67.5705 45.1563 66.689 45.1563 65.6017C45.1563 64.5143 44.2748 63.6328 43.1875 63.6328C42.1001 63.6328 41.2187 64.5143 41.2187 65.6017C41.2187 66.689 42.1001 67.5705 43.1875 67.5705Z" fill="#CCCCCC"/>
<path d="M48.8479 67.5705C49.9352 67.5705 50.8167 66.689 50.8167 65.6017C50.8167 64.5143 49.9352 63.6328 48.8479 63.6328C47.7605 63.6328 46.879 64.5143 46.879 65.6017C46.879 66.689 47.7605 67.5705 48.8479 67.5705Z" fill="#CCCCCC"/>
<path d="M54.5082 67.5705C55.5956 67.5705 56.4771 66.689 56.4771 65.6017C56.4771 64.5143 55.5956 63.6328 54.5082 63.6328C53.4209 63.6328 52.5394 64.5143 52.5394 65.6017C52.5394 66.689 53.4209 67.5705 54.5082 67.5705Z" fill="#CCCCCC"/>
<path d="M94.054 160.283C93.3762 160.28 92.71 160.108 92.1155 159.783C91.5211 159.457 91.0172 158.988 90.6495 158.419C90.2818 157.85 90.0619 157.198 90.0098 156.522C89.9576 155.846 90.0748 155.168 90.3508 154.549L95.0412 144.084C91.3472 140.817 88.391 136.801 86.3692 132.302C84.3474 127.804 83.3062 122.927 83.3149 117.995C83.3149 98.7282 98.99 83.0527 118.258 83.0527C137.525 83.0527 153.2 98.7282 153.2 117.995C153.2 137.263 137.525 152.938 118.258 152.938C114.887 152.935 111.535 152.441 108.307 151.472L96.3359 159.576C95.6633 160.035 94.8683 160.282 94.054 160.283ZM118.258 87.9285C112.022 87.9248 105.939 89.8613 100.853 93.4693C95.7675 97.0773 91.93 102.178 89.8729 108.065C87.8157 113.952 87.6409 120.332 89.3726 126.323C91.1043 132.313 94.6568 137.617 99.5376 141.498L101.015 142.676L95.9685 153.937L107.55 146.097L108.693 146.481C112.825 147.869 117.208 148.342 121.54 147.867C125.872 147.392 130.049 145.981 133.782 143.732C137.514 141.482 140.713 138.448 143.156 134.839C145.6 131.231 147.229 127.134 147.931 122.833C148.634 118.532 148.393 114.129 147.225 109.931C146.057 105.732 143.99 101.838 141.167 98.5177C138.344 95.1974 134.833 92.5306 130.878 90.7022C126.922 88.8737 122.616 87.9273 118.258 87.9285Z" fill="#3F3D56"/>
<path d="M118.258 121.247C120.951 121.247 123.133 119.064 123.133 116.371C123.133 113.678 120.951 111.495 118.258 111.495C115.565 111.495 113.382 113.678 113.382 116.371C113.382 119.064 115.565 121.247 118.258 121.247Z" fill="#3F3D56"/>
<path d="M104.443 121.247C107.136 121.247 109.319 119.064 109.319 116.371C109.319 113.678 107.136 111.495 104.443 111.495C101.75 111.495 99.5674 113.678 99.5674 116.371C99.5674 119.064 101.75 121.247 104.443 121.247Z" fill="#3F3D56"/>
<path d="M132.072 121.247C134.765 121.247 136.948 119.064 136.948 116.371C136.948 113.678 134.765 111.495 132.072 111.495C129.379 111.495 127.197 113.678 127.197 116.371C127.197 119.064 129.379 121.247 132.072 121.247Z" fill="#3F3D56"/>
<path d="M240.867 97.0736H194.532C193.973 97.0736 193.438 96.8517 193.043 96.4567C192.648 96.0618 192.426 95.5261 192.426 94.9675C192.426 94.4089 192.648 93.8732 193.043 93.4782C193.438 93.0832 193.973 92.8613 194.532 92.8613H240.867C241.426 92.8613 241.961 93.0832 242.356 93.4782C242.751 93.8732 242.973 94.4089 242.973 94.9675C242.973 95.5261 242.751 96.0618 242.356 96.4567C241.961 96.8517 241.426 97.0736 240.867 97.0736Z" fill="#CCCCCC"/>
<path d="M210.591 88.1215H194.532C193.973 88.1215 193.438 87.8996 193.043 87.5046C192.648 87.1096 192.426 86.5739 192.426 86.0153C192.426 85.4567 192.648 84.921 193.043 84.5261C193.438 84.1311 193.973 83.9092 194.532 83.9092H210.591C211.15 83.9092 211.685 84.1311 212.08 84.5261C212.475 84.921 212.697 85.4567 212.697 86.0153C212.697 86.5739 212.475 87.1096 212.08 87.5046C211.685 87.8996 211.15 88.1215 210.591 88.1215Z" fill="#CCCCCC"/>
<path d="M173.545 99.6395C178.488 99.6395 182.496 95.632 182.496 90.6884C182.496 85.7448 178.488 81.7373 173.545 81.7373C168.601 81.7373 164.594 85.7448 164.594 90.6884C164.594 95.632 168.601 99.6395 173.545 99.6395Z" fill="#6C63FF"/>
<path d="M245.511 76.998H162.056C160.869 76.9997 159.732 77.4718 158.893 78.3108C158.054 79.1497 157.582 80.2871 157.58 81.4736V99.9024C157.582 101.089 158.054 102.226 158.893 103.065C159.732 103.904 160.869 104.376 162.056 104.378H245.511C246.698 104.376 247.835 103.904 248.674 103.065C249.513 102.226 249.985 101.089 249.987 99.9024V81.4736C249.985 80.2871 249.513 79.1497 248.674 78.3108C247.835 77.4718 246.698 76.9997 245.511 76.998ZM249.46 99.9024C249.459 100.949 249.043 101.953 248.302 102.693C247.562 103.434 246.558 103.85 245.511 103.851H162.056C161.009 103.85 160.005 103.434 159.265 102.693C158.524 101.953 158.108 100.949 158.106 99.9024V81.4736C158.108 80.4266 158.524 79.4229 159.265 78.6826C160.005 77.9423 161.009 77.5259 162.056 77.5246H245.511C246.558 77.5259 247.562 77.9423 248.302 78.6826C249.043 79.4229 249.459 80.4266 249.46 81.4736V99.9024Z" fill="#3F3D56"/>
<path d="M249.461 84.3691C252.805 84.3691 255.516 81.6581 255.516 78.3139C255.516 74.9698 252.805 72.2588 249.461 72.2588C246.116 72.2588 243.405 74.9698 243.405 78.3139C243.405 81.6581 246.116 84.3691 249.461 84.3691Z" fill="#6C63FF"/>
<path d="M249.274 81.7195C249.25 81.695 249.23 81.666 249.217 81.6341C249.204 81.6021 249.197 81.5679 249.197 81.5333V74.8316C249.197 74.7618 249.225 74.6948 249.274 74.6455C249.324 74.5961 249.391 74.5684 249.461 74.5684C249.53 74.5684 249.597 74.5961 249.647 74.6455C249.696 74.6948 249.724 74.7618 249.724 74.8316V81.5333C249.724 81.5854 249.708 81.6363 249.679 81.6795C249.65 81.7228 249.609 81.7566 249.561 81.7765C249.513 81.7964 249.46 81.8016 249.409 81.7915C249.358 81.7813 249.311 81.7563 249.274 81.7195Z" fill="white"/>
<path d="M245.923 78.3683C245.887 78.3315 245.862 78.2846 245.851 78.2336C245.841 78.1825 245.846 78.1296 245.866 78.0815C245.886 78.0334 245.92 77.9922 245.963 77.9633C246.007 77.9344 246.057 77.919 246.11 77.9189H252.811C252.881 77.9189 252.948 77.9467 252.997 77.9961C253.047 78.0454 253.075 78.1124 253.075 78.1822C253.075 78.252 253.047 78.319 252.997 78.3683C252.948 78.4177 252.881 78.4454 252.811 78.4454H246.11C246.075 78.4455 246.041 78.4387 246.009 78.4255C245.977 78.4122 245.948 78.3928 245.923 78.3683Z" fill="white"/>
<path d="M256.709 158.797H244.07C244.07 159.16 231.043 159.455 231.043 159.455C230.839 159.609 230.652 159.786 230.488 159.982C229.993 160.572 229.723 161.318 229.724 162.088V162.614C229.725 163.487 230.071 164.324 230.688 164.941C231.306 165.558 232.142 165.905 233.015 165.905H256.709C257.582 165.904 258.418 165.557 259.035 164.94C259.652 164.323 259.999 163.487 260 162.614V162.088C259.999 161.215 259.652 160.379 259.035 159.762C258.418 159.145 257.582 158.798 256.709 158.797Z" fill="#3F3D56"/>
<path d="M246.704 165.773H243.281V187.888H246.704V165.773Z" fill="#3F3D56"/>
<path d="M256.445 187.769C256.445 188.139 251.258 187.912 244.861 187.912C238.463 187.912 233.277 188.139 233.277 187.769C233.277 187.399 238.463 184.467 244.861 184.467C251.258 184.467 256.445 187.399 256.445 187.769Z" fill="#3F3D56"/>
<path d="M246.091 129.161C250.162 129.161 253.462 125.861 253.462 121.789C253.462 117.718 250.162 114.418 246.091 114.418C242.019 114.418 238.719 117.718 238.719 121.789C238.719 125.861 242.019 129.161 246.091 129.161Z" fill="#2F2E41"/>
<path d="M227.746 184.861L224.518 184.861L222.983 172.411L227.747 172.411L227.746 184.861Z" fill="#FFB8B8"/>
<path d="M222.213 183.938H228.437V187.858H218.294C218.294 186.818 218.706 185.821 219.441 185.086C220.176 184.351 221.173 183.938 222.213 183.938Z" fill="#2F2E41"/>
<path d="M222.708 183.058L219.628 182.092L221.89 169.754L226.435 171.18L222.708 183.058Z" fill="#FFB8B8"/>
<path d="M217.705 180.522L223.644 182.386L222.47 186.125L212.792 183.088C213.103 182.096 213.795 181.269 214.717 180.788C215.638 180.306 216.713 180.211 217.705 180.522Z" fill="#2F2E41"/>
<path d="M248.065 156.638C247.991 156.011 247.857 155.392 247.665 154.79L247.062 154.032L245.493 152.062L245.425 152.065C245.309 152.07 244.827 152.097 244.082 152.155H244.074C243.613 152.191 243.05 152.239 242.41 152.299C242.242 152.318 242.065 152.334 241.884 152.352V155.101H245.175C245.334 155.101 245.489 155.159 245.609 155.265C245.729 155.37 245.807 155.516 245.827 155.675C245.83 155.703 245.833 155.73 245.833 155.759C245.833 155.933 245.763 156.101 245.64 156.224C245.516 156.348 245.349 156.417 245.175 156.417H226.061C225.818 156.579 225.584 156.754 225.361 156.943C224.688 157.465 224.202 158.191 223.979 159.013C222.863 163.92 220.827 173.071 220.227 175.759C220.184 175.962 220.194 176.172 220.256 176.37C220.318 176.567 220.431 176.745 220.583 176.886C220.695 176.99 220.826 177.072 220.97 177.126L223.344 178.015C223.442 178.052 223.544 178.075 223.647 178.087C223.66 178.087 223.671 178.089 223.684 178.089C223.708 178.091 223.733 178.092 223.758 178.092C223.998 178.091 224.232 178.017 224.43 177.881C224.627 177.745 224.78 177.552 224.866 177.328L226.74 172.41L229.629 164.828L230.771 161.83C232.095 162.14 243.205 164.599 246.925 160.637C247.292 160.247 247.582 159.79 247.778 159.292C248.091 158.444 248.19 157.533 248.065 156.638Z" fill="#2F2E41"/>
<path d="M251.287 157.354C251.23 157.12 251.164 156.878 251.087 156.633L248.915 153.905L248.847 153.908C248.71 153.916 248.06 153.95 247.062 154.032C245.93 154.126 244.348 154.279 242.571 154.519C242.518 154.524 242.463 154.532 242.41 154.54C242.236 154.563 242.06 154.587 241.884 154.613V155.101H245.174C245.334 155.101 245.489 155.159 245.609 155.265C245.729 155.37 245.807 155.516 245.827 155.674C245.83 155.703 245.833 155.73 245.833 155.759C245.832 155.933 245.763 156.101 245.64 156.224C245.516 156.347 245.349 156.417 245.174 156.417H233.543C233.035 156.583 232.545 156.756 232.077 156.943C229.618 157.917 227.778 159.194 227.401 160.856C227.275 161.414 227.135 162.027 226.988 162.68C226.44 165.107 225.774 168.08 225.171 170.781V170.783C225.047 171.342 224.924 171.884 224.805 172.41C224.302 174.674 223.876 176.594 223.649 177.602C223.644 177.631 223.639 177.657 223.634 177.686V177.692C223.607 177.895 223.633 178.103 223.707 178.294L223.71 178.297V178.3C223.782 178.483 223.9 178.645 224.052 178.771C224.154 178.855 224.269 178.921 224.392 178.968L226.767 179.858C226.899 179.908 227.039 179.933 227.18 179.935C227.378 179.935 227.573 179.885 227.746 179.79C227.995 179.655 228.187 179.435 228.288 179.171L233.401 165.755L234.193 163.672C235.518 163.983 246.628 166.439 250.348 162.48C251.082 161.684 251.502 160.648 251.527 159.566C251.553 158.821 251.472 158.076 251.287 157.354Z" fill="#2F2E41"/>
<path d="M250.995 134.13C250.953 134.08 250.908 134.03 250.861 133.983C250.16 133.246 249.294 132.685 248.334 132.347C247.375 132.009 246.349 131.902 245.34 132.037C244.46 132.153 243.589 132.324 242.731 132.551C241.623 132.835 240.609 133.404 239.788 134.201C239.149 134.821 238.645 135.567 238.309 136.392C237.973 137.217 237.813 138.102 237.837 138.993C237.848 139.353 237.85 139.722 237.845 140.096C237.845 140.27 237.842 140.446 237.84 140.622H240.436C240.548 140.622 240.66 140.635 240.77 140.662C241.087 140.738 241.369 140.918 241.571 141.173C241.773 141.429 241.883 141.745 241.884 142.07V154.317C242.06 154.368 242.236 154.418 242.41 154.47C242.465 154.489 242.518 154.504 242.571 154.52C242.631 154.539 242.692 154.557 242.75 154.575C243.284 154.741 243.806 154.917 244.316 155.102H245.174C245.334 155.102 245.489 155.161 245.609 155.266C245.729 155.372 245.807 155.517 245.827 155.676C246.006 155.747 246.18 155.818 246.351 155.889C246.959 156.142 247.536 156.395 248.065 156.639C248.778 156.966 249.413 157.277 249.945 157.548C250.112 157.633 250.297 157.678 250.484 157.679C250.731 157.679 250.971 157.599 251.169 157.453C251.21 157.423 251.25 157.39 251.287 157.356C251.428 157.223 251.535 157.059 251.598 156.876C251.66 156.694 251.678 156.499 251.648 156.308C251.376 154.24 251.297 152.151 251.411 150.068C251.485 148.318 251.643 146.522 251.848 144.787C251.959 143.847 252.082 142.926 252.211 142.039C252.335 141.191 252.467 140.377 252.596 139.609C252.765 138.634 252.709 137.633 252.431 136.684C252.154 135.734 251.663 134.86 250.995 134.13Z" fill="#6C63FF"/>
<path d="M240.204 134.346C240.069 134.288 239.93 134.239 239.788 134.201C239.086 134.012 238.34 134.082 237.686 134.397C237.031 134.713 236.512 135.253 236.223 135.92L234.415 140.095L234.188 140.622H240.436C240.548 140.622 240.66 140.635 240.77 140.661L240.98 140.174L241.781 138.326C242.099 137.589 242.111 136.756 241.816 136.01C241.52 135.264 240.94 134.665 240.204 134.346Z" fill="#6C63FF"/>
<path d="M245.821 129.98C249.392 129.98 252.287 127.085 252.287 123.514C252.287 119.943 249.392 117.048 245.821 117.048C242.25 117.048 239.355 119.943 239.355 123.514C239.355 127.085 242.25 129.98 245.821 129.98Z" fill="#FFB8B8"/>
<path d="M239.238 120.337C242.301 122.207 245.754 123.345 249.328 123.662L248.265 122.388C249.039 122.674 249.854 122.836 250.679 122.867C251.503 122.854 252.367 122.537 252.834 121.858C253.043 121.521 253.167 121.138 253.196 120.743C253.224 120.347 253.157 119.95 252.999 119.586C252.675 118.861 252.17 118.23 251.534 117.754C250.405 116.861 249.073 116.261 247.656 116.008C246.239 115.755 244.782 115.856 243.413 116.303C242.475 116.583 241.634 117.123 240.988 117.859C240.375 118.615 239.195 119.289 239.509 120.21L239.238 120.337Z" fill="#2F2E41"/>
<path d="M246.908 115.12C244.869 113.051 242.401 111.455 239.678 110.444C237.93 109.797 236.028 109.397 234.201 109.764C232.374 110.132 230.646 111.396 230.136 113.189C229.719 114.655 230.149 116.233 230.796 117.613C231.443 118.993 232.307 120.273 232.83 121.704C233.364 123.165 233.524 124.736 233.297 126.274C233.07 127.813 232.462 129.27 231.528 130.514C230.595 131.757 229.366 132.749 227.952 133.397C226.539 134.045 224.986 134.33 223.434 134.226C225.23 134.467 226.884 135.31 228.639 135.759C230.394 136.209 232.465 136.178 233.769 134.921C235.149 133.591 235.177 131.428 235.11 129.513C235.011 126.665 234.912 123.818 234.812 120.971C234.762 119.519 234.719 118.02 235.242 116.665C235.766 115.31 237.011 114.123 238.463 114.135C239.565 114.145 240.539 114.812 241.422 115.47C242.305 116.127 243.24 116.829 244.337 116.927C245.434 117.025 246.686 116.213 246.604 115.115L246.908 115.12Z" fill="#2F2E41"/>
<path d="M252.211 142.039L248.52 142.139L248.252 144.732L248.191 145.332L242.41 147.928L241.883 148.165V152.78L242.41 152.63L244.074 152.156H244.082L251.411 150.068L251.495 150.045C252.088 149.874 252.609 149.516 252.982 149.025C253.354 148.534 253.559 147.936 253.565 147.32L253.583 144.258L253.599 142.002L252.211 142.039Z" fill="#FFB8B8"/>
<path d="M253.412 136.91C253.363 136.108 252.997 135.359 252.395 134.827C251.794 134.295 251.006 134.024 250.204 134.073C249.402 134.122 248.653 134.488 248.121 135.09C247.589 135.691 247.318 136.479 247.367 137.281L247.77 143.852C247.781 144.025 247.83 144.194 247.913 144.346C247.996 144.497 248.112 144.629 248.252 144.731C248.474 144.897 248.749 144.979 249.026 144.961L251.848 144.787L252.704 144.734C252.86 144.726 253.012 144.687 253.153 144.619C253.293 144.551 253.418 144.455 253.52 144.337C253.543 144.312 253.564 144.285 253.583 144.258C253.75 144.034 253.832 143.757 253.815 143.478L253.412 136.91Z" fill="#6C63FF"/>
<path d="M242.75 154.574H242.41V154.54C242.236 154.564 242.06 154.588 241.884 154.614V155.101H244.316C243.805 154.917 243.283 154.741 242.75 154.574ZM242.75 154.574H242.41V154.54C242.236 154.564 242.06 154.588 241.884 154.614V155.101H244.316C243.805 154.917 243.283 154.741 242.75 154.574ZM245.174 154.574H242.41V142.069C242.409 141.641 242.269 141.225 242.011 140.883C241.754 140.541 241.392 140.292 240.98 140.174C240.804 140.12 240.62 140.094 240.436 140.095H217.005C216.481 140.095 215.979 140.304 215.609 140.674C215.239 141.044 215.031 141.546 215.03 142.069V154.969C215.03 155.493 215.238 155.995 215.609 156.365C215.979 156.736 216.481 156.944 217.005 156.944H245.174C245.466 156.943 245.747 156.835 245.964 156.641C246.181 156.446 246.319 156.178 246.351 155.888C246.356 155.845 246.359 155.802 246.359 155.759C246.359 155.445 246.234 155.144 246.012 154.922C245.789 154.7 245.488 154.575 245.174 154.574ZM245.833 155.759C245.832 155.934 245.763 156.101 245.64 156.225C245.516 156.348 245.349 156.417 245.174 156.417H217.005C216.621 156.417 216.253 156.265 215.981 155.993C215.71 155.722 215.557 155.353 215.557 154.969V142.069C215.557 141.685 215.71 141.317 215.981 141.046C216.253 140.774 216.621 140.622 217.005 140.621H240.436C240.548 140.621 240.66 140.634 240.77 140.661C241.087 140.736 241.369 140.917 241.571 141.172C241.773 141.428 241.883 141.744 241.884 142.069V155.101H245.174C245.334 155.101 245.489 155.16 245.609 155.265C245.729 155.371 245.807 155.516 245.827 155.675C245.83 155.704 245.833 155.73 245.833 155.759ZM242.75 154.574H242.41V154.54C242.236 154.564 242.06 154.588 241.884 154.614V155.101H244.316C243.805 154.917 243.283 154.741 242.75 154.574Z" fill="#3F3D56"/>
<path d="M228.719 150.1C229.592 150.1 230.299 149.392 230.299 148.52C230.299 147.648 229.592 146.94 228.719 146.94C227.847 146.94 227.14 147.648 227.14 148.52C227.14 149.392 227.847 150.1 228.719 150.1Z" fill="#6C63FF"/>
<path d="M87.6297 18.7882C87.6239 18.9085 87.6275 19.0291 87.6406 19.1488L79.3735 26.087L76.9081 25.1943L75.0747 28.7389L80.4647 31.3045L89.5027 21.1625C89.959 21.2453 90.4298 21.1872 90.8524 20.9959C91.2749 20.8046 91.6292 20.4892 91.8681 20.0917C92.1071 19.6941 92.2193 19.2333 92.1899 18.7704C92.1606 18.3075 91.991 17.8645 91.7037 17.5003C91.4164 17.1362 91.0251 16.8681 90.5818 16.7318C90.1385 16.5954 89.6641 16.5973 89.2219 16.7371C88.7796 16.8769 88.3904 17.148 88.106 17.5144C87.8216 17.8808 87.6555 18.3251 87.6297 18.7882L87.6297 18.7882Z" fill="#FFB8B8"/>
<path d="M76.5421 30.4394L68.5588 27.5578C67.8259 27.2933 67.2281 26.7484 66.8969 26.0431C66.5657 25.3378 66.5283 24.5298 66.7929 23.7969C67.0574 23.064 67.6023 22.4662 68.3076 22.135C69.0129 21.8038 69.8208 21.7664 70.5537 22.031L78.537 24.9125C78.658 24.9561 78.7692 25.0232 78.8642 25.1098C78.9593 25.1964 79.0363 25.3009 79.091 25.4173C79.1456 25.5337 79.1768 25.6598 79.1828 25.7882C79.1887 25.9167 79.1693 26.0451 79.1256 26.166L77.7958 29.8507C77.7073 30.0948 77.5256 30.2938 77.2906 30.4042C77.0556 30.5145 76.7864 30.5272 76.5421 30.4394V30.4394Z" fill="#CCCCCC"/>
<path d="M70.6953 58.5121L73.3633 58.5118L74.6325 48.2207L70.6948 48.221L70.6953 58.5121Z" fill="#FFB8B8"/>
<path d="M78.5089 60.9883L70.1236 60.9887L70.1235 57.7489L75.269 57.7487C76.1282 57.7486 76.9523 58.0899 77.5599 58.6975C78.1675 59.305 78.5089 60.129 78.5089 60.9883L78.5089 60.9883Z" fill="#2F2E41"/>
<path d="M64.1015 55.0647L66.284 56.5993L73.2417 48.9111L70.0206 46.6465L64.1015 55.0647Z" fill="#FFB8B8"/>
<path d="M68.8051 61.0596L61.9456 56.2367L63.809 53.5864L68.0182 56.5459C68.7211 57.0401 69.1989 57.7933 69.3465 58.6398C69.4941 59.4862 69.2993 60.3567 68.8051 61.0596L68.8051 61.0596Z" fill="#2F2E41"/>
<path d="M76.5334 39.9738C76.5334 39.9738 83.1916 39.1883 81.9965 43.5089C80.8015 47.8295 67.485 51.5609 67.485 51.5609L76.5334 39.9738Z" fill="#FFB8B8"/>
<path d="M71.9508 17.9275C74.9028 17.9275 77.2959 15.5344 77.2959 12.5824C77.2959 9.63039 74.9028 7.2373 71.9508 7.2373C68.9987 7.2373 66.6057 9.63039 66.6057 12.5824C66.6057 15.5344 68.9987 17.9275 71.9508 17.9275Z" fill="#FFB8B8"/>
<path d="M54.9046 50.6759C51.8632 47.1343 50.7989 41.699 55.6492 37.1784C56.8471 36.0894 58.2035 35.1886 59.6719 34.507L63.5811 23.5747C63.9871 22.4331 64.7316 21.4424 65.7152 20.7349C66.6988 20.0273 67.8748 19.6366 69.0863 19.6147C70.2625 19.5639 71.4256 19.8785 72.4159 20.5154C73.4061 21.1522 74.1749 22.08 74.6166 23.1713C75.0941 24.2815 75.1487 25.5281 74.7702 26.6758C73.6065 30.2998 72.0783 33.7963 70.209 37.1119L70.4111 38.729L80.2921 39.6071L80.1999 39.757C80.1518 39.8352 75.3159 47.2032 69.1295 52.0938C67.0142 53.766 64.8268 54.459 62.7624 54.4588C59.6319 54.4586 56.7846 52.8649 54.9046 50.6759Z" fill="#CCCCCC"/>
<path d="M53.972 14.2595C54.9177 13.1326 55.3233 11.6588 55.6496 10.2244C56.1658 7.95478 56.5654 5.60795 57.7124 3.58261C58.8592 1.55729 60.9671 -0.120898 63.2911 0.00684264C65.6019 0.133854 67.4701 1.99297 68.4618 4.10827C68.7019 4.01501 68.959 3.97323 69.2163 3.98563C69.4736 3.99804 69.7254 4.06436 69.9555 4.18029C70.6702 4.57168 70.9375 5.68414 70.3425 6.24105C70.9682 5.94311 71.6496 5.7802 72.3424 5.76293C73.0352 5.74566 73.7239 5.87441 74.3637 6.14081C75.1864 6.49104 75.8965 7.06142 76.416 7.78918C76.9355 8.51695 77.2441 9.37389 77.308 10.2657C77.3329 10.6277 77.2832 10.991 77.162 11.333C77.0408 11.675 76.8507 11.9884 76.6034 12.2539C75.5778 13.3097 74.1273 12.9455 72.8377 12.6766C71.6195 12.4225 70.1357 12.354 69.4495 13.5146C69.179 13.9983 69.1033 14.5669 69.2378 15.1044C69.5007 16.2631 70.3586 17.0701 71.1908 17.8425L71.3269 18.0954C68.3884 18.6684 65.1796 16.6616 64.4088 13.7687C63.638 10.8759 65.4228 7.5385 68.2568 6.57344C68.0682 6.57931 67.8814 6.53472 67.7158 6.44426C67.5502 6.35381 67.4117 6.22077 67.3147 6.0589C67.2177 5.89703 67.1657 5.7122 67.1641 5.5235C67.1624 5.3348 67.2112 5.14909 67.3053 4.98554C66.5208 4.54607 65.633 4.32457 64.7341 4.34403C63.2702 4.44006 62.0033 5.4821 61.2415 6.7358C60.4796 7.98951 60.1347 9.44468 59.7852 10.8695C59.4358 12.2943 59.0576 13.7463 58.243 14.9665C57.6788 15.8115 56.9249 16.513 56.0414 17.015C55.158 17.5169 54.1694 17.8054 53.1547 17.8575C52.1399 17.9095 51.127 17.7237 50.1968 17.3147C49.2667 16.9058 48.4449 16.2852 47.7972 15.5023C48.8208 15.9986 49.9788 16.1458 51.094 15.9213C52.2092 15.6969 53.2202 15.1131 53.972 14.2595Z" fill="#2F2E41"/>
<path d="M93.2307 28.8261C97.5217 28.8261 101 25.3476 101 21.0566C101 16.7656 97.5217 13.2871 93.2307 13.2871C88.9397 13.2871 85.4612 16.7656 85.4612 21.0566C85.4612 25.3476 88.9397 28.8261 93.2307 28.8261Z" fill="#6C63FF"/>
<path d="M92.9918 25.4258C92.9604 25.3944 92.9355 25.3572 92.9185 25.3162C92.9015 25.2752 92.8928 25.2313 92.8929 25.1869V16.5878C92.8929 16.4982 92.9285 16.4123 92.9918 16.3489C93.0552 16.2856 93.1411 16.25 93.2307 16.25C93.3203 16.25 93.4062 16.2856 93.4695 16.3489C93.5329 16.4123 93.5684 16.4982 93.5684 16.5878V25.1869C93.5684 25.2537 93.5486 25.319 93.5115 25.3745C93.4744 25.4301 93.4216 25.4734 93.3599 25.4989C93.2982 25.5245 93.2303 25.5312 93.1648 25.5182C93.0992 25.5051 93.039 25.473 92.9918 25.4258H92.9918Z" fill="white"/>
<path d="M88.6922 21.1264C88.6449 21.0792 88.6128 21.019 88.5997 20.9535C88.5867 20.888 88.5934 20.82 88.619 20.7583C88.6445 20.6966 88.6878 20.6439 88.7434 20.6067C88.7989 20.5696 88.8642 20.5498 88.931 20.5498H97.5301C97.6197 20.5498 97.7056 20.5854 97.769 20.6487C97.8323 20.7121 97.8679 20.798 97.8679 20.8876C97.8679 20.9772 97.8323 21.0631 97.769 21.1264C97.7056 21.1898 97.6197 21.2253 97.5301 21.2253H88.931C88.8867 21.2254 88.8427 21.2167 88.8017 21.1997C88.7607 21.1828 88.7235 21.1578 88.6922 21.1264Z" fill="white"/>
<path d="M87.8974 26.2528C87.841 26.3592 87.793 26.4698 87.754 26.5838L77.3218 29.3502L75.4696 27.4943L72.3035 29.9235L76.0919 34.5368L88.5836 29.198C88.9615 29.4669 89.4123 29.6144 89.8761 29.6208C90.3399 29.6273 90.7946 29.4924 91.1799 29.2341C91.5651 28.9758 91.8626 28.6064 92.0328 28.1749C92.2029 27.7434 92.2377 27.2703 92.1325 26.8186C92.0272 26.3669 91.7869 25.9579 91.4436 25.646C91.1003 25.3342 90.6701 25.1343 90.2104 25.0729C89.7506 25.0114 89.2831 25.0914 88.8699 25.3022C88.4568 25.513 88.1175 25.8445 87.8974 26.2528L87.8974 26.2528Z" fill="#FFB8B8"/>
<path d="M72.9091 32.0868L66.9076 26.0853C66.6341 25.8127 66.4169 25.4887 66.2687 25.1321C66.1204 24.7755 66.0439 24.3931 66.0436 24.0068C66.0433 23.6206 66.1191 23.2381 66.2667 22.8812C66.4144 22.5243 66.631 22.2 66.9041 21.9269C67.1772 21.6538 67.5015 21.4372 67.8584 21.2896C68.2153 21.1419 68.5978 21.0661 68.984 21.0664C69.3703 21.0667 69.7526 21.1432 70.1093 21.2915C70.4659 21.4397 70.7898 21.6569 71.0625 21.9305L77.064 27.9319C77.1549 28.0229 77.2271 28.1308 77.2763 28.2496C77.3255 28.3684 77.3508 28.4958 77.3508 28.6244C77.3508 28.753 77.3255 28.8803 77.2763 28.9991C77.2271 29.1179 77.1549 29.2258 77.064 29.3168L74.2941 32.0868C74.1102 32.2701 73.8612 32.3731 73.6016 32.3731C73.342 32.3731 73.0929 32.2701 72.9091 32.0868V32.0868Z" fill="#CCCCCC"/>
</g>
<defs>
<clipPath id="clip0">
<rect width="260" height="187.981" fill="white"/>
</clipPath>
</defs>
</svg>
