<svg width="29" height="32" viewBox="0 0 29 32" fill="none" xmlns="http://www.w3.org/2000/svg">
<path d="M9.48295 19.8179C10.5526 19.8179 11.4198 20.685 11.4198 21.7547V30.0633C11.4198 31.133 10.5526 32 9.48295 32C8.41341 32 7.54623 31.133 7.54623 30.0633V21.7547C7.54623 20.6852 8.41341 19.818 9.48295 19.818V19.8179Z" fill="#A4C639"/>
<path d="M5.06121 9.82812C5.05482 9.90157 5.04924 9.97583 5.04924 10.0509V22.6391C5.04924 23.9929 6.12083 25.0836 7.45109 25.0836H20.2525C21.5829 25.0836 22.6545 23.9928 22.6545 22.6391V10.0509C22.6545 9.97583 22.6517 9.9013 22.6455 9.82812H5.06121Z" fill="#A4C639"/>
<path d="M18.2209 19.8177C19.2906 19.8177 20.1578 20.6849 20.1578 21.7545V30.0631C20.1578 31.1328 19.2906 31.9998 18.2209 31.9998C17.1514 31.9998 16.2842 31.1328 16.2842 30.0631V21.7545C16.2842 20.685 17.1514 19.8178 18.2209 19.8178V19.8177ZM1.93728 10.9488C3.00683 10.9488 3.874 11.816 3.874 12.8856V21.1942C3.874 22.2639 3.00683 23.1311 1.93728 23.1311C0.867597 23.1311 0.000427262 22.2639 0.000427262 21.1943V12.8858C0.000291257 11.8161 0.867461 10.9488 1.93728 10.9488ZM25.7666 10.9488C26.8362 10.9488 27.7034 11.816 27.7034 12.8856V21.1942C27.7034 22.2639 26.8362 23.1311 25.7666 23.1311C24.697 23.1311 23.8298 22.2639 23.8298 21.1943V12.8858C23.8298 11.8161 24.697 10.9488 25.7666 10.9488ZM5.11776 9.0016C5.17162 5.13497 8.54646 1.96468 12.8785 1.54688H14.825C19.1573 1.96482 22.5319 5.13524 22.5857 9.0016H5.11776Z" fill="#A4C639"/>
<path d="M5.79161 1.17383L7.83468 4.71269L5.79161 1.17383ZM21.9127 1.17383L19.8695 4.71269L21.9127 1.17383Z" fill="#A4C639"/>
<path d="M21.9127 1.17383L19.8695 4.71269M5.79161 1.17383L7.83468 4.71269L5.79161 1.17383Z" stroke="#A4C639" stroke-linecap="round" stroke-linejoin="round"/>
<path d="M11.25 5.53659C11.2516 6.07708 10.8043 6.51651 10.2508 6.51801C9.6975 6.51937 9.24759 6.08252 9.24596 5.54203V5.53659C9.24446 4.99597 9.69179 4.55668 10.2452 4.55518C10.7985 4.55368 11.2484 4.9904 11.25 5.53115V5.53659ZM18.7297 5.53659C18.7314 6.07708 18.2841 6.51651 17.7305 6.51801C17.1772 6.51937 16.7273 6.08252 16.7257 5.54203V5.53659C16.7242 4.99597 17.1715 4.55668 17.7249 4.55518C18.2782 4.55368 18.7281 4.9904 18.7297 5.53115V5.53659Z" fill="white"/>
</svg>
