<svg width="120" height="69" viewBox="0 0 120 69" fill="none" xmlns="http://www.w3.org/2000/svg">
<g clip-path="url(#clip0)">
<path opacity="0.1" d="M72.1802 49.2906C74.4964 49.1585 77.3701 47.5875 79.6045 46.8927C82.249 46.0724 84.904 45.2832 87.5695 44.5251C96.8488 41.8848 106.228 39.635 115.706 37.7758C116.591 37.6018 117.477 37.432 118.364 37.2665C116.982 34.2797 114.84 31.7079 112.153 29.8076C112.222 29.1538 112.257 28.4968 112.258 27.8394C112.258 17.4492 103.955 9.02612 93.7079 9.02612C90.5532 9.02276 87.4515 9.837 84.7053 11.3894C77.4529 6.61878 67.987 3.73145 57.6303 3.73145C42.9138 3.73145 29.9947 9.56166 22.6742 18.341L57.0791 24.1534L78.1802 27.7168C54.1247 28.4347 29.9947 29.1484 6.00836 27.4631C2.84204 30.5268 0.83798 34.5951 0.338678 38.9726C-0.160625 43.3501 0.875823 47.7651 3.27089 51.4631C3.27089 51.8394 3.28661 52.2125 3.31491 52.5824C3.92591 52.7575 4.51596 52.9272 5.04521 53.0383C13.542 54.8333 22.0932 56.3354 30.699 57.5449C24.3573 61.4551 16.6344 62.0084 9.3191 63.6643C12.8615 66.5884 17.6719 68.3805 22.9729 68.3805H101.902C110.449 68.3805 117.377 62.4308 117.377 55.0904C118.659 52.9755 119.514 50.6292 119.892 48.1849C104.077 49.7119 88.0653 48.3861 72.1802 49.2906Z" fill="#EDE04B"/>
<path opacity="0.1" d="M120 45.0575C120.008 42.0323 119.289 39.0494 117.903 36.3604C116.517 33.6714 114.504 31.3553 112.035 29.6074C112.103 28.9539 112.138 28.2973 112.14 27.6402C112.14 17.25 103.832 8.83011 93.5895 8.83011C90.4346 8.82674 87.3327 9.64059 84.5859 11.1924C77.3335 6.41963 67.8666 3.53125 57.5099 3.53125C40.6638 3.53125 26.1632 11.1767 19.7324 22.1401C19.3751 22.1192 19.0156 22.1077 18.653 22.1077C8.40948 22.1077 0.102758 30.5307 0.102758 40.9209C0.0955786 44.591 1.15593 48.1838 3.15463 51.2619C3.15463 60.6103 11.978 68.1887 22.8577 68.1887H101.789C110.335 68.1887 117.263 62.2379 117.263 54.8975C119.06 51.9305 120.007 48.5264 120 45.0575Z" fill="#EDE04B"/>
<path d="M98.0206 33.5309C97.8708 33.4159 97.6953 33.3389 97.5092 33.3066C97.3132 33.2615 97.113 33.2332 96.9139 33.2018L94.3336 32.8298C94.0732 32.7814 93.8075 32.7673 93.5434 32.7878C93.4109 32.7987 93.2819 32.8358 93.1639 32.897C93.0458 32.9581 92.9411 33.0422 92.8559 33.1442C92.779 33.2391 92.7368 33.3574 92.7364 33.4795C92.7508 33.6025 92.7907 33.721 92.8538 33.8275C92.8788 33.8772 92.9001 33.9287 92.9177 33.9815C92.9424 34.1001 92.9732 34.2173 93.0099 34.3326C93.0214 34.3576 93.0362 34.3809 93.054 34.4018C93.0544 34.4077 93.0544 34.4137 93.054 34.4196C93.0257 34.5643 93.1168 34.7152 93.076 34.8546C93.0403 34.974 92.924 35.0463 92.8506 35.1459C92.8017 35.2165 92.7746 35.3 92.7728 35.3859C92.7709 35.4718 92.7943 35.5564 92.8402 35.6291C92.9188 35.7506 93.0613 35.8334 93.1022 35.9728C93.1556 36.1562 93.011 36.3333 92.8821 36.4748C92.6449 36.7353 92.4257 37.0115 92.226 37.3017C92.1699 37.3731 92.1337 37.4581 92.1212 37.548C92.1097 37.7304 92.2847 37.8907 92.2543 38.072C92.2302 38.2146 92.0908 38.3015 91.9703 38.3864C91.5249 38.6799 91.1675 39.1515 91.1319 39.6849C91.0175 38.8362 90.6659 38.037 90.1174 37.3793C89.9675 37.199 89.803 37.0177 89.7411 36.7892C89.7181 36.698 89.7139 36.6006 89.6824 36.5125C89.5776 36.2348 89.2444 36.1153 89.0987 35.8596C88.9939 35.6794 88.9939 35.4477 88.8639 35.2895C88.734 35.1312 88.5296 35.0956 88.4175 34.9426C88.3615 34.8389 88.3138 34.731 88.2749 34.6198C88.2279 34.5291 88.1618 34.4497 88.081 34.3871C88.0656 34.3748 88.0495 34.3632 88.0328 34.3525C88.0502 34.337 88.0642 34.3179 88.0737 34.2966C88.0833 34.2753 88.0883 34.2522 88.0884 34.2289C88.0884 34.1063 87.9668 34.0256 87.861 33.9648C87.7247 33.8872 87.5916 33.8034 87.4617 33.7164C87.6034 33.6504 87.7263 33.5498 87.819 33.424C87.9353 33.2363 87.9835 33.0142 87.9553 32.7952C87.9481 32.6184 87.8821 32.4491 87.7677 32.3141C87.7017 32.2439 87.6189 32.1936 87.5497 32.1276C87.3705 31.9525 87.3097 31.6937 87.2353 31.4547C87.1368 31.1403 86.9827 30.8102 86.6955 30.6436C86.5572 30.5629 86.3958 30.5251 86.2606 30.4402C86.1254 30.3553 86.0122 30.195 86.0594 30.0409C86.0908 29.9361 86.1883 29.8638 86.2543 29.7747C86.3331 29.6595 86.3634 29.5179 86.3385 29.3806C86.3135 29.2432 86.2355 29.1213 86.1212 29.0411C86.0437 28.9919 85.9483 28.9489 85.9326 28.8587C85.8719 28.843 85.8169 28.8104 85.7739 28.7648C85.7309 28.7192 85.7016 28.6624 85.6894 28.6009C85.6659 28.4777 85.6659 28.3511 85.6894 28.2278C85.7167 28.0329 85.7436 27.8387 85.7701 27.6451C85.8163 27.6643 85.8658 27.6742 85.9158 27.6742C85.9658 27.6742 86.0153 27.6643 86.0615 27.6451C86.1522 27.7923 86.2575 27.93 86.3759 28.056C86.695 28.4328 86.9436 28.8642 87.1095 29.3293C87.1693 29.497 87.23 29.6846 87.3851 29.7737C87.4386 29.8041 87.4994 29.8198 87.5518 29.8523C87.6164 29.8973 87.6719 29.9542 87.7153 30.02C87.841 30.1866 87.9668 30.3522 88.0915 30.5188L88.0978 30.544C88.1012 30.5587 88.1069 30.5729 88.1146 30.5859C88.1378 30.612 88.1699 30.6285 88.2047 30.632C88.5904 30.7211 89.0232 30.8029 89.3575 30.5922C89.6594 30.4036 89.7914 30.0305 90.0472 29.781C90.2285 29.6039 90.4852 29.4666 90.5366 29.2172C90.4754 29.1983 90.4152 29.1763 90.3563 29.1512C90.4087 29.0987 90.4611 29.038 90.5324 28.9688C90.6359 28.8674 90.7293 28.7561 90.8112 28.6366C90.8996 28.489 90.97 28.3314 91.0208 28.167C91.2227 27.5913 91.4253 27.0153 91.6286 26.4388C91.7251 26.1663 91.8215 25.8918 91.943 25.6266C92.0688 25.3394 92.2176 25.0638 92.3549 24.7819C92.7092 24.0487 92.9826 23.2791 93.1703 22.4867C93.2036 22.3786 93.2146 22.2649 93.2028 22.1524C93.1734 21.9711 93.0361 21.8285 92.9051 21.6996C92.7734 21.557 92.6233 21.4326 92.4587 21.3297C92.376 21.2783 92.284 21.2438 92.1879 21.2284C92.0918 21.2129 91.9936 21.2167 91.899 21.2395C91.6307 21.3181 91.462 21.5927 91.4002 21.8684C91.3383 22.144 91.3614 22.428 91.3352 22.7068C91.2975 23.1103 91.1591 23.5002 91.1256 23.9047C91.1078 24.1384 91.1256 24.3753 91.0973 24.609C91.0457 24.9148 90.9392 25.2088 90.7829 25.4767C90.443 26.1157 89.9829 26.6829 89.4278 27.1473C89.3638 27.2008 89.2978 27.2521 89.2349 27.3098C89.2349 27.2647 89.2423 27.2186 89.2486 27.1735C89.2029 27.1854 89.1584 27.2012 89.1154 27.2207C89.1207 27.1677 89.1154 27.1143 89.0997 27.0635C89.0159 26.813 88.6428 26.7491 88.5757 26.4944C88.5645 26.4314 88.5586 26.3676 88.5579 26.3036C88.5359 26.0804 88.3839 25.8918 88.3315 25.6748C88.2833 25.4746 88.32 25.2556 88.2267 25.0701C88.1472 24.9541 88.0536 24.8485 87.9479 24.7557C87.822 24.6119 87.7312 24.4407 87.6828 24.2558C87.6692 24.2044 87.6566 24.151 87.6419 24.0996C87.6578 23.9833 87.6449 23.8649 87.6042 23.7548C87.5088 23.518 87.2625 23.366 87.1734 23.126C87.1043 22.9395 87.1347 22.7068 87.0037 22.5622C86.934 22.4931 86.8489 22.4417 86.7553 22.4123C86.2756 22.2255 85.7723 22.1066 85.2597 22.0591C84.9726 22.0329 84.6561 22.0182 84.4507 21.816C84.2107 21.5812 84.1991 21.1588 83.9182 20.9775C83.6709 20.8172 83.3209 20.9356 83.1291 21.1609C83.1003 21.1941 83.0736 21.2291 83.0494 21.2657C83.0144 21.1253 83.007 20.9794 83.0274 20.836C83.0274 20.8004 83.0348 20.7637 83.0379 20.7312C83.5111 20.5766 83.9138 20.2586 84.174 19.8341C84.174 19.8341 84.174 19.8341 84.174 19.8404L84.1866 19.8729C84.2169 19.9494 84.2652 20.0228 84.3364 20.0312C84.3838 20.0306 84.4296 20.014 84.4664 19.984C84.5296 19.9401 84.5879 19.8895 84.6403 19.8331C84.6669 19.8037 84.6921 19.7733 84.7158 19.7419C84.7641 19.6765 84.8055 19.6062 84.8395 19.5323C84.8915 19.4211 84.9268 19.3028 84.9443 19.1812C84.9631 19.0596 84.9652 18.9349 84.9862 18.8133C85.0058 18.7192 85.0313 18.6265 85.0627 18.5356C85.0732 18.5052 85.0837 18.4748 85.0931 18.4444C85.1025 18.414 85.1162 18.3732 85.1266 18.3396C85.1922 18.1241 85.2275 17.9004 85.2314 17.6752C85.2314 17.6374 85.2314 17.5997 85.2314 17.562C85.2276 17.415 85.1945 17.2702 85.134 17.1361C85.0736 17.002 84.987 16.8814 84.8793 16.7812C84.699 16.6334 84.4601 16.5716 84.328 16.3714C84.2421 16.2373 84.2232 16.0643 84.1729 15.9071C84.1186 15.719 84.0126 15.5499 83.867 15.4189C83.7214 15.2879 83.542 15.2004 83.3492 15.1662C83.117 15.1407 82.8838 15.2048 82.6973 15.3454L82.6826 15.3569C82.5787 15.4363 82.4905 15.5344 82.4227 15.6462C82.2842 15.608 82.1575 15.536 82.0538 15.4366C81.949 15.3391 81.8683 15.2165 81.7625 15.1222C81.6635 15.0316 81.5421 14.9692 81.4108 14.9415C81.2796 14.9139 81.1433 14.922 81.0163 14.965C80.8854 15.0174 80.7688 15.1001 80.676 15.2063C80.5833 15.3125 80.5171 15.4392 80.4828 15.576C80.4252 15.7919 80.4356 16.0402 80.3151 16.2205C80.2218 16.3609 80.0688 16.4301 79.9619 16.558C79.8955 16.6389 79.8502 16.7351 79.8299 16.8378C79.8172 16.8952 79.8112 16.954 79.8121 17.0128C79.8121 17.039 79.8121 17.0652 79.8183 17.0904C79.8183 17.0904 79.8183 17.0988 79.8183 17.103C79.8221 17.1317 79.828 17.1601 79.8362 17.1878C79.866 17.2941 79.9193 17.3922 79.9923 17.475C80.0615 17.5543 80.1479 17.6166 80.2449 17.6574C80.2846 17.6728 80.3252 17.6858 80.3665 17.6961L80.4912 17.7244L80.5352 17.7349C80.3847 18.0175 80.3011 18.3309 80.291 18.6509C80.2808 18.9709 80.3443 19.2889 80.4765 19.5805C80.4765 19.6098 80.4692 19.6392 80.466 19.6685C80.449 20.0812 80.4672 20.4946 80.5205 20.9042C80.5352 21.0666 80.5436 21.2458 80.444 21.3747C80.3987 21.4254 80.3477 21.4708 80.2921 21.5099C80.3486 21.4366 80.4063 21.3643 80.465 21.2919C80.3172 21.1431 80.0835 21.1243 79.8739 21.1389C79.4682 21.1692 79.0744 21.2895 78.7211 21.4911C78.4863 21.6263 78.2452 21.8055 77.977 21.774C77.8187 21.7562 77.6625 21.6692 77.5085 21.7112C77.4219 21.7466 77.341 21.7946 77.2685 21.8537C77.2111 21.8948 77.142 21.9161 77.0715 21.9145C76.9069 21.7122 76.6522 21.5749 76.4552 21.4104C76.231 21.2108 76.0257 20.9908 75.8421 20.7533C75.5025 20.3435 75.164 19.9326 74.8308 19.5187C74.5499 19.1707 74.2617 18.7945 74.2124 18.3491C74.2074 18.3049 74.2049 18.2604 74.2051 18.216C74.2119 18.0043 74.2386 17.7938 74.2847 17.5871C74.2972 17.5372 74.2972 17.4851 74.2847 17.4352C74.2533 17.3304 74.1328 17.2916 74.029 17.2685C74.0426 17.1878 74.0521 17.105 74.0573 17.0264C74.116 16.1251 74.0521 15.2092 74.2428 14.3267C74.3151 13.9871 74.4335 13.6434 74.6777 13.3971C75.0603 13.0104 75.7006 12.9171 75.9941 12.4591C76.2393 12.0776 76.1418 11.5379 75.8337 11.2015C75.5256 10.865 75.0508 10.7278 74.5991 10.7445C74.4724 10.7402 74.3472 10.7737 74.2397 10.8409C74.1391 10.9302 74.0639 11.0445 74.0217 11.1721L73.5721 12.2652C73.4417 12.5498 73.3317 12.8433 73.243 13.1435C73.1172 13.6025 73.0889 14.0867 72.9894 14.5499C72.9894 14.9063 72.7598 15.3506 72.6341 15.6787C72.4936 16.0476 72.3417 16.4123 72.2149 16.7885C72.1834 16.8829 72.0734 17.1627 72.0053 17.4174C71.9795 17.4323 71.9556 17.4503 71.934 17.4708C71.8793 17.5409 71.8295 17.6148 71.7852 17.6919C71.6898 17.8177 71.5347 17.8848 71.4299 18.0064C71.3251 18.1279 71.3031 18.3512 71.4487 18.4119C71.4783 18.4219 71.5089 18.4286 71.5399 18.4319C71.559 18.4335 71.5779 18.4366 71.5965 18.4413C71.7537 18.4853 71.8156 18.6834 71.7925 18.8469C71.7694 19.0104 71.6877 19.1613 71.6741 19.3248C71.6458 19.614 71.8156 19.8834 71.9791 20.1265C72.1483 20.3901 72.3353 20.6419 72.5387 20.8801C72.6865 21.0457 72.8531 21.1945 73.0019 21.3538C73.5689 21.9365 74.0196 22.6177 74.5289 23.2507C74.7122 23.4896 74.9205 23.7082 75.1504 23.9026C75.3005 24.02 75.4577 24.1282 75.621 24.2264L76.4971 24.7819C76.5965 24.8547 76.7089 24.9077 76.8283 24.9381C76.8673 24.9433 76.9067 24.9433 76.9457 24.9381C76.9509 24.9643 76.9551 24.9894 76.9614 25.0156C77.0295 25.2902 77.1794 25.5396 77.1962 25.8194C77.2129 26.0993 77.1878 26.3854 77.2077 26.6684C77.2266 26.9293 77.2842 27.1924 77.2989 27.4491C77.3282 27.9438 77.2066 28.4322 77.0893 28.9164C76.9121 29.6249 76.8052 30.348 76.4604 30.9905C76.364 31.1676 76.2508 31.3478 76.2508 31.5501C76.2508 31.5742 76.2508 31.5994 76.2571 31.6235L76.0999 31.7125C76.0538 31.7387 76.0077 31.7649 75.9658 31.7922C75.7667 31.9222 75.5539 32.0657 75.4722 32.29C75.4061 32.4713 75.4365 32.6788 75.3569 32.8549C75.3531 32.8628 75.3489 32.8705 75.3443 32.878C75.2604 33.0415 75.0938 33.163 75.0561 33.3422C75.0278 33.4795 75.0823 33.6252 75.0561 33.7615C75.0561 33.7615 75.0561 33.7615 75.0561 33.7667C75.0322 33.8351 75.0133 33.9052 74.9995 33.9763C74.9984 33.9995 75.0005 34.0228 75.0058 34.0455C75.0258 34.1249 75.0697 34.1962 75.1315 34.2498C75.1693 34.2861 75.2103 34.3187 75.2542 34.3473C75.2989 34.3767 75.345 34.4039 75.3925 34.4291L75.4197 34.4437C75.4596 34.4647 75.4994 34.4846 75.5403 34.5035L75.5675 34.515C75.6147 34.536 75.6629 34.5548 75.7111 34.5716L75.7446 34.5821C75.7824 34.5946 75.8211 34.6062 75.8599 34.6156L75.8861 34.624L75.9102 34.6292L76.015 34.6512L76.0538 34.6586C76.0999 34.6663 76.1471 34.6725 76.1953 34.6774H76.2372C76.2728 34.6774 76.3074 34.6827 76.342 34.6837H76.3913C76.428 34.6837 76.4636 34.6837 76.4961 34.6837H76.5338C76.5831 34.6837 76.6323 34.6764 76.6816 34.6701H76.6973C76.7413 34.6638 76.7853 34.6565 76.8294 34.647L76.8629 34.6397C76.9038 34.6303 76.9446 34.6208 76.9855 34.6083L77.0075 34.602C77.0568 34.5873 77.106 34.5716 77.1542 34.5527C77.3211 34.4842 77.4829 34.404 77.6384 34.3127C77.7432 34.2551 77.848 34.1964 77.9528 34.1429C78.0306 34.1038 78.1103 34.0688 78.1918 34.0381C78.39 33.9535 78.6056 33.9175 78.8206 33.9333C78.9267 33.9478 79.0317 33.9691 79.135 33.9973C79.135 34.0088 79.135 34.0203 79.135 34.0318C79.2203 34.5349 79.3045 35.038 79.3876 35.541C79.5248 35.4422 79.6699 35.355 79.8215 35.2801C79.7931 35.356 79.7745 35.4352 79.7659 35.5159C79.7597 35.5782 79.7597 35.6411 79.7659 35.7035C79.7754 35.803 79.7963 35.9131 79.7366 35.9917C79.6999 36.0399 79.6318 36.0671 79.6119 36.1216C79.5973 36.1774 79.5938 36.2354 79.6014 36.2925C79.5971 36.3576 79.5696 36.419 79.5238 36.4656C79.478 36.5121 79.417 36.5407 79.352 36.5461C79.382 36.6304 79.3827 36.7225 79.354 36.8073C79.3253 36.8921 79.2688 36.9647 79.1937 37.0135C79.1499 37.0346 79.109 37.0614 79.0721 37.0932C79.0363 37.1395 79.0122 37.1938 79.0019 37.2514C78.8634 37.7704 78.5786 38.2386 78.1813 38.6002C78.0323 38.7173 77.8963 38.8501 77.7757 38.9964C77.7012 39.1096 77.6397 39.2309 77.5923 39.358C77.3128 40.0413 77.0292 40.7249 76.7413 41.409C76.582 41.7915 76.4269 42.1803 76.3766 42.5922C76.2508 43.722 75.2447 44.6799 75.4334 45.8013C75.4715 46.0814 75.5845 46.3461 75.7604 46.5674C75.97 46.82 76.2844 46.9646 76.5988 47.082C77.4068 47.3964 78.2589 47.5683 79.1078 47.7412L80.4409 48.0147C80.7025 48.0749 80.9679 48.1169 81.2353 48.1405C81.557 48.1625 81.8872 48.1321 82.2005 48.2138C82.3944 48.2642 82.5799 48.3574 82.7801 48.3679C82.952 48.3773 83.1637 48.3407 83.2653 48.4811C83.367 48.6215 83.2884 48.807 83.3848 48.9318C83.5399 49.1298 83.9183 48.9318 84.087 49.1183C84.1331 49.1899 84.1684 49.268 84.1918 49.3499C84.2174 49.4006 84.2531 49.4455 84.2966 49.482C84.3069 49.5411 84.3111 49.6012 84.3092 49.6612C84.2873 49.9046 84.2366 50.1445 84.1583 50.3759C84.0325 50.8014 83.9071 51.2273 83.782 51.6535C83.7343 51.804 83.6992 51.9583 83.6772 52.1146C83.6693 52.1906 83.6693 52.2672 83.6772 52.3431C83.6992 52.5747 83.8323 52.8137 84.0534 52.8891C84.225 52.9345 84.4074 52.912 84.5628 52.8262C84.7127 52.748 84.8533 52.653 84.982 52.5433C85.2141 52.3677 85.418 52.1578 85.5867 51.9207C86.1107 51.1368 85.941 50.0762 86.3088 49.2095C86.553 48.631 87.0288 48.1614 87.1871 47.5515C87.2241 47.4354 87.2284 47.3114 87.1996 47.1931C87.1336 46.9835 86.9104 46.864 86.7018 46.7885H86.6924C86.5211 46.7275 86.346 46.6775 86.1684 46.6387C86.1244 46.6292 86.0793 46.6219 86.0342 46.6146C85.9345 46.5334 85.8552 46.43 85.8026 46.3127C85.7944 46.2503 85.7778 46.1894 85.7534 46.1314C85.7367 46.1064 85.7143 46.0858 85.6881 46.0712C85.6618 46.0566 85.6325 46.0485 85.6024 46.0476C85.4976 46.0371 85.3572 46.0748 85.243 46.0664C85.0093 46.0497 84.8541 45.8201 84.6445 45.7143C84.4349 45.6084 84.2075 45.6346 83.9843 45.6504C83.9044 45.6613 83.8232 45.6563 83.7453 45.6357C83.6522 45.5928 83.5672 45.5343 83.4938 45.4628C83.3648 45.3624 83.2142 45.2934 83.054 45.2612C82.8938 45.229 82.7282 45.2345 82.5705 45.2773C82.4702 45.3178 82.364 45.3418 82.2561 45.3485C82.0517 45.337 81.9071 45.1546 81.7562 45.0163C81.3432 44.638 80.7553 44.5384 80.2543 44.29C80.1777 44.2615 80.1137 44.2065 80.0741 44.1349C80.0164 43.9924 80.1464 43.8498 80.2638 43.7524L81.1252 43.0366C82.0685 42.2526 83.2475 41.6626 83.6856 40.5129C83.7313 40.3587 83.8021 40.2132 83.8952 40.0822C83.9291 40.0422 83.9682 40.0069 84.0115 39.9773C84.2021 39.8539 84.433 39.8088 84.6561 39.8516C84.9279 39.9124 85.1854 40.0248 85.4148 40.1828C85.79 40.4098 86.1551 40.6544 86.51 40.9164C86.8616 41.1676 87.196 41.4421 87.5109 41.738C88.0611 42.2621 88.5191 42.8835 89.0316 43.4484C89.5441 44.0133 90.1299 44.5405 90.8416 44.8109C91.5532 45.0813 92.4136 45.0697 93.0246 44.6159C93.7299 44.0919 93.9563 43.155 94.1345 42.2956C94.5275 41.9162 94.6459 41.3387 94.8377 40.8284C94.9582 40.5045 95.1123 40.1995 95.2423 39.8767C95.3974 39.4973 95.5189 39.1054 95.6405 38.7145C95.7783 38.3219 95.8718 37.9152 95.9193 37.5019C95.9696 36.849 95.7946 36.1541 95.978 35.541C96.2201 35.4876 96.4402 35.3513 96.6781 35.2717C97.0323 35.1553 97.4117 35.1742 97.7869 35.1763H97.811C97.9403 35.1901 98.0704 35.1594 98.1799 35.0893C98.3057 34.9845 98.3256 34.8053 98.3319 34.6429C98.3465 34.2415 98.3214 33.7908 98.0206 33.5309ZM82.8356 15.6535C82.749 15.675 82.6593 15.6813 82.5705 15.6724L82.8356 15.6535Z" fill="url(#paint0_linear)"/>
<path d="M83.2485 22.2852C83.1216 22.393 82.9729 22.472 82.8125 22.5169L82.0695 22.7831C81.666 22.9277 81.2447 23.0734 80.8192 23.021C80.5813 22.9916 79.5615 22.8418 79.4075 22.6563C79.1727 22.3691 79.9954 21.9467 80.2763 21.7046C80.3399 21.6589 80.3989 21.6069 80.4524 21.5495C80.5572 21.4217 80.5435 21.2425 80.5289 21.0811C80.4756 20.6722 80.4573 20.2595 80.4744 19.8475C80.4825 19.7493 80.4965 19.6517 80.5163 19.5551C80.6211 19.073 81.0696 19.2491 81.4239 19.377C81.8503 19.5155 82.2626 19.6941 82.6553 19.9104C82.7749 19.9721 82.8789 20.0603 82.9592 20.1682C83.1143 20.403 83.0525 20.7111 83.0274 21.0066C83.0053 21.2362 83.0064 21.4563 83.15 21.6229C83.2222 21.6866 83.2885 21.7568 83.3481 21.8325C83.3816 21.9088 83.39 21.9937 83.3721 22.0751C83.3542 22.1565 83.3109 22.2301 83.2485 22.2852Z" fill="#BE6F72"/>
<path d="M72.9841 14.731C73.0889 14.2668 73.1119 13.7878 73.2377 13.3277C73.3265 13.0286 73.4364 12.7361 73.5668 12.4526L74.029 11.3742C74.0712 11.2468 74.1464 11.1329 74.247 11.044C74.3547 10.9773 74.4797 10.9438 74.6064 10.9476C75.0581 10.9309 75.5329 11.0713 75.841 11.4035C76.1491 11.7357 76.2466 12.2734 76.0014 12.6538C75.7079 13.1118 75.0676 13.204 74.685 13.5897C74.4408 13.836 74.3224 14.1787 74.2501 14.5172C74.0593 15.3976 74.1233 16.3104 74.0646 17.2096C74.0457 17.4895 73.9912 17.8091 73.7502 17.9537C73.6045 18.0251 73.4425 18.0566 73.2807 18.0449L72.5932 18.0564C72.4779 18.0564 72.0597 18.1288 71.9832 18.0418C71.8491 17.8898 72.1551 17.1331 72.2106 16.9644C72.3343 16.5902 72.4863 16.2255 72.6298 15.8577C72.7546 15.5296 72.9841 15.0863 72.9841 14.731Z" fill="#BE6F72"/>
<path d="M87.1797 47.6551C87.0214 48.2608 86.5456 48.7324 86.3014 49.3099C85.9336 50.1745 86.0992 51.232 85.5793 52.0138C85.4107 52.2513 85.2068 52.4616 84.9746 52.6374C84.8459 52.7468 84.7053 52.8414 84.5554 52.9193C84.4 53.005 84.2176 53.0275 84.0461 52.9822C83.8249 52.9067 83.6918 52.6678 83.6698 52.4372C83.662 52.3616 83.662 52.2854 83.6698 52.2098C83.6918 52.0538 83.7269 51.8999 83.7746 51.7497C83.9004 51.3256 84.0258 50.9008 84.1509 50.4753C84.2291 50.2445 84.2798 50.0053 84.3018 49.7626C84.3154 49.4985 84.1477 49.1548 84.219 48.9085C84.2515 48.7974 84.3731 48.6989 84.4286 48.6056C84.5075 48.4714 84.5681 48.3272 84.6089 48.177C84.6948 47.8846 84.7535 47.5723 84.9337 47.326C85.0514 47.1799 85.189 47.0511 85.3425 46.9434C85.4558 46.8441 85.5886 46.7695 85.7323 46.7244C85.8718 46.6999 86.015 46.7067 86.1516 46.7443C86.3293 46.7823 86.5044 46.832 86.6756 46.8931H86.685C86.8946 46.9686 87.1168 47.0849 87.1828 47.2966C87.2149 47.4141 87.2138 47.5382 87.1797 47.6551Z" fill="#3F3D56"/>
<path d="M98.3307 34.7706C98.3244 34.933 98.3045 35.1143 98.1788 35.216C98.0693 35.2861 97.9392 35.3167 97.8099 35.303H97.7816C97.4074 35.303 97.027 35.282 96.6728 35.3984C96.4034 35.4874 96.1561 35.6509 95.8752 35.6834C95.4885 35.7274 95.1248 35.5157 94.7821 35.3313C94.4595 35.1575 94.1282 35.0001 93.7896 34.8597C93.5675 34.7685 93.1137 34.7098 93.0068 34.4667C92.9701 34.3516 92.9394 34.2348 92.9145 34.1166C92.8969 34.0638 92.8756 34.0123 92.8506 33.9626C92.7877 33.8564 92.7478 33.7382 92.7332 33.6157C92.7336 33.4935 92.7758 33.3752 92.8527 33.2803C92.9382 33.1791 93.0429 33.0958 93.1607 33.0352C93.2785 32.9745 93.4071 32.9378 93.5392 32.9271C93.8033 32.9066 94.0689 32.9207 94.3294 32.969L96.9096 33.34C97.1087 33.3683 97.3089 33.3966 97.5049 33.4448C97.691 33.4771 97.8665 33.5541 98.0163 33.6691C98.3213 33.9248 98.3465 34.3744 98.3307 34.7706Z" fill="#3F3D56"/>
<path d="M96.0628 35.4418C95.7484 36.1052 95.9747 36.8902 95.9182 37.6238C95.8706 38.0361 95.7771 38.4417 95.6394 38.8332C95.5178 39.2231 95.3962 39.614 95.2411 39.9923C95.1112 40.3068 94.9571 40.6212 94.8366 40.9419C94.6448 41.4533 94.5222 42.0287 94.1334 42.4091C93.9552 43.2664 93.7288 44.2033 93.0235 44.7232C92.4104 45.1759 91.5562 45.1916 90.8404 44.9181C90.1246 44.6446 89.543 44.1206 89.0305 43.5557C88.518 42.9908 88.06 42.3756 87.5098 41.8495C87.1944 41.5535 86.8593 41.2793 86.5068 41.0289C86.1519 40.771 85.7868 40.5286 85.4116 40.3015C85.1819 40.1443 84.9244 40.0323 84.6528 39.9714C84.4298 39.9286 84.1989 39.9737 84.0083 40.0971C83.965 40.1267 83.9259 40.162 83.892 40.202C83.7987 40.3325 83.7278 40.4778 83.6824 40.6316C83.2422 41.7782 82.061 42.3672 81.1178 43.149L80.2563 43.8627C80.139 43.9602 80.009 44.1027 80.0666 44.2442C80.1063 44.3158 80.1702 44.3708 80.2469 44.3993C80.7479 44.6467 81.3358 44.7462 81.7487 45.1235C81.8996 45.2619 82.0443 45.4442 82.2486 45.4547C82.3565 45.4484 82.4627 45.4247 82.5631 45.3845C82.7207 45.3418 82.8862 45.3363 83.0464 45.3683C83.2066 45.4003 83.3572 45.469 83.4864 45.5689C83.5597 45.6405 83.6448 45.699 83.7379 45.7419C83.8158 45.7625 83.897 45.7675 83.9769 45.7565C84.2001 45.7408 84.4369 45.7209 84.6371 45.8205C84.8373 45.92 85.0018 46.1548 85.2355 46.1716C85.3498 46.1799 85.486 46.1422 85.595 46.1527C85.625 46.1536 85.6544 46.1618 85.6806 46.1763C85.7069 46.1909 85.7293 46.2116 85.7459 46.2365C85.7704 46.2941 85.787 46.3548 85.7952 46.4168C85.8382 46.5646 85.9828 46.6547 86.0771 46.7763C86.2217 46.9628 86.2427 47.2165 86.228 47.4523C86.1806 48.1896 85.852 48.8806 85.31 49.3827C85.1561 49.54 84.9598 49.6493 84.7451 49.6971C84.6375 49.7196 84.5256 49.7078 84.4252 49.6632C84.3248 49.6186 84.2409 49.5436 84.1854 49.4488C84.162 49.3672 84.1267 49.2895 84.0806 49.2182C83.9119 49.0327 83.5335 49.2297 83.3784 49.0316C83.282 48.908 83.3512 48.7099 83.2589 48.582C83.1667 48.4542 82.9445 48.4772 82.7737 48.4699C82.5735 48.4594 82.388 48.3651 82.1941 48.3158C81.8797 48.2341 81.5507 48.2645 81.2289 48.2425C80.9615 48.2189 80.6961 48.1769 80.4345 48.1167L79.1014 47.8442C78.2525 47.6713 77.4004 47.4963 76.5924 47.1871C76.2832 47.0697 75.972 46.9251 75.754 46.6736C75.5782 46.4525 75.4653 46.1883 75.427 45.9085C75.2373 44.7902 76.2434 43.8344 76.3702 42.7078C76.4153 42.297 76.5798 41.9092 76.7349 41.5277C77.0193 40.8458 77.303 40.1635 77.5859 39.4809C77.6317 39.3538 77.6915 39.2322 77.7641 39.1183C77.8847 38.9724 78.0207 38.8399 78.1697 38.7232C78.5668 38.3628 78.8517 37.8956 78.9903 37.3775C79.0006 37.3199 79.0247 37.2656 79.0605 37.2192C79.0977 37.1881 79.1385 37.1617 79.1821 37.1406C79.257 37.0919 79.3133 37.0194 79.342 36.9349C79.3707 36.8503 79.3701 36.7585 79.3403 36.6743C79.4054 36.6689 79.4664 36.6403 79.5122 36.5938C79.5579 36.5472 79.5855 36.4858 79.5898 36.4206C79.5821 36.3639 79.5857 36.3062 79.6003 36.2509C79.6254 36.1964 79.6883 36.1691 79.725 36.1209C79.7847 36.0423 79.7638 35.9323 79.7543 35.8337C79.748 35.7714 79.748 35.7085 79.7543 35.6461C79.7773 35.4242 79.8765 35.2172 80.0352 35.0603C80.2857 34.814 80.642 34.8779 80.9879 34.8192C81.3328 34.7448 81.6698 34.637 81.994 34.4975C82.9033 34.1392 83.8608 33.9177 84.8352 33.8404C85.8144 33.7634 86.7979 33.92 87.7047 34.2973C87.8366 34.3508 87.961 34.4212 88.0747 34.5069C88.1554 34.5691 88.2215 34.6482 88.2685 34.7385C88.3072 34.8495 88.3549 34.9571 88.4111 35.0603C88.5232 35.2133 88.7349 35.2626 88.8575 35.4072C88.9802 35.5518 88.9907 35.796 89.0923 35.9752C89.238 36.231 89.5754 36.3494 89.6761 36.6271C89.7075 36.7151 89.7117 36.8116 89.7347 36.9027C89.7913 37.1312 89.9611 37.3115 90.111 37.4917C90.6604 38.1489 91.0122 38.9484 91.1255 39.7974C91.159 39.2661 91.5164 38.7955 91.9639 38.502C92.0844 38.4234 92.2238 38.3365 92.2479 38.1939C92.2783 38.0137 92.1033 37.8533 92.1148 37.6699C92.1276 37.5804 92.1637 37.4958 92.2196 37.4247C92.4194 37.1352 92.6386 36.8596 92.8757 36.5999C93.0046 36.4584 93.1492 36.2854 93.0958 36.0989C93.0549 35.9595 92.9124 35.8778 92.8338 35.7562C92.7879 35.6837 92.7645 35.5993 92.7663 35.5136C92.7682 35.4278 92.7953 35.3445 92.8443 35.2741C92.9176 35.1745 93.034 35.1022 93.0696 34.9838C93.1105 34.8444 93.0193 34.6935 93.0476 34.5499C93.0859 34.4349 93.162 34.3363 93.2635 34.2701C93.4025 34.1435 93.5606 34.0395 93.732 33.962C94.0086 33.8572 94.3168 33.8959 94.6102 33.9368C95.1007 34.0049 95.6509 34.1097 95.9276 34.5206C96.1047 34.7773 96.1948 35.1672 96.0628 35.4418Z" fill="#65617D"/>
<path opacity="0.1" d="M98.3308 34.7706C98.3245 34.933 98.3046 35.1143 98.1789 35.216C98.0693 35.2861 97.9392 35.3167 97.81 35.303H97.7817C97.8246 35.085 98.0898 34.9603 98.1359 34.7391C98.1438 34.6712 98.1376 34.6024 98.1178 34.537C98.098 34.4715 98.0649 34.4108 98.0206 34.3587C97.7963 34.0558 97.4358 33.8881 97.0774 33.7655C96.0648 33.4184 94.9799 33.3372 93.9269 33.5297C93.6406 33.5764 93.362 33.662 93.099 33.7844C93.0118 33.8389 92.9278 33.8984 92.8475 33.9626C92.7846 33.8564 92.7446 33.7382 92.7301 33.6157C92.7305 33.4935 92.7726 33.3752 92.8496 33.2803C92.935 33.1791 93.0397 33.0958 93.1575 33.0352C93.2753 32.9745 93.404 32.9378 93.536 32.9271C93.8001 32.9066 94.0658 32.9207 94.3262 32.969L96.9065 33.34C97.1057 33.3683 97.3058 33.3966 97.5018 33.4448C97.6879 33.4771 97.8634 33.5541 98.0133 33.6691C98.3214 33.9248 98.3465 34.3744 98.3308 34.7706Z" fill="black"/>
<path opacity="0.1" d="M87.1797 47.6562C87.0215 48.262 86.5457 48.7336 86.3015 49.3111C85.9336 50.1757 86.0992 51.2332 85.5794 52.015C85.4108 52.2525 85.2068 52.4628 84.9746 52.6386C84.8459 52.748 84.7053 52.8426 84.5554 52.9205C84.4001 53.0062 84.2176 53.0288 84.0461 52.9834C83.8249 52.9079 83.6918 52.669 83.6698 52.4384C83.662 52.3628 83.662 52.2866 83.6698 52.211L83.6761 52.2278C83.7673 52.4479 83.9161 52.6784 84.1509 52.7172C84.239 52.7236 84.3275 52.7117 84.4108 52.6823C84.4941 52.6529 84.5704 52.6066 84.6351 52.5464C84.9809 52.2686 85.1822 51.8547 85.3739 51.4554C85.524 51.1674 85.6428 50.8642 85.7282 50.5509C85.7701 50.3728 85.79 50.1904 85.833 50.0122C86.0321 49.1465 86.7102 48.4402 86.8601 47.563C86.8723 47.5026 86.8751 47.4408 86.8685 47.3796C86.8487 47.2997 86.8184 47.2229 86.7783 47.1511C86.7419 47.07 86.7152 46.9848 86.6987 46.8975C86.9083 46.9729 87.1305 47.0893 87.1965 47.301C87.2236 47.4187 87.2178 47.5416 87.1797 47.6562Z" fill="black"/>
<path opacity="0.1" d="M85.5971 46.1541C85.5001 46.4076 85.3369 46.6306 85.1244 46.7996C84.8261 47.027 84.4768 47.1781 84.1068 47.2398C83.9346 47.2837 83.7539 47.2816 83.5828 47.2335C83.3501 47.1528 83.1825 46.9348 82.9446 46.872C82.7748 46.8258 82.5924 46.8667 82.4205 46.8416C82.1114 46.7986 81.8714 46.5628 81.622 46.3741C80.8579 45.7998 79.855 45.6143 79.091 45.04C79.0569 45.0191 79.0288 44.9899 79.0092 44.9551C78.9946 44.9174 78.9892 44.8768 78.9935 44.8367C78.9963 44.4883 79.0746 44.1447 79.223 43.8295C79.3445 43.6096 79.4893 43.4033 79.6548 43.2143C80.3392 42.3759 81.0267 41.5312 81.8462 40.8237C82.19 40.5271 82.5652 40.2505 82.9991 40.1163C83.2401 40.0419 83.7159 39.9717 84.0094 40.0974C83.9661 40.127 83.9269 40.1623 83.893 40.2022C83.7997 40.3328 83.7289 40.478 83.6834 40.6319C83.2422 41.7795 82.0611 42.3685 81.1179 43.1504L80.2564 43.8641C80.139 43.9616 80.009 44.1041 80.0667 44.2456C80.1063 44.3171 80.1703 44.3722 80.2469 44.4007C80.7479 44.648 81.3358 44.7476 81.7488 45.1249C81.8997 45.2632 82.0443 45.4456 82.2487 45.4561C82.3566 45.4497 82.4627 45.426 82.5631 45.3858C82.7208 45.3432 82.8862 45.3376 83.0464 45.3696C83.2066 45.4016 83.3572 45.4703 83.4864 45.5703C83.5597 45.6419 83.6448 45.7004 83.7379 45.7432C83.8158 45.7638 83.897 45.7688 83.9769 45.7579C84.2001 45.7422 84.4369 45.7223 84.6371 45.8218C84.8373 45.9214 85.0018 46.1561 85.2355 46.1729C85.3519 46.1813 85.4881 46.1415 85.5971 46.1541Z" fill="black"/>
<path d="M75.9584 31.9294C75.7593 32.0572 75.5476 32.2019 75.4658 32.4241C75.3987 32.6054 75.4302 32.8129 75.3495 32.989C75.2688 33.165 75.0875 33.2876 75.0476 33.4763C75.0193 33.6136 75.0749 33.7582 75.0476 33.8955C75.0239 33.9669 75.0047 34.0397 74.99 34.1135C74.9795 34.2696 75.1137 34.3965 75.2447 34.4834C75.5236 34.6648 75.8412 34.7783 76.1719 34.8147C76.5026 34.8511 76.8373 34.8094 77.149 34.693C77.4288 34.5882 77.6814 34.4174 77.9497 34.2833C78.2113 34.1326 78.5106 34.0599 78.8122 34.0737C78.9851 34.0925 79.1507 34.1554 79.3236 34.1785C79.409 34.1953 79.4973 34.1912 79.5807 34.1664C79.6641 34.1415 79.7403 34.0968 79.8026 34.0359C79.856 33.9622 79.8918 33.8772 79.9074 33.7875C80.0531 33.2122 79.987 32.6022 79.8487 32.0237C79.7103 31.4452 79.5007 30.8887 79.353 30.3133C79.2482 29.8868 79.1675 29.4498 78.9924 29.0463C78.8174 28.6428 78.5229 28.2676 78.111 28.1135C78.0786 28.0976 78.0417 28.0928 78.0062 28.0999C77.9798 28.1109 77.9565 28.1282 77.9381 28.1502C77.6123 28.4955 77.3668 28.9084 77.2192 29.3596C77.0546 29.8616 77.0096 30.394 76.8586 30.8981C76.7937 31.1077 76.7098 31.3886 76.5442 31.549C76.3786 31.7093 76.146 31.8089 75.9584 31.9294Z" fill="#3F3D56"/>
<path opacity="0.1" d="M79.9105 33.7851C79.893 33.8751 79.8554 33.96 79.8005 34.0335C79.7384 34.0945 79.6622 34.1393 79.5787 34.164C79.4952 34.1886 79.4069 34.1924 79.3215 34.1749C79.1497 34.154 78.9841 34.0901 78.8111 34.0701C78.5095 34.0562 78.2102 34.1289 77.9486 34.2797C77.6803 34.4139 77.4246 34.5805 77.1469 34.6885C76.7406 34.8425 76.2967 34.8678 75.8756 34.7608C75.6519 34.7046 75.4393 34.611 75.2468 34.4841C75.1147 34.3982 74.9816 34.2745 74.9921 34.1142C75.0068 34.0407 75.026 33.9683 75.0497 33.8972C75.077 33.7599 75.0225 33.6153 75.0497 33.478C75.0896 33.2894 75.2719 33.1636 75.3516 32.9896C75.4312 32.8156 75.4008 32.6071 75.4669 32.4258C75.5486 32.2025 75.7614 32.059 75.9605 31.9301C76.1596 31.8011 76.3965 31.7026 76.5558 31.5465C76.5763 31.5222 76.5949 31.4962 76.6113 31.4689C76.7262 31.2918 76.8105 31.0965 76.8607 30.8915C77.0148 30.3863 77.0567 29.855 77.2202 29.3519C77.3685 28.9011 77.6143 28.4885 77.9402 28.1435C77.9577 28.121 77.9808 28.1036 78.0073 28.0932C78.0427 28.086 78.0794 28.0904 78.1121 28.1058C78.5229 28.2609 78.8174 28.6361 78.9935 29.0396C79.1696 29.4431 79.244 29.878 79.354 30.3056C79.5008 30.881 79.7114 31.4396 79.8498 32.017C79.9881 32.5945 80.0562 33.2087 79.9105 33.7851Z" fill="black"/>
<path opacity="0.1" d="M83.0273 21.0023C82.5345 21.1589 82.0013 21.1278 81.53 20.915C81.0587 20.7022 80.6828 20.3227 80.4744 19.8495C80.4825 19.7513 80.4965 19.6536 80.5163 19.5571C80.6211 19.075 81.0696 19.251 81.4239 19.3789C81.8503 19.5174 82.2626 19.696 82.6553 19.9124C82.7749 19.974 82.8789 20.0622 82.9592 20.1702C83.1143 20.4018 83.0525 20.7099 83.0273 21.0023Z" fill="black"/>
<path d="M82.3944 20.9968C83.552 20.9968 84.4904 20.0584 84.4904 18.9008C84.4904 17.7431 83.552 16.8047 82.3944 16.8047C81.2367 16.8047 80.2983 17.7431 80.2983 18.9008C80.2983 20.0584 81.2367 20.9968 82.3944 20.9968Z" fill="#BE6F72"/>
<path opacity="0.1" d="M88.082 34.5638C88.082 34.7377 87.8462 34.7933 87.6712 34.7838C87.0424 34.7472 86.4272 34.5742 85.8046 34.6266C85.0176 34.6979 84.2944 35.1328 83.5053 35.1727C83.2013 35.1884 82.8922 35.1433 82.5924 35.1989C82.2047 35.2712 81.8588 35.507 81.4637 35.5405C81.121 35.5699 80.7825 35.441 80.4398 35.4546C80.2002 35.4689 79.9666 35.5354 79.7554 35.6495C79.7784 35.4276 79.8776 35.2205 80.0363 35.0637C80.2868 34.8174 80.6431 34.8813 80.989 34.8226C81.3339 34.7482 81.6709 34.6404 81.9951 34.5009C82.9044 34.1426 83.8619 33.9211 84.8363 33.8437C85.8149 33.7659 86.798 33.9214 87.7047 34.2975C87.8367 34.351 87.961 34.4215 88.0747 34.5072C88.0804 34.5255 88.0829 34.5446 88.082 34.5638Z" fill="black"/>
<path d="M81.425 22.7273L80.5761 22.4129L80.2177 22.2809C80.0716 22.2196 79.9179 22.1787 79.7607 22.1593C79.3499 22.1278 78.9632 22.4014 78.7441 22.7504C78.5251 23.0994 78.4423 23.5154 78.3721 23.921C78.2757 24.4758 78.1939 25.0326 78.1268 25.5916C78.0546 26.0963 78.0178 26.6055 78.0168 27.1154C78.0409 28.4129 78.3155 29.6925 78.6173 30.9554C78.7651 31.5154 78.8768 32.0842 78.9516 32.6585C78.9768 32.8953 78.9883 33.1332 79.0135 33.3711C79.0407 33.6384 79.0847 33.9025 79.1288 34.1676L79.3813 35.6737C79.6957 35.4504 80.0531 35.2545 80.4398 35.2429C80.7826 35.2303 81.1221 35.3582 81.4638 35.3289C81.8568 35.2964 82.2047 35.0606 82.5925 34.9883C82.8922 34.9327 83.2014 34.9767 83.5064 34.9621C84.2945 34.9222 85.0187 34.4862 85.8047 34.416C86.4283 34.3594 87.0477 34.5355 87.6723 34.5722C87.8463 34.5827 88.0821 34.5271 88.0821 34.3521C88.0821 34.2305 87.9605 34.1498 87.8547 34.089C87.3557 33.7886 86.8809 33.4498 86.4346 33.0756C86.0217 32.7486 85.6025 32.4132 85.3184 31.971C84.6341 30.9072 84.8688 29.4683 84.2851 28.3458C83.8103 27.434 84.2851 26.2393 84.2851 25.2112C84.2851 24.6987 84.2851 24.1799 84.1646 23.6821C84.0892 23.4036 83.9954 23.1305 83.8837 22.8646L83.476 21.8323C83.4675 21.8021 83.4508 21.7749 83.4278 21.7537C83.4004 21.7348 83.3678 21.7249 83.3345 21.7254C83.0897 21.7107 82.8482 21.7881 82.6575 21.9423C82.4657 22.0985 82.3431 22.3228 82.1544 22.4852C81.948 22.6644 81.6818 22.8216 81.425 22.7273Z" fill="#E3E8F4"/>
<path d="M82.7947 22.1329C82.8618 21.8457 82.9341 21.547 83.1259 21.3227C83.3177 21.0984 83.6677 20.98 83.915 21.1404C84.1959 21.3227 84.2075 21.744 84.4475 21.9788C84.6571 22.18 84.9715 22.1957 85.2565 22.2219C85.7691 22.2686 86.2725 22.3871 86.7521 22.5741C86.8456 22.6031 86.9308 22.6541 87.0005 22.7229C87.1315 22.8717 87.1053 23.1002 87.1702 23.2857C87.2593 23.5246 87.5056 23.6766 87.601 23.9145C87.7058 24.1786 87.601 24.4742 87.5129 24.7456C87.3547 25.2329 87.2551 25.7391 87.1011 26.2286C86.947 26.718 86.728 27.2001 86.3674 27.569C86.2081 27.7325 85.9713 27.8834 85.7617 27.786L85.681 28.3676C85.6574 28.4905 85.6574 28.6168 85.681 28.7397C85.6932 28.8012 85.7224 28.858 85.7654 28.9036C85.8085 28.9492 85.8635 28.9817 85.9241 28.9975C85.9398 29.0876 86.0352 29.1306 86.1128 29.1798C86.17 29.219 86.2189 29.2691 86.2567 29.3273C86.2944 29.3855 86.3202 29.4506 86.3326 29.5188C86.345 29.5871 86.3437 29.6571 86.3288 29.7248C86.3139 29.7926 86.2857 29.8567 86.2459 29.9135C86.1798 30.0025 86.0824 30.0728 86.0509 30.1786C86.0038 30.3316 86.1159 30.493 86.2522 30.5769C86.3884 30.6607 86.5488 30.6995 86.6871 30.7802C86.9743 30.9458 87.1283 31.2717 87.2268 31.5882C87.3002 31.8272 87.361 32.086 87.5412 32.26C87.6104 32.326 87.6932 32.3763 87.7592 32.4455C87.8735 32.5805 87.9395 32.7498 87.9468 32.9266C87.9755 33.1456 87.9274 33.3679 87.8106 33.5554C87.601 33.8551 87.2101 33.9442 86.8674 34.0794C86.3108 34.3079 85.8529 34.7166 85.3624 35.0646C85.1626 35.2254 84.9272 35.3361 84.6759 35.3873C84.3364 35.4324 84.002 35.2825 83.6604 35.2689C83.456 35.2708 83.2526 35.2976 83.0546 35.3486L82.4258 35.4848C82.4593 34.9975 82.191 34.5091 82.0412 34.0448C81.7582 33.1708 81.7058 32.2359 81.7729 31.3199C81.8399 30.4039 82.0265 29.5005 82.2109 28.6013C82.3399 27.9725 82.3273 27.3154 82.5254 26.7044C82.7109 26.1164 82.976 25.5515 83.0735 24.9395C83.2328 23.9491 82.5704 23.1096 82.7947 22.1329Z" fill="#3F3D56"/>
<path d="M87.5622 24.0707C87.6201 24.1772 87.6607 24.2921 87.6828 24.4113C87.7312 24.5959 87.822 24.7667 87.9479 24.9102C88.0533 25.0032 88.147 25.1088 88.2267 25.2246C88.3231 25.4069 88.2864 25.6291 88.3315 25.8282C88.3839 26.0452 88.5358 26.2338 88.5579 26.4571C88.5585 26.521 88.5645 26.5848 88.5757 26.6478C88.6438 26.9014 89.0169 26.9622 89.0997 27.2158C89.1552 27.3804 89.0599 27.5596 89.0777 27.7325C89.0907 27.786 89.0939 27.8414 89.0871 27.896C89.0634 27.9578 89.0218 28.0111 88.9676 28.049C88.6208 28.3804 88.3807 28.8077 88.278 29.2763C88.1771 29.7423 88.124 30.2174 88.1198 30.6943L87.71 30.1524C87.6666 30.0867 87.6111 30.0298 87.5465 29.9847C87.4941 29.9533 87.4333 29.9376 87.3799 29.9061C87.2248 29.8181 87.164 29.6316 87.1042 29.4639C86.9383 28.9997 86.6898 28.5694 86.3706 28.1937C86.204 27.9977 86.0101 27.8006 85.9734 27.546C85.9624 27.429 85.9688 27.311 85.9923 27.1959C86.0971 26.5095 86.2092 25.8062 86.5435 25.1973C86.6997 24.9123 86.902 24.6544 87.0518 24.3652C87.1524 24.1734 87.2939 23.6745 87.5622 24.0707Z" fill="#3F3D56"/>
<path d="M77.2234 24.729C77.2253 24.8172 77.2028 24.9042 77.1584 24.9805C77.1183 25.0269 77.0662 25.0613 77.0077 25.0798C76.9492 25.0983 76.8867 25.1002 76.8272 25.0853C76.7079 25.0553 76.5955 25.0027 76.4961 24.9302C76.204 24.7457 75.912 24.5609 75.6199 24.3758C75.4569 24.2775 75.2997 24.1697 75.1493 24.053C74.9195 23.8589 74.7111 23.6407 74.5279 23.4021C74.0185 22.7733 73.5679 22.091 73.0009 21.5157C72.8468 21.3585 72.6865 21.2075 72.5377 21.043C72.3342 20.8052 72.1473 20.5538 71.978 20.2905C71.8145 20.0484 71.6447 19.7801 71.673 19.4909C71.6898 19.3274 71.7684 19.1765 71.7915 19.014C71.8145 18.8516 71.7527 18.6535 71.5955 18.6095C71.5769 18.6048 71.558 18.6016 71.5389 18.6C71.5078 18.5967 71.4773 18.5901 71.4477 18.5801C71.302 18.5193 71.324 18.294 71.4288 18.1756C71.5336 18.0572 71.6887 17.9911 71.7841 17.8612C71.8285 17.7841 71.8782 17.7102 71.9329 17.64C72.0031 17.5799 72.087 17.5378 72.1771 17.5174C72.7817 17.3393 73.4211 17.3151 74.0374 17.4472C74.1422 17.4703 74.2617 17.5122 74.2931 17.6138C74.3057 17.6634 74.3057 17.7152 74.2931 17.7648C74.2469 17.9714 74.2202 18.1819 74.2135 18.3936C74.2133 18.4377 74.2157 18.4818 74.2208 18.5256C74.27 18.97 74.5583 19.3462 74.8391 19.6931C75.1724 20.1061 75.5109 20.5158 75.8505 20.9246C76.0341 21.1614 76.2394 21.3807 76.4636 21.5796C76.6732 21.7536 76.9446 21.894 77.1081 22.1172C77.2412 22.2975 77.1983 22.5438 77.2129 22.7607C77.2617 23.4158 77.2652 24.0734 77.2234 24.729Z" fill="#3F3D56"/>
<path d="M90.5334 29.1011C90.6369 29.0004 90.7303 28.8899 90.8122 28.7709C90.9003 28.6236 90.9706 28.4663 91.0218 28.3025L91.6297 26.5784C91.7261 26.306 91.8225 26.0324 91.9441 25.7673C92.0698 25.4811 92.2187 25.2055 92.3559 24.9288C92.7091 24.2007 92.9821 23.4364 93.1703 22.6494C93.2034 22.5412 93.2144 22.4275 93.2028 22.315C93.1734 22.1337 93.0361 21.9922 92.9051 21.8633C92.7734 21.721 92.6232 21.597 92.4587 21.4944C92.376 21.443 92.284 21.4086 92.1879 21.3931C92.0918 21.3776 91.9936 21.3814 91.899 21.4043C91.6307 21.4829 91.462 21.7575 91.4001 22.0331C91.3383 22.3087 91.3614 22.5907 91.3352 22.8715C91.2974 23.274 91.1591 23.6628 91.1255 24.0663C91.1077 24.3 91.1255 24.5358 91.0972 24.7685C91.0457 25.074 90.9391 25.3677 90.7828 25.6352C90.4423 26.2725 89.9822 26.8383 89.4277 27.3016C89.2758 27.4137 89.1391 27.5451 89.0211 27.6925C88.9225 27.8399 88.8558 28.0062 88.8251 28.1809C88.7555 28.4468 88.7857 28.7291 88.91 28.9743C89.0808 29.2656 89.4089 29.3935 89.7222 29.4584C90.1456 29.5465 90.2431 29.4019 90.5334 29.1011Z" fill="#BE6F72"/>
<path d="M82.4069 15.8638C82.4972 15.6942 82.6354 15.555 82.8042 15.4635C82.9731 15.372 83.1651 15.3322 83.3565 15.3492C83.5492 15.3833 83.7284 15.4707 83.874 15.6015C84.0196 15.7323 84.1257 15.9012 84.1802 16.0891C84.2295 16.2453 84.2494 16.4182 84.3353 16.5524C84.4653 16.7546 84.7063 16.8133 84.8866 16.96C84.9942 17.06 85.0808 17.1805 85.1413 17.3144C85.2018 17.4483 85.2349 17.5929 85.2387 17.7398C85.2488 18.0398 85.2014 18.3389 85.0993 18.6212C85.056 18.7416 85.021 18.8649 84.9945 18.9901C84.9736 19.1117 84.9715 19.2353 84.9526 19.3569C84.9294 19.5145 84.8749 19.6659 84.7922 19.8022C84.7096 19.9384 84.6006 20.0568 84.4716 20.1503C84.4348 20.1802 84.389 20.1968 84.3416 20.1974C84.2599 20.188 84.2096 20.0926 84.1792 20.0067C84.0125 19.5256 84.0524 18.9377 83.7453 18.5541C83.6056 18.3994 83.4368 18.2737 83.2485 18.1841C83.1717 18.1346 83.0853 18.1021 82.9949 18.0888C82.862 18.0959 82.7342 18.1426 82.6281 18.2229C82.4069 18.3713 82.1614 18.4798 81.9028 18.5436C81.7738 18.5742 81.6396 18.5756 81.5099 18.5476C81.3803 18.5197 81.2585 18.4632 81.1535 18.3822C81.0089 18.2627 80.903 18.0835 80.7427 17.9903C80.5823 17.897 80.4146 17.9022 80.2564 17.8383C80.1555 17.7954 80.0658 17.73 79.994 17.6472C79.9223 17.5644 79.8703 17.4663 79.8422 17.3603C79.8141 17.2544 79.8106 17.1435 79.8319 17.0359C79.8532 16.9284 79.8987 16.8272 79.965 16.7399C80.0698 16.6142 80.2249 16.5429 80.3182 16.4035C80.4387 16.2233 80.4283 15.9759 80.4859 15.76C80.52 15.6234 80.5862 15.497 80.679 15.3911C80.7717 15.2852 80.8884 15.2029 81.0193 15.1511C81.1463 15.108 81.2825 15.0997 81.4138 15.1272C81.545 15.1547 81.6665 15.2169 81.7655 15.3073C81.8704 15.4016 81.9542 15.5232 82.0569 15.6217C82.1583 15.7188 82.2824 15.7888 82.4179 15.8254C82.5534 15.8621 82.696 15.8641 82.8324 15.8313" fill="#3F3D56"/>
<path opacity="0.1" d="M84.1299 31.2887C84.0689 31.3431 84.0257 31.4145 84.0059 31.4938C83.986 31.573 83.9906 31.6564 84.0188 31.7331C84.0419 31.7824 85.1235 31.5738 85.2377 31.5581C85.5228 31.5172 86.0227 31.5371 86.2145 31.2762C86.5562 30.814 85.4976 30.9167 85.3037 30.9334C84.9348 30.9649 84.4108 31.0152 84.1299 31.2887Z" fill="black"/>
<path d="M74.2909 17.7689C74.2447 17.9756 74.2181 18.1861 74.2113 18.3978C73.8969 18.4617 73.5699 18.3569 73.2681 18.2521L72.4014 17.9565C72.3486 17.9229 72.2851 17.9105 72.2235 17.922C72.162 17.9335 72.1072 17.9679 72.0702 18.0184C71.9308 18.163 71.739 18.4376 71.5462 18.6001C71.5151 18.5968 71.4846 18.5901 71.455 18.5801C71.3093 18.5194 71.3313 18.294 71.4361 18.1756C71.5409 18.0572 71.696 17.9911 71.7914 17.8612C71.8358 17.7841 71.8855 17.7102 71.9402 17.64C72.0104 17.5799 72.0942 17.5378 72.1844 17.5174C72.7889 17.3393 73.4284 17.3151 74.0447 17.4472C74.1495 17.4703 74.2689 17.5122 74.3004 17.6138C74.3106 17.6655 74.3073 17.7189 74.2909 17.7689Z" fill="#3F3D56"/>
<path opacity="0.1" d="M74.2909 17.7689C74.2447 17.9756 74.2181 18.1861 74.2113 18.3978C73.8969 18.4617 73.5699 18.3569 73.2681 18.2521L72.4014 17.9565C72.3486 17.9229 72.2851 17.9105 72.2235 17.922C72.162 17.9335 72.1072 17.9679 72.0702 18.0184C71.9308 18.163 71.739 18.4376 71.5462 18.6001C71.5151 18.5968 71.4846 18.5901 71.455 18.5801C71.3093 18.5194 71.3313 18.294 71.4361 18.1756C71.5409 18.0572 71.696 17.9911 71.7914 17.8612C71.8358 17.7841 71.8855 17.7102 71.9402 17.64C72.0104 17.5799 72.0942 17.5378 72.1844 17.5174C72.7889 17.3393 73.4284 17.3151 74.0447 17.4472C74.1495 17.4703 74.2689 17.5122 74.3004 17.6138C74.3106 17.6655 74.3073 17.7189 74.2909 17.7689Z" fill="black"/>
<path opacity="0.1" d="M82.2193 37.6662C82.3703 37.7165 82.5338 37.7899 82.5851 37.9408L81.3715 37.6327L80.7426 37.4723C80.6315 37.444 80.2333 37.4115 80.1599 37.3245C80.0551 37.1967 80.4272 37.2847 80.4942 37.2942C80.6976 37.3245 80.9009 37.356 81.1032 37.3927C81.4846 37.4608 81.8515 37.5729 82.2193 37.6662Z" fill="black"/>
<path opacity="0.1" d="M82.6899 38.7417C82.5851 38.6715 82.2843 38.6799 82.1554 38.6495C81.9668 38.6044 81.7812 38.5447 81.5957 38.4871C81.2195 38.3644 80.8464 38.2251 80.4596 38.1349C80.3884 38.1192 80.1452 38.115 80.1568 38.0249C80.1683 37.9348 80.3999 37.9033 80.4575 37.8991C80.8003 37.874 81.2279 38.0343 81.5465 38.1486C81.9526 38.294 82.3372 38.4935 82.6899 38.7417Z" fill="black"/>
<path opacity="0.1" d="M81.9207 36.7082C81.536 36.6034 81.187 36.3645 80.7909 36.3184C80.6876 36.3223 80.5861 36.2913 80.5027 36.2303C80.4561 36.1846 80.4237 36.1263 80.4094 36.0627C80.6745 36.049 80.9827 36.1612 81.2237 36.267C81.3564 36.3239 81.484 36.3919 81.6052 36.4703C81.6932 36.5238 81.8253 36.6778 81.9207 36.7082Z" fill="black"/>
<path d="M89.2527 27.3232C89.1877 27.759 89.2818 28.2035 89.5177 28.5756C89.7537 28.9476 90.1157 29.2222 90.5376 29.3491C90.4863 29.5975 90.2295 29.7348 90.0482 29.9119C89.7925 30.1603 89.6604 30.5323 89.3586 30.721C89.0222 30.9306 88.5893 30.8488 88.2058 30.7608C88.1709 30.7569 88.1387 30.7401 88.1156 30.7136C88.1077 30.7011 88.1021 30.6873 88.0989 30.6728C87.9721 30.2085 87.8893 29.7128 88.0192 29.2474C88.124 28.8513 88.3755 28.5138 88.5768 28.1638C88.778 27.8137 88.7968 27.4385 89.2527 27.3232Z" fill="#3F3D56"/>
<path d="M79.8822 21.314C79.4765 21.3435 79.0826 21.4635 78.7293 21.6651C78.4946 21.7992 78.2535 21.9795 77.9852 21.947C77.827 21.9292 77.6708 21.8422 77.5168 21.8841C77.43 21.9191 77.349 21.9672 77.2768 22.0267C77.2401 22.0558 77.1965 22.075 77.1502 22.0824C77.1039 22.0897 77.0566 22.085 77.0127 22.0686L76.9079 23.5191C76.868 24.0703 76.8292 24.6331 76.9613 25.1708C77.0294 25.4453 77.1793 25.6948 77.1961 25.9735C77.2128 26.2523 77.1877 26.5384 77.2076 26.8204C77.2265 27.0813 77.2841 27.3381 77.2988 27.599C77.3281 28.0916 77.2065 28.58 77.0892 29.059C76.912 29.7653 76.8051 30.4874 76.4603 31.1267C76.3639 31.3039 76.2507 31.4841 76.2507 31.6853C76.2507 31.7105 76.2507 31.7346 76.257 31.7587C76.1522 31.8163 76.0548 31.8708 75.9657 31.9274C75.7665 32.0563 75.5538 32.1999 75.472 32.4232C75.406 32.6045 75.4364 32.812 75.3568 32.987C75.2771 33.162 75.0948 33.2867 75.0549 33.4754C75.0266 33.6127 75.0811 33.7573 75.0549 33.8946C75.0312 33.9656 75.0119 34.0381 74.9973 34.1115C74.9868 34.2687 75.1199 34.3956 75.252 34.4815C75.4445 34.6084 75.6571 34.702 75.8808 34.7582L76.5065 32.2743C77.0769 31.2196 77.5515 30.1158 77.9244 28.9762C78.0311 28.6037 78.1682 28.2405 78.3342 27.8904C78.4528 27.6923 78.5579 27.4864 78.6486 27.2742C78.744 27.0101 78.7534 26.7239 78.7995 26.4452C78.8543 26.1198 78.9367 25.7997 79.0458 25.4883C79.159 25.1519 79.29 24.8165 79.3131 24.4633C79.3477 23.9582 79.1643 23.4247 79.3592 22.9573C79.4419 22.7824 79.5496 22.6203 79.6788 22.4763C79.9492 22.1451 80.1955 21.7982 80.4659 21.467C80.3255 21.3171 80.0918 21.3014 79.8822 21.314Z" fill="#3F3D56"/>
<g opacity="0.1">
<path opacity="0.1" d="M82.8356 15.5176L82.7046 15.527L82.69 15.5375C82.7391 15.5355 82.7878 15.5288 82.8356 15.5176Z" fill="black"/>
<path opacity="0.1" d="M85.2336 17.6937C85.2117 17.9021 85.1667 18.1073 85.0994 18.3058C85.0561 18.4262 85.0211 18.5494 84.9946 18.6747C84.9737 18.7962 84.9716 18.9199 84.9527 19.0415C84.9295 19.1991 84.8749 19.3505 84.7923 19.4868C84.7097 19.623 84.6007 19.7414 84.4716 19.8348C84.4349 19.8648 84.3891 19.8814 84.3417 19.882C84.2599 19.8726 84.2096 19.7772 84.1792 19.6913C84.0126 19.2102 84.0524 18.6223 83.7454 18.2387C83.6057 18.0839 83.4369 17.9582 83.2486 17.8687C83.1718 17.8192 83.0853 17.7867 82.995 17.7734C82.862 17.7805 82.7343 17.8272 82.6281 17.9075C82.4069 18.0559 82.1615 18.1644 81.9029 18.2282C81.7739 18.2588 81.6396 18.2601 81.51 18.2322C81.3803 18.2043 81.2586 18.1478 81.1536 18.0668C81.0089 17.9473 80.9031 17.7681 80.7427 17.6748C80.5824 17.5816 80.4147 17.5868 80.2564 17.5229C80.1576 17.4807 80.0695 17.4167 79.9987 17.3358C79.928 17.2549 79.8764 17.1591 79.8477 17.0555C79.844 17.0424 79.8412 17.0291 79.8393 17.0156C79.8131 17.1326 79.816 17.2542 79.8477 17.3699C79.8764 17.4735 79.928 17.5693 79.9987 17.6502C80.0695 17.7311 80.1576 17.7951 80.2564 17.8373C80.4147 17.9012 80.5929 17.9023 80.7427 17.9893C80.8926 18.0762 81.0089 18.2617 81.1536 18.3812C81.2586 18.4622 81.3803 18.5187 81.51 18.5466C81.6396 18.5746 81.7739 18.5732 81.9029 18.5426C82.1615 18.4788 82.4069 18.3703 82.6281 18.2219C82.7343 18.1416 82.862 18.0949 82.995 18.0878C83.0853 18.1011 83.1718 18.1336 83.2486 18.1831C83.4345 18.2744 83.6008 18.4011 83.738 18.5562C84.0451 18.9398 84.0053 19.5278 84.1719 20.0088C84.2023 20.0958 84.2526 20.1901 84.3343 20.1996C84.3847 20.1998 84.4334 20.182 84.4716 20.1493C84.6012 20.0555 84.7107 19.9367 84.7935 19.7999C84.8763 19.6631 84.9308 19.511 84.9537 19.3527C84.9726 19.2312 84.9747 19.1075 84.9957 18.9859C85.0221 18.8607 85.0571 18.7375 85.1005 18.617C85.2026 18.3348 85.2499 18.0356 85.2399 17.7356C85.2378 17.723 85.2357 17.7084 85.2336 17.6937Z" fill="black"/>
</g>
<path d="M78.6026 26.1035L78.5313 27.0604C78.5208 27.1903 78.2724 30.2841 76.4405 33.8998C74.8684 37.001 71.8092 41.0401 66.0335 43.3101C65.5828 43.4883 65.1151 43.6546 64.6302 43.809L64.0894 42.1112C65.4471 41.6839 66.7548 41.1119 67.9902 40.405C70.9341 38.7051 73.223 36.2789 74.8192 33.1568C75.666 31.4945 76.2696 29.7192 76.6113 27.8852H70.0401V26.1035H78.6026Z" fill="#EDE04B"/>
<path opacity="0.1" d="M65.3261 43.311C71.1008 41.041 74.161 37.0029 75.732 33.9018C77.564 30.2861 77.8134 27.1944 77.8228 27.0623L77.8941 26.1055H78.6277L78.5565 27.0623C78.547 27.1923 78.2976 30.2861 76.4656 33.9018C74.8936 37.0029 71.8344 41.041 66.0597 43.311C65.6091 43.4892 65.1409 43.6559 64.6553 43.811L64.5841 43.5877C64.837 43.4976 65.0843 43.4054 65.3261 43.311Z" fill="white"/>
<path d="M53.7641 42.1112L53.2233 43.809C52.7377 43.6539 52.2696 43.4873 51.819 43.3091C46.0443 41.0391 42.984 37.001 41.413 33.8998C39.5811 30.2841 39.3316 27.1924 39.3222 27.0604L39.2509 26.1035H47.8092V27.8852H41.237C41.5805 29.7194 42.1858 31.4947 43.0343 33.1568C44.6305 36.2789 46.9184 38.7051 49.8623 40.4039C51.0977 41.1116 52.4059 41.684 53.7641 42.1112Z" fill="#EDE04B"/>
<path opacity="0.1" d="M52.5253 43.311C46.7507 41.041 43.6904 37.0029 42.1194 33.9018C40.2875 30.2861 40.038 27.1944 40.0286 27.0623L39.9573 26.1055H39.2237L39.295 27.0623C39.3044 27.1923 39.5539 30.2861 41.3858 33.9018C42.9579 37.0029 46.0171 41.041 51.7917 43.311C52.2424 43.4892 52.7105 43.6559 53.1961 43.811L53.2674 43.5877C53.0151 43.4976 52.7678 43.4054 52.5253 43.311Z" fill="white"/>
<path d="M68.8129 58.5231V68.1304H49.0396V58.5231L49.6684 57.6846C56.0761 55.4104 57.3746 49.4796 57.6335 47.133C57.672 46.8088 57.6941 46.4827 57.6995 46.1562H60.1446C60.1501 46.4827 60.1721 46.8088 60.2106 47.133C60.4737 49.4796 61.7722 55.4125 68.1757 57.6846L68.8129 58.5231Z" fill="#EDE04B"/>
<path opacity="0.1" d="M68.8129 58.5234H49.0396V59.7287H68.8129V58.5234Z" fill="black"/>
<path opacity="0.1" d="M50.7165 57.6846C57.1241 55.4104 58.4226 49.4796 58.6815 47.133C58.72 46.8088 58.7421 46.4827 58.7475 46.1562H57.6995C57.694 46.4827 57.672 46.8088 57.6335 47.133C57.3704 49.4796 56.0719 55.4125 49.6684 57.6846L49.0396 58.5231V68.1304H50.0876V58.5231L50.7165 57.6846Z" fill="white"/>
<path opacity="0.1" d="M46.0359 26.1035H47.8092V27.8852H46.1932C46.1296 27.2983 46.0772 26.7044 46.0359 26.1035Z" fill="black"/>
<path opacity="0.1" d="M53.7641 42.1116L53.2233 43.8094C52.7377 43.6543 52.2696 43.4876 51.819 43.3095C51.0776 42.4042 50.4226 41.4315 49.8623 40.4043C51.0978 41.112 52.4059 41.6844 53.7641 42.1116Z" fill="black"/>
<path opacity="0.1" d="M64.0883 42.1115C65.446 41.6842 66.7538 41.1122 67.9891 40.4053C67.4285 41.4326 66.7735 42.4056 66.0325 43.3114C65.5818 43.4896 65.114 43.6559 64.6291 43.8103L64.0883 42.1115Z" fill="black"/>
<path opacity="0.1" d="M71.8154 26.1035C71.7742 26.7044 71.7218 27.2983 71.6582 27.8852H70.0432V26.1035H71.8154Z" fill="black"/>
<path opacity="0.1" d="M60.2149 47.133C59.3637 47.2979 58.4889 47.2979 57.6378 47.133C57.6763 46.8087 57.6983 46.4827 57.7038 46.1562H60.1488C60.1543 46.4827 60.1763 46.8087 60.2149 47.133Z" fill="black"/>
<path d="M46.2456 23.1523C46.2907 36.3639 51.9501 47.0475 58.9268 47.0475C65.9036 47.0475 71.5619 36.3639 71.608 23.1523H46.2456Z" fill="#EDE04B"/>
<path opacity="0.1" d="M48.4989 23.1523H46.2456C46.2907 36.3639 51.9501 47.0475 58.9268 47.0475C59.3044 47.0469 59.6812 47.015 60.0535 46.9522C53.6039 45.8748 48.5419 35.6449 48.4989 23.1523Z" fill="white"/>
<path d="M65.651 62.2012H52.2016V65.6597H65.651V62.2012Z" fill="#3F3D56"/>
<path opacity="0.1" d="M52.8304 62.6728H65.651V62.2012H52.2016V65.6597H52.8304V62.6728Z" fill="white"/>
<path d="M39.0728 35.9078C38.8307 35.8271 37.4054 34.6994 37.2975 34.189C37.1895 33.6786 38.051 28.9237 38.051 28.9237C38.051 28.9237 37.9714 28.9237 37.8414 28.908V28.8315L38.0185 22.5852C38.0185 22.5852 38.7448 18.393 37.3729 18.6372C36.0011 18.8814 36.8615 22.5852 36.8615 22.5852C36.8615 22.5852 36.7053 24.4653 36.5953 25.0292C36.4905 25.5731 36.0105 27.7887 36.3375 28.4772C36.3494 28.5017 36.3627 28.5255 36.3773 28.5485C36.3773 28.5485 36.4318 30.9118 35.8397 31.2346C35.2748 31.5417 35.04 33.0875 35.0201 33.2259L34.9897 33.2133C34.821 33.1078 34.673 32.9725 34.5527 32.814C34.5401 32.7983 34.5307 32.7815 34.5191 32.7647C34.9047 32.3309 35.1125 31.7677 35.1011 31.1874C35.0896 30.6071 34.8597 30.0525 34.4573 29.6343C34.2702 29.4399 34.0507 29.2796 33.8086 29.1605C33.8015 28.9603 33.7541 28.7635 33.6692 28.582C33.3967 27.9993 31.8875 27.2374 30.8154 27.2196C30.3207 27.2049 29.9151 27.3453 29.7673 27.7321C29.6919 27.9281 29.7149 28.1513 29.6835 28.3546C29.6206 28.7738 29.3513 29.1018 29.0054 29.3628C28.8658 29.2069 28.7148 29.0615 28.5537 28.9279C28.2037 28.6596 27.5057 27.775 27.5057 27.775C27.5057 27.775 25.3268 25.5186 25.1654 24.9003C25.004 24.2819 22.8273 20.5688 22.3431 21.2154C21.8589 21.862 24.0105 24.6802 24.0105 24.6802C24.0105 24.6802 24.4192 25.7041 24.7336 26.05C25.048 26.3958 27.4585 29.8963 27.4585 29.8963L27.5738 30.1352C27.0645 30.4035 26.5991 30.7452 26.4346 31.2776C26.1935 32.0615 26.7207 32.8496 27.0854 33.5832C27.796 35.0149 27.8976 36.8405 26.9806 38.1485C26.159 39.3034 24.7336 39.8526 23.3995 40.3326C24.0438 40.8385 24.8442 41.1043 25.6632 41.084C25.3551 41.977 24.2631 42.2725 23.3324 42.4381C23.8208 42.9076 24.5198 43.0784 25.1906 43.1822C25.5191 43.2381 25.8519 43.2644 26.1852 43.2608H26.2669L26.3487 43.2545C26.4622 43.247 26.5753 43.2326 26.6872 43.2115C27.1714 43.113 27.6419 42.8489 27.8893 42.4213C28.0989 42.0556 28.1722 41.5567 28.5527 41.3733C28.6517 41.3286 28.7585 41.3033 28.8671 41.2989H28.8555C28.9268 41.2989 29.0002 41.2989 29.0714 41.2989L30.6571 41.3146C30.7231 41.3146 30.7913 41.3146 30.8594 41.3146C31.3069 41.3041 31.7848 41.2266 32.0122 40.8566C32.1058 40.6769 32.155 40.4775 32.1558 40.275C32.1894 39.7729 32.1558 39.2563 32.1694 38.7501C32.3046 39.6713 32.4461 41.1071 32.1097 41.6374C31.8364 42.0392 31.5051 42.3984 31.1266 42.7032C31.0314 42.7832 30.9444 42.8724 30.8667 42.9694C30.8154 43.0061 30.785 43.026 30.785 43.026L30.7525 43.1235C30.633 43.3047 30.5465 43.5055 30.4968 43.7167C30.4785 43.7709 30.4717 43.8284 30.4769 43.8854C30.5135 43.9598 30.2149 44.2669 30.3018 44.3958C29.5556 45.2709 29.4142 46.5967 29.4142 46.5967L28.0517 48.6655C27.3516 50.5048 26.3036 50.6935 26.3036 50.6935C26.3036 50.6935 23.8418 49.0418 23.7747 48.9611C23.7076 48.8804 22.7665 48.4769 22.7665 48.4769C22.6555 48.2823 22.4861 48.1275 22.2823 48.0346C21.9595 47.9005 21.9322 47.4058 21.9322 47.4058C21.8924 46.2372 21.2059 46.1481 21.2059 46.1481C20.6526 46.101 20.2302 46.1995 19.9053 46.3798L19.8068 46.3871C19.331 46.4259 18.7588 46.4688 18.13 46.5108C16.3808 46.626 15.9647 47.759 15.9647 47.759C15.9647 47.759 15.7499 48.0011 16.0318 48.2631C16.3137 48.5251 18.1184 48.2631 18.1949 48.2568C18.0574 48.2717 17.9183 48.2621 17.7841 48.2285C18.0681 48.218 18.459 48.2075 18.7923 48.2075H18.873C18.852 48.3842 18.8419 48.562 18.8426 48.7399C18.8426 49.0753 19.7701 49.2901 19.7701 49.2901L22.5946 51.8054C22.5946 51.8054 24.37 52.5988 25.4997 53.7401C26.6295 54.8814 27.6283 53.8963 27.6283 53.8963C28.8241 53.6007 32.2648 49.4411 32.268 49.4369C32.268 49.5584 32.3403 53.6039 32.4776 54.4161C32.483 54.4573 32.4932 54.4977 32.508 54.5366C32.6693 54.8856 32.4535 55.8393 32.3602 56.2418C32.3007 56.5786 32.2778 56.9208 32.2921 57.2626C32.2921 57.2626 31.0019 62.1883 31.1088 62.6212C31.2157 63.054 30.4098 65.0652 30.4098 65.0652V66.742L30.5502 66.7347C30.532 66.7617 30.5152 66.7897 30.4999 66.8185L30.4905 66.8363C30.4905 66.8363 31.3509 67.0239 31.9294 66.9705C32.508 66.917 33.5015 67.4159 33.5015 67.4159C33.5015 67.4159 33.8379 67.5752 34.8734 67.6423C35.9088 67.7094 35.9088 67.1853 35.9088 67.1853C35.7904 66.4716 34.1544 66.2327 34.1041 66.2253C33.9721 66.1426 33.8484 66.0524 33.7467 65.9749L33.7258 65.9581C33.7326 65.9424 33.7386 65.9263 33.7436 65.9099C33.9186 65.1972 32.9502 64.8881 32.9502 64.8881V64.7141C33.579 64.3913 33.7038 62.1757 33.7038 62.1757C33.7038 62.1757 34.647 59.4362 34.779 58.9792C34.9111 58.5223 34.779 57.8379 34.779 57.8379L34.8734 57.2468C34.8734 57.2468 35.0756 56.8444 35.0756 56.7637C35.1018 56.5592 35.1805 56.3649 35.3041 56.1998C35.4519 56.0248 35.1427 55.6088 35.1427 55.6088L35.4121 54.9108V54.1446L36.0409 51.3653C36.0409 51.3653 36.7001 48.1279 36.4716 47.0683C36.2431 46.0087 36.741 45.4701 36.741 45.4701C36.6961 45.4936 36.6499 45.5146 36.6026 45.5329C36.6656 45.3875 36.7198 45.2384 36.7651 45.0865L38.1799 45.2615V45.2825H38.6903C38.6903 45.2825 38.5289 43.2912 38.5289 42.4884C38.5289 41.6856 39.0728 38.8046 39.0728 38.8046C39.0728 38.8046 39.3149 35.9885 39.0728 35.9078ZM32.792 33.5832C32.792 33.6618 32.7846 33.7436 32.7794 33.8274L32.7511 33.8704L32.6987 33.8264L32.6348 33.926L32.6159 33.9354C32.4776 33.8641 32.4063 33.4564 32.3067 33.5445L32.2931 33.556C32.2711 33.5308 32.2491 33.5235 32.226 33.5445L32.2051 33.5623C32.2051 33.5319 32.2051 33.5005 32.2051 33.469C32.3968 33.5184 32.594 33.5434 32.792 33.5434C32.793 33.557 32.792 33.5707 32.792 33.5832ZM37.4976 42.8563H37.528L37.4777 42.9883C37.484 42.9443 37.4903 42.9013 37.4976 42.8563ZM32.3319 66.6226L32.139 66.5743L32.2438 66.5565L32.3413 66.6205L32.3528 66.6288L32.3319 66.6226ZM34.3022 66.3406C34.2383 66.3071 34.1733 66.2683 34.1104 66.2285C34.1314 66.24 34.2142 66.283 34.3022 66.3406Z" fill="url(#paint1_linear)"/>
<path d="M38.1935 40.877L36.9243 44.1846H37.2325L36.0388 45.1362L38.1935 45.4045V40.877Z" fill="#F86D70"/>
<path opacity="0.1" d="M38.1935 40.877L36.9243 44.1846L36.6047 44.0986L36.0388 45.1362L38.1935 45.4045V40.877Z" fill="black"/>
<path d="M36.2033 42.9929H38.1936L38.9241 36.9824H36.2033V42.9929Z" fill="#F86D70"/>
<path opacity="0.1" d="M36.2033 42.9929H38.1936L38.9241 36.9824H36.2033V42.9929Z" fill="black"/>
<path d="M32.3161 38.4059L32.7458 38.3336L33.733 38.1659C33.733 38.1659 36.6979 37.4972 37.31 37.4427C37.6807 37.3938 38.0423 37.2907 38.3831 37.1367C38.5435 37.0675 38.6452 37.0151 38.6452 37.0151L37.5772 35.0648L35.9203 33.8365C35.9203 33.8365 34.8722 33.6132 34.4289 33.0033C34.33 32.872 34.2656 32.7181 34.2416 32.5555C34.2176 32.3929 34.2348 32.2268 34.2916 32.0726C34.562 31.2342 32.6766 32.8744 32.6766 32.8744C32.6766 32.8744 32.6944 33.2674 32.6766 33.7683C32.6766 33.8669 32.6672 33.9696 32.6598 34.0744C32.6598 34.1435 32.6504 34.2127 32.6431 34.284C32.597 34.7818 32.5026 35.2943 32.3161 35.6003C31.8602 36.3486 32.3161 38.4059 32.3161 38.4059Z" fill="#FBBEBE"/>
<path opacity="0.1" d="M32.6766 33.8095H32.7186C32.794 33.8095 32.8548 33.6491 32.9282 33.6418C33.5182 33.5852 34.0569 33.4615 34.431 33.0434C34.3324 32.9122 34.2681 32.7584 34.2441 32.596C34.2201 32.4336 34.2372 32.2678 34.2937 32.1137C34.5641 31.2753 32.6787 32.9144 32.6787 32.9144C32.6787 32.9144 32.6986 33.3085 32.6766 33.8095Z" fill="black"/>
<path d="M30.3815 31.4335C30.3813 31.7352 30.4407 32.034 30.5561 32.3128C30.6715 32.5916 30.8407 32.8449 31.054 33.0582C31.2674 33.2716 31.5207 33.4408 31.7995 33.5562C32.0782 33.6716 32.377 33.7309 32.6788 33.7308C32.7542 33.7308 32.8286 33.7308 32.903 33.7203C33.3457 33.6769 33.7662 33.5059 34.1136 33.2281C34.4609 32.9503 34.7202 32.5777 34.8598 32.1554C34.9995 31.7331 35.0136 31.2794 34.9004 30.8492C34.7871 30.4191 34.5515 30.0311 34.222 29.7323C33.8926 29.4335 33.4834 29.2368 33.0443 29.166C32.6052 29.0952 32.155 29.1534 31.7483 29.3336C31.3417 29.5137 30.996 29.808 30.7534 30.1808C30.5108 30.5536 30.3816 30.9887 30.3815 31.4335Z" fill="#FBBEBE"/>
<path d="M29.6762 27.9457C29.6007 28.1407 29.6238 28.3586 29.5934 28.5651C29.4813 29.3103 28.7235 29.7567 28.0381 30.069C27.3527 30.3814 26.5793 30.7513 26.3613 31.4713C26.1223 32.25 26.6442 33.0308 27.0068 33.7613C27.7132 35.1845 27.8138 36.9997 26.902 38.3014C26.0919 39.4542 24.6802 40.0013 23.3513 40.4813C23.9909 40.9844 24.7858 41.249 25.5993 41.2296C25.2944 42.1173 24.2096 42.4118 23.2853 42.5752C23.7705 43.0427 24.4654 43.2125 25.1309 43.3152C25.6161 43.3906 26.1139 43.4399 26.5981 43.3424C27.0823 43.2449 27.5413 42.9819 27.7908 42.5564C28.0004 42.1927 28.0717 41.697 28.45 41.5136C28.6208 41.4464 28.8048 41.4195 28.9876 41.435L30.5597 41.4518C31.0491 41.4518 31.6287 41.414 31.8813 40.9959C31.9744 40.8172 32.0233 40.6188 32.0238 40.4173C32.0919 39.3861 31.8938 38.2961 32.3183 37.355C32.4461 37.071 31.6255 36.6214 31.7115 36.3206C32.007 35.2862 32.0814 34.4718 32.0783 33.3955C32.0783 32.5623 32.6201 31.8444 33.0676 31.1412C33.5151 30.438 33.8893 29.5503 33.5361 28.7957C33.1378 27.9541 30.1468 26.7311 29.6762 27.9457Z" fill="#3F3D56"/>
<path d="M31.7691 66.3205L32.1694 66.5856L32.2313 66.6265L32.2428 66.6338L32.7175 66.9483L33.8264 67.1348L34.801 67.0677C34.801 67.0677 35.0819 66.4808 34.6407 66.4945C34.4994 66.4872 34.3616 66.4474 34.2382 66.3781L34.1775 66.3477C34.1135 66.3142 34.0496 66.2765 33.9867 66.2366C33.8557 66.1539 33.732 66.0637 33.6325 65.9872C33.4858 65.874 33.3883 65.7881 33.3883 65.7881L31.7691 66.3205Z" fill="#FBBEBE"/>
<path opacity="0.1" d="M32.1747 66.5864L32.2365 66.6273L32.248 66.6346L32.7228 66.949L33.8316 67.1356L34.8063 67.0685C34.8063 67.0685 35.0871 66.4816 34.6459 66.4952C34.5046 66.488 34.3669 66.4482 34.2435 66.3789C34.321 66.4397 34.386 66.5057 34.3923 66.5613C34.4101 66.7111 33.6712 66.9805 33.6712 66.9805L32.6295 66.7048C32.6295 66.7048 32.4524 66.6545 32.2103 66.5917L32.1872 66.5854L32.1747 66.5864Z" fill="black"/>
<path d="M30.393 66.8404C30.393 66.8404 31.2472 67.027 31.8215 66.9735C32.3958 66.9201 33.3851 67.4148 33.3851 67.4148C33.3851 67.4148 33.7195 67.572 34.7476 67.6391C35.7757 67.7061 35.7757 67.1842 35.7757 67.1842C35.6583 66.4747 34.0339 66.2409 33.9836 66.2305C34.0035 66.2409 34.0884 66.2839 34.1743 66.3416C34.2896 66.417 34.4143 66.5155 34.4237 66.5952C34.4416 66.744 33.7027 67.0144 33.7027 67.0144L32.661 66.7398C32.661 66.7398 32.4838 66.6885 32.2417 66.6256H32.2187C31.8597 66.5278 31.495 66.4526 31.1266 66.4003C30.6781 66.352 30.4485 66.7335 30.4014 66.8195C30.398 66.8262 30.3952 66.8332 30.393 66.8404Z" fill="#3F3D56"/>
<path d="M16.9299 47.9948L17.3837 48.3427C17.3837 48.3427 17.5158 48.3364 17.7128 48.3301H17.7757C18.0576 48.3197 18.4464 48.3092 18.7765 48.3092C18.9899 48.2996 19.2038 48.3115 19.4148 48.3448C19.6412 48.4245 20.0436 47.0494 20.0436 47.0494L19.5888 46.9446L19.4378 46.909L19.333 46.8839L18.9631 46.7969L17.8417 46.9247L17.0536 47.432L16.9299 47.9948Z" fill="#FBBEBE"/>
<path opacity="0.1" d="M16.9299 47.9948L17.3837 48.3427C17.3837 48.3427 17.5158 48.3364 17.7128 48.3302C17.6224 48.2953 17.5478 48.2286 17.5032 48.1425C17.2097 47.3282 18.6654 46.9803 18.6654 46.9803L19.3435 46.9509L19.4756 46.9446H19.5804L19.4295 46.909L19.3247 46.8839L18.9547 46.7969L17.8333 46.9247L17.0452 47.432L16.9299 47.9948Z" fill="black"/>
<path d="M16.0349 48.3638C16.3095 48.6174 18.1079 48.3638 18.1834 48.3575C18.0469 48.3728 17.9088 48.3633 17.7757 48.3292C17.7098 48.3174 17.6474 48.291 17.593 48.252C17.5386 48.2131 17.4936 48.1624 17.4613 48.1038C17.1678 47.2885 18.6236 46.9416 18.6236 46.9416L19.3016 46.9122L19.4326 46.9059L21.0812 46.8347L21.1609 46.3809C21.1609 46.3809 20.6253 46.4312 19.7848 46.4982C19.3121 46.537 18.7367 46.58 18.1153 46.6209C16.3787 46.7361 15.9657 47.8628 15.9657 47.8628C15.9657 47.8628 15.7551 48.1038 16.0349 48.3638Z" fill="#3F3D56"/>
<path d="M36.2044 28.6913C36.2155 28.7161 36.2289 28.74 36.2442 28.7625L36.6445 29.3494L37.6863 29.4542L37.6978 29.0413L37.8729 22.8286C37.8729 22.8286 38.5939 18.6616 37.2315 18.9016C35.869 19.1416 36.7242 22.8286 36.7242 22.8286C36.7242 22.8286 36.5691 24.6983 36.4601 25.26C36.3542 25.8029 35.8795 28.01 36.2044 28.6913Z" fill="#FBBEBE"/>
<path d="M33.8661 44.1223L34.1627 44.6296L34.8262 45.7646C34.8262 45.7646 36.0293 46.2058 36.3374 45.8694C36.5062 45.686 36.6885 45.0457 36.8164 44.507C36.9212 44.071 36.9914 43.7031 36.9914 43.7031L33.8661 44.1223Z" fill="#FBBEBE"/>
<path opacity="0.1" d="M33.8661 44.122L34.1627 44.6292C34.1813 44.6132 34.1982 44.5953 34.2131 44.5758C34.5484 44.1482 36.0251 44.4846 36.8164 44.5119C36.9212 44.0759 36.9914 43.708 36.9914 43.708L33.8661 44.122Z" fill="black"/>
<path opacity="0.1" d="M18.7766 48.3082C18.99 48.2986 19.2038 48.3105 19.4148 48.3438C19.6412 48.4235 20.0436 47.0485 20.0436 47.0485L19.4379 46.9059L21.0864 46.8347L21.1661 46.3809C21.1661 46.3809 20.6305 46.4312 19.79 46.4982C19.6163 46.5982 19.4614 46.7277 19.332 46.8808L19.3069 46.9122C18.9558 47.343 18.8258 47.8984 18.7766 48.3082Z" fill="black"/>
<path opacity="0.1" d="M31.7691 66.3208L32.2313 66.6268C32.9209 66.5021 33.5507 66.3061 33.6252 65.998C33.6255 65.9931 33.6255 65.9882 33.6252 65.9833C33.4784 65.8701 33.381 65.7842 33.381 65.7842L31.7691 66.3208Z" fill="black"/>
<path opacity="0.1" d="M30.4025 66.825C31.0115 66.7947 31.6182 66.7296 32.2198 66.63C31.8605 66.5315 31.4954 66.4556 31.1267 66.4026C30.6791 66.3544 30.4496 66.7359 30.4025 66.825Z" fill="black"/>
<path d="M18.8269 48.8366C18.8269 49.171 19.7481 49.3848 19.7481 49.3848L22.5537 51.8822C22.5537 51.8822 24.3165 52.6704 25.4379 53.8054C26.5593 54.9404 27.5486 53.9657 27.5486 53.9657C28.7371 53.6723 32.16 49.5315 32.16 49.5315C32.16 49.5315 32.2396 54.2602 32.4 54.6071C32.5603 54.954 32.3465 55.9025 32.2532 56.3039C32.1944 56.6386 32.1719 56.9788 32.1862 57.3184C32.1862 57.3184 30.9044 62.22 31.0113 62.6476C31.1182 63.0752 30.3165 65.0791 30.3165 65.0791V66.7486C30.3165 66.7486 33.4553 66.6281 33.6283 65.9206C33.8012 65.2132 32.8412 64.9051 32.8412 64.9051V64.7311C33.47 64.4104 33.5884 62.2075 33.5884 62.2075C33.5884 62.2075 34.5243 59.4826 34.6574 59.0288C34.7905 58.575 34.6574 57.8927 34.6574 57.8927L34.7507 57.3058C34.7507 57.3058 34.9509 56.9044 34.9509 56.8248C34.977 56.6214 35.0554 56.4282 35.1783 56.2641C35.325 56.0901 35.018 55.6761 35.018 55.6761L35.2852 54.9813V54.2204L35.914 51.4557C35.914 51.4557 36.569 48.2361 36.3416 47.1808C36.1142 46.1254 36.6089 45.5919 36.6089 45.5919C35.5367 46.1537 34.9959 44.9034 34.8188 44.3657C34.7738 44.2274 34.7518 44.1352 34.7518 44.1352C34.7518 44.1352 33.2793 43.5923 31.9084 43.7222C31.63 43.7448 31.3557 43.8029 31.092 43.8952C29.5692 44.4433 29.3292 46.7133 29.3292 46.7133L27.9804 48.7706C27.2856 50.6005 26.2438 50.787 26.2438 50.787C26.2438 50.787 23.7998 49.1448 23.7285 49.0641C23.6573 48.9834 22.7266 48.583 22.7266 48.583C22.6166 48.3893 22.4482 48.2353 22.2456 48.1428C21.9249 48.0087 21.8987 47.514 21.8987 47.514C21.8588 46.3518 21.1776 46.2564 21.1776 46.2564C18.8133 46.0594 18.8269 48.5034 18.8269 48.8366Z" fill="#3F3D56"/>
<path d="M32.424 42.3057H33.8661V37.8316H32.424V42.3057Z" fill="#F86D70"/>
<path opacity="0.1" d="M32.424 42.3057H33.8661V37.8316H32.424V42.3057Z" fill="black"/>
<path opacity="0.1" d="M36.2033 28.6816C36.2031 28.6848 36.2031 28.6879 36.2033 28.6911C36.2145 28.716 36.2278 28.7398 36.2431 28.7623L36.6435 29.3492L37.6852 29.454L37.6967 29.0411C37.3718 29.016 36.6319 28.9269 36.2033 28.6816Z" fill="black"/>
<path d="M36.2442 28.7627C36.2442 28.7627 36.2977 31.1124 35.7097 31.4331C35.1218 31.7538 34.8933 33.4243 34.8933 33.4243C34.8933 33.4243 36.675 34.596 37.0722 35.1117C37.4694 35.6273 38.3812 36.8556 38.1936 37.1491C38.006 37.4425 38.6484 38.7787 38.6484 38.7787C38.6484 38.7787 37.4725 41.1829 37.7398 42.0916C38.007 43.0002 38.0332 45.4034 38.0332 45.4034H38.5415C38.5415 45.4034 38.3812 43.4268 38.3812 42.625C38.3812 41.8233 38.9146 38.9653 38.9146 38.9653C38.9146 38.9653 39.1557 36.1608 38.9146 36.0811C38.6736 36.0015 37.2587 34.879 37.1518 34.3707C37.0449 33.8624 37.9001 29.1306 37.9001 29.1306C37.9001 29.1306 36.8049 29.0834 36.2442 28.7627Z" fill="#F86D70"/>
<path opacity="0.1" d="M32.3968 37.4175C32.4456 37.7445 32.5646 38.057 32.7458 38.3335L33.7331 38.1658C33.7331 38.1658 36.698 37.4972 37.31 37.4427C37.6808 37.3937 38.0424 37.2906 38.3832 37.1367C38.1483 36.3042 37.6898 35.5521 37.0575 34.962L36.6812 34.613C36.1268 34.0982 35.4842 33.6875 34.7843 33.4004C34.8283 33.4371 37.9389 36.0928 37.2576 36.6137C36.5764 37.1346 34.7423 35.8664 34.7423 35.8664L32.6567 34.0743L32.5813 34.0093L32.4608 34.1969C32.5221 34.2221 32.5819 34.2508 32.64 34.2828C33.3508 34.673 33.8783 35.3286 34.1072 36.1064C34.5359 37.5475 32.3968 37.4175 32.3968 37.4175Z" fill="black"/>
<path d="M31.7554 44.0953C31.7554 44.0953 33.732 45.1905 34.212 44.5763C34.3168 44.4411 34.5379 44.3825 34.8136 44.3667C34.7685 44.2284 34.7465 44.1362 34.7465 44.1362C34.7465 44.1362 33.274 43.5933 31.9032 43.7232C31.8131 43.9496 31.7554 44.0953 31.7554 44.0953Z" fill="#444053"/>
<path d="M32.6651 34.0102L34.8262 35.8694C34.8262 35.8694 36.6529 37.1417 37.3415 36.6167C38.03 36.0916 34.8671 33.4023 34.8671 33.4023C35.5655 33.6903 36.2074 34.0998 36.763 34.6118L37.1392 34.9608C38.1285 35.8778 38.3518 35.8778 38.3853 37.2256C38.3937 37.5578 38.2805 38.0347 38.1935 38.1206C37.8728 38.435 37.6485 40.7187 37.6978 40.9859C37.7471 41.2532 37.1004 43.5599 37.31 44.2013C37.5196 44.8427 34.6899 43.8806 34.211 44.4958C33.732 45.111 31.7554 44.0147 31.7554 44.0147C31.7554 44.0147 32.8506 41.2092 33.1179 41.0226C33.3851 40.8361 33.7058 39.3929 33.1179 38.7253C32.5299 38.0577 32.4775 37.4163 32.4775 37.4163C32.4775 37.4163 34.6155 37.5484 34.1869 36.1073C34.0663 35.6896 33.8571 35.3029 33.5735 34.9733C33.2899 34.6438 32.9386 34.3793 32.5436 34.1978L32.6651 34.0102Z" fill="#E8E8F0"/>
<path opacity="0.1" d="M35.5494 38.7393C35.5494 38.7393 34.7204 40.3019 33.6482 40.7075C33.6136 40.72 33.5801 40.7316 33.5434 40.742C32.4241 41.0826 35.6332 39.2234 35.5494 38.7393Z" fill="black"/>
<path d="M23.956 24.9151C23.956 24.9151 24.3563 25.9306 24.677 26.2775C24.9977 26.6244 27.3747 30.0976 27.3747 30.0976L27.5759 30.5168L27.7488 30.8742L29.2716 30.7139L29.3764 30.0997L29.3177 30.0284C29.1647 29.845 28.7476 29.3525 28.4678 29.1376C28.1209 28.8714 27.426 27.99 27.426 27.99C27.426 27.99 25.2629 25.7451 25.1025 25.131C24.9422 24.5168 22.778 20.834 22.298 21.4712C21.818 22.1084 23.956 24.9151 23.956 24.9151Z" fill="#FBBEBE"/>
<g opacity="0.1">
<path opacity="0.1" d="M28.3745 41.4341C28.1918 41.4183 28.0078 41.4449 27.8369 41.5117C27.4596 41.6951 27.3883 42.1908 27.1787 42.5545C26.9335 42.98 26.4661 43.243 25.985 43.3405C25.8894 43.359 25.7928 43.3723 25.6958 43.3803C26.0022 43.4101 26.3112 43.3967 26.6138 43.3405C27.0949 43.243 27.5623 42.98 27.8076 42.5545C28.0172 42.1908 28.0884 41.6951 28.4657 41.5117C28.5648 41.4671 28.6716 41.4422 28.7801 41.4383L28.3745 41.4341Z" fill="black"/>
<path opacity="0.1" d="M32.0972 33.3956C32.0972 32.5624 32.639 31.8445 33.0855 31.1413C33.532 30.4381 33.9072 29.5504 33.554 28.7958C33.2521 28.1512 31.4327 27.2866 30.3826 27.4574C31.4107 27.5905 32.6778 28.2676 32.9252 28.7958C33.2783 29.5504 32.9031 30.4381 32.4567 31.1413C32.0102 31.8445 31.4663 32.5624 31.4684 33.3956C31.4684 34.4709 31.3961 35.2821 31.1005 36.3207C31.0156 36.6194 31.8341 37.0711 31.7084 37.354C31.2829 38.2973 31.482 39.3851 31.4139 40.4164C31.4125 40.6179 31.3633 40.8161 31.2703 40.9949C31.0607 41.3397 30.631 41.4288 30.2128 41.4476H30.5786C31.067 41.4476 31.6465 41.4099 31.8991 40.9918C31.9921 40.813 32.0413 40.6147 32.0427 40.4132C32.1108 39.382 31.9117 38.2931 32.3372 37.3509C32.4651 37.0679 31.6444 36.6173 31.7293 36.3175C32.0249 35.2863 32.0993 34.4709 32.0972 33.3956Z" fill="black"/>
</g>
<path opacity="0.1" d="M27.5759 30.5148L27.7488 30.8721L29.2716 30.7118L29.3764 30.0976L29.3177 30.0264C29.1553 30.106 27.9385 30.6919 27.5759 30.5148Z" fill="black"/>
<path opacity="0.1" d="M33.1986 34.5319C33.1986 34.5319 32.8245 33.945 32.6107 34.1043C32.3969 34.2636 32.3141 33.6232 32.1915 33.7301C32.0689 33.837 31.7115 34.1347 31.5627 33.7186C31.4463 33.3874 30.1803 31.2924 29.6668 30.4498C29.5347 30.2318 29.4519 30.0977 29.4519 30.0977C29.4519 30.0977 28.0098 30.8187 27.6629 30.5787V31.086L27.9564 31.1132L29.5284 34.0477C29.5284 34.0477 30.0231 34.8348 29.9896 35.1094C29.956 35.3839 30.6236 36.586 30.7305 36.6657C30.8374 36.7453 31.9882 38.0816 31.9882 38.0816C31.9882 38.0816 32.5761 40.9668 32.0678 41.7686C31.5595 42.5703 30.6792 43.1572 30.6792 43.1572C30.6792 43.1572 30.414 43.9317 30.4528 44.0124C30.4916 44.0931 30.1447 44.44 30.305 44.5469C30.4654 44.6538 30.6792 45.4011 30.6792 45.4011C30.6792 45.4011 31.4275 44.199 31.832 44.0124C32.2366 43.8259 32.7543 41.3672 32.7543 41.3672C32.7543 41.3672 32.9021 39.9188 32.9136 38.9839C32.9251 38.0491 32.8779 34.5319 33.1986 34.5319Z" fill="black"/>
<path d="M33.1179 34.5319C33.1179 34.5319 32.7448 33.945 32.531 34.1043C32.3172 34.2636 32.2334 33.6232 32.1118 33.7301C31.9902 33.837 31.6329 34.1347 31.483 33.7186C31.3656 33.3874 30.0996 31.2924 29.5871 30.4498L29.3723 30.0977C29.3723 30.0977 27.9302 30.8187 27.5822 30.5787V31.086L27.8767 31.1132L29.4488 34.0477C29.4488 34.0477 29.9445 34.8348 29.9099 35.1094C29.8753 35.3839 30.5387 36.586 30.6509 36.6657C30.763 36.7453 31.9085 38.0816 31.9085 38.0816C31.9085 38.0816 32.4964 40.9668 31.9892 41.7686C31.7212 42.1713 31.3953 42.5322 31.0219 42.8397C30.7082 43.0984 30.4874 43.4524 30.393 43.8479C30.3748 43.9018 30.3684 43.9589 30.3742 44.0155C30.413 44.0952 30.0661 44.4432 30.2264 44.5501C30.3868 44.657 30.6026 45.4073 30.6026 45.4073C30.6026 45.4073 31.3509 44.2052 31.7555 44.0187C32.16 43.8321 32.6788 41.3735 32.6788 41.3735C32.6788 41.3735 32.8255 39.9251 32.8381 38.9902C32.8507 38.0554 32.8035 34.5319 33.1179 34.5319Z" fill="#F86D70"/>
<path opacity="0.1" d="M29.4581 46.6865C29.4581 46.6865 30.5806 46.8961 31.0302 47.22C31.4798 47.5438 29.3208 46.7127 29.3208 46.7127L29.4581 46.6865Z" fill="black"/>
<path opacity="0.1" d="M32.1568 49.5312C32.1568 49.5312 33.3275 50.507 33.1179 51.3884C32.9083 52.2698 32.3675 54.4874 32.3675 54.4874L32.1568 49.5312Z" fill="black"/>
<path opacity="0.1" d="M21.9186 47.6543C21.9186 47.6543 20.269 47.8346 20.3759 48.0484C20.4828 48.2622 21.9186 47.8513 21.9186 47.8513V47.6543Z" fill="black"/>
<path opacity="0.1" d="M34.5851 55.7695C34.5851 55.7695 34.6899 55.9026 34.0779 55.7695C33.4658 55.6364 33.9175 55.2256 33.9175 55.2256L34.5851 55.7695Z" fill="black"/>
<path opacity="0.1" d="M34.3755 57.6119C34.3755 57.6119 33.5371 57.745 33.0875 57.6119C32.6379 57.4788 34.3755 57.6119 34.3755 57.6119Z" fill="black"/>
<path opacity="0.1" d="M32.6505 64.825C32.6505 64.825 32.5038 64.6646 31.7691 64.9581C31.0344 65.2515 30.741 65.2652 30.5272 65.1677C30.3134 65.0702 32.6505 64.825 32.6505 64.825Z" fill="black"/>
<path opacity="0.1" d="M33.4658 47.4287L32.4241 48.8781C32.4241 48.8781 32.9848 47.609 33.4658 47.4287Z" fill="black"/>
<path opacity="0.1" d="M31.441 34.1035C31.441 34.1035 31.3959 34.5846 30.7241 34.7722C30.0524 34.9598 29.9245 35.1117 29.9245 35.1117" fill="black"/>
<path opacity="0.1" d="M29.695 30.6172C29.695 30.6172 28.8083 31.246 27.8829 31.1129L29.695 30.6172Z" fill="black"/>
<path opacity="0.1" d="M30.3699 44.0804C30.3699 44.0804 30.6288 44.2428 31.2502 43.5322L30.3699 44.0804Z" fill="black"/>
<path opacity="0.1" d="M36.8248 36.5467C36.8499 36.4167 36.7598 36.2962 36.6749 36.1946L36.5009 35.9849C36.4669 35.942 36.4287 35.9027 36.3867 35.8676C36.2819 35.7869 36.1478 35.7627 36.0388 35.6904" fill="black"/>
<path opacity="0.1" d="M93.0958 0.0114899C93.0958 0.0114899 84.2724 -0.520911 85.31 5.66249C85.31 5.66249 85.1004 6.75559 86.0939 7.25131C86.0939 7.25131 86.1096 6.79332 86.9994 6.94948C87.3162 7.00199 87.638 7.01746 87.9584 6.99559C88.3912 6.96571 88.8024 6.79575 89.1301 6.5114C89.1301 6.5114 91.6108 5.48642 92.575 1.43263C92.575 1.43263 93.2887 0.548084 93.2604 0.320661L91.7711 0.956817C91.7711 0.956817 92.2805 2.03105 91.8759 2.92398C91.8759 2.92398 91.8277 0.995594 91.5416 1.03752C91.484 1.04695 90.7681 1.40957 90.7681 1.40957C90.7681 1.40957 91.6433 3.28031 90.983 4.64066C90.983 4.64066 91.2335 2.33498 90.4946 1.54476L89.4466 2.15682C89.4466 2.15682 90.4695 4.08939 89.7757 5.66668C89.7757 5.66668 89.9538 3.24782 89.2254 2.30564L88.2759 3.0466C88.2759 3.0466 89.237 4.95192 88.6511 6.25987C88.6511 6.25987 88.5746 3.4438 88.0705 3.23105C88.0705 3.23105 87.2394 3.96468 87.1126 4.26441C87.1126 4.26441 87.7708 5.64782 87.362 6.37725C87.362 6.37725 87.1116 4.50127 86.9061 4.49079C86.9061 4.49079 86.0782 5.73376 85.9923 6.58686C85.9923 6.58686 86.0279 5.31978 86.706 4.37341C86.706 4.37341 85.9053 4.5107 85.4379 5.02948C85.4379 5.02948 85.5668 4.15123 86.9103 4.07472C86.9103 4.07472 87.5947 3.13149 87.7771 3.07385C87.7771 3.07385 86.4419 2.96275 85.6317 3.32118C85.6317 3.32118 86.3444 2.49219 88.0223 2.86948L88.9603 2.10337C88.9603 2.10337 87.2017 1.86337 86.4555 2.12852C86.4555 2.12852 87.3138 1.39489 89.2129 1.92939L90.2336 1.31944C90.2336 1.31944 88.7339 0.996643 87.841 1.10983C87.841 1.10983 88.7842 0.601534 90.5334 1.1528L91.267 0.824765C91.267 0.824765 90.1687 0.60887 89.8469 0.574285C89.5252 0.539699 89.5084 0.451665 89.5084 0.451665C90.2043 0.335632 90.9186 0.41509 91.572 0.681185C91.572 0.681185 93.1231 0.108957 93.0958 0.0114899Z" fill="#EDE04B"/>
<path opacity="0.1" d="M82.213 1.58432C82.213 1.58432 78.2305 1.34327 78.6969 4.13733C78.6969 4.13733 78.6036 4.632 79.0501 4.85628C79.0501 4.85628 79.0574 4.64667 79.4599 4.71899C79.6028 4.74305 79.7481 4.75008 79.8927 4.73995C80.0883 4.72666 80.2742 4.64973 80.422 4.52091C80.422 4.52091 81.5434 4.05873 81.9793 2.22677C81.9793 2.22677 82.3011 1.82642 82.2885 1.72371L81.6157 2.01087C81.6157 2.01087 81.8462 2.49716 81.6649 2.90065C81.6649 2.90065 81.6429 2.02869 81.514 2.04965C81.4878 2.04965 81.164 2.21733 81.164 2.21733C81.164 2.21733 81.5601 3.0631 81.2614 3.67829C81.2614 3.67829 81.3746 2.63655 81.0403 2.27917L80.5666 2.55585C80.5666 2.55585 81.0298 3.42886 80.7154 4.14152C80.7154 4.14152 80.7961 3.04842 80.467 2.62292L80.0384 2.96144C80.0384 2.96144 80.4723 3.82292 80.2082 4.41296C80.2082 4.41296 80.1736 3.14065 79.9451 3.04528C79.9451 3.04528 79.5699 3.37646 79.5123 3.5127C79.5123 3.5127 79.8099 4.14152 79.6255 4.46641C79.6255 4.46641 79.5123 3.61855 79.4159 3.61541C79.4159 3.61541 79.0428 4.17716 79.0029 4.55864C79.0216 4.20261 79.1329 3.85763 79.3257 3.55777C79.1098 3.59867 78.9106 3.70175 78.7524 3.85436C78.7524 3.85436 78.8111 3.4582 79.4179 3.42257C79.4179 3.42257 79.7324 2.99707 79.8099 2.97087C79.8099 2.97087 79.2062 2.92056 78.8405 3.08301C78.8405 3.08301 79.1622 2.70781 79.921 2.8734L80.3402 2.52755C80.3402 2.52755 79.5458 2.42275 79.2083 2.53908C79.2083 2.53908 79.5961 2.2079 80.4544 2.44895L80.9156 2.17332C80.9156 2.17332 80.2386 2.02659 79.834 2.08004C79.834 2.08004 80.2606 1.84947 81.0508 2.09891L81.3809 1.95113C81.3809 1.95113 80.8841 1.85262 80.7385 1.83795C80.5928 1.82327 80.5855 1.7824 80.5855 1.7824C80.9001 1.73006 81.223 1.76635 81.5182 1.8872C81.5182 1.8872 82.2256 1.62834 82.213 1.58432Z" fill="#EDE04B"/>
<path d="M96.1247 68.2017C98.4521 68.2017 100.339 67.8826 100.339 67.489C100.339 67.0954 98.4521 66.7764 96.1247 66.7764C93.7973 66.7764 91.9105 67.0954 91.9105 67.489C91.9105 67.8826 93.7973 68.2017 96.1247 68.2017Z" fill="#EDE04B"/>
<path d="M97.8676 66.3233C98.06 66.1666 98.2 65.9549 98.269 65.7165C98.3214 65.4765 98.2187 65.1924 97.9881 65.0992C97.7303 65.0007 97.4546 65.1799 97.2461 65.3601C97.0375 65.5404 96.7975 65.7469 96.525 65.7081C96.6655 65.5805 96.7705 65.4188 96.83 65.2387C96.8895 65.0585 96.9014 64.8661 96.8646 64.68C96.8527 64.6028 96.8201 64.5304 96.7703 64.4703C96.6267 64.3173 96.3678 64.3823 96.1959 64.5028C95.651 64.8864 95.499 65.6274 95.4959 66.2929C95.4414 66.0529 95.4875 65.8024 95.4864 65.5593C95.4854 65.3161 95.4173 65.0352 95.2087 64.9063C95.0801 64.8371 94.9355 64.8031 94.7895 64.8078C94.5453 64.7984 94.2717 64.8235 94.1051 65.0027C93.8955 65.2249 93.951 65.598 94.1313 65.8412C94.3116 66.0843 94.5872 66.2405 94.8408 66.4092C95.0437 66.5302 95.2167 66.6954 95.347 66.8924C95.3627 66.9199 95.3754 66.9491 95.3848 66.9794H96.9212C97.2648 66.8044 97.5832 66.5837 97.8676 66.3233Z" fill="#EDE04B"/>
</g>
<defs>
<linearGradient id="paint0_linear" x1="84.8395" y1="52.9174" x2="84.8395" y2="10.755" gradientUnits="userSpaceOnUse">
<stop stop-color="#808080" stop-opacity="0.25"/>
<stop offset="0.54" stop-color="#808080" stop-opacity="0.12"/>
<stop offset="1" stop-color="#808080" stop-opacity="0.1"/>
</linearGradient>
<linearGradient id="paint1_linear" x1="4176.67" y1="26262.2" x2="9353.08" y2="26262.2" gradientUnits="userSpaceOnUse">
<stop stop-color="#808080" stop-opacity="0.25"/>
<stop offset="0.54" stop-color="#808080" stop-opacity="0.12"/>
<stop offset="1" stop-color="#808080" stop-opacity="0.1"/>
</linearGradient>
<clipPath id="clip0">
<rect width="120" height="68.4366" fill="white"/>
</clipPath>
</defs>
</svg>
