<svg width="55" height="32" viewBox="0 0 55 32" fill="none" xmlns="http://www.w3.org/2000/svg">
<g clip-path="url(#clip0)">
<path d="M54.6305 31.1693C52.6517 31.6794 51.4277 31.1917 50.3297 29.52L42.5198 18.5646L41.3908 17.0476L32.2704 29.5564C31.2283 31.0614 30.1353 31.7158 28.1904 31.1834L39.8694 15.2878L28.9962 0.929517C30.866 0.560931 32.1582 0.748327 33.3055 2.44647L41.4059 13.5384L49.566 2.50687C50.6113 1.00191 51.7353 0.430209 53.6121 0.984536L49.3962 6.65191L43.6842 14.1928C43.0041 15.0545 43.0975 15.6444 43.7234 16.4763L54.6305 31.1693ZM0.244341 15.0223L1.19947 10.2579C3.80048 0.829408 14.4595 -3.08853 21.8105 2.73729C26.1063 6.16377 27.174 11.0108 26.9615 16.4403H2.74661C2.38308 26.2135 9.32073 32.1117 18.1654 29.1026C21.2678 28.0461 23.0953 25.5826 24.01 22.5011C24.4743 20.9569 25.2422 20.7153 26.6738 21.1567C25.9431 25.0109 24.294 28.2306 20.8088 30.2456C15.6019 33.2617 8.16895 32.2862 4.25948 28.0945C1.9302 25.662 0.968135 22.5806 0.53647 19.2848C0.468333 18.74 0.332469 18.2212 0.230469 17.6992C0.239445 16.8073 0.244341 15.9158 0.244341 15.0239V15.0223ZM2.79068 14.3674H24.673C24.5302 7.30056 20.1903 2.281 14.2588 2.23839C7.74789 2.18668 3.0726 7.08669 2.79027 14.3674H2.79068Z" fill="black"/>
</g>
<defs>
<clipPath id="clip0">
<rect width="54.4" height="32" fill="white" transform="translate(0.230469)"/>
</clipPath>
</defs>
</svg>
