<svg width="20" height="20" viewBox="0 0 20 20" fill="none" xmlns="http://www.w3.org/2000/svg">
<path d="M18.8997 1.10016C18.1662 0.366766 17.2831 0 16.2499 0H3.74998C2.71709 0 1.83374 0.366766 1.10016 1.10016C0.366766 1.83369 0 2.71704 0 3.74998V16.2501C0 17.2831 0.366766 18.1664 1.10016 18.8997C1.83369 19.6333 2.71709 20 3.74998 20H6.66664C6.85745 20 7.00079 19.9935 7.09625 19.9807C7.19166 19.9676 7.28706 19.9111 7.38261 19.8112C7.4782 19.7114 7.52581 19.566 7.52581 19.3751C7.52581 19.3492 7.52353 19.0538 7.51925 18.4896C7.51482 17.9252 7.51268 17.4782 7.51268 17.1483L7.21318 17.2004C7.02223 17.2351 6.78134 17.2503 6.4905 17.246C6.19981 17.2416 5.89808 17.2113 5.58563 17.1548C5.273 17.0983 4.9823 16.9682 4.71318 16.7644C4.4442 16.5602 4.25324 16.2933 4.14037 15.9636L4.01012 15.6639C3.92333 15.4645 3.78669 15.243 3.60002 15.0001C3.41336 14.757 3.22459 14.592 3.03364 14.5052L2.94247 14.4401C2.88177 14.3967 2.82536 14.3444 2.77323 14.2837C2.72119 14.2228 2.68215 14.162 2.65611 14.1014C2.63007 14.0405 2.65169 13.9906 2.72119 13.9514C2.79069 13.9124 2.91643 13.8931 3.09881 13.8931L3.35913 13.9321C3.5328 13.9667 3.74751 14.0708 4.00373 14.2445C4.25976 14.4181 4.47024 14.6438 4.6352 14.9215C4.83495 15.2775 5.07562 15.5485 5.35787 15.7352C5.6399 15.9221 5.92426 16.0154 6.21066 16.0154C6.49707 16.0154 6.74444 15.9937 6.95286 15.9504C7.16105 15.9069 7.35639 15.8417 7.53876 15.7549C7.61689 15.1733 7.8296 14.726 8.17671 14.4136C7.68197 14.3615 7.23713 14.2834 6.84204 14.1792C6.44718 14.0749 6.03914 13.9058 5.61819 13.6713C5.19706 13.4369 4.84772 13.1463 4.56993 12.7989C4.29219 12.4514 4.06425 11.9957 3.88643 11.4317C3.70852 10.8673 3.61954 10.2162 3.61954 9.4784C3.61954 8.42813 3.96255 7.53388 4.64828 6.79611C4.32703 6.00621 4.35736 5.1209 4.73936 4.13991C4.99111 4.06174 5.36444 4.12039 5.85918 4.31572C6.35401 4.51119 6.7163 4.67834 6.94643 4.81703C7.17656 4.95576 7.36095 5.07306 7.49986 5.16865C8.30732 4.94295 9.1406 4.83012 9.99991 4.83012C10.8592 4.83012 11.6926 4.94295 12.5001 5.16865L12.9949 4.85616C13.3335 4.64774 13.7328 4.45678 14.1929 4.28325C14.653 4.10967 15.0045 4.06188 15.2476 4.14005C15.6381 5.12104 15.6731 6.00635 15.3516 6.7962C16.0373 7.53407 16.3804 8.42827 16.3804 9.47854C16.3804 10.2164 16.2914 10.8698 16.1135 11.4382C15.9357 12.0068 15.7058 12.4626 15.4235 12.8055C15.1415 13.1484 14.7898 13.4368 14.3689 13.6714C13.9479 13.9057 13.5399 14.0751 13.1448 14.1791C12.7498 14.2833 12.305 14.3617 11.8103 14.4138C12.2613 14.8043 12.487 15.4204 12.487 16.2626V19.3747C12.487 19.5223 12.5085 19.6416 12.5519 19.7327C12.5956 19.8239 12.665 19.8866 12.7604 19.9216C12.8563 19.9563 12.9405 19.9779 13.0145 19.9865C13.0885 19.9953 13.1946 19.9996 13.3335 19.9996H16.2502C17.2831 19.9996 18.1664 19.6329 18.8997 18.8993C19.6332 18.1658 20 17.2824 20 16.2495V3.74998C19.9999 2.71704 19.6331 1.83355 18.8997 1.10016Z" fill="white"/>
</svg>
