<svg width="151" height="125" viewBox="0 0 151 125" fill="none" xmlns="http://www.w3.org/2000/svg">
<g clip-path="url(#clip0)">
<path opacity="0.1" d="M150.117 41.1221H136.24V57.9436H149.103C149.136 58.1172 149.168 58.2908 149.205 58.4628H136.24V72.0257L136.305 72.0046C136.671 71.8758 137.035 71.7389 137.396 71.594L137.629 71.499C137.999 71.347 138.363 71.1845 138.72 71.0114C138.848 70.9526 138.975 70.8907 139.1 70.8273C141.096 69.8448 142.935 68.5734 144.56 67.054C144.606 67.0132 144.65 66.971 144.692 66.9302C144.914 66.7159 145.132 66.5 145.343 66.2782L145.575 66.0306C145.824 65.7605 146.064 65.4812 146.298 65.199L146.401 65.0752C147.341 63.9221 148.132 62.6542 148.753 61.3019C148.772 61.2611 148.789 61.2189 148.807 61.1781C148.996 60.7525 149.166 60.3208 149.314 59.8816C149.377 59.696 149.438 59.5103 149.491 59.3247C149.509 59.2688 149.525 59.2145 149.54 59.1601C150.31 56.466 150.399 53.6662 150.399 50.8814C150.399 50.5569 150.399 50.2309 150.399 49.9079C150.399 48.7835 150.383 47.6439 150.361 46.5195C150.361 46.2266 150.348 45.9353 150.34 45.641C150.322 44.8934 150.295 44.1468 150.259 43.4012C150.25 43.1929 150.241 42.9861 150.227 42.7808C150.227 42.6616 150.215 42.5424 150.208 42.4231C150.177 41.9809 150.15 41.5522 150.117 41.1221Z" fill="#7F52DD"/>
<path opacity="0.1" d="M136.24 22.3957H143.851C142.604 20.6619 141.25 19.0066 139.799 17.4391C138.667 16.2044 137.479 15 136.235 13.8408L136.24 22.3957Z" fill="#7F52DD"/>
<path opacity="0.1" d="M136.24 22.9147V40.6026H150.073C150.073 40.5513 150.064 40.4985 150.06 40.4517C150.048 40.3128 150.035 40.1739 150.022 40.0336C150.008 39.8932 149.99 39.7076 149.972 39.543C149.954 39.3785 149.936 39.1883 149.915 39.0133C149.894 38.8382 149.875 38.6586 149.853 38.482C149.83 38.3054 149.809 38.1288 149.785 37.9537C149.761 37.7786 149.738 37.6005 149.711 37.4254C149.69 37.2745 149.67 37.1356 149.648 36.9892C149.616 36.784 149.583 36.5772 149.548 36.3734C149.544 36.343 149.538 36.3127 149.531 36.2829C149.282 34.7832 148.942 33.2998 148.514 31.8409C148.062 30.2952 147.488 28.7877 146.798 27.3325C146.054 25.7932 145.19 24.3146 144.215 22.9102L136.24 22.9147Z" fill="#7F52DD"/>
<path opacity="0.1" d="M103.285 41.1216V57.9431H132.926V41.1216H103.285ZM103.285 58.4623V69.8533C106.736 68.7499 110.681 69.1952 114.258 70.1008C117.028 70.8041 119.726 71.761 122.492 72.4493C123.727 72.7648 124.98 73.0017 126.245 73.1587L126.556 73.1919C126.707 73.207 126.858 73.2221 127.009 73.2342L127.462 73.2659H127.509H127.711C127.734 73.2674 127.757 73.2674 127.78 73.2659L128.025 73.2749H128.032C128.149 73.2749 128.266 73.2749 128.384 73.284H128.535C128.651 73.284 128.769 73.284 128.887 73.284H129.145H129.353C129.442 73.284 129.53 73.284 129.617 73.2749C129.759 73.2749 129.901 73.2628 130.044 73.2523L130.308 73.2357L130.634 73.21C130.865 73.1919 131.087 73.1678 131.321 73.1406C131.412 73.13 131.504 73.1195 131.594 73.1059L131.729 73.0893C131.957 73.0591 132.181 73.0229 132.409 72.9851C132.577 72.9595 132.744 72.9278 132.913 72.8976V58.4623H103.285ZM125.331 22.3892V22.9084H103.285V40.6024H132.926V22.9145H131.439V22.3953H132.926V10.9636C127.16 6.31936 120.421 2.68187 112.915 1.00198C109.754 0.302246 106.523 -0.0345008 103.285 -0.00172538V22.3953L125.331 22.3892ZM57.5615 22.2896L57.6657 22.3892H99.9693V0.153736C92.4377 0.780109 85.0933 3.30975 79.1721 7.50117C76.3271 9.51311 73.7718 11.8979 70.5795 13.4419C68.9044 14.2731 67.0744 14.746 65.2063 14.8305L57.5615 22.2896ZM57.2702 13.1672V18.2008L61.3575 14.2117C59.8376 13.6864 58.6392 13.3272 57.2642 13.1732L57.2702 13.1672ZM57.1344 76.4928H57.2702V87.526C58.8128 87.4113 60.3493 87.2534 61.8797 87.0521C68.7235 86.1702 75.4295 84.433 81.8407 81.8811C82.5289 81.6054 83.2121 81.3207 83.8903 81.0269C84.3421 80.8306 84.7914 80.6294 85.2382 80.4231C85.9083 80.1152 86.5734 79.7988 87.2335 79.4738C90.1545 78.0381 92.9722 76.401 95.6661 74.5745C95.8337 74.4613 96.0027 74.3465 96.1688 74.2303C96.5028 73.9989 96.8344 73.7654 97.1634 73.53C97.3279 73.4108 97.4924 73.2915 97.6555 73.1708L97.9905 72.9142C98.3286 72.6621 98.6652 72.4086 99.0063 72.1595C99.3218 71.9331 99.6402 71.7067 99.9632 71.4954V58.4548H65.9806C66.0047 58.3778 66.0274 58.3038 66.053 58.2223C66.0259 58.3008 66.0017 58.3733 65.9791 58.4548H57.2642V76.4898L57.1344 76.4928ZM57.2702 22.9115V40.6024H99.9693V22.9145L57.2702 22.9115ZM57.2702 41.1186V57.9431H99.9693V41.1216L57.2702 41.1186ZM48.7334 13.6849L53.9497 18.7759V13.1446C52.2019 13.2532 50.4631 13.4334 48.7334 13.6849ZM12.4113 41.1216V57.9431H53.9497V41.1216H12.4113ZM22.4514 82.666C28.7474 85.0628 35.3303 86.6247 42.032 87.3117H42.0607C43.3275 87.4455 44.5979 87.5492 45.8717 87.6226H45.9185C48.5885 87.7736 51.2691 87.8083 53.9452 87.7087V58.4623H12.4113L12.5622 77.8301L22.4514 82.666ZM0.905663 57.9431H9.09833V41.1216H5.85779C5.52121 41.7132 5.19519 42.3079 4.88578 42.9116C4.71975 43.2326 4.55825 43.5571 4.40128 43.8852C2.26859 48.312 0.913209 53.1781 0.905663 57.9431ZM0.905663 58.4623C0.972073 61.8794 1.74183 65.2332 3.43078 68.3318C4.83446 70.9053 6.78452 73.1617 9.09229 75.1238V58.4623H0.905663ZM6.15513 40.6024H9.09229V36.2253C8.03365 37.628 7.05505 39.0894 6.16116 40.6024H6.15513ZM24.5584 22.3953H52.9701L53.0728 22.2957L52.9218 22.1447L44.9329 14.352C42.5617 14.847 40.2201 15.4743 37.9191 16.2312C37.7017 16.3021 37.4844 16.3821 37.2685 16.45C32.8256 17.957 28.5629 19.9509 24.5584 22.3953ZM12.4113 32.2618V40.6024H48.8406H48.8481H53.9542V23.396L53.3716 22.922H23.7223C19.5655 25.5352 15.7637 28.6745 12.4113 32.2618Z" fill="#7F52DD"/>
<path opacity="0.1" d="M136.24 31.8369V40.6031H150.073C150.073 40.5518 150.064 40.499 150.06 40.4522C150.048 40.3133 150.035 40.1745 150.022 40.0341C150.008 39.8937 149.99 39.7081 149.972 39.5436C149.954 39.379 149.936 39.1889 149.915 39.0138C149.894 38.8387 149.875 38.6591 149.853 38.4825C149.83 38.3059 149.809 38.1293 149.785 37.9542C149.761 37.7791 149.738 37.601 149.711 37.426C149.69 37.275 149.67 37.1362 149.648 36.9898C149.616 36.7845 149.583 36.5777 149.548 36.374C149.544 36.3435 149.538 36.3133 149.531 36.2834C149.282 34.7837 148.942 33.3004 148.514 31.8414L136.24 31.8369Z" fill="#7F52DD"/>
<path opacity="0.1" d="M150.117 41.1221H136.24V57.9436H149.103C149.136 58.1172 149.168 58.2908 149.205 58.4628H136.24V72.0257L136.305 72.0046C136.671 71.8758 137.035 71.7389 137.396 71.594L137.629 71.499C137.999 71.347 138.363 71.1845 138.72 71.0114C138.848 70.9526 138.975 70.8907 139.1 70.8273C141.096 69.8448 142.935 68.5734 144.56 67.054C144.606 67.0132 144.65 66.971 144.692 66.9302C144.914 66.7159 145.132 66.5 145.343 66.2782L145.575 66.0306C145.824 65.7605 146.064 65.4812 146.298 65.199L146.401 65.0752C147.341 63.9221 148.132 62.6542 148.753 61.3019C148.772 61.2611 148.789 61.2189 148.807 61.1781C148.996 60.7525 149.166 60.3208 149.314 59.8816C149.377 59.696 149.438 59.5103 149.491 59.3247C149.509 59.2688 149.525 59.2145 149.54 59.1601C150.31 56.466 150.399 53.6662 150.399 50.8814C150.399 50.5569 150.399 50.2309 150.399 49.9079C150.399 48.7835 150.383 47.6439 150.361 46.5195C150.361 46.2266 150.348 45.9353 150.34 45.641C150.322 44.8934 150.295 44.1468 150.259 43.4012C150.25 43.1929 150.241 42.9861 150.227 42.7808C150.227 42.6616 150.215 42.5424 150.208 42.4231C150.177 41.9809 150.15 41.5522 150.117 41.1221Z" fill="#7F52DD"/>
<path opacity="0.1" d="M122.491 25.4472V40.6024H132.925V25.4472H131.439V20.3154H125.33V25.4472H122.491Z" fill="#7F52DD"/>
<path opacity="0.1" d="M132.925 41.1221H122.491V57.9421H132.925V41.1221Z" fill="#7F52DD"/>
<path opacity="0.1" d="M132.926 58.4619H122.493V72.4489C123.728 72.7638 124.981 73.0007 126.246 73.1583L126.556 73.1915C126.707 73.2081 126.858 73.2217 127.009 73.2338L127.462 73.2655C127.477 73.2655 127.494 73.2655 127.509 73.2655C127.575 73.2655 127.643 73.2655 127.711 73.2745H127.781C127.862 73.2745 127.944 73.2745 128.027 73.2836C128.143 73.2836 128.261 73.2836 128.378 73.2926H128.529C128.647 73.2926 128.763 73.2926 128.881 73.2926H129.139H129.347L129.613 73.2836C129.753 73.2836 129.897 73.2715 130.039 73.2609L130.301 73.2443L130.629 73.2187C130.858 73.199 131.081 73.1764 131.314 73.1492L131.587 73.1145L131.721 73.0979C131.949 73.0662 132.174 73.033 132.402 72.9938C132.571 72.9681 132.737 72.9364 132.906 72.9062L132.926 58.4619Z" fill="#7F52DD"/>
<path opacity="0.1" d="M65.8689 23.6572H57.2642V40.601H65.8689V23.6572Z" fill="#7F52DD"/>
<path opacity="0.1" d="M57.2642 41.1221V57.9436H99.9692V50.6882H77.2221V54.9687H65.8674V41.1221H57.2642Z" fill="#7F52DD"/>
<path opacity="0.1" d="M57.1282 76.4989H57.264V87.5336C58.8066 87.4169 60.3431 87.2589 61.8735 87.0597C68.7194 86.1744 75.4273 84.4346 81.8405 81.8812C83.6758 81.1446 85.4735 80.3426 87.2333 79.4753C90.1544 78.0391 92.9721 76.4016 95.666 74.5745C96.3391 74.1177 97.0017 73.6503 97.6538 73.1723C98.1066 72.8388 98.5594 72.4992 99.0122 72.1686C99.3276 71.9422 99.6461 71.7158 99.9691 71.503V58.4624H65.9819C66.0061 58.3854 66.0287 58.3114 66.0529 58.2314C66.0272 58.3084 66.0016 58.3824 65.9789 58.4624H57.264V76.4913L57.1282 76.4989Z" fill="#7F52DD"/>
<path opacity="0.1" d="M34.8249 22.3956H40.4306V20.8425H37.9191V16.2314C37.7017 16.3024 37.4844 16.3824 37.2685 16.4503V20.8425H34.8249V22.3956Z" fill="#7F52DD"/>
<path opacity="0.1" d="M21.3165 40.603H48.8407H48.8316H48.8452H53.9498V23.6576H52.5039V36.1851H45.893V28.7713H40.4307V22.915H34.825V28.7713H29.3643V36.1836H21.3165V40.603Z" fill="#7F52DD"/>
<path opacity="0.1" d="M21.3164 41.1221V57.9436H53.9497V41.1221H21.3164ZM22.4559 82.6665C28.7519 85.0634 35.3348 86.6252 42.0365 87.3123H42.0652C43.332 87.4461 44.6024 87.5497 45.8762 87.6232H45.923C48.593 87.7741 51.2736 87.8088 53.9497 87.7092V58.4628H21.3164V64.4262H12.4113L12.4581 77.7401" fill="#7F52DD"/>
<path opacity="0.1" d="M8.5231 58.4619H0.91153C0.97794 61.879 1.74921 65.2328 3.43665 68.3314C4.84033 70.9064 6.79189 73.1613 9.09816 75.1235V64.4253H8.5231V58.4619Z" fill="#7F52DD"/>
<path opacity="0.1" d="M0.905663 57.9437H8.52327V43.8857H4.40128C2.26859 48.3126 0.913209 53.1787 0.905663 57.9437Z" fill="#7F52DD"/>
<path opacity="0.1" d="M61.8737 28.3682H57.2642V33.681H61.8737V28.3682Z" fill="#7F52DD"/>
<path opacity="0.1" d="M61.8737 39.3799H57.2642V40.6024H61.8737V39.3799Z" fill="#7F52DD"/>
<path opacity="0.1" d="M61.8737 41.1221H57.2642V44.6916H61.8737V41.1221Z" fill="#7F52DD"/>
<path opacity="0.1" d="M61.8737 50.3906H57.2642V55.7035H61.8737V50.3906Z" fill="#7F52DD"/>
<path opacity="0.1" d="M61.8737 61.4023H57.2642V66.7152H61.8737V61.4023Z" fill="#7F52DD"/>
<path opacity="0.1" d="M57.264 76.4918H57.1282H57.264V77.725H61.8736V72.4121H57.264V76.4918Z" fill="#7F52DD"/>
<path opacity="0.1" d="M57.2642 83.4238V87.5277C58.8067 87.411 60.3432 87.253 61.8737 87.0538V83.4314L57.2642 83.4238Z" fill="#7F52DD"/>
<path opacity="0.1" d="M99.9692 57.5527H80.215V57.9421H99.9692V57.5527Z" fill="#7F52DD"/>
<path opacity="0.1" d="M99.9692 58.4619H80.215V59.9577H99.9692V58.4619Z" fill="#7F52DD"/>
<path opacity="0.1" d="M99.9692 64.8604H80.215V67.2662H99.9692V64.8604Z" fill="#7F52DD"/>
<path opacity="0.1" d="M80.215 72.1689V74.5748H95.6675C96.3387 74.119 97.0013 73.6511 97.6553 73.1711C98.1081 72.8391 98.5609 72.4995 99.0137 72.1705L80.215 72.1689Z" fill="#7F52DD"/>
<path opacity="0.1" d="M80.215 79.4756V81.8815H81.8405C83.6749 81.1469 85.472 80.345 87.2319 79.4756H80.215Z" fill="#7F52DD"/>
<path opacity="0.1" d="M42.0354 46.2109H45.9234V42.7531H42.0354V46.2109Z" fill="#7F52DD"/>
<path opacity="0.1" d="M126.235 30.0977H130.123V26.6398H126.235V30.0977Z" fill="#7F52DD"/>
<path opacity="0.1" d="M126.235 38.1299H130.123V34.672H126.235V38.1299Z" fill="#7F52DD"/>
<path opacity="0.1" d="M126.235 46.1611H130.123V42.7032H126.235V46.1611Z" fill="#7F52DD"/>
<path opacity="0.1" d="M126.235 54.1943H130.123V50.7365H126.235V54.1943Z" fill="#7F52DD"/>
<path opacity="0.1" d="M126.235 62.2285H130.123V58.7706H126.235V62.2285Z" fill="#7F52DD"/>
<path opacity="0.1" d="M126.235 70.2598H130.123V66.8018H126.235V70.2598Z" fill="#7F52DD"/>
<path opacity="0.1" d="M27.1893 46.2109H31.0774V42.7531H27.1893V46.2109Z" fill="#7F52DD"/>
<path opacity="0.1" d="M42.0354 54.7393H45.9234V51.2814H42.0354V54.7393Z" fill="#7F52DD"/>
<path opacity="0.1" d="M27.1893 54.7393H31.0774V51.2814H27.1893V54.7393Z" fill="#7F52DD"/>
<path opacity="0.1" d="M42.0354 63.2686H45.9234V59.8107H42.0354V63.2686Z" fill="#7F52DD"/>
<path opacity="0.1" d="M27.1893 63.2686H31.0774V59.8107H27.1893V63.2686Z" fill="#7F52DD"/>
<path opacity="0.1" d="M42.0354 71.7979H45.9234V68.34H42.0354V71.7979Z" fill="#7F52DD"/>
<path opacity="0.1" d="M27.1893 71.7979H31.0774V68.34H27.1893V71.7979Z" fill="#7F52DD"/>
<path opacity="0.1" d="M42.0354 80.3281H45.9234V76.8702H42.0354V80.3281Z" fill="#7F52DD"/>
<path opacity="0.1" d="M27.1893 80.3281H31.0774V76.8702H27.1893V80.3281Z" fill="#7F52DD"/>
<path opacity="0.1" d="M45.9216 87.6287V85.3994H42.0351V87.3117L45.9216 87.6287Z" fill="#7F52DD"/>
<path opacity="0.1" d="M136.24 36.2773V38.2561H149.548V36.2773H136.24ZM148.223 36.4026H149.308V38.1323H148.217L148.223 36.4026ZM146.898 36.4026H147.989V38.1323H146.893L146.898 36.4026ZM145.575 36.4026H146.667V38.1323H145.575V36.4026ZM144.25 36.4026H145.341V38.1323H144.25V36.4026ZM142.926 36.4026H144.025V38.1323H142.934L142.926 36.4026ZM141.601 36.4026H142.693V38.1323H141.601V36.4026ZM140.276 36.4026H141.367V38.1323H140.276V36.4026ZM138.952 36.4026H140.044V38.1323H138.952V36.4026ZM137.629 36.4026H138.72V38.1323H137.629V36.4026ZM136.305 36.4026H137.396V38.1323H136.305V36.4026Z" fill="#7F52DD"/>
<path opacity="0.1" d="M136.24 42.0361V44.0149H149.548V42.0361H136.24ZM148.223 42.1614H149.308V43.8896H148.217L148.223 42.1614ZM146.898 42.1614H147.989V43.8896H146.893L146.898 42.1614ZM145.575 42.1614H146.667V43.8896H145.575V42.1614ZM144.25 42.1614H145.341V43.8896H144.25V42.1614ZM142.926 42.1614H144.025V43.8896H142.934L142.926 42.1614ZM141.601 42.1614H142.693V43.8896H141.601V42.1614ZM140.276 42.1614H141.367V43.8896H140.276V42.1614ZM138.952 42.1614H140.044V43.8896H138.952V42.1614ZM137.629 42.1614H138.72V43.8896H137.629V42.1614ZM136.305 42.1614H137.396V43.8896H136.305V42.1614Z" fill="#7F52DD"/>
<path opacity="0.1" d="M136.24 47.7949V49.7722H149.548V47.7949H136.24ZM148.223 47.9187H149.308V49.6484H148.217L148.223 47.9187ZM146.898 47.9187H147.989V49.6484H146.893L146.898 47.9187ZM145.575 47.9187H146.667V49.6484H145.575V47.9187ZM144.25 47.9187H145.341V49.6484H144.25V47.9187ZM142.926 47.9187H144.025V49.6484H142.934L142.926 47.9187ZM141.601 47.9187H142.693V49.6484H141.601V47.9187ZM140.276 47.9187H141.367V49.6484H140.276V47.9187ZM138.952 47.9187H140.044V49.6484H138.952V47.9187ZM137.629 47.9187H138.72V49.6484H137.629V47.9187ZM136.305 47.9187H137.396V49.6484H136.305V47.9187Z" fill="#7F52DD"/>
<path opacity="0.1" d="M136.24 53.5527V55.53H149.548V53.5527H136.24ZM148.223 53.6765H149.308V55.4062H148.217L148.223 53.6765ZM146.898 53.6765H147.989V55.4062H146.893L146.898 53.6765ZM145.575 53.6765H146.667V55.4062H145.575V53.6765ZM144.25 53.6765H145.341V55.4062H144.25V53.6765ZM142.926 53.6765H144.025V55.4062H142.934L142.926 53.6765ZM141.601 53.6765H142.693V55.4062H141.601V53.6765ZM140.276 53.6765H141.367V55.4062H140.276V53.6765ZM138.952 53.6765H140.044V55.4062H138.952V53.6765ZM137.629 53.6765H138.72V55.4062H137.629V53.6765ZM136.305 53.6765H137.396V55.4062H136.305V53.6765Z" fill="#7F52DD"/>
<path opacity="0.1" d="M136.24 59.3105V61.2923H148.753C148.771 61.2516 148.789 61.2093 148.805 61.1685H148.223V59.4358H149.308V59.866C149.371 59.6818 149.432 59.4977 149.485 59.3105H136.24ZM146.898 59.4358H147.989V61.164H146.893L146.898 59.4358ZM145.575 59.4358H146.667V61.164H145.575V59.4358ZM144.25 59.4358H145.341V61.164H144.25V59.4358ZM142.926 59.4358H144.025V61.164H142.934L142.926 59.4358ZM141.601 59.4358H142.693V61.164H141.601V59.4358ZM140.276 59.4358H141.367V61.164H140.276V59.4358ZM138.952 59.4358H140.044V61.164H138.952V59.4358ZM137.629 59.4358H138.72V61.164H137.629V59.4358ZM136.305 59.4358H137.396V61.164H136.305V59.4358Z" fill="#7F52DD"/>
<path opacity="0.1" d="M136.24 65.0654V67.0426H144.558C144.606 67.0019 144.649 66.9581 144.692 66.9189H144.25V65.1937H145.341V66.2729L145.575 66.0239V65.1937H146.298C146.333 65.1515 146.366 65.1092 146.401 65.07L136.24 65.0654ZM142.927 65.1892H144.025V66.9189H142.934L142.927 65.1892ZM141.601 65.1892H142.693V66.9189H141.601V65.1892ZM140.276 65.1892H141.367V66.9189H140.276V65.1892ZM138.952 65.1892H140.044V66.9189H138.952V65.1892ZM137.629 65.1892H138.72V66.9189H137.629V65.1892ZM136.305 65.1892H137.396V66.9189H136.305V65.1892Z" fill="#7F52DD"/>
<path opacity="0.1" d="M136.24 70.8281V72.025C136.262 72.019 136.284 72.0115 136.305 72.0023V70.9458H137.396V71.5888L137.629 71.4937V70.9519H138.72V71.0123C138.848 70.9534 138.975 70.8915 139.1 70.8296L136.24 70.8281Z" fill="#7F52DD"/>
<path opacity="0.1" d="M48.8361 40.6056H48.8436H48.8361ZM57.1283 76.4991H57.2642H57.1283ZM65.9791 58.4625C66.0032 58.3856 66.0259 58.3116 66.0515 58.2301C66.0259 58.3086 66.0017 58.3856 65.9791 58.4625ZM48.8361 40.6056H48.8436H48.8361ZM125.331 22.3955V22.9147H131.439V22.3955H125.331ZM57.1283 76.4991H57.2642H57.1283ZM65.9791 58.4625C66.0032 58.3856 66.0259 58.3116 66.0515 58.2301C66.0259 58.3086 66.0017 58.3856 65.9791 58.4625ZM48.8361 40.6056H48.8436H48.8361ZM57.1283 76.4991H57.2642H57.1283ZM65.9791 58.4625C66.0032 58.3856 66.0259 58.3116 66.0515 58.2301C66.0259 58.3086 66.0017 58.3856 65.9791 58.4625Z" fill="#7F52DD"/>
<path opacity="0.1" d="M136.285 124.433C139.168 124.433 141.504 124.174 141.504 123.854C141.504 123.535 139.168 123.276 136.285 123.276C133.403 123.276 131.066 123.535 131.066 123.854C131.066 124.174 133.403 124.433 136.285 124.433Z" fill="#7F52DD"/>
<path d="M100.872 80.7867L98.2634 80.6433L98.0869 73.1525L98.0461 71.3685L100.798 70.8613L100.816 73.1615L100.872 80.7867Z" fill="#D48A9B"/>
<path d="M98.8417 79.4825L85.4388 87.8156L85.149 90.3512L86.598 90.4237V88.6125L95.3642 83.686L84.7868 96.7991V98.8277H86.5256L86.3807 96.5818L98.6244 82.6718L100.146 82.8167L113.043 97.4511L113.333 99.9159L115.072 99.9883L114.782 97.4511L104.567 84.7003L111.377 89.4094L111.522 91.438L112.898 91.5104L112.753 89.0472L99.7835 79.0479L98.8417 79.4825Z" fill="#D48A9B"/>
<path d="M82.0034 65.2305C83.2691 63.6557 84.33 61.9268 85.1609 60.0852C86.0831 58.0446 87.0944 55.6885 87.1714 54.9912C87.3223 53.6871 91.0111 51.079 95.0682 50.9341C97.7141 50.839 101.836 48.7743 104.387 47.3479C106.786 45.9837 109.454 45.1595 112.205 44.933C115.189 44.7081 117.995 45.2937 116.582 48.7561L97.6099 71.7312C97.6099 71.7312 81.4298 74.5823 80.4322 69.9985C80.3764 69.7674 80.299 69.542 80.2013 69.3253C80.0126 68.8921 79.9628 67.7617 82.0034 65.2305Z" fill="#7F52DD"/>
<path opacity="0.2" d="M83.4287 65.6865C84.7027 64.0946 85.774 62.3505 86.6179 60.4944C87.4783 58.5866 88.3914 56.4479 88.4639 55.8004C88.6027 54.5552 92.1376 52.0632 96.0196 51.9244C98.5507 51.8338 102.495 49.8626 104.934 48.4997C107.231 47.1984 109.785 46.4135 112.417 46.1995C115.271 45.9852 117.956 46.5451 116.61 49.8521L101.56 71.8884C101.56 71.8884 82.9955 74.5221 82.013 70.1647C81.9546 69.9334 81.8774 69.7072 81.782 69.4885C81.61 69.0568 81.5858 67.9988 83.4287 65.6865Z" fill="#DDA2A6"/>
<path opacity="0.1" d="M100.816 73.162C99.9433 73.162 99.0241 73.162 98.0869 73.1529L98.0461 71.3689L100.798 70.8633L100.816 73.162Z" fill="black"/>
<g opacity="0.1">
<path opacity="0.1" d="M111.377 88.9747L104.567 84.2656L105.347 85.2391L111.377 89.4094L111.522 91.438L112.899 91.5104L112.873 91.0742L111.522 91.0033L111.377 88.9747Z" fill="black"/>
<path opacity="0.1" d="M86.5981 88.1784V88.6131L94.7229 84.0474L95.3644 83.252L86.5981 88.1784Z" fill="black"/>
<path opacity="0.1" d="M84.7868 98.3936V98.8282H86.5256L86.4969 98.3936H84.7868Z" fill="black"/>
<path opacity="0.1" d="M86.5981 89.9893L85.1974 89.9199L85.1491 90.3516L86.5981 90.424V89.9893Z" fill="black"/>
<path opacity="0.1" d="M113.333 99.4814L113.043 97.0167L100.146 82.3822L98.6241 82.2373L86.3804 96.1473L86.4061 96.5533L98.6241 82.672L100.146 82.8169L113.043 97.4514L113.333 99.9161L115.071 99.9886L115.022 99.5509L113.333 99.4814Z" fill="black"/>
</g>
<path opacity="0.1" d="M99.2765 58.8867C99.2765 58.8867 102.669 61.3681 101.184 61.3968C99.6991 61.4254 99.2765 58.8867 99.2765 58.8867Z" fill="black"/>
<path d="M85.04 72.4614C85.04 72.4614 90.6547 72.0268 92.7557 67.9697C92.7557 67.9697 97.0302 59.4917 100.509 58.5499C103.988 57.6081 110.435 55.5071 113.115 52.2469C115.796 48.9868 116.92 46.4873 116.92 46.4873C116.92 46.4873 117.611 49.1256 115.433 52.2364C113.256 55.3471 112.463 60.1377 110.942 65.2166C109.42 70.2956 108.841 72.3105 106.088 72.6124C104.012 72.8312 93.0395 72.7211 87.793 72.6124C86.0769 72.5656 85.04 72.4614 85.04 72.4614Z" fill="#7F52DD"/>
<path opacity="0.2" d="M85.04 72.4614C85.04 72.4614 90.6547 72.0268 92.7557 67.9697C92.7557 67.9697 97.0302 59.4917 100.509 58.5499C103.988 57.6081 110.435 55.5071 113.115 52.2469C115.796 48.9868 116.92 46.4873 116.92 46.4873C116.92 46.4873 117.611 49.1256 115.433 52.2364C113.256 55.3471 112.463 60.1377 110.942 65.2166C109.42 70.2956 108.841 72.3105 106.088 72.6124C104.012 72.8312 93.0395 72.7211 87.793 72.6124C86.0769 72.5656 85.04 72.4614 85.04 72.4614Z" fill="#DDA2A6"/>
<path d="M86.4529 72.4615C86.4529 72.4615 91.8201 72.0404 93.8275 68.1116C93.8275 68.1116 97.9148 59.9039 101.238 58.9922C104.562 58.0806 110.726 56.0445 113.289 52.8885C115.852 49.7325 116.925 47.3115 116.925 47.3115C116.925 47.3115 117.581 49.8774 115.505 52.8885C113.428 55.8996 112.666 60.5348 111.211 65.4461C109.756 70.3575 109.203 72.3211 106.571 72.6019C104.588 72.8132 94.0992 72.706 89.0836 72.6019C87.4445 72.5702 86.4529 72.4615 86.4529 72.4615Z" fill="#7F52DD"/>
<path opacity="0.1" d="M82.106 70.3486C82.106 70.3486 85.0401 71.4715 86.7064 70.8557C88.3727 70.2399 92.5023 68.4287 92.5023 68.4287C92.5023 68.4287 85.5473 68.8694 82.106 70.3486Z" fill="black"/>
<path d="M101.724 123.077C101.724 123.077 93.29 122.625 91.2343 121.417C89.1786 120.21 86.2686 120.21 86.2535 120.21L52.6708 112.889L38.7095 109.569L36.2191 109.241L44.445 99.8292L44.6955 99.7205L56.8215 94.4756C56.8215 94.4756 62.2551 94.7775 63.3282 98.3184C63.4017 98.5678 63.4522 98.8234 63.4792 99.0821C63.5918 100.186 63.2858 101.293 62.6219 102.182C62.1932 102.768 61.6665 103.6 61.5004 104.332C61.4069 104.745 61.428 105.127 61.6514 105.418C62.1041 105.868 62.6041 106.267 63.1426 106.609C66.0994 108.571 73.5736 111.804 86.6309 106.852C86.6309 106.852 92.2154 101.343 96.4415 103.683C100.668 106.022 101.724 123.077 101.724 123.077Z" fill="#E1DEE5"/>
<path opacity="0.1" d="M61.5066 104.332C61.413 104.745 61.4341 105.127 61.6575 105.418C62.1103 105.868 62.6102 106.267 63.1487 106.609L37.7285 108.512L44.6956 99.7205L56.8216 94.4756C56.8216 94.4756 62.2552 94.7775 63.3284 98.3184C63.4018 98.5678 63.4523 98.8234 63.4793 99.0821C63.5919 100.186 63.2859 101.293 62.622 102.182C62.1994 102.768 61.6726 103.6 61.5066 104.332Z" fill="black"/>
<path d="M36.6721 69.7227L57.5009 70.1755V95.1081L37.7286 108.513L32.9742 104.135L33.9553 89.6459L32.9742 76.1373L36.6721 69.7227Z" fill="#A36468"/>
<path d="M24.8236 65.6471L49.1419 58.1533C49.579 58.0196 50.037 57.9684 50.4928 58.0023L108.587 62.2421C113.556 62.5831 118.338 64.2699 122.422 67.1217C126.181 69.7736 129.905 73.8443 131.629 80.0084C132.875 84.5569 132.789 89.3679 131.379 93.8686L126.248 110.471C126.248 110.471 130.097 74.3982 91.684 72.587L24.8236 65.6471Z" fill="#D9D6DF"/>
<path d="M37.7286 69.1936V109.241C37.7286 109.241 31.0649 108.303 29.88 107.002C28.908 105.935 23.2767 102.927 20.8331 99.8286C20.2973 99.1494 19.9139 98.4701 19.7675 97.7955C18.9494 94.0704 15.6168 85.268 15.6168 85.268L16.5224 76.6648L20.2957 71.0803L27.616 67.7598H33.276L37.7286 69.1936Z" fill="#B8797D"/>
<path d="M27.1634 69.7227C27.1634 69.7227 16.3325 76.5147 18.7021 87.4438C18.8953 88.3343 19.0629 89.2293 19.173 90.1349C19.6062 93.6698 22.2053 103.828 37.7288 108.513V109.569L31.1436 107.732L26.6729 105.268L23.2603 102.207L19.0885 97.1171L17.152 92.9664L16.4427 87.4996L16.0336 81.2585L17.0313 75.9049L19.3843 72.4213L22.2521 70.1921L27.1634 69.7227Z" fill="#D9D6DF"/>
<path opacity="0.1" d="M37.7287 69.1938V75.5647C33.0045 76.0779 18.3775 79.0362 20.9751 95.9407L20.8317 99.8227C20.2959 99.1435 19.9125 98.4643 19.7661 97.7897C18.9481 94.0646 15.6155 85.2622 15.6155 85.2622L16.5211 76.659L20.2944 71.0744L27.6147 67.7539H33.2747L37.7287 69.1938Z" fill="black"/>
<path opacity="0.1" d="M62.6281 102.182C62.1995 102.768 61.6727 103.6 61.5067 104.332C60.8486 103.577 60.7067 102.709 61.6576 102.022C62.8485 101.156 63.2454 99.6526 63.3345 98.3184C63.4079 98.5678 63.4584 98.8234 63.4854 99.0821C63.598 100.186 63.2921 101.293 62.6281 102.182Z" fill="white"/>
<path d="M123.61 106.248L120.743 115.983L114.252 122.323L106.102 123.983L93.4236 121.719V76.6653C93.4236 76.6653 95.6121 75.2314 95.8385 75.2314C96.0649 75.2314 102.178 76.2125 102.178 76.2125L116.018 86.1394L116.592 86.5515L122.78 95.7584L123.61 106.248Z" fill="#B8797D"/>
<path d="M93.4236 74.7783V121.719L94.6462 121.937V74.7783H93.4236Z" fill="#A36468"/>
<path opacity="0.1" d="M116.29 89.2686C107.234 81.8275 97.1668 80.7333 93.4236 80.5974V76.6731C93.4236 76.6731 95.6121 75.2393 95.8385 75.2393C96.0649 75.2393 102.178 76.2203 102.178 76.2203L116.018 86.1472L116.29 89.2686Z" fill="black"/>
<path d="M91.5107 71.7601L34.7855 65.5719L28.41 65.2338C26.4232 65.1189 24.4364 65.4581 22.6002 66.2257C20.7641 66.9932 19.1269 68.169 17.813 69.6637C14.4925 73.4823 11.9824 80.2184 15.6486 91.7845C15.6486 91.7845 19.4718 106.777 37.9868 109.998L91.7854 122.188C92.9778 122.459 94.1551 122.792 95.3173 123.171C100.201 124.775 116.75 128.932 124.546 114.802C127.217 109.957 128.017 104.307 126.988 98.8693C125.112 88.9228 118.028 72.0439 91.5107 71.7601ZM119.302 114.156C112.027 126.007 97.0364 122.48 92.5295 121.088C91.4262 120.747 90.3093 120.45 89.1788 120.208L39.4825 109.576C22.3606 106.765 18.8243 93.6741 18.8243 93.6741C15.9339 85.0709 17.1972 79.5196 19.5336 76.0059C21.9803 72.3276 26.2396 70.2704 30.6529 70.4938L36.5272 70.7957L87.265 77.5741C88.2913 77.7114 89.3252 77.802 90.3606 77.8367C112.924 78.6019 119.944 91.0087 121.728 99.559C122.775 104.556 121.978 109.8 119.302 114.156Z" fill="#E1DEE5"/>
<path d="M0.63872 96.982C2.49671 98.2257 5.31765 97.634 5.31765 97.634C5.31765 97.634 9.57246 95.619 10.8297 95.619C12.087 95.619 15.1449 94.3738 15.1449 94.3738L15.0408 93.5347L14.7299 91.0065C16.6663 92.5159 18.8186 91.9951 19.8782 91.885C21.0162 91.7672 27.0973 88.1524 27.683 87.9139C27.8414 87.8505 28.0271 87.6437 28.2158 87.3766C28.6075 86.7776 28.9516 86.1488 29.2451 85.4959C29.6255 85.1609 29.9032 84.8922 29.8836 84.8334C29.8639 84.7745 30.0345 84.3338 30.2564 83.8372C31.1197 83.6863 31.8638 83.3663 32.1008 83.1731C32.2955 83.0173 32.4514 82.8184 32.5562 82.5921C32.6609 82.3658 32.7117 82.1183 32.7045 81.869C32.7045 81.869 38.6377 75.8845 37.8574 73.3956C37.077 70.9067 39.7757 70.8464 39.7757 70.8464C39.7757 70.8464 43.9098 69.0684 44.4849 68.0028C44.8396 67.3462 47.9412 65.9048 50.2747 64.8935L50.5614 64.7698C51.467 66.7546 56.0675 65.2226 56.9731 64.3879C57.9315 63.4989 60.7464 63.0839 60.7464 63.0839C60.7464 63.0839 60.8672 51.462 61.7652 49.9859C62.1924 49.284 62.295 46.9898 62.2844 44.7741C62.2844 44.6956 62.2844 44.6232 62.2844 44.5387C63.5432 44.2927 66.5377 43.7236 67.9278 43.5863C68.8093 43.4987 69.7285 42.9493 70.4333 42.415L70.5163 42.5192C70.7586 42.6186 71.0203 42.6615 71.2816 42.6445C71.5129 42.6704 71.7468 42.6268 71.9532 42.5192C72.4936 42.2173 74.4708 41.6302 75.1892 41.3344C75.9077 41.0385 75.07 38.9043 74.5312 38.4893C73.9923 38.0742 73.6256 37.5414 73.9274 37.3044C74.2293 37.0675 73.209 36.4743 72.6098 36.3551C72.0106 36.2358 70.213 35.4072 70.213 35.4072C70.213 35.4072 69.5534 34.0488 68.4757 34.0488C67.3981 34.0488 65.9582 32.9817 65.9582 32.9817C65.8993 32.5078 64.7597 32.4489 64.7597 32.4489C64.7597 32.4489 60.4461 29.1284 59.7261 29.545C59.0062 29.9615 57.0304 28.8929 57.0304 28.8929C57.0304 28.8929 54.6049 29.1646 54.0344 28.7178C54.0292 28.5711 53.9762 28.4301 53.8835 28.3164C53.7552 27.9149 53.1288 27.3655 52.5251 26.9082C52.5712 26.6247 52.5944 26.338 52.5945 26.0508C52.5945 25.9271 52.5945 25.8033 52.5809 25.6811C52.5809 25.6599 52.5809 25.6403 52.5809 25.6192L52.667 24.7845C52.6729 24.51 52.7443 24.241 52.8752 23.9997C52.9764 23.8487 53.1258 23.7204 53.239 23.571C53.2654 23.5358 53.2896 23.499 53.3114 23.4608L53.3296 23.4291C53.3461 23.4002 53.3613 23.3705 53.3748 23.3401L53.3884 23.3099C53.4218 23.2279 53.4475 23.143 53.4654 23.0563V23.0367C53.4729 22.9975 53.479 22.9582 53.4835 22.9175C53.4828 22.912 53.4828 22.9064 53.4835 22.9009C53.5083 22.5561 53.462 22.2098 53.3477 21.8836C53.1681 21.3236 52.8873 20.7833 52.8571 20.1992C52.842 19.9094 52.8903 19.6135 52.8269 19.3298C52.676 18.6823 52.0164 18.2733 51.375 18.0016C50.489 17.6303 50.0422 17.2243 49.3313 16.6718C48.7276 16.204 47.7284 16.4394 46.9677 16.4877C45.229 16.5994 43.5128 17.1231 41.8767 17.6635C41.2413 17.8748 40.5938 18.1163 40.0987 18.5464C39.7654 18.8299 39.5365 19.2167 39.4482 19.6452C39.4311 19.7449 39.4245 19.8461 39.4286 19.9471C39.4286 19.9562 39.4286 19.9652 39.4286 19.9728C39.4286 20.012 39.4286 20.0497 39.4422 20.0875C39.4413 20.1 39.4413 20.1126 39.4422 20.1252C39.4497 20.1713 39.4608 20.2167 39.4754 20.261C39.5448 20.4799 39.6731 20.6776 39.7471 20.895C39.7638 20.9444 39.7774 20.9948 39.7878 21.0459C39.7878 21.0459 39.7878 21.0565 39.7878 21.061C39.7984 21.1093 39.8059 21.1561 39.812 21.2119C39.8784 21.7508 39.6791 22.3137 39.5916 22.8631C39.5795 22.9401 39.5705 23.0141 39.5644 23.0986C39.5383 23.4165 39.5663 23.7365 39.6474 24.0449C39.6468 24.0484 39.6468 24.052 39.6474 24.0555C39.6565 24.0932 39.6701 24.131 39.6822 24.1672C39.6863 24.1836 39.6913 24.1997 39.6973 24.2155C39.7078 24.2472 39.7214 24.2789 39.7335 24.3091L39.7591 24.3725C39.7712 24.3996 39.7848 24.4268 39.7984 24.454C39.812 24.4811 39.821 24.4993 39.8331 24.5204C39.8455 24.5452 39.8591 24.5694 39.8738 24.5928C39.8874 24.617 39.9025 24.6396 39.9176 24.6623C39.9327 24.6849 39.9463 24.706 39.9629 24.7272C39.9795 24.7483 39.9976 24.774 40.0157 24.7966L40.0625 24.8539L40.1259 24.9204L40.1757 24.9702L40.2497 25.0336C40.2678 25.0471 40.2829 25.0622 40.301 25.0743C40.3191 25.0864 40.3629 25.1181 40.3946 25.1377L40.4383 25.1679C40.4866 25.1966 40.538 25.2222 40.5893 25.2464C40.9334 25.3973 41.3681 25.4592 41.5749 25.7626C41.6242 25.8334 41.6586 25.9135 41.676 25.998C41.676 26.0176 41.676 26.0388 41.676 26.0584V26.1112C41.676 26.2863 41.6881 26.4599 41.7062 26.6304C41.7048 26.7243 41.7104 26.8181 41.7228 26.9112C41.7328 26.9813 41.7521 27.0498 41.7801 27.1149C42.0217 28.3076 42.6601 29.3834 43.5913 30.1668C43.6094 30.2589 43.6306 30.366 43.6532 30.4868C43.1259 30.8825 42.5369 31.1884 41.9099 31.3924C40.4715 31.8135 38.4385 33.756 38.4385 33.756C38.4385 33.756 37.4272 41.0446 37.1842 41.9336C36.9412 42.8226 36.7616 46.2608 36.7616 46.2608C36.7616 46.2608 36.5216 47.6826 36.1579 48.3935C35.9028 48.8946 35.9496 51.0484 36.659 52.357C36.5433 52.6143 36.3952 52.8558 36.2182 53.0755C34.7798 54.7357 30.4647 54.6754 29.0263 54.6754C27.7026 54.6754 27.2936 55.4783 27.2377 55.6051C24.6039 56.3598 16.0762 58.7868 15.0649 59.2275C13.8665 59.7513 13.2069 64.9268 13.2069 64.9268C13.2069 64.9268 10.703 73.5179 10.8222 74.6438C10.9414 75.7698 9.983 78.9062 9.983 78.9062C9.983 78.9062 9.983 82.4516 9.57699 82.6916C9.57348 82.6949 9.56939 82.6974 9.56492 82.6992C9.14532 82.8773 9.20419 84.5964 9.20419 84.5964C9.20419 84.5964 9.5136 84.6854 9.99508 84.8077C9.86679 85.6756 9.39134 86.8906 9.02458 87.7539C8.83742 87.517 8.65479 87.4188 8.54612 87.6935C8.24425 88.4482 3.75248 93.7822 2.61293 93.7822C2.07108 93.7822 1.17453 94.2259 0.584384 94.8251C-0.0616113 95.4847 -0.33631 96.3315 0.63872 96.982ZM21.2487 66.1055C26.3427 66.5795 31.7959 65.7448 31.7959 65.7448C31.7959 65.7448 31.3763 67.2315 31.0171 67.8247C30.6579 68.4178 29.6375 71.7957 29.6375 72.5036C29.6375 73.2115 28.0195 79.3183 27.5411 79.6141C27.3403 79.7394 27.1607 80.0503 27.0189 80.3687C26.8929 80.6631 26.787 80.9657 26.7019 81.2743C26.7089 81.4283 26.7225 81.5747 26.7426 81.7136C26.3849 82.0411 26.0061 82.3852 25.6695 82.6901C25.6695 82.6901 23.5263 83.8825 22.8018 84.5345C22.0773 85.1865 18.7266 85.9865 18.7266 85.9865C17.8958 86.3437 17.0891 86.7546 16.3116 87.2166C15.2717 87.843 14.2318 88.6399 13.9601 89.4263C14.0778 88.1011 14.2695 86.5057 14.3978 85.4914L14.588 85.4839C16.2679 85.3797 16.0173 83.7768 15.9283 83.3799C15.9162 83.3225 15.9071 83.2908 15.9071 83.2908C17.1055 81.9868 19.8012 72.2727 19.442 71.2011C19.0828 70.1294 19.7439 69.1861 19.8842 69.1861C20.0246 69.1861 20.2208 68.0013 19.922 67.3492C19.6231 66.6972 21.2487 66.1055 21.2487 66.1055ZM62.4384 39.9609L62.1199 40.0394V39.9714C62.1199 39.9714 62.2361 39.9714 62.4384 39.9609ZM45.0267 31.0181C44.9784 31.0784 44.9301 31.1358 44.8758 31.1916L44.8139 31.255C44.8139 31.1448 44.8139 31.0332 44.8139 30.926C44.8863 30.9547 44.9558 30.9894 45.0267 31.0181ZM39.0241 42.5162L39.0452 42.8497C39.0452 42.8497 39.0135 43.0535 38.9532 43.4021L39.0241 42.5162ZM66.5619 39.2047L65.5159 39.3843C65.6669 39.3285 65.8102 39.2681 65.9521 39.2002C66.0572 39.1509 66.1701 39.1203 66.2857 39.1096C66.418 39.1237 66.5485 39.1515 66.6751 39.1926C66.6371 39.1937 66.5992 39.1977 66.5619 39.2047Z" fill="url(#paint0_linear)"/>
<path d="M31.1996 81.9913C31.1996 81.9913 29.9921 84.4832 30.054 84.6598C30.1159 84.8364 27.4655 86.951 27.4655 86.951L24.5842 84.8938L24.886 83.481C24.886 83.481 28.1205 80.5665 28.3575 80.2299C28.5945 79.8933 31.1996 81.9913 31.1996 81.9913Z" fill="#EFB7B9"/>
<path d="M14.7632 90.4229C16.7631 92.3639 19.1146 91.7813 20.2331 91.6591C21.3515 91.5368 27.3179 87.9537 27.8914 87.7182C28.0423 87.6548 28.231 87.4495 28.4151 87.1839C28.8 86.5889 29.1376 85.9646 29.4249 85.3169C29.3857 85.3274 27.4296 85.8874 26.936 85.3169C26.936 85.3169 26.1119 84.3071 25.9353 84.3071C25.7587 84.3071 25.9217 82.5352 25.9217 82.5352C25.9217 82.5352 23.8177 83.7185 23.1129 84.366C22.408 85.0135 19.1131 85.8059 19.1131 85.8059C18.2983 86.1605 17.5077 86.5684 16.7465 87.0269C15.1889 87.9778 13.6192 89.3196 14.7632 90.4229Z" fill="#67647E"/>
<path opacity="0.1" d="M14.7627 90.4224C16.7625 92.3634 19.1141 91.7808 20.2325 91.6585C21.3509 91.5363 27.3173 87.9531 27.8908 87.7176C28.0418 87.6543 28.2304 87.449 28.4146 87.1833C27.7188 86.7683 23.1727 89.6586 21.9003 90.1884C20.6279 90.7182 17.4085 90.4224 15.5807 89.6586C14.6751 89.2768 15.5928 88.104 16.7429 87.0264C15.1883 87.9772 13.6186 89.319 14.7627 90.4224Z" fill="black"/>
<path d="M14.9983 84.3066C14.9983 84.3066 14.1606 90.599 14.3734 91.4231C14.5862 92.2471 9.11639 88.6006 9.11639 88.6006C9.11639 88.6006 11.0302 84.6567 10.4748 83.7511C9.91936 82.8455 14.9983 84.3066 14.9983 84.3066Z" fill="#EFB7B9"/>
<path d="M9.76375 84.4242C9.76375 84.4242 13.1748 85.4234 15.0555 85.3057C16.7037 85.203 16.4576 83.6122 16.3716 83.2183C16.3595 83.1624 16.3505 83.1307 16.3505 83.1307C17.5262 81.8357 20.1736 72.1911 19.8219 71.133C19.4703 70.075 20.1087 69.1407 20.2597 69.1407C20.4106 69.1407 20.5902 67.9634 20.2959 67.3174C20.0016 66.6715 21.5909 66.0828 21.5909 66.0828C26.5898 66.5522 31.9419 65.7236 31.9419 65.7236C31.9419 65.7236 31.5298 67.1997 31.1767 67.7884C30.8235 68.377 29.8183 71.7277 29.8183 72.4341C29.8183 73.1404 28.2304 79.1974 27.7595 79.4917C27.5633 79.6155 27.3867 79.9234 27.2479 80.2464C27.1238 80.5409 27.02 80.8434 26.9369 81.152C27.1135 85.0929 31.5827 83.5669 32.2302 83.0341C32.3223 82.9575 32.4063 82.8715 32.4807 82.7775C32.7078 82.4798 32.8266 82.1135 32.8173 81.7391C32.8173 81.7391 38.6403 75.7999 37.8751 73.3291C37.1098 70.8583 39.7572 70.801 39.7572 70.801C39.7572 70.801 43.8158 69.0366 44.3803 67.977C44.729 67.3265 47.7718 65.8972 50.063 64.8919C51.4983 64.2626 52.6379 63.8022 52.6379 63.8022L51.684 60.3821L50.9293 57.6849L49.5136 57.1536L44.9856 55.4511L36.8623 54.3115L36.1182 54.4081L28.2259 55.4299C28.2259 55.4299 16.7037 58.7263 15.5264 59.2425C14.3491 59.7587 13.7031 64.898 13.7031 64.898C13.7031 64.898 11.2338 73.4257 11.3546 74.5487C11.4753 75.6716 10.5305 78.7748 10.5305 78.7748C10.5305 78.7748 10.5305 82.293 10.1305 82.5315C10.1266 82.5327 10.1224 82.5327 10.1184 82.5315C9.70488 82.7247 9.76375 84.4242 9.76375 84.4242Z" fill="#444053"/>
<path opacity="0.1" d="M21.5853 66.0761C26.5842 66.5455 31.9363 65.7169 31.9363 65.7169C32.2895 64.6045 37.2326 61.5466 37.2326 61.5466C33.177 60.5474 21.5853 66.0761 21.5853 66.0761Z" fill="black"/>
<path d="M26.9368 81.131C27.1134 85.072 31.5825 83.546 32.23 83.0132C32.3222 82.9365 32.4061 82.8506 32.4806 82.7566C30.9184 83.3317 28.1488 83.7769 27.2477 80.2314C27.1239 80.524 27.0201 80.8245 26.9368 81.131Z" fill="#444053"/>
<path d="M9.76432 84.4249C9.76432 84.4249 13.1754 85.4241 15.0561 85.3064C16.7042 85.2037 16.4582 83.6129 16.3722 83.2189C14.6455 83.1646 11.6721 83.0031 10.1281 82.5352C10.1241 82.5363 10.1199 82.5363 10.116 82.5352C9.70546 82.7253 9.76432 84.4249 9.76432 84.4249Z" fill="#444053"/>
<path opacity="0.1" d="M26.9368 81.131C27.1134 85.072 31.5825 83.546 32.23 83.0132C32.3222 82.9365 32.4061 82.8506 32.4806 82.7566C30.9184 83.3317 28.1488 83.7769 27.2477 80.2314C27.1239 80.524 27.0201 80.8245 26.9368 81.131Z" fill="black"/>
<path opacity="0.1" d="M9.76432 84.4249C9.76432 84.4249 13.1754 85.4241 15.0561 85.3064C16.7042 85.2037 16.4582 83.6129 16.3722 83.2189C14.6455 83.1646 11.6721 83.0031 10.1281 82.5352C10.1241 82.5363 10.1199 82.5363 10.116 82.5352C9.70546 82.7253 9.76432 84.4249 9.76432 84.4249Z" fill="black"/>
<path d="M1.3526 96.7165C3.17588 97.9511 5.94098 97.3625 5.94098 97.3625C5.94098 97.3625 10.1158 95.3641 11.3519 95.3641C12.5881 95.3641 15.5811 94.128 15.5811 94.128L15.48 93.2964L14.994 89.3057C14.994 89.3057 10.4131 89.188 10.229 88.7759C10.229 88.7759 9.4064 86.7504 9.11208 87.4991C8.81776 88.2477 4.40749 93.5363 3.28907 93.5363C2.75628 93.5363 1.87634 93.9771 1.29826 94.5717C0.668872 95.2313 0.398702 96.0705 1.3526 96.7165Z" fill="#67647E"/>
<path opacity="0.1" d="M17.1736 61.958C17.1736 61.958 20.9967 64.373 19.9387 64.8982C18.8806 65.4235 17.1736 61.958 17.1736 61.958Z" fill="black"/>
<path opacity="0.1" d="M15.581 66.6035C15.581 66.6035 18.8743 69.7309 17.6397 69.8139C16.4051 69.8969 15.581 66.6035 15.581 66.6035Z" fill="black"/>
<path opacity="0.1" d="M12.0566 76.5371C12.0566 76.5371 13.729 79.681 13.0996 80.2259C12.4702 80.7708 12.0566 76.5371 12.0566 76.5371Z" fill="black"/>
<path opacity="0.1" d="M30.466 79.7196C29.8774 80.3068 36.0505 77.7786 34.6408 77.6609C33.2311 77.5431 30.466 79.7196 30.466 79.7196Z" fill="black"/>
<path d="M42.8156 35.6094L43.0133 35.5807C43.7438 35.469 46.3957 35.0524 48.7744 34.5362C49.354 34.4095 49.9155 34.2781 50.4347 34.1423C52.2565 33.6654 53.479 33.1507 52.6987 32.7281C51.6663 32.1681 51.1229 31.1508 50.8362 30.2754C50.809 30.1894 50.7834 30.1064 50.7592 30.0233C50.6325 29.5802 50.5531 29.1248 50.5222 28.6649C50.5222 28.6649 43.8811 26.3119 45.1701 28.6649C45.8056 29.8196 45.3784 30.7614 44.7792 31.421C44.3672 31.857 43.8825 32.2181 43.3468 32.4881L42.8156 35.6094Z" fill="#EFB7B9"/>
<path opacity="0.1" d="M49.9317 33.7861C49.9317 33.7861 47.5545 35.4917 45.126 34.0805C42.6975 32.6692 39.5218 46.5491 39.5218 46.5491L36.2285 54.6647C36.2285 54.6647 34.0958 56.4292 36.7507 57.1944C39.4056 57.9596 45.2951 56.4292 46.7908 58.6645C48.2866 60.8998 51.1181 61.2515 51.4079 61.2515C51.6976 61.2515 52.8176 52.84 52.8176 52.84L53.1089 40.6657L49.9317 33.7861Z" fill="black"/>
<path d="M36.8628 56.7237C39.5177 57.4874 45.4087 55.9585 46.9044 58.1938C47.5346 59.1045 48.4146 59.8137 49.4386 60.2359C50.0996 60.5327 50.8047 60.7193 51.526 60.7883C51.5637 60.7883 51.6196 60.6374 51.6845 60.3672C52.098 58.6647 52.9357 52.3768 52.9357 52.3768L53.2255 40.2025L50.4317 34.1425L50.0498 33.3154C49.6755 33.5652 49.2694 33.7636 48.8424 33.9056C47.9232 34.2165 46.5935 34.3916 45.2472 33.6037C44.5347 33.1902 43.7574 34.0927 43.0164 35.5749C41.2293 39.143 39.643 46.0723 39.643 46.0723L36.3466 54.1986C36.2683 54.2658 36.1937 54.3374 36.1233 54.4129C35.6554 54.9019 34.7784 56.123 36.8628 56.7237Z" fill="#F3F5F9"/>
<path opacity="0.1" d="M49.5171 57.1326C49.3871 58.1597 49.3608 59.1973 49.4386 60.2298C49.5337 61.6986 49.7182 63.1604 49.991 64.6068C50.008 64.6977 50.0322 64.787 50.0635 64.874C51.4988 64.2446 52.6384 63.7842 52.6384 63.7842L51.6845 60.3641C52.098 58.6616 52.9357 52.3737 52.9357 52.3737L53.2255 40.1994L50.4317 34.1424C52.2535 33.6655 53.476 33.1508 52.6957 32.7282C51.5637 32.1139 51.0189 30.9487 50.7562 30.0234C50.2777 30.6905 49.7174 31.2949 49.0884 31.8226L49.0522 31.8528L48.8409 33.9054L48.776 34.5363L48.6402 35.8449C48.6402 35.8449 49.2877 51.3126 49.7571 52.1956C50.2265 53.0785 49.9925 54.7826 49.582 56.7824C49.5563 56.8956 49.5412 57.0119 49.5171 57.1326Z" fill="black"/>
<path d="M49.814 56.5468C49.4034 58.5467 49.7551 61.84 50.226 64.3682C50.6969 66.8963 55.6958 65.2511 56.6377 64.3682C57.5795 63.4852 60.3416 63.0747 60.3416 63.0747C60.3416 63.0747 60.4593 51.5479 61.3422 50.0778C61.7603 49.3805 61.8614 47.1044 61.8509 44.9053C61.8433 42.9311 61.7452 41.0188 61.709 40.3773C61.6999 40.2264 61.6954 40.1434 61.6954 40.1434C61.6954 40.1434 65.517 33.6744 65.4582 33.2005C65.3993 32.7265 64.2824 32.6722 64.2824 32.6722C64.2824 32.6722 60.0563 29.3788 59.3424 29.7894C58.6285 30.1999 56.695 29.1434 56.695 29.1434C56.695 29.1434 54.2363 29.4226 53.7277 28.9472C53.6967 28.9208 53.6724 28.8875 53.6567 28.85C53.641 28.8125 53.6342 28.7719 53.6371 28.7313C53.6945 27.9767 51.1316 26.3707 51.0516 26.3164C53.213 28.2604 49.7189 31.2564 49.3219 31.5855L49.2857 31.6157L48.8737 35.6078C48.8737 35.6078 49.5212 51.0755 49.9906 51.9584C50.46 52.8414 50.226 54.5469 49.814 56.5468Z" fill="#67647E"/>
<path d="M50.0419 40.0398C50.2045 40.0398 50.3362 39.908 50.3362 39.7455C50.3362 39.5829 50.2045 39.4512 50.0419 39.4512C49.8794 39.4512 49.7476 39.5829 49.7476 39.7455C49.7476 39.908 49.8794 40.0398 50.0419 40.0398Z" fill="#444053"/>
<path opacity="0.1" d="M49.4395 31.8226L51.2266 33.5508L53.8452 29.1737C53.8143 29.1474 53.79 29.1141 53.7743 29.0766C53.7585 29.0391 53.7518 28.9985 53.7547 28.9579C53.812 28.2032 51.2477 26.5973 51.1692 26.543C53.3306 28.4976 49.8425 31.4936 49.4395 31.8226Z" fill="black"/>
<path opacity="0.1" d="M50.6305 49.449C50.7931 49.449 50.9249 49.3172 50.9249 49.1547C50.9249 48.9921 50.7931 48.8604 50.6305 48.8604C50.468 48.8604 50.3362 48.9921 50.3362 49.1547C50.3362 49.3172 50.468 49.449 50.6305 49.449Z" fill="black"/>
<path d="M50.6305 49.3308C50.7931 49.3308 50.9249 49.1991 50.9249 49.0365C50.9249 48.874 50.7931 48.7422 50.6305 48.7422C50.468 48.7422 50.3362 48.874 50.3362 49.0365C50.3362 49.1991 50.468 49.3308 50.6305 49.3308Z" fill="#444053"/>
<path d="M49.3222 31.5873L51.1093 33.3155L53.728 28.9384C53.697 28.912 53.6727 28.8787 53.657 28.8413C53.6413 28.8038 53.6346 28.7631 53.6374 28.7226C53.6948 27.9679 51.1319 26.362 51.0519 26.3076C53.2133 28.2622 49.7192 31.2567 49.3222 31.5873Z" fill="#67647E"/>
<path d="M47.7257 48.0568L51.3049 48.1387C51.4466 48.1419 51.5641 48.0297 51.5673 47.888L51.7533 39.7548C51.7566 39.6132 51.6443 39.4957 51.5027 39.4925L47.9234 39.4106C47.7818 39.4074 47.6643 39.5196 47.6611 39.6613L47.4751 47.7944C47.4718 47.9361 47.5841 48.0536 47.7257 48.0568Z" fill="#D1D9EC"/>
<path d="M47.747 48.2472L51.3262 48.3291C51.4678 48.3323 51.5853 48.2201 51.5886 48.0784L51.7745 39.9453C51.7778 39.8036 51.6656 39.6861 51.5239 39.6829L47.9447 39.601C47.803 39.5978 47.6855 39.71 47.6823 39.8517L47.4963 47.9849C47.4931 48.1265 47.6053 48.244 47.747 48.2472Z" fill="#DFE6F5"/>
<path d="M49.742 42.8182C50.0971 42.8182 50.3849 42.5303 50.3849 42.1752C50.3849 41.8201 50.0971 41.5322 49.742 41.5322C49.3869 41.5322 49.099 41.8201 49.099 42.1752C49.099 42.5303 49.3869 42.8182 49.742 42.8182Z" fill="white"/>
<path opacity="0.1" d="M27.583 56.0177C29.0531 56.6652 38.6993 54.9612 40.1105 54.5476C41.5217 54.1341 43.582 50.9599 42.5813 48.6612C41.5806 46.3625 42.933 44.1332 42.933 44.1332C42.933 44.1332 45.046 39.6052 45.5215 38.7222C45.9969 37.8393 46.9735 35.2719 47.1093 34.8418C47.1148 34.7934 47.1103 34.7445 47.096 34.698C47.0817 34.6515 47.058 34.6085 47.0263 34.5716C46.6429 33.9935 45.1638 32.9641 45.1638 32.9641C44.7487 33.1151 44.6974 31.9242 44.711 31.0503C44.72 30.5613 44.7487 30.1719 44.7487 30.1719C44.7487 30.1719 44.554 30.3696 44.2355 30.6398C44.1193 30.7379 43.9865 30.8465 43.8386 30.9582C43.2871 31.4001 42.663 31.7428 41.9942 31.971C40.5829 32.3891 38.5831 34.3165 38.5831 34.3165L39.1717 43.3484C39.1717 43.3484 37.8133 51.8429 36.4066 53.4896C34.9999 55.1362 30.7602 55.0774 29.349 55.0774C27.9377 55.0774 27.583 56.0177 27.583 56.0177Z" fill="black"/>
<path d="M27.465 55.6661C28.9351 56.312 38.5812 54.6095 39.9925 54.1945C41.4037 53.7794 43.4639 50.6068 42.4632 48.3081C41.4626 46.0093 42.8149 43.7801 42.8149 43.7801C42.8149 43.7801 44.928 39.252 45.4034 38.3691C45.8789 37.4861 46.8554 34.9188 46.9912 34.4886C46.9967 34.4403 46.9921 34.3914 46.9778 34.3449C46.9635 34.2984 46.9398 34.2554 46.9082 34.2184C46.5218 33.6419 45.0502 32.6155 45.0502 32.6155C44.6352 32.7664 44.5839 31.5771 44.5974 30.7032C44.6065 30.2127 44.6352 29.8232 44.6352 29.8232C44.6352 29.8232 44.4405 30.021 44.122 30.2926C44.0058 30.3892 43.873 30.4979 43.725 30.6096C43.1708 31.0524 42.5436 31.3951 41.8716 31.6224C40.4604 32.0405 38.4605 33.9679 38.4605 33.9679L39.0491 42.9997C39.0491 42.9997 37.6907 51.4943 36.284 53.1409C34.8773 54.7876 30.6391 54.7288 29.2264 54.7288C27.8137 54.7288 27.465 55.6661 27.465 55.6661Z" fill="#67647E"/>
<path opacity="0.1" d="M43.4628 30.0488C43.4628 30.0488 43.5187 30.3582 43.6137 30.8352C43.9307 32.4502 44.6854 35.976 45.2302 35.8401C45.6212 35.742 46.2868 35.0508 46.7939 34.4531C46.412 33.8705 44.9359 32.8411 44.9359 32.8411C44.5209 32.992 44.4695 31.8027 44.4831 30.9288L44.0077 30.5182L43.4628 30.0488Z" fill="black"/>
<path d="M43.5801 29.8184C43.5801 29.8184 43.6359 30.1278 43.731 30.6047C44.048 32.2197 44.8026 35.7455 45.3475 35.6096C45.7384 35.5115 46.404 34.8203 46.9112 34.2226C46.5218 33.6415 45.0502 32.6151 45.0502 32.6151C44.6351 32.7661 44.5838 31.5767 44.5974 30.7028L44.1219 30.2923L43.5801 29.8184Z" fill="#67647E"/>
<path d="M39.8161 47.1361C39.8161 47.1361 42.7578 46.549 43.5804 45.2555C44.4029 43.962 50.0056 42.8406 49.3158 44.199C48.6261 45.5574 43.5804 49.9782 43.5804 49.9782L41.3903 53.1131L38.4652 52.3705L37.2321 49.9722L39.8161 47.1361Z" fill="#EFB7B9"/>
<path opacity="0.1" d="M46.7741 50.4932C46.7741 50.4932 43.9259 51.5497 43.4973 52.9624C43.0686 54.3752 46.7741 50.4932 46.7741 50.4932Z" fill="black"/>
<path opacity="0.1" d="M48.5206 52.1367C48.5206 52.1367 48.7802 53.6053 45.2106 53.4952L48.5206 52.1367Z" fill="black"/>
<path opacity="0.1" d="M63.9292 33.316L65.2242 33.1982C65.2242 33.1982 66.6355 34.2548 67.6935 34.2548C68.7515 34.2548 69.3991 35.6132 69.3991 35.6132C69.3991 35.6132 71.1635 36.4373 71.7521 36.555C72.3407 36.6727 73.3399 37.2598 73.0456 37.4953C72.7513 37.7307 73.1045 38.2605 73.6342 38.6711C74.164 39.0816 74.9926 41.2007 74.2802 41.495C73.5678 41.7893 71.6344 42.3764 71.1106 42.6708C70.5869 42.9651 69.9349 42.6708 69.9349 42.6708C69.9349 42.6708 66.8196 38.6122 65.2303 39.3774C63.6409 40.1426 61.4645 40.1381 61.4645 40.1381L59.7589 36.552L63.9292 33.316Z" fill="black"/>
<path d="M36.8628 52.6681C37.1405 53.0816 37.4997 53.3714 37.9601 53.4303C39.1112 53.5649 40.2778 53.4569 41.3847 53.1133C41.3847 53.1133 35.4606 51.2312 41.1644 46.6549H39.64L39.1268 46.4617L39.3592 45.2437L39.6943 34.2572L38.4597 33.9629C38.4597 33.9629 37.465 41.1971 37.228 42.0786C36.9911 42.96 36.813 46.3726 36.813 46.3726C36.813 46.3726 36.5775 47.7839 36.2243 48.4857C35.9572 49.02 36.0311 51.4123 36.8628 52.6681Z" fill="#67647E"/>
<path opacity="0.1" d="M37.1028 52.6684C37.379 53.0819 37.7397 53.3717 38.2 53.4306C39.3512 53.5652 40.5178 53.4572 41.6247 53.1136C41.6247 53.1136 35.7006 51.2315 41.4044 46.6522H39.8814L39.3728 46.459C38.523 47.9457 37.2099 50.5855 37.1028 52.6684Z" fill="black"/>
<path d="M36.8626 52.6683C37.1403 53.0819 37.4995 53.3717 37.9599 53.4305C39.1111 53.5651 40.2777 53.4571 41.3846 53.1136C41.3846 53.1136 35.4604 51.2314 41.1642 46.6551H39.6398L39.1266 46.4619C38.2935 47.9456 36.9743 50.5854 36.8626 52.6683Z" fill="#67647E"/>
<path opacity="0.1" d="M44.7776 31.4255C45.7827 31.8815 46.9041 32.0157 47.9883 31.8098C49.0726 31.604 50.0667 31.068 50.8346 30.2754C50.8074 30.1894 50.7818 30.1063 50.7576 30.0233C50.631 29.5802 50.5515 29.1248 50.5207 28.6649C50.5207 28.6649 43.8796 26.3119 45.1686 28.6649C45.804 29.8241 45.3769 30.7659 44.7776 31.4255Z" fill="black"/>
<path d="M41.6397 26.3166V26.3694C41.6397 26.543 41.6518 26.715 41.6699 26.8841C41.688 27.0531 41.7122 27.2071 41.7424 27.3656C41.9732 28.5187 42.5773 29.5638 43.4614 30.3394C44.3455 31.115 45.4603 31.5778 46.6338 31.6565C47.8072 31.7351 48.9739 31.4252 49.9536 30.7746C50.9333 30.124 51.6715 29.1689 52.0541 28.0568C52.0903 27.9527 52.122 27.8485 52.1507 27.7429C52.2798 27.2785 52.3448 26.7986 52.3439 26.3166C52.3439 26.1943 52.3439 26.0705 52.3303 25.9498C52.2318 24.5681 51.6013 23.2783 50.5715 22.3518C49.5417 21.4253 48.1927 20.9342 46.8083 20.9817C45.4239 21.0292 44.1118 21.6116 43.1479 22.6065C42.184 23.6014 41.6434 24.9313 41.6397 26.3166Z" fill="#EFB7B9"/>
<path opacity="0.1" d="M41.6397 26.3698C41.669 26.5397 41.6791 26.7124 41.6699 26.8845C41.6681 26.9778 41.6732 27.0712 41.685 27.1638C41.6951 27.2334 41.7143 27.3014 41.7424 27.366C41.9582 27.8731 42.6646 28.2022 43.131 27.8747C43.3105 27.7275 43.4532 27.5404 43.5475 27.3283C44.0426 26.4091 44.7293 25.3526 45.8115 25.3344C46.2734 25.3254 46.7066 25.5201 47.1533 25.6363C47.6001 25.7525 48.1284 25.7631 48.4604 25.4597C48.717 25.2258 48.8377 24.8273 49.1804 24.7458C49.523 24.6643 49.8399 24.9782 49.9969 25.2861C50.1539 25.594 50.2792 25.9563 50.6006 26.1163C50.7425 26.1857 50.9025 26.2068 51.0534 26.2823C51.6934 26.6325 51.3991 27.8596 52.0632 28.0588C52.084 28.0652 52.1051 28.0703 52.1266 28.0739C52.1371 27.9652 52.1492 27.8535 52.1598 27.7449C52.2202 27.1472 52.28 26.5495 52.3394 25.9518C52.2408 24.57 51.6104 23.2803 50.5806 22.3538C49.5507 21.4273 48.2018 20.9361 46.8174 20.9836C45.4329 21.0311 44.1208 21.6135 43.1569 22.6085C42.193 23.6034 41.6524 24.9333 41.6488 26.3185L41.6397 26.3698Z" fill="black"/>
<path d="M51.1467 18.3276C51.7761 18.5947 52.4312 19.0053 52.5716 19.6468C52.6334 19.929 52.5866 20.2218 52.6017 20.5086C52.6319 21.0882 52.9036 21.6255 53.0832 22.1809C53.2628 22.7364 53.3232 23.3884 52.97 23.8563C52.8598 24.0072 52.7134 24.1265 52.6138 24.2804C52.4839 24.5231 52.4135 24.7931 52.4085 25.0683L52.1172 27.9632C51.3716 27.8228 51.7037 26.5293 51.0426 26.1701C50.9053 26.0946 50.7407 26.0735 50.5974 26.0026C50.2789 25.8516 50.1551 25.4818 49.9936 25.1739C49.8321 24.866 49.5257 24.5506 49.1771 24.6336C48.8284 24.7166 48.7137 25.1151 48.4586 25.3475C48.1251 25.6494 47.5953 25.6373 47.15 25.5241C46.7048 25.4109 46.2701 25.2222 45.8098 25.2222C44.7261 25.2404 44.0378 26.2969 43.5458 27.2161C43.451 27.4288 43.3079 27.6164 43.1277 27.764C42.6024 28.1322 41.7693 27.6674 41.6832 27.0516C41.6319 26.7059 41.7406 26.321 41.5414 26.0282C41.3421 25.7354 40.9105 25.6735 40.5739 25.5166C39.7136 25.1211 39.4479 24.048 39.5898 23.1484C39.694 22.4994 39.952 21.8323 39.7407 21.2074C39.6668 20.9916 39.5415 20.7954 39.4736 20.5795C39.2849 19.9758 39.5928 19.3056 40.0773 18.8755C40.5618 18.4453 41.1972 18.2084 41.8221 18.0001C43.4265 17.4612 45.1109 16.9435 46.818 16.8318C47.5651 16.7835 48.5447 16.5496 49.1378 17.016C49.8427 17.5563 50.2774 17.9593 51.1467 18.3276Z" fill="#585268"/>
<path opacity="0.1" d="M49.7476 35.3924C49.9102 35.3924 50.042 35.2606 50.042 35.098C50.042 34.9355 49.9102 34.8037 49.7476 34.8037C49.5851 34.8037 49.4533 34.9355 49.4533 35.098C49.4533 35.2606 49.5851 35.3924 49.7476 35.3924Z" fill="black"/>
<path d="M49.7476 35.2742C49.9102 35.2742 50.042 35.1424 50.042 34.9799C50.042 34.8173 49.9102 34.6855 49.7476 34.6855C49.5851 34.6855 49.4533 34.8173 49.4533 34.9799C49.4533 35.1424 49.5851 35.2742 49.7476 35.2742Z" fill="#444053"/>
<path opacity="0.1" d="M51.6297 53.8601C51.7922 53.8601 51.924 53.7284 51.924 53.5658C51.924 53.4033 51.7922 53.2715 51.6297 53.2715C51.4671 53.2715 51.3353 53.4033 51.3353 53.5658C51.3353 53.7284 51.4671 53.8601 51.6297 53.8601Z" fill="black"/>
<path d="M51.6297 53.7429C51.7922 53.7429 51.924 53.6112 51.924 53.4486C51.924 53.2861 51.7922 53.1543 51.6297 53.1543C51.4671 53.1543 51.3353 53.2861 51.3353 53.4486C51.3353 53.6112 51.4671 53.7429 51.6297 53.7429Z" fill="#444053"/>
<path opacity="0.1" d="M50.6305 58.742C50.7931 58.742 50.9249 58.6102 50.9249 58.4476C50.9249 58.2851 50.7931 58.1533 50.6305 58.1533C50.468 58.1533 50.3362 58.2851 50.3362 58.4476C50.3362 58.6102 50.468 58.742 50.6305 58.742Z" fill="black"/>
<path d="M50.6305 58.6238C50.7931 58.6238 50.9249 58.492 50.9249 58.3295C50.9249 58.1669 50.7931 58.0352 50.6305 58.0352C50.468 58.0352 50.3362 58.1669 50.3362 58.3295C50.3362 58.492 50.468 58.6238 50.6305 58.6238Z" fill="#444053"/>
<path opacity="0.1" d="M40.5228 39.7451C40.5228 39.7451 39.8753 44.1373 40.5228 44.9025C41.1704 45.6678 40.5228 39.7451 40.5228 39.7451Z" fill="black"/>
<path opacity="0.1" d="M59.7542 47.9014C59.7542 47.9014 60.9888 50.5623 59.7542 53.1131C58.5196 55.6639 57.7544 56.7008 58.1664 58.3294C58.5785 59.958 59.7542 47.9014 59.7542 47.9014Z" fill="black"/>
<path opacity="0.1" d="M1.3526 96.717C3.17588 97.9517 5.94098 97.363 5.94098 97.363C5.94098 97.363 10.1158 95.3647 11.3519 95.3647C12.5881 95.3647 15.5811 94.1285 15.5811 94.1285L15.48 93.2969C14.2619 93.5308 11.4908 94.0908 11.1708 94.364C10.7588 94.7172 5.70099 96.4227 5.70099 96.4227C5.70099 96.4227 2.25669 95.9925 1.29826 94.5768C0.668872 95.2318 0.398702 96.071 1.3526 96.717Z" fill="black"/>
<g opacity="0.1">
<path opacity="0.1" d="M52.6023 20.0384C52.6023 19.975 52.6023 19.9116 52.6023 19.8467C52.6023 19.9206 52.6023 19.9976 52.6023 20.067C52.6053 20.058 52.6023 20.0489 52.6023 20.0384Z" fill="black"/>
<path opacity="0.1" d="M40.5758 25.0417C40.9124 25.1926 41.3304 25.253 41.5433 25.5519C41.7561 25.8507 41.6338 26.2295 41.6851 26.5752C41.7742 27.191 42.6043 27.6574 43.1296 27.2876C43.3098 27.1401 43.4529 26.9524 43.5477 26.7397C44.0412 25.8205 44.7295 24.764 45.8117 24.7459C46.2735 24.7383 46.7067 24.933 47.1535 25.0477C47.6002 25.1624 48.1285 25.1745 48.4621 24.8711C48.7171 24.6387 48.8379 24.2387 49.1805 24.1572C49.5231 24.0757 49.8386 24.3897 49.9971 24.6976C50.1555 25.0055 50.2793 25.3677 50.6008 25.5277C50.7427 25.5971 50.9027 25.6183 51.046 25.6937C51.7071 26.0545 51.3751 27.354 52.1207 27.4868C52.2213 26.5208 52.3184 25.5559 52.412 24.5919C52.4182 24.3198 52.4885 24.0529 52.6173 23.8131C52.7169 23.6622 52.8633 23.5354 52.9735 23.3875C53.1068 23.2048 53.1901 22.9904 53.215 22.7656C53.2775 23.1474 53.191 23.5385 52.9735 23.8584C52.8633 24.0093 52.7169 24.1286 52.6173 24.2825C52.4865 24.5244 52.4151 24.7939 52.409 25.0689C52.3084 26.0338 52.2113 26.9988 52.1177 27.9638C51.3721 27.8234 51.7041 26.5299 51.043 26.1707C50.9057 26.0952 50.7412 26.0741 50.5978 26.0031C50.2793 25.8522 50.1555 25.4824 49.994 25.1745C49.8325 24.8666 49.5261 24.5512 49.1775 24.6342C48.8288 24.7172 48.7141 25.1157 48.459 25.3481C48.1255 25.65 47.5957 25.6379 47.1504 25.5247C46.7052 25.4115 46.2705 25.2228 45.8086 25.2228C44.7265 25.2409 44.0382 26.2975 43.5446 27.2167C43.4499 27.4294 43.3067 27.617 43.1266 27.7645C42.6013 28.1328 41.7682 27.6679 41.6821 27.0521C41.6308 26.7065 41.7395 26.3216 41.5402 26.0288C41.341 25.736 40.9093 25.6741 40.5728 25.5171C39.7864 25.1549 39.4966 24.2267 39.563 23.3829C39.6234 24.0727 39.9343 24.7459 40.5758 25.0417Z" fill="black"/>
<path opacity="0.1" d="M39.4754 20.1028C39.5433 20.3187 39.6685 20.5164 39.7425 20.7307C39.8204 20.9809 39.843 21.2451 39.8089 21.505C39.7972 21.4024 39.7749 21.3012 39.7425 21.2031C39.6685 20.9873 39.5433 20.7911 39.4754 20.5752C39.4157 20.376 39.4039 20.1656 39.4406 19.9609C39.4494 20.0089 39.461 20.0562 39.4754 20.1028Z" fill="black"/>
</g>
<path d="M72.6545 68.5446L60.5316 67.0277C60.4461 67.0172 60.3653 66.983 60.2982 66.929C60.2311 66.875 60.1804 66.8034 60.1517 66.7222C60.123 66.6411 60.1175 66.5535 60.1358 66.4693C60.1541 66.3852 60.1955 66.3078 60.2554 66.2459L65.3403 60.9632C65.3896 60.9119 65.4502 60.8726 65.5172 60.8485C65.5843 60.8244 65.6559 60.8162 65.7267 60.8244L74.9955 61.8628C75.066 61.8707 75.1337 61.8947 75.1935 61.9329C75.2532 61.9711 75.3034 62.0225 75.3401 62.0832C75.3769 62.1438 75.3992 62.2121 75.4054 62.2828C75.4116 62.3534 75.4015 62.4246 75.3759 62.4907L73.1451 68.2548C73.107 68.3507 73.0382 68.4312 72.9494 68.4837C72.8606 68.5361 72.7569 68.5576 72.6545 68.5446Z" fill="#746D83"/>
<path opacity="0.1" d="M72.6545 68.5446L60.5316 67.0277C60.4461 67.0172 60.3653 66.983 60.2982 66.929C60.2311 66.875 60.1804 66.8034 60.1517 66.7222C60.123 66.6411 60.1175 66.5535 60.1358 66.4693C60.1541 66.3852 60.1955 66.3078 60.2554 66.2459L65.3403 60.9632C65.3896 60.9119 65.4502 60.8726 65.5172 60.8485C65.5843 60.8244 65.6559 60.8162 65.7267 60.8244L74.9955 61.8628C75.066 61.8707 75.1337 61.8947 75.1935 61.9329C75.2532 61.9711 75.3034 62.0225 75.3401 62.0832C75.3769 62.1438 75.3992 62.2121 75.4054 62.2828C75.4116 62.3534 75.4015 62.4246 75.3759 62.4907L73.1451 68.2548C73.107 68.3507 73.0382 68.4312 72.9494 68.4837C72.8606 68.5361 72.7569 68.5576 72.6545 68.5446Z" fill="black"/>
<path d="M72.5177 68.4087L60.3963 66.8858C60.3108 66.8749 60.2301 66.8404 60.163 66.7863C60.096 66.7322 60.0454 66.6605 60.0167 66.5792C59.9881 66.498 59.9826 66.4104 60.0008 66.3262C60.0191 66.242 60.0603 66.1645 60.12 66.1024L65.205 60.8198C65.2544 60.7685 65.315 60.7292 65.3819 60.7049C65.4489 60.6806 65.5205 60.6718 65.5914 60.6794L74.8586 61.7178C74.9293 61.7258 74.9972 61.7498 75.0571 61.7881C75.1171 61.8264 75.1674 61.8779 75.2043 61.9387C75.2412 61.9995 75.2636 62.0679 75.2699 62.1387C75.2762 62.2096 75.2661 62.2809 75.2405 62.3472L73.0082 68.1114C72.9713 68.2085 72.9029 68.2905 72.8141 68.3444C72.7252 68.3982 72.6209 68.4209 72.5177 68.4087Z" fill="#746D83"/>
<path d="M65.2936 62.8892L68.9341 63.182L74.1262 62.8439H74.0371L69.2269 62.379C68.1251 61.9745 68.8888 59.5928 68.8888 59.5928L65.2045 59.7799L64.9102 59.795C63.6076 62.8439 65.2936 62.8892 65.2936 62.8892Z" fill="#D1D9EC"/>
<path opacity="0.1" d="M65.2936 62.889L68.9341 63.1818L74.1262 62.8437H74.0371L68.7877 63.0309L65.2709 62.649C64.2717 62.3864 64.8438 60.6537 65.2045 59.7812L64.9102 59.7963C63.6076 62.8437 65.2936 62.889 65.2936 62.889Z" fill="black"/>
<path d="M58.9171 41.2406L60.031 57.2169L60.182 59.3134C60.197 59.5448 60.3003 59.7616 60.4704 59.9191C60.6406 60.0767 60.8647 60.1629 61.0966 60.1601H61.4347L78.2035 60.059C78.2689 60.0582 78.3334 60.0439 78.393 60.017C78.4526 59.99 78.5059 59.9509 78.5496 59.9022C78.5933 59.8536 78.6264 59.7964 78.6469 59.7342C78.6673 59.6721 78.6746 59.6064 78.6683 59.5413L78.5174 57.4433L77.3371 43.3944C77.3187 43.2112 77.2482 43.0371 77.134 42.8927C77.0198 42.7483 76.8666 42.6396 76.6926 42.5794L60.7102 40.1826C60.1669 39.9939 59.6129 40.0603 59.2673 40.3486C59.1399 40.4569 59.0413 40.595 58.9802 40.7506C58.9191 40.9063 58.8975 41.0746 58.9171 41.2406Z" fill="#4C4C56"/>
<path d="M60.0308 57.2168L60.1818 59.3132C60.1968 59.5447 60.3001 59.7615 60.4703 59.919C60.6404 60.0765 60.8646 60.1628 61.0964 60.16H61.4345L78.2033 60.0588C78.2687 60.0581 78.3332 60.0438 78.3928 60.0168C78.4524 59.9898 78.5057 59.9508 78.5494 59.9021C78.5931 59.8534 78.6262 59.7962 78.6467 59.7341C78.6671 59.672 78.6744 59.6063 78.6681 59.5412L78.5172 57.4432L60.0308 57.2168Z" fill="#DFE6F5"/>
<path d="M71.2721 59.4064C71.3963 59.4064 71.4969 59.205 71.4969 58.9566C71.4969 58.7082 71.3963 58.5068 71.2721 58.5068C71.1479 58.5068 71.0472 58.7082 71.0472 58.9566C71.0472 59.205 71.1479 59.4064 71.2721 59.4064Z" fill="white"/>
<path d="M70.62 64.9341C70.62 64.9341 66.0347 63.2028 64.7985 64.4616C64.7985 64.4616 64.5963 64.845 65.4279 64.9341L68.7877 65.2043C68.7877 65.2043 70.1702 65.3386 70.62 64.9341Z" fill="#D1D9EC"/>
<path d="M70.4981 64.4843C69.5925 64.116 66.8863 63.1636 65.1505 64.2171C65.1505 64.2171 67.0704 64.0043 68.1254 64.6141C69.1804 65.2239 70.6203 64.9341 70.6203 64.9341L70.6415 64.8964C70.6617 64.8604 70.674 64.8205 70.6776 64.7795C70.6812 64.7384 70.6761 64.697 70.6626 64.658C70.649 64.6191 70.6273 64.5835 70.599 64.5535C70.5706 64.5236 70.5362 64.5 70.4981 64.4843Z" fill="#DFE6F5"/>
<path d="M58.9164 41.2406L60.1752 59.3163C60.1902 59.5477 60.2935 59.7645 60.4637 59.9221C60.6338 60.0796 60.8579 60.1659 61.0898 60.163H61.4279C61.1963 59.942 60.9989 59.6876 60.8423 59.4084C60.8423 59.4084 59.6062 41.2451 59.5156 40.7953C59.4759 40.6269 59.3896 40.4731 59.2666 40.3516C59.1396 40.4596 59.0413 40.5972 58.9802 40.7522C58.9192 40.9073 58.8972 41.075 58.9164 41.2406Z" fill="#DFE6F5"/>
<path opacity="0.1" d="M58.9164 41.2406L60.1752 59.3163C60.1902 59.5477 60.2935 59.7645 60.4637 59.9221C60.6338 60.0796 60.8579 60.1659 61.0898 60.163H61.4279C61.1963 59.942 60.9989 59.6876 60.8423 59.4084C60.8423 59.4084 59.6062 41.2451 59.5156 40.7953C59.4759 40.6269 59.3896 40.4731 59.2666 40.3516C59.1396 40.4596 59.0413 40.5972 58.9802 40.7522C58.9192 40.9073 58.8972 41.075 58.9164 41.2406Z" fill="black"/>
<path opacity="0.1" d="M56.7539 46.2523C58.1123 45.9504 61.2819 45.0207 61.2819 45.0207L61.8494 44.906C61.8419 42.9317 61.7438 41.0194 61.7076 40.3779H61.694C61.694 40.3779 58.9877 41.2609 58.3417 41.7363C57.6957 42.2118 55.6944 42.088 55.6944 42.088C55.6944 42.088 52.5791 42.2556 49.9936 45.1429C47.4081 48.0303 55.4016 46.5496 56.7539 46.2523Z" fill="black"/>
<path d="M69.9744 41.0046C70.0953 41.0599 70.2002 41.1449 70.2793 41.2517C70.3585 41.3586 70.4092 41.4837 70.4269 41.6154C70.4445 41.7472 70.4285 41.8813 70.3802 42.0052C70.332 42.129 70.2531 42.2387 70.151 42.3238C69.4341 42.9169 68.3881 43.6263 67.3889 43.7259C65.7287 43.8935 61.7138 44.698 61.3154 44.7825C61.2939 44.7861 61.2727 44.7911 61.252 44.7976C60.9214 44.8942 58.0296 45.7409 56.7542 46.0201C55.3958 46.322 47.3963 47.7876 49.9909 44.9062C52.3726 42.2528 55.2026 41.8876 55.6388 41.8529C55.6734 41.8499 55.7083 41.8499 55.7429 41.8529C56.0448 41.8664 57.7534 41.9253 58.3435 41.4982C58.6509 41.3053 58.9765 41.143 59.3155 41.0137C60.5944 40.4845 61.9283 40.0997 63.2926 39.8666L66.0592 39.3836C66.2167 39.3565 66.3787 39.3775 66.5241 39.444L69.9744 41.0046Z" fill="#EFB7B9"/>
<path d="M64.165 33.316L65.4585 33.1982C65.4585 33.1982 66.8712 34.2548 67.9292 34.2548C68.9873 34.2548 69.6348 35.6132 69.6348 35.6132C69.6348 35.6132 71.3992 36.4373 71.9878 36.555C72.5765 36.6727 73.5756 37.2598 73.2813 37.4953C72.987 37.7307 73.3402 38.2605 73.87 38.6711C74.3997 39.0816 75.2283 41.2007 74.5159 41.495C73.8035 41.7893 71.8701 42.3764 71.3463 42.6708C70.8226 42.9651 70.1706 42.6708 70.1706 42.6708C70.1706 42.6708 67.0493 38.6092 65.46 39.3744C63.8706 40.1396 61.6957 40.1381 61.6957 40.1381L59.9901 36.552L64.165 33.316Z" fill="#67647E"/>
<path d="M141.61 107.273C141.465 107.471 141.35 107.689 141.268 107.92C141.245 107.976 141.225 108.041 141.204 108.103C141.166 108.085 141.126 108.071 141.085 108.061C140.909 108.016 140.727 108.001 140.546 108.016C140.546 107.945 140.546 107.872 140.557 107.794C140.578 106.998 140.484 105.89 139.727 106.36C138.998 106.813 139.517 107.567 139.986 108.05L140.107 108.17C139.68 108.471 139.598 109.185 139.526 109.926C139.453 110.667 138.825 111.478 138.409 111.938C138.367 111.987 138.327 112.027 138.291 112.067C138.123 111.933 137.929 111.836 137.721 111.782C137.513 111.728 137.296 111.719 137.084 111.754L137.028 111.55C136.69 110.329 135.988 108.215 135.093 107.751C135.131 107.705 135.17 107.656 135.211 107.601C135.591 107.104 136.018 106.364 135.386 106.176C134.753 105.987 134.697 106.817 134.732 107.438C134.732 107.516 134.738 107.59 134.75 107.659C134.624 107.665 134.499 107.697 134.386 107.752C134.272 107.808 134.17 107.886 134.088 107.982L133.991 107.866C133.478 107.262 132.536 106.301 132.252 107.027C131.987 107.703 132.815 108.582 133.398 109.09L133.434 109.122C133.042 110.708 134.75 112.002 135.669 112.568L135.787 112.64C134.519 114.134 133.738 116.936 133.738 116.936L137.287 117.57C137.287 117.57 139.641 115.538 139.34 113.63H139.364C141.716 113.159 142.252 110.651 141.885 109.163L141.927 109.145C142.355 108.969 142.73 108.685 143.015 108.32C143.666 107.407 142.285 106.375 141.61 107.273Z" fill="#7F52DD"/>
<path opacity="0.1" d="M141.61 107.273C141.465 107.471 141.35 107.689 141.268 107.92C141.245 107.976 141.225 108.041 141.204 108.103C141.166 108.085 141.126 108.071 141.085 108.061C140.909 108.016 140.727 108.001 140.546 108.016C140.546 107.945 140.546 107.872 140.557 107.794C140.578 106.998 140.484 105.89 139.727 106.36C138.998 106.813 139.517 107.567 139.986 108.05L140.107 108.17C139.68 108.471 139.598 109.185 139.526 109.926C139.453 110.667 138.825 111.478 138.409 111.938C138.367 111.987 138.327 112.027 138.291 112.067C138.123 111.933 137.929 111.836 137.721 111.782C137.513 111.728 137.296 111.719 137.084 111.754L137.028 111.55C136.69 110.329 135.988 108.215 135.093 107.751C135.131 107.705 135.17 107.656 135.211 107.601C135.591 107.104 136.018 106.364 135.386 106.176C134.753 105.987 134.697 106.817 134.732 107.438C134.732 107.516 134.738 107.59 134.75 107.659C134.624 107.665 134.499 107.697 134.386 107.752C134.272 107.808 134.17 107.886 134.088 107.982L133.991 107.866C133.478 107.262 132.536 106.301 132.252 107.027C131.987 107.703 132.815 108.582 133.398 109.09L133.434 109.122C133.042 110.708 134.75 112.002 135.669 112.568L135.787 112.64C134.519 114.134 133.738 116.936 133.738 116.936L137.287 117.57C137.287 117.57 139.641 115.538 139.34 113.63H139.364C141.716 113.159 142.252 110.651 141.885 109.163L141.927 109.145C142.355 108.969 142.73 108.685 143.015 108.32C143.666 107.407 142.285 106.375 141.61 107.273Z" fill="black"/>
<path d="M134.542 108.296L134.127 109.511C134.127 109.511 133.898 109.348 133.606 109.091C133.024 108.583 132.195 107.704 132.461 107.028C132.744 106.302 133.686 107.261 134.2 107.867C134.406 108.109 134.542 108.296 134.542 108.296Z" fill="#7F52DD"/>
<path d="M135.422 107.602C135.295 107.769 135.159 107.929 135.015 108.082C134.978 107.87 134.954 107.656 134.941 107.442C134.906 106.821 134.971 105.994 135.594 106.18C136.218 106.366 135.799 107.105 135.422 107.602Z" fill="#7F52DD"/>
<path d="M140.772 107.793C140.759 108.193 140.719 108.513 140.719 108.513C140.537 108.37 140.364 108.215 140.202 108.05C139.732 107.564 139.213 106.81 139.942 106.359C140.704 105.89 140.793 106.998 140.772 107.793Z" fill="#7F52DD"/>
<path d="M143.224 108.317C142.939 108.681 142.564 108.965 142.136 109.141C142.017 109.193 141.895 109.238 141.771 109.274L141.282 108.587C141.333 108.36 141.4 108.137 141.484 107.92C141.566 107.689 141.682 107.471 141.826 107.272C142.503 106.374 143.884 107.407 143.224 108.317Z" fill="#7F52DD"/>
<path opacity="0.1" d="M134.199 107.868C134.406 108.11 134.542 108.297 134.542 108.297L134.127 109.512C134.127 109.512 133.897 109.349 133.606 109.092C133.67 108.703 133.83 108.336 134.072 108.025C134.115 107.968 134.158 107.916 134.199 107.868Z" fill="black"/>
<path opacity="0.1" d="M135.422 107.601C135.295 107.769 135.159 107.929 135.014 108.081C134.978 107.87 134.953 107.656 134.94 107.441C135.114 107.444 135.282 107.5 135.422 107.601Z" fill="black"/>
<path d="M137.46 112.425L136.427 112.878C136.239 112.784 136.056 112.68 135.878 112.567C134.793 111.9 132.61 110.22 134.067 108.24C135.523 106.26 136.749 109.811 137.236 111.548C137.384 112.069 137.46 112.425 137.46 112.425Z" fill="#7F52DD"/>
<path opacity="0.1" d="M140.202 108.05C140.353 107.895 140.557 107.803 140.773 107.793C140.759 108.193 140.72 108.513 140.72 108.513C140.537 108.37 140.364 108.215 140.202 108.05Z" fill="black"/>
<path opacity="0.1" d="M142.136 109.138C142.017 109.19 141.895 109.235 141.771 109.271L141.282 108.584C141.333 108.357 141.4 108.134 141.484 107.917C141.799 108.104 142.032 108.563 142.136 109.138Z" fill="black"/>
<path d="M139.573 113.628C139.516 113.64 139.458 113.65 139.399 113.659C135.939 114.185 138.258 112.318 138.258 112.318C138.258 112.318 138.409 112.174 138.625 111.939C139.042 111.486 139.671 110.672 139.742 109.927C139.851 108.805 139.978 107.753 141.301 108.061C142.601 108.366 142.848 112.973 139.573 113.628Z" fill="#7F52DD"/>
<path d="M139.507 122.244H132.895V123.983H139.507V122.244Z" fill="#D4DFEC"/>
<path d="M140.484 116.593H131.844V122.66H140.484V116.593Z" fill="#D4DFEC"/>
<path opacity="0.1" d="M139.507 122.244H132.895V123.983H139.507V122.244Z" fill="black"/>
<path opacity="0.1" d="M140.484 116.593H131.844V122.66H140.484V116.593Z" fill="black"/>
<path d="M139.942 122.244H133.33V123.983H139.942V122.244Z" fill="#D4DFEC"/>
<path opacity="0.1" d="M137.233 111.553C137.384 112.072 137.457 112.428 137.457 112.428L136.424 112.881C136.236 112.787 136.053 112.683 135.875 112.57C136.282 112.055 136.738 111.669 137.233 111.553Z" fill="black"/>
<path opacity="0.1" d="M139.573 113.627C139.516 113.64 139.458 113.65 139.4 113.659C135.939 114.184 138.258 112.317 138.258 112.317C138.258 112.317 138.409 112.174 138.625 111.938C139.271 112.459 139.538 113.039 139.573 113.627Z" fill="black"/>
<path d="M133.945 116.937C133.945 116.937 135.883 109.994 138.6 112.137C141.317 114.28 137.495 117.571 137.495 117.571L133.945 116.937Z" fill="#7F52DD"/>
<path opacity="0.1" d="M134.924 109.546C135.044 109.546 135.141 109.449 135.141 109.329C135.141 109.209 135.044 109.111 134.924 109.111C134.803 109.111 134.706 109.209 134.706 109.329C134.706 109.449 134.803 109.546 134.924 109.546Z" fill="black"/>
<path opacity="0.1" d="M134.906 110.561C135.026 110.561 135.123 110.463 135.123 110.343C135.123 110.223 135.026 110.126 134.906 110.126C134.786 110.126 134.688 110.223 134.688 110.343C134.688 110.463 134.786 110.561 134.906 110.561Z" fill="black"/>
<path opacity="0.1" d="M141.209 109.745C141.329 109.745 141.426 109.648 141.426 109.528C141.426 109.408 141.329 109.311 141.209 109.311C141.089 109.311 140.991 109.408 140.991 109.528C140.991 109.648 141.089 109.745 141.209 109.745Z" fill="black"/>
<path opacity="0.1" d="M136.137 114.944C136.257 114.944 136.354 114.847 136.354 114.727C136.354 114.607 136.257 114.51 136.137 114.51C136.017 114.51 135.92 114.607 135.92 114.727C135.92 114.847 136.017 114.944 136.137 114.944Z" fill="black"/>
<path opacity="0.1" d="M140.756 111.43C140.876 111.43 140.973 111.332 140.973 111.212C140.973 111.092 140.876 110.995 140.756 110.995C140.636 110.995 140.539 111.092 140.539 111.212C140.539 111.332 140.636 111.43 140.756 111.43Z" fill="black"/>
<path opacity="0.1" d="M138.51 113.677C138.63 113.677 138.727 113.58 138.727 113.46C138.727 113.339 138.63 113.242 138.51 113.242C138.39 113.242 138.293 113.339 138.293 113.46C138.293 113.58 138.39 113.677 138.51 113.677Z" fill="black"/>
<path opacity="0.1" d="M135.666 109.981C135.786 109.981 135.884 109.883 135.884 109.763C135.884 109.643 135.786 109.546 135.666 109.546C135.546 109.546 135.449 109.643 135.449 109.763C135.449 109.883 135.546 109.981 135.666 109.981Z" fill="black"/>
<path opacity="0.1" d="M140.611 110.398C140.731 110.398 140.829 110.3 140.829 110.18C140.829 110.06 140.731 109.963 140.611 109.963C140.491 109.963 140.394 110.06 140.394 110.18C140.394 110.3 140.491 110.398 140.611 110.398Z" fill="black"/>
<path opacity="0.1" d="M139.868 112.082C139.988 112.082 140.086 111.985 140.086 111.865C140.086 111.745 139.988 111.647 139.868 111.647C139.748 111.647 139.651 111.745 139.651 111.865C139.651 111.985 139.748 112.082 139.868 112.082Z" fill="black"/>
<path opacity="0.1" d="M137.586 114.781C137.706 114.781 137.804 114.684 137.804 114.564C137.804 114.444 137.706 114.347 137.586 114.347C137.466 114.347 137.369 114.444 137.369 114.564C137.369 114.684 137.466 114.781 137.586 114.781Z" fill="black"/>
<path opacity="0.1" d="M137.116 113.713C137.236 113.713 137.333 113.616 137.333 113.496C137.333 113.376 137.236 113.278 137.116 113.278C136.996 113.278 136.898 113.376 136.898 113.496C136.898 113.616 136.996 113.713 137.116 113.713Z" fill="black"/>
<path opacity="0.1" d="M135.993 111.303C136.113 111.303 136.21 111.206 136.21 111.086C136.21 110.965 136.113 110.868 135.993 110.868C135.873 110.868 135.775 110.965 135.775 111.086C135.775 111.206 135.873 111.303 135.993 111.303Z" fill="black"/>
<path opacity="0.1" d="M139.942 122.244H133.33V122.88H139.942V122.244Z" fill="black"/>
<path d="M140.919 116.593H132.279V122.66H140.919V116.593Z" fill="#D4DFEC"/>
<path opacity="0.1" d="M137.876 115.76C137.996 115.76 138.094 115.663 138.094 115.543C138.094 115.423 137.996 115.325 137.876 115.325C137.756 115.325 137.659 115.423 137.659 115.543C137.659 115.663 137.756 115.76 137.876 115.76Z" fill="black"/>
<path opacity="0.1" d="M136.572 116.031C136.692 116.031 136.789 115.934 136.789 115.814C136.789 115.694 136.692 115.597 136.572 115.597C136.452 115.597 136.354 115.694 136.354 115.814C136.354 115.934 136.452 116.031 136.572 116.031Z" fill="black"/>
</g>
<defs>
<linearGradient id="paint0_linear" x1="37.7291" y1="97.7744" x2="37.7291" y2="16.3775" gradientUnits="userSpaceOnUse">
<stop stop-color="#808080" stop-opacity="0.25"/>
<stop offset="0.54" stop-color="#808080" stop-opacity="0.12"/>
<stop offset="1" stop-color="#808080" stop-opacity="0.1"/>
</linearGradient>
<clipPath id="clip0">
<rect width="150.399" height="125" fill="white"/>
</clipPath>
</defs>
</svg>
