<svg width="150" height="122" viewBox="0 0 150 122" fill="none" xmlns="http://www.w3.org/2000/svg">
<g clip-path="url(#clip0)">
<path d="M45.8702 38.7285C45.4343 55.1761 67.2805 71.9663 94.5497 71.9663C121.819 71.9663 165.245 39.5404 144.62 38.7285C104.879 37.164 91.2604 20.6461 95.2453 8.93679C102.382 -12.0336 46.7285 6.34296 45.8702 38.7285Z" fill="#3F3D56"/>
<path d="M82.1426 25.7015L81.8101 25.4891L82.0217 25.1554L81.9309 25.0977L81.7195 25.4313L81.387 25.2189L81.3293 25.3099L81.6617 25.5222L81.4501 25.8559L81.5409 25.9139L81.7523 25.5802L82.0848 25.7924L82.1426 25.7015Z" fill="#7F52DD"/>
<path d="M106.867 49.8616L106.534 49.6493L106.746 49.3156L106.655 49.2578L106.443 49.5915L106.111 49.3791L106.053 49.47L106.386 49.6824L106.174 50.0161L106.265 50.074L106.476 49.7404L106.809 49.9526L106.867 49.8616Z" fill="#7F52DD"/>
<path d="M66.8529 46.9232L66.5204 46.7108L66.732 46.3771L66.6413 46.3193L66.4298 46.653L66.0973 46.4406L66.0396 46.5315L66.3721 46.7439L66.1604 47.0776L66.2512 47.1356L66.4627 46.8019L66.7951 47.0141L66.8529 46.9232Z" fill="#7F52DD"/>
<path d="M96.7816 62.5941L96.4491 62.3817L96.6607 62.048L96.57 61.9902L96.3585 62.3239L96.026 62.1115L95.9683 62.2024L96.3008 62.4148L96.0891 62.7485L96.1799 62.8064L96.3914 62.4728L96.7238 62.685L96.7816 62.5941Z" fill="#7F52DD"/>
<path d="M68.9675 56.555L68.635 56.3426L68.8466 56.009L68.7558 55.9512L68.5444 56.2848L68.2119 56.0725L68.1542 56.1634L68.4866 56.3758L68.275 56.7094L68.3658 56.7674L68.5772 56.4337L68.9097 56.6459L68.9675 56.555Z" fill="#7F52DD"/>
<path d="M135.982 48.556L135.65 48.3436L135.861 48.0099L135.771 47.9521L135.559 48.2858L135.227 48.0734L135.169 48.1644L135.501 48.3767L135.29 48.7104L135.381 48.7684L135.592 48.4347L135.924 48.6469L135.982 48.556Z" fill="#7F52DD"/>
<path d="M62.1359 28.8031L61.8034 28.5907L62.015 28.257L61.9243 28.1992L61.7128 28.5329L61.3803 28.3205L61.3226 28.4114L61.6551 28.6238L61.4435 28.9575L61.5342 29.0154L61.7457 28.6818L62.0781 28.894L62.1359 28.8031Z" fill="#7F52DD"/>
<path d="M89.95 32.4732L89.4845 32.1761L89.7807 31.7089L89.6538 31.6279L89.3576 32.095L88.8923 31.7977L88.8114 31.9252L89.277 32.2223L88.9808 32.6895L89.1076 32.7706L89.4038 32.3034L89.8692 32.6007L89.95 32.4732Z" fill="white"/>
<path d="M73.1962 38.6474C73.4657 38.6474 73.6842 38.4282 73.6842 38.1577C73.6842 37.8872 73.4657 37.668 73.1962 37.668C72.9267 37.668 72.7083 37.8872 72.7083 38.1577C72.7083 38.4282 72.9267 38.6474 73.1962 38.6474Z" fill="#7F52DD"/>
<path d="M54.1656 38.6474C54.4351 38.6474 54.6536 38.4282 54.6536 38.1577C54.6536 37.8872 54.4351 37.668 54.1656 37.668C53.8961 37.668 53.6776 37.8872 53.6776 38.1577C53.6776 38.4282 53.8961 38.6474 54.1656 38.6474Z" fill="#7F52DD"/>
<path d="M87.3476 20.6904C87.6171 20.6904 87.8356 20.4711 87.8356 20.2007C87.8356 19.9302 87.6171 19.7109 87.3476 19.7109C87.0781 19.7109 86.8596 19.9302 86.8596 20.2007C86.8596 20.4711 87.0781 20.6904 87.3476 20.6904Z" fill="#7F52DD"/>
<path d="M82.7931 50.5634C83.0625 50.5634 83.281 50.3442 83.281 50.0737C83.281 49.8032 83.0625 49.584 82.7931 49.584C82.5236 49.584 82.3051 49.8032 82.3051 50.0737C82.3051 50.3442 82.5236 50.5634 82.7931 50.5634Z" fill="#7F52DD"/>
<path d="M82.4679 40.1159C82.6476 40.1159 82.7932 39.9697 82.7932 39.7894C82.7932 39.6091 82.6476 39.4629 82.4679 39.4629C82.2882 39.4629 82.1426 39.6091 82.1426 39.7894C82.1426 39.9697 82.2882 40.1159 82.4679 40.1159Z" fill="#7F52DD"/>
<path d="M115.812 54.4811C115.992 54.4811 116.138 54.3349 116.138 54.1546C116.138 53.9743 115.992 53.8281 115.812 53.8281C115.633 53.8281 115.487 53.9743 115.487 54.1546C115.487 54.3349 115.633 54.4811 115.812 54.4811Z" fill="#FF6584"/>
<path d="M66.0395 36.6881C66.2192 36.6881 66.3648 36.542 66.3648 36.3616C66.3648 36.1813 66.2192 36.0352 66.0395 36.0352C65.8598 36.0352 65.7142 36.1813 65.7142 36.3616C65.7142 36.542 65.8598 36.6881 66.0395 36.6881Z" fill="#FF6584"/>
<path d="M86.3716 10.2428C86.5512 10.2428 86.6969 10.0966 86.6969 9.91633C86.6969 9.73602 86.5512 9.58984 86.3716 9.58984C86.1919 9.58984 86.0462 9.73602 86.0462 9.91633C86.0462 10.0966 86.1919 10.2428 86.3716 10.2428Z" fill="#FF6584"/>
<path d="M73.0336 25.4245C73.2132 25.4245 73.3589 25.2783 73.3589 25.098C73.3589 24.9177 73.2132 24.7715 73.0336 24.7715C72.8539 24.7715 72.7083 24.9177 72.7083 25.098C72.7083 25.2783 72.8539 25.4245 73.0336 25.4245Z" fill="#7F52DD"/>
<path d="M77.0999 14.487C77.2796 14.487 77.4252 14.3408 77.4252 14.1605C77.4252 13.9802 77.2796 13.834 77.0999 13.834C76.9203 13.834 76.7746 13.9802 76.7746 14.1605C76.7746 14.3408 76.9203 14.487 77.0999 14.487Z" fill="white"/>
<path d="M125.735 44.0341C126.004 44.0341 126.223 43.8149 126.223 43.5444C126.223 43.2739 126.004 43.0547 125.735 43.0547C125.465 43.0547 125.247 43.2739 125.247 43.5444C125.247 43.8149 125.465 44.0341 125.735 44.0341Z" fill="#7F52DD"/>
<path d="M93.3659 45.8291C93.6354 45.8291 93.8538 45.6098 93.8538 45.3393C93.8538 45.0689 93.6354 44.8496 93.3659 44.8496C93.0964 44.8496 92.8779 45.0689 92.8779 45.3393C92.8779 45.6098 93.0964 45.8291 93.3659 45.8291Z" fill="#7F52DD"/>
<path d="M85.0704 58.5627C85.9688 58.5627 86.697 57.8318 86.697 56.9303C86.697 56.0287 85.9688 55.2979 85.0704 55.2979C84.1721 55.2979 83.4438 56.0287 83.4438 56.9303C83.4438 57.8318 84.1721 58.5627 85.0704 58.5627Z" fill="#7F52DD"/>
<path d="M104.752 39.6259C105.021 39.6259 105.24 39.4067 105.24 39.1362C105.24 38.8657 105.021 38.6465 104.752 38.6465C104.482 38.6465 104.264 38.8657 104.264 39.1362C104.264 39.4067 104.482 39.6259 104.752 39.6259Z" fill="white"/>
<path d="M14.9529 117.635C14.9529 117.635 14.0425 121.456 14.8702 121.622C15.6978 121.788 19.7531 121.734 20.7463 121.9C21.7394 122.066 23.8085 121.788 23.8085 121.04C23.8085 120.293 21.6567 119.794 21.6567 119.794C21.6567 119.794 18.5945 118.133 18.5117 118.05C18.4289 117.967 14.9529 117.635 14.9529 117.635Z" fill="#2F2E41"/>
<path d="M15.9275 90.353C15.9275 90.353 16.2243 93.7294 16.2243 94.0273C16.2243 94.3253 14.4432 110.016 14.839 113.194C15.2348 116.372 14.8024 117.386 14.8024 117.982C14.8024 118.578 18.0055 118.358 18.0055 118.358L21.4688 96.4107L19.6877 89.8564L15.9275 90.353Z" fill="#2F2E41"/>
<path d="M16.1115 118.472C16.1115 118.472 15.2839 121.462 16.1115 121.628C16.9391 121.794 20.9945 121.438 21.9877 121.604C22.9808 121.77 25.0499 121.794 25.0499 121.046C25.0499 120.299 22.898 119.8 22.898 119.8C22.898 119.8 19.8358 118.139 19.7531 118.056C19.6703 117.973 16.1115 118.472 16.1115 118.472Z" fill="#2F2E41"/>
<path d="M15.0369 86.3809C15.0369 86.3809 13.8494 89.2608 15.2348 90.7504C16.6201 92.24 18.2033 95.2192 18.2033 95.4178C18.2033 95.6165 15.4327 115.379 15.8285 116.67C16.2243 117.961 16.1253 118.755 16.0264 118.954C15.9274 119.152 17.0159 120.245 18.2033 120.245C19.3907 120.245 21.1719 119.351 21.3698 118.557C21.5677 117.762 21.0729 110.91 21.1719 109.619C21.2708 108.328 25.2289 87.6719 24.7341 87.1753C24.2394 86.6788 15.0369 86.3809 15.0369 86.3809Z" fill="#2F2E41"/>
<path d="M22.5572 63.54C24.4153 63.54 25.9216 62.0283 25.9216 60.1636C25.9216 58.2988 24.4153 56.7871 22.5572 56.7871C20.6991 56.7871 19.1928 58.2988 19.1928 60.1636C19.1928 62.0283 20.6991 63.54 22.5572 63.54Z" fill="#9F616A"/>
<path d="M20.4795 61.8518C20.4795 61.8518 21.1722 65.5262 20.6774 65.9234C20.1827 66.3207 24.4376 66.9165 24.4376 66.9165C24.4376 66.9165 24.9324 62.0504 25.0313 61.5539C25.1303 61.0573 20.4795 61.8518 20.4795 61.8518Z" fill="#9F616A"/>
<path d="M25.0314 66.619C25.0314 66.619 25.6697 63.1199 20.821 64.113C20.821 64.113 16.394 67.7559 16.592 71.1324C16.7899 74.5089 15.0373 84.2957 15.2352 84.9909C15.4331 85.686 14.0478 86.5798 14.6415 86.8777C15.2352 87.1757 25.922 88.9632 26.2188 86.8777C26.5157 84.7923 26.1199 79.529 26.3178 78.5359C26.5157 77.5428 26.3178 69.201 25.7241 68.2079C25.1304 67.2148 25.0314 66.619 25.0314 66.619Z" fill="#7F52DD"/>
<path d="M22.953 90.85C22.953 90.85 21.4687 96.5105 23.3488 96.5105C25.2289 96.5105 25.1299 90.6514 25.1299 90.6514L22.953 90.85Z" fill="#9F616A"/>
<path d="M23.9279 60.7275C23.885 61.0122 23.4468 61.1305 22.8037 61.075L22.8027 61.0749C22.5304 61.0493 22.2603 61.0029 21.995 60.9362C21.5936 60.8371 21.3674 61.1955 21.2216 61.6916C20.9822 62.51 20.9641 63.7054 20.7535 63.8613C19.2831 64.6769 14.9384 59.2083 17.1647 57.7924C17.9577 57.2881 20.6269 55.4053 22.4711 55.7857C24.3152 56.1661 23.5686 58.4633 23.5686 58.4633C23.5686 58.4633 23.6363 58.7648 23.713 59.1521C23.8222 59.6401 23.8961 60.1353 23.934 60.634C23.934 60.6652 23.932 60.6965 23.9279 60.7275Z" fill="#2F2E41"/>
<path d="M24.1404 67.6114C24.1404 67.6114 20.776 67.4128 20.4792 72.3782C20.1823 77.3436 20.2813 82.011 20.2813 82.1104C20.2813 82.2097 21.6666 91.6439 22.953 91.6439C24.2393 91.6439 25.2289 91.4453 25.5257 90.9487C25.8226 90.4522 24.7341 83.302 24.7341 83.302C24.7341 83.302 24.2393 75.7547 25.0309 73.3713C25.8226 70.9879 25.9215 67.9094 24.1404 67.6114Z" fill="#7F52DD"/>
<path opacity="0.1" d="M20.3328 73.7443L19.3568 84.355L22.61 91.7009L20.4954 84.1918L20.3328 73.5811" fill="black"/>
<path opacity="0.1" d="M25.0496 74.8867L25.2982 87.3958L24.399 80.6002L25.0496 74.8867Z" fill="black"/>
<path d="M41.9229 122H0V121.656H41.9851L41.9229 122Z" fill="#3F3D56"/>
</g>
<defs>
<clipPath id="clip0">
<rect width="150" height="122" fill="white"/>
</clipPath>
</defs>
</svg>
