<svg width="165" height="120" viewBox="0 0 165 120" fill="none" xmlns="http://www.w3.org/2000/svg">
<g clip-path="url(#clip0)">
<path d="M24.8395 84.4199C24.7046 84.2158 24.5266 84.0436 24.318 83.9157C24.1094 83.7877 23.8753 83.7071 23.6321 83.6794C23.389 83.6517 23.1428 83.6777 22.9107 83.7555C22.6787 83.8333 22.4666 83.961 22.2893 84.1296L17.0034 81.4012L17.332 84.4749L22.3012 86.5946C22.6042 86.8737 22.9991 87.032 23.4111 87.0394C23.823 87.0468 24.2233 86.9028 24.5362 86.6347C24.8491 86.3667 25.0528 85.9932 25.1087 85.585C25.1646 85.1768 25.0688 84.7622 24.8395 84.4199H24.8395Z" fill="#A0616A"/>
<path d="M20.1418 85.6576C20.0462 85.7014 19.9424 85.7247 19.8372 85.7258C19.7319 85.7269 19.6277 85.7059 19.5311 85.6641L14.5103 83.4861C12.7936 82.7417 11.4057 81.399 10.6048 79.7078L7.96526 74.1362C7.77046 73.8859 7.62691 73.5997 7.5428 73.2939C7.45869 72.9881 7.43568 72.6688 7.47509 72.3541C7.51451 72.0394 7.61556 71.7356 7.77248 71.46C7.92939 71.1844 8.1391 70.9424 8.3896 70.7479C8.6401 70.5534 8.92648 70.4102 9.23237 70.3265C9.53826 70.2427 9.85765 70.2201 10.1723 70.2599C10.4869 70.2997 10.7906 70.4011 11.066 70.5584C11.3414 70.7157 11.5831 70.9257 11.7773 71.1764L16.417 79.7847L20.7012 83.021C20.8238 83.114 20.9149 83.2425 20.9621 83.389C21.0094 83.5355 21.0105 83.693 20.9653 83.8402L20.5448 85.1984C20.4996 85.344 20.4111 85.4724 20.2911 85.5665C20.2451 85.6026 20.195 85.6332 20.1418 85.6576Z" fill="#CCCCCC"/>
<path d="M7.84966 67.5837C10.1076 67.5837 11.9381 65.7533 11.9381 63.4953C11.9381 61.2373 10.1076 59.4069 7.84966 59.4069C5.59168 59.4069 3.76123 61.2373 3.76123 63.4953C3.76123 65.7533 5.59168 67.5837 7.84966 67.5837Z" fill="#A0616A"/>
<path d="M9.50523 117.128L11.5459 117.128L12.5168 109.256L9.50473 109.256L9.50523 117.128Z" fill="#A0616A"/>
<path d="M15.4817 119.022L9.06786 119.023L9.06775 116.545L13.0035 116.544C13.6607 116.544 14.291 116.805 14.7558 117.27C15.2205 117.735 15.4817 118.365 15.4817 119.022L15.4817 119.022Z" fill="#2F2E41"/>
<path d="M2.84684 117.128L4.88748 117.128L5.85844 109.256L2.84634 109.256L2.84684 117.128Z" fill="#A0616A"/>
<path d="M8.82333 119.022L2.40951 119.023L2.40939 116.545L6.34515 116.544C7.00237 116.544 7.63269 116.805 8.09744 117.27C8.56219 117.735 8.8233 118.365 8.82333 119.022L8.82333 119.022Z" fill="#2F2E41"/>
<path d="M2.13498 114.875C2.06466 114.795 2.01232 114.7 1.98146 114.598C1.95059 114.496 1.94193 114.388 1.95603 114.283L5.52903 87.485L14.4061 88.9926L15.3535 88.4241L12.9036 113.85C12.8833 114.022 12.8043 114.181 12.6801 114.301C12.5559 114.421 12.394 114.495 12.2218 114.51L9.53384 114.734C9.42697 114.743 9.31943 114.729 9.2185 114.692C9.11756 114.656 9.02558 114.599 8.94878 114.524C8.87198 114.449 8.81214 114.358 8.77332 114.258C8.7345 114.159 8.7176 114.051 8.72377 113.944L9.41968 101.836C9.42091 101.815 9.41446 101.795 9.40159 101.779C9.38871 101.763 9.37033 101.752 9.34999 101.749C9.32965 101.745 9.3088 101.75 9.29148 101.761C9.27416 101.772 9.2616 101.789 9.25623 101.809L5.81332 114.577C5.77026 114.735 5.67614 114.876 5.54544 114.976C5.41475 115.076 5.25474 115.13 5.09009 115.131H2.69857C2.59183 115.131 2.48633 115.108 2.38912 115.064C2.29192 115.02 2.20527 114.955 2.13498 114.875Z" fill="#2F2E41"/>
<path d="M8.28184 89.3602C8.17996 89.268 8.04897 89.2143 7.91164 89.2086C7.77431 89.2028 7.63931 89.2454 7.53009 89.3288L5.75532 90.7093C5.65874 90.7846 5.54514 90.8351 5.4245 90.8563C5.30386 90.8775 5.17987 90.8688 5.06339 90.8308C4.94692 90.7929 4.84153 90.727 4.75647 90.6389C4.67142 90.5508 4.60929 90.4431 4.57555 90.3253C3.705 87.2765 1.73268 79.6023 2.21857 74.2009C2.49399 71.1393 5.1378 68.8124 8.11209 69.0077C10.1455 69.1432 11.4832 70.3163 12.0882 72.4941C13.5734 77.8411 15.2057 87.6493 15.5178 89.5613C15.5424 89.7096 15.5216 89.862 15.4582 89.9983C15.3947 90.1346 15.2915 90.2485 15.1621 90.3252C14.3224 90.8293 13.363 91.0993 12.3836 91.1071C11.1986 91.1071 9.77763 90.6945 8.28184 89.3602Z" fill="#CCCCCC"/>
<path d="M8.95167 91.2622C8.97154 91.0183 8.9377 90.773 8.85252 90.5436C8.76734 90.3142 8.63289 90.1062 8.45865 89.9344C8.28442 89.7626 8.07462 89.6311 7.84405 89.5491C7.61348 89.4671 7.36774 89.4367 7.12414 89.46L4.64857 84.0511L3.01035 86.6724L5.61234 91.4069C5.67856 91.8135 5.89165 92.1817 6.21122 92.4418C6.53079 92.7018 6.93465 92.8356 7.34626 92.8178C7.75787 92.7999 8.14865 92.6317 8.44454 92.345C8.74042 92.0583 8.92087 91.673 8.95167 91.2622Z" fill="#A0616A"/>
<path d="M4.49185 89.3371C4.38952 89.3126 4.29348 89.2668 4.20999 89.2028C4.12651 89.1387 4.05743 89.0578 4.00726 88.9653L1.40063 84.1531C0.509205 82.5078 0.24571 80.5949 0.659164 78.7699L2.02055 72.7569C2.02179 72.4398 2.0855 72.126 2.20806 71.8336C2.33062 71.5411 2.50962 71.2757 2.73482 71.0525C2.96002 70.8292 3.22701 70.6526 3.52052 70.5326C3.81404 70.4126 4.12832 70.3516 4.44541 70.3532C4.7625 70.3547 5.07618 70.4188 5.36851 70.5416C5.66083 70.6645 5.92608 70.8437 6.14909 71.0691C6.3721 71.2946 6.5485 71.5617 6.66819 71.8554C6.78789 72.149 6.84854 72.4633 6.84668 72.7804L5.18516 82.4173L6.55907 87.6076C6.59813 87.7565 6.59052 87.9138 6.53727 88.0582C6.48403 88.2027 6.38771 88.3273 6.26134 88.4152L5.09229 89.2244C4.96688 89.3111 4.81801 89.3576 4.66553 89.3576C4.60703 89.3576 4.54874 89.3507 4.49185 89.3371Z" fill="#CCCCCC"/>
<path opacity="0.2" d="M6.51483 76.8446L5.01669 83.1701L7.18067 88.4969L5.68253 83.3366L6.51483 76.8446Z" fill="black"/>
<path d="M5.5166 66.8571C5.15292 66.8639 4.79151 66.7985 4.45325 66.6648C4.30442 66.6074 4.14992 66.5603 4.00136 66.5029C2.68937 65.996 1.82512 64.5987 1.79416 63.1926C1.76321 61.7864 2.49141 60.4216 3.57273 59.5222C4.65405 58.6227 6.05463 58.161 7.45708 58.0542C8.96774 57.9391 10.6688 58.3222 11.5129 59.5803C11.7376 59.9152 11.8948 60.3215 11.7616 60.7258C11.7217 60.8478 11.6505 60.9572 11.5551 61.0431C11.1781 61.3785 10.8023 61.1263 10.418 61.104C9.88975 61.0734 9.41531 61.5009 9.2448 62.0018C9.07428 62.5027 9.14934 63.0541 9.28702 63.565C9.39191 63.8724 9.45803 64.1917 9.48386 64.5155C9.49497 64.6778 9.46444 64.8403 9.39515 64.9876C9.32586 65.1348 9.22011 65.2619 9.08792 65.3569C8.75785 65.5564 8.32438 65.4409 7.99411 65.2417C7.66384 65.0425 7.37848 64.7656 7.02173 64.619C6.66498 64.4724 6.1857 64.5049 5.97805 64.8299C5.91206 64.9482 5.8674 65.0772 5.84611 65.2109C5.65996 66.059 5.70274 66.009 5.51659 66.8571L5.5166 66.8571Z" fill="#2F2E41"/>
<path d="M126.535 38.5316H25.4933C25.1084 38.5319 24.7394 38.685 24.4672 38.9571C24.1951 39.2293 24.042 39.5983 24.0417 39.9831V108.452C24.042 108.836 24.1951 109.205 24.4672 109.478C24.7394 109.75 25.1084 109.903 25.4933 109.903H126.535C126.744 109.903 126.952 109.858 127.142 109.77C127.333 109.682 127.502 109.553 127.638 109.394C127.65 109.381 127.66 109.368 127.67 109.354C127.756 109.248 127.827 109.129 127.878 109.003C127.951 108.828 127.988 108.641 127.988 108.452V65.8294H127.573V108.452C127.573 108.654 127.514 108.852 127.402 109.021C127.302 109.169 127.167 109.291 127.009 109.374C126.862 109.45 126.7 109.489 126.535 109.489H25.4933C25.2183 109.488 24.9547 109.379 24.7603 109.185C24.5658 108.99 24.4565 108.727 24.4561 108.452V39.9831C24.4565 39.7082 24.5658 39.4446 24.7603 39.2502C24.9547 39.0558 25.2183 38.9464 25.4933 38.9461H126.535C126.81 38.9461 127.074 39.0553 127.268 39.2497C127.463 39.4442 127.573 39.708 127.573 39.9831V49.1834H127.988V39.9831C127.987 39.598 127.834 39.2288 127.562 38.9567C127.289 38.6845 126.92 38.5316 126.535 38.5316Z" fill="white"/>
<path d="M127.779 44.3492H24.2483V44.7642H127.779V44.3492Z" fill="white"/>
<path d="M27.7754 42.8895C28.4629 42.8895 29.0202 42.3322 29.0202 41.6446C29.0202 40.9571 28.4629 40.3998 27.7754 40.3998C27.0879 40.3998 26.5305 40.9571 26.5305 41.6446C26.5305 42.3322 27.0879 42.8895 27.7754 42.8895Z" fill="#CCCCCC"/>
<path d="M31.3545 42.8895C32.042 42.8895 32.5993 42.3322 32.5993 41.6446C32.5993 40.9571 32.042 40.3998 31.3545 40.3998C30.667 40.3998 30.1096 40.9571 30.1096 41.6446C30.1096 42.3322 30.667 42.8895 31.3545 42.8895Z" fill="#CCCCCC"/>
<path d="M34.9333 42.8895C35.6209 42.8895 36.1782 42.3322 36.1782 41.6446C36.1782 40.9571 35.6209 40.3998 34.9333 40.3998C34.2458 40.3998 33.6885 40.9571 33.6885 41.6446C33.6885 42.3322 34.2458 42.8895 34.9333 42.8895Z" fill="#CCCCCC"/>
<path d="M59.9377 101.51C59.5092 101.508 59.0879 101.4 58.712 101.194C58.3362 100.988 58.0176 100.692 57.7851 100.332C57.5526 99.9716 57.4136 99.5594 57.3806 99.1321C57.3476 98.7048 57.4217 98.2761 57.5962 97.8847L60.5619 91.2679C58.2262 89.202 56.3571 86.6625 55.0787 83.8184C53.8003 80.9742 53.142 77.8906 53.1476 74.7723C53.1476 62.59 63.0587 52.6786 75.2413 52.6786C87.4239 52.6786 97.3351 62.59 97.3351 74.7723C97.3351 86.9547 87.4239 96.8661 75.2413 96.8661C73.1102 96.864 70.9907 96.5518 68.9494 95.9393L61.3805 101.063C60.9553 101.354 60.4526 101.509 59.9377 101.51ZM75.2413 55.7614C71.2985 55.7591 67.4527 56.9835 64.2369 59.2648C61.0211 61.5461 58.5947 64.7714 57.294 68.4934C55.9933 72.2155 55.8828 76.25 56.9777 80.0377C58.0727 83.8254 60.3189 87.1787 63.4049 89.6326L64.3392 90.3778L61.1482 97.4978L68.471 92.5404L69.194 92.7832C71.8061 93.6607 74.5777 93.9598 77.3168 93.6596C80.0559 93.3595 82.6969 92.4673 85.057 91.045C87.417 89.6227 89.4395 87.7042 90.9843 85.4224C92.5292 83.1407 93.5594 80.5504 94.0036 77.8309C94.4478 75.1115 94.2954 72.328 93.5569 69.6733C92.8184 67.0186 91.5114 64.5562 89.7267 62.4569C87.9419 60.3575 85.722 58.6713 83.2207 57.5152C80.7195 56.3591 77.9968 55.7607 75.2413 55.7614Z" fill="white"/>
<path d="M75.2413 76.828C76.9439 76.828 78.3241 75.4477 78.3241 73.7451C78.3241 72.0425 76.9439 70.6622 75.2413 70.6622C73.5387 70.6622 72.1584 72.0425 72.1584 73.7451C72.1584 75.4477 73.5387 76.828 75.2413 76.828Z" fill="white"/>
<path d="M66.5061 76.828C68.2087 76.828 69.589 75.4477 69.589 73.7451C69.589 72.0425 68.2087 70.6622 66.5061 70.6622C64.8035 70.6622 63.4233 72.0425 63.4233 73.7451C63.4233 75.4477 64.8035 76.828 66.5061 76.828Z" fill="white"/>
<path d="M83.9756 76.828C85.6782 76.828 87.0585 75.4477 87.0585 73.7451C87.0585 72.0425 85.6782 70.6622 83.9756 70.6622C82.273 70.6622 80.8928 72.0425 80.8928 73.7451C80.8928 75.4477 82.273 76.828 83.9756 76.828Z" fill="white"/>
<path d="M152.765 61.5438H123.468C123.114 61.5438 122.776 61.4035 122.526 61.1537C122.276 60.904 122.136 60.5653 122.136 60.2121C122.136 59.8589 122.276 59.5202 122.526 59.2704C122.776 59.0207 123.114 58.8804 123.468 58.8804H152.765C153.118 58.8804 153.457 59.0207 153.706 59.2704C153.956 59.5202 154.096 59.8589 154.096 60.2121C154.096 60.5653 153.956 60.904 153.706 61.1537C153.457 61.4035 153.118 61.5438 152.765 61.5438Z" fill="#CCCCCC"/>
<path d="M133.622 55.8841H123.468C123.114 55.8841 122.776 55.7438 122.526 55.494C122.276 55.2443 122.136 54.9056 122.136 54.5524C122.136 54.1992 122.276 53.8605 122.526 53.6107C122.776 53.361 123.114 53.2207 123.468 53.2207H133.622C133.975 53.2207 134.314 53.361 134.563 53.6107C134.813 53.8605 134.953 54.1992 134.953 54.5524C134.953 54.9056 134.813 55.2443 134.563 55.494C134.314 55.7438 133.975 55.8841 133.622 55.8841Z" fill="#CCCCCC"/>
<path d="M110.199 63.1655C113.324 63.1655 115.858 60.6316 115.858 57.5058C115.858 54.3801 113.324 51.8462 110.199 51.8462C107.073 51.8462 104.539 54.3801 104.539 57.5058C104.539 60.6316 107.073 63.1655 110.199 63.1655Z" fill="#EDE04B"/>
<path d="M155.701 48.85H102.934C102.183 48.851 101.464 49.1495 100.934 49.68C100.403 50.2104 100.105 50.9296 100.104 51.6798V63.332C100.105 64.0822 100.403 64.8014 100.934 65.3318C101.464 65.8623 102.183 66.1608 102.934 66.1618H155.701C156.452 66.1608 157.171 65.8623 157.701 65.3318C158.232 64.8014 158.53 64.0822 158.531 63.332V51.6798C158.53 50.9296 158.232 50.2104 157.701 49.68C157.171 49.1495 156.452 48.851 155.701 48.85ZM158.198 63.332C158.198 63.994 157.934 64.6286 157.466 65.0967C156.998 65.5648 156.363 65.8281 155.701 65.8289H102.934C102.272 65.8281 101.637 65.5648 101.169 65.0967C100.701 64.6286 100.438 63.994 100.437 63.332V51.6798C100.438 51.0178 100.701 50.3832 101.169 49.9151C101.637 49.447 102.272 49.1837 102.934 49.1829H155.701C156.363 49.1837 156.998 49.447 157.466 49.9151C157.934 50.3832 158.198 51.0178 158.198 51.6798V63.332Z" fill="white"/>
<path d="M158.198 53.5108C160.313 53.5108 162.027 51.7967 162.027 49.6822C162.027 47.5678 160.313 45.8536 158.198 45.8536C156.084 45.8536 154.37 47.5678 154.37 49.6822C154.37 51.7967 156.084 53.5108 158.198 53.5108Z" fill="#EDE04B"/>
<path d="M158.081 51.8359C158.065 51.8204 158.053 51.8021 158.045 51.7819C158.036 51.7617 158.032 51.74 158.032 51.7181V47.4808C158.032 47.4366 158.05 47.3943 158.081 47.3631C158.112 47.3319 158.154 47.3143 158.199 47.3143C158.243 47.3143 158.285 47.3319 158.316 47.3631C158.348 47.3943 158.365 47.4366 158.365 47.4808V51.7181C158.365 51.7511 158.355 51.7832 158.337 51.8106C158.319 51.838 158.293 51.8593 158.262 51.8719C158.232 51.8845 158.198 51.8878 158.166 51.8814C158.134 51.875 158.104 51.8591 158.081 51.8359Z" fill="white"/>
<path d="M155.962 49.7168C155.939 49.6935 155.923 49.6638 155.917 49.6315C155.91 49.5992 155.914 49.5658 155.926 49.5354C155.939 49.505 155.96 49.479 155.988 49.4607C156.015 49.4424 156.047 49.4326 156.08 49.4326H160.317C160.362 49.4326 160.404 49.4502 160.435 49.4814C160.466 49.5126 160.484 49.5549 160.484 49.5991C160.484 49.6432 160.466 49.6855 160.435 49.7167C160.404 49.748 160.362 49.7655 160.317 49.7655H156.08C156.058 49.7655 156.037 49.7612 156.016 49.7529C155.996 49.7445 155.978 49.7322 155.962 49.7168Z" fill="white"/>
<path d="M162.782 100.571H154.79C154.79 100.801 146.554 100.987 146.554 100.987C146.424 101.084 146.307 101.196 146.202 101.32C145.89 101.693 145.719 102.165 145.72 102.652V102.984C145.72 103.536 145.939 104.065 146.329 104.456C146.72 104.846 147.249 105.065 147.8 105.065H162.782C163.334 105.065 163.863 104.845 164.253 104.455C164.643 104.065 164.862 103.536 164.863 102.984V102.652C164.862 102.1 164.642 101.571 164.252 101.181C163.862 100.791 163.334 100.572 162.782 100.571Z" fill="#3F3D56"/>
<path d="M156.456 104.983H154.292V118.965H156.456V104.983Z" fill="#3F3D56"/>
<path d="M162.615 118.889C162.615 119.123 159.336 118.98 155.291 118.98C151.245 118.98 147.966 119.123 147.966 118.889C147.966 118.655 151.245 116.801 155.291 116.801C159.336 116.801 162.615 118.655 162.615 118.889Z" fill="#3F3D56"/>
<path d="M156.068 81.8326C158.642 81.8326 160.729 79.7458 160.729 77.1717C160.729 74.5976 158.642 72.5109 156.068 72.5109C153.494 72.5109 151.407 74.5976 151.407 77.1717C151.407 79.7458 153.494 81.8326 156.068 81.8326Z" fill="#2F2E41"/>
<path d="M144.469 117.05L142.428 117.05L141.457 109.179L144.469 109.179L144.469 117.05Z" fill="#FFB8B8"/>
<path d="M140.97 116.466H144.906V118.944H138.492C138.492 118.287 138.753 117.657 139.218 117.192C139.682 116.727 140.313 116.466 140.97 116.466Z" fill="#2F2E41"/>
<path d="M141.283 115.911L139.336 115.3L140.766 107.499L143.64 108.401L141.283 115.911Z" fill="#FFB8B8"/>
<path d="M138.119 114.307L141.874 115.485L141.132 117.849L135.013 115.929C135.21 115.302 135.648 114.779 136.23 114.474C136.813 114.17 137.492 114.11 138.119 114.307Z" fill="#2F2E41"/>
<path d="M157.316 99.2062C157.269 98.8095 157.184 98.4183 157.063 98.0376L156.682 97.5582L155.69 96.3131L155.646 96.3148C155.573 96.3181 155.268 96.3347 154.797 96.3714H154.792C154.501 96.3947 154.145 96.4246 153.74 96.4629C153.634 96.4746 153.522 96.4846 153.407 96.4962V98.2341H155.488C155.589 98.2342 155.687 98.2711 155.763 98.3378C155.839 98.4046 155.888 98.4967 155.901 98.5969C155.903 98.6152 155.904 98.6319 155.904 98.6502C155.904 98.7606 155.86 98.8664 155.782 98.9444C155.704 99.0225 155.598 99.0663 155.488 99.0664H143.403C143.249 99.1686 143.101 99.2797 142.96 99.3993C142.535 99.7288 142.228 100.188 142.086 100.708C141.381 103.81 140.094 109.597 139.714 111.296C139.687 111.424 139.693 111.557 139.732 111.682C139.772 111.807 139.843 111.92 139.939 112.009C140.01 112.075 140.093 112.126 140.184 112.16L141.685 112.723C141.747 112.746 141.811 112.761 141.877 112.768C141.885 112.768 141.892 112.769 141.9 112.769C141.915 112.771 141.931 112.771 141.947 112.771C142.098 112.77 142.246 112.724 142.372 112.638C142.497 112.552 142.593 112.43 142.647 112.288L143.833 109.179L145.659 104.385L146.381 102.489C147.218 102.685 154.243 104.24 156.595 101.735C156.827 101.488 157.01 101.199 157.134 100.884C157.332 100.348 157.395 99.7719 157.316 99.2062Z" fill="#2F2E41"/>
<path d="M159.354 99.6588C159.317 99.5106 159.275 99.3575 159.227 99.2027L157.854 97.4781L157.811 97.4798C157.724 97.4848 157.313 97.5065 156.682 97.5581C155.966 97.618 154.966 97.7145 153.842 97.866C153.809 97.8693 153.774 97.8743 153.741 97.8793C153.631 97.8943 153.519 97.9093 153.408 97.9259V98.2339H155.488C155.59 98.234 155.687 98.2709 155.763 98.3377C155.839 98.4044 155.888 98.4965 155.901 98.5968C155.903 98.6151 155.905 98.6317 155.905 98.65C155.904 98.7604 155.861 98.8662 155.783 98.9442C155.705 99.0223 155.599 99.0661 155.488 99.0662H148.134C147.813 99.1711 147.503 99.2809 147.207 99.3991C145.652 100.015 144.489 100.822 144.251 101.873C144.171 102.226 144.083 102.613 143.989 103.026C143.643 104.561 143.222 106.44 142.841 108.148V108.15C142.762 108.503 142.684 108.846 142.609 109.179C142.291 110.61 142.022 111.824 141.879 112.461C141.875 112.48 141.872 112.496 141.869 112.515V112.518C141.852 112.647 141.868 112.778 141.915 112.899L141.917 112.901V112.902C141.963 113.018 142.037 113.121 142.133 113.2C142.198 113.253 142.27 113.296 142.348 113.325L143.85 113.888C143.933 113.919 144.022 113.935 144.111 113.936C144.236 113.936 144.359 113.905 144.469 113.845C144.626 113.759 144.748 113.62 144.812 113.453L148.044 104.971L148.545 103.654C149.383 103.85 156.407 105.403 158.759 102.9C159.224 102.397 159.489 101.742 159.505 101.057C159.521 100.586 159.47 100.115 159.354 99.6588Z" fill="#2F2E41"/>
<path d="M159.169 84.9736C159.142 84.942 159.114 84.9103 159.084 84.8804C158.641 84.4143 158.093 84.0598 157.486 83.846C156.88 83.6322 156.231 83.5651 155.593 83.6502C155.037 83.7233 154.486 83.8317 153.944 83.9748C153.243 84.1549 152.602 84.5147 152.083 85.0185C151.678 85.4105 151.36 85.8822 151.148 86.4037C150.935 86.9253 150.834 87.4852 150.849 88.0481C150.856 88.2761 150.857 88.5092 150.854 88.7456C150.854 88.8554 150.852 88.967 150.851 89.0785H152.492C152.563 89.0783 152.634 89.0867 152.704 89.1035C152.904 89.1513 153.082 89.2652 153.21 89.4267C153.338 89.5883 153.407 89.7881 153.408 89.994V97.7377C153.519 97.7694 153.631 97.801 153.741 97.8343C153.776 97.846 153.809 97.8559 153.842 97.8659C153.88 97.8776 153.919 97.8892 153.955 97.9009C154.293 98.0057 154.623 98.1167 154.946 98.2338H155.488C155.59 98.2339 155.687 98.2708 155.763 98.3376C155.839 98.4043 155.888 98.4964 155.901 98.5967C156.014 98.6416 156.124 98.6866 156.232 98.7315C156.617 98.8913 156.982 99.0511 157.316 99.2059C157.767 99.4123 158.168 99.6088 158.505 99.7802C158.61 99.8341 158.727 99.8626 158.846 99.8634C159.002 99.8629 159.153 99.8128 159.279 99.7203C159.305 99.7011 159.33 99.6805 159.354 99.6587C159.443 99.5752 159.51 99.4712 159.55 99.3557C159.589 99.2402 159.6 99.1168 159.582 98.9962C159.41 97.6886 159.36 96.3679 159.432 95.0511C159.478 93.9441 159.578 92.8088 159.708 91.7119C159.778 91.1176 159.856 90.535 159.938 89.974C160.016 89.438 160.099 88.9237 160.181 88.4376C160.288 87.8212 160.252 87.1886 160.077 86.5881C159.901 85.9877 159.591 85.4354 159.169 84.9736Z" fill="#EDE04B"/>
<path d="M152.346 85.1105C152.26 85.0738 152.172 85.0433 152.083 85.019C151.639 84.8995 151.167 84.9436 150.753 85.1431C150.34 85.3427 150.011 85.6844 149.829 86.1059L148.685 88.7459L148.542 89.0788H152.492C152.563 89.0786 152.634 89.087 152.704 89.1038L152.837 88.7958L153.343 87.6273C153.544 87.1613 153.552 86.6346 153.365 86.1627C153.178 85.6909 152.811 85.3125 152.346 85.1105Z" fill="#EDE04B"/>
<path d="M155.897 82.3503C158.155 82.3503 159.986 80.5199 159.986 78.2619C159.986 76.0039 158.155 74.1735 155.897 74.1735C153.639 74.1735 151.809 76.0039 151.809 78.2619C151.809 80.5199 153.639 82.3503 155.897 82.3503Z" fill="#FFB8B8"/>
<path d="M151.736 76.2539C153.672 77.436 155.855 78.1554 158.115 78.356L157.443 77.5502C157.932 77.7313 158.448 77.8336 158.969 77.8534C159.49 77.8453 160.036 77.6446 160.332 77.2156C160.464 77.0023 160.542 76.7602 160.561 76.5101C160.579 76.26 160.536 76.0092 160.436 75.7791C160.231 75.3201 159.912 74.9213 159.51 74.6205C158.796 74.0559 157.954 73.6767 157.058 73.5166C156.162 73.3565 155.24 73.4205 154.375 73.7029C153.782 73.8803 153.25 74.2212 152.842 74.6866C152.454 75.1647 151.708 75.5907 151.906 76.1733L151.736 76.2539Z" fill="#2F2E41"/>
<path d="M156.585 72.9539C155.296 71.6462 153.735 70.6371 152.014 69.9977C150.908 69.5883 149.706 69.3353 148.55 69.5678C147.395 69.8003 146.302 70.5996 145.98 71.7331C145.717 72.66 145.989 73.658 146.398 74.5306C146.807 75.4031 147.353 76.2122 147.684 77.1173C148.021 78.0409 148.123 79.0341 147.979 80.0068C147.835 80.9795 147.451 81.9009 146.861 82.6873C146.27 83.4738 145.493 84.1004 144.599 84.5103C143.706 84.9202 142.724 85.1004 141.743 85.0346C142.878 85.1868 143.924 85.7202 145.034 86.0042C146.143 86.2881 147.453 86.2689 148.277 85.474C149.15 84.633 149.167 83.2655 149.125 82.0545C149.062 80.2542 149 78.4539 148.937 76.6536C148.905 75.7355 148.878 74.788 149.209 73.9311C149.54 73.0742 150.327 72.3238 151.245 72.3316C151.942 72.3375 152.558 72.7593 153.116 73.1752C153.675 73.5912 154.266 74.035 154.959 74.0968C155.653 74.1587 156.444 73.6455 156.393 72.9512L156.585 72.9539Z" fill="#2F2E41"/>
<path d="M159.938 89.9739L157.604 90.0371L157.434 91.6768L157.396 92.0563L153.741 93.6976L153.408 93.8474V96.7654L153.741 96.6705L154.793 96.3709H154.798L159.432 95.0509L159.485 95.0359C159.86 94.9278 160.189 94.7017 160.425 94.3913C160.661 94.081 160.79 93.7028 160.793 93.3131L160.805 91.3771L160.815 89.9506L159.938 89.9739Z" fill="#FFB8B8"/>
<path d="M160.697 86.7313C160.666 86.2245 160.435 85.7508 160.054 85.4144C159.674 85.078 159.175 84.9066 158.669 84.9377C158.162 84.9688 157.688 85.2 157.352 85.5804C157.015 85.9608 156.844 86.4592 156.875 86.966L157.13 91.1209C157.136 91.2302 157.167 91.3367 157.22 91.4328C157.273 91.5289 157.346 91.6122 157.434 91.6768C157.575 91.7817 157.748 91.8331 157.924 91.8217L159.708 91.7118L160.249 91.6785C160.348 91.6736 160.444 91.6489 160.533 91.6057C160.622 91.5625 160.701 91.5017 160.765 91.4271C160.779 91.4113 160.793 91.3946 160.805 91.3772C160.911 91.2356 160.963 91.0609 160.951 90.8845L160.697 86.7313Z" fill="#EDE04B"/>
<path d="M153.955 97.9009H153.741V97.8792C153.631 97.8942 153.519 97.9092 153.408 97.9258V98.2338H154.946C154.623 98.1172 154.293 98.0063 153.955 97.9009ZM153.955 97.9009H153.741V97.8792C153.631 97.8942 153.519 97.9092 153.408 97.9258V98.2338H154.946C154.623 98.1172 154.293 98.0063 153.955 97.9009ZM155.489 97.9009H153.741V89.9941C153.74 89.7234 153.652 89.4602 153.489 89.2441C153.326 89.0279 153.097 88.8705 152.837 88.7956C152.725 88.7619 152.609 88.745 152.492 88.7456H137.677C137.346 88.746 137.029 88.8777 136.795 89.1117C136.561 89.3458 136.429 89.6631 136.429 89.9941V98.1505C136.429 98.4816 136.561 98.7991 136.795 99.0332C137.029 99.2673 137.346 99.3989 137.677 99.399H155.489C155.673 99.3987 155.851 99.3304 155.988 99.2073C156.125 99.0842 156.212 98.9148 156.233 98.7315C156.236 98.7044 156.238 98.6772 156.238 98.6499C156.237 98.4513 156.158 98.261 156.018 98.1206C155.877 97.9802 155.687 97.9012 155.489 97.9009ZM155.905 98.6499C155.905 98.7603 155.861 98.8661 155.783 98.9441C155.705 99.0222 155.599 99.066 155.489 99.0661H137.677C137.435 99.0659 137.202 98.9694 137.03 98.7978C136.858 98.6261 136.762 98.3933 136.762 98.1505V89.9941C136.762 89.7513 136.858 89.5185 137.03 89.3468C137.202 89.1752 137.435 89.0787 137.677 89.0785H152.492C152.563 89.0783 152.634 89.0867 152.704 89.1035C152.904 89.1514 153.082 89.2652 153.21 89.4268C153.338 89.5883 153.407 89.7881 153.408 89.9941V98.2338H155.489C155.59 98.2339 155.687 98.2708 155.763 98.3375C155.839 98.4043 155.888 98.4964 155.901 98.5967C155.903 98.615 155.905 98.6316 155.905 98.6499ZM153.955 97.9009H153.741V97.8792C153.631 97.8942 153.519 97.9092 153.408 97.9258V98.2338H154.946C154.623 98.1172 154.293 98.0063 153.955 97.9009Z" fill="#3F3D56"/>
<path d="M145.084 95.0714C145.636 95.0714 146.083 94.6242 146.083 94.0726C146.083 93.521 145.636 93.0739 145.084 93.0739C144.532 93.0739 144.085 93.521 144.085 94.0726C144.085 94.6242 144.532 95.0714 145.084 95.0714Z" fill="#EDE04B"/>
<path d="M55.8752 12.0456C55.8715 12.1217 55.8738 12.1979 55.882 12.2736L50.6549 16.6605L49.0961 16.0961L47.9368 18.3372L51.3449 19.9595L57.0594 13.5468C57.3479 13.5991 57.6456 13.5624 57.9128 13.4415C58.1799 13.3205 58.404 13.1211 58.555 12.8697C58.7061 12.6184 58.7771 12.327 58.7585 12.0343C58.7399 11.7416 58.6327 11.4615 58.4511 11.2313C58.2694 11.001 58.022 10.8315 57.7417 10.7453C57.4614 10.6591 57.1615 10.6603 56.8818 10.7487C56.6022 10.8371 56.3561 11.0085 56.1763 11.2402C55.9965 11.4719 55.8914 11.7528 55.8752 12.0456L55.8752 12.0456Z" fill="#FFB8B8"/>
<path d="M48.8653 19.4127L43.8176 17.5907C43.3542 17.4235 42.9762 17.079 42.7668 16.633C42.5574 16.187 42.5337 15.6762 42.701 15.2128C42.8682 14.7494 43.2127 14.3714 43.6587 14.162C44.1046 13.9526 44.6155 13.9289 45.0789 14.0962L50.1266 15.9181C50.2031 15.9457 50.2734 15.9881 50.3335 16.0429C50.3936 16.0977 50.4423 16.1637 50.4769 16.2373C50.5114 16.3109 50.5311 16.3906 50.5349 16.4718C50.5387 16.5531 50.5264 16.6342 50.4988 16.7107L49.6579 19.0405C49.602 19.1948 49.4871 19.3206 49.3385 19.3904C49.1899 19.4602 49.0197 19.4682 48.8653 19.4127V19.4127Z" fill="#CCCCCC"/>
<path d="M45.1685 37.1615L46.8554 37.1613L47.6579 30.6544L45.1682 30.6546L45.1685 37.1615Z" fill="#FFB8B8"/>
<path d="M50.1087 38.7281L44.8069 38.7284L44.8068 36.6799L48.0602 36.6798C48.6034 36.6798 49.1245 36.8956 49.5087 37.2797C49.8928 37.6639 50.1087 38.1849 50.1087 38.7281L50.1087 38.7281Z" fill="#2F2E41"/>
<path d="M40.9991 34.9824L42.379 35.9527L46.7783 31.0916L44.7416 29.6597L40.9991 34.9824Z" fill="#FFB8B8"/>
<path d="M43.973 38.7726L39.6358 35.7232L40.814 34.0474L43.4754 35.9187C43.9199 36.2312 44.222 36.7074 44.3153 37.2426C44.4086 37.7778 44.2854 38.3282 43.973 38.7726L43.973 38.7726Z" fill="#2F2E41"/>
<path d="M48.8589 25.4402C48.8589 25.4402 53.0688 24.9435 52.3132 27.6754C51.5576 30.4073 43.1378 32.7666 43.1378 32.7666L48.8589 25.4402Z" fill="#FFB8B8"/>
<path d="M45.9615 11.5014C47.828 11.5014 49.3411 9.98833 49.3411 8.12182C49.3411 6.2553 47.828 4.74219 45.9615 4.74219C44.095 4.74219 42.5818 6.2553 42.5818 8.12182C42.5818 9.98833 44.095 11.5014 45.9615 11.5014Z" fill="#FFB8B8"/>
<path d="M35.184 32.2073C33.2609 29.9681 32.588 26.5314 35.6548 23.6731C36.4122 22.9845 37.2698 22.415 38.1982 21.984L40.67 15.0716C40.9267 14.3498 41.3974 13.7235 42.0193 13.2761C42.6413 12.8287 43.3848 12.5816 44.1508 12.5678C44.8945 12.5357 45.6299 12.7346 46.256 13.1373C46.8822 13.5399 47.3683 14.1266 47.6476 14.8166C47.9494 15.5186 47.984 16.3068 47.7447 17.0325C47.0089 19.3238 46.0426 21.5346 44.8607 23.631L44.9885 24.6535L51.236 25.2087L51.1778 25.3034C51.1474 25.3529 48.0897 30.0116 44.1781 33.1039C42.8407 34.1611 41.4576 34.5993 40.1523 34.5992C38.173 34.5991 36.3727 33.5914 35.184 32.2073Z" fill="#CCCCCC"/>
<path d="M34.5942 9.18169C35.1921 8.46921 35.4485 7.53729 35.6549 6.63035C35.9813 5.19533 36.2339 3.71147 36.9591 2.43087C37.6843 1.1503 39.017 0.0892078 40.4865 0.169976C41.9476 0.250283 43.1288 1.42577 43.7558 2.76324C43.9076 2.70427 44.0702 2.67786 44.2329 2.6857C44.3956 2.69355 44.5548 2.73548 44.7003 2.80878C45.1522 3.05625 45.3212 3.75964 44.945 4.11177C45.3406 3.92338 45.7714 3.82038 46.2095 3.80946C46.6475 3.79854 47.083 3.87994 47.4875 4.04838C48.0077 4.26983 48.4567 4.63047 48.7851 5.09062C49.1136 5.55078 49.3087 6.09261 49.3491 6.65652C49.3649 6.88539 49.3335 7.11506 49.2568 7.3313C49.1802 7.54754 49.06 7.74574 48.9036 7.91361C48.2552 8.58115 47.3381 8.35088 46.5226 8.18083C45.7524 8.02022 44.8142 7.97686 44.3803 8.71073C44.2093 9.01653 44.1614 9.37605 44.2465 9.71594C44.4127 10.4485 44.9551 10.9588 45.4813 11.4472L45.5674 11.6071C43.7094 11.9694 41.6806 10.7005 41.1932 8.8714C40.7058 7.04228 41.8343 4.93212 43.6262 4.32193C43.5069 4.32564 43.3889 4.29745 43.2841 4.24025C43.1794 4.18306 43.0919 4.09894 43.0306 3.9966C42.9692 3.89425 42.9363 3.77738 42.9353 3.65807C42.9342 3.53876 42.9651 3.42133 43.0246 3.31792C42.5286 3.04006 41.9672 2.90001 41.3988 2.91231C40.4733 2.97303 39.6722 3.63189 39.1906 4.42459C38.7088 5.21729 38.4907 6.13737 38.2698 7.03825C38.0488 7.93913 37.8097 8.85725 37.2947 9.6287C36.9379 10.163 36.4612 10.6066 35.9026 10.9239C35.344 11.2413 34.719 11.4237 34.0774 11.4566C33.4358 11.4895 32.7953 11.372 32.2072 11.1135C31.619 10.8549 31.0995 10.4625 30.6899 9.96748C31.3371 10.2813 32.0693 10.3744 32.7745 10.2325C33.4796 10.0905 34.1188 9.72145 34.5942 9.18169Z" fill="#2F2E41"/>
<path d="M59.4169 18.3916C62.1301 18.3916 64.3295 16.1922 64.3295 13.4791C64.3295 10.7659 62.1301 8.56653 59.4169 8.56653C56.7038 8.56653 54.5044 10.7659 54.5044 13.4791C54.5044 16.1922 56.7038 18.3916 59.4169 18.3916Z" fill="#EDE04B"/>
<path d="M59.2655 16.2426C59.2456 16.2228 59.2299 16.1993 59.2191 16.1733C59.2084 16.1474 59.2029 16.1196 59.2029 16.0916V10.6545C59.2029 10.5978 59.2254 10.5435 59.2655 10.5035C59.3055 10.4634 59.3599 10.4409 59.4165 10.4409C59.4732 10.4409 59.5275 10.4634 59.5675 10.5035C59.6076 10.5435 59.6301 10.5978 59.6301 10.6545V16.0916C59.6301 16.1338 59.6175 16.1751 59.5941 16.2102C59.5706 16.2453 59.5373 16.2727 59.4982 16.2889C59.4592 16.3051 59.4163 16.3093 59.3748 16.301C59.3334 16.2928 59.2954 16.2725 59.2655 16.2426H59.2655Z" fill="white"/>
<path d="M56.5471 13.5239C56.5172 13.494 56.4969 13.456 56.4887 13.4145C56.4804 13.3731 56.4847 13.3302 56.5008 13.2912C56.517 13.2521 56.5444 13.2188 56.5795 13.1953C56.6146 13.1718 56.6559 13.1593 56.6981 13.1593H62.1352C62.1919 13.1593 62.2462 13.1818 62.2862 13.2219C62.3263 13.2619 62.3488 13.3162 62.3488 13.3729C62.3488 13.4295 62.3263 13.4838 62.2862 13.5239C62.2462 13.5639 62.1919 13.5864 62.1352 13.5864H56.6981C56.6701 13.5865 56.6423 13.581 56.6164 13.5703C56.5904 13.5595 56.5669 13.5438 56.5471 13.5239Z" fill="white"/>
<path d="M56.045 16.7651C56.0093 16.8324 55.979 16.9024 55.9543 16.9744L49.3582 18.7235L48.1871 17.5501L46.1852 19.0861L48.5806 22.003L56.4789 18.6273C56.7178 18.7973 57.0029 18.8906 57.2961 18.8947C57.5893 18.8988 57.8769 18.8135 58.1205 18.6502C58.3641 18.4868 58.5521 18.2532 58.6597 17.9804C58.7673 17.7076 58.7893 17.4085 58.7228 17.1229C58.6562 16.8373 58.5043 16.5787 58.2872 16.3815C58.0701 16.1843 57.7981 16.0579 57.5075 16.0191C57.2168 15.9802 56.9212 16.0308 56.6599 16.1641C56.3987 16.2973 56.1842 16.507 56.045 16.7651L56.045 16.7651Z" fill="#FFB8B8"/>
<path d="M46.5681 20.4535L42.7734 16.6588C42.6005 16.4865 42.4632 16.2816 42.3694 16.0561C42.2757 15.8306 42.2273 15.5889 42.2271 15.3447C42.2269 15.1005 42.2749 14.8586 42.3682 14.6329C42.4616 14.4073 42.5985 14.2022 42.7712 14.0296C42.9439 13.8569 43.1489 13.7199 43.3746 13.6266C43.6002 13.5332 43.8421 13.4853 44.0863 13.4855C44.3305 13.4857 44.5723 13.534 44.7978 13.6278C45.0233 13.7215 45.2281 13.8588 45.4005 14.0318L49.1951 17.8264C49.2526 17.8839 49.2982 17.9522 49.3293 18.0273C49.3604 18.1024 49.3765 18.1829 49.3765 18.2642C49.3765 18.3456 49.3604 18.4261 49.3293 18.5012C49.2982 18.5763 49.2526 18.6446 49.1951 18.702L47.4437 20.4535C47.3275 20.5694 47.17 20.6345 47.0059 20.6345C46.8417 20.6345 46.6843 20.5694 46.5681 20.4535V20.4535Z" fill="#CCCCCC"/>
</g>
<defs>
<clipPath id="clip0">
<rect width="164.394" height="118.857" fill="white" transform="translate(0.468597 0.165649)"/>
</clipPath>
</defs>
</svg>
