<svg width="100" height="85" viewBox="0 0 100 85" fill="none" xmlns="http://www.w3.org/2000/svg">
<g clip-path="url(#clip0)">
<path d="M76.1056 71.7136H24.7339C11.1187 68.6985 -0.00011823 58.3134 -0.00011823 42.7832C-0.00209675 40.434 0.251902 38.0916 0.757381 35.7974L42.1652 29.1275L74.1088 23.9824C76.4036 25.4837 78.5873 27.1482 80.6431 28.9631L50.0669 40.6266L35.6428 46.1291L51.8414 42.1029L85.4623 33.7467C87.5048 36.0294 89.3611 38.4721 91.0134 41.0513L80.8461 48.6531L92.3333 43.2159C92.3819 43.2997 92.4303 43.3837 92.4785 43.4678C99.6858 56.0446 90.6012 71.7136 76.1056 71.7136Z" fill="#F2F2F2"/>
<path d="M67.8959 20.4524C60.1199 22.0585 50.5596 24.0884 40.73 26.1985C26.5178 29.2502 11.7431 32.4713 0.986687 34.826C1.22433 33.8962 1.50092 32.9856 1.81647 32.0941C10.2421 23.3706 21.2302 17.5615 33.1838 15.5113H33.1847C36.3846 14.9658 39.6248 14.6922 42.8708 14.6934C51.5423 14.6812 60.102 16.651 67.8959 20.4524Z" fill="#F2F2F2"/>
<path d="M13.7434 23.1809C18.3359 23.1809 22.0589 19.4579 22.0589 14.8653C22.0589 10.2728 18.3359 6.5498 13.7434 6.5498C9.15083 6.5498 5.42783 10.2728 5.42783 14.8653C5.42783 19.4579 9.15083 23.1809 13.7434 23.1809Z" fill="#FF6584"/>
<path d="M76.008 71.7131C70.8907 76.6155 53.7445 76.8234 26.4004 72.0428C25.8409 71.9448 25.2854 71.8349 24.7339 71.7131C11.1187 68.6979 -0.00011823 58.3128 -0.00011823 42.7826C-0.00209675 40.4334 0.251902 38.091 0.757381 35.7968C0.828671 35.4711 0.905248 35.1473 0.987107 34.8254C1.22475 33.8957 1.50134 32.985 1.81689 32.0935C5.66873 21.2202 15.2231 13.5225 26.4004 13.5225C29.1769 13.5225 31.3662 14.2582 33.1842 15.5108H33.1852C36.4993 17.7941 38.5787 21.7965 40.7304 26.1979C41.2008 27.1594 41.6741 28.1407 42.1652 29.1269C44.1902 33.1936 46.5042 37.3485 50.0669 40.626C50.6327 41.1482 51.225 41.641 51.8414 42.1024C52.1523 42.3361 52.4721 42.5628 52.8009 42.7826C74.0712 57.0147 81.1778 66.7591 76.008 71.7131Z" fill="#3F3D56"/>
<path opacity="0.1" d="M58.8592 68.3915C63.7537 68.3915 67.7214 67.7217 67.7214 66.8954C67.7214 66.0692 63.7537 65.3994 58.8592 65.3994C53.9647 65.3994 49.997 66.0692 49.997 66.8954C49.997 67.7217 53.9647 68.3915 58.8592 68.3915Z" fill="black"/>
<path opacity="0.1" d="M11.2313 51.7558C16.1257 51.7558 20.0935 51.086 20.0935 50.2597C20.0935 49.4335 16.1257 48.7637 11.2313 48.7637C6.3368 48.7637 2.36905 49.4335 2.36905 50.2597C2.36905 51.086 6.3368 51.7558 11.2313 51.7558Z" fill="black"/>
<path d="M12.4127 45.6974C10.9491 47.6116 11.1164 50.1986 11.1164 50.1986C11.1164 50.1986 13.6569 49.682 15.1205 47.7678C16.5842 45.8536 16.4168 43.2666 16.4168 43.2666C16.4168 43.2666 13.8764 43.7832 12.4127 45.6974Z" fill="#D0CDE1"/>
<path d="M13.3711 46.1283C13.0871 48.5212 11.1644 50.2601 11.1644 50.2601C11.1644 50.2601 9.7022 48.1194 9.98623 45.7265C10.2703 43.3336 12.193 41.5947 12.193 41.5947C12.193 41.5947 13.6552 43.7354 13.3711 46.1283Z" fill="#EDE04B"/>
<path opacity="0.1" d="M36.085 61.3184C40.2705 61.3184 43.6636 60.7457 43.6636 60.0391C43.6636 59.3325 40.2705 58.7598 36.085 58.7598C31.8995 58.7598 28.5065 59.3325 28.5065 60.0391C28.5065 60.7457 31.8995 61.3184 36.085 61.3184Z" fill="black"/>
<path d="M37.0953 56.1373C35.8436 57.7742 35.9867 59.9865 35.9867 59.9865C35.9867 59.9865 38.1592 59.5448 39.4108 57.9078C40.6625 56.2709 40.5194 54.0586 40.5194 54.0586C40.5194 54.0586 38.3469 54.5003 37.0953 56.1373Z" fill="#D0CDE1"/>
<path d="M37.9152 56.5048C37.6723 58.5511 36.0281 60.0382 36.0281 60.0382C36.0281 60.0382 34.7777 58.2075 35.0206 56.1612C35.2635 54.115 36.9077 52.6279 36.9077 52.6279C36.9077 52.6279 38.1581 54.4586 37.9152 56.5048Z" fill="#EDE04B"/>
<path d="M70.3924 55.6887C70.3964 63.9948 65.4599 66.897 59.3692 66.9C59.2278 66.9 59.087 66.8985 58.9469 66.8954C58.6646 66.8895 58.3852 66.8768 58.1088 66.8573C52.6116 66.4707 48.339 63.4241 48.3352 55.6994C48.3313 47.7053 58.5434 37.6119 59.3093 36.8656C59.31 36.8656 59.31 36.8656 59.3107 36.8649C59.3398 36.8365 59.3546 36.8223 59.3546 36.8223C59.3546 36.8223 70.3883 47.3832 70.3924 55.6887Z" fill="#EDE04B"/>
<path d="M58.9669 65.6296L62.9978 59.9919L58.9571 66.2483L58.9466 66.8954C58.6643 66.8895 58.385 66.8768 58.1086 66.8573L58.5391 58.5475L58.5357 58.4832L58.5431 58.471L58.584 57.6858L54.5271 51.4177L58.5959 57.0976L58.6062 57.2641L58.9314 50.9858L55.4579 44.5082L58.9735 49.8824L59.309 36.8656L59.3104 36.8223L59.3104 36.8649L59.2585 47.13L62.7107 43.0589L59.244 48.014L59.1554 53.6357L62.3795 48.2393L59.1429 54.4622L59.0937 57.5881L63.7728 50.0764L59.0759 58.6786L58.9669 65.6296Z" fill="#3F3D56"/>
<path opacity="0.1" d="M23.356 41.7184C29.7437 41.7184 34.9219 40.8442 34.9219 39.7659C34.9219 38.6876 29.7437 37.8135 23.356 37.8135C16.9683 37.8135 11.79 38.6876 11.79 39.7659C11.79 40.8442 16.9683 41.7184 23.356 41.7184Z" fill="black"/>
<path d="M38.407 25.1409C38.4123 35.9811 31.9697 39.7687 24.0208 39.7726C23.8362 39.7727 23.6524 39.7707 23.4695 39.7667C23.1011 39.7589 22.7366 39.7423 22.3759 39.7169C15.2015 39.2124 9.62527 35.2362 9.62038 25.1548C9.61531 14.7218 22.943 1.54912 23.9426 0.575123C23.9434 0.575123 23.9434 0.575123 23.9443 0.574238C23.9823 0.537116 24.0017 0.518555 24.0017 0.518555C24.0017 0.518555 38.4017 14.3015 38.407 25.1409Z" fill="#EDE04B"/>
<path d="M23.497 38.1147L28.7577 30.7569L23.4842 38.9221L23.4705 39.7667C23.1021 39.7589 22.7375 39.7423 22.3768 39.7168L22.9387 28.8719L22.9342 28.788L22.9439 28.7721L22.9973 27.7473L17.7026 19.5669L23.0128 26.9796L23.0262 27.1969L23.4507 19.0031L18.9173 10.5494L23.5056 17.5632L23.9435 0.575089L23.9452 0.518555L23.9452 0.574204L23.8776 13.9711L28.383 8.65785L23.8587 15.1248L23.743 22.4615L27.9508 15.4188L23.7267 23.5402L23.6625 27.6198L29.7691 17.8163L23.6393 29.0429L23.497 38.1147Z" fill="#3F3D56"/>
<path d="M84.6274 33.9896C89.0263 33.9896 92.5924 30.4236 92.5924 26.0246C92.5924 21.6256 89.0263 18.0596 84.6274 18.0596C80.2284 18.0596 76.6623 21.6256 76.6623 26.0246C76.6623 30.4236 80.2284 33.9896 84.6274 33.9896Z" fill="#2F2E41"/>
<path d="M99.3227 71.5492C96.9359 78.2525 92.4361 84.0373 92.4361 84.0373H81.4174L82.8951 81.0045L83.6352 79.4863L84.7048 77.2912L85.2307 76.212L86.6513 73.2946L84.5299 76.124L83.6138 77.3447L81.8766 79.6624L80.4275 81.5947C75.7774 82.6056 71.0609 83.282 66.3141 83.6185C66.2962 83.0593 66.3855 81.9599 67.0958 80.431C67.4734 79.6315 67.9264 78.8698 68.4486 78.1561C68.9371 77.4838 69.4655 76.8413 70.031 76.2322C70.3451 75.8919 70.6759 75.5445 71.0173 75.1935C75.4624 70.6235 81.8766 65.3979 81.8766 65.3979L80.0408 58.1437L93.2547 55.8997C93.4183 55.8719 93.5859 55.8785 93.7468 55.9192C93.9077 55.9598 94.0584 56.0337 94.1891 56.1359C94.3198 56.2382 94.4277 56.3666 94.5059 56.513C94.5841 56.6594 94.6309 56.8205 94.6432 56.986C94.7146 57.9438 94.9668 59.1752 95.7426 59.7963C97.1192 60.8981 101.711 64.847 99.3227 71.5492Z" fill="#2F2E41"/>
<path d="M90.5985 77.7533C90.5984 77.7775 90.5948 77.8016 90.5878 77.8247C90.4022 78.5326 87.536 79.8045 82.8957 81.0039C82.1212 81.2026 81.2966 81.4001 80.4281 81.594C75.778 82.605 71.0615 83.2813 66.3147 83.6179C63.9089 83.7928 61.3972 83.8927 58.813 83.8927C41.524 83.8927 27.4594 79.4226 27.0394 77.8247C27.0323 77.8016 27.0287 77.7775 27.0287 77.7533C27.0285 77.7381 27.0301 77.7229 27.0334 77.7081C27.0346 77.6987 27.037 77.6895 27.0406 77.6807C27.501 76.2922 41.549 78.3482 58.813 78.3482C62.1718 78.3482 65.4104 78.2709 68.4492 78.1555C74.485 77.9258 79.7404 77.5499 83.6144 77.344C83.9915 77.325 84.3556 77.306 84.7054 77.2905C88.2594 77.1227 90.4117 77.1513 90.5866 77.6807C90.5902 77.6895 90.5926 77.6987 90.5937 77.7081C90.5971 77.7229 90.5987 77.7381 90.5985 77.7533Z" fill="#3F3D56"/>
<path opacity="0.1" d="M90.5985 77.7533C90.5984 77.7775 90.5948 77.8016 90.5878 77.8247C90.4022 78.5326 87.536 79.8045 82.8957 81.0039C82.1212 81.2026 81.2966 81.4001 80.4281 81.594C75.778 82.605 71.0615 83.2813 66.3147 83.6179C63.9089 83.7928 61.3972 83.8927 58.813 83.8927C41.524 83.8927 27.4594 79.4226 27.0394 77.8247C27.0323 77.8016 27.0287 77.7775 27.0287 77.7533C27.0285 77.7381 27.0301 77.7229 27.0334 77.7081C27.0346 77.6987 27.037 77.6895 27.0406 77.6807C27.501 76.2922 41.549 78.3482 58.813 78.3482C62.1718 78.3482 65.4104 78.2709 68.4492 78.1555C74.485 77.9258 79.7404 77.5499 83.6144 77.344C83.9915 77.325 84.3556 77.306 84.7054 77.2905C88.2594 77.1227 90.4117 77.1513 90.5866 77.6807C90.5902 77.6895 90.5926 77.6987 90.5937 77.7081C90.5971 77.7229 90.5987 77.7381 90.5985 77.7533Z" fill="black"/>
<path d="M58.8129 80.5255C76.3674 80.5255 90.5981 79.2842 90.5981 77.753C90.5981 76.2218 76.3674 74.9805 58.8129 74.9805C41.2585 74.9805 27.0278 76.2218 27.0278 77.753C27.0278 79.2842 41.2585 80.5255 58.8129 80.5255Z" fill="#3F3D56"/>
<path opacity="0.1" d="M77.6315 79.3278C80.5885 79.3278 82.9856 78.7952 82.9856 78.138C82.9856 77.4809 80.5885 76.9482 77.6315 76.9482C74.6745 76.9482 72.2774 77.4809 72.2774 78.138C72.2774 78.7952 74.6745 79.3278 77.6315 79.3278Z" fill="black"/>
<path d="M77.6315 78.1374C79.2086 78.1374 80.487 77.9243 80.487 77.6615C80.487 77.3986 79.2086 77.1855 77.6315 77.1855C76.0545 77.1855 74.776 77.3986 74.776 77.6615C74.776 77.9243 76.0545 78.1374 77.6315 78.1374Z" fill="#EDE04B"/>
<path d="M80.0912 72.3926C80.0912 72.3926 74.2101 76.9674 76.322 77.4265C78.4339 77.8856 81.8313 72.8353 81.8313 72.8353L80.0912 72.3926Z" fill="#A0616A"/>
<path d="M83.2082 34.1768C86.0988 34.1768 88.4421 31.8335 88.4421 28.9429C88.4421 26.0523 86.0988 23.709 83.2082 23.709C80.3176 23.709 77.9743 26.0523 77.9743 28.9429C77.9743 31.8335 80.3176 34.1768 83.2082 34.1768Z" fill="#A0616A"/>
<path d="M83.2091 33.6258C83.2091 33.6258 85.0456 38.3088 83.5764 39.1352C82.1072 39.9616 81.3726 40.0534 81.3726 40.0534L79.8116 42.7163L78.8934 45.471L86.2393 45.7465L91.3814 37.5742C91.3814 37.5742 88.9022 36.2887 87.6166 30.7793L83.2091 33.6258Z" fill="#A0616A"/>
<path d="M92.8047 37.7129C92.8047 37.7129 91.8707 37.0992 91.0063 37.3142C90.5838 37.407 90.1713 37.5405 89.7746 37.7129C89.7746 37.7129 84.9997 44.2323 82.4287 44.416C82.4287 44.416 79.0312 45.3342 79.8576 43.9569C80.684 42.5795 82.4948 39.6805 82.4948 39.6805C82.4948 39.6805 79.2149 40.4676 79.2149 41.5695C79.2149 42.6714 78.5721 44.6915 78.5721 44.6915C78.5721 44.6915 75.4501 47.8135 78.5721 51.4864C81.6941 55.1593 80.5004 58.465 80.5004 58.465L94.2739 55.9857L92.8047 37.7129Z" fill="#D0CDE1"/>
<path d="M78.2962 49.2822L77.4698 61.9538L78.2962 73.7072C78.2962 73.7072 81.6936 74.4418 82.52 73.7072C83.3464 72.9726 80.7754 53.9652 80.7754 53.9652L78.2962 49.2822Z" fill="#D0CDE1"/>
<path d="M87.9276 22.0771C89.7479 22.0771 91.2235 20.6015 91.2235 18.7812C91.2235 16.961 89.7479 15.4854 87.9276 15.4854C86.1074 15.4854 84.6318 16.961 84.6318 18.7812C84.6318 20.6015 86.1074 22.0771 87.9276 22.0771Z" fill="#2F2E41"/>
<path d="M83.5321 16.997C83.5321 16.1824 83.8339 15.3966 84.3791 14.7912C84.9243 14.1859 85.6744 13.8039 86.4846 13.719C86.3706 13.7071 86.256 13.7012 86.1413 13.7012C85.2672 13.7012 84.4289 14.0484 83.8108 14.6665C83.1927 15.2846 82.8454 16.1229 82.8454 16.997C82.8454 17.8712 83.1927 18.7095 83.8108 19.3276C84.4289 19.9457 85.2672 20.2929 86.1413 20.2929C86.256 20.2929 86.3706 20.2869 86.4846 20.2751C85.6744 20.1902 84.9243 19.8082 84.3791 19.2029C83.8339 18.5975 83.5321 17.8117 83.5321 16.997Z" fill="#2F2E41"/>
<path d="M89.063 27.4077C89.5305 25.6485 87.5326 23.5907 84.6006 22.8116C81.6686 22.0325 78.9128 22.827 78.4453 24.5862C77.9778 26.3454 79.9757 28.4031 82.9077 29.1822C85.8397 29.9614 88.5955 29.1669 89.063 27.4077Z" fill="#2F2E41"/>
<path d="M82.6621 73.127C82.6621 73.127 76.7808 77.7017 78.8927 78.1609C81.0047 78.62 84.4022 73.5697 84.4022 73.5697L82.6621 73.127Z" fill="#A0616A"/>
<path d="M90.5087 38.2631C90.5087 38.2631 93.0798 36.0594 94.2735 39.0896C95.4672 42.1197 93.6307 57.0869 93.6307 57.0869L84.8156 74.9006C84.8156 74.9006 80.5917 75.0842 81.51 72.0541C82.4282 69.0239 88.6263 54.7454 88.9936 54.3781C89.3609 54.0108 90.5087 38.2631 90.5087 38.2631Z" fill="#D0CDE1"/>
<path opacity="0.1" d="M78.8479 51.8232C78.8479 51.8232 80.8742 56.12 80.7101 57.2689C80.546 58.4178 78.8479 51.8232 78.8479 51.8232Z" fill="black"/>
<path d="M88.8097 29.5855C89.0633 29.5855 89.2689 29.1744 89.2689 28.6673C89.2689 28.1601 89.0633 27.749 88.8097 27.749C88.5562 27.749 88.3506 28.1601 88.3506 28.6673C88.3506 29.1744 88.5562 29.5855 88.8097 29.5855Z" fill="#A0616A"/>
<path opacity="0.1" d="M44.6741 79.3278C47.6311 79.3278 50.0282 78.7952 50.0282 78.138C50.0282 77.4809 47.6311 76.9482 44.6741 76.9482C41.7171 76.9482 39.32 77.4809 39.32 78.138C39.32 78.7952 41.7171 79.3278 44.6741 79.3278Z" fill="black"/>
<path d="M44.6741 78.1378C46.2512 78.1378 47.5296 76.8593 47.5296 75.2823C47.5296 73.7052 46.2512 72.4268 44.6741 72.4268C43.097 72.4268 41.8186 73.7052 41.8186 75.2823C41.8186 76.8593 43.097 78.1378 44.6741 78.1378Z" fill="#EDE04B"/>
<path opacity="0.1" d="M59.9035 79.3278C62.8605 79.3278 65.2576 78.7952 65.2576 78.138C65.2576 77.4809 62.8605 76.9482 59.9035 76.9482C56.9465 76.9482 54.5494 77.4809 54.5494 78.138C54.5494 78.7952 56.9465 79.3278 59.9035 79.3278Z" fill="black"/>
<path d="M59.9035 78.1378C61.4806 78.1378 62.759 76.8593 62.759 75.2823C62.759 73.7052 61.4806 72.4268 59.9035 72.4268C58.3265 72.4268 57.048 73.7052 57.048 75.2823C57.048 76.8593 58.3265 78.1378 59.9035 78.1378Z" fill="#EDE04B"/>
<path d="M45.0034 73.4512H44.2895V77.0206H45.0034V73.4512Z" fill="#D0CDE1"/>
<path d="M59.6379 73.4512H58.924V77.0206H59.6379V73.4512Z" fill="#D0CDE1"/>
<path d="M60.7087 73.4512H59.9948V77.0206H60.7087V73.4512Z" fill="#D0CDE1"/>
</g>
<defs>
<clipPath id="clip0">
<rect width="100" height="83.5181" fill="white" transform="translate(0 0.518555)"/>
</clipPath>
</defs>
</svg>
