<svg width="113" height="75" viewBox="0 0 113 75" fill="none" xmlns="http://www.w3.org/2000/svg">
<g clip-path="url(#clip0)">
<path opacity="0.1" d="M65.703 14.9574C59.0717 14.7218 52.756 12.5813 46.7292 10.2442C40.7024 7.90702 34.7247 5.30654 28.2522 4.06573C24.0892 3.26755 19.3278 3.15484 15.9742 5.38646C12.7457 7.53816 11.7026 11.2422 11.1421 14.6828C10.72 17.271 10.472 19.9944 11.6278 22.4177C12.4311 24.1001 13.8553 25.5141 14.841 27.1258C18.2704 32.7325 15.8461 39.6466 12.1309 45.1212C10.389 47.6899 8.36541 50.1418 7.02009 52.8734C5.67476 55.605 5.05282 58.7393 6.23011 61.5284C7.39612 64.2948 10.1759 66.3687 13.1873 67.8287C19.3032 70.794 26.5073 71.6434 33.5372 72.1239C49.094 73.1885 64.7327 72.7274 80.3305 72.2664C86.1032 72.0952 91.9005 71.9221 97.5789 71.0296C100.733 70.5337 103.988 69.7468 106.278 67.8482C109.184 65.4373 109.904 61.3542 107.956 58.3316C104.69 53.2607 95.6608 52.0015 93.3749 46.5587C92.1187 43.5637 93.4087 40.2265 95.2356 37.4488C99.1537 31.4896 105.721 26.261 106.066 19.4483C106.304 14.7699 103.147 10.0843 98.2654 7.87013C93.1495 5.54937 86.054 5.84139 82.2814 9.68268C78.3899 13.6336 71.5587 15.1552 65.703 14.9574Z" fill="#EDE04B"/>
<path d="M17.5479 74.9986C21.6907 74.9986 25.0491 74.3527 25.0491 73.5559C25.0491 72.7592 21.6907 72.1133 17.5479 72.1133C13.4051 72.1133 10.0466 72.7592 10.0466 73.5559C10.0466 74.3527 13.4051 74.9986 17.5479 74.9986Z" fill="#EDE04B"/>
<path d="M17.4219 74.0877C17.904 74.0877 18.2949 73.5758 18.2949 72.9443C18.2949 72.3127 17.904 71.8008 17.4219 71.8008C16.9398 71.8008 16.5489 72.3127 16.5489 72.9443C16.5489 73.5758 16.9398 74.0877 17.4219 74.0877Z" fill="#3F3D56"/>
<path d="M17.4219 72.6893C17.904 72.6893 18.2949 72.1773 18.2949 71.5458C18.2949 70.9143 17.904 70.4023 17.4219 70.4023C16.9398 70.4023 16.5489 70.9143 16.5489 71.5458C16.5489 72.1773 16.9398 72.6893 17.4219 72.6893Z" fill="#3F3D56"/>
<path d="M17.4219 71.2928C17.904 71.2928 18.2949 70.7809 18.2949 70.1493C18.2949 69.5178 17.904 69.0059 17.4219 69.0059C16.9398 69.0059 16.5489 69.5178 16.5489 70.1493C16.5489 70.7809 16.9398 71.2928 17.4219 71.2928Z" fill="#3F3D56"/>
<path d="M17.4219 69.8944C17.904 69.8944 18.2949 69.3824 18.2949 68.7509C18.2949 68.1194 17.904 67.6074 17.4219 67.6074C16.9398 67.6074 16.5489 68.1194 16.5489 68.7509C16.5489 69.3824 16.9398 69.8944 17.4219 69.8944Z" fill="#3F3D56"/>
<path d="M17.4219 68.4979C17.904 68.4979 18.2949 67.9859 18.2949 67.3544C18.2949 66.7229 17.904 66.2109 17.4219 66.2109C16.9398 66.2109 16.5489 66.7229 16.5489 67.3544C16.5489 67.9859 16.9398 68.4979 17.4219 68.4979Z" fill="#3F3D56"/>
<path d="M17.4219 67.1014C17.904 67.1014 18.2949 66.5894 18.2949 65.9579C18.2949 65.3264 17.904 64.8145 17.4219 64.8145C16.9398 64.8145 16.5489 65.3264 16.5489 65.9579C16.5489 66.5894 16.9398 67.1014 17.4219 67.1014Z" fill="#3F3D56"/>
<path d="M17.4219 65.703C17.904 65.703 18.2949 65.191 18.2949 64.5595C18.2949 63.928 17.904 63.416 17.4219 63.416C16.9398 63.416 16.5489 63.928 16.5489 64.5595C16.5489 65.191 16.9398 65.703 17.4219 65.703Z" fill="#3F3D56"/>
<path d="M20.6911 54.9978C20.8108 54.8461 20.9197 54.6862 21.017 54.5193L18.7218 54.1423L21.2035 54.1607C21.4417 53.6427 21.5717 53.0816 21.5854 52.5116C21.5992 51.9417 21.4964 51.3749 21.2834 50.8461L17.9544 52.5736L21.0282 50.3194C20.7403 49.8228 20.3532 49.3908 19.8911 49.0502C19.4291 48.7096 18.9018 48.4678 18.3422 48.3398C17.7827 48.2117 17.2027 48.2002 16.6385 48.306C16.0743 48.4117 15.5379 48.6324 15.0626 48.9544C14.5874 49.2764 14.1835 49.6927 13.8761 50.1775C13.5686 50.6623 13.3643 51.2051 13.2757 51.7723C13.1871 52.3395 13.2162 52.9188 13.3611 53.4742C13.5061 54.0297 13.7638 54.5493 14.1182 55.0009C13.9323 55.2376 13.7722 55.4935 13.6408 55.7642L16.6203 57.3114L13.444 56.2458C13.2206 56.905 13.1652 57.6095 13.2829 58.2955C13.4007 58.9815 13.6878 59.6272 14.1182 60.1742C13.6328 60.7913 13.3308 61.5325 13.2467 62.3131C13.1627 63.0937 13.3 63.8822 13.643 64.5885C13.986 65.2947 14.5208 65.8902 15.1863 66.3068C15.8518 66.7234 16.6211 66.9444 17.4062 66.9444C18.1914 66.9444 18.9606 66.7234 19.6261 66.3068C20.2916 65.8902 20.8264 65.2947 21.1694 64.5885C21.5124 63.8822 21.6497 63.0937 21.5657 62.3131C21.4817 61.5325 21.1797 60.7913 20.6942 60.1742C21.2743 59.4368 21.5897 58.5258 21.5897 57.5875C21.5897 56.6493 21.2743 55.7383 20.6942 55.0009L20.6911 54.9978Z" fill="#EDE04B"/>
<path opacity="0.1" d="M13.2243 57.5828C13.223 58.5211 13.5386 59.4323 14.1198 60.1689C13.6343 60.786 13.3323 61.5272 13.2483 62.3079C13.1643 63.0885 13.3016 63.877 13.6446 64.5832C13.9876 65.2895 14.5224 65.885 15.1879 66.3016C15.8534 66.7182 16.6227 66.9391 17.4078 66.9391C18.1929 66.9391 18.9622 66.7182 19.6277 66.3016C20.2932 65.885 20.828 65.2895 21.171 64.5832C21.514 63.877 21.6513 63.0885 21.5673 62.3079C21.4833 61.5272 21.1813 60.786 20.6958 60.1689C21.2532 59.4589 13.2243 57.1146 13.2243 57.5828Z" fill="black"/>
<path d="M53.8898 56.1469C53.9533 56.9666 54.2689 57.8149 54.9329 58.2986C55.5968 58.7822 56.6532 58.773 57.1604 58.1234C57.3307 57.8795 57.456 57.6071 57.5303 57.319C57.9575 55.9686 58.2608 54.4911 57.7926 53.154C56.7362 53.0853 55.5118 52.5884 54.7187 53.4613C54.0783 54.1724 53.816 55.1991 53.8898 56.1469Z" fill="#3F3D56"/>
<path d="M58.7942 47.8862C58.6538 49.0778 58.4151 50.2643 58.4396 51.4641C58.4489 51.9272 58.4981 52.3863 58.4991 52.8515C58.5009 54.0593 58.1827 55.2461 57.5769 56.2911C57.5131 56.4139 57.4277 56.5243 57.3249 56.6169C57.082 56.8137 56.7162 56.7973 56.4437 56.6466C56.1774 56.481 55.961 56.2462 55.8176 55.9673C55.0543 54.6599 55.0328 53.0707 54.7305 51.5881C54.499 50.4538 54.0932 49.3544 53.9467 48.2069C53.8514 47.4681 53.8657 46.715 53.7141 45.9855C53.668 45.7652 53.5389 45.4342 53.4539 45.1094C53.376 44.8195 53.3329 44.5346 53.4129 44.3389C53.5758 43.9383 54.1096 44.094 54.457 44.1186C55.6802 44.2093 56.9085 44.2062 58.1312 44.1094C58.2521 44.1002 58.3894 44.0951 58.4745 44.1811C58.5116 44.2246 58.5395 44.2751 58.5565 44.3297C58.6538 44.5961 58.7282 44.8703 58.7788 45.1494C58.9479 46.0418 58.9007 46.9773 58.7942 47.8862Z" fill="#FABDBD"/>
<g opacity="0.1">
<path opacity="0.1" d="M58.3217 44.1085C58.2587 44.1019 58.1951 44.1019 58.1321 44.1085C57.5461 44.1557 56.959 44.1792 56.373 44.1823C57.0225 44.1837 57.6721 44.1591 58.3217 44.1085Z" fill="black"/>
<path opacity="0.1" d="M56.65 56.6464C56.3837 56.4808 56.1673 56.246 56.0239 55.9671C55.2606 54.6597 55.2391 53.0705 54.9368 51.5879C54.7052 50.4537 54.2995 49.3543 54.153 48.2067C54.0577 47.4679 54.072 46.7148 53.9204 45.9853C53.8743 45.765 53.7452 45.4341 53.6601 45.1093C53.5822 44.8193 53.5392 44.5345 53.6191 44.3388C53.6531 44.2585 53.7102 44.1903 53.7833 44.1428C53.8563 44.0953 53.9419 44.0708 54.029 44.0724C53.7698 44.055 53.5167 44.0857 53.4142 44.3388C53.3343 44.5345 53.3773 44.8193 53.4552 45.1093C53.5402 45.4341 53.6693 45.765 53.7154 45.9853C53.8671 46.7148 53.8528 47.4679 53.948 48.2067C54.0946 49.3553 54.5003 50.4547 54.7319 51.5879C55.0341 53.0705 55.0557 54.6618 55.819 55.9671C55.9624 56.246 56.1788 56.4808 56.4451 56.6464C56.6086 56.7369 56.7961 56.7748 56.982 56.755C56.8655 56.7398 56.7529 56.703 56.65 56.6464Z" fill="black"/>
</g>
<path d="M62.6671 54.172C62.0523 55.4016 62.1548 57.1434 62.1548 57.1434C62.2572 61.2419 60.6178 69.8487 60.6178 69.8487H59.1834C59.1834 69.8487 58.9785 60.3197 59.1834 59.5C59.3883 58.6804 59.0809 55.8114 58.7735 51.8154C58.545 48.844 59.167 46.1513 59.501 44.9699C59.6158 44.5601 59.6957 44.3357 59.6957 44.3357C59.6957 44.3357 62.0523 40.852 63.3843 42.4914C63.6917 42.8725 63.8546 43.642 63.911 44.6134C64.0933 47.8184 63.1384 53.2284 62.6671 54.172Z" fill="#FABDBD"/>
<path opacity="0.1" d="M63.9114 44.6126C63.8551 43.6413 63.6942 42.8708 63.3848 42.4906C63.0876 42.1259 62.7393 42.0152 62.3786 42.0634C62.6581 42.1098 62.9087 42.263 63.0774 42.4906C63.3848 42.8718 63.5477 43.6413 63.604 44.6126C63.7864 47.8176 62.8315 53.2276 62.3602 54.1713C61.7454 55.4008 61.8478 57.1427 61.8478 57.1427C61.9503 61.2412 60.3109 69.8479 60.3109 69.8479H60.6183C60.6183 69.8479 62.2577 61.2412 62.1552 57.1427C62.1552 57.1427 62.0528 55.4008 62.6675 54.1713C63.1389 53.2276 64.0938 47.8176 63.9114 44.6126Z" fill="black"/>
<path d="M58.4376 69.4754C58.3231 69.5653 58.2241 69.6733 58.1445 69.7951C57.9611 70.1414 58.2214 70.5554 58.5001 70.831C58.7788 71.1066 59.1148 71.4017 59.1148 71.7942C59.1148 72.1097 58.8761 72.3802 58.6087 72.5483C58.4652 72.6385 58.2849 72.7532 58.3146 72.9233C58.325 72.9663 58.3434 73.007 58.3689 73.0432C58.5984 73.3946 59.0052 73.6006 59.4171 73.6785C59.829 73.7563 60.2542 73.7225 60.6733 73.6887C60.736 73.6909 60.7974 73.6698 60.8454 73.6293C60.8758 73.5884 60.892 73.5388 60.8915 73.4879C60.912 73.2707 60.8987 73.0411 60.994 72.8454C61.1272 72.578 61.4336 72.4417 61.6088 72.202C61.8547 71.8741 61.8209 71.4181 61.7276 71.0195C61.5227 70.1517 61.0667 69.1619 60.3823 68.5604C59.5892 67.8699 58.9673 68.9764 58.4376 69.4754Z" fill="#3F3D56"/>
<path d="M61.5427 17.8286C62.1144 16.974 61.9658 15.7793 61.3818 14.9289C60.7978 14.0785 59.8592 13.5436 58.891 13.1983C57.5856 12.7331 56.146 12.5743 54.8048 12.9237C53.7371 13.2014 52.7781 13.7823 51.7719 14.2311C49.9918 15.0254 48.0564 15.4105 46.1078 15.3582C43.9449 15.2977 41.5749 14.7434 39.7603 15.9258C36.4385 18.0868 37.916 23.9681 34.7735 26.3769C33.9261 27.0266 32.8595 27.3104 31.9169 27.8114C30.9742 28.3124 30.0808 29.1844 30.1033 30.2521C30.1135 30.7644 30.339 31.2531 30.6156 31.6865C31.7939 33.5544 33.9968 34.7102 36.2028 34.6886C38.4088 34.6671 40.5616 33.4939 41.8331 31.6886C42.1518 31.2367 42.4325 30.7336 42.8946 30.4324C43.8168 29.8279 45.032 30.251 46.1324 30.3412C48.5823 30.541 51.0332 28.7018 51.5209 26.2888C51.7258 25.2591 51.6899 24.0285 52.5189 23.382C53.1879 22.8605 54.1296 22.9721 54.9779 22.883C56.5292 22.7221 57.7536 21.7559 58.5959 20.4936C58.9822 19.9147 59.0272 19.2231 59.5539 18.7671C60.1215 18.2661 60.9996 18.636 61.5427 17.8286Z" fill="#3F3D56"/>
<g opacity="0.1">
<path opacity="0.1" d="M44.0584 15.556C44.9568 15.5807 45.8555 15.512 46.7398 15.3511C46.4959 15.3583 46.25 15.3583 46.0051 15.3511C44.3073 15.304 42.4825 14.9536 40.8984 15.3757C41.9435 15.386 43.0245 15.5274 44.0584 15.556Z" fill="black"/>
<path opacity="0.1" d="M40.8433 30.6362C40.3812 30.9374 40.1004 31.4405 39.7818 31.8924C38.8023 33.2671 37.3709 34.254 35.7376 34.6803C35.8575 34.6855 35.9774 34.6885 36.0983 34.6875C38.3063 34.666 40.457 33.4928 41.7285 31.6874C42.0472 31.2356 42.3279 30.7325 42.79 30.4313L42.8699 30.3821C42.1466 30.2827 41.4365 30.2479 40.8433 30.6362Z" fill="black"/>
<path opacity="0.1" d="M61.2788 14.925C60.6958 14.0786 59.7562 13.5397 58.788 13.1944C57.4826 12.7292 56.043 12.5704 54.7018 12.9198C54.6711 12.927 54.6413 12.9362 54.6116 12.9444C55.373 12.9868 56.1241 13.1401 56.8412 13.3993C57.8095 13.7446 58.749 14.2836 59.332 15.1299C59.9151 15.9762 60.0646 17.1791 59.4929 18.0296C58.9499 18.84 58.0718 18.4702 57.497 18.9691C56.9703 19.4251 56.9252 20.1167 56.5389 20.6956C55.8145 21.7786 54.8063 22.6424 53.5511 22.9703C53.9825 22.919 54.4374 22.9252 54.8678 22.8801C56.4191 22.7192 57.6435 21.753 58.4857 20.4907C58.872 19.9118 58.9171 19.2202 59.4437 18.7642C60.0185 18.2652 60.8966 18.6351 61.4397 17.8246C62.0124 16.9701 61.8639 15.7713 61.2788 14.925Z" fill="black"/>
<path opacity="0.1" d="M52.9221 23.0846C52.0789 23.1727 51.1372 23.062 50.463 23.5835C49.6341 24.2301 49.6741 25.4606 49.4651 26.4904C49.1054 28.2906 47.6443 29.7753 45.9096 30.3276L46.0316 30.3389C48.4814 30.5387 50.9323 28.6995 51.42 26.2865C51.625 25.2568 51.5891 24.0262 52.418 23.3797C52.6084 23.2373 52.8244 23.1329 53.0543 23.0723C53.0082 23.0733 52.9662 23.0805 52.9221 23.0846Z" fill="black"/>
</g>
<path d="M77.6785 14.1593C77.6785 14.1593 75.2194 19.0774 74.3998 20.9217C73.5801 22.7661 66.1003 25.5325 65.0757 25.635C64.8009 25.6727 64.5449 25.796 64.3442 25.9875C63.7652 26.4998 63.4363 27.3768 63.4363 27.3768C63.4363 27.3768 63.8462 30.1433 63.3339 34.7541C63.3236 34.8432 63.3144 34.9324 63.3062 35.0184C62.8595 39.4059 63.795 40.4407 63.795 40.4407C63.795 40.4407 53.8562 44.2318 54.1636 39.3136C54.2599 37.7654 54.2455 36.6343 54.1502 35.6885C54.0459 34.7204 53.849 33.7645 53.5621 32.834C53.3193 31.9845 53.0293 31.0532 52.7291 29.7847C52.5846 29.1518 52.3942 28.5303 52.1594 27.925C52.1522 27.9066 52.1451 27.8881 52.1389 27.8707C51.6266 26.5992 51.1143 26.1883 50.8212 26.0551C50.5446 25.9347 50.2809 25.7864 50.0343 25.6124C49.0876 24.929 47.0558 23.3972 45.2463 21.5877C42.7872 19.1287 40.3281 13.2883 40.3281 13.2883C40.3281 13.2883 39.6109 9.9071 41.2503 7.14063C42.8897 4.37416 42.1724 12.5711 42.1724 12.5711C42.1724 12.5711 45.1438 16.5671 45.8611 18.4114C46.2299 19.3602 46.816 19.8459 47.2955 20.098C48.0878 20.5104 48.8463 20.9845 49.564 21.516C50.0491 21.8826 50.5589 22.2154 51.0897 22.512C52.2352 23.1267 53.6072 23.8204 54.7507 24.0028C54.9292 24.0323 55.1097 24.0477 55.2906 24.0489C55.3765 24.0516 55.4618 24.0346 55.54 23.999C55.6181 23.9635 55.6871 23.9104 55.7415 23.844C56.0489 23.4823 56.0417 22.7036 55.971 22.0632C55.9332 21.7314 55.8771 21.402 55.8029 21.0765C55.8029 21.0765 59.1329 18.976 59.0305 21.5375C59.0146 21.8206 59.0408 22.1044 59.1084 22.3798C59.1629 22.6325 59.2835 22.8662 59.458 23.057C59.6324 23.2479 59.8544 23.389 60.1012 23.4659C60.5011 23.5831 60.9241 23.5969 61.3308 23.5058C61.4575 23.4842 61.58 23.4423 61.6935 23.3819C62.0009 23.1769 65.0747 22.2548 65.9969 22.1523C66.919 22.0498 71.5298 19.7957 71.5298 19.7957L76.5504 12.8283C76.5504 12.8283 76.448 8.72982 78.4972 7.09043C80.5464 5.45104 77.6785 14.1593 77.6785 14.1593Z" fill="#FABDBD"/>
<g opacity="0.1">
<path opacity="0.1" d="M63.3057 34.4028C63.2162 35.2262 63.1769 36.0542 63.1879 36.8824C63.1981 36.3414 63.234 35.7235 63.3057 35.0176C63.3139 34.9315 63.3231 34.8424 63.3334 34.7532C63.5126 33.1753 63.5981 31.5881 63.5895 30C63.5737 31.3829 63.4882 32.7641 63.3334 34.1384C63.3272 34.2276 63.3139 34.3167 63.3057 34.4028Z" fill="black"/>
<path opacity="0.1" d="M55.909 21.0117C55.8404 21.0517 55.8066 21.0763 55.8066 21.0763C55.9062 21.5146 55.9719 21.9599 56.0033 22.4083C56.024 21.9407 55.9924 21.4723 55.909 21.0117Z" fill="black"/>
<path opacity="0.1" d="M42.2195 12.0158C42.2697 11.2985 42.3445 10.0126 42.3302 8.86914C42.3128 10.3979 42.1765 11.9573 42.1765 11.9573L42.2195 12.0158Z" fill="black"/>
<path opacity="0.1" d="M54.1706 39.1934C54.1706 39.2333 54.1706 39.2733 54.1634 39.3132C53.8561 44.2314 63.7949 40.4403 63.7949 40.4403C63.6786 40.2833 63.5909 40.1072 63.5356 39.9198C62.0387 40.4526 54.5159 42.9302 54.1706 39.1934Z" fill="black"/>
<path opacity="0.1" d="M77.6782 13.5447C77.6782 13.5447 75.2191 18.4628 74.3994 20.3071C73.5797 22.1515 66.1 24.9179 65.0754 25.0204C64.8005 25.0581 64.5445 25.1814 64.3438 25.3728C63.7649 25.8852 63.436 26.7622 63.436 26.7622C63.436 26.7622 63.4606 26.9292 63.4903 27.2469C63.605 26.9835 63.9001 26.379 64.3438 25.9876C64.5445 25.7962 64.8005 25.6728 65.0754 25.6351C66.1 25.5327 73.5797 22.7662 74.3994 20.9219C75.2191 19.0776 77.6782 14.1594 77.6782 14.1594C77.6782 14.1594 79.4108 8.89803 79.2203 7.32422C79.0625 9.34066 77.6782 13.5447 77.6782 13.5447Z" fill="black"/>
<path opacity="0.1" d="M54.1495 35.0757C54.0452 34.1076 53.8483 33.1517 53.5614 32.2211C53.3186 31.3717 53.0286 30.4404 52.7284 29.1719C52.5839 28.539 52.3935 27.9174 52.1587 27.3122C52.1515 27.2938 52.1444 27.2753 52.1382 27.2579C51.6259 25.9863 51.1136 25.5755 50.8206 25.4423C50.5439 25.3219 50.2802 25.1736 50.0337 24.9996C49.0869 24.3162 47.0551 22.7844 45.2456 20.9749C42.7866 18.5159 40.3275 12.6755 40.3275 12.6755C40.2366 12.1825 40.1859 11.6829 40.1758 11.1816C40.1508 11.8879 40.2016 12.5949 40.3275 13.2903C40.3275 13.2903 42.7866 19.1306 45.2456 21.5897C47.0551 23.3992 49.0869 24.931 50.0337 25.6144C50.2821 25.7887 50.5479 25.9371 50.8267 26.057C51.1187 26.1902 51.63 26.6011 52.1444 27.8727C52.1505 27.8901 52.1577 27.9085 52.1649 27.927C52.3986 28.5323 52.588 29.1538 52.7315 29.7867C53.0317 31.0551 53.3216 31.9865 53.5645 32.8359C53.8514 33.7664 54.0483 34.7224 54.1526 35.6905C54.1956 36.1188 54.2213 36.585 54.2284 37.1096C54.2408 36.4307 54.2145 35.7516 54.1495 35.0757Z" fill="black"/>
</g>
<path d="M64.298 30.6233C64.1416 30.882 64.0046 31.1518 63.8881 31.4307C63.7334 31.8611 63.7324 32.3293 63.7037 32.7853C63.6628 33.4252 63.5655 34.0602 63.4127 34.6829C63.388 34.7976 63.3538 34.91 63.3103 35.0189C63.2797 35.0923 63.2393 35.1612 63.1904 35.2239C63.1358 35.2907 63.0715 35.349 62.9998 35.397C62.8899 35.4704 62.7736 35.5338 62.6525 35.5866C61.2262 36.2526 59.6708 36.8407 58.1145 36.6112C57.4565 36.4962 56.8198 36.282 56.2261 35.9759C55.6626 35.7024 55.0252 35.3776 54.4412 35.605C54.3516 35.6505 54.255 35.6806 54.1553 35.6942C54.1361 35.6945 54.1169 35.6928 54.098 35.689C53.9053 35.6522 53.9053 35.0025 53.8613 34.8109C53.6932 34.0753 53.6676 33.4789 53.5672 32.8396C53.5139 32.486 53.4313 32.1375 53.3203 31.7976C52.9104 30.5578 52.7865 29.236 52.7865 27.9368C52.7865 27.8723 52.3254 27.9368 52.1717 27.9307C52.1328 27.9307 52.1112 27.9245 52.1205 27.9112C52.1294 27.8985 52.1397 27.8868 52.1512 27.8764C52.2049 27.8328 52.2675 27.8017 52.3346 27.7852L52.4555 27.7493C53.0887 27.57 53.7875 27.4952 54.2609 27.0495C54.7527 26.5894 54.8757 25.8548 54.8541 25.1826C54.848 24.9664 54.7425 24.4418 54.7599 24.0064C54.9384 24.0359 55.1189 24.0513 55.2998 24.0525C55.3857 24.0552 55.471 24.0382 55.5492 24.0026C55.6273 23.9671 55.6963 23.914 55.7507 23.8476C55.9216 24.1785 56.0695 24.5209 56.1933 24.8722C56.3675 25.3005 56.5007 25.7513 56.7558 26.1386C57.1657 26.7698 57.9218 27.1847 58.6739 27.1212C59.426 27.0577 60.1258 26.4798 60.26 25.738C60.3778 25.0874 60.1042 24.1509 60.1104 23.4746C60.5102 23.5919 60.9333 23.6056 61.3399 23.5146C61.3572 23.5563 61.3719 23.5991 61.384 23.6426C61.6145 24.4337 61.9219 25.3415 62.6955 25.6222C63.1955 25.8025 63.7867 25.6673 64.2488 25.9296C64.2843 25.95 64.3185 25.9726 64.3513 25.9972C64.458 26.0765 64.5499 26.174 64.6228 26.2851C64.8126 26.5985 64.9253 26.9525 64.9517 27.3179C65.07 28.4604 64.8423 29.612 64.298 30.6233Z" fill="#EDE04B"/>
<path opacity="0.1" d="M59.108 22.3795C58.5969 22.5765 58.0466 22.6505 57.5016 22.5955C56.9565 22.5405 56.4321 22.3581 55.9707 22.0629C55.9329 21.7312 55.8768 21.4018 55.8026 21.0762C55.8026 21.0762 59.1326 18.9757 59.0302 21.5373C59.0143 21.8203 59.0405 22.1042 59.108 22.3795Z" fill="black"/>
<path d="M57.8505 22.4069C59.7745 22.4069 61.3342 20.8471 61.3342 18.9232C61.3342 16.9992 59.7745 15.4395 57.8505 15.4395C55.9265 15.4395 54.3668 16.9992 54.3668 18.9232C54.3668 20.8471 55.9265 22.4069 57.8505 22.4069Z" fill="#FABDBD"/>
<path d="M51.7553 27.5825C51.7553 27.5825 58.5178 23.2791 79.5224 27.8899C100.527 32.5007 112.72 28.812 112.72 28.812V33.6277C112.72 33.6277 89.1538 36.1893 80.1372 33.6277C71.1206 31.0662 58.2852 29.5887 53.7902 33.555L51.7553 27.5825Z" fill="#F86D70"/>
<path opacity="0.1" d="M51.7553 27.5825C51.7553 27.5825 58.5178 23.2791 79.5224 27.8899C100.527 32.5007 112.72 28.812 112.72 28.812V33.6277C112.72 33.6277 89.1538 36.1893 80.1372 33.6277C71.1206 31.0662 58.2852 29.5887 53.7902 33.555L51.7553 27.5825Z" fill="black"/>
<path d="M51.9603 27.7856C51.9603 27.7856 58.5178 23.4822 79.5224 28.093C100.527 32.7038 112.515 29.0152 112.515 29.0152L112.618 33.421C112.618 33.421 89.2563 35.9825 80.2397 33.421C71.2231 30.8595 58.4901 29.0746 53.9952 33.0409L51.9603 27.7856Z" fill="#F86D70"/>
<path d="M49.4946 34.4064C49.4946 34.4064 42.7321 38.7098 21.7274 34.099C0.72275 29.4882 1.74737 33.1768 1.74737 33.1768V28.3611C1.74737 28.3611 12.096 25.7996 21.1127 28.3611C30.1293 30.9227 42.9647 32.4002 47.4597 28.4339L49.4946 34.4064Z" fill="#F86D70"/>
<path opacity="0.1" d="M49.4946 34.4064C49.4946 34.4064 42.7321 38.7098 21.7274 34.099C0.72275 29.4882 1.74737 33.1768 1.74737 33.1768V28.3611C1.74737 28.3611 12.096 25.7996 21.1127 28.3611C30.1293 30.9227 42.9647 32.4002 47.4597 28.4339L49.4946 34.4064Z" fill="black"/>
<path d="M49.2909 34.1997C49.2909 34.1997 42.7333 38.5031 21.7287 33.8923C0.723994 29.2815 1.95354 32.9701 1.95354 32.9701L1.85107 28.5642C1.85107 28.5642 11.9948 26.0027 21.0114 28.5642C30.0281 31.1258 42.761 32.9107 47.256 28.9444L49.2909 34.1997Z" fill="#F86D70"/>
<path d="M54.8548 19.5004C54.7523 18.861 54.5946 18.0557 55.1294 17.6899C55.3202 17.5742 55.5407 17.5172 55.7636 17.5259C56.8712 17.5147 57.9297 18.2862 59.0158 18.0608C59.3614 17.9884 59.6788 17.8176 59.9297 17.5691C60.1806 17.3206 60.3544 17.0049 60.4302 16.66C60.5059 16.315 60.4804 15.9555 60.3568 15.6248C60.2331 15.294 60.0165 15.0059 59.733 14.7953C59.3057 14.4777 58.7658 14.3629 58.2432 14.2554C56.8692 13.9726 55.4347 13.6908 54.0781 14.0504C52.7216 14.4101 51.4818 15.6263 51.5904 17.0218C51.6416 17.6899 51.9818 18.2965 52.3373 18.8661C52.6078 19.2985 53.6611 21.3252 54.1724 21.356C54.8937 21.398 54.9255 19.9184 54.8548 19.5004Z" fill="#3F3D56"/>
<path d="M63.4873 38.7012C63.4873 38.7012 56.4174 40.443 54.0608 38.7012C54.0608 38.7012 53.0362 42.6972 53.3436 44.7465C53.3436 44.7465 58.3642 45.0539 58.8765 45.3613C58.8765 45.3613 58.9789 44.5416 59.4913 44.9514C59.4913 44.9514 61.2331 42.9022 64.4094 44.7465C64.4094 44.7465 65.0242 39.9307 63.4873 38.7012Z" fill="#EDE04B"/>
<path opacity="0.1" d="M59.7348 14.7977C59.6619 14.7449 59.5855 14.697 59.5063 14.6543C59.7177 14.8947 59.8623 15.1863 59.9257 15.5001C59.9891 15.8139 59.9691 16.1388 59.8675 16.4424C59.766 16.746 59.5865 17.0176 59.3471 17.2301C59.1077 17.4426 58.8167 17.5886 58.5032 17.6533C57.4171 17.8788 56.3586 17.1072 55.251 17.1185C55.0281 17.1098 54.8075 17.1668 54.6168 17.2824C54.0819 17.6482 54.2387 18.4536 54.3412 19.0929C54.4088 19.511 54.3811 20.9905 53.6618 20.9506H53.6495C53.8473 21.1913 54.0317 21.3543 54.1741 21.3604C54.8914 21.4004 54.9211 19.9259 54.8535 19.5028C54.751 18.8634 54.5942 18.0581 55.1291 17.6923C55.3199 17.5766 55.5404 17.5196 55.7633 17.5283C56.8709 17.5171 57.9294 18.2886 59.0155 18.0632C59.3611 17.9908 59.6785 17.82 59.9294 17.5715C60.1803 17.323 60.3541 17.0073 60.4299 16.6624C60.5057 16.3174 60.4802 15.958 60.3565 15.6272C60.2328 15.2964 60.0162 15.0084 59.7327 14.7977H59.7348Z" fill="black"/>
<g opacity="0.1">
<path opacity="0.1" d="M8.8488 9.92981C8.8488 9.92981 1.18773 6.70841 0.183601 12.518C0.183601 12.518 -0.339979 13.4227 0.388525 14.1707C0.388525 14.1707 0.545292 13.7701 1.28609 14.185C1.55054 14.3305 1.83116 14.4443 2.12218 14.5242C2.51544 14.6327 2.9333 14.6104 3.31278 14.4607C3.31278 14.4607 5.83232 14.3244 7.95123 11.0282C7.95123 11.0282 8.85904 10.4667 8.90515 10.2567L7.38667 10.3591C7.38667 10.3591 7.50245 11.4708 6.87436 12.1379C6.87436 12.1379 7.43278 10.4134 7.16432 10.3642C7.11002 10.354 6.36205 10.4534 6.36205 10.4534C6.36205 10.4534 6.5557 12.3858 5.54235 13.3858C5.54235 13.3858 6.48295 11.4196 6.07311 10.4882L4.9532 10.7044C4.9532 10.7044 5.26058 12.7373 4.15195 13.9207C4.15195 13.9207 5.06283 11.8305 4.71139 10.7679L3.63759 11.1286C3.63759 11.1286 3.89682 13.1184 2.96954 14.1C2.96954 14.1 3.77899 11.5784 3.39783 11.2311C3.39783 11.2311 2.43264 11.6225 2.22567 11.8458C2.22567 11.8458 2.37936 13.2803 1.78918 13.7926C1.78918 13.7926 2.15189 12.0508 1.97258 11.979C1.97258 11.979 0.850628 12.8233 0.50943 13.5518C0.50943 13.5518 0.935671 12.4391 1.83119 11.81C1.83119 11.81 1.07912 11.6829 0.499184 11.9975C0.499184 11.9975 0.887514 11.2587 2.10271 11.6092C2.10271 11.6092 3.00335 10.9862 3.18368 10.9944C3.18368 10.9944 2.03406 10.4821 1.2031 10.5446C1.2031 10.5446 2.09349 10.0323 3.46545 10.8888L4.53515 10.5015C4.53515 10.5015 3.05048 9.74025 2.30559 9.74332C2.30559 9.74332 3.29537 9.36114 4.81385 10.4267L5.90917 10.2024C5.90917 10.2024 4.67963 9.44926 3.85071 9.27405C3.85071 9.27405 4.84561 9.11728 6.22577 10.1511L6.97579 10.0876C6.97579 10.0876 6.06798 9.55377 5.79339 9.42364C5.51879 9.29352 5.53108 9.20847 5.53108 9.20847C6.18465 9.32195 6.79378 9.61498 7.29035 10.0548C7.29035 10.0548 8.84163 10.0251 8.8488 9.92981Z" fill="#EDE04B"/>
</g>
<g opacity="0.1">
<path opacity="0.1" d="M8.56555 4.15418C8.56555 4.15418 5.84622 -2.12366 1.94344 0.755519C1.94344 0.755519 1.11658 0.99528 1.12375 1.85186C1.12375 1.85186 1.44548 1.70329 1.64835 2.37134C1.72421 2.60858 1.82736 2.83621 1.95574 3.04964C2.12554 3.33672 2.38411 3.56077 2.69244 3.68798C2.69244 3.68798 4.26625 5.04252 7.40568 4.29148C7.40568 4.29148 8.26534 4.47591 8.41288 4.37652L7.45282 3.57117C7.45282 3.57117 6.88928 4.29762 6.13311 4.33349C6.13311 4.33349 7.44769 3.6265 7.31552 3.44412C7.28888 3.40723 6.78886 3.04042 6.78886 3.04042C6.78886 3.04042 5.80216 4.29865 4.63717 4.31812C4.63717 4.31812 6.31651 3.6849 6.60341 2.89902L5.81548 2.38671C5.81548 2.38671 4.83799 3.76892 3.50701 3.84064C3.50701 3.84064 5.23862 3.12341 5.63514 2.28732L4.79188 1.88977C4.79188 1.88977 3.81235 3.22178 2.70473 3.27198C2.70473 3.27198 4.6218 2.23507 4.59208 1.8119C4.59208 1.8119 3.79595 1.49427 3.5439 1.51271C3.5439 1.51271 2.81949 2.45024 2.17296 2.4236C2.17296 2.4236 3.38098 1.59468 3.31438 1.45021C3.31438 1.45021 2.16681 1.31291 1.54897 1.55267C1.54897 1.55267 2.43629 1.13463 3.32668 1.27193C3.32668 1.27193 2.95269 0.766791 2.43116 0.626418C2.43116 0.626418 3.08282 0.408174 3.60537 1.30881C3.60537 1.30881 4.49474 1.45124 4.59823 1.5578C4.59823 1.5578 4.20887 0.595679 3.67607 0.162265C3.67607 0.162265 4.49577 0.36719 4.82365 1.65513L5.6792 2.03527C5.6792 2.03527 5.23144 0.737076 4.78164 0.315958C4.78164 0.315958 5.58801 0.652033 5.8831 2.15002L6.66079 2.64082C6.66079 2.64082 6.35852 1.49324 5.96712 0.921508C5.96712 0.921508 6.64747 1.39386 6.87903 2.79451L7.3606 3.18386C7.3606 3.18386 7.12494 2.34983 7.0358 2.11621C6.94665 1.8826 7.00301 1.83957 7.00301 1.83957C7.32609 2.27962 7.52081 2.80065 7.56552 3.34473C7.56552 3.34473 8.51022 4.20746 8.56555 4.15418Z" fill="#EDE04B"/>
</g>
</g>
<defs>
<clipPath id="clip0">
<rect width="112.719" height="75" fill="white"/>
</clipPath>
</defs>
</svg>
